G04 #@! TF.GenerationSoftware,KiCad,Pcbnew,(5.1.5-0-10_14)*
G04 #@! TF.CreationDate,2020-04-12T13:45:19-07:00*
G04 #@! TF.ProjectId,kimchi_usb_ulid,6b696d63-6869-45f7-9573-625f756c6964,v0.1*
G04 #@! TF.SameCoordinates,Original*
G04 #@! TF.FileFunction,Legend,Top*
G04 #@! TF.FilePolarity,Positive*
%FSLAX46Y46*%
G04 Gerber Fmt 4.6, Leading zero omitted, Abs format (unit mm)*
G04 Created by KiCad (PCBNEW (5.1.5-0-10_14)) date 2020-04-12 13:45:19*
%MOMM*%
%LPD*%
G04 APERTURE LIST*
%ADD10C,0.150000*%
%ADD11C,0.120000*%
%ADD12C,0.100000*%
%ADD13C,1.701600*%
%ADD14R,1.701600X1.701600*%
%ADD15C,3.101600*%
%ADD16R,0.851600X0.801600*%
%ADD17R,2.501600X1.651600*%
%ADD18R,0.451600X0.751600*%
%ADD19R,1.651600X2.501600*%
%ADD20R,0.751600X0.451600*%
%ADD21C,5.101600*%
%ADD22R,1.561600X1.461600*%
%ADD23R,0.401600X0.851600*%
G04 APERTURE END LIST*
D10*
X107000000Y-126000000D02*
X107000000Y-94000000D01*
X172000000Y-126000000D02*
X107000000Y-126000000D01*
X172000000Y-94000000D02*
X172000000Y-126000000D01*
X107000000Y-94000000D02*
X172000000Y-94000000D01*
D11*
X156250000Y-126990000D02*
X170750000Y-126990000D01*
X170750000Y-126990000D02*
X170750000Y-126490000D01*
X170750000Y-126490000D02*
X169750000Y-126490000D01*
X169750000Y-126490000D02*
X169750000Y-118490000D01*
X169750000Y-114990000D02*
X169750000Y-112990000D01*
X169750000Y-112990000D02*
X157250000Y-112990000D01*
X157250000Y-112990000D02*
X157250000Y-114990000D01*
X157250000Y-118490000D02*
X157250000Y-126490000D01*
X157250000Y-126490000D02*
X156250000Y-126490000D01*
X156250000Y-126490000D02*
X156250000Y-126990000D01*
X159500000Y-112740000D02*
X160500000Y-112740000D01*
X106010000Y-102750000D02*
X106010000Y-117250000D01*
X106010000Y-117250000D02*
X106510000Y-117250000D01*
X106510000Y-117250000D02*
X106510000Y-116250000D01*
X106510000Y-116250000D02*
X114510000Y-116250000D01*
X118010000Y-116250000D02*
X120010000Y-116250000D01*
X120010000Y-116250000D02*
X120010000Y-103750000D01*
X120010000Y-103750000D02*
X118010000Y-103750000D01*
X114510000Y-103750000D02*
X106510000Y-103750000D01*
X106510000Y-103750000D02*
X106510000Y-102750000D01*
X106510000Y-102750000D02*
X106010000Y-102750000D01*
X120260000Y-106000000D02*
X120260000Y-107000000D01*
X170750000Y-93010000D02*
X156250000Y-93010000D01*
X156250000Y-93010000D02*
X156250000Y-93510000D01*
X156250000Y-93510000D02*
X157250000Y-93510000D01*
X157250000Y-93510000D02*
X157250000Y-101510000D01*
X157250000Y-105010000D02*
X157250000Y-107010000D01*
X157250000Y-107010000D02*
X169750000Y-107010000D01*
X169750000Y-107010000D02*
X169750000Y-105010000D01*
X169750000Y-101510000D02*
X169750000Y-93510000D01*
X169750000Y-93510000D02*
X170750000Y-93510000D01*
X170750000Y-93510000D02*
X170750000Y-93010000D01*
X167500000Y-107260000D02*
X166500000Y-107260000D01*
X132115000Y-106890000D02*
X131390000Y-106890000D01*
X137610000Y-113110000D02*
X137610000Y-112385000D01*
X136885000Y-113110000D02*
X137610000Y-113110000D01*
X131390000Y-113110000D02*
X131390000Y-112385000D01*
X132115000Y-113110000D02*
X131390000Y-113110000D01*
X137610000Y-106890000D02*
X137610000Y-107615000D01*
X136885000Y-106890000D02*
X137610000Y-106890000D01*
X128060000Y-105060000D02*
X127910000Y-105060000D01*
X128060000Y-101940000D02*
X127910000Y-101940000D01*
X124940000Y-101940000D02*
X125090000Y-101940000D01*
X128060000Y-101940000D02*
X128060000Y-105060000D01*
X124940000Y-101940000D02*
X124940000Y-105060000D01*
X124940000Y-105060000D02*
X125090000Y-105060000D01*
X127910000Y-101940000D02*
X127910000Y-101680000D01*
X159810000Y-108440000D02*
X159810000Y-108590000D01*
X156690000Y-108440000D02*
X156690000Y-108590000D01*
X156690000Y-111560000D02*
X156690000Y-111410000D01*
X156690000Y-108440000D02*
X159810000Y-108440000D01*
X156690000Y-111560000D02*
X159810000Y-111560000D01*
X159810000Y-111560000D02*
X159810000Y-111410000D01*
X156690000Y-108590000D02*
X156430000Y-108590000D01*
D10*
X147130000Y-99650000D02*
X147130000Y-96670000D01*
X149370000Y-98830000D02*
X149370000Y-96670000D01*
X152589285Y-99482142D02*
X152232142Y-99732142D01*
X152589285Y-99910714D02*
X151839285Y-99910714D01*
X151839285Y-99625000D01*
X151875000Y-99553571D01*
X151910714Y-99517857D01*
X151982142Y-99482142D01*
X152089285Y-99482142D01*
X152160714Y-99517857D01*
X152196428Y-99553571D01*
X152232142Y-99625000D01*
X152232142Y-99910714D01*
X152589285Y-98767857D02*
X152589285Y-99196428D01*
X152589285Y-98982142D02*
X151839285Y-98982142D01*
X151946428Y-99053571D01*
X152017857Y-99125000D01*
X152053571Y-99196428D01*
X151839285Y-98517857D02*
X151839285Y-98053571D01*
X152125000Y-98303571D01*
X152125000Y-98196428D01*
X152160714Y-98125000D01*
X152196428Y-98089285D01*
X152267857Y-98053571D01*
X152446428Y-98053571D01*
X152517857Y-98089285D01*
X152553571Y-98125000D01*
X152589285Y-98196428D01*
X152589285Y-98410714D01*
X152553571Y-98482142D01*
X152517857Y-98517857D01*
X128239285Y-98982142D02*
X127882142Y-99232142D01*
X128239285Y-99410714D02*
X127489285Y-99410714D01*
X127489285Y-99125000D01*
X127525000Y-99053571D01*
X127560714Y-99017857D01*
X127632142Y-98982142D01*
X127739285Y-98982142D01*
X127810714Y-99017857D01*
X127846428Y-99053571D01*
X127882142Y-99125000D01*
X127882142Y-99410714D01*
X128239285Y-98267857D02*
X128239285Y-98696428D01*
X128239285Y-98482142D02*
X127489285Y-98482142D01*
X127596428Y-98553571D01*
X127667857Y-98625000D01*
X127703571Y-98696428D01*
X127560714Y-97982142D02*
X127525000Y-97946428D01*
X127489285Y-97875000D01*
X127489285Y-97696428D01*
X127525000Y-97625000D01*
X127560714Y-97589285D01*
X127632142Y-97553571D01*
X127703571Y-97553571D01*
X127810714Y-97589285D01*
X128239285Y-98017857D01*
X128239285Y-97553571D01*
X130239285Y-98982142D02*
X129882142Y-99232142D01*
X130239285Y-99410714D02*
X129489285Y-99410714D01*
X129489285Y-99125000D01*
X129525000Y-99053571D01*
X129560714Y-99017857D01*
X129632142Y-98982142D01*
X129739285Y-98982142D01*
X129810714Y-99017857D01*
X129846428Y-99053571D01*
X129882142Y-99125000D01*
X129882142Y-99410714D01*
X130239285Y-98267857D02*
X130239285Y-98696428D01*
X130239285Y-98482142D02*
X129489285Y-98482142D01*
X129596428Y-98553571D01*
X129667857Y-98625000D01*
X129703571Y-98696428D01*
X130239285Y-97553571D02*
X130239285Y-97982142D01*
X130239285Y-97767857D02*
X129489285Y-97767857D01*
X129596428Y-97839285D01*
X129667857Y-97910714D01*
X129703571Y-97982142D01*
X123239285Y-99082142D02*
X122882142Y-99332142D01*
X123239285Y-99510714D02*
X122489285Y-99510714D01*
X122489285Y-99225000D01*
X122525000Y-99153571D01*
X122560714Y-99117857D01*
X122632142Y-99082142D01*
X122739285Y-99082142D01*
X122810714Y-99117857D01*
X122846428Y-99153571D01*
X122882142Y-99225000D01*
X122882142Y-99510714D01*
X123239285Y-98367857D02*
X123239285Y-98796428D01*
X123239285Y-98582142D02*
X122489285Y-98582142D01*
X122596428Y-98653571D01*
X122667857Y-98725000D01*
X122703571Y-98796428D01*
X122489285Y-97903571D02*
X122489285Y-97832142D01*
X122525000Y-97760714D01*
X122560714Y-97725000D01*
X122632142Y-97689285D01*
X122775000Y-97653571D01*
X122953571Y-97653571D01*
X123096428Y-97689285D01*
X123167857Y-97725000D01*
X123203571Y-97760714D01*
X123239285Y-97832142D01*
X123239285Y-97903571D01*
X123203571Y-97975000D01*
X123167857Y-98010714D01*
X123096428Y-98046428D01*
X122953571Y-98082142D01*
X122775000Y-98082142D01*
X122632142Y-98046428D01*
X122560714Y-98010714D01*
X122525000Y-97975000D01*
X122489285Y-97903571D01*
X126239285Y-98325000D02*
X125882142Y-98575000D01*
X126239285Y-98753571D02*
X125489285Y-98753571D01*
X125489285Y-98467857D01*
X125525000Y-98396428D01*
X125560714Y-98360714D01*
X125632142Y-98325000D01*
X125739285Y-98325000D01*
X125810714Y-98360714D01*
X125846428Y-98396428D01*
X125882142Y-98467857D01*
X125882142Y-98753571D01*
X126239285Y-97967857D02*
X126239285Y-97825000D01*
X126203571Y-97753571D01*
X126167857Y-97717857D01*
X126060714Y-97646428D01*
X125917857Y-97610714D01*
X125632142Y-97610714D01*
X125560714Y-97646428D01*
X125525000Y-97682142D01*
X125489285Y-97753571D01*
X125489285Y-97896428D01*
X125525000Y-97967857D01*
X125560714Y-98003571D01*
X125632142Y-98039285D01*
X125810714Y-98039285D01*
X125882142Y-98003571D01*
X125917857Y-97967857D01*
X125953571Y-97896428D01*
X125953571Y-97753571D01*
X125917857Y-97682142D01*
X125882142Y-97646428D01*
X125810714Y-97610714D01*
X129239285Y-98325000D02*
X128882142Y-98575000D01*
X129239285Y-98753571D02*
X128489285Y-98753571D01*
X128489285Y-98467857D01*
X128525000Y-98396428D01*
X128560714Y-98360714D01*
X128632142Y-98325000D01*
X128739285Y-98325000D01*
X128810714Y-98360714D01*
X128846428Y-98396428D01*
X128882142Y-98467857D01*
X128882142Y-98753571D01*
X128810714Y-97896428D02*
X128775000Y-97967857D01*
X128739285Y-98003571D01*
X128667857Y-98039285D01*
X128632142Y-98039285D01*
X128560714Y-98003571D01*
X128525000Y-97967857D01*
X128489285Y-97896428D01*
X128489285Y-97753571D01*
X128525000Y-97682142D01*
X128560714Y-97646428D01*
X128632142Y-97610714D01*
X128667857Y-97610714D01*
X128739285Y-97646428D01*
X128775000Y-97682142D01*
X128810714Y-97753571D01*
X128810714Y-97896428D01*
X128846428Y-97967857D01*
X128882142Y-98003571D01*
X128953571Y-98039285D01*
X129096428Y-98039285D01*
X129167857Y-98003571D01*
X129203571Y-97967857D01*
X129239285Y-97896428D01*
X129239285Y-97753571D01*
X129203571Y-97682142D01*
X129167857Y-97646428D01*
X129096428Y-97610714D01*
X128953571Y-97610714D01*
X128882142Y-97646428D01*
X128846428Y-97682142D01*
X128810714Y-97753571D01*
X124239285Y-98325000D02*
X123882142Y-98575000D01*
X124239285Y-98753571D02*
X123489285Y-98753571D01*
X123489285Y-98467857D01*
X123525000Y-98396428D01*
X123560714Y-98360714D01*
X123632142Y-98325000D01*
X123739285Y-98325000D01*
X123810714Y-98360714D01*
X123846428Y-98396428D01*
X123882142Y-98467857D01*
X123882142Y-98753571D01*
X123489285Y-98075000D02*
X123489285Y-97575000D01*
X124239285Y-97896428D01*
X127239285Y-98325000D02*
X126882142Y-98575000D01*
X127239285Y-98753571D02*
X126489285Y-98753571D01*
X126489285Y-98467857D01*
X126525000Y-98396428D01*
X126560714Y-98360714D01*
X126632142Y-98325000D01*
X126739285Y-98325000D01*
X126810714Y-98360714D01*
X126846428Y-98396428D01*
X126882142Y-98467857D01*
X126882142Y-98753571D01*
X126489285Y-97682142D02*
X126489285Y-97825000D01*
X126525000Y-97896428D01*
X126560714Y-97932142D01*
X126667857Y-98003571D01*
X126810714Y-98039285D01*
X127096428Y-98039285D01*
X127167857Y-98003571D01*
X127203571Y-97967857D01*
X127239285Y-97896428D01*
X127239285Y-97753571D01*
X127203571Y-97682142D01*
X127167857Y-97646428D01*
X127096428Y-97610714D01*
X126917857Y-97610714D01*
X126846428Y-97646428D01*
X126810714Y-97682142D01*
X126775000Y-97753571D01*
X126775000Y-97896428D01*
X126810714Y-97967857D01*
X126846428Y-98003571D01*
X126917857Y-98039285D01*
X125239285Y-98325000D02*
X124882142Y-98575000D01*
X125239285Y-98753571D02*
X124489285Y-98753571D01*
X124489285Y-98467857D01*
X124525000Y-98396428D01*
X124560714Y-98360714D01*
X124632142Y-98325000D01*
X124739285Y-98325000D01*
X124810714Y-98360714D01*
X124846428Y-98396428D01*
X124882142Y-98467857D01*
X124882142Y-98753571D01*
X124489285Y-97646428D02*
X124489285Y-98003571D01*
X124846428Y-98039285D01*
X124810714Y-98003571D01*
X124775000Y-97932142D01*
X124775000Y-97753571D01*
X124810714Y-97682142D01*
X124846428Y-97646428D01*
X124917857Y-97610714D01*
X125096428Y-97610714D01*
X125167857Y-97646428D01*
X125203571Y-97682142D01*
X125239285Y-97753571D01*
X125239285Y-97932142D01*
X125203571Y-98003571D01*
X125167857Y-98039285D01*
X132839285Y-103525000D02*
X132482142Y-103775000D01*
X132839285Y-103953571D02*
X132089285Y-103953571D01*
X132089285Y-103667857D01*
X132125000Y-103596428D01*
X132160714Y-103560714D01*
X132232142Y-103525000D01*
X132339285Y-103525000D01*
X132410714Y-103560714D01*
X132446428Y-103596428D01*
X132482142Y-103667857D01*
X132482142Y-103953571D01*
X132339285Y-102882142D02*
X132839285Y-102882142D01*
X132053571Y-103060714D02*
X132589285Y-103239285D01*
X132589285Y-102775000D01*
X138339285Y-103325000D02*
X137982142Y-103575000D01*
X138339285Y-103753571D02*
X137589285Y-103753571D01*
X137589285Y-103467857D01*
X137625000Y-103396428D01*
X137660714Y-103360714D01*
X137732142Y-103325000D01*
X137839285Y-103325000D01*
X137910714Y-103360714D01*
X137946428Y-103396428D01*
X137982142Y-103467857D01*
X137982142Y-103753571D01*
X137589285Y-103075000D02*
X137589285Y-102610714D01*
X137875000Y-102860714D01*
X137875000Y-102753571D01*
X137910714Y-102682142D01*
X137946428Y-102646428D01*
X138017857Y-102610714D01*
X138196428Y-102610714D01*
X138267857Y-102646428D01*
X138303571Y-102682142D01*
X138339285Y-102753571D01*
X138339285Y-102967857D01*
X138303571Y-103039285D01*
X138267857Y-103075000D01*
X139339285Y-100925000D02*
X138982142Y-101175000D01*
X139339285Y-101353571D02*
X138589285Y-101353571D01*
X138589285Y-101067857D01*
X138625000Y-100996428D01*
X138660714Y-100960714D01*
X138732142Y-100925000D01*
X138839285Y-100925000D01*
X138910714Y-100960714D01*
X138946428Y-100996428D01*
X138982142Y-101067857D01*
X138982142Y-101353571D01*
X138660714Y-100639285D02*
X138625000Y-100603571D01*
X138589285Y-100532142D01*
X138589285Y-100353571D01*
X138625000Y-100282142D01*
X138660714Y-100246428D01*
X138732142Y-100210714D01*
X138803571Y-100210714D01*
X138910714Y-100246428D01*
X139339285Y-100675000D01*
X139339285Y-100210714D01*
X134767857Y-117482142D02*
X134803571Y-117517857D01*
X134839285Y-117625000D01*
X134839285Y-117696428D01*
X134803571Y-117803571D01*
X134732142Y-117875000D01*
X134660714Y-117910714D01*
X134517857Y-117946428D01*
X134410714Y-117946428D01*
X134267857Y-117910714D01*
X134196428Y-117875000D01*
X134125000Y-117803571D01*
X134089285Y-117696428D01*
X134089285Y-117625000D01*
X134125000Y-117517857D01*
X134160714Y-117482142D01*
X134839285Y-116767857D02*
X134839285Y-117196428D01*
X134839285Y-116982142D02*
X134089285Y-116982142D01*
X134196428Y-117053571D01*
X134267857Y-117125000D01*
X134303571Y-117196428D01*
X134089285Y-116517857D02*
X134089285Y-116053571D01*
X134375000Y-116303571D01*
X134375000Y-116196428D01*
X134410714Y-116125000D01*
X134446428Y-116089285D01*
X134517857Y-116053571D01*
X134696428Y-116053571D01*
X134767857Y-116089285D01*
X134803571Y-116125000D01*
X134839285Y-116196428D01*
X134839285Y-116410714D01*
X134803571Y-116482142D01*
X134767857Y-116517857D01*
X133767857Y-103482142D02*
X133803571Y-103517857D01*
X133839285Y-103625000D01*
X133839285Y-103696428D01*
X133803571Y-103803571D01*
X133732142Y-103875000D01*
X133660714Y-103910714D01*
X133517857Y-103946428D01*
X133410714Y-103946428D01*
X133267857Y-103910714D01*
X133196428Y-103875000D01*
X133125000Y-103803571D01*
X133089285Y-103696428D01*
X133089285Y-103625000D01*
X133125000Y-103517857D01*
X133160714Y-103482142D01*
X133839285Y-102767857D02*
X133839285Y-103196428D01*
X133839285Y-102982142D02*
X133089285Y-102982142D01*
X133196428Y-103053571D01*
X133267857Y-103125000D01*
X133303571Y-103196428D01*
X133160714Y-102482142D02*
X133125000Y-102446428D01*
X133089285Y-102375000D01*
X133089285Y-102196428D01*
X133125000Y-102125000D01*
X133160714Y-102089285D01*
X133232142Y-102053571D01*
X133303571Y-102053571D01*
X133410714Y-102089285D01*
X133839285Y-102517857D01*
X133839285Y-102053571D01*
X139267857Y-103282142D02*
X139303571Y-103317857D01*
X139339285Y-103425000D01*
X139339285Y-103496428D01*
X139303571Y-103603571D01*
X139232142Y-103675000D01*
X139160714Y-103710714D01*
X139017857Y-103746428D01*
X138910714Y-103746428D01*
X138767857Y-103710714D01*
X138696428Y-103675000D01*
X138625000Y-103603571D01*
X138589285Y-103496428D01*
X138589285Y-103425000D01*
X138625000Y-103317857D01*
X138660714Y-103282142D01*
X139339285Y-102567857D02*
X139339285Y-102996428D01*
X139339285Y-102782142D02*
X138589285Y-102782142D01*
X138696428Y-102853571D01*
X138767857Y-102925000D01*
X138803571Y-102996428D01*
X139339285Y-101853571D02*
X139339285Y-102282142D01*
X139339285Y-102067857D02*
X138589285Y-102067857D01*
X138696428Y-102139285D01*
X138767857Y-102210714D01*
X138803571Y-102282142D01*
X139237857Y-113682142D02*
X139273571Y-113717857D01*
X139309285Y-113825000D01*
X139309285Y-113896428D01*
X139273571Y-114003571D01*
X139202142Y-114075000D01*
X139130714Y-114110714D01*
X138987857Y-114146428D01*
X138880714Y-114146428D01*
X138737857Y-114110714D01*
X138666428Y-114075000D01*
X138595000Y-114003571D01*
X138559285Y-113896428D01*
X138559285Y-113825000D01*
X138595000Y-113717857D01*
X138630714Y-113682142D01*
X139309285Y-112967857D02*
X139309285Y-113396428D01*
X139309285Y-113182142D02*
X138559285Y-113182142D01*
X138666428Y-113253571D01*
X138737857Y-113325000D01*
X138773571Y-113396428D01*
X138559285Y-112503571D02*
X138559285Y-112432142D01*
X138595000Y-112360714D01*
X138630714Y-112325000D01*
X138702142Y-112289285D01*
X138845000Y-112253571D01*
X139023571Y-112253571D01*
X139166428Y-112289285D01*
X139237857Y-112325000D01*
X139273571Y-112360714D01*
X139309285Y-112432142D01*
X139309285Y-112503571D01*
X139273571Y-112575000D01*
X139237857Y-112610714D01*
X139166428Y-112646428D01*
X139023571Y-112682142D01*
X138845000Y-112682142D01*
X138702142Y-112646428D01*
X138630714Y-112610714D01*
X138595000Y-112575000D01*
X138559285Y-112503571D01*
X135767857Y-116825000D02*
X135803571Y-116860714D01*
X135839285Y-116967857D01*
X135839285Y-117039285D01*
X135803571Y-117146428D01*
X135732142Y-117217857D01*
X135660714Y-117253571D01*
X135517857Y-117289285D01*
X135410714Y-117289285D01*
X135267857Y-117253571D01*
X135196428Y-117217857D01*
X135125000Y-117146428D01*
X135089285Y-117039285D01*
X135089285Y-116967857D01*
X135125000Y-116860714D01*
X135160714Y-116825000D01*
X135839285Y-116467857D02*
X135839285Y-116325000D01*
X135803571Y-116253571D01*
X135767857Y-116217857D01*
X135660714Y-116146428D01*
X135517857Y-116110714D01*
X135232142Y-116110714D01*
X135160714Y-116146428D01*
X135125000Y-116182142D01*
X135089285Y-116253571D01*
X135089285Y-116396428D01*
X135125000Y-116467857D01*
X135160714Y-116503571D01*
X135232142Y-116539285D01*
X135410714Y-116539285D01*
X135482142Y-116503571D01*
X135517857Y-116467857D01*
X135553571Y-116396428D01*
X135553571Y-116253571D01*
X135517857Y-116182142D01*
X135482142Y-116146428D01*
X135410714Y-116110714D01*
X139267857Y-115325000D02*
X139303571Y-115360714D01*
X139339285Y-115467857D01*
X139339285Y-115539285D01*
X139303571Y-115646428D01*
X139232142Y-115717857D01*
X139160714Y-115753571D01*
X139017857Y-115789285D01*
X138910714Y-115789285D01*
X138767857Y-115753571D01*
X138696428Y-115717857D01*
X138625000Y-115646428D01*
X138589285Y-115539285D01*
X138589285Y-115467857D01*
X138625000Y-115360714D01*
X138660714Y-115325000D01*
X138910714Y-114896428D02*
X138875000Y-114967857D01*
X138839285Y-115003571D01*
X138767857Y-115039285D01*
X138732142Y-115039285D01*
X138660714Y-115003571D01*
X138625000Y-114967857D01*
X138589285Y-114896428D01*
X138589285Y-114753571D01*
X138625000Y-114682142D01*
X138660714Y-114646428D01*
X138732142Y-114610714D01*
X138767857Y-114610714D01*
X138839285Y-114646428D01*
X138875000Y-114682142D01*
X138910714Y-114753571D01*
X138910714Y-114896428D01*
X138946428Y-114967857D01*
X138982142Y-115003571D01*
X139053571Y-115039285D01*
X139196428Y-115039285D01*
X139267857Y-115003571D01*
X139303571Y-114967857D01*
X139339285Y-114896428D01*
X139339285Y-114753571D01*
X139303571Y-114682142D01*
X139267857Y-114646428D01*
X139196428Y-114610714D01*
X139053571Y-114610714D01*
X138982142Y-114646428D01*
X138946428Y-114682142D01*
X138910714Y-114753571D01*
X131767857Y-103425000D02*
X131803571Y-103460714D01*
X131839285Y-103567857D01*
X131839285Y-103639285D01*
X131803571Y-103746428D01*
X131732142Y-103817857D01*
X131660714Y-103853571D01*
X131517857Y-103889285D01*
X131410714Y-103889285D01*
X131267857Y-103853571D01*
X131196428Y-103817857D01*
X131125000Y-103746428D01*
X131089285Y-103639285D01*
X131089285Y-103567857D01*
X131125000Y-103460714D01*
X131160714Y-103425000D01*
X131089285Y-103175000D02*
X131089285Y-102675000D01*
X131839285Y-102996428D01*
X129267857Y-107725000D02*
X129303571Y-107760714D01*
X129339285Y-107867857D01*
X129339285Y-107939285D01*
X129303571Y-108046428D01*
X129232142Y-108117857D01*
X129160714Y-108153571D01*
X129017857Y-108189285D01*
X128910714Y-108189285D01*
X128767857Y-108153571D01*
X128696428Y-108117857D01*
X128625000Y-108046428D01*
X128589285Y-107939285D01*
X128589285Y-107867857D01*
X128625000Y-107760714D01*
X128660714Y-107725000D01*
X128589285Y-107082142D02*
X128589285Y-107225000D01*
X128625000Y-107296428D01*
X128660714Y-107332142D01*
X128767857Y-107403571D01*
X128910714Y-107439285D01*
X129196428Y-107439285D01*
X129267857Y-107403571D01*
X129303571Y-107367857D01*
X129339285Y-107296428D01*
X129339285Y-107153571D01*
X129303571Y-107082142D01*
X129267857Y-107046428D01*
X129196428Y-107010714D01*
X129017857Y-107010714D01*
X128946428Y-107046428D01*
X128910714Y-107082142D01*
X128875000Y-107153571D01*
X128875000Y-107296428D01*
X128910714Y-107367857D01*
X128946428Y-107403571D01*
X129017857Y-107439285D01*
X136267857Y-103125000D02*
X136303571Y-103160714D01*
X136339285Y-103267857D01*
X136339285Y-103339285D01*
X136303571Y-103446428D01*
X136232142Y-103517857D01*
X136160714Y-103553571D01*
X136017857Y-103589285D01*
X135910714Y-103589285D01*
X135767857Y-103553571D01*
X135696428Y-103517857D01*
X135625000Y-103446428D01*
X135589285Y-103339285D01*
X135589285Y-103267857D01*
X135625000Y-103160714D01*
X135660714Y-103125000D01*
X135589285Y-102446428D02*
X135589285Y-102803571D01*
X135946428Y-102839285D01*
X135910714Y-102803571D01*
X135875000Y-102732142D01*
X135875000Y-102553571D01*
X135910714Y-102482142D01*
X135946428Y-102446428D01*
X136017857Y-102410714D01*
X136196428Y-102410714D01*
X136267857Y-102446428D01*
X136303571Y-102482142D01*
X136339285Y-102553571D01*
X136339285Y-102732142D01*
X136303571Y-102803571D01*
X136267857Y-102839285D01*
X132767857Y-116825000D02*
X132803571Y-116860714D01*
X132839285Y-116967857D01*
X132839285Y-117039285D01*
X132803571Y-117146428D01*
X132732142Y-117217857D01*
X132660714Y-117253571D01*
X132517857Y-117289285D01*
X132410714Y-117289285D01*
X132267857Y-117253571D01*
X132196428Y-117217857D01*
X132125000Y-117146428D01*
X132089285Y-117039285D01*
X132089285Y-116967857D01*
X132125000Y-116860714D01*
X132160714Y-116825000D01*
X132339285Y-116182142D02*
X132839285Y-116182142D01*
X132053571Y-116360714D02*
X132589285Y-116539285D01*
X132589285Y-116075000D01*
X155937857Y-99125000D02*
X155973571Y-99160714D01*
X156009285Y-99267857D01*
X156009285Y-99339285D01*
X155973571Y-99446428D01*
X155902142Y-99517857D01*
X155830714Y-99553571D01*
X155687857Y-99589285D01*
X155580714Y-99589285D01*
X155437857Y-99553571D01*
X155366428Y-99517857D01*
X155295000Y-99446428D01*
X155259285Y-99339285D01*
X155259285Y-99267857D01*
X155295000Y-99160714D01*
X155330714Y-99125000D01*
X155259285Y-98875000D02*
X155259285Y-98410714D01*
X155545000Y-98660714D01*
X155545000Y-98553571D01*
X155580714Y-98482142D01*
X155616428Y-98446428D01*
X155687857Y-98410714D01*
X155866428Y-98410714D01*
X155937857Y-98446428D01*
X155973571Y-98482142D01*
X156009285Y-98553571D01*
X156009285Y-98767857D01*
X155973571Y-98839285D01*
X155937857Y-98875000D01*
X163250000Y-111329285D02*
X163250000Y-111865000D01*
X163214285Y-111972142D01*
X163142857Y-112043571D01*
X163035714Y-112079285D01*
X162964285Y-112079285D01*
X163964285Y-111329285D02*
X163607142Y-111329285D01*
X163571428Y-111686428D01*
X163607142Y-111650714D01*
X163678571Y-111615000D01*
X163857142Y-111615000D01*
X163928571Y-111650714D01*
X163964285Y-111686428D01*
X164000000Y-111757857D01*
X164000000Y-111936428D01*
X163964285Y-112007857D01*
X163928571Y-112043571D01*
X163857142Y-112079285D01*
X163678571Y-112079285D01*
X163607142Y-112043571D01*
X163571428Y-112007857D01*
X120849285Y-110250000D02*
X121385000Y-110250000D01*
X121492142Y-110285714D01*
X121563571Y-110357142D01*
X121599285Y-110464285D01*
X121599285Y-110535714D01*
X120849285Y-109964285D02*
X120849285Y-109500000D01*
X121135000Y-109750000D01*
X121135000Y-109642857D01*
X121170714Y-109571428D01*
X121206428Y-109535714D01*
X121277857Y-109500000D01*
X121456428Y-109500000D01*
X121527857Y-109535714D01*
X121563571Y-109571428D01*
X121599285Y-109642857D01*
X121599285Y-109857142D01*
X121563571Y-109928571D01*
X121527857Y-109964285D01*
X163250000Y-107849285D02*
X163250000Y-108385000D01*
X163214285Y-108492142D01*
X163142857Y-108563571D01*
X163035714Y-108599285D01*
X162964285Y-108599285D01*
X163928571Y-108099285D02*
X163928571Y-108599285D01*
X163750000Y-107813571D02*
X163571428Y-108349285D01*
X164035714Y-108349285D01*
X123239285Y-102725000D02*
X122882142Y-102975000D01*
X123239285Y-103153571D02*
X122489285Y-103153571D01*
X122489285Y-102867857D01*
X122525000Y-102796428D01*
X122560714Y-102760714D01*
X122632142Y-102725000D01*
X122739285Y-102725000D01*
X122810714Y-102760714D01*
X122846428Y-102796428D01*
X122882142Y-102867857D01*
X122882142Y-103153571D01*
X123239285Y-102010714D02*
X123239285Y-102439285D01*
X123239285Y-102225000D02*
X122489285Y-102225000D01*
X122596428Y-102296428D01*
X122667857Y-102367857D01*
X122703571Y-102439285D01*
X137375000Y-99467857D02*
X137339285Y-99503571D01*
X137232142Y-99539285D01*
X137160714Y-99539285D01*
X137053571Y-99503571D01*
X136982142Y-99432142D01*
X136946428Y-99360714D01*
X136910714Y-99217857D01*
X136910714Y-99110714D01*
X136946428Y-98967857D01*
X136982142Y-98896428D01*
X137053571Y-98825000D01*
X137160714Y-98789285D01*
X137232142Y-98789285D01*
X137339285Y-98825000D01*
X137375000Y-98860714D01*
X137660714Y-98860714D02*
X137696428Y-98825000D01*
X137767857Y-98789285D01*
X137946428Y-98789285D01*
X138017857Y-98825000D01*
X138053571Y-98860714D01*
X138089285Y-98932142D01*
X138089285Y-99003571D01*
X138053571Y-99110714D01*
X137625000Y-99539285D01*
X138089285Y-99539285D01*
X131475000Y-99467857D02*
X131439285Y-99503571D01*
X131332142Y-99539285D01*
X131260714Y-99539285D01*
X131153571Y-99503571D01*
X131082142Y-99432142D01*
X131046428Y-99360714D01*
X131010714Y-99217857D01*
X131010714Y-99110714D01*
X131046428Y-98967857D01*
X131082142Y-98896428D01*
X131153571Y-98825000D01*
X131260714Y-98789285D01*
X131332142Y-98789285D01*
X131439285Y-98825000D01*
X131475000Y-98860714D01*
X132189285Y-99539285D02*
X131760714Y-99539285D01*
X131975000Y-99539285D02*
X131975000Y-98789285D01*
X131903571Y-98896428D01*
X131832142Y-98967857D01*
X131760714Y-99003571D01*
X136142857Y-100882142D02*
X136142857Y-101239285D01*
X135892857Y-100489285D02*
X136142857Y-100882142D01*
X136392857Y-100489285D01*
X137035714Y-101239285D02*
X136607142Y-101239285D01*
X136821428Y-101239285D02*
X136821428Y-100489285D01*
X136750000Y-100596428D01*
X136678571Y-100667857D01*
X136607142Y-100703571D01*
X129628571Y-113589285D02*
X129628571Y-114196428D01*
X129664285Y-114267857D01*
X129700000Y-114303571D01*
X129771428Y-114339285D01*
X129914285Y-114339285D01*
X129985714Y-114303571D01*
X130021428Y-114267857D01*
X130057142Y-114196428D01*
X130057142Y-113589285D01*
X130735714Y-113839285D02*
X130735714Y-114339285D01*
X130557142Y-113553571D02*
X130378571Y-114089285D01*
X130842857Y-114089285D01*
X128639285Y-104071428D02*
X129246428Y-104071428D01*
X129317857Y-104035714D01*
X129353571Y-104000000D01*
X129389285Y-103928571D01*
X129389285Y-103785714D01*
X129353571Y-103714285D01*
X129317857Y-103678571D01*
X129246428Y-103642857D01*
X128639285Y-103642857D01*
X128639285Y-103357142D02*
X128639285Y-102892857D01*
X128925000Y-103142857D01*
X128925000Y-103035714D01*
X128960714Y-102964285D01*
X128996428Y-102928571D01*
X129067857Y-102892857D01*
X129246428Y-102892857D01*
X129317857Y-102928571D01*
X129353571Y-102964285D01*
X129389285Y-103035714D01*
X129389285Y-103250000D01*
X129353571Y-103321428D01*
X129317857Y-103357142D01*
X160728571Y-109589285D02*
X160728571Y-110196428D01*
X160764285Y-110267857D01*
X160800000Y-110303571D01*
X160871428Y-110339285D01*
X161014285Y-110339285D01*
X161085714Y-110303571D01*
X161121428Y-110267857D01*
X161157142Y-110196428D01*
X161157142Y-109589285D01*
X161478571Y-109660714D02*
X161514285Y-109625000D01*
X161585714Y-109589285D01*
X161764285Y-109589285D01*
X161835714Y-109625000D01*
X161871428Y-109660714D01*
X161907142Y-109732142D01*
X161907142Y-109803571D01*
X161871428Y-109910714D01*
X161442857Y-110339285D01*
X161907142Y-110339285D01*
X145789285Y-98321428D02*
X146396428Y-98321428D01*
X146467857Y-98285714D01*
X146503571Y-98250000D01*
X146539285Y-98178571D01*
X146539285Y-98035714D01*
X146503571Y-97964285D01*
X146467857Y-97928571D01*
X146396428Y-97892857D01*
X145789285Y-97892857D01*
X146539285Y-97142857D02*
X146539285Y-97571428D01*
X146539285Y-97357142D02*
X145789285Y-97357142D01*
X145896428Y-97428571D01*
X145967857Y-97500000D01*
X146003571Y-97571428D01*
%LPC*%
D12*
G36*
X155000000Y-117500000D02*
G01*
X140000000Y-117500000D01*
X140000000Y-102500000D01*
X155000000Y-102500000D01*
X155000000Y-117500000D01*
G37*
X155000000Y-117500000D02*
X140000000Y-117500000D01*
X140000000Y-102500000D01*
X155000000Y-102500000D01*
X155000000Y-117500000D01*
G36*
X153714847Y-99140033D02*
G01*
X153731631Y-99142522D01*
X153748090Y-99146645D01*
X153764066Y-99152361D01*
X153779404Y-99159616D01*
X153793958Y-99168339D01*
X153807587Y-99178446D01*
X153820159Y-99189841D01*
X153831554Y-99202413D01*
X153841661Y-99216042D01*
X153850384Y-99230596D01*
X153857639Y-99245934D01*
X153863355Y-99261910D01*
X153867478Y-99278369D01*
X153869967Y-99295153D01*
X153870800Y-99312100D01*
X153870800Y-99657900D01*
X153869967Y-99674847D01*
X153867478Y-99691631D01*
X153863355Y-99708090D01*
X153857639Y-99724066D01*
X153850384Y-99739404D01*
X153841661Y-99753958D01*
X153831554Y-99767587D01*
X153820159Y-99780159D01*
X153807587Y-99791554D01*
X153793958Y-99801661D01*
X153779404Y-99810384D01*
X153764066Y-99817639D01*
X153748090Y-99823355D01*
X153731631Y-99827478D01*
X153714847Y-99829967D01*
X153697900Y-99830800D01*
X153302100Y-99830800D01*
X153285153Y-99829967D01*
X153268369Y-99827478D01*
X153251910Y-99823355D01*
X153235934Y-99817639D01*
X153220596Y-99810384D01*
X153206042Y-99801661D01*
X153192413Y-99791554D01*
X153179841Y-99780159D01*
X153168446Y-99767587D01*
X153158339Y-99753958D01*
X153149616Y-99739404D01*
X153142361Y-99724066D01*
X153136645Y-99708090D01*
X153132522Y-99691631D01*
X153130033Y-99674847D01*
X153129200Y-99657900D01*
X153129200Y-99312100D01*
X153130033Y-99295153D01*
X153132522Y-99278369D01*
X153136645Y-99261910D01*
X153142361Y-99245934D01*
X153149616Y-99230596D01*
X153158339Y-99216042D01*
X153168446Y-99202413D01*
X153179841Y-99189841D01*
X153192413Y-99178446D01*
X153206042Y-99168339D01*
X153220596Y-99159616D01*
X153235934Y-99152361D01*
X153251910Y-99146645D01*
X153268369Y-99142522D01*
X153285153Y-99140033D01*
X153302100Y-99139200D01*
X153697900Y-99139200D01*
X153714847Y-99140033D01*
G37*
G36*
X153714847Y-98170033D02*
G01*
X153731631Y-98172522D01*
X153748090Y-98176645D01*
X153764066Y-98182361D01*
X153779404Y-98189616D01*
X153793958Y-98198339D01*
X153807587Y-98208446D01*
X153820159Y-98219841D01*
X153831554Y-98232413D01*
X153841661Y-98246042D01*
X153850384Y-98260596D01*
X153857639Y-98275934D01*
X153863355Y-98291910D01*
X153867478Y-98308369D01*
X153869967Y-98325153D01*
X153870800Y-98342100D01*
X153870800Y-98687900D01*
X153869967Y-98704847D01*
X153867478Y-98721631D01*
X153863355Y-98738090D01*
X153857639Y-98754066D01*
X153850384Y-98769404D01*
X153841661Y-98783958D01*
X153831554Y-98797587D01*
X153820159Y-98810159D01*
X153807587Y-98821554D01*
X153793958Y-98831661D01*
X153779404Y-98840384D01*
X153764066Y-98847639D01*
X153748090Y-98853355D01*
X153731631Y-98857478D01*
X153714847Y-98859967D01*
X153697900Y-98860800D01*
X153302100Y-98860800D01*
X153285153Y-98859967D01*
X153268369Y-98857478D01*
X153251910Y-98853355D01*
X153235934Y-98847639D01*
X153220596Y-98840384D01*
X153206042Y-98831661D01*
X153192413Y-98821554D01*
X153179841Y-98810159D01*
X153168446Y-98797587D01*
X153158339Y-98783958D01*
X153149616Y-98769404D01*
X153142361Y-98754066D01*
X153136645Y-98738090D01*
X153132522Y-98721631D01*
X153130033Y-98704847D01*
X153129200Y-98687900D01*
X153129200Y-98342100D01*
X153130033Y-98325153D01*
X153132522Y-98308369D01*
X153136645Y-98291910D01*
X153142361Y-98275934D01*
X153149616Y-98260596D01*
X153158339Y-98246042D01*
X153168446Y-98232413D01*
X153179841Y-98219841D01*
X153192413Y-98208446D01*
X153206042Y-98198339D01*
X153220596Y-98189616D01*
X153235934Y-98182361D01*
X153251910Y-98176645D01*
X153268369Y-98172522D01*
X153285153Y-98170033D01*
X153302100Y-98169200D01*
X153697900Y-98169200D01*
X153714847Y-98170033D01*
G37*
G36*
X128114847Y-95670033D02*
G01*
X128131631Y-95672522D01*
X128148090Y-95676645D01*
X128164066Y-95682361D01*
X128179404Y-95689616D01*
X128193958Y-95698339D01*
X128207587Y-95708446D01*
X128220159Y-95719841D01*
X128231554Y-95732413D01*
X128241661Y-95746042D01*
X128250384Y-95760596D01*
X128257639Y-95775934D01*
X128263355Y-95791910D01*
X128267478Y-95808369D01*
X128269967Y-95825153D01*
X128270800Y-95842100D01*
X128270800Y-96187900D01*
X128269967Y-96204847D01*
X128267478Y-96221631D01*
X128263355Y-96238090D01*
X128257639Y-96254066D01*
X128250384Y-96269404D01*
X128241661Y-96283958D01*
X128231554Y-96297587D01*
X128220159Y-96310159D01*
X128207587Y-96321554D01*
X128193958Y-96331661D01*
X128179404Y-96340384D01*
X128164066Y-96347639D01*
X128148090Y-96353355D01*
X128131631Y-96357478D01*
X128114847Y-96359967D01*
X128097900Y-96360800D01*
X127702100Y-96360800D01*
X127685153Y-96359967D01*
X127668369Y-96357478D01*
X127651910Y-96353355D01*
X127635934Y-96347639D01*
X127620596Y-96340384D01*
X127606042Y-96331661D01*
X127592413Y-96321554D01*
X127579841Y-96310159D01*
X127568446Y-96297587D01*
X127558339Y-96283958D01*
X127549616Y-96269404D01*
X127542361Y-96254066D01*
X127536645Y-96238090D01*
X127532522Y-96221631D01*
X127530033Y-96204847D01*
X127529200Y-96187900D01*
X127529200Y-95842100D01*
X127530033Y-95825153D01*
X127532522Y-95808369D01*
X127536645Y-95791910D01*
X127542361Y-95775934D01*
X127549616Y-95760596D01*
X127558339Y-95746042D01*
X127568446Y-95732413D01*
X127579841Y-95719841D01*
X127592413Y-95708446D01*
X127606042Y-95698339D01*
X127620596Y-95689616D01*
X127635934Y-95682361D01*
X127651910Y-95676645D01*
X127668369Y-95672522D01*
X127685153Y-95670033D01*
X127702100Y-95669200D01*
X128097900Y-95669200D01*
X128114847Y-95670033D01*
G37*
G36*
X128114847Y-96640033D02*
G01*
X128131631Y-96642522D01*
X128148090Y-96646645D01*
X128164066Y-96652361D01*
X128179404Y-96659616D01*
X128193958Y-96668339D01*
X128207587Y-96678446D01*
X128220159Y-96689841D01*
X128231554Y-96702413D01*
X128241661Y-96716042D01*
X128250384Y-96730596D01*
X128257639Y-96745934D01*
X128263355Y-96761910D01*
X128267478Y-96778369D01*
X128269967Y-96795153D01*
X128270800Y-96812100D01*
X128270800Y-97157900D01*
X128269967Y-97174847D01*
X128267478Y-97191631D01*
X128263355Y-97208090D01*
X128257639Y-97224066D01*
X128250384Y-97239404D01*
X128241661Y-97253958D01*
X128231554Y-97267587D01*
X128220159Y-97280159D01*
X128207587Y-97291554D01*
X128193958Y-97301661D01*
X128179404Y-97310384D01*
X128164066Y-97317639D01*
X128148090Y-97323355D01*
X128131631Y-97327478D01*
X128114847Y-97329967D01*
X128097900Y-97330800D01*
X127702100Y-97330800D01*
X127685153Y-97329967D01*
X127668369Y-97327478D01*
X127651910Y-97323355D01*
X127635934Y-97317639D01*
X127620596Y-97310384D01*
X127606042Y-97301661D01*
X127592413Y-97291554D01*
X127579841Y-97280159D01*
X127568446Y-97267587D01*
X127558339Y-97253958D01*
X127549616Y-97239404D01*
X127542361Y-97224066D01*
X127536645Y-97208090D01*
X127532522Y-97191631D01*
X127530033Y-97174847D01*
X127529200Y-97157900D01*
X127529200Y-96812100D01*
X127530033Y-96795153D01*
X127532522Y-96778369D01*
X127536645Y-96761910D01*
X127542361Y-96745934D01*
X127549616Y-96730596D01*
X127558339Y-96716042D01*
X127568446Y-96702413D01*
X127579841Y-96689841D01*
X127592413Y-96678446D01*
X127606042Y-96668339D01*
X127620596Y-96659616D01*
X127635934Y-96652361D01*
X127651910Y-96646645D01*
X127668369Y-96642522D01*
X127685153Y-96640033D01*
X127702100Y-96639200D01*
X128097900Y-96639200D01*
X128114847Y-96640033D01*
G37*
G36*
X130114847Y-95670033D02*
G01*
X130131631Y-95672522D01*
X130148090Y-95676645D01*
X130164066Y-95682361D01*
X130179404Y-95689616D01*
X130193958Y-95698339D01*
X130207587Y-95708446D01*
X130220159Y-95719841D01*
X130231554Y-95732413D01*
X130241661Y-95746042D01*
X130250384Y-95760596D01*
X130257639Y-95775934D01*
X130263355Y-95791910D01*
X130267478Y-95808369D01*
X130269967Y-95825153D01*
X130270800Y-95842100D01*
X130270800Y-96187900D01*
X130269967Y-96204847D01*
X130267478Y-96221631D01*
X130263355Y-96238090D01*
X130257639Y-96254066D01*
X130250384Y-96269404D01*
X130241661Y-96283958D01*
X130231554Y-96297587D01*
X130220159Y-96310159D01*
X130207587Y-96321554D01*
X130193958Y-96331661D01*
X130179404Y-96340384D01*
X130164066Y-96347639D01*
X130148090Y-96353355D01*
X130131631Y-96357478D01*
X130114847Y-96359967D01*
X130097900Y-96360800D01*
X129702100Y-96360800D01*
X129685153Y-96359967D01*
X129668369Y-96357478D01*
X129651910Y-96353355D01*
X129635934Y-96347639D01*
X129620596Y-96340384D01*
X129606042Y-96331661D01*
X129592413Y-96321554D01*
X129579841Y-96310159D01*
X129568446Y-96297587D01*
X129558339Y-96283958D01*
X129549616Y-96269404D01*
X129542361Y-96254066D01*
X129536645Y-96238090D01*
X129532522Y-96221631D01*
X129530033Y-96204847D01*
X129529200Y-96187900D01*
X129529200Y-95842100D01*
X129530033Y-95825153D01*
X129532522Y-95808369D01*
X129536645Y-95791910D01*
X129542361Y-95775934D01*
X129549616Y-95760596D01*
X129558339Y-95746042D01*
X129568446Y-95732413D01*
X129579841Y-95719841D01*
X129592413Y-95708446D01*
X129606042Y-95698339D01*
X129620596Y-95689616D01*
X129635934Y-95682361D01*
X129651910Y-95676645D01*
X129668369Y-95672522D01*
X129685153Y-95670033D01*
X129702100Y-95669200D01*
X130097900Y-95669200D01*
X130114847Y-95670033D01*
G37*
G36*
X130114847Y-96640033D02*
G01*
X130131631Y-96642522D01*
X130148090Y-96646645D01*
X130164066Y-96652361D01*
X130179404Y-96659616D01*
X130193958Y-96668339D01*
X130207587Y-96678446D01*
X130220159Y-96689841D01*
X130231554Y-96702413D01*
X130241661Y-96716042D01*
X130250384Y-96730596D01*
X130257639Y-96745934D01*
X130263355Y-96761910D01*
X130267478Y-96778369D01*
X130269967Y-96795153D01*
X130270800Y-96812100D01*
X130270800Y-97157900D01*
X130269967Y-97174847D01*
X130267478Y-97191631D01*
X130263355Y-97208090D01*
X130257639Y-97224066D01*
X130250384Y-97239404D01*
X130241661Y-97253958D01*
X130231554Y-97267587D01*
X130220159Y-97280159D01*
X130207587Y-97291554D01*
X130193958Y-97301661D01*
X130179404Y-97310384D01*
X130164066Y-97317639D01*
X130148090Y-97323355D01*
X130131631Y-97327478D01*
X130114847Y-97329967D01*
X130097900Y-97330800D01*
X129702100Y-97330800D01*
X129685153Y-97329967D01*
X129668369Y-97327478D01*
X129651910Y-97323355D01*
X129635934Y-97317639D01*
X129620596Y-97310384D01*
X129606042Y-97301661D01*
X129592413Y-97291554D01*
X129579841Y-97280159D01*
X129568446Y-97267587D01*
X129558339Y-97253958D01*
X129549616Y-97239404D01*
X129542361Y-97224066D01*
X129536645Y-97208090D01*
X129532522Y-97191631D01*
X129530033Y-97174847D01*
X129529200Y-97157900D01*
X129529200Y-96812100D01*
X129530033Y-96795153D01*
X129532522Y-96778369D01*
X129536645Y-96761910D01*
X129542361Y-96745934D01*
X129549616Y-96730596D01*
X129558339Y-96716042D01*
X129568446Y-96702413D01*
X129579841Y-96689841D01*
X129592413Y-96678446D01*
X129606042Y-96668339D01*
X129620596Y-96659616D01*
X129635934Y-96652361D01*
X129651910Y-96646645D01*
X129668369Y-96642522D01*
X129685153Y-96640033D01*
X129702100Y-96639200D01*
X130097900Y-96639200D01*
X130114847Y-96640033D01*
G37*
G36*
X123114847Y-95670033D02*
G01*
X123131631Y-95672522D01*
X123148090Y-95676645D01*
X123164066Y-95682361D01*
X123179404Y-95689616D01*
X123193958Y-95698339D01*
X123207587Y-95708446D01*
X123220159Y-95719841D01*
X123231554Y-95732413D01*
X123241661Y-95746042D01*
X123250384Y-95760596D01*
X123257639Y-95775934D01*
X123263355Y-95791910D01*
X123267478Y-95808369D01*
X123269967Y-95825153D01*
X123270800Y-95842100D01*
X123270800Y-96187900D01*
X123269967Y-96204847D01*
X123267478Y-96221631D01*
X123263355Y-96238090D01*
X123257639Y-96254066D01*
X123250384Y-96269404D01*
X123241661Y-96283958D01*
X123231554Y-96297587D01*
X123220159Y-96310159D01*
X123207587Y-96321554D01*
X123193958Y-96331661D01*
X123179404Y-96340384D01*
X123164066Y-96347639D01*
X123148090Y-96353355D01*
X123131631Y-96357478D01*
X123114847Y-96359967D01*
X123097900Y-96360800D01*
X122702100Y-96360800D01*
X122685153Y-96359967D01*
X122668369Y-96357478D01*
X122651910Y-96353355D01*
X122635934Y-96347639D01*
X122620596Y-96340384D01*
X122606042Y-96331661D01*
X122592413Y-96321554D01*
X122579841Y-96310159D01*
X122568446Y-96297587D01*
X122558339Y-96283958D01*
X122549616Y-96269404D01*
X122542361Y-96254066D01*
X122536645Y-96238090D01*
X122532522Y-96221631D01*
X122530033Y-96204847D01*
X122529200Y-96187900D01*
X122529200Y-95842100D01*
X122530033Y-95825153D01*
X122532522Y-95808369D01*
X122536645Y-95791910D01*
X122542361Y-95775934D01*
X122549616Y-95760596D01*
X122558339Y-95746042D01*
X122568446Y-95732413D01*
X122579841Y-95719841D01*
X122592413Y-95708446D01*
X122606042Y-95698339D01*
X122620596Y-95689616D01*
X122635934Y-95682361D01*
X122651910Y-95676645D01*
X122668369Y-95672522D01*
X122685153Y-95670033D01*
X122702100Y-95669200D01*
X123097900Y-95669200D01*
X123114847Y-95670033D01*
G37*
G36*
X123114847Y-96640033D02*
G01*
X123131631Y-96642522D01*
X123148090Y-96646645D01*
X123164066Y-96652361D01*
X123179404Y-96659616D01*
X123193958Y-96668339D01*
X123207587Y-96678446D01*
X123220159Y-96689841D01*
X123231554Y-96702413D01*
X123241661Y-96716042D01*
X123250384Y-96730596D01*
X123257639Y-96745934D01*
X123263355Y-96761910D01*
X123267478Y-96778369D01*
X123269967Y-96795153D01*
X123270800Y-96812100D01*
X123270800Y-97157900D01*
X123269967Y-97174847D01*
X123267478Y-97191631D01*
X123263355Y-97208090D01*
X123257639Y-97224066D01*
X123250384Y-97239404D01*
X123241661Y-97253958D01*
X123231554Y-97267587D01*
X123220159Y-97280159D01*
X123207587Y-97291554D01*
X123193958Y-97301661D01*
X123179404Y-97310384D01*
X123164066Y-97317639D01*
X123148090Y-97323355D01*
X123131631Y-97327478D01*
X123114847Y-97329967D01*
X123097900Y-97330800D01*
X122702100Y-97330800D01*
X122685153Y-97329967D01*
X122668369Y-97327478D01*
X122651910Y-97323355D01*
X122635934Y-97317639D01*
X122620596Y-97310384D01*
X122606042Y-97301661D01*
X122592413Y-97291554D01*
X122579841Y-97280159D01*
X122568446Y-97267587D01*
X122558339Y-97253958D01*
X122549616Y-97239404D01*
X122542361Y-97224066D01*
X122536645Y-97208090D01*
X122532522Y-97191631D01*
X122530033Y-97174847D01*
X122529200Y-97157900D01*
X122529200Y-96812100D01*
X122530033Y-96795153D01*
X122532522Y-96778369D01*
X122536645Y-96761910D01*
X122542361Y-96745934D01*
X122549616Y-96730596D01*
X122558339Y-96716042D01*
X122568446Y-96702413D01*
X122579841Y-96689841D01*
X122592413Y-96678446D01*
X122606042Y-96668339D01*
X122620596Y-96659616D01*
X122635934Y-96652361D01*
X122651910Y-96646645D01*
X122668369Y-96642522D01*
X122685153Y-96640033D01*
X122702100Y-96639200D01*
X123097900Y-96639200D01*
X123114847Y-96640033D01*
G37*
G36*
X126114847Y-95670033D02*
G01*
X126131631Y-95672522D01*
X126148090Y-95676645D01*
X126164066Y-95682361D01*
X126179404Y-95689616D01*
X126193958Y-95698339D01*
X126207587Y-95708446D01*
X126220159Y-95719841D01*
X126231554Y-95732413D01*
X126241661Y-95746042D01*
X126250384Y-95760596D01*
X126257639Y-95775934D01*
X126263355Y-95791910D01*
X126267478Y-95808369D01*
X126269967Y-95825153D01*
X126270800Y-95842100D01*
X126270800Y-96187900D01*
X126269967Y-96204847D01*
X126267478Y-96221631D01*
X126263355Y-96238090D01*
X126257639Y-96254066D01*
X126250384Y-96269404D01*
X126241661Y-96283958D01*
X126231554Y-96297587D01*
X126220159Y-96310159D01*
X126207587Y-96321554D01*
X126193958Y-96331661D01*
X126179404Y-96340384D01*
X126164066Y-96347639D01*
X126148090Y-96353355D01*
X126131631Y-96357478D01*
X126114847Y-96359967D01*
X126097900Y-96360800D01*
X125702100Y-96360800D01*
X125685153Y-96359967D01*
X125668369Y-96357478D01*
X125651910Y-96353355D01*
X125635934Y-96347639D01*
X125620596Y-96340384D01*
X125606042Y-96331661D01*
X125592413Y-96321554D01*
X125579841Y-96310159D01*
X125568446Y-96297587D01*
X125558339Y-96283958D01*
X125549616Y-96269404D01*
X125542361Y-96254066D01*
X125536645Y-96238090D01*
X125532522Y-96221631D01*
X125530033Y-96204847D01*
X125529200Y-96187900D01*
X125529200Y-95842100D01*
X125530033Y-95825153D01*
X125532522Y-95808369D01*
X125536645Y-95791910D01*
X125542361Y-95775934D01*
X125549616Y-95760596D01*
X125558339Y-95746042D01*
X125568446Y-95732413D01*
X125579841Y-95719841D01*
X125592413Y-95708446D01*
X125606042Y-95698339D01*
X125620596Y-95689616D01*
X125635934Y-95682361D01*
X125651910Y-95676645D01*
X125668369Y-95672522D01*
X125685153Y-95670033D01*
X125702100Y-95669200D01*
X126097900Y-95669200D01*
X126114847Y-95670033D01*
G37*
G36*
X126114847Y-96640033D02*
G01*
X126131631Y-96642522D01*
X126148090Y-96646645D01*
X126164066Y-96652361D01*
X126179404Y-96659616D01*
X126193958Y-96668339D01*
X126207587Y-96678446D01*
X126220159Y-96689841D01*
X126231554Y-96702413D01*
X126241661Y-96716042D01*
X126250384Y-96730596D01*
X126257639Y-96745934D01*
X126263355Y-96761910D01*
X126267478Y-96778369D01*
X126269967Y-96795153D01*
X126270800Y-96812100D01*
X126270800Y-97157900D01*
X126269967Y-97174847D01*
X126267478Y-97191631D01*
X126263355Y-97208090D01*
X126257639Y-97224066D01*
X126250384Y-97239404D01*
X126241661Y-97253958D01*
X126231554Y-97267587D01*
X126220159Y-97280159D01*
X126207587Y-97291554D01*
X126193958Y-97301661D01*
X126179404Y-97310384D01*
X126164066Y-97317639D01*
X126148090Y-97323355D01*
X126131631Y-97327478D01*
X126114847Y-97329967D01*
X126097900Y-97330800D01*
X125702100Y-97330800D01*
X125685153Y-97329967D01*
X125668369Y-97327478D01*
X125651910Y-97323355D01*
X125635934Y-97317639D01*
X125620596Y-97310384D01*
X125606042Y-97301661D01*
X125592413Y-97291554D01*
X125579841Y-97280159D01*
X125568446Y-97267587D01*
X125558339Y-97253958D01*
X125549616Y-97239404D01*
X125542361Y-97224066D01*
X125536645Y-97208090D01*
X125532522Y-97191631D01*
X125530033Y-97174847D01*
X125529200Y-97157900D01*
X125529200Y-96812100D01*
X125530033Y-96795153D01*
X125532522Y-96778369D01*
X125536645Y-96761910D01*
X125542361Y-96745934D01*
X125549616Y-96730596D01*
X125558339Y-96716042D01*
X125568446Y-96702413D01*
X125579841Y-96689841D01*
X125592413Y-96678446D01*
X125606042Y-96668339D01*
X125620596Y-96659616D01*
X125635934Y-96652361D01*
X125651910Y-96646645D01*
X125668369Y-96642522D01*
X125685153Y-96640033D01*
X125702100Y-96639200D01*
X126097900Y-96639200D01*
X126114847Y-96640033D01*
G37*
G36*
X129114847Y-95670033D02*
G01*
X129131631Y-95672522D01*
X129148090Y-95676645D01*
X129164066Y-95682361D01*
X129179404Y-95689616D01*
X129193958Y-95698339D01*
X129207587Y-95708446D01*
X129220159Y-95719841D01*
X129231554Y-95732413D01*
X129241661Y-95746042D01*
X129250384Y-95760596D01*
X129257639Y-95775934D01*
X129263355Y-95791910D01*
X129267478Y-95808369D01*
X129269967Y-95825153D01*
X129270800Y-95842100D01*
X129270800Y-96187900D01*
X129269967Y-96204847D01*
X129267478Y-96221631D01*
X129263355Y-96238090D01*
X129257639Y-96254066D01*
X129250384Y-96269404D01*
X129241661Y-96283958D01*
X129231554Y-96297587D01*
X129220159Y-96310159D01*
X129207587Y-96321554D01*
X129193958Y-96331661D01*
X129179404Y-96340384D01*
X129164066Y-96347639D01*
X129148090Y-96353355D01*
X129131631Y-96357478D01*
X129114847Y-96359967D01*
X129097900Y-96360800D01*
X128702100Y-96360800D01*
X128685153Y-96359967D01*
X128668369Y-96357478D01*
X128651910Y-96353355D01*
X128635934Y-96347639D01*
X128620596Y-96340384D01*
X128606042Y-96331661D01*
X128592413Y-96321554D01*
X128579841Y-96310159D01*
X128568446Y-96297587D01*
X128558339Y-96283958D01*
X128549616Y-96269404D01*
X128542361Y-96254066D01*
X128536645Y-96238090D01*
X128532522Y-96221631D01*
X128530033Y-96204847D01*
X128529200Y-96187900D01*
X128529200Y-95842100D01*
X128530033Y-95825153D01*
X128532522Y-95808369D01*
X128536645Y-95791910D01*
X128542361Y-95775934D01*
X128549616Y-95760596D01*
X128558339Y-95746042D01*
X128568446Y-95732413D01*
X128579841Y-95719841D01*
X128592413Y-95708446D01*
X128606042Y-95698339D01*
X128620596Y-95689616D01*
X128635934Y-95682361D01*
X128651910Y-95676645D01*
X128668369Y-95672522D01*
X128685153Y-95670033D01*
X128702100Y-95669200D01*
X129097900Y-95669200D01*
X129114847Y-95670033D01*
G37*
G36*
X129114847Y-96640033D02*
G01*
X129131631Y-96642522D01*
X129148090Y-96646645D01*
X129164066Y-96652361D01*
X129179404Y-96659616D01*
X129193958Y-96668339D01*
X129207587Y-96678446D01*
X129220159Y-96689841D01*
X129231554Y-96702413D01*
X129241661Y-96716042D01*
X129250384Y-96730596D01*
X129257639Y-96745934D01*
X129263355Y-96761910D01*
X129267478Y-96778369D01*
X129269967Y-96795153D01*
X129270800Y-96812100D01*
X129270800Y-97157900D01*
X129269967Y-97174847D01*
X129267478Y-97191631D01*
X129263355Y-97208090D01*
X129257639Y-97224066D01*
X129250384Y-97239404D01*
X129241661Y-97253958D01*
X129231554Y-97267587D01*
X129220159Y-97280159D01*
X129207587Y-97291554D01*
X129193958Y-97301661D01*
X129179404Y-97310384D01*
X129164066Y-97317639D01*
X129148090Y-97323355D01*
X129131631Y-97327478D01*
X129114847Y-97329967D01*
X129097900Y-97330800D01*
X128702100Y-97330800D01*
X128685153Y-97329967D01*
X128668369Y-97327478D01*
X128651910Y-97323355D01*
X128635934Y-97317639D01*
X128620596Y-97310384D01*
X128606042Y-97301661D01*
X128592413Y-97291554D01*
X128579841Y-97280159D01*
X128568446Y-97267587D01*
X128558339Y-97253958D01*
X128549616Y-97239404D01*
X128542361Y-97224066D01*
X128536645Y-97208090D01*
X128532522Y-97191631D01*
X128530033Y-97174847D01*
X128529200Y-97157900D01*
X128529200Y-96812100D01*
X128530033Y-96795153D01*
X128532522Y-96778369D01*
X128536645Y-96761910D01*
X128542361Y-96745934D01*
X128549616Y-96730596D01*
X128558339Y-96716042D01*
X128568446Y-96702413D01*
X128579841Y-96689841D01*
X128592413Y-96678446D01*
X128606042Y-96668339D01*
X128620596Y-96659616D01*
X128635934Y-96652361D01*
X128651910Y-96646645D01*
X128668369Y-96642522D01*
X128685153Y-96640033D01*
X128702100Y-96639200D01*
X129097900Y-96639200D01*
X129114847Y-96640033D01*
G37*
G36*
X124114847Y-96640033D02*
G01*
X124131631Y-96642522D01*
X124148090Y-96646645D01*
X124164066Y-96652361D01*
X124179404Y-96659616D01*
X124193958Y-96668339D01*
X124207587Y-96678446D01*
X124220159Y-96689841D01*
X124231554Y-96702413D01*
X124241661Y-96716042D01*
X124250384Y-96730596D01*
X124257639Y-96745934D01*
X124263355Y-96761910D01*
X124267478Y-96778369D01*
X124269967Y-96795153D01*
X124270800Y-96812100D01*
X124270800Y-97157900D01*
X124269967Y-97174847D01*
X124267478Y-97191631D01*
X124263355Y-97208090D01*
X124257639Y-97224066D01*
X124250384Y-97239404D01*
X124241661Y-97253958D01*
X124231554Y-97267587D01*
X124220159Y-97280159D01*
X124207587Y-97291554D01*
X124193958Y-97301661D01*
X124179404Y-97310384D01*
X124164066Y-97317639D01*
X124148090Y-97323355D01*
X124131631Y-97327478D01*
X124114847Y-97329967D01*
X124097900Y-97330800D01*
X123702100Y-97330800D01*
X123685153Y-97329967D01*
X123668369Y-97327478D01*
X123651910Y-97323355D01*
X123635934Y-97317639D01*
X123620596Y-97310384D01*
X123606042Y-97301661D01*
X123592413Y-97291554D01*
X123579841Y-97280159D01*
X123568446Y-97267587D01*
X123558339Y-97253958D01*
X123549616Y-97239404D01*
X123542361Y-97224066D01*
X123536645Y-97208090D01*
X123532522Y-97191631D01*
X123530033Y-97174847D01*
X123529200Y-97157900D01*
X123529200Y-96812100D01*
X123530033Y-96795153D01*
X123532522Y-96778369D01*
X123536645Y-96761910D01*
X123542361Y-96745934D01*
X123549616Y-96730596D01*
X123558339Y-96716042D01*
X123568446Y-96702413D01*
X123579841Y-96689841D01*
X123592413Y-96678446D01*
X123606042Y-96668339D01*
X123620596Y-96659616D01*
X123635934Y-96652361D01*
X123651910Y-96646645D01*
X123668369Y-96642522D01*
X123685153Y-96640033D01*
X123702100Y-96639200D01*
X124097900Y-96639200D01*
X124114847Y-96640033D01*
G37*
G36*
X124114847Y-95670033D02*
G01*
X124131631Y-95672522D01*
X124148090Y-95676645D01*
X124164066Y-95682361D01*
X124179404Y-95689616D01*
X124193958Y-95698339D01*
X124207587Y-95708446D01*
X124220159Y-95719841D01*
X124231554Y-95732413D01*
X124241661Y-95746042D01*
X124250384Y-95760596D01*
X124257639Y-95775934D01*
X124263355Y-95791910D01*
X124267478Y-95808369D01*
X124269967Y-95825153D01*
X124270800Y-95842100D01*
X124270800Y-96187900D01*
X124269967Y-96204847D01*
X124267478Y-96221631D01*
X124263355Y-96238090D01*
X124257639Y-96254066D01*
X124250384Y-96269404D01*
X124241661Y-96283958D01*
X124231554Y-96297587D01*
X124220159Y-96310159D01*
X124207587Y-96321554D01*
X124193958Y-96331661D01*
X124179404Y-96340384D01*
X124164066Y-96347639D01*
X124148090Y-96353355D01*
X124131631Y-96357478D01*
X124114847Y-96359967D01*
X124097900Y-96360800D01*
X123702100Y-96360800D01*
X123685153Y-96359967D01*
X123668369Y-96357478D01*
X123651910Y-96353355D01*
X123635934Y-96347639D01*
X123620596Y-96340384D01*
X123606042Y-96331661D01*
X123592413Y-96321554D01*
X123579841Y-96310159D01*
X123568446Y-96297587D01*
X123558339Y-96283958D01*
X123549616Y-96269404D01*
X123542361Y-96254066D01*
X123536645Y-96238090D01*
X123532522Y-96221631D01*
X123530033Y-96204847D01*
X123529200Y-96187900D01*
X123529200Y-95842100D01*
X123530033Y-95825153D01*
X123532522Y-95808369D01*
X123536645Y-95791910D01*
X123542361Y-95775934D01*
X123549616Y-95760596D01*
X123558339Y-95746042D01*
X123568446Y-95732413D01*
X123579841Y-95719841D01*
X123592413Y-95708446D01*
X123606042Y-95698339D01*
X123620596Y-95689616D01*
X123635934Y-95682361D01*
X123651910Y-95676645D01*
X123668369Y-95672522D01*
X123685153Y-95670033D01*
X123702100Y-95669200D01*
X124097900Y-95669200D01*
X124114847Y-95670033D01*
G37*
G36*
X127114847Y-95670033D02*
G01*
X127131631Y-95672522D01*
X127148090Y-95676645D01*
X127164066Y-95682361D01*
X127179404Y-95689616D01*
X127193958Y-95698339D01*
X127207587Y-95708446D01*
X127220159Y-95719841D01*
X127231554Y-95732413D01*
X127241661Y-95746042D01*
X127250384Y-95760596D01*
X127257639Y-95775934D01*
X127263355Y-95791910D01*
X127267478Y-95808369D01*
X127269967Y-95825153D01*
X127270800Y-95842100D01*
X127270800Y-96187900D01*
X127269967Y-96204847D01*
X127267478Y-96221631D01*
X127263355Y-96238090D01*
X127257639Y-96254066D01*
X127250384Y-96269404D01*
X127241661Y-96283958D01*
X127231554Y-96297587D01*
X127220159Y-96310159D01*
X127207587Y-96321554D01*
X127193958Y-96331661D01*
X127179404Y-96340384D01*
X127164066Y-96347639D01*
X127148090Y-96353355D01*
X127131631Y-96357478D01*
X127114847Y-96359967D01*
X127097900Y-96360800D01*
X126702100Y-96360800D01*
X126685153Y-96359967D01*
X126668369Y-96357478D01*
X126651910Y-96353355D01*
X126635934Y-96347639D01*
X126620596Y-96340384D01*
X126606042Y-96331661D01*
X126592413Y-96321554D01*
X126579841Y-96310159D01*
X126568446Y-96297587D01*
X126558339Y-96283958D01*
X126549616Y-96269404D01*
X126542361Y-96254066D01*
X126536645Y-96238090D01*
X126532522Y-96221631D01*
X126530033Y-96204847D01*
X126529200Y-96187900D01*
X126529200Y-95842100D01*
X126530033Y-95825153D01*
X126532522Y-95808369D01*
X126536645Y-95791910D01*
X126542361Y-95775934D01*
X126549616Y-95760596D01*
X126558339Y-95746042D01*
X126568446Y-95732413D01*
X126579841Y-95719841D01*
X126592413Y-95708446D01*
X126606042Y-95698339D01*
X126620596Y-95689616D01*
X126635934Y-95682361D01*
X126651910Y-95676645D01*
X126668369Y-95672522D01*
X126685153Y-95670033D01*
X126702100Y-95669200D01*
X127097900Y-95669200D01*
X127114847Y-95670033D01*
G37*
G36*
X127114847Y-96640033D02*
G01*
X127131631Y-96642522D01*
X127148090Y-96646645D01*
X127164066Y-96652361D01*
X127179404Y-96659616D01*
X127193958Y-96668339D01*
X127207587Y-96678446D01*
X127220159Y-96689841D01*
X127231554Y-96702413D01*
X127241661Y-96716042D01*
X127250384Y-96730596D01*
X127257639Y-96745934D01*
X127263355Y-96761910D01*
X127267478Y-96778369D01*
X127269967Y-96795153D01*
X127270800Y-96812100D01*
X127270800Y-97157900D01*
X127269967Y-97174847D01*
X127267478Y-97191631D01*
X127263355Y-97208090D01*
X127257639Y-97224066D01*
X127250384Y-97239404D01*
X127241661Y-97253958D01*
X127231554Y-97267587D01*
X127220159Y-97280159D01*
X127207587Y-97291554D01*
X127193958Y-97301661D01*
X127179404Y-97310384D01*
X127164066Y-97317639D01*
X127148090Y-97323355D01*
X127131631Y-97327478D01*
X127114847Y-97329967D01*
X127097900Y-97330800D01*
X126702100Y-97330800D01*
X126685153Y-97329967D01*
X126668369Y-97327478D01*
X126651910Y-97323355D01*
X126635934Y-97317639D01*
X126620596Y-97310384D01*
X126606042Y-97301661D01*
X126592413Y-97291554D01*
X126579841Y-97280159D01*
X126568446Y-97267587D01*
X126558339Y-97253958D01*
X126549616Y-97239404D01*
X126542361Y-97224066D01*
X126536645Y-97208090D01*
X126532522Y-97191631D01*
X126530033Y-97174847D01*
X126529200Y-97157900D01*
X126529200Y-96812100D01*
X126530033Y-96795153D01*
X126532522Y-96778369D01*
X126536645Y-96761910D01*
X126542361Y-96745934D01*
X126549616Y-96730596D01*
X126558339Y-96716042D01*
X126568446Y-96702413D01*
X126579841Y-96689841D01*
X126592413Y-96678446D01*
X126606042Y-96668339D01*
X126620596Y-96659616D01*
X126635934Y-96652361D01*
X126651910Y-96646645D01*
X126668369Y-96642522D01*
X126685153Y-96640033D01*
X126702100Y-96639200D01*
X127097900Y-96639200D01*
X127114847Y-96640033D01*
G37*
G36*
X125114847Y-95670033D02*
G01*
X125131631Y-95672522D01*
X125148090Y-95676645D01*
X125164066Y-95682361D01*
X125179404Y-95689616D01*
X125193958Y-95698339D01*
X125207587Y-95708446D01*
X125220159Y-95719841D01*
X125231554Y-95732413D01*
X125241661Y-95746042D01*
X125250384Y-95760596D01*
X125257639Y-95775934D01*
X125263355Y-95791910D01*
X125267478Y-95808369D01*
X125269967Y-95825153D01*
X125270800Y-95842100D01*
X125270800Y-96187900D01*
X125269967Y-96204847D01*
X125267478Y-96221631D01*
X125263355Y-96238090D01*
X125257639Y-96254066D01*
X125250384Y-96269404D01*
X125241661Y-96283958D01*
X125231554Y-96297587D01*
X125220159Y-96310159D01*
X125207587Y-96321554D01*
X125193958Y-96331661D01*
X125179404Y-96340384D01*
X125164066Y-96347639D01*
X125148090Y-96353355D01*
X125131631Y-96357478D01*
X125114847Y-96359967D01*
X125097900Y-96360800D01*
X124702100Y-96360800D01*
X124685153Y-96359967D01*
X124668369Y-96357478D01*
X124651910Y-96353355D01*
X124635934Y-96347639D01*
X124620596Y-96340384D01*
X124606042Y-96331661D01*
X124592413Y-96321554D01*
X124579841Y-96310159D01*
X124568446Y-96297587D01*
X124558339Y-96283958D01*
X124549616Y-96269404D01*
X124542361Y-96254066D01*
X124536645Y-96238090D01*
X124532522Y-96221631D01*
X124530033Y-96204847D01*
X124529200Y-96187900D01*
X124529200Y-95842100D01*
X124530033Y-95825153D01*
X124532522Y-95808369D01*
X124536645Y-95791910D01*
X124542361Y-95775934D01*
X124549616Y-95760596D01*
X124558339Y-95746042D01*
X124568446Y-95732413D01*
X124579841Y-95719841D01*
X124592413Y-95708446D01*
X124606042Y-95698339D01*
X124620596Y-95689616D01*
X124635934Y-95682361D01*
X124651910Y-95676645D01*
X124668369Y-95672522D01*
X124685153Y-95670033D01*
X124702100Y-95669200D01*
X125097900Y-95669200D01*
X125114847Y-95670033D01*
G37*
G36*
X125114847Y-96640033D02*
G01*
X125131631Y-96642522D01*
X125148090Y-96646645D01*
X125164066Y-96652361D01*
X125179404Y-96659616D01*
X125193958Y-96668339D01*
X125207587Y-96678446D01*
X125220159Y-96689841D01*
X125231554Y-96702413D01*
X125241661Y-96716042D01*
X125250384Y-96730596D01*
X125257639Y-96745934D01*
X125263355Y-96761910D01*
X125267478Y-96778369D01*
X125269967Y-96795153D01*
X125270800Y-96812100D01*
X125270800Y-97157900D01*
X125269967Y-97174847D01*
X125267478Y-97191631D01*
X125263355Y-97208090D01*
X125257639Y-97224066D01*
X125250384Y-97239404D01*
X125241661Y-97253958D01*
X125231554Y-97267587D01*
X125220159Y-97280159D01*
X125207587Y-97291554D01*
X125193958Y-97301661D01*
X125179404Y-97310384D01*
X125164066Y-97317639D01*
X125148090Y-97323355D01*
X125131631Y-97327478D01*
X125114847Y-97329967D01*
X125097900Y-97330800D01*
X124702100Y-97330800D01*
X124685153Y-97329967D01*
X124668369Y-97327478D01*
X124651910Y-97323355D01*
X124635934Y-97317639D01*
X124620596Y-97310384D01*
X124606042Y-97301661D01*
X124592413Y-97291554D01*
X124579841Y-97280159D01*
X124568446Y-97267587D01*
X124558339Y-97253958D01*
X124549616Y-97239404D01*
X124542361Y-97224066D01*
X124536645Y-97208090D01*
X124532522Y-97191631D01*
X124530033Y-97174847D01*
X124529200Y-97157900D01*
X124529200Y-96812100D01*
X124530033Y-96795153D01*
X124532522Y-96778369D01*
X124536645Y-96761910D01*
X124542361Y-96745934D01*
X124549616Y-96730596D01*
X124558339Y-96716042D01*
X124568446Y-96702413D01*
X124579841Y-96689841D01*
X124592413Y-96678446D01*
X124606042Y-96668339D01*
X124620596Y-96659616D01*
X124635934Y-96652361D01*
X124651910Y-96646645D01*
X124668369Y-96642522D01*
X124685153Y-96640033D01*
X124702100Y-96639200D01*
X125097900Y-96639200D01*
X125114847Y-96640033D01*
G37*
G36*
X132714847Y-105140033D02*
G01*
X132731631Y-105142522D01*
X132748090Y-105146645D01*
X132764066Y-105152361D01*
X132779404Y-105159616D01*
X132793958Y-105168339D01*
X132807587Y-105178446D01*
X132820159Y-105189841D01*
X132831554Y-105202413D01*
X132841661Y-105216042D01*
X132850384Y-105230596D01*
X132857639Y-105245934D01*
X132863355Y-105261910D01*
X132867478Y-105278369D01*
X132869967Y-105295153D01*
X132870800Y-105312100D01*
X132870800Y-105657900D01*
X132869967Y-105674847D01*
X132867478Y-105691631D01*
X132863355Y-105708090D01*
X132857639Y-105724066D01*
X132850384Y-105739404D01*
X132841661Y-105753958D01*
X132831554Y-105767587D01*
X132820159Y-105780159D01*
X132807587Y-105791554D01*
X132793958Y-105801661D01*
X132779404Y-105810384D01*
X132764066Y-105817639D01*
X132748090Y-105823355D01*
X132731631Y-105827478D01*
X132714847Y-105829967D01*
X132697900Y-105830800D01*
X132302100Y-105830800D01*
X132285153Y-105829967D01*
X132268369Y-105827478D01*
X132251910Y-105823355D01*
X132235934Y-105817639D01*
X132220596Y-105810384D01*
X132206042Y-105801661D01*
X132192413Y-105791554D01*
X132179841Y-105780159D01*
X132168446Y-105767587D01*
X132158339Y-105753958D01*
X132149616Y-105739404D01*
X132142361Y-105724066D01*
X132136645Y-105708090D01*
X132132522Y-105691631D01*
X132130033Y-105674847D01*
X132129200Y-105657900D01*
X132129200Y-105312100D01*
X132130033Y-105295153D01*
X132132522Y-105278369D01*
X132136645Y-105261910D01*
X132142361Y-105245934D01*
X132149616Y-105230596D01*
X132158339Y-105216042D01*
X132168446Y-105202413D01*
X132179841Y-105189841D01*
X132192413Y-105178446D01*
X132206042Y-105168339D01*
X132220596Y-105159616D01*
X132235934Y-105152361D01*
X132251910Y-105146645D01*
X132268369Y-105142522D01*
X132285153Y-105140033D01*
X132302100Y-105139200D01*
X132697900Y-105139200D01*
X132714847Y-105140033D01*
G37*
G36*
X132714847Y-104170033D02*
G01*
X132731631Y-104172522D01*
X132748090Y-104176645D01*
X132764066Y-104182361D01*
X132779404Y-104189616D01*
X132793958Y-104198339D01*
X132807587Y-104208446D01*
X132820159Y-104219841D01*
X132831554Y-104232413D01*
X132841661Y-104246042D01*
X132850384Y-104260596D01*
X132857639Y-104275934D01*
X132863355Y-104291910D01*
X132867478Y-104308369D01*
X132869967Y-104325153D01*
X132870800Y-104342100D01*
X132870800Y-104687900D01*
X132869967Y-104704847D01*
X132867478Y-104721631D01*
X132863355Y-104738090D01*
X132857639Y-104754066D01*
X132850384Y-104769404D01*
X132841661Y-104783958D01*
X132831554Y-104797587D01*
X132820159Y-104810159D01*
X132807587Y-104821554D01*
X132793958Y-104831661D01*
X132779404Y-104840384D01*
X132764066Y-104847639D01*
X132748090Y-104853355D01*
X132731631Y-104857478D01*
X132714847Y-104859967D01*
X132697900Y-104860800D01*
X132302100Y-104860800D01*
X132285153Y-104859967D01*
X132268369Y-104857478D01*
X132251910Y-104853355D01*
X132235934Y-104847639D01*
X132220596Y-104840384D01*
X132206042Y-104831661D01*
X132192413Y-104821554D01*
X132179841Y-104810159D01*
X132168446Y-104797587D01*
X132158339Y-104783958D01*
X132149616Y-104769404D01*
X132142361Y-104754066D01*
X132136645Y-104738090D01*
X132132522Y-104721631D01*
X132130033Y-104704847D01*
X132129200Y-104687900D01*
X132129200Y-104342100D01*
X132130033Y-104325153D01*
X132132522Y-104308369D01*
X132136645Y-104291910D01*
X132142361Y-104275934D01*
X132149616Y-104260596D01*
X132158339Y-104246042D01*
X132168446Y-104232413D01*
X132179841Y-104219841D01*
X132192413Y-104208446D01*
X132206042Y-104198339D01*
X132220596Y-104189616D01*
X132235934Y-104182361D01*
X132251910Y-104176645D01*
X132268369Y-104172522D01*
X132285153Y-104170033D01*
X132302100Y-104169200D01*
X132697900Y-104169200D01*
X132714847Y-104170033D01*
G37*
G36*
X138214847Y-104170033D02*
G01*
X138231631Y-104172522D01*
X138248090Y-104176645D01*
X138264066Y-104182361D01*
X138279404Y-104189616D01*
X138293958Y-104198339D01*
X138307587Y-104208446D01*
X138320159Y-104219841D01*
X138331554Y-104232413D01*
X138341661Y-104246042D01*
X138350384Y-104260596D01*
X138357639Y-104275934D01*
X138363355Y-104291910D01*
X138367478Y-104308369D01*
X138369967Y-104325153D01*
X138370800Y-104342100D01*
X138370800Y-104687900D01*
X138369967Y-104704847D01*
X138367478Y-104721631D01*
X138363355Y-104738090D01*
X138357639Y-104754066D01*
X138350384Y-104769404D01*
X138341661Y-104783958D01*
X138331554Y-104797587D01*
X138320159Y-104810159D01*
X138307587Y-104821554D01*
X138293958Y-104831661D01*
X138279404Y-104840384D01*
X138264066Y-104847639D01*
X138248090Y-104853355D01*
X138231631Y-104857478D01*
X138214847Y-104859967D01*
X138197900Y-104860800D01*
X137802100Y-104860800D01*
X137785153Y-104859967D01*
X137768369Y-104857478D01*
X137751910Y-104853355D01*
X137735934Y-104847639D01*
X137720596Y-104840384D01*
X137706042Y-104831661D01*
X137692413Y-104821554D01*
X137679841Y-104810159D01*
X137668446Y-104797587D01*
X137658339Y-104783958D01*
X137649616Y-104769404D01*
X137642361Y-104754066D01*
X137636645Y-104738090D01*
X137632522Y-104721631D01*
X137630033Y-104704847D01*
X137629200Y-104687900D01*
X137629200Y-104342100D01*
X137630033Y-104325153D01*
X137632522Y-104308369D01*
X137636645Y-104291910D01*
X137642361Y-104275934D01*
X137649616Y-104260596D01*
X137658339Y-104246042D01*
X137668446Y-104232413D01*
X137679841Y-104219841D01*
X137692413Y-104208446D01*
X137706042Y-104198339D01*
X137720596Y-104189616D01*
X137735934Y-104182361D01*
X137751910Y-104176645D01*
X137768369Y-104172522D01*
X137785153Y-104170033D01*
X137802100Y-104169200D01*
X138197900Y-104169200D01*
X138214847Y-104170033D01*
G37*
G36*
X138214847Y-105140033D02*
G01*
X138231631Y-105142522D01*
X138248090Y-105146645D01*
X138264066Y-105152361D01*
X138279404Y-105159616D01*
X138293958Y-105168339D01*
X138307587Y-105178446D01*
X138320159Y-105189841D01*
X138331554Y-105202413D01*
X138341661Y-105216042D01*
X138350384Y-105230596D01*
X138357639Y-105245934D01*
X138363355Y-105261910D01*
X138367478Y-105278369D01*
X138369967Y-105295153D01*
X138370800Y-105312100D01*
X138370800Y-105657900D01*
X138369967Y-105674847D01*
X138367478Y-105691631D01*
X138363355Y-105708090D01*
X138357639Y-105724066D01*
X138350384Y-105739404D01*
X138341661Y-105753958D01*
X138331554Y-105767587D01*
X138320159Y-105780159D01*
X138307587Y-105791554D01*
X138293958Y-105801661D01*
X138279404Y-105810384D01*
X138264066Y-105817639D01*
X138248090Y-105823355D01*
X138231631Y-105827478D01*
X138214847Y-105829967D01*
X138197900Y-105830800D01*
X137802100Y-105830800D01*
X137785153Y-105829967D01*
X137768369Y-105827478D01*
X137751910Y-105823355D01*
X137735934Y-105817639D01*
X137720596Y-105810384D01*
X137706042Y-105801661D01*
X137692413Y-105791554D01*
X137679841Y-105780159D01*
X137668446Y-105767587D01*
X137658339Y-105753958D01*
X137649616Y-105739404D01*
X137642361Y-105724066D01*
X137636645Y-105708090D01*
X137632522Y-105691631D01*
X137630033Y-105674847D01*
X137629200Y-105657900D01*
X137629200Y-105312100D01*
X137630033Y-105295153D01*
X137632522Y-105278369D01*
X137636645Y-105261910D01*
X137642361Y-105245934D01*
X137649616Y-105230596D01*
X137658339Y-105216042D01*
X137668446Y-105202413D01*
X137679841Y-105189841D01*
X137692413Y-105178446D01*
X137706042Y-105168339D01*
X137720596Y-105159616D01*
X137735934Y-105152361D01*
X137751910Y-105146645D01*
X137768369Y-105142522D01*
X137785153Y-105140033D01*
X137802100Y-105139200D01*
X138197900Y-105139200D01*
X138214847Y-105140033D01*
G37*
G36*
X139214847Y-104170033D02*
G01*
X139231631Y-104172522D01*
X139248090Y-104176645D01*
X139264066Y-104182361D01*
X139279404Y-104189616D01*
X139293958Y-104198339D01*
X139307587Y-104208446D01*
X139320159Y-104219841D01*
X139331554Y-104232413D01*
X139341661Y-104246042D01*
X139350384Y-104260596D01*
X139357639Y-104275934D01*
X139363355Y-104291910D01*
X139367478Y-104308369D01*
X139369967Y-104325153D01*
X139370800Y-104342100D01*
X139370800Y-104687900D01*
X139369967Y-104704847D01*
X139367478Y-104721631D01*
X139363355Y-104738090D01*
X139357639Y-104754066D01*
X139350384Y-104769404D01*
X139341661Y-104783958D01*
X139331554Y-104797587D01*
X139320159Y-104810159D01*
X139307587Y-104821554D01*
X139293958Y-104831661D01*
X139279404Y-104840384D01*
X139264066Y-104847639D01*
X139248090Y-104853355D01*
X139231631Y-104857478D01*
X139214847Y-104859967D01*
X139197900Y-104860800D01*
X138802100Y-104860800D01*
X138785153Y-104859967D01*
X138768369Y-104857478D01*
X138751910Y-104853355D01*
X138735934Y-104847639D01*
X138720596Y-104840384D01*
X138706042Y-104831661D01*
X138692413Y-104821554D01*
X138679841Y-104810159D01*
X138668446Y-104797587D01*
X138658339Y-104783958D01*
X138649616Y-104769404D01*
X138642361Y-104754066D01*
X138636645Y-104738090D01*
X138632522Y-104721631D01*
X138630033Y-104704847D01*
X138629200Y-104687900D01*
X138629200Y-104342100D01*
X138630033Y-104325153D01*
X138632522Y-104308369D01*
X138636645Y-104291910D01*
X138642361Y-104275934D01*
X138649616Y-104260596D01*
X138658339Y-104246042D01*
X138668446Y-104232413D01*
X138679841Y-104219841D01*
X138692413Y-104208446D01*
X138706042Y-104198339D01*
X138720596Y-104189616D01*
X138735934Y-104182361D01*
X138751910Y-104176645D01*
X138768369Y-104172522D01*
X138785153Y-104170033D01*
X138802100Y-104169200D01*
X139197900Y-104169200D01*
X139214847Y-104170033D01*
G37*
G36*
X139214847Y-105140033D02*
G01*
X139231631Y-105142522D01*
X139248090Y-105146645D01*
X139264066Y-105152361D01*
X139279404Y-105159616D01*
X139293958Y-105168339D01*
X139307587Y-105178446D01*
X139320159Y-105189841D01*
X139331554Y-105202413D01*
X139341661Y-105216042D01*
X139350384Y-105230596D01*
X139357639Y-105245934D01*
X139363355Y-105261910D01*
X139367478Y-105278369D01*
X139369967Y-105295153D01*
X139370800Y-105312100D01*
X139370800Y-105657900D01*
X139369967Y-105674847D01*
X139367478Y-105691631D01*
X139363355Y-105708090D01*
X139357639Y-105724066D01*
X139350384Y-105739404D01*
X139341661Y-105753958D01*
X139331554Y-105767587D01*
X139320159Y-105780159D01*
X139307587Y-105791554D01*
X139293958Y-105801661D01*
X139279404Y-105810384D01*
X139264066Y-105817639D01*
X139248090Y-105823355D01*
X139231631Y-105827478D01*
X139214847Y-105829967D01*
X139197900Y-105830800D01*
X138802100Y-105830800D01*
X138785153Y-105829967D01*
X138768369Y-105827478D01*
X138751910Y-105823355D01*
X138735934Y-105817639D01*
X138720596Y-105810384D01*
X138706042Y-105801661D01*
X138692413Y-105791554D01*
X138679841Y-105780159D01*
X138668446Y-105767587D01*
X138658339Y-105753958D01*
X138649616Y-105739404D01*
X138642361Y-105724066D01*
X138636645Y-105708090D01*
X138632522Y-105691631D01*
X138630033Y-105674847D01*
X138629200Y-105657900D01*
X138629200Y-105312100D01*
X138630033Y-105295153D01*
X138632522Y-105278369D01*
X138636645Y-105261910D01*
X138642361Y-105245934D01*
X138649616Y-105230596D01*
X138658339Y-105216042D01*
X138668446Y-105202413D01*
X138679841Y-105189841D01*
X138692413Y-105178446D01*
X138706042Y-105168339D01*
X138720596Y-105159616D01*
X138735934Y-105152361D01*
X138751910Y-105146645D01*
X138768369Y-105142522D01*
X138785153Y-105140033D01*
X138802100Y-105139200D01*
X139197900Y-105139200D01*
X139214847Y-105140033D01*
G37*
G36*
X134714847Y-114170033D02*
G01*
X134731631Y-114172522D01*
X134748090Y-114176645D01*
X134764066Y-114182361D01*
X134779404Y-114189616D01*
X134793958Y-114198339D01*
X134807587Y-114208446D01*
X134820159Y-114219841D01*
X134831554Y-114232413D01*
X134841661Y-114246042D01*
X134850384Y-114260596D01*
X134857639Y-114275934D01*
X134863355Y-114291910D01*
X134867478Y-114308369D01*
X134869967Y-114325153D01*
X134870800Y-114342100D01*
X134870800Y-114687900D01*
X134869967Y-114704847D01*
X134867478Y-114721631D01*
X134863355Y-114738090D01*
X134857639Y-114754066D01*
X134850384Y-114769404D01*
X134841661Y-114783958D01*
X134831554Y-114797587D01*
X134820159Y-114810159D01*
X134807587Y-114821554D01*
X134793958Y-114831661D01*
X134779404Y-114840384D01*
X134764066Y-114847639D01*
X134748090Y-114853355D01*
X134731631Y-114857478D01*
X134714847Y-114859967D01*
X134697900Y-114860800D01*
X134302100Y-114860800D01*
X134285153Y-114859967D01*
X134268369Y-114857478D01*
X134251910Y-114853355D01*
X134235934Y-114847639D01*
X134220596Y-114840384D01*
X134206042Y-114831661D01*
X134192413Y-114821554D01*
X134179841Y-114810159D01*
X134168446Y-114797587D01*
X134158339Y-114783958D01*
X134149616Y-114769404D01*
X134142361Y-114754066D01*
X134136645Y-114738090D01*
X134132522Y-114721631D01*
X134130033Y-114704847D01*
X134129200Y-114687900D01*
X134129200Y-114342100D01*
X134130033Y-114325153D01*
X134132522Y-114308369D01*
X134136645Y-114291910D01*
X134142361Y-114275934D01*
X134149616Y-114260596D01*
X134158339Y-114246042D01*
X134168446Y-114232413D01*
X134179841Y-114219841D01*
X134192413Y-114208446D01*
X134206042Y-114198339D01*
X134220596Y-114189616D01*
X134235934Y-114182361D01*
X134251910Y-114176645D01*
X134268369Y-114172522D01*
X134285153Y-114170033D01*
X134302100Y-114169200D01*
X134697900Y-114169200D01*
X134714847Y-114170033D01*
G37*
G36*
X134714847Y-115140033D02*
G01*
X134731631Y-115142522D01*
X134748090Y-115146645D01*
X134764066Y-115152361D01*
X134779404Y-115159616D01*
X134793958Y-115168339D01*
X134807587Y-115178446D01*
X134820159Y-115189841D01*
X134831554Y-115202413D01*
X134841661Y-115216042D01*
X134850384Y-115230596D01*
X134857639Y-115245934D01*
X134863355Y-115261910D01*
X134867478Y-115278369D01*
X134869967Y-115295153D01*
X134870800Y-115312100D01*
X134870800Y-115657900D01*
X134869967Y-115674847D01*
X134867478Y-115691631D01*
X134863355Y-115708090D01*
X134857639Y-115724066D01*
X134850384Y-115739404D01*
X134841661Y-115753958D01*
X134831554Y-115767587D01*
X134820159Y-115780159D01*
X134807587Y-115791554D01*
X134793958Y-115801661D01*
X134779404Y-115810384D01*
X134764066Y-115817639D01*
X134748090Y-115823355D01*
X134731631Y-115827478D01*
X134714847Y-115829967D01*
X134697900Y-115830800D01*
X134302100Y-115830800D01*
X134285153Y-115829967D01*
X134268369Y-115827478D01*
X134251910Y-115823355D01*
X134235934Y-115817639D01*
X134220596Y-115810384D01*
X134206042Y-115801661D01*
X134192413Y-115791554D01*
X134179841Y-115780159D01*
X134168446Y-115767587D01*
X134158339Y-115753958D01*
X134149616Y-115739404D01*
X134142361Y-115724066D01*
X134136645Y-115708090D01*
X134132522Y-115691631D01*
X134130033Y-115674847D01*
X134129200Y-115657900D01*
X134129200Y-115312100D01*
X134130033Y-115295153D01*
X134132522Y-115278369D01*
X134136645Y-115261910D01*
X134142361Y-115245934D01*
X134149616Y-115230596D01*
X134158339Y-115216042D01*
X134168446Y-115202413D01*
X134179841Y-115189841D01*
X134192413Y-115178446D01*
X134206042Y-115168339D01*
X134220596Y-115159616D01*
X134235934Y-115152361D01*
X134251910Y-115146645D01*
X134268369Y-115142522D01*
X134285153Y-115140033D01*
X134302100Y-115139200D01*
X134697900Y-115139200D01*
X134714847Y-115140033D01*
G37*
G36*
X133714847Y-105140033D02*
G01*
X133731631Y-105142522D01*
X133748090Y-105146645D01*
X133764066Y-105152361D01*
X133779404Y-105159616D01*
X133793958Y-105168339D01*
X133807587Y-105178446D01*
X133820159Y-105189841D01*
X133831554Y-105202413D01*
X133841661Y-105216042D01*
X133850384Y-105230596D01*
X133857639Y-105245934D01*
X133863355Y-105261910D01*
X133867478Y-105278369D01*
X133869967Y-105295153D01*
X133870800Y-105312100D01*
X133870800Y-105657900D01*
X133869967Y-105674847D01*
X133867478Y-105691631D01*
X133863355Y-105708090D01*
X133857639Y-105724066D01*
X133850384Y-105739404D01*
X133841661Y-105753958D01*
X133831554Y-105767587D01*
X133820159Y-105780159D01*
X133807587Y-105791554D01*
X133793958Y-105801661D01*
X133779404Y-105810384D01*
X133764066Y-105817639D01*
X133748090Y-105823355D01*
X133731631Y-105827478D01*
X133714847Y-105829967D01*
X133697900Y-105830800D01*
X133302100Y-105830800D01*
X133285153Y-105829967D01*
X133268369Y-105827478D01*
X133251910Y-105823355D01*
X133235934Y-105817639D01*
X133220596Y-105810384D01*
X133206042Y-105801661D01*
X133192413Y-105791554D01*
X133179841Y-105780159D01*
X133168446Y-105767587D01*
X133158339Y-105753958D01*
X133149616Y-105739404D01*
X133142361Y-105724066D01*
X133136645Y-105708090D01*
X133132522Y-105691631D01*
X133130033Y-105674847D01*
X133129200Y-105657900D01*
X133129200Y-105312100D01*
X133130033Y-105295153D01*
X133132522Y-105278369D01*
X133136645Y-105261910D01*
X133142361Y-105245934D01*
X133149616Y-105230596D01*
X133158339Y-105216042D01*
X133168446Y-105202413D01*
X133179841Y-105189841D01*
X133192413Y-105178446D01*
X133206042Y-105168339D01*
X133220596Y-105159616D01*
X133235934Y-105152361D01*
X133251910Y-105146645D01*
X133268369Y-105142522D01*
X133285153Y-105140033D01*
X133302100Y-105139200D01*
X133697900Y-105139200D01*
X133714847Y-105140033D01*
G37*
G36*
X133714847Y-104170033D02*
G01*
X133731631Y-104172522D01*
X133748090Y-104176645D01*
X133764066Y-104182361D01*
X133779404Y-104189616D01*
X133793958Y-104198339D01*
X133807587Y-104208446D01*
X133820159Y-104219841D01*
X133831554Y-104232413D01*
X133841661Y-104246042D01*
X133850384Y-104260596D01*
X133857639Y-104275934D01*
X133863355Y-104291910D01*
X133867478Y-104308369D01*
X133869967Y-104325153D01*
X133870800Y-104342100D01*
X133870800Y-104687900D01*
X133869967Y-104704847D01*
X133867478Y-104721631D01*
X133863355Y-104738090D01*
X133857639Y-104754066D01*
X133850384Y-104769404D01*
X133841661Y-104783958D01*
X133831554Y-104797587D01*
X133820159Y-104810159D01*
X133807587Y-104821554D01*
X133793958Y-104831661D01*
X133779404Y-104840384D01*
X133764066Y-104847639D01*
X133748090Y-104853355D01*
X133731631Y-104857478D01*
X133714847Y-104859967D01*
X133697900Y-104860800D01*
X133302100Y-104860800D01*
X133285153Y-104859967D01*
X133268369Y-104857478D01*
X133251910Y-104853355D01*
X133235934Y-104847639D01*
X133220596Y-104840384D01*
X133206042Y-104831661D01*
X133192413Y-104821554D01*
X133179841Y-104810159D01*
X133168446Y-104797587D01*
X133158339Y-104783958D01*
X133149616Y-104769404D01*
X133142361Y-104754066D01*
X133136645Y-104738090D01*
X133132522Y-104721631D01*
X133130033Y-104704847D01*
X133129200Y-104687900D01*
X133129200Y-104342100D01*
X133130033Y-104325153D01*
X133132522Y-104308369D01*
X133136645Y-104291910D01*
X133142361Y-104275934D01*
X133149616Y-104260596D01*
X133158339Y-104246042D01*
X133168446Y-104232413D01*
X133179841Y-104219841D01*
X133192413Y-104208446D01*
X133206042Y-104198339D01*
X133220596Y-104189616D01*
X133235934Y-104182361D01*
X133251910Y-104176645D01*
X133268369Y-104172522D01*
X133285153Y-104170033D01*
X133302100Y-104169200D01*
X133697900Y-104169200D01*
X133714847Y-104170033D01*
G37*
G36*
X139214847Y-107140033D02*
G01*
X139231631Y-107142522D01*
X139248090Y-107146645D01*
X139264066Y-107152361D01*
X139279404Y-107159616D01*
X139293958Y-107168339D01*
X139307587Y-107178446D01*
X139320159Y-107189841D01*
X139331554Y-107202413D01*
X139341661Y-107216042D01*
X139350384Y-107230596D01*
X139357639Y-107245934D01*
X139363355Y-107261910D01*
X139367478Y-107278369D01*
X139369967Y-107295153D01*
X139370800Y-107312100D01*
X139370800Y-107657900D01*
X139369967Y-107674847D01*
X139367478Y-107691631D01*
X139363355Y-107708090D01*
X139357639Y-107724066D01*
X139350384Y-107739404D01*
X139341661Y-107753958D01*
X139331554Y-107767587D01*
X139320159Y-107780159D01*
X139307587Y-107791554D01*
X139293958Y-107801661D01*
X139279404Y-107810384D01*
X139264066Y-107817639D01*
X139248090Y-107823355D01*
X139231631Y-107827478D01*
X139214847Y-107829967D01*
X139197900Y-107830800D01*
X138802100Y-107830800D01*
X138785153Y-107829967D01*
X138768369Y-107827478D01*
X138751910Y-107823355D01*
X138735934Y-107817639D01*
X138720596Y-107810384D01*
X138706042Y-107801661D01*
X138692413Y-107791554D01*
X138679841Y-107780159D01*
X138668446Y-107767587D01*
X138658339Y-107753958D01*
X138649616Y-107739404D01*
X138642361Y-107724066D01*
X138636645Y-107708090D01*
X138632522Y-107691631D01*
X138630033Y-107674847D01*
X138629200Y-107657900D01*
X138629200Y-107312100D01*
X138630033Y-107295153D01*
X138632522Y-107278369D01*
X138636645Y-107261910D01*
X138642361Y-107245934D01*
X138649616Y-107230596D01*
X138658339Y-107216042D01*
X138668446Y-107202413D01*
X138679841Y-107189841D01*
X138692413Y-107178446D01*
X138706042Y-107168339D01*
X138720596Y-107159616D01*
X138735934Y-107152361D01*
X138751910Y-107146645D01*
X138768369Y-107142522D01*
X138785153Y-107140033D01*
X138802100Y-107139200D01*
X139197900Y-107139200D01*
X139214847Y-107140033D01*
G37*
G36*
X139214847Y-106170033D02*
G01*
X139231631Y-106172522D01*
X139248090Y-106176645D01*
X139264066Y-106182361D01*
X139279404Y-106189616D01*
X139293958Y-106198339D01*
X139307587Y-106208446D01*
X139320159Y-106219841D01*
X139331554Y-106232413D01*
X139341661Y-106246042D01*
X139350384Y-106260596D01*
X139357639Y-106275934D01*
X139363355Y-106291910D01*
X139367478Y-106308369D01*
X139369967Y-106325153D01*
X139370800Y-106342100D01*
X139370800Y-106687900D01*
X139369967Y-106704847D01*
X139367478Y-106721631D01*
X139363355Y-106738090D01*
X139357639Y-106754066D01*
X139350384Y-106769404D01*
X139341661Y-106783958D01*
X139331554Y-106797587D01*
X139320159Y-106810159D01*
X139307587Y-106821554D01*
X139293958Y-106831661D01*
X139279404Y-106840384D01*
X139264066Y-106847639D01*
X139248090Y-106853355D01*
X139231631Y-106857478D01*
X139214847Y-106859967D01*
X139197900Y-106860800D01*
X138802100Y-106860800D01*
X138785153Y-106859967D01*
X138768369Y-106857478D01*
X138751910Y-106853355D01*
X138735934Y-106847639D01*
X138720596Y-106840384D01*
X138706042Y-106831661D01*
X138692413Y-106821554D01*
X138679841Y-106810159D01*
X138668446Y-106797587D01*
X138658339Y-106783958D01*
X138649616Y-106769404D01*
X138642361Y-106754066D01*
X138636645Y-106738090D01*
X138632522Y-106721631D01*
X138630033Y-106704847D01*
X138629200Y-106687900D01*
X138629200Y-106342100D01*
X138630033Y-106325153D01*
X138632522Y-106308369D01*
X138636645Y-106291910D01*
X138642361Y-106275934D01*
X138649616Y-106260596D01*
X138658339Y-106246042D01*
X138668446Y-106232413D01*
X138679841Y-106219841D01*
X138692413Y-106208446D01*
X138706042Y-106198339D01*
X138720596Y-106189616D01*
X138735934Y-106182361D01*
X138751910Y-106176645D01*
X138768369Y-106172522D01*
X138785153Y-106170033D01*
X138802100Y-106169200D01*
X139197900Y-106169200D01*
X139214847Y-106170033D01*
G37*
G36*
X139214847Y-109140033D02*
G01*
X139231631Y-109142522D01*
X139248090Y-109146645D01*
X139264066Y-109152361D01*
X139279404Y-109159616D01*
X139293958Y-109168339D01*
X139307587Y-109178446D01*
X139320159Y-109189841D01*
X139331554Y-109202413D01*
X139341661Y-109216042D01*
X139350384Y-109230596D01*
X139357639Y-109245934D01*
X139363355Y-109261910D01*
X139367478Y-109278369D01*
X139369967Y-109295153D01*
X139370800Y-109312100D01*
X139370800Y-109657900D01*
X139369967Y-109674847D01*
X139367478Y-109691631D01*
X139363355Y-109708090D01*
X139357639Y-109724066D01*
X139350384Y-109739404D01*
X139341661Y-109753958D01*
X139331554Y-109767587D01*
X139320159Y-109780159D01*
X139307587Y-109791554D01*
X139293958Y-109801661D01*
X139279404Y-109810384D01*
X139264066Y-109817639D01*
X139248090Y-109823355D01*
X139231631Y-109827478D01*
X139214847Y-109829967D01*
X139197900Y-109830800D01*
X138802100Y-109830800D01*
X138785153Y-109829967D01*
X138768369Y-109827478D01*
X138751910Y-109823355D01*
X138735934Y-109817639D01*
X138720596Y-109810384D01*
X138706042Y-109801661D01*
X138692413Y-109791554D01*
X138679841Y-109780159D01*
X138668446Y-109767587D01*
X138658339Y-109753958D01*
X138649616Y-109739404D01*
X138642361Y-109724066D01*
X138636645Y-109708090D01*
X138632522Y-109691631D01*
X138630033Y-109674847D01*
X138629200Y-109657900D01*
X138629200Y-109312100D01*
X138630033Y-109295153D01*
X138632522Y-109278369D01*
X138636645Y-109261910D01*
X138642361Y-109245934D01*
X138649616Y-109230596D01*
X138658339Y-109216042D01*
X138668446Y-109202413D01*
X138679841Y-109189841D01*
X138692413Y-109178446D01*
X138706042Y-109168339D01*
X138720596Y-109159616D01*
X138735934Y-109152361D01*
X138751910Y-109146645D01*
X138768369Y-109142522D01*
X138785153Y-109140033D01*
X138802100Y-109139200D01*
X139197900Y-109139200D01*
X139214847Y-109140033D01*
G37*
G36*
X139214847Y-108170033D02*
G01*
X139231631Y-108172522D01*
X139248090Y-108176645D01*
X139264066Y-108182361D01*
X139279404Y-108189616D01*
X139293958Y-108198339D01*
X139307587Y-108208446D01*
X139320159Y-108219841D01*
X139331554Y-108232413D01*
X139341661Y-108246042D01*
X139350384Y-108260596D01*
X139357639Y-108275934D01*
X139363355Y-108291910D01*
X139367478Y-108308369D01*
X139369967Y-108325153D01*
X139370800Y-108342100D01*
X139370800Y-108687900D01*
X139369967Y-108704847D01*
X139367478Y-108721631D01*
X139363355Y-108738090D01*
X139357639Y-108754066D01*
X139350384Y-108769404D01*
X139341661Y-108783958D01*
X139331554Y-108797587D01*
X139320159Y-108810159D01*
X139307587Y-108821554D01*
X139293958Y-108831661D01*
X139279404Y-108840384D01*
X139264066Y-108847639D01*
X139248090Y-108853355D01*
X139231631Y-108857478D01*
X139214847Y-108859967D01*
X139197900Y-108860800D01*
X138802100Y-108860800D01*
X138785153Y-108859967D01*
X138768369Y-108857478D01*
X138751910Y-108853355D01*
X138735934Y-108847639D01*
X138720596Y-108840384D01*
X138706042Y-108831661D01*
X138692413Y-108821554D01*
X138679841Y-108810159D01*
X138668446Y-108797587D01*
X138658339Y-108783958D01*
X138649616Y-108769404D01*
X138642361Y-108754066D01*
X138636645Y-108738090D01*
X138632522Y-108721631D01*
X138630033Y-108704847D01*
X138629200Y-108687900D01*
X138629200Y-108342100D01*
X138630033Y-108325153D01*
X138632522Y-108308369D01*
X138636645Y-108291910D01*
X138642361Y-108275934D01*
X138649616Y-108260596D01*
X138658339Y-108246042D01*
X138668446Y-108232413D01*
X138679841Y-108219841D01*
X138692413Y-108208446D01*
X138706042Y-108198339D01*
X138720596Y-108189616D01*
X138735934Y-108182361D01*
X138751910Y-108176645D01*
X138768369Y-108172522D01*
X138785153Y-108170033D01*
X138802100Y-108169200D01*
X139197900Y-108169200D01*
X139214847Y-108170033D01*
G37*
G36*
X135714847Y-114170033D02*
G01*
X135731631Y-114172522D01*
X135748090Y-114176645D01*
X135764066Y-114182361D01*
X135779404Y-114189616D01*
X135793958Y-114198339D01*
X135807587Y-114208446D01*
X135820159Y-114219841D01*
X135831554Y-114232413D01*
X135841661Y-114246042D01*
X135850384Y-114260596D01*
X135857639Y-114275934D01*
X135863355Y-114291910D01*
X135867478Y-114308369D01*
X135869967Y-114325153D01*
X135870800Y-114342100D01*
X135870800Y-114687900D01*
X135869967Y-114704847D01*
X135867478Y-114721631D01*
X135863355Y-114738090D01*
X135857639Y-114754066D01*
X135850384Y-114769404D01*
X135841661Y-114783958D01*
X135831554Y-114797587D01*
X135820159Y-114810159D01*
X135807587Y-114821554D01*
X135793958Y-114831661D01*
X135779404Y-114840384D01*
X135764066Y-114847639D01*
X135748090Y-114853355D01*
X135731631Y-114857478D01*
X135714847Y-114859967D01*
X135697900Y-114860800D01*
X135302100Y-114860800D01*
X135285153Y-114859967D01*
X135268369Y-114857478D01*
X135251910Y-114853355D01*
X135235934Y-114847639D01*
X135220596Y-114840384D01*
X135206042Y-114831661D01*
X135192413Y-114821554D01*
X135179841Y-114810159D01*
X135168446Y-114797587D01*
X135158339Y-114783958D01*
X135149616Y-114769404D01*
X135142361Y-114754066D01*
X135136645Y-114738090D01*
X135132522Y-114721631D01*
X135130033Y-114704847D01*
X135129200Y-114687900D01*
X135129200Y-114342100D01*
X135130033Y-114325153D01*
X135132522Y-114308369D01*
X135136645Y-114291910D01*
X135142361Y-114275934D01*
X135149616Y-114260596D01*
X135158339Y-114246042D01*
X135168446Y-114232413D01*
X135179841Y-114219841D01*
X135192413Y-114208446D01*
X135206042Y-114198339D01*
X135220596Y-114189616D01*
X135235934Y-114182361D01*
X135251910Y-114176645D01*
X135268369Y-114172522D01*
X135285153Y-114170033D01*
X135302100Y-114169200D01*
X135697900Y-114169200D01*
X135714847Y-114170033D01*
G37*
G36*
X135714847Y-115140033D02*
G01*
X135731631Y-115142522D01*
X135748090Y-115146645D01*
X135764066Y-115152361D01*
X135779404Y-115159616D01*
X135793958Y-115168339D01*
X135807587Y-115178446D01*
X135820159Y-115189841D01*
X135831554Y-115202413D01*
X135841661Y-115216042D01*
X135850384Y-115230596D01*
X135857639Y-115245934D01*
X135863355Y-115261910D01*
X135867478Y-115278369D01*
X135869967Y-115295153D01*
X135870800Y-115312100D01*
X135870800Y-115657900D01*
X135869967Y-115674847D01*
X135867478Y-115691631D01*
X135863355Y-115708090D01*
X135857639Y-115724066D01*
X135850384Y-115739404D01*
X135841661Y-115753958D01*
X135831554Y-115767587D01*
X135820159Y-115780159D01*
X135807587Y-115791554D01*
X135793958Y-115801661D01*
X135779404Y-115810384D01*
X135764066Y-115817639D01*
X135748090Y-115823355D01*
X135731631Y-115827478D01*
X135714847Y-115829967D01*
X135697900Y-115830800D01*
X135302100Y-115830800D01*
X135285153Y-115829967D01*
X135268369Y-115827478D01*
X135251910Y-115823355D01*
X135235934Y-115817639D01*
X135220596Y-115810384D01*
X135206042Y-115801661D01*
X135192413Y-115791554D01*
X135179841Y-115780159D01*
X135168446Y-115767587D01*
X135158339Y-115753958D01*
X135149616Y-115739404D01*
X135142361Y-115724066D01*
X135136645Y-115708090D01*
X135132522Y-115691631D01*
X135130033Y-115674847D01*
X135129200Y-115657900D01*
X135129200Y-115312100D01*
X135130033Y-115295153D01*
X135132522Y-115278369D01*
X135136645Y-115261910D01*
X135142361Y-115245934D01*
X135149616Y-115230596D01*
X135158339Y-115216042D01*
X135168446Y-115202413D01*
X135179841Y-115189841D01*
X135192413Y-115178446D01*
X135206042Y-115168339D01*
X135220596Y-115159616D01*
X135235934Y-115152361D01*
X135251910Y-115146645D01*
X135268369Y-115142522D01*
X135285153Y-115140033D01*
X135302100Y-115139200D01*
X135697900Y-115139200D01*
X135714847Y-115140033D01*
G37*
G36*
X139214847Y-110170033D02*
G01*
X139231631Y-110172522D01*
X139248090Y-110176645D01*
X139264066Y-110182361D01*
X139279404Y-110189616D01*
X139293958Y-110198339D01*
X139307587Y-110208446D01*
X139320159Y-110219841D01*
X139331554Y-110232413D01*
X139341661Y-110246042D01*
X139350384Y-110260596D01*
X139357639Y-110275934D01*
X139363355Y-110291910D01*
X139367478Y-110308369D01*
X139369967Y-110325153D01*
X139370800Y-110342100D01*
X139370800Y-110687900D01*
X139369967Y-110704847D01*
X139367478Y-110721631D01*
X139363355Y-110738090D01*
X139357639Y-110754066D01*
X139350384Y-110769404D01*
X139341661Y-110783958D01*
X139331554Y-110797587D01*
X139320159Y-110810159D01*
X139307587Y-110821554D01*
X139293958Y-110831661D01*
X139279404Y-110840384D01*
X139264066Y-110847639D01*
X139248090Y-110853355D01*
X139231631Y-110857478D01*
X139214847Y-110859967D01*
X139197900Y-110860800D01*
X138802100Y-110860800D01*
X138785153Y-110859967D01*
X138768369Y-110857478D01*
X138751910Y-110853355D01*
X138735934Y-110847639D01*
X138720596Y-110840384D01*
X138706042Y-110831661D01*
X138692413Y-110821554D01*
X138679841Y-110810159D01*
X138668446Y-110797587D01*
X138658339Y-110783958D01*
X138649616Y-110769404D01*
X138642361Y-110754066D01*
X138636645Y-110738090D01*
X138632522Y-110721631D01*
X138630033Y-110704847D01*
X138629200Y-110687900D01*
X138629200Y-110342100D01*
X138630033Y-110325153D01*
X138632522Y-110308369D01*
X138636645Y-110291910D01*
X138642361Y-110275934D01*
X138649616Y-110260596D01*
X138658339Y-110246042D01*
X138668446Y-110232413D01*
X138679841Y-110219841D01*
X138692413Y-110208446D01*
X138706042Y-110198339D01*
X138720596Y-110189616D01*
X138735934Y-110182361D01*
X138751910Y-110176645D01*
X138768369Y-110172522D01*
X138785153Y-110170033D01*
X138802100Y-110169200D01*
X139197900Y-110169200D01*
X139214847Y-110170033D01*
G37*
G36*
X139214847Y-111140033D02*
G01*
X139231631Y-111142522D01*
X139248090Y-111146645D01*
X139264066Y-111152361D01*
X139279404Y-111159616D01*
X139293958Y-111168339D01*
X139307587Y-111178446D01*
X139320159Y-111189841D01*
X139331554Y-111202413D01*
X139341661Y-111216042D01*
X139350384Y-111230596D01*
X139357639Y-111245934D01*
X139363355Y-111261910D01*
X139367478Y-111278369D01*
X139369967Y-111295153D01*
X139370800Y-111312100D01*
X139370800Y-111657900D01*
X139369967Y-111674847D01*
X139367478Y-111691631D01*
X139363355Y-111708090D01*
X139357639Y-111724066D01*
X139350384Y-111739404D01*
X139341661Y-111753958D01*
X139331554Y-111767587D01*
X139320159Y-111780159D01*
X139307587Y-111791554D01*
X139293958Y-111801661D01*
X139279404Y-111810384D01*
X139264066Y-111817639D01*
X139248090Y-111823355D01*
X139231631Y-111827478D01*
X139214847Y-111829967D01*
X139197900Y-111830800D01*
X138802100Y-111830800D01*
X138785153Y-111829967D01*
X138768369Y-111827478D01*
X138751910Y-111823355D01*
X138735934Y-111817639D01*
X138720596Y-111810384D01*
X138706042Y-111801661D01*
X138692413Y-111791554D01*
X138679841Y-111780159D01*
X138668446Y-111767587D01*
X138658339Y-111753958D01*
X138649616Y-111739404D01*
X138642361Y-111724066D01*
X138636645Y-111708090D01*
X138632522Y-111691631D01*
X138630033Y-111674847D01*
X138629200Y-111657900D01*
X138629200Y-111312100D01*
X138630033Y-111295153D01*
X138632522Y-111278369D01*
X138636645Y-111261910D01*
X138642361Y-111245934D01*
X138649616Y-111230596D01*
X138658339Y-111216042D01*
X138668446Y-111202413D01*
X138679841Y-111189841D01*
X138692413Y-111178446D01*
X138706042Y-111168339D01*
X138720596Y-111159616D01*
X138735934Y-111152361D01*
X138751910Y-111146645D01*
X138768369Y-111142522D01*
X138785153Y-111140033D01*
X138802100Y-111139200D01*
X139197900Y-111139200D01*
X139214847Y-111140033D01*
G37*
G36*
X131714847Y-105140033D02*
G01*
X131731631Y-105142522D01*
X131748090Y-105146645D01*
X131764066Y-105152361D01*
X131779404Y-105159616D01*
X131793958Y-105168339D01*
X131807587Y-105178446D01*
X131820159Y-105189841D01*
X131831554Y-105202413D01*
X131841661Y-105216042D01*
X131850384Y-105230596D01*
X131857639Y-105245934D01*
X131863355Y-105261910D01*
X131867478Y-105278369D01*
X131869967Y-105295153D01*
X131870800Y-105312100D01*
X131870800Y-105657900D01*
X131869967Y-105674847D01*
X131867478Y-105691631D01*
X131863355Y-105708090D01*
X131857639Y-105724066D01*
X131850384Y-105739404D01*
X131841661Y-105753958D01*
X131831554Y-105767587D01*
X131820159Y-105780159D01*
X131807587Y-105791554D01*
X131793958Y-105801661D01*
X131779404Y-105810384D01*
X131764066Y-105817639D01*
X131748090Y-105823355D01*
X131731631Y-105827478D01*
X131714847Y-105829967D01*
X131697900Y-105830800D01*
X131302100Y-105830800D01*
X131285153Y-105829967D01*
X131268369Y-105827478D01*
X131251910Y-105823355D01*
X131235934Y-105817639D01*
X131220596Y-105810384D01*
X131206042Y-105801661D01*
X131192413Y-105791554D01*
X131179841Y-105780159D01*
X131168446Y-105767587D01*
X131158339Y-105753958D01*
X131149616Y-105739404D01*
X131142361Y-105724066D01*
X131136645Y-105708090D01*
X131132522Y-105691631D01*
X131130033Y-105674847D01*
X131129200Y-105657900D01*
X131129200Y-105312100D01*
X131130033Y-105295153D01*
X131132522Y-105278369D01*
X131136645Y-105261910D01*
X131142361Y-105245934D01*
X131149616Y-105230596D01*
X131158339Y-105216042D01*
X131168446Y-105202413D01*
X131179841Y-105189841D01*
X131192413Y-105178446D01*
X131206042Y-105168339D01*
X131220596Y-105159616D01*
X131235934Y-105152361D01*
X131251910Y-105146645D01*
X131268369Y-105142522D01*
X131285153Y-105140033D01*
X131302100Y-105139200D01*
X131697900Y-105139200D01*
X131714847Y-105140033D01*
G37*
G36*
X131714847Y-104170033D02*
G01*
X131731631Y-104172522D01*
X131748090Y-104176645D01*
X131764066Y-104182361D01*
X131779404Y-104189616D01*
X131793958Y-104198339D01*
X131807587Y-104208446D01*
X131820159Y-104219841D01*
X131831554Y-104232413D01*
X131841661Y-104246042D01*
X131850384Y-104260596D01*
X131857639Y-104275934D01*
X131863355Y-104291910D01*
X131867478Y-104308369D01*
X131869967Y-104325153D01*
X131870800Y-104342100D01*
X131870800Y-104687900D01*
X131869967Y-104704847D01*
X131867478Y-104721631D01*
X131863355Y-104738090D01*
X131857639Y-104754066D01*
X131850384Y-104769404D01*
X131841661Y-104783958D01*
X131831554Y-104797587D01*
X131820159Y-104810159D01*
X131807587Y-104821554D01*
X131793958Y-104831661D01*
X131779404Y-104840384D01*
X131764066Y-104847639D01*
X131748090Y-104853355D01*
X131731631Y-104857478D01*
X131714847Y-104859967D01*
X131697900Y-104860800D01*
X131302100Y-104860800D01*
X131285153Y-104859967D01*
X131268369Y-104857478D01*
X131251910Y-104853355D01*
X131235934Y-104847639D01*
X131220596Y-104840384D01*
X131206042Y-104831661D01*
X131192413Y-104821554D01*
X131179841Y-104810159D01*
X131168446Y-104797587D01*
X131158339Y-104783958D01*
X131149616Y-104769404D01*
X131142361Y-104754066D01*
X131136645Y-104738090D01*
X131132522Y-104721631D01*
X131130033Y-104704847D01*
X131129200Y-104687900D01*
X131129200Y-104342100D01*
X131130033Y-104325153D01*
X131132522Y-104308369D01*
X131136645Y-104291910D01*
X131142361Y-104275934D01*
X131149616Y-104260596D01*
X131158339Y-104246042D01*
X131168446Y-104232413D01*
X131179841Y-104219841D01*
X131192413Y-104208446D01*
X131206042Y-104198339D01*
X131220596Y-104189616D01*
X131235934Y-104182361D01*
X131251910Y-104176645D01*
X131268369Y-104172522D01*
X131285153Y-104170033D01*
X131302100Y-104169200D01*
X131697900Y-104169200D01*
X131714847Y-104170033D01*
G37*
G36*
X129214847Y-109640033D02*
G01*
X129231631Y-109642522D01*
X129248090Y-109646645D01*
X129264066Y-109652361D01*
X129279404Y-109659616D01*
X129293958Y-109668339D01*
X129307587Y-109678446D01*
X129320159Y-109689841D01*
X129331554Y-109702413D01*
X129341661Y-109716042D01*
X129350384Y-109730596D01*
X129357639Y-109745934D01*
X129363355Y-109761910D01*
X129367478Y-109778369D01*
X129369967Y-109795153D01*
X129370800Y-109812100D01*
X129370800Y-110157900D01*
X129369967Y-110174847D01*
X129367478Y-110191631D01*
X129363355Y-110208090D01*
X129357639Y-110224066D01*
X129350384Y-110239404D01*
X129341661Y-110253958D01*
X129331554Y-110267587D01*
X129320159Y-110280159D01*
X129307587Y-110291554D01*
X129293958Y-110301661D01*
X129279404Y-110310384D01*
X129264066Y-110317639D01*
X129248090Y-110323355D01*
X129231631Y-110327478D01*
X129214847Y-110329967D01*
X129197900Y-110330800D01*
X128802100Y-110330800D01*
X128785153Y-110329967D01*
X128768369Y-110327478D01*
X128751910Y-110323355D01*
X128735934Y-110317639D01*
X128720596Y-110310384D01*
X128706042Y-110301661D01*
X128692413Y-110291554D01*
X128679841Y-110280159D01*
X128668446Y-110267587D01*
X128658339Y-110253958D01*
X128649616Y-110239404D01*
X128642361Y-110224066D01*
X128636645Y-110208090D01*
X128632522Y-110191631D01*
X128630033Y-110174847D01*
X128629200Y-110157900D01*
X128629200Y-109812100D01*
X128630033Y-109795153D01*
X128632522Y-109778369D01*
X128636645Y-109761910D01*
X128642361Y-109745934D01*
X128649616Y-109730596D01*
X128658339Y-109716042D01*
X128668446Y-109702413D01*
X128679841Y-109689841D01*
X128692413Y-109678446D01*
X128706042Y-109668339D01*
X128720596Y-109659616D01*
X128735934Y-109652361D01*
X128751910Y-109646645D01*
X128768369Y-109642522D01*
X128785153Y-109640033D01*
X128802100Y-109639200D01*
X129197900Y-109639200D01*
X129214847Y-109640033D01*
G37*
G36*
X129214847Y-108670033D02*
G01*
X129231631Y-108672522D01*
X129248090Y-108676645D01*
X129264066Y-108682361D01*
X129279404Y-108689616D01*
X129293958Y-108698339D01*
X129307587Y-108708446D01*
X129320159Y-108719841D01*
X129331554Y-108732413D01*
X129341661Y-108746042D01*
X129350384Y-108760596D01*
X129357639Y-108775934D01*
X129363355Y-108791910D01*
X129367478Y-108808369D01*
X129369967Y-108825153D01*
X129370800Y-108842100D01*
X129370800Y-109187900D01*
X129369967Y-109204847D01*
X129367478Y-109221631D01*
X129363355Y-109238090D01*
X129357639Y-109254066D01*
X129350384Y-109269404D01*
X129341661Y-109283958D01*
X129331554Y-109297587D01*
X129320159Y-109310159D01*
X129307587Y-109321554D01*
X129293958Y-109331661D01*
X129279404Y-109340384D01*
X129264066Y-109347639D01*
X129248090Y-109353355D01*
X129231631Y-109357478D01*
X129214847Y-109359967D01*
X129197900Y-109360800D01*
X128802100Y-109360800D01*
X128785153Y-109359967D01*
X128768369Y-109357478D01*
X128751910Y-109353355D01*
X128735934Y-109347639D01*
X128720596Y-109340384D01*
X128706042Y-109331661D01*
X128692413Y-109321554D01*
X128679841Y-109310159D01*
X128668446Y-109297587D01*
X128658339Y-109283958D01*
X128649616Y-109269404D01*
X128642361Y-109254066D01*
X128636645Y-109238090D01*
X128632522Y-109221631D01*
X128630033Y-109204847D01*
X128629200Y-109187900D01*
X128629200Y-108842100D01*
X128630033Y-108825153D01*
X128632522Y-108808369D01*
X128636645Y-108791910D01*
X128642361Y-108775934D01*
X128649616Y-108760596D01*
X128658339Y-108746042D01*
X128668446Y-108732413D01*
X128679841Y-108719841D01*
X128692413Y-108708446D01*
X128706042Y-108698339D01*
X128720596Y-108689616D01*
X128735934Y-108682361D01*
X128751910Y-108676645D01*
X128768369Y-108672522D01*
X128785153Y-108670033D01*
X128802100Y-108669200D01*
X129197900Y-108669200D01*
X129214847Y-108670033D01*
G37*
G36*
X136214847Y-105140033D02*
G01*
X136231631Y-105142522D01*
X136248090Y-105146645D01*
X136264066Y-105152361D01*
X136279404Y-105159616D01*
X136293958Y-105168339D01*
X136307587Y-105178446D01*
X136320159Y-105189841D01*
X136331554Y-105202413D01*
X136341661Y-105216042D01*
X136350384Y-105230596D01*
X136357639Y-105245934D01*
X136363355Y-105261910D01*
X136367478Y-105278369D01*
X136369967Y-105295153D01*
X136370800Y-105312100D01*
X136370800Y-105657900D01*
X136369967Y-105674847D01*
X136367478Y-105691631D01*
X136363355Y-105708090D01*
X136357639Y-105724066D01*
X136350384Y-105739404D01*
X136341661Y-105753958D01*
X136331554Y-105767587D01*
X136320159Y-105780159D01*
X136307587Y-105791554D01*
X136293958Y-105801661D01*
X136279404Y-105810384D01*
X136264066Y-105817639D01*
X136248090Y-105823355D01*
X136231631Y-105827478D01*
X136214847Y-105829967D01*
X136197900Y-105830800D01*
X135802100Y-105830800D01*
X135785153Y-105829967D01*
X135768369Y-105827478D01*
X135751910Y-105823355D01*
X135735934Y-105817639D01*
X135720596Y-105810384D01*
X135706042Y-105801661D01*
X135692413Y-105791554D01*
X135679841Y-105780159D01*
X135668446Y-105767587D01*
X135658339Y-105753958D01*
X135649616Y-105739404D01*
X135642361Y-105724066D01*
X135636645Y-105708090D01*
X135632522Y-105691631D01*
X135630033Y-105674847D01*
X135629200Y-105657900D01*
X135629200Y-105312100D01*
X135630033Y-105295153D01*
X135632522Y-105278369D01*
X135636645Y-105261910D01*
X135642361Y-105245934D01*
X135649616Y-105230596D01*
X135658339Y-105216042D01*
X135668446Y-105202413D01*
X135679841Y-105189841D01*
X135692413Y-105178446D01*
X135706042Y-105168339D01*
X135720596Y-105159616D01*
X135735934Y-105152361D01*
X135751910Y-105146645D01*
X135768369Y-105142522D01*
X135785153Y-105140033D01*
X135802100Y-105139200D01*
X136197900Y-105139200D01*
X136214847Y-105140033D01*
G37*
G36*
X136214847Y-104170033D02*
G01*
X136231631Y-104172522D01*
X136248090Y-104176645D01*
X136264066Y-104182361D01*
X136279404Y-104189616D01*
X136293958Y-104198339D01*
X136307587Y-104208446D01*
X136320159Y-104219841D01*
X136331554Y-104232413D01*
X136341661Y-104246042D01*
X136350384Y-104260596D01*
X136357639Y-104275934D01*
X136363355Y-104291910D01*
X136367478Y-104308369D01*
X136369967Y-104325153D01*
X136370800Y-104342100D01*
X136370800Y-104687900D01*
X136369967Y-104704847D01*
X136367478Y-104721631D01*
X136363355Y-104738090D01*
X136357639Y-104754066D01*
X136350384Y-104769404D01*
X136341661Y-104783958D01*
X136331554Y-104797587D01*
X136320159Y-104810159D01*
X136307587Y-104821554D01*
X136293958Y-104831661D01*
X136279404Y-104840384D01*
X136264066Y-104847639D01*
X136248090Y-104853355D01*
X136231631Y-104857478D01*
X136214847Y-104859967D01*
X136197900Y-104860800D01*
X135802100Y-104860800D01*
X135785153Y-104859967D01*
X135768369Y-104857478D01*
X135751910Y-104853355D01*
X135735934Y-104847639D01*
X135720596Y-104840384D01*
X135706042Y-104831661D01*
X135692413Y-104821554D01*
X135679841Y-104810159D01*
X135668446Y-104797587D01*
X135658339Y-104783958D01*
X135649616Y-104769404D01*
X135642361Y-104754066D01*
X135636645Y-104738090D01*
X135632522Y-104721631D01*
X135630033Y-104704847D01*
X135629200Y-104687900D01*
X135629200Y-104342100D01*
X135630033Y-104325153D01*
X135632522Y-104308369D01*
X135636645Y-104291910D01*
X135642361Y-104275934D01*
X135649616Y-104260596D01*
X135658339Y-104246042D01*
X135668446Y-104232413D01*
X135679841Y-104219841D01*
X135692413Y-104208446D01*
X135706042Y-104198339D01*
X135720596Y-104189616D01*
X135735934Y-104182361D01*
X135751910Y-104176645D01*
X135768369Y-104172522D01*
X135785153Y-104170033D01*
X135802100Y-104169200D01*
X136197900Y-104169200D01*
X136214847Y-104170033D01*
G37*
G36*
X132714847Y-114170033D02*
G01*
X132731631Y-114172522D01*
X132748090Y-114176645D01*
X132764066Y-114182361D01*
X132779404Y-114189616D01*
X132793958Y-114198339D01*
X132807587Y-114208446D01*
X132820159Y-114219841D01*
X132831554Y-114232413D01*
X132841661Y-114246042D01*
X132850384Y-114260596D01*
X132857639Y-114275934D01*
X132863355Y-114291910D01*
X132867478Y-114308369D01*
X132869967Y-114325153D01*
X132870800Y-114342100D01*
X132870800Y-114687900D01*
X132869967Y-114704847D01*
X132867478Y-114721631D01*
X132863355Y-114738090D01*
X132857639Y-114754066D01*
X132850384Y-114769404D01*
X132841661Y-114783958D01*
X132831554Y-114797587D01*
X132820159Y-114810159D01*
X132807587Y-114821554D01*
X132793958Y-114831661D01*
X132779404Y-114840384D01*
X132764066Y-114847639D01*
X132748090Y-114853355D01*
X132731631Y-114857478D01*
X132714847Y-114859967D01*
X132697900Y-114860800D01*
X132302100Y-114860800D01*
X132285153Y-114859967D01*
X132268369Y-114857478D01*
X132251910Y-114853355D01*
X132235934Y-114847639D01*
X132220596Y-114840384D01*
X132206042Y-114831661D01*
X132192413Y-114821554D01*
X132179841Y-114810159D01*
X132168446Y-114797587D01*
X132158339Y-114783958D01*
X132149616Y-114769404D01*
X132142361Y-114754066D01*
X132136645Y-114738090D01*
X132132522Y-114721631D01*
X132130033Y-114704847D01*
X132129200Y-114687900D01*
X132129200Y-114342100D01*
X132130033Y-114325153D01*
X132132522Y-114308369D01*
X132136645Y-114291910D01*
X132142361Y-114275934D01*
X132149616Y-114260596D01*
X132158339Y-114246042D01*
X132168446Y-114232413D01*
X132179841Y-114219841D01*
X132192413Y-114208446D01*
X132206042Y-114198339D01*
X132220596Y-114189616D01*
X132235934Y-114182361D01*
X132251910Y-114176645D01*
X132268369Y-114172522D01*
X132285153Y-114170033D01*
X132302100Y-114169200D01*
X132697900Y-114169200D01*
X132714847Y-114170033D01*
G37*
G36*
X132714847Y-115140033D02*
G01*
X132731631Y-115142522D01*
X132748090Y-115146645D01*
X132764066Y-115152361D01*
X132779404Y-115159616D01*
X132793958Y-115168339D01*
X132807587Y-115178446D01*
X132820159Y-115189841D01*
X132831554Y-115202413D01*
X132841661Y-115216042D01*
X132850384Y-115230596D01*
X132857639Y-115245934D01*
X132863355Y-115261910D01*
X132867478Y-115278369D01*
X132869967Y-115295153D01*
X132870800Y-115312100D01*
X132870800Y-115657900D01*
X132869967Y-115674847D01*
X132867478Y-115691631D01*
X132863355Y-115708090D01*
X132857639Y-115724066D01*
X132850384Y-115739404D01*
X132841661Y-115753958D01*
X132831554Y-115767587D01*
X132820159Y-115780159D01*
X132807587Y-115791554D01*
X132793958Y-115801661D01*
X132779404Y-115810384D01*
X132764066Y-115817639D01*
X132748090Y-115823355D01*
X132731631Y-115827478D01*
X132714847Y-115829967D01*
X132697900Y-115830800D01*
X132302100Y-115830800D01*
X132285153Y-115829967D01*
X132268369Y-115827478D01*
X132251910Y-115823355D01*
X132235934Y-115817639D01*
X132220596Y-115810384D01*
X132206042Y-115801661D01*
X132192413Y-115791554D01*
X132179841Y-115780159D01*
X132168446Y-115767587D01*
X132158339Y-115753958D01*
X132149616Y-115739404D01*
X132142361Y-115724066D01*
X132136645Y-115708090D01*
X132132522Y-115691631D01*
X132130033Y-115674847D01*
X132129200Y-115657900D01*
X132129200Y-115312100D01*
X132130033Y-115295153D01*
X132132522Y-115278369D01*
X132136645Y-115261910D01*
X132142361Y-115245934D01*
X132149616Y-115230596D01*
X132158339Y-115216042D01*
X132168446Y-115202413D01*
X132179841Y-115189841D01*
X132192413Y-115178446D01*
X132206042Y-115168339D01*
X132220596Y-115159616D01*
X132235934Y-115152361D01*
X132251910Y-115146645D01*
X132268369Y-115142522D01*
X132285153Y-115140033D01*
X132302100Y-115139200D01*
X132697900Y-115139200D01*
X132714847Y-115140033D01*
G37*
G36*
X154714847Y-99140033D02*
G01*
X154731631Y-99142522D01*
X154748090Y-99146645D01*
X154764066Y-99152361D01*
X154779404Y-99159616D01*
X154793958Y-99168339D01*
X154807587Y-99178446D01*
X154820159Y-99189841D01*
X154831554Y-99202413D01*
X154841661Y-99216042D01*
X154850384Y-99230596D01*
X154857639Y-99245934D01*
X154863355Y-99261910D01*
X154867478Y-99278369D01*
X154869967Y-99295153D01*
X154870800Y-99312100D01*
X154870800Y-99657900D01*
X154869967Y-99674847D01*
X154867478Y-99691631D01*
X154863355Y-99708090D01*
X154857639Y-99724066D01*
X154850384Y-99739404D01*
X154841661Y-99753958D01*
X154831554Y-99767587D01*
X154820159Y-99780159D01*
X154807587Y-99791554D01*
X154793958Y-99801661D01*
X154779404Y-99810384D01*
X154764066Y-99817639D01*
X154748090Y-99823355D01*
X154731631Y-99827478D01*
X154714847Y-99829967D01*
X154697900Y-99830800D01*
X154302100Y-99830800D01*
X154285153Y-99829967D01*
X154268369Y-99827478D01*
X154251910Y-99823355D01*
X154235934Y-99817639D01*
X154220596Y-99810384D01*
X154206042Y-99801661D01*
X154192413Y-99791554D01*
X154179841Y-99780159D01*
X154168446Y-99767587D01*
X154158339Y-99753958D01*
X154149616Y-99739404D01*
X154142361Y-99724066D01*
X154136645Y-99708090D01*
X154132522Y-99691631D01*
X154130033Y-99674847D01*
X154129200Y-99657900D01*
X154129200Y-99312100D01*
X154130033Y-99295153D01*
X154132522Y-99278369D01*
X154136645Y-99261910D01*
X154142361Y-99245934D01*
X154149616Y-99230596D01*
X154158339Y-99216042D01*
X154168446Y-99202413D01*
X154179841Y-99189841D01*
X154192413Y-99178446D01*
X154206042Y-99168339D01*
X154220596Y-99159616D01*
X154235934Y-99152361D01*
X154251910Y-99146645D01*
X154268369Y-99142522D01*
X154285153Y-99140033D01*
X154302100Y-99139200D01*
X154697900Y-99139200D01*
X154714847Y-99140033D01*
G37*
G36*
X154714847Y-98170033D02*
G01*
X154731631Y-98172522D01*
X154748090Y-98176645D01*
X154764066Y-98182361D01*
X154779404Y-98189616D01*
X154793958Y-98198339D01*
X154807587Y-98208446D01*
X154820159Y-98219841D01*
X154831554Y-98232413D01*
X154841661Y-98246042D01*
X154850384Y-98260596D01*
X154857639Y-98275934D01*
X154863355Y-98291910D01*
X154867478Y-98308369D01*
X154869967Y-98325153D01*
X154870800Y-98342100D01*
X154870800Y-98687900D01*
X154869967Y-98704847D01*
X154867478Y-98721631D01*
X154863355Y-98738090D01*
X154857639Y-98754066D01*
X154850384Y-98769404D01*
X154841661Y-98783958D01*
X154831554Y-98797587D01*
X154820159Y-98810159D01*
X154807587Y-98821554D01*
X154793958Y-98831661D01*
X154779404Y-98840384D01*
X154764066Y-98847639D01*
X154748090Y-98853355D01*
X154731631Y-98857478D01*
X154714847Y-98859967D01*
X154697900Y-98860800D01*
X154302100Y-98860800D01*
X154285153Y-98859967D01*
X154268369Y-98857478D01*
X154251910Y-98853355D01*
X154235934Y-98847639D01*
X154220596Y-98840384D01*
X154206042Y-98831661D01*
X154192413Y-98821554D01*
X154179841Y-98810159D01*
X154168446Y-98797587D01*
X154158339Y-98783958D01*
X154149616Y-98769404D01*
X154142361Y-98754066D01*
X154136645Y-98738090D01*
X154132522Y-98721631D01*
X154130033Y-98704847D01*
X154129200Y-98687900D01*
X154129200Y-98342100D01*
X154130033Y-98325153D01*
X154132522Y-98308369D01*
X154136645Y-98291910D01*
X154142361Y-98275934D01*
X154149616Y-98260596D01*
X154158339Y-98246042D01*
X154168446Y-98232413D01*
X154179841Y-98219841D01*
X154192413Y-98208446D01*
X154206042Y-98198339D01*
X154220596Y-98189616D01*
X154235934Y-98182361D01*
X154251910Y-98176645D01*
X154268369Y-98172522D01*
X154285153Y-98170033D01*
X154302100Y-98169200D01*
X154697900Y-98169200D01*
X154714847Y-98170033D01*
G37*
D13*
X167000000Y-114000000D03*
X164500000Y-114000000D03*
X162500000Y-114000000D03*
D14*
X160000000Y-114000000D03*
D15*
X156930000Y-116710000D03*
X170070000Y-116710000D03*
D13*
X119000000Y-113500000D03*
X119000000Y-111000000D03*
X119000000Y-109000000D03*
D14*
X119000000Y-106500000D03*
D15*
X116290000Y-103430000D03*
X116290000Y-116570000D03*
D13*
X160000000Y-106000000D03*
X162500000Y-106000000D03*
X164500000Y-106000000D03*
D14*
X167000000Y-106000000D03*
D15*
X170070000Y-103290000D03*
X156930000Y-103290000D03*
D12*
G36*
X123114847Y-100070033D02*
G01*
X123131631Y-100072522D01*
X123148090Y-100076645D01*
X123164066Y-100082361D01*
X123179404Y-100089616D01*
X123193958Y-100098339D01*
X123207587Y-100108446D01*
X123220159Y-100119841D01*
X123231554Y-100132413D01*
X123241661Y-100146042D01*
X123250384Y-100160596D01*
X123257639Y-100175934D01*
X123263355Y-100191910D01*
X123267478Y-100208369D01*
X123269967Y-100225153D01*
X123270800Y-100242100D01*
X123270800Y-100587900D01*
X123269967Y-100604847D01*
X123267478Y-100621631D01*
X123263355Y-100638090D01*
X123257639Y-100654066D01*
X123250384Y-100669404D01*
X123241661Y-100683958D01*
X123231554Y-100697587D01*
X123220159Y-100710159D01*
X123207587Y-100721554D01*
X123193958Y-100731661D01*
X123179404Y-100740384D01*
X123164066Y-100747639D01*
X123148090Y-100753355D01*
X123131631Y-100757478D01*
X123114847Y-100759967D01*
X123097900Y-100760800D01*
X122702100Y-100760800D01*
X122685153Y-100759967D01*
X122668369Y-100757478D01*
X122651910Y-100753355D01*
X122635934Y-100747639D01*
X122620596Y-100740384D01*
X122606042Y-100731661D01*
X122592413Y-100721554D01*
X122579841Y-100710159D01*
X122568446Y-100697587D01*
X122558339Y-100683958D01*
X122549616Y-100669404D01*
X122542361Y-100654066D01*
X122536645Y-100638090D01*
X122532522Y-100621631D01*
X122530033Y-100604847D01*
X122529200Y-100587900D01*
X122529200Y-100242100D01*
X122530033Y-100225153D01*
X122532522Y-100208369D01*
X122536645Y-100191910D01*
X122542361Y-100175934D01*
X122549616Y-100160596D01*
X122558339Y-100146042D01*
X122568446Y-100132413D01*
X122579841Y-100119841D01*
X122592413Y-100108446D01*
X122606042Y-100098339D01*
X122620596Y-100089616D01*
X122635934Y-100082361D01*
X122651910Y-100076645D01*
X122668369Y-100072522D01*
X122685153Y-100070033D01*
X122702100Y-100069200D01*
X123097900Y-100069200D01*
X123114847Y-100070033D01*
G37*
G36*
X123114847Y-101040033D02*
G01*
X123131631Y-101042522D01*
X123148090Y-101046645D01*
X123164066Y-101052361D01*
X123179404Y-101059616D01*
X123193958Y-101068339D01*
X123207587Y-101078446D01*
X123220159Y-101089841D01*
X123231554Y-101102413D01*
X123241661Y-101116042D01*
X123250384Y-101130596D01*
X123257639Y-101145934D01*
X123263355Y-101161910D01*
X123267478Y-101178369D01*
X123269967Y-101195153D01*
X123270800Y-101212100D01*
X123270800Y-101557900D01*
X123269967Y-101574847D01*
X123267478Y-101591631D01*
X123263355Y-101608090D01*
X123257639Y-101624066D01*
X123250384Y-101639404D01*
X123241661Y-101653958D01*
X123231554Y-101667587D01*
X123220159Y-101680159D01*
X123207587Y-101691554D01*
X123193958Y-101701661D01*
X123179404Y-101710384D01*
X123164066Y-101717639D01*
X123148090Y-101723355D01*
X123131631Y-101727478D01*
X123114847Y-101729967D01*
X123097900Y-101730800D01*
X122702100Y-101730800D01*
X122685153Y-101729967D01*
X122668369Y-101727478D01*
X122651910Y-101723355D01*
X122635934Y-101717639D01*
X122620596Y-101710384D01*
X122606042Y-101701661D01*
X122592413Y-101691554D01*
X122579841Y-101680159D01*
X122568446Y-101667587D01*
X122558339Y-101653958D01*
X122549616Y-101639404D01*
X122542361Y-101624066D01*
X122536645Y-101608090D01*
X122532522Y-101591631D01*
X122530033Y-101574847D01*
X122529200Y-101557900D01*
X122529200Y-101212100D01*
X122530033Y-101195153D01*
X122532522Y-101178369D01*
X122536645Y-101161910D01*
X122542361Y-101145934D01*
X122549616Y-101130596D01*
X122558339Y-101116042D01*
X122568446Y-101102413D01*
X122579841Y-101089841D01*
X122592413Y-101078446D01*
X122606042Y-101068339D01*
X122620596Y-101059616D01*
X122635934Y-101052361D01*
X122651910Y-101046645D01*
X122668369Y-101042522D01*
X122685153Y-101040033D01*
X122702100Y-101039200D01*
X123097900Y-101039200D01*
X123114847Y-101040033D01*
G37*
G36*
X135454847Y-98780033D02*
G01*
X135471631Y-98782522D01*
X135488090Y-98786645D01*
X135504066Y-98792361D01*
X135519404Y-98799616D01*
X135533958Y-98808339D01*
X135547587Y-98818446D01*
X135560159Y-98829841D01*
X135571554Y-98842413D01*
X135581661Y-98856042D01*
X135590384Y-98870596D01*
X135597639Y-98885934D01*
X135603355Y-98901910D01*
X135607478Y-98918369D01*
X135609967Y-98935153D01*
X135610800Y-98952100D01*
X135610800Y-99347900D01*
X135609967Y-99364847D01*
X135607478Y-99381631D01*
X135603355Y-99398090D01*
X135597639Y-99414066D01*
X135590384Y-99429404D01*
X135581661Y-99443958D01*
X135571554Y-99457587D01*
X135560159Y-99470159D01*
X135547587Y-99481554D01*
X135533958Y-99491661D01*
X135519404Y-99500384D01*
X135504066Y-99507639D01*
X135488090Y-99513355D01*
X135471631Y-99517478D01*
X135454847Y-99519967D01*
X135437900Y-99520800D01*
X135092100Y-99520800D01*
X135075153Y-99519967D01*
X135058369Y-99517478D01*
X135041910Y-99513355D01*
X135025934Y-99507639D01*
X135010596Y-99500384D01*
X134996042Y-99491661D01*
X134982413Y-99481554D01*
X134969841Y-99470159D01*
X134958446Y-99457587D01*
X134948339Y-99443958D01*
X134939616Y-99429404D01*
X134932361Y-99414066D01*
X134926645Y-99398090D01*
X134922522Y-99381631D01*
X134920033Y-99364847D01*
X134919200Y-99347900D01*
X134919200Y-98952100D01*
X134920033Y-98935153D01*
X134922522Y-98918369D01*
X134926645Y-98901910D01*
X134932361Y-98885934D01*
X134939616Y-98870596D01*
X134948339Y-98856042D01*
X134958446Y-98842413D01*
X134969841Y-98829841D01*
X134982413Y-98818446D01*
X134996042Y-98808339D01*
X135010596Y-98799616D01*
X135025934Y-98792361D01*
X135041910Y-98786645D01*
X135058369Y-98782522D01*
X135075153Y-98780033D01*
X135092100Y-98779200D01*
X135437900Y-98779200D01*
X135454847Y-98780033D01*
G37*
G36*
X136424847Y-98780033D02*
G01*
X136441631Y-98782522D01*
X136458090Y-98786645D01*
X136474066Y-98792361D01*
X136489404Y-98799616D01*
X136503958Y-98808339D01*
X136517587Y-98818446D01*
X136530159Y-98829841D01*
X136541554Y-98842413D01*
X136551661Y-98856042D01*
X136560384Y-98870596D01*
X136567639Y-98885934D01*
X136573355Y-98901910D01*
X136577478Y-98918369D01*
X136579967Y-98935153D01*
X136580800Y-98952100D01*
X136580800Y-99347900D01*
X136579967Y-99364847D01*
X136577478Y-99381631D01*
X136573355Y-99398090D01*
X136567639Y-99414066D01*
X136560384Y-99429404D01*
X136551661Y-99443958D01*
X136541554Y-99457587D01*
X136530159Y-99470159D01*
X136517587Y-99481554D01*
X136503958Y-99491661D01*
X136489404Y-99500384D01*
X136474066Y-99507639D01*
X136458090Y-99513355D01*
X136441631Y-99517478D01*
X136424847Y-99519967D01*
X136407900Y-99520800D01*
X136062100Y-99520800D01*
X136045153Y-99519967D01*
X136028369Y-99517478D01*
X136011910Y-99513355D01*
X135995934Y-99507639D01*
X135980596Y-99500384D01*
X135966042Y-99491661D01*
X135952413Y-99481554D01*
X135939841Y-99470159D01*
X135928446Y-99457587D01*
X135918339Y-99443958D01*
X135909616Y-99429404D01*
X135902361Y-99414066D01*
X135896645Y-99398090D01*
X135892522Y-99381631D01*
X135890033Y-99364847D01*
X135889200Y-99347900D01*
X135889200Y-98952100D01*
X135890033Y-98935153D01*
X135892522Y-98918369D01*
X135896645Y-98901910D01*
X135902361Y-98885934D01*
X135909616Y-98870596D01*
X135918339Y-98856042D01*
X135928446Y-98842413D01*
X135939841Y-98829841D01*
X135952413Y-98818446D01*
X135966042Y-98808339D01*
X135980596Y-98799616D01*
X135995934Y-98792361D01*
X136011910Y-98786645D01*
X136028369Y-98782522D01*
X136045153Y-98780033D01*
X136062100Y-98779200D01*
X136407900Y-98779200D01*
X136424847Y-98780033D01*
G37*
G36*
X132954847Y-98780033D02*
G01*
X132971631Y-98782522D01*
X132988090Y-98786645D01*
X133004066Y-98792361D01*
X133019404Y-98799616D01*
X133033958Y-98808339D01*
X133047587Y-98818446D01*
X133060159Y-98829841D01*
X133071554Y-98842413D01*
X133081661Y-98856042D01*
X133090384Y-98870596D01*
X133097639Y-98885934D01*
X133103355Y-98901910D01*
X133107478Y-98918369D01*
X133109967Y-98935153D01*
X133110800Y-98952100D01*
X133110800Y-99347900D01*
X133109967Y-99364847D01*
X133107478Y-99381631D01*
X133103355Y-99398090D01*
X133097639Y-99414066D01*
X133090384Y-99429404D01*
X133081661Y-99443958D01*
X133071554Y-99457587D01*
X133060159Y-99470159D01*
X133047587Y-99481554D01*
X133033958Y-99491661D01*
X133019404Y-99500384D01*
X133004066Y-99507639D01*
X132988090Y-99513355D01*
X132971631Y-99517478D01*
X132954847Y-99519967D01*
X132937900Y-99520800D01*
X132592100Y-99520800D01*
X132575153Y-99519967D01*
X132558369Y-99517478D01*
X132541910Y-99513355D01*
X132525934Y-99507639D01*
X132510596Y-99500384D01*
X132496042Y-99491661D01*
X132482413Y-99481554D01*
X132469841Y-99470159D01*
X132458446Y-99457587D01*
X132448339Y-99443958D01*
X132439616Y-99429404D01*
X132432361Y-99414066D01*
X132426645Y-99398090D01*
X132422522Y-99381631D01*
X132420033Y-99364847D01*
X132419200Y-99347900D01*
X132419200Y-98952100D01*
X132420033Y-98935153D01*
X132422522Y-98918369D01*
X132426645Y-98901910D01*
X132432361Y-98885934D01*
X132439616Y-98870596D01*
X132448339Y-98856042D01*
X132458446Y-98842413D01*
X132469841Y-98829841D01*
X132482413Y-98818446D01*
X132496042Y-98808339D01*
X132510596Y-98799616D01*
X132525934Y-98792361D01*
X132541910Y-98786645D01*
X132558369Y-98782522D01*
X132575153Y-98780033D01*
X132592100Y-98779200D01*
X132937900Y-98779200D01*
X132954847Y-98780033D01*
G37*
G36*
X133924847Y-98780033D02*
G01*
X133941631Y-98782522D01*
X133958090Y-98786645D01*
X133974066Y-98792361D01*
X133989404Y-98799616D01*
X134003958Y-98808339D01*
X134017587Y-98818446D01*
X134030159Y-98829841D01*
X134041554Y-98842413D01*
X134051661Y-98856042D01*
X134060384Y-98870596D01*
X134067639Y-98885934D01*
X134073355Y-98901910D01*
X134077478Y-98918369D01*
X134079967Y-98935153D01*
X134080800Y-98952100D01*
X134080800Y-99347900D01*
X134079967Y-99364847D01*
X134077478Y-99381631D01*
X134073355Y-99398090D01*
X134067639Y-99414066D01*
X134060384Y-99429404D01*
X134051661Y-99443958D01*
X134041554Y-99457587D01*
X134030159Y-99470159D01*
X134017587Y-99481554D01*
X134003958Y-99491661D01*
X133989404Y-99500384D01*
X133974066Y-99507639D01*
X133958090Y-99513355D01*
X133941631Y-99517478D01*
X133924847Y-99519967D01*
X133907900Y-99520800D01*
X133562100Y-99520800D01*
X133545153Y-99519967D01*
X133528369Y-99517478D01*
X133511910Y-99513355D01*
X133495934Y-99507639D01*
X133480596Y-99500384D01*
X133466042Y-99491661D01*
X133452413Y-99481554D01*
X133439841Y-99470159D01*
X133428446Y-99457587D01*
X133418339Y-99443958D01*
X133409616Y-99429404D01*
X133402361Y-99414066D01*
X133396645Y-99398090D01*
X133392522Y-99381631D01*
X133390033Y-99364847D01*
X133389200Y-99347900D01*
X133389200Y-98952100D01*
X133390033Y-98935153D01*
X133392522Y-98918369D01*
X133396645Y-98901910D01*
X133402361Y-98885934D01*
X133409616Y-98870596D01*
X133418339Y-98856042D01*
X133428446Y-98842413D01*
X133439841Y-98829841D01*
X133452413Y-98818446D01*
X133466042Y-98808339D01*
X133480596Y-98799616D01*
X133495934Y-98792361D01*
X133511910Y-98786645D01*
X133528369Y-98782522D01*
X133545153Y-98780033D01*
X133562100Y-98779200D01*
X133907900Y-98779200D01*
X133924847Y-98780033D01*
G37*
D16*
X135175000Y-101400000D03*
X133825000Y-101400000D03*
X135175000Y-100400000D03*
X133825000Y-100400000D03*
D12*
G36*
X132596516Y-106599623D02*
G01*
X132605048Y-106600889D01*
X132613416Y-106602985D01*
X132621538Y-106605891D01*
X132629336Y-106609579D01*
X132636735Y-106614014D01*
X132643663Y-106619152D01*
X132650055Y-106624945D01*
X132655848Y-106631337D01*
X132660986Y-106638265D01*
X132665421Y-106645664D01*
X132669109Y-106653462D01*
X132672015Y-106661584D01*
X132674111Y-106669952D01*
X132675377Y-106678484D01*
X132675800Y-106687100D01*
X132675800Y-107437900D01*
X132675377Y-107446516D01*
X132674111Y-107455048D01*
X132672015Y-107463416D01*
X132669109Y-107471538D01*
X132665421Y-107479336D01*
X132660986Y-107486735D01*
X132655848Y-107493663D01*
X132650055Y-107500055D01*
X132643663Y-107505848D01*
X132636735Y-107510986D01*
X132629336Y-107515421D01*
X132621538Y-107519109D01*
X132613416Y-107522015D01*
X132605048Y-107524111D01*
X132596516Y-107525377D01*
X132587900Y-107525800D01*
X132412100Y-107525800D01*
X132403484Y-107525377D01*
X132394952Y-107524111D01*
X132386584Y-107522015D01*
X132378462Y-107519109D01*
X132370664Y-107515421D01*
X132363265Y-107510986D01*
X132356337Y-107505848D01*
X132349945Y-107500055D01*
X132344152Y-107493663D01*
X132339014Y-107486735D01*
X132334579Y-107479336D01*
X132330891Y-107471538D01*
X132327985Y-107463416D01*
X132325889Y-107455048D01*
X132324623Y-107446516D01*
X132324200Y-107437900D01*
X132324200Y-106687100D01*
X132324623Y-106678484D01*
X132325889Y-106669952D01*
X132327985Y-106661584D01*
X132330891Y-106653462D01*
X132334579Y-106645664D01*
X132339014Y-106638265D01*
X132344152Y-106631337D01*
X132349945Y-106624945D01*
X132356337Y-106619152D01*
X132363265Y-106614014D01*
X132370664Y-106609579D01*
X132378462Y-106605891D01*
X132386584Y-106602985D01*
X132394952Y-106600889D01*
X132403484Y-106599623D01*
X132412100Y-106599200D01*
X132587900Y-106599200D01*
X132596516Y-106599623D01*
G37*
G36*
X133096516Y-106599623D02*
G01*
X133105048Y-106600889D01*
X133113416Y-106602985D01*
X133121538Y-106605891D01*
X133129336Y-106609579D01*
X133136735Y-106614014D01*
X133143663Y-106619152D01*
X133150055Y-106624945D01*
X133155848Y-106631337D01*
X133160986Y-106638265D01*
X133165421Y-106645664D01*
X133169109Y-106653462D01*
X133172015Y-106661584D01*
X133174111Y-106669952D01*
X133175377Y-106678484D01*
X133175800Y-106687100D01*
X133175800Y-107437900D01*
X133175377Y-107446516D01*
X133174111Y-107455048D01*
X133172015Y-107463416D01*
X133169109Y-107471538D01*
X133165421Y-107479336D01*
X133160986Y-107486735D01*
X133155848Y-107493663D01*
X133150055Y-107500055D01*
X133143663Y-107505848D01*
X133136735Y-107510986D01*
X133129336Y-107515421D01*
X133121538Y-107519109D01*
X133113416Y-107522015D01*
X133105048Y-107524111D01*
X133096516Y-107525377D01*
X133087900Y-107525800D01*
X132912100Y-107525800D01*
X132903484Y-107525377D01*
X132894952Y-107524111D01*
X132886584Y-107522015D01*
X132878462Y-107519109D01*
X132870664Y-107515421D01*
X132863265Y-107510986D01*
X132856337Y-107505848D01*
X132849945Y-107500055D01*
X132844152Y-107493663D01*
X132839014Y-107486735D01*
X132834579Y-107479336D01*
X132830891Y-107471538D01*
X132827985Y-107463416D01*
X132825889Y-107455048D01*
X132824623Y-107446516D01*
X132824200Y-107437900D01*
X132824200Y-106687100D01*
X132824623Y-106678484D01*
X132825889Y-106669952D01*
X132827985Y-106661584D01*
X132830891Y-106653462D01*
X132834579Y-106645664D01*
X132839014Y-106638265D01*
X132844152Y-106631337D01*
X132849945Y-106624945D01*
X132856337Y-106619152D01*
X132863265Y-106614014D01*
X132870664Y-106609579D01*
X132878462Y-106605891D01*
X132886584Y-106602985D01*
X132894952Y-106600889D01*
X132903484Y-106599623D01*
X132912100Y-106599200D01*
X133087900Y-106599200D01*
X133096516Y-106599623D01*
G37*
G36*
X133596516Y-106599623D02*
G01*
X133605048Y-106600889D01*
X133613416Y-106602985D01*
X133621538Y-106605891D01*
X133629336Y-106609579D01*
X133636735Y-106614014D01*
X133643663Y-106619152D01*
X133650055Y-106624945D01*
X133655848Y-106631337D01*
X133660986Y-106638265D01*
X133665421Y-106645664D01*
X133669109Y-106653462D01*
X133672015Y-106661584D01*
X133674111Y-106669952D01*
X133675377Y-106678484D01*
X133675800Y-106687100D01*
X133675800Y-107437900D01*
X133675377Y-107446516D01*
X133674111Y-107455048D01*
X133672015Y-107463416D01*
X133669109Y-107471538D01*
X133665421Y-107479336D01*
X133660986Y-107486735D01*
X133655848Y-107493663D01*
X133650055Y-107500055D01*
X133643663Y-107505848D01*
X133636735Y-107510986D01*
X133629336Y-107515421D01*
X133621538Y-107519109D01*
X133613416Y-107522015D01*
X133605048Y-107524111D01*
X133596516Y-107525377D01*
X133587900Y-107525800D01*
X133412100Y-107525800D01*
X133403484Y-107525377D01*
X133394952Y-107524111D01*
X133386584Y-107522015D01*
X133378462Y-107519109D01*
X133370664Y-107515421D01*
X133363265Y-107510986D01*
X133356337Y-107505848D01*
X133349945Y-107500055D01*
X133344152Y-107493663D01*
X133339014Y-107486735D01*
X133334579Y-107479336D01*
X133330891Y-107471538D01*
X133327985Y-107463416D01*
X133325889Y-107455048D01*
X133324623Y-107446516D01*
X133324200Y-107437900D01*
X133324200Y-106687100D01*
X133324623Y-106678484D01*
X133325889Y-106669952D01*
X133327985Y-106661584D01*
X133330891Y-106653462D01*
X133334579Y-106645664D01*
X133339014Y-106638265D01*
X133344152Y-106631337D01*
X133349945Y-106624945D01*
X133356337Y-106619152D01*
X133363265Y-106614014D01*
X133370664Y-106609579D01*
X133378462Y-106605891D01*
X133386584Y-106602985D01*
X133394952Y-106600889D01*
X133403484Y-106599623D01*
X133412100Y-106599200D01*
X133587900Y-106599200D01*
X133596516Y-106599623D01*
G37*
G36*
X134096516Y-106599623D02*
G01*
X134105048Y-106600889D01*
X134113416Y-106602985D01*
X134121538Y-106605891D01*
X134129336Y-106609579D01*
X134136735Y-106614014D01*
X134143663Y-106619152D01*
X134150055Y-106624945D01*
X134155848Y-106631337D01*
X134160986Y-106638265D01*
X134165421Y-106645664D01*
X134169109Y-106653462D01*
X134172015Y-106661584D01*
X134174111Y-106669952D01*
X134175377Y-106678484D01*
X134175800Y-106687100D01*
X134175800Y-107437900D01*
X134175377Y-107446516D01*
X134174111Y-107455048D01*
X134172015Y-107463416D01*
X134169109Y-107471538D01*
X134165421Y-107479336D01*
X134160986Y-107486735D01*
X134155848Y-107493663D01*
X134150055Y-107500055D01*
X134143663Y-107505848D01*
X134136735Y-107510986D01*
X134129336Y-107515421D01*
X134121538Y-107519109D01*
X134113416Y-107522015D01*
X134105048Y-107524111D01*
X134096516Y-107525377D01*
X134087900Y-107525800D01*
X133912100Y-107525800D01*
X133903484Y-107525377D01*
X133894952Y-107524111D01*
X133886584Y-107522015D01*
X133878462Y-107519109D01*
X133870664Y-107515421D01*
X133863265Y-107510986D01*
X133856337Y-107505848D01*
X133849945Y-107500055D01*
X133844152Y-107493663D01*
X133839014Y-107486735D01*
X133834579Y-107479336D01*
X133830891Y-107471538D01*
X133827985Y-107463416D01*
X133825889Y-107455048D01*
X133824623Y-107446516D01*
X133824200Y-107437900D01*
X133824200Y-106687100D01*
X133824623Y-106678484D01*
X133825889Y-106669952D01*
X133827985Y-106661584D01*
X133830891Y-106653462D01*
X133834579Y-106645664D01*
X133839014Y-106638265D01*
X133844152Y-106631337D01*
X133849945Y-106624945D01*
X133856337Y-106619152D01*
X133863265Y-106614014D01*
X133870664Y-106609579D01*
X133878462Y-106605891D01*
X133886584Y-106602985D01*
X133894952Y-106600889D01*
X133903484Y-106599623D01*
X133912100Y-106599200D01*
X134087900Y-106599200D01*
X134096516Y-106599623D01*
G37*
G36*
X134596516Y-106599623D02*
G01*
X134605048Y-106600889D01*
X134613416Y-106602985D01*
X134621538Y-106605891D01*
X134629336Y-106609579D01*
X134636735Y-106614014D01*
X134643663Y-106619152D01*
X134650055Y-106624945D01*
X134655848Y-106631337D01*
X134660986Y-106638265D01*
X134665421Y-106645664D01*
X134669109Y-106653462D01*
X134672015Y-106661584D01*
X134674111Y-106669952D01*
X134675377Y-106678484D01*
X134675800Y-106687100D01*
X134675800Y-107437900D01*
X134675377Y-107446516D01*
X134674111Y-107455048D01*
X134672015Y-107463416D01*
X134669109Y-107471538D01*
X134665421Y-107479336D01*
X134660986Y-107486735D01*
X134655848Y-107493663D01*
X134650055Y-107500055D01*
X134643663Y-107505848D01*
X134636735Y-107510986D01*
X134629336Y-107515421D01*
X134621538Y-107519109D01*
X134613416Y-107522015D01*
X134605048Y-107524111D01*
X134596516Y-107525377D01*
X134587900Y-107525800D01*
X134412100Y-107525800D01*
X134403484Y-107525377D01*
X134394952Y-107524111D01*
X134386584Y-107522015D01*
X134378462Y-107519109D01*
X134370664Y-107515421D01*
X134363265Y-107510986D01*
X134356337Y-107505848D01*
X134349945Y-107500055D01*
X134344152Y-107493663D01*
X134339014Y-107486735D01*
X134334579Y-107479336D01*
X134330891Y-107471538D01*
X134327985Y-107463416D01*
X134325889Y-107455048D01*
X134324623Y-107446516D01*
X134324200Y-107437900D01*
X134324200Y-106687100D01*
X134324623Y-106678484D01*
X134325889Y-106669952D01*
X134327985Y-106661584D01*
X134330891Y-106653462D01*
X134334579Y-106645664D01*
X134339014Y-106638265D01*
X134344152Y-106631337D01*
X134349945Y-106624945D01*
X134356337Y-106619152D01*
X134363265Y-106614014D01*
X134370664Y-106609579D01*
X134378462Y-106605891D01*
X134386584Y-106602985D01*
X134394952Y-106600889D01*
X134403484Y-106599623D01*
X134412100Y-106599200D01*
X134587900Y-106599200D01*
X134596516Y-106599623D01*
G37*
G36*
X135096516Y-106599623D02*
G01*
X135105048Y-106600889D01*
X135113416Y-106602985D01*
X135121538Y-106605891D01*
X135129336Y-106609579D01*
X135136735Y-106614014D01*
X135143663Y-106619152D01*
X135150055Y-106624945D01*
X135155848Y-106631337D01*
X135160986Y-106638265D01*
X135165421Y-106645664D01*
X135169109Y-106653462D01*
X135172015Y-106661584D01*
X135174111Y-106669952D01*
X135175377Y-106678484D01*
X135175800Y-106687100D01*
X135175800Y-107437900D01*
X135175377Y-107446516D01*
X135174111Y-107455048D01*
X135172015Y-107463416D01*
X135169109Y-107471538D01*
X135165421Y-107479336D01*
X135160986Y-107486735D01*
X135155848Y-107493663D01*
X135150055Y-107500055D01*
X135143663Y-107505848D01*
X135136735Y-107510986D01*
X135129336Y-107515421D01*
X135121538Y-107519109D01*
X135113416Y-107522015D01*
X135105048Y-107524111D01*
X135096516Y-107525377D01*
X135087900Y-107525800D01*
X134912100Y-107525800D01*
X134903484Y-107525377D01*
X134894952Y-107524111D01*
X134886584Y-107522015D01*
X134878462Y-107519109D01*
X134870664Y-107515421D01*
X134863265Y-107510986D01*
X134856337Y-107505848D01*
X134849945Y-107500055D01*
X134844152Y-107493663D01*
X134839014Y-107486735D01*
X134834579Y-107479336D01*
X134830891Y-107471538D01*
X134827985Y-107463416D01*
X134825889Y-107455048D01*
X134824623Y-107446516D01*
X134824200Y-107437900D01*
X134824200Y-106687100D01*
X134824623Y-106678484D01*
X134825889Y-106669952D01*
X134827985Y-106661584D01*
X134830891Y-106653462D01*
X134834579Y-106645664D01*
X134839014Y-106638265D01*
X134844152Y-106631337D01*
X134849945Y-106624945D01*
X134856337Y-106619152D01*
X134863265Y-106614014D01*
X134870664Y-106609579D01*
X134878462Y-106605891D01*
X134886584Y-106602985D01*
X134894952Y-106600889D01*
X134903484Y-106599623D01*
X134912100Y-106599200D01*
X135087900Y-106599200D01*
X135096516Y-106599623D01*
G37*
G36*
X135596516Y-106599623D02*
G01*
X135605048Y-106600889D01*
X135613416Y-106602985D01*
X135621538Y-106605891D01*
X135629336Y-106609579D01*
X135636735Y-106614014D01*
X135643663Y-106619152D01*
X135650055Y-106624945D01*
X135655848Y-106631337D01*
X135660986Y-106638265D01*
X135665421Y-106645664D01*
X135669109Y-106653462D01*
X135672015Y-106661584D01*
X135674111Y-106669952D01*
X135675377Y-106678484D01*
X135675800Y-106687100D01*
X135675800Y-107437900D01*
X135675377Y-107446516D01*
X135674111Y-107455048D01*
X135672015Y-107463416D01*
X135669109Y-107471538D01*
X135665421Y-107479336D01*
X135660986Y-107486735D01*
X135655848Y-107493663D01*
X135650055Y-107500055D01*
X135643663Y-107505848D01*
X135636735Y-107510986D01*
X135629336Y-107515421D01*
X135621538Y-107519109D01*
X135613416Y-107522015D01*
X135605048Y-107524111D01*
X135596516Y-107525377D01*
X135587900Y-107525800D01*
X135412100Y-107525800D01*
X135403484Y-107525377D01*
X135394952Y-107524111D01*
X135386584Y-107522015D01*
X135378462Y-107519109D01*
X135370664Y-107515421D01*
X135363265Y-107510986D01*
X135356337Y-107505848D01*
X135349945Y-107500055D01*
X135344152Y-107493663D01*
X135339014Y-107486735D01*
X135334579Y-107479336D01*
X135330891Y-107471538D01*
X135327985Y-107463416D01*
X135325889Y-107455048D01*
X135324623Y-107446516D01*
X135324200Y-107437900D01*
X135324200Y-106687100D01*
X135324623Y-106678484D01*
X135325889Y-106669952D01*
X135327985Y-106661584D01*
X135330891Y-106653462D01*
X135334579Y-106645664D01*
X135339014Y-106638265D01*
X135344152Y-106631337D01*
X135349945Y-106624945D01*
X135356337Y-106619152D01*
X135363265Y-106614014D01*
X135370664Y-106609579D01*
X135378462Y-106605891D01*
X135386584Y-106602985D01*
X135394952Y-106600889D01*
X135403484Y-106599623D01*
X135412100Y-106599200D01*
X135587900Y-106599200D01*
X135596516Y-106599623D01*
G37*
G36*
X136096516Y-106599623D02*
G01*
X136105048Y-106600889D01*
X136113416Y-106602985D01*
X136121538Y-106605891D01*
X136129336Y-106609579D01*
X136136735Y-106614014D01*
X136143663Y-106619152D01*
X136150055Y-106624945D01*
X136155848Y-106631337D01*
X136160986Y-106638265D01*
X136165421Y-106645664D01*
X136169109Y-106653462D01*
X136172015Y-106661584D01*
X136174111Y-106669952D01*
X136175377Y-106678484D01*
X136175800Y-106687100D01*
X136175800Y-107437900D01*
X136175377Y-107446516D01*
X136174111Y-107455048D01*
X136172015Y-107463416D01*
X136169109Y-107471538D01*
X136165421Y-107479336D01*
X136160986Y-107486735D01*
X136155848Y-107493663D01*
X136150055Y-107500055D01*
X136143663Y-107505848D01*
X136136735Y-107510986D01*
X136129336Y-107515421D01*
X136121538Y-107519109D01*
X136113416Y-107522015D01*
X136105048Y-107524111D01*
X136096516Y-107525377D01*
X136087900Y-107525800D01*
X135912100Y-107525800D01*
X135903484Y-107525377D01*
X135894952Y-107524111D01*
X135886584Y-107522015D01*
X135878462Y-107519109D01*
X135870664Y-107515421D01*
X135863265Y-107510986D01*
X135856337Y-107505848D01*
X135849945Y-107500055D01*
X135844152Y-107493663D01*
X135839014Y-107486735D01*
X135834579Y-107479336D01*
X135830891Y-107471538D01*
X135827985Y-107463416D01*
X135825889Y-107455048D01*
X135824623Y-107446516D01*
X135824200Y-107437900D01*
X135824200Y-106687100D01*
X135824623Y-106678484D01*
X135825889Y-106669952D01*
X135827985Y-106661584D01*
X135830891Y-106653462D01*
X135834579Y-106645664D01*
X135839014Y-106638265D01*
X135844152Y-106631337D01*
X135849945Y-106624945D01*
X135856337Y-106619152D01*
X135863265Y-106614014D01*
X135870664Y-106609579D01*
X135878462Y-106605891D01*
X135886584Y-106602985D01*
X135894952Y-106600889D01*
X135903484Y-106599623D01*
X135912100Y-106599200D01*
X136087900Y-106599200D01*
X136096516Y-106599623D01*
G37*
G36*
X136596516Y-106599623D02*
G01*
X136605048Y-106600889D01*
X136613416Y-106602985D01*
X136621538Y-106605891D01*
X136629336Y-106609579D01*
X136636735Y-106614014D01*
X136643663Y-106619152D01*
X136650055Y-106624945D01*
X136655848Y-106631337D01*
X136660986Y-106638265D01*
X136665421Y-106645664D01*
X136669109Y-106653462D01*
X136672015Y-106661584D01*
X136674111Y-106669952D01*
X136675377Y-106678484D01*
X136675800Y-106687100D01*
X136675800Y-107437900D01*
X136675377Y-107446516D01*
X136674111Y-107455048D01*
X136672015Y-107463416D01*
X136669109Y-107471538D01*
X136665421Y-107479336D01*
X136660986Y-107486735D01*
X136655848Y-107493663D01*
X136650055Y-107500055D01*
X136643663Y-107505848D01*
X136636735Y-107510986D01*
X136629336Y-107515421D01*
X136621538Y-107519109D01*
X136613416Y-107522015D01*
X136605048Y-107524111D01*
X136596516Y-107525377D01*
X136587900Y-107525800D01*
X136412100Y-107525800D01*
X136403484Y-107525377D01*
X136394952Y-107524111D01*
X136386584Y-107522015D01*
X136378462Y-107519109D01*
X136370664Y-107515421D01*
X136363265Y-107510986D01*
X136356337Y-107505848D01*
X136349945Y-107500055D01*
X136344152Y-107493663D01*
X136339014Y-107486735D01*
X136334579Y-107479336D01*
X136330891Y-107471538D01*
X136327985Y-107463416D01*
X136325889Y-107455048D01*
X136324623Y-107446516D01*
X136324200Y-107437900D01*
X136324200Y-106687100D01*
X136324623Y-106678484D01*
X136325889Y-106669952D01*
X136327985Y-106661584D01*
X136330891Y-106653462D01*
X136334579Y-106645664D01*
X136339014Y-106638265D01*
X136344152Y-106631337D01*
X136349945Y-106624945D01*
X136356337Y-106619152D01*
X136363265Y-106614014D01*
X136370664Y-106609579D01*
X136378462Y-106605891D01*
X136386584Y-106602985D01*
X136394952Y-106600889D01*
X136403484Y-106599623D01*
X136412100Y-106599200D01*
X136587900Y-106599200D01*
X136596516Y-106599623D01*
G37*
G36*
X137821516Y-107824623D02*
G01*
X137830048Y-107825889D01*
X137838416Y-107827985D01*
X137846538Y-107830891D01*
X137854336Y-107834579D01*
X137861735Y-107839014D01*
X137868663Y-107844152D01*
X137875055Y-107849945D01*
X137880848Y-107856337D01*
X137885986Y-107863265D01*
X137890421Y-107870664D01*
X137894109Y-107878462D01*
X137897015Y-107886584D01*
X137899111Y-107894952D01*
X137900377Y-107903484D01*
X137900800Y-107912100D01*
X137900800Y-108087900D01*
X137900377Y-108096516D01*
X137899111Y-108105048D01*
X137897015Y-108113416D01*
X137894109Y-108121538D01*
X137890421Y-108129336D01*
X137885986Y-108136735D01*
X137880848Y-108143663D01*
X137875055Y-108150055D01*
X137868663Y-108155848D01*
X137861735Y-108160986D01*
X137854336Y-108165421D01*
X137846538Y-108169109D01*
X137838416Y-108172015D01*
X137830048Y-108174111D01*
X137821516Y-108175377D01*
X137812900Y-108175800D01*
X137062100Y-108175800D01*
X137053484Y-108175377D01*
X137044952Y-108174111D01*
X137036584Y-108172015D01*
X137028462Y-108169109D01*
X137020664Y-108165421D01*
X137013265Y-108160986D01*
X137006337Y-108155848D01*
X136999945Y-108150055D01*
X136994152Y-108143663D01*
X136989014Y-108136735D01*
X136984579Y-108129336D01*
X136980891Y-108121538D01*
X136977985Y-108113416D01*
X136975889Y-108105048D01*
X136974623Y-108096516D01*
X136974200Y-108087900D01*
X136974200Y-107912100D01*
X136974623Y-107903484D01*
X136975889Y-107894952D01*
X136977985Y-107886584D01*
X136980891Y-107878462D01*
X136984579Y-107870664D01*
X136989014Y-107863265D01*
X136994152Y-107856337D01*
X136999945Y-107849945D01*
X137006337Y-107844152D01*
X137013265Y-107839014D01*
X137020664Y-107834579D01*
X137028462Y-107830891D01*
X137036584Y-107827985D01*
X137044952Y-107825889D01*
X137053484Y-107824623D01*
X137062100Y-107824200D01*
X137812900Y-107824200D01*
X137821516Y-107824623D01*
G37*
G36*
X137821516Y-108324623D02*
G01*
X137830048Y-108325889D01*
X137838416Y-108327985D01*
X137846538Y-108330891D01*
X137854336Y-108334579D01*
X137861735Y-108339014D01*
X137868663Y-108344152D01*
X137875055Y-108349945D01*
X137880848Y-108356337D01*
X137885986Y-108363265D01*
X137890421Y-108370664D01*
X137894109Y-108378462D01*
X137897015Y-108386584D01*
X137899111Y-108394952D01*
X137900377Y-108403484D01*
X137900800Y-108412100D01*
X137900800Y-108587900D01*
X137900377Y-108596516D01*
X137899111Y-108605048D01*
X137897015Y-108613416D01*
X137894109Y-108621538D01*
X137890421Y-108629336D01*
X137885986Y-108636735D01*
X137880848Y-108643663D01*
X137875055Y-108650055D01*
X137868663Y-108655848D01*
X137861735Y-108660986D01*
X137854336Y-108665421D01*
X137846538Y-108669109D01*
X137838416Y-108672015D01*
X137830048Y-108674111D01*
X137821516Y-108675377D01*
X137812900Y-108675800D01*
X137062100Y-108675800D01*
X137053484Y-108675377D01*
X137044952Y-108674111D01*
X137036584Y-108672015D01*
X137028462Y-108669109D01*
X137020664Y-108665421D01*
X137013265Y-108660986D01*
X137006337Y-108655848D01*
X136999945Y-108650055D01*
X136994152Y-108643663D01*
X136989014Y-108636735D01*
X136984579Y-108629336D01*
X136980891Y-108621538D01*
X136977985Y-108613416D01*
X136975889Y-108605048D01*
X136974623Y-108596516D01*
X136974200Y-108587900D01*
X136974200Y-108412100D01*
X136974623Y-108403484D01*
X136975889Y-108394952D01*
X136977985Y-108386584D01*
X136980891Y-108378462D01*
X136984579Y-108370664D01*
X136989014Y-108363265D01*
X136994152Y-108356337D01*
X136999945Y-108349945D01*
X137006337Y-108344152D01*
X137013265Y-108339014D01*
X137020664Y-108334579D01*
X137028462Y-108330891D01*
X137036584Y-108327985D01*
X137044952Y-108325889D01*
X137053484Y-108324623D01*
X137062100Y-108324200D01*
X137812900Y-108324200D01*
X137821516Y-108324623D01*
G37*
G36*
X137821516Y-108824623D02*
G01*
X137830048Y-108825889D01*
X137838416Y-108827985D01*
X137846538Y-108830891D01*
X137854336Y-108834579D01*
X137861735Y-108839014D01*
X137868663Y-108844152D01*
X137875055Y-108849945D01*
X137880848Y-108856337D01*
X137885986Y-108863265D01*
X137890421Y-108870664D01*
X137894109Y-108878462D01*
X137897015Y-108886584D01*
X137899111Y-108894952D01*
X137900377Y-108903484D01*
X137900800Y-108912100D01*
X137900800Y-109087900D01*
X137900377Y-109096516D01*
X137899111Y-109105048D01*
X137897015Y-109113416D01*
X137894109Y-109121538D01*
X137890421Y-109129336D01*
X137885986Y-109136735D01*
X137880848Y-109143663D01*
X137875055Y-109150055D01*
X137868663Y-109155848D01*
X137861735Y-109160986D01*
X137854336Y-109165421D01*
X137846538Y-109169109D01*
X137838416Y-109172015D01*
X137830048Y-109174111D01*
X137821516Y-109175377D01*
X137812900Y-109175800D01*
X137062100Y-109175800D01*
X137053484Y-109175377D01*
X137044952Y-109174111D01*
X137036584Y-109172015D01*
X137028462Y-109169109D01*
X137020664Y-109165421D01*
X137013265Y-109160986D01*
X137006337Y-109155848D01*
X136999945Y-109150055D01*
X136994152Y-109143663D01*
X136989014Y-109136735D01*
X136984579Y-109129336D01*
X136980891Y-109121538D01*
X136977985Y-109113416D01*
X136975889Y-109105048D01*
X136974623Y-109096516D01*
X136974200Y-109087900D01*
X136974200Y-108912100D01*
X136974623Y-108903484D01*
X136975889Y-108894952D01*
X136977985Y-108886584D01*
X136980891Y-108878462D01*
X136984579Y-108870664D01*
X136989014Y-108863265D01*
X136994152Y-108856337D01*
X136999945Y-108849945D01*
X137006337Y-108844152D01*
X137013265Y-108839014D01*
X137020664Y-108834579D01*
X137028462Y-108830891D01*
X137036584Y-108827985D01*
X137044952Y-108825889D01*
X137053484Y-108824623D01*
X137062100Y-108824200D01*
X137812900Y-108824200D01*
X137821516Y-108824623D01*
G37*
G36*
X137821516Y-109324623D02*
G01*
X137830048Y-109325889D01*
X137838416Y-109327985D01*
X137846538Y-109330891D01*
X137854336Y-109334579D01*
X137861735Y-109339014D01*
X137868663Y-109344152D01*
X137875055Y-109349945D01*
X137880848Y-109356337D01*
X137885986Y-109363265D01*
X137890421Y-109370664D01*
X137894109Y-109378462D01*
X137897015Y-109386584D01*
X137899111Y-109394952D01*
X137900377Y-109403484D01*
X137900800Y-109412100D01*
X137900800Y-109587900D01*
X137900377Y-109596516D01*
X137899111Y-109605048D01*
X137897015Y-109613416D01*
X137894109Y-109621538D01*
X137890421Y-109629336D01*
X137885986Y-109636735D01*
X137880848Y-109643663D01*
X137875055Y-109650055D01*
X137868663Y-109655848D01*
X137861735Y-109660986D01*
X137854336Y-109665421D01*
X137846538Y-109669109D01*
X137838416Y-109672015D01*
X137830048Y-109674111D01*
X137821516Y-109675377D01*
X137812900Y-109675800D01*
X137062100Y-109675800D01*
X137053484Y-109675377D01*
X137044952Y-109674111D01*
X137036584Y-109672015D01*
X137028462Y-109669109D01*
X137020664Y-109665421D01*
X137013265Y-109660986D01*
X137006337Y-109655848D01*
X136999945Y-109650055D01*
X136994152Y-109643663D01*
X136989014Y-109636735D01*
X136984579Y-109629336D01*
X136980891Y-109621538D01*
X136977985Y-109613416D01*
X136975889Y-109605048D01*
X136974623Y-109596516D01*
X136974200Y-109587900D01*
X136974200Y-109412100D01*
X136974623Y-109403484D01*
X136975889Y-109394952D01*
X136977985Y-109386584D01*
X136980891Y-109378462D01*
X136984579Y-109370664D01*
X136989014Y-109363265D01*
X136994152Y-109356337D01*
X136999945Y-109349945D01*
X137006337Y-109344152D01*
X137013265Y-109339014D01*
X137020664Y-109334579D01*
X137028462Y-109330891D01*
X137036584Y-109327985D01*
X137044952Y-109325889D01*
X137053484Y-109324623D01*
X137062100Y-109324200D01*
X137812900Y-109324200D01*
X137821516Y-109324623D01*
G37*
G36*
X137821516Y-109824623D02*
G01*
X137830048Y-109825889D01*
X137838416Y-109827985D01*
X137846538Y-109830891D01*
X137854336Y-109834579D01*
X137861735Y-109839014D01*
X137868663Y-109844152D01*
X137875055Y-109849945D01*
X137880848Y-109856337D01*
X137885986Y-109863265D01*
X137890421Y-109870664D01*
X137894109Y-109878462D01*
X137897015Y-109886584D01*
X137899111Y-109894952D01*
X137900377Y-109903484D01*
X137900800Y-109912100D01*
X137900800Y-110087900D01*
X137900377Y-110096516D01*
X137899111Y-110105048D01*
X137897015Y-110113416D01*
X137894109Y-110121538D01*
X137890421Y-110129336D01*
X137885986Y-110136735D01*
X137880848Y-110143663D01*
X137875055Y-110150055D01*
X137868663Y-110155848D01*
X137861735Y-110160986D01*
X137854336Y-110165421D01*
X137846538Y-110169109D01*
X137838416Y-110172015D01*
X137830048Y-110174111D01*
X137821516Y-110175377D01*
X137812900Y-110175800D01*
X137062100Y-110175800D01*
X137053484Y-110175377D01*
X137044952Y-110174111D01*
X137036584Y-110172015D01*
X137028462Y-110169109D01*
X137020664Y-110165421D01*
X137013265Y-110160986D01*
X137006337Y-110155848D01*
X136999945Y-110150055D01*
X136994152Y-110143663D01*
X136989014Y-110136735D01*
X136984579Y-110129336D01*
X136980891Y-110121538D01*
X136977985Y-110113416D01*
X136975889Y-110105048D01*
X136974623Y-110096516D01*
X136974200Y-110087900D01*
X136974200Y-109912100D01*
X136974623Y-109903484D01*
X136975889Y-109894952D01*
X136977985Y-109886584D01*
X136980891Y-109878462D01*
X136984579Y-109870664D01*
X136989014Y-109863265D01*
X136994152Y-109856337D01*
X136999945Y-109849945D01*
X137006337Y-109844152D01*
X137013265Y-109839014D01*
X137020664Y-109834579D01*
X137028462Y-109830891D01*
X137036584Y-109827985D01*
X137044952Y-109825889D01*
X137053484Y-109824623D01*
X137062100Y-109824200D01*
X137812900Y-109824200D01*
X137821516Y-109824623D01*
G37*
G36*
X137821516Y-110324623D02*
G01*
X137830048Y-110325889D01*
X137838416Y-110327985D01*
X137846538Y-110330891D01*
X137854336Y-110334579D01*
X137861735Y-110339014D01*
X137868663Y-110344152D01*
X137875055Y-110349945D01*
X137880848Y-110356337D01*
X137885986Y-110363265D01*
X137890421Y-110370664D01*
X137894109Y-110378462D01*
X137897015Y-110386584D01*
X137899111Y-110394952D01*
X137900377Y-110403484D01*
X137900800Y-110412100D01*
X137900800Y-110587900D01*
X137900377Y-110596516D01*
X137899111Y-110605048D01*
X137897015Y-110613416D01*
X137894109Y-110621538D01*
X137890421Y-110629336D01*
X137885986Y-110636735D01*
X137880848Y-110643663D01*
X137875055Y-110650055D01*
X137868663Y-110655848D01*
X137861735Y-110660986D01*
X137854336Y-110665421D01*
X137846538Y-110669109D01*
X137838416Y-110672015D01*
X137830048Y-110674111D01*
X137821516Y-110675377D01*
X137812900Y-110675800D01*
X137062100Y-110675800D01*
X137053484Y-110675377D01*
X137044952Y-110674111D01*
X137036584Y-110672015D01*
X137028462Y-110669109D01*
X137020664Y-110665421D01*
X137013265Y-110660986D01*
X137006337Y-110655848D01*
X136999945Y-110650055D01*
X136994152Y-110643663D01*
X136989014Y-110636735D01*
X136984579Y-110629336D01*
X136980891Y-110621538D01*
X136977985Y-110613416D01*
X136975889Y-110605048D01*
X136974623Y-110596516D01*
X136974200Y-110587900D01*
X136974200Y-110412100D01*
X136974623Y-110403484D01*
X136975889Y-110394952D01*
X136977985Y-110386584D01*
X136980891Y-110378462D01*
X136984579Y-110370664D01*
X136989014Y-110363265D01*
X136994152Y-110356337D01*
X136999945Y-110349945D01*
X137006337Y-110344152D01*
X137013265Y-110339014D01*
X137020664Y-110334579D01*
X137028462Y-110330891D01*
X137036584Y-110327985D01*
X137044952Y-110325889D01*
X137053484Y-110324623D01*
X137062100Y-110324200D01*
X137812900Y-110324200D01*
X137821516Y-110324623D01*
G37*
G36*
X137821516Y-110824623D02*
G01*
X137830048Y-110825889D01*
X137838416Y-110827985D01*
X137846538Y-110830891D01*
X137854336Y-110834579D01*
X137861735Y-110839014D01*
X137868663Y-110844152D01*
X137875055Y-110849945D01*
X137880848Y-110856337D01*
X137885986Y-110863265D01*
X137890421Y-110870664D01*
X137894109Y-110878462D01*
X137897015Y-110886584D01*
X137899111Y-110894952D01*
X137900377Y-110903484D01*
X137900800Y-110912100D01*
X137900800Y-111087900D01*
X137900377Y-111096516D01*
X137899111Y-111105048D01*
X137897015Y-111113416D01*
X137894109Y-111121538D01*
X137890421Y-111129336D01*
X137885986Y-111136735D01*
X137880848Y-111143663D01*
X137875055Y-111150055D01*
X137868663Y-111155848D01*
X137861735Y-111160986D01*
X137854336Y-111165421D01*
X137846538Y-111169109D01*
X137838416Y-111172015D01*
X137830048Y-111174111D01*
X137821516Y-111175377D01*
X137812900Y-111175800D01*
X137062100Y-111175800D01*
X137053484Y-111175377D01*
X137044952Y-111174111D01*
X137036584Y-111172015D01*
X137028462Y-111169109D01*
X137020664Y-111165421D01*
X137013265Y-111160986D01*
X137006337Y-111155848D01*
X136999945Y-111150055D01*
X136994152Y-111143663D01*
X136989014Y-111136735D01*
X136984579Y-111129336D01*
X136980891Y-111121538D01*
X136977985Y-111113416D01*
X136975889Y-111105048D01*
X136974623Y-111096516D01*
X136974200Y-111087900D01*
X136974200Y-110912100D01*
X136974623Y-110903484D01*
X136975889Y-110894952D01*
X136977985Y-110886584D01*
X136980891Y-110878462D01*
X136984579Y-110870664D01*
X136989014Y-110863265D01*
X136994152Y-110856337D01*
X136999945Y-110849945D01*
X137006337Y-110844152D01*
X137013265Y-110839014D01*
X137020664Y-110834579D01*
X137028462Y-110830891D01*
X137036584Y-110827985D01*
X137044952Y-110825889D01*
X137053484Y-110824623D01*
X137062100Y-110824200D01*
X137812900Y-110824200D01*
X137821516Y-110824623D01*
G37*
G36*
X137821516Y-111324623D02*
G01*
X137830048Y-111325889D01*
X137838416Y-111327985D01*
X137846538Y-111330891D01*
X137854336Y-111334579D01*
X137861735Y-111339014D01*
X137868663Y-111344152D01*
X137875055Y-111349945D01*
X137880848Y-111356337D01*
X137885986Y-111363265D01*
X137890421Y-111370664D01*
X137894109Y-111378462D01*
X137897015Y-111386584D01*
X137899111Y-111394952D01*
X137900377Y-111403484D01*
X137900800Y-111412100D01*
X137900800Y-111587900D01*
X137900377Y-111596516D01*
X137899111Y-111605048D01*
X137897015Y-111613416D01*
X137894109Y-111621538D01*
X137890421Y-111629336D01*
X137885986Y-111636735D01*
X137880848Y-111643663D01*
X137875055Y-111650055D01*
X137868663Y-111655848D01*
X137861735Y-111660986D01*
X137854336Y-111665421D01*
X137846538Y-111669109D01*
X137838416Y-111672015D01*
X137830048Y-111674111D01*
X137821516Y-111675377D01*
X137812900Y-111675800D01*
X137062100Y-111675800D01*
X137053484Y-111675377D01*
X137044952Y-111674111D01*
X137036584Y-111672015D01*
X137028462Y-111669109D01*
X137020664Y-111665421D01*
X137013265Y-111660986D01*
X137006337Y-111655848D01*
X136999945Y-111650055D01*
X136994152Y-111643663D01*
X136989014Y-111636735D01*
X136984579Y-111629336D01*
X136980891Y-111621538D01*
X136977985Y-111613416D01*
X136975889Y-111605048D01*
X136974623Y-111596516D01*
X136974200Y-111587900D01*
X136974200Y-111412100D01*
X136974623Y-111403484D01*
X136975889Y-111394952D01*
X136977985Y-111386584D01*
X136980891Y-111378462D01*
X136984579Y-111370664D01*
X136989014Y-111363265D01*
X136994152Y-111356337D01*
X136999945Y-111349945D01*
X137006337Y-111344152D01*
X137013265Y-111339014D01*
X137020664Y-111334579D01*
X137028462Y-111330891D01*
X137036584Y-111327985D01*
X137044952Y-111325889D01*
X137053484Y-111324623D01*
X137062100Y-111324200D01*
X137812900Y-111324200D01*
X137821516Y-111324623D01*
G37*
G36*
X137821516Y-111824623D02*
G01*
X137830048Y-111825889D01*
X137838416Y-111827985D01*
X137846538Y-111830891D01*
X137854336Y-111834579D01*
X137861735Y-111839014D01*
X137868663Y-111844152D01*
X137875055Y-111849945D01*
X137880848Y-111856337D01*
X137885986Y-111863265D01*
X137890421Y-111870664D01*
X137894109Y-111878462D01*
X137897015Y-111886584D01*
X137899111Y-111894952D01*
X137900377Y-111903484D01*
X137900800Y-111912100D01*
X137900800Y-112087900D01*
X137900377Y-112096516D01*
X137899111Y-112105048D01*
X137897015Y-112113416D01*
X137894109Y-112121538D01*
X137890421Y-112129336D01*
X137885986Y-112136735D01*
X137880848Y-112143663D01*
X137875055Y-112150055D01*
X137868663Y-112155848D01*
X137861735Y-112160986D01*
X137854336Y-112165421D01*
X137846538Y-112169109D01*
X137838416Y-112172015D01*
X137830048Y-112174111D01*
X137821516Y-112175377D01*
X137812900Y-112175800D01*
X137062100Y-112175800D01*
X137053484Y-112175377D01*
X137044952Y-112174111D01*
X137036584Y-112172015D01*
X137028462Y-112169109D01*
X137020664Y-112165421D01*
X137013265Y-112160986D01*
X137006337Y-112155848D01*
X136999945Y-112150055D01*
X136994152Y-112143663D01*
X136989014Y-112136735D01*
X136984579Y-112129336D01*
X136980891Y-112121538D01*
X136977985Y-112113416D01*
X136975889Y-112105048D01*
X136974623Y-112096516D01*
X136974200Y-112087900D01*
X136974200Y-111912100D01*
X136974623Y-111903484D01*
X136975889Y-111894952D01*
X136977985Y-111886584D01*
X136980891Y-111878462D01*
X136984579Y-111870664D01*
X136989014Y-111863265D01*
X136994152Y-111856337D01*
X136999945Y-111849945D01*
X137006337Y-111844152D01*
X137013265Y-111839014D01*
X137020664Y-111834579D01*
X137028462Y-111830891D01*
X137036584Y-111827985D01*
X137044952Y-111825889D01*
X137053484Y-111824623D01*
X137062100Y-111824200D01*
X137812900Y-111824200D01*
X137821516Y-111824623D01*
G37*
G36*
X136596516Y-112474623D02*
G01*
X136605048Y-112475889D01*
X136613416Y-112477985D01*
X136621538Y-112480891D01*
X136629336Y-112484579D01*
X136636735Y-112489014D01*
X136643663Y-112494152D01*
X136650055Y-112499945D01*
X136655848Y-112506337D01*
X136660986Y-112513265D01*
X136665421Y-112520664D01*
X136669109Y-112528462D01*
X136672015Y-112536584D01*
X136674111Y-112544952D01*
X136675377Y-112553484D01*
X136675800Y-112562100D01*
X136675800Y-113312900D01*
X136675377Y-113321516D01*
X136674111Y-113330048D01*
X136672015Y-113338416D01*
X136669109Y-113346538D01*
X136665421Y-113354336D01*
X136660986Y-113361735D01*
X136655848Y-113368663D01*
X136650055Y-113375055D01*
X136643663Y-113380848D01*
X136636735Y-113385986D01*
X136629336Y-113390421D01*
X136621538Y-113394109D01*
X136613416Y-113397015D01*
X136605048Y-113399111D01*
X136596516Y-113400377D01*
X136587900Y-113400800D01*
X136412100Y-113400800D01*
X136403484Y-113400377D01*
X136394952Y-113399111D01*
X136386584Y-113397015D01*
X136378462Y-113394109D01*
X136370664Y-113390421D01*
X136363265Y-113385986D01*
X136356337Y-113380848D01*
X136349945Y-113375055D01*
X136344152Y-113368663D01*
X136339014Y-113361735D01*
X136334579Y-113354336D01*
X136330891Y-113346538D01*
X136327985Y-113338416D01*
X136325889Y-113330048D01*
X136324623Y-113321516D01*
X136324200Y-113312900D01*
X136324200Y-112562100D01*
X136324623Y-112553484D01*
X136325889Y-112544952D01*
X136327985Y-112536584D01*
X136330891Y-112528462D01*
X136334579Y-112520664D01*
X136339014Y-112513265D01*
X136344152Y-112506337D01*
X136349945Y-112499945D01*
X136356337Y-112494152D01*
X136363265Y-112489014D01*
X136370664Y-112484579D01*
X136378462Y-112480891D01*
X136386584Y-112477985D01*
X136394952Y-112475889D01*
X136403484Y-112474623D01*
X136412100Y-112474200D01*
X136587900Y-112474200D01*
X136596516Y-112474623D01*
G37*
G36*
X136096516Y-112474623D02*
G01*
X136105048Y-112475889D01*
X136113416Y-112477985D01*
X136121538Y-112480891D01*
X136129336Y-112484579D01*
X136136735Y-112489014D01*
X136143663Y-112494152D01*
X136150055Y-112499945D01*
X136155848Y-112506337D01*
X136160986Y-112513265D01*
X136165421Y-112520664D01*
X136169109Y-112528462D01*
X136172015Y-112536584D01*
X136174111Y-112544952D01*
X136175377Y-112553484D01*
X136175800Y-112562100D01*
X136175800Y-113312900D01*
X136175377Y-113321516D01*
X136174111Y-113330048D01*
X136172015Y-113338416D01*
X136169109Y-113346538D01*
X136165421Y-113354336D01*
X136160986Y-113361735D01*
X136155848Y-113368663D01*
X136150055Y-113375055D01*
X136143663Y-113380848D01*
X136136735Y-113385986D01*
X136129336Y-113390421D01*
X136121538Y-113394109D01*
X136113416Y-113397015D01*
X136105048Y-113399111D01*
X136096516Y-113400377D01*
X136087900Y-113400800D01*
X135912100Y-113400800D01*
X135903484Y-113400377D01*
X135894952Y-113399111D01*
X135886584Y-113397015D01*
X135878462Y-113394109D01*
X135870664Y-113390421D01*
X135863265Y-113385986D01*
X135856337Y-113380848D01*
X135849945Y-113375055D01*
X135844152Y-113368663D01*
X135839014Y-113361735D01*
X135834579Y-113354336D01*
X135830891Y-113346538D01*
X135827985Y-113338416D01*
X135825889Y-113330048D01*
X135824623Y-113321516D01*
X135824200Y-113312900D01*
X135824200Y-112562100D01*
X135824623Y-112553484D01*
X135825889Y-112544952D01*
X135827985Y-112536584D01*
X135830891Y-112528462D01*
X135834579Y-112520664D01*
X135839014Y-112513265D01*
X135844152Y-112506337D01*
X135849945Y-112499945D01*
X135856337Y-112494152D01*
X135863265Y-112489014D01*
X135870664Y-112484579D01*
X135878462Y-112480891D01*
X135886584Y-112477985D01*
X135894952Y-112475889D01*
X135903484Y-112474623D01*
X135912100Y-112474200D01*
X136087900Y-112474200D01*
X136096516Y-112474623D01*
G37*
G36*
X135596516Y-112474623D02*
G01*
X135605048Y-112475889D01*
X135613416Y-112477985D01*
X135621538Y-112480891D01*
X135629336Y-112484579D01*
X135636735Y-112489014D01*
X135643663Y-112494152D01*
X135650055Y-112499945D01*
X135655848Y-112506337D01*
X135660986Y-112513265D01*
X135665421Y-112520664D01*
X135669109Y-112528462D01*
X135672015Y-112536584D01*
X135674111Y-112544952D01*
X135675377Y-112553484D01*
X135675800Y-112562100D01*
X135675800Y-113312900D01*
X135675377Y-113321516D01*
X135674111Y-113330048D01*
X135672015Y-113338416D01*
X135669109Y-113346538D01*
X135665421Y-113354336D01*
X135660986Y-113361735D01*
X135655848Y-113368663D01*
X135650055Y-113375055D01*
X135643663Y-113380848D01*
X135636735Y-113385986D01*
X135629336Y-113390421D01*
X135621538Y-113394109D01*
X135613416Y-113397015D01*
X135605048Y-113399111D01*
X135596516Y-113400377D01*
X135587900Y-113400800D01*
X135412100Y-113400800D01*
X135403484Y-113400377D01*
X135394952Y-113399111D01*
X135386584Y-113397015D01*
X135378462Y-113394109D01*
X135370664Y-113390421D01*
X135363265Y-113385986D01*
X135356337Y-113380848D01*
X135349945Y-113375055D01*
X135344152Y-113368663D01*
X135339014Y-113361735D01*
X135334579Y-113354336D01*
X135330891Y-113346538D01*
X135327985Y-113338416D01*
X135325889Y-113330048D01*
X135324623Y-113321516D01*
X135324200Y-113312900D01*
X135324200Y-112562100D01*
X135324623Y-112553484D01*
X135325889Y-112544952D01*
X135327985Y-112536584D01*
X135330891Y-112528462D01*
X135334579Y-112520664D01*
X135339014Y-112513265D01*
X135344152Y-112506337D01*
X135349945Y-112499945D01*
X135356337Y-112494152D01*
X135363265Y-112489014D01*
X135370664Y-112484579D01*
X135378462Y-112480891D01*
X135386584Y-112477985D01*
X135394952Y-112475889D01*
X135403484Y-112474623D01*
X135412100Y-112474200D01*
X135587900Y-112474200D01*
X135596516Y-112474623D01*
G37*
G36*
X135096516Y-112474623D02*
G01*
X135105048Y-112475889D01*
X135113416Y-112477985D01*
X135121538Y-112480891D01*
X135129336Y-112484579D01*
X135136735Y-112489014D01*
X135143663Y-112494152D01*
X135150055Y-112499945D01*
X135155848Y-112506337D01*
X135160986Y-112513265D01*
X135165421Y-112520664D01*
X135169109Y-112528462D01*
X135172015Y-112536584D01*
X135174111Y-112544952D01*
X135175377Y-112553484D01*
X135175800Y-112562100D01*
X135175800Y-113312900D01*
X135175377Y-113321516D01*
X135174111Y-113330048D01*
X135172015Y-113338416D01*
X135169109Y-113346538D01*
X135165421Y-113354336D01*
X135160986Y-113361735D01*
X135155848Y-113368663D01*
X135150055Y-113375055D01*
X135143663Y-113380848D01*
X135136735Y-113385986D01*
X135129336Y-113390421D01*
X135121538Y-113394109D01*
X135113416Y-113397015D01*
X135105048Y-113399111D01*
X135096516Y-113400377D01*
X135087900Y-113400800D01*
X134912100Y-113400800D01*
X134903484Y-113400377D01*
X134894952Y-113399111D01*
X134886584Y-113397015D01*
X134878462Y-113394109D01*
X134870664Y-113390421D01*
X134863265Y-113385986D01*
X134856337Y-113380848D01*
X134849945Y-113375055D01*
X134844152Y-113368663D01*
X134839014Y-113361735D01*
X134834579Y-113354336D01*
X134830891Y-113346538D01*
X134827985Y-113338416D01*
X134825889Y-113330048D01*
X134824623Y-113321516D01*
X134824200Y-113312900D01*
X134824200Y-112562100D01*
X134824623Y-112553484D01*
X134825889Y-112544952D01*
X134827985Y-112536584D01*
X134830891Y-112528462D01*
X134834579Y-112520664D01*
X134839014Y-112513265D01*
X134844152Y-112506337D01*
X134849945Y-112499945D01*
X134856337Y-112494152D01*
X134863265Y-112489014D01*
X134870664Y-112484579D01*
X134878462Y-112480891D01*
X134886584Y-112477985D01*
X134894952Y-112475889D01*
X134903484Y-112474623D01*
X134912100Y-112474200D01*
X135087900Y-112474200D01*
X135096516Y-112474623D01*
G37*
G36*
X134596516Y-112474623D02*
G01*
X134605048Y-112475889D01*
X134613416Y-112477985D01*
X134621538Y-112480891D01*
X134629336Y-112484579D01*
X134636735Y-112489014D01*
X134643663Y-112494152D01*
X134650055Y-112499945D01*
X134655848Y-112506337D01*
X134660986Y-112513265D01*
X134665421Y-112520664D01*
X134669109Y-112528462D01*
X134672015Y-112536584D01*
X134674111Y-112544952D01*
X134675377Y-112553484D01*
X134675800Y-112562100D01*
X134675800Y-113312900D01*
X134675377Y-113321516D01*
X134674111Y-113330048D01*
X134672015Y-113338416D01*
X134669109Y-113346538D01*
X134665421Y-113354336D01*
X134660986Y-113361735D01*
X134655848Y-113368663D01*
X134650055Y-113375055D01*
X134643663Y-113380848D01*
X134636735Y-113385986D01*
X134629336Y-113390421D01*
X134621538Y-113394109D01*
X134613416Y-113397015D01*
X134605048Y-113399111D01*
X134596516Y-113400377D01*
X134587900Y-113400800D01*
X134412100Y-113400800D01*
X134403484Y-113400377D01*
X134394952Y-113399111D01*
X134386584Y-113397015D01*
X134378462Y-113394109D01*
X134370664Y-113390421D01*
X134363265Y-113385986D01*
X134356337Y-113380848D01*
X134349945Y-113375055D01*
X134344152Y-113368663D01*
X134339014Y-113361735D01*
X134334579Y-113354336D01*
X134330891Y-113346538D01*
X134327985Y-113338416D01*
X134325889Y-113330048D01*
X134324623Y-113321516D01*
X134324200Y-113312900D01*
X134324200Y-112562100D01*
X134324623Y-112553484D01*
X134325889Y-112544952D01*
X134327985Y-112536584D01*
X134330891Y-112528462D01*
X134334579Y-112520664D01*
X134339014Y-112513265D01*
X134344152Y-112506337D01*
X134349945Y-112499945D01*
X134356337Y-112494152D01*
X134363265Y-112489014D01*
X134370664Y-112484579D01*
X134378462Y-112480891D01*
X134386584Y-112477985D01*
X134394952Y-112475889D01*
X134403484Y-112474623D01*
X134412100Y-112474200D01*
X134587900Y-112474200D01*
X134596516Y-112474623D01*
G37*
G36*
X134096516Y-112474623D02*
G01*
X134105048Y-112475889D01*
X134113416Y-112477985D01*
X134121538Y-112480891D01*
X134129336Y-112484579D01*
X134136735Y-112489014D01*
X134143663Y-112494152D01*
X134150055Y-112499945D01*
X134155848Y-112506337D01*
X134160986Y-112513265D01*
X134165421Y-112520664D01*
X134169109Y-112528462D01*
X134172015Y-112536584D01*
X134174111Y-112544952D01*
X134175377Y-112553484D01*
X134175800Y-112562100D01*
X134175800Y-113312900D01*
X134175377Y-113321516D01*
X134174111Y-113330048D01*
X134172015Y-113338416D01*
X134169109Y-113346538D01*
X134165421Y-113354336D01*
X134160986Y-113361735D01*
X134155848Y-113368663D01*
X134150055Y-113375055D01*
X134143663Y-113380848D01*
X134136735Y-113385986D01*
X134129336Y-113390421D01*
X134121538Y-113394109D01*
X134113416Y-113397015D01*
X134105048Y-113399111D01*
X134096516Y-113400377D01*
X134087900Y-113400800D01*
X133912100Y-113400800D01*
X133903484Y-113400377D01*
X133894952Y-113399111D01*
X133886584Y-113397015D01*
X133878462Y-113394109D01*
X133870664Y-113390421D01*
X133863265Y-113385986D01*
X133856337Y-113380848D01*
X133849945Y-113375055D01*
X133844152Y-113368663D01*
X133839014Y-113361735D01*
X133834579Y-113354336D01*
X133830891Y-113346538D01*
X133827985Y-113338416D01*
X133825889Y-113330048D01*
X133824623Y-113321516D01*
X133824200Y-113312900D01*
X133824200Y-112562100D01*
X133824623Y-112553484D01*
X133825889Y-112544952D01*
X133827985Y-112536584D01*
X133830891Y-112528462D01*
X133834579Y-112520664D01*
X133839014Y-112513265D01*
X133844152Y-112506337D01*
X133849945Y-112499945D01*
X133856337Y-112494152D01*
X133863265Y-112489014D01*
X133870664Y-112484579D01*
X133878462Y-112480891D01*
X133886584Y-112477985D01*
X133894952Y-112475889D01*
X133903484Y-112474623D01*
X133912100Y-112474200D01*
X134087900Y-112474200D01*
X134096516Y-112474623D01*
G37*
G36*
X133596516Y-112474623D02*
G01*
X133605048Y-112475889D01*
X133613416Y-112477985D01*
X133621538Y-112480891D01*
X133629336Y-112484579D01*
X133636735Y-112489014D01*
X133643663Y-112494152D01*
X133650055Y-112499945D01*
X133655848Y-112506337D01*
X133660986Y-112513265D01*
X133665421Y-112520664D01*
X133669109Y-112528462D01*
X133672015Y-112536584D01*
X133674111Y-112544952D01*
X133675377Y-112553484D01*
X133675800Y-112562100D01*
X133675800Y-113312900D01*
X133675377Y-113321516D01*
X133674111Y-113330048D01*
X133672015Y-113338416D01*
X133669109Y-113346538D01*
X133665421Y-113354336D01*
X133660986Y-113361735D01*
X133655848Y-113368663D01*
X133650055Y-113375055D01*
X133643663Y-113380848D01*
X133636735Y-113385986D01*
X133629336Y-113390421D01*
X133621538Y-113394109D01*
X133613416Y-113397015D01*
X133605048Y-113399111D01*
X133596516Y-113400377D01*
X133587900Y-113400800D01*
X133412100Y-113400800D01*
X133403484Y-113400377D01*
X133394952Y-113399111D01*
X133386584Y-113397015D01*
X133378462Y-113394109D01*
X133370664Y-113390421D01*
X133363265Y-113385986D01*
X133356337Y-113380848D01*
X133349945Y-113375055D01*
X133344152Y-113368663D01*
X133339014Y-113361735D01*
X133334579Y-113354336D01*
X133330891Y-113346538D01*
X133327985Y-113338416D01*
X133325889Y-113330048D01*
X133324623Y-113321516D01*
X133324200Y-113312900D01*
X133324200Y-112562100D01*
X133324623Y-112553484D01*
X133325889Y-112544952D01*
X133327985Y-112536584D01*
X133330891Y-112528462D01*
X133334579Y-112520664D01*
X133339014Y-112513265D01*
X133344152Y-112506337D01*
X133349945Y-112499945D01*
X133356337Y-112494152D01*
X133363265Y-112489014D01*
X133370664Y-112484579D01*
X133378462Y-112480891D01*
X133386584Y-112477985D01*
X133394952Y-112475889D01*
X133403484Y-112474623D01*
X133412100Y-112474200D01*
X133587900Y-112474200D01*
X133596516Y-112474623D01*
G37*
G36*
X133096516Y-112474623D02*
G01*
X133105048Y-112475889D01*
X133113416Y-112477985D01*
X133121538Y-112480891D01*
X133129336Y-112484579D01*
X133136735Y-112489014D01*
X133143663Y-112494152D01*
X133150055Y-112499945D01*
X133155848Y-112506337D01*
X133160986Y-112513265D01*
X133165421Y-112520664D01*
X133169109Y-112528462D01*
X133172015Y-112536584D01*
X133174111Y-112544952D01*
X133175377Y-112553484D01*
X133175800Y-112562100D01*
X133175800Y-113312900D01*
X133175377Y-113321516D01*
X133174111Y-113330048D01*
X133172015Y-113338416D01*
X133169109Y-113346538D01*
X133165421Y-113354336D01*
X133160986Y-113361735D01*
X133155848Y-113368663D01*
X133150055Y-113375055D01*
X133143663Y-113380848D01*
X133136735Y-113385986D01*
X133129336Y-113390421D01*
X133121538Y-113394109D01*
X133113416Y-113397015D01*
X133105048Y-113399111D01*
X133096516Y-113400377D01*
X133087900Y-113400800D01*
X132912100Y-113400800D01*
X132903484Y-113400377D01*
X132894952Y-113399111D01*
X132886584Y-113397015D01*
X132878462Y-113394109D01*
X132870664Y-113390421D01*
X132863265Y-113385986D01*
X132856337Y-113380848D01*
X132849945Y-113375055D01*
X132844152Y-113368663D01*
X132839014Y-113361735D01*
X132834579Y-113354336D01*
X132830891Y-113346538D01*
X132827985Y-113338416D01*
X132825889Y-113330048D01*
X132824623Y-113321516D01*
X132824200Y-113312900D01*
X132824200Y-112562100D01*
X132824623Y-112553484D01*
X132825889Y-112544952D01*
X132827985Y-112536584D01*
X132830891Y-112528462D01*
X132834579Y-112520664D01*
X132839014Y-112513265D01*
X132844152Y-112506337D01*
X132849945Y-112499945D01*
X132856337Y-112494152D01*
X132863265Y-112489014D01*
X132870664Y-112484579D01*
X132878462Y-112480891D01*
X132886584Y-112477985D01*
X132894952Y-112475889D01*
X132903484Y-112474623D01*
X132912100Y-112474200D01*
X133087900Y-112474200D01*
X133096516Y-112474623D01*
G37*
G36*
X132596516Y-112474623D02*
G01*
X132605048Y-112475889D01*
X132613416Y-112477985D01*
X132621538Y-112480891D01*
X132629336Y-112484579D01*
X132636735Y-112489014D01*
X132643663Y-112494152D01*
X132650055Y-112499945D01*
X132655848Y-112506337D01*
X132660986Y-112513265D01*
X132665421Y-112520664D01*
X132669109Y-112528462D01*
X132672015Y-112536584D01*
X132674111Y-112544952D01*
X132675377Y-112553484D01*
X132675800Y-112562100D01*
X132675800Y-113312900D01*
X132675377Y-113321516D01*
X132674111Y-113330048D01*
X132672015Y-113338416D01*
X132669109Y-113346538D01*
X132665421Y-113354336D01*
X132660986Y-113361735D01*
X132655848Y-113368663D01*
X132650055Y-113375055D01*
X132643663Y-113380848D01*
X132636735Y-113385986D01*
X132629336Y-113390421D01*
X132621538Y-113394109D01*
X132613416Y-113397015D01*
X132605048Y-113399111D01*
X132596516Y-113400377D01*
X132587900Y-113400800D01*
X132412100Y-113400800D01*
X132403484Y-113400377D01*
X132394952Y-113399111D01*
X132386584Y-113397015D01*
X132378462Y-113394109D01*
X132370664Y-113390421D01*
X132363265Y-113385986D01*
X132356337Y-113380848D01*
X132349945Y-113375055D01*
X132344152Y-113368663D01*
X132339014Y-113361735D01*
X132334579Y-113354336D01*
X132330891Y-113346538D01*
X132327985Y-113338416D01*
X132325889Y-113330048D01*
X132324623Y-113321516D01*
X132324200Y-113312900D01*
X132324200Y-112562100D01*
X132324623Y-112553484D01*
X132325889Y-112544952D01*
X132327985Y-112536584D01*
X132330891Y-112528462D01*
X132334579Y-112520664D01*
X132339014Y-112513265D01*
X132344152Y-112506337D01*
X132349945Y-112499945D01*
X132356337Y-112494152D01*
X132363265Y-112489014D01*
X132370664Y-112484579D01*
X132378462Y-112480891D01*
X132386584Y-112477985D01*
X132394952Y-112475889D01*
X132403484Y-112474623D01*
X132412100Y-112474200D01*
X132587900Y-112474200D01*
X132596516Y-112474623D01*
G37*
G36*
X131946516Y-111824623D02*
G01*
X131955048Y-111825889D01*
X131963416Y-111827985D01*
X131971538Y-111830891D01*
X131979336Y-111834579D01*
X131986735Y-111839014D01*
X131993663Y-111844152D01*
X132000055Y-111849945D01*
X132005848Y-111856337D01*
X132010986Y-111863265D01*
X132015421Y-111870664D01*
X132019109Y-111878462D01*
X132022015Y-111886584D01*
X132024111Y-111894952D01*
X132025377Y-111903484D01*
X132025800Y-111912100D01*
X132025800Y-112087900D01*
X132025377Y-112096516D01*
X132024111Y-112105048D01*
X132022015Y-112113416D01*
X132019109Y-112121538D01*
X132015421Y-112129336D01*
X132010986Y-112136735D01*
X132005848Y-112143663D01*
X132000055Y-112150055D01*
X131993663Y-112155848D01*
X131986735Y-112160986D01*
X131979336Y-112165421D01*
X131971538Y-112169109D01*
X131963416Y-112172015D01*
X131955048Y-112174111D01*
X131946516Y-112175377D01*
X131937900Y-112175800D01*
X131187100Y-112175800D01*
X131178484Y-112175377D01*
X131169952Y-112174111D01*
X131161584Y-112172015D01*
X131153462Y-112169109D01*
X131145664Y-112165421D01*
X131138265Y-112160986D01*
X131131337Y-112155848D01*
X131124945Y-112150055D01*
X131119152Y-112143663D01*
X131114014Y-112136735D01*
X131109579Y-112129336D01*
X131105891Y-112121538D01*
X131102985Y-112113416D01*
X131100889Y-112105048D01*
X131099623Y-112096516D01*
X131099200Y-112087900D01*
X131099200Y-111912100D01*
X131099623Y-111903484D01*
X131100889Y-111894952D01*
X131102985Y-111886584D01*
X131105891Y-111878462D01*
X131109579Y-111870664D01*
X131114014Y-111863265D01*
X131119152Y-111856337D01*
X131124945Y-111849945D01*
X131131337Y-111844152D01*
X131138265Y-111839014D01*
X131145664Y-111834579D01*
X131153462Y-111830891D01*
X131161584Y-111827985D01*
X131169952Y-111825889D01*
X131178484Y-111824623D01*
X131187100Y-111824200D01*
X131937900Y-111824200D01*
X131946516Y-111824623D01*
G37*
G36*
X131946516Y-111324623D02*
G01*
X131955048Y-111325889D01*
X131963416Y-111327985D01*
X131971538Y-111330891D01*
X131979336Y-111334579D01*
X131986735Y-111339014D01*
X131993663Y-111344152D01*
X132000055Y-111349945D01*
X132005848Y-111356337D01*
X132010986Y-111363265D01*
X132015421Y-111370664D01*
X132019109Y-111378462D01*
X132022015Y-111386584D01*
X132024111Y-111394952D01*
X132025377Y-111403484D01*
X132025800Y-111412100D01*
X132025800Y-111587900D01*
X132025377Y-111596516D01*
X132024111Y-111605048D01*
X132022015Y-111613416D01*
X132019109Y-111621538D01*
X132015421Y-111629336D01*
X132010986Y-111636735D01*
X132005848Y-111643663D01*
X132000055Y-111650055D01*
X131993663Y-111655848D01*
X131986735Y-111660986D01*
X131979336Y-111665421D01*
X131971538Y-111669109D01*
X131963416Y-111672015D01*
X131955048Y-111674111D01*
X131946516Y-111675377D01*
X131937900Y-111675800D01*
X131187100Y-111675800D01*
X131178484Y-111675377D01*
X131169952Y-111674111D01*
X131161584Y-111672015D01*
X131153462Y-111669109D01*
X131145664Y-111665421D01*
X131138265Y-111660986D01*
X131131337Y-111655848D01*
X131124945Y-111650055D01*
X131119152Y-111643663D01*
X131114014Y-111636735D01*
X131109579Y-111629336D01*
X131105891Y-111621538D01*
X131102985Y-111613416D01*
X131100889Y-111605048D01*
X131099623Y-111596516D01*
X131099200Y-111587900D01*
X131099200Y-111412100D01*
X131099623Y-111403484D01*
X131100889Y-111394952D01*
X131102985Y-111386584D01*
X131105891Y-111378462D01*
X131109579Y-111370664D01*
X131114014Y-111363265D01*
X131119152Y-111356337D01*
X131124945Y-111349945D01*
X131131337Y-111344152D01*
X131138265Y-111339014D01*
X131145664Y-111334579D01*
X131153462Y-111330891D01*
X131161584Y-111327985D01*
X131169952Y-111325889D01*
X131178484Y-111324623D01*
X131187100Y-111324200D01*
X131937900Y-111324200D01*
X131946516Y-111324623D01*
G37*
G36*
X131946516Y-110824623D02*
G01*
X131955048Y-110825889D01*
X131963416Y-110827985D01*
X131971538Y-110830891D01*
X131979336Y-110834579D01*
X131986735Y-110839014D01*
X131993663Y-110844152D01*
X132000055Y-110849945D01*
X132005848Y-110856337D01*
X132010986Y-110863265D01*
X132015421Y-110870664D01*
X132019109Y-110878462D01*
X132022015Y-110886584D01*
X132024111Y-110894952D01*
X132025377Y-110903484D01*
X132025800Y-110912100D01*
X132025800Y-111087900D01*
X132025377Y-111096516D01*
X132024111Y-111105048D01*
X132022015Y-111113416D01*
X132019109Y-111121538D01*
X132015421Y-111129336D01*
X132010986Y-111136735D01*
X132005848Y-111143663D01*
X132000055Y-111150055D01*
X131993663Y-111155848D01*
X131986735Y-111160986D01*
X131979336Y-111165421D01*
X131971538Y-111169109D01*
X131963416Y-111172015D01*
X131955048Y-111174111D01*
X131946516Y-111175377D01*
X131937900Y-111175800D01*
X131187100Y-111175800D01*
X131178484Y-111175377D01*
X131169952Y-111174111D01*
X131161584Y-111172015D01*
X131153462Y-111169109D01*
X131145664Y-111165421D01*
X131138265Y-111160986D01*
X131131337Y-111155848D01*
X131124945Y-111150055D01*
X131119152Y-111143663D01*
X131114014Y-111136735D01*
X131109579Y-111129336D01*
X131105891Y-111121538D01*
X131102985Y-111113416D01*
X131100889Y-111105048D01*
X131099623Y-111096516D01*
X131099200Y-111087900D01*
X131099200Y-110912100D01*
X131099623Y-110903484D01*
X131100889Y-110894952D01*
X131102985Y-110886584D01*
X131105891Y-110878462D01*
X131109579Y-110870664D01*
X131114014Y-110863265D01*
X131119152Y-110856337D01*
X131124945Y-110849945D01*
X131131337Y-110844152D01*
X131138265Y-110839014D01*
X131145664Y-110834579D01*
X131153462Y-110830891D01*
X131161584Y-110827985D01*
X131169952Y-110825889D01*
X131178484Y-110824623D01*
X131187100Y-110824200D01*
X131937900Y-110824200D01*
X131946516Y-110824623D01*
G37*
G36*
X131946516Y-110324623D02*
G01*
X131955048Y-110325889D01*
X131963416Y-110327985D01*
X131971538Y-110330891D01*
X131979336Y-110334579D01*
X131986735Y-110339014D01*
X131993663Y-110344152D01*
X132000055Y-110349945D01*
X132005848Y-110356337D01*
X132010986Y-110363265D01*
X132015421Y-110370664D01*
X132019109Y-110378462D01*
X132022015Y-110386584D01*
X132024111Y-110394952D01*
X132025377Y-110403484D01*
X132025800Y-110412100D01*
X132025800Y-110587900D01*
X132025377Y-110596516D01*
X132024111Y-110605048D01*
X132022015Y-110613416D01*
X132019109Y-110621538D01*
X132015421Y-110629336D01*
X132010986Y-110636735D01*
X132005848Y-110643663D01*
X132000055Y-110650055D01*
X131993663Y-110655848D01*
X131986735Y-110660986D01*
X131979336Y-110665421D01*
X131971538Y-110669109D01*
X131963416Y-110672015D01*
X131955048Y-110674111D01*
X131946516Y-110675377D01*
X131937900Y-110675800D01*
X131187100Y-110675800D01*
X131178484Y-110675377D01*
X131169952Y-110674111D01*
X131161584Y-110672015D01*
X131153462Y-110669109D01*
X131145664Y-110665421D01*
X131138265Y-110660986D01*
X131131337Y-110655848D01*
X131124945Y-110650055D01*
X131119152Y-110643663D01*
X131114014Y-110636735D01*
X131109579Y-110629336D01*
X131105891Y-110621538D01*
X131102985Y-110613416D01*
X131100889Y-110605048D01*
X131099623Y-110596516D01*
X131099200Y-110587900D01*
X131099200Y-110412100D01*
X131099623Y-110403484D01*
X131100889Y-110394952D01*
X131102985Y-110386584D01*
X131105891Y-110378462D01*
X131109579Y-110370664D01*
X131114014Y-110363265D01*
X131119152Y-110356337D01*
X131124945Y-110349945D01*
X131131337Y-110344152D01*
X131138265Y-110339014D01*
X131145664Y-110334579D01*
X131153462Y-110330891D01*
X131161584Y-110327985D01*
X131169952Y-110325889D01*
X131178484Y-110324623D01*
X131187100Y-110324200D01*
X131937900Y-110324200D01*
X131946516Y-110324623D01*
G37*
G36*
X131946516Y-109824623D02*
G01*
X131955048Y-109825889D01*
X131963416Y-109827985D01*
X131971538Y-109830891D01*
X131979336Y-109834579D01*
X131986735Y-109839014D01*
X131993663Y-109844152D01*
X132000055Y-109849945D01*
X132005848Y-109856337D01*
X132010986Y-109863265D01*
X132015421Y-109870664D01*
X132019109Y-109878462D01*
X132022015Y-109886584D01*
X132024111Y-109894952D01*
X132025377Y-109903484D01*
X132025800Y-109912100D01*
X132025800Y-110087900D01*
X132025377Y-110096516D01*
X132024111Y-110105048D01*
X132022015Y-110113416D01*
X132019109Y-110121538D01*
X132015421Y-110129336D01*
X132010986Y-110136735D01*
X132005848Y-110143663D01*
X132000055Y-110150055D01*
X131993663Y-110155848D01*
X131986735Y-110160986D01*
X131979336Y-110165421D01*
X131971538Y-110169109D01*
X131963416Y-110172015D01*
X131955048Y-110174111D01*
X131946516Y-110175377D01*
X131937900Y-110175800D01*
X131187100Y-110175800D01*
X131178484Y-110175377D01*
X131169952Y-110174111D01*
X131161584Y-110172015D01*
X131153462Y-110169109D01*
X131145664Y-110165421D01*
X131138265Y-110160986D01*
X131131337Y-110155848D01*
X131124945Y-110150055D01*
X131119152Y-110143663D01*
X131114014Y-110136735D01*
X131109579Y-110129336D01*
X131105891Y-110121538D01*
X131102985Y-110113416D01*
X131100889Y-110105048D01*
X131099623Y-110096516D01*
X131099200Y-110087900D01*
X131099200Y-109912100D01*
X131099623Y-109903484D01*
X131100889Y-109894952D01*
X131102985Y-109886584D01*
X131105891Y-109878462D01*
X131109579Y-109870664D01*
X131114014Y-109863265D01*
X131119152Y-109856337D01*
X131124945Y-109849945D01*
X131131337Y-109844152D01*
X131138265Y-109839014D01*
X131145664Y-109834579D01*
X131153462Y-109830891D01*
X131161584Y-109827985D01*
X131169952Y-109825889D01*
X131178484Y-109824623D01*
X131187100Y-109824200D01*
X131937900Y-109824200D01*
X131946516Y-109824623D01*
G37*
G36*
X131946516Y-109324623D02*
G01*
X131955048Y-109325889D01*
X131963416Y-109327985D01*
X131971538Y-109330891D01*
X131979336Y-109334579D01*
X131986735Y-109339014D01*
X131993663Y-109344152D01*
X132000055Y-109349945D01*
X132005848Y-109356337D01*
X132010986Y-109363265D01*
X132015421Y-109370664D01*
X132019109Y-109378462D01*
X132022015Y-109386584D01*
X132024111Y-109394952D01*
X132025377Y-109403484D01*
X132025800Y-109412100D01*
X132025800Y-109587900D01*
X132025377Y-109596516D01*
X132024111Y-109605048D01*
X132022015Y-109613416D01*
X132019109Y-109621538D01*
X132015421Y-109629336D01*
X132010986Y-109636735D01*
X132005848Y-109643663D01*
X132000055Y-109650055D01*
X131993663Y-109655848D01*
X131986735Y-109660986D01*
X131979336Y-109665421D01*
X131971538Y-109669109D01*
X131963416Y-109672015D01*
X131955048Y-109674111D01*
X131946516Y-109675377D01*
X131937900Y-109675800D01*
X131187100Y-109675800D01*
X131178484Y-109675377D01*
X131169952Y-109674111D01*
X131161584Y-109672015D01*
X131153462Y-109669109D01*
X131145664Y-109665421D01*
X131138265Y-109660986D01*
X131131337Y-109655848D01*
X131124945Y-109650055D01*
X131119152Y-109643663D01*
X131114014Y-109636735D01*
X131109579Y-109629336D01*
X131105891Y-109621538D01*
X131102985Y-109613416D01*
X131100889Y-109605048D01*
X131099623Y-109596516D01*
X131099200Y-109587900D01*
X131099200Y-109412100D01*
X131099623Y-109403484D01*
X131100889Y-109394952D01*
X131102985Y-109386584D01*
X131105891Y-109378462D01*
X131109579Y-109370664D01*
X131114014Y-109363265D01*
X131119152Y-109356337D01*
X131124945Y-109349945D01*
X131131337Y-109344152D01*
X131138265Y-109339014D01*
X131145664Y-109334579D01*
X131153462Y-109330891D01*
X131161584Y-109327985D01*
X131169952Y-109325889D01*
X131178484Y-109324623D01*
X131187100Y-109324200D01*
X131937900Y-109324200D01*
X131946516Y-109324623D01*
G37*
G36*
X131946516Y-108824623D02*
G01*
X131955048Y-108825889D01*
X131963416Y-108827985D01*
X131971538Y-108830891D01*
X131979336Y-108834579D01*
X131986735Y-108839014D01*
X131993663Y-108844152D01*
X132000055Y-108849945D01*
X132005848Y-108856337D01*
X132010986Y-108863265D01*
X132015421Y-108870664D01*
X132019109Y-108878462D01*
X132022015Y-108886584D01*
X132024111Y-108894952D01*
X132025377Y-108903484D01*
X132025800Y-108912100D01*
X132025800Y-109087900D01*
X132025377Y-109096516D01*
X132024111Y-109105048D01*
X132022015Y-109113416D01*
X132019109Y-109121538D01*
X132015421Y-109129336D01*
X132010986Y-109136735D01*
X132005848Y-109143663D01*
X132000055Y-109150055D01*
X131993663Y-109155848D01*
X131986735Y-109160986D01*
X131979336Y-109165421D01*
X131971538Y-109169109D01*
X131963416Y-109172015D01*
X131955048Y-109174111D01*
X131946516Y-109175377D01*
X131937900Y-109175800D01*
X131187100Y-109175800D01*
X131178484Y-109175377D01*
X131169952Y-109174111D01*
X131161584Y-109172015D01*
X131153462Y-109169109D01*
X131145664Y-109165421D01*
X131138265Y-109160986D01*
X131131337Y-109155848D01*
X131124945Y-109150055D01*
X131119152Y-109143663D01*
X131114014Y-109136735D01*
X131109579Y-109129336D01*
X131105891Y-109121538D01*
X131102985Y-109113416D01*
X131100889Y-109105048D01*
X131099623Y-109096516D01*
X131099200Y-109087900D01*
X131099200Y-108912100D01*
X131099623Y-108903484D01*
X131100889Y-108894952D01*
X131102985Y-108886584D01*
X131105891Y-108878462D01*
X131109579Y-108870664D01*
X131114014Y-108863265D01*
X131119152Y-108856337D01*
X131124945Y-108849945D01*
X131131337Y-108844152D01*
X131138265Y-108839014D01*
X131145664Y-108834579D01*
X131153462Y-108830891D01*
X131161584Y-108827985D01*
X131169952Y-108825889D01*
X131178484Y-108824623D01*
X131187100Y-108824200D01*
X131937900Y-108824200D01*
X131946516Y-108824623D01*
G37*
G36*
X131946516Y-108324623D02*
G01*
X131955048Y-108325889D01*
X131963416Y-108327985D01*
X131971538Y-108330891D01*
X131979336Y-108334579D01*
X131986735Y-108339014D01*
X131993663Y-108344152D01*
X132000055Y-108349945D01*
X132005848Y-108356337D01*
X132010986Y-108363265D01*
X132015421Y-108370664D01*
X132019109Y-108378462D01*
X132022015Y-108386584D01*
X132024111Y-108394952D01*
X132025377Y-108403484D01*
X132025800Y-108412100D01*
X132025800Y-108587900D01*
X132025377Y-108596516D01*
X132024111Y-108605048D01*
X132022015Y-108613416D01*
X132019109Y-108621538D01*
X132015421Y-108629336D01*
X132010986Y-108636735D01*
X132005848Y-108643663D01*
X132000055Y-108650055D01*
X131993663Y-108655848D01*
X131986735Y-108660986D01*
X131979336Y-108665421D01*
X131971538Y-108669109D01*
X131963416Y-108672015D01*
X131955048Y-108674111D01*
X131946516Y-108675377D01*
X131937900Y-108675800D01*
X131187100Y-108675800D01*
X131178484Y-108675377D01*
X131169952Y-108674111D01*
X131161584Y-108672015D01*
X131153462Y-108669109D01*
X131145664Y-108665421D01*
X131138265Y-108660986D01*
X131131337Y-108655848D01*
X131124945Y-108650055D01*
X131119152Y-108643663D01*
X131114014Y-108636735D01*
X131109579Y-108629336D01*
X131105891Y-108621538D01*
X131102985Y-108613416D01*
X131100889Y-108605048D01*
X131099623Y-108596516D01*
X131099200Y-108587900D01*
X131099200Y-108412100D01*
X131099623Y-108403484D01*
X131100889Y-108394952D01*
X131102985Y-108386584D01*
X131105891Y-108378462D01*
X131109579Y-108370664D01*
X131114014Y-108363265D01*
X131119152Y-108356337D01*
X131124945Y-108349945D01*
X131131337Y-108344152D01*
X131138265Y-108339014D01*
X131145664Y-108334579D01*
X131153462Y-108330891D01*
X131161584Y-108327985D01*
X131169952Y-108325889D01*
X131178484Y-108324623D01*
X131187100Y-108324200D01*
X131937900Y-108324200D01*
X131946516Y-108324623D01*
G37*
G36*
X131946516Y-107824623D02*
G01*
X131955048Y-107825889D01*
X131963416Y-107827985D01*
X131971538Y-107830891D01*
X131979336Y-107834579D01*
X131986735Y-107839014D01*
X131993663Y-107844152D01*
X132000055Y-107849945D01*
X132005848Y-107856337D01*
X132010986Y-107863265D01*
X132015421Y-107870664D01*
X132019109Y-107878462D01*
X132022015Y-107886584D01*
X132024111Y-107894952D01*
X132025377Y-107903484D01*
X132025800Y-107912100D01*
X132025800Y-108087900D01*
X132025377Y-108096516D01*
X132024111Y-108105048D01*
X132022015Y-108113416D01*
X132019109Y-108121538D01*
X132015421Y-108129336D01*
X132010986Y-108136735D01*
X132005848Y-108143663D01*
X132000055Y-108150055D01*
X131993663Y-108155848D01*
X131986735Y-108160986D01*
X131979336Y-108165421D01*
X131971538Y-108169109D01*
X131963416Y-108172015D01*
X131955048Y-108174111D01*
X131946516Y-108175377D01*
X131937900Y-108175800D01*
X131187100Y-108175800D01*
X131178484Y-108175377D01*
X131169952Y-108174111D01*
X131161584Y-108172015D01*
X131153462Y-108169109D01*
X131145664Y-108165421D01*
X131138265Y-108160986D01*
X131131337Y-108155848D01*
X131124945Y-108150055D01*
X131119152Y-108143663D01*
X131114014Y-108136735D01*
X131109579Y-108129336D01*
X131105891Y-108121538D01*
X131102985Y-108113416D01*
X131100889Y-108105048D01*
X131099623Y-108096516D01*
X131099200Y-108087900D01*
X131099200Y-107912100D01*
X131099623Y-107903484D01*
X131100889Y-107894952D01*
X131102985Y-107886584D01*
X131105891Y-107878462D01*
X131109579Y-107870664D01*
X131114014Y-107863265D01*
X131119152Y-107856337D01*
X131124945Y-107849945D01*
X131131337Y-107844152D01*
X131138265Y-107839014D01*
X131145664Y-107834579D01*
X131153462Y-107830891D01*
X131161584Y-107827985D01*
X131169952Y-107825889D01*
X131178484Y-107824623D01*
X131187100Y-107824200D01*
X131937900Y-107824200D01*
X131946516Y-107824623D01*
G37*
G36*
X136167630Y-108100445D02*
G01*
X136192724Y-108104167D01*
X136217333Y-108110331D01*
X136241219Y-108118878D01*
X136264152Y-108129724D01*
X136285911Y-108142766D01*
X136306288Y-108157879D01*
X136325085Y-108174915D01*
X136342121Y-108193712D01*
X136357234Y-108214089D01*
X136370276Y-108235848D01*
X136381122Y-108258781D01*
X136389669Y-108282667D01*
X136395833Y-108307276D01*
X136399555Y-108332370D01*
X136400800Y-108357708D01*
X136400800Y-111642292D01*
X136399555Y-111667630D01*
X136395833Y-111692724D01*
X136389669Y-111717333D01*
X136381122Y-111741219D01*
X136370276Y-111764152D01*
X136357234Y-111785911D01*
X136342121Y-111806288D01*
X136325085Y-111825085D01*
X136306288Y-111842121D01*
X136285911Y-111857234D01*
X136264152Y-111870276D01*
X136241219Y-111881122D01*
X136217333Y-111889669D01*
X136192724Y-111895833D01*
X136167630Y-111899555D01*
X136142292Y-111900800D01*
X132857708Y-111900800D01*
X132832370Y-111899555D01*
X132807276Y-111895833D01*
X132782667Y-111889669D01*
X132758781Y-111881122D01*
X132735848Y-111870276D01*
X132714089Y-111857234D01*
X132693712Y-111842121D01*
X132674915Y-111825085D01*
X132657879Y-111806288D01*
X132642766Y-111785911D01*
X132629724Y-111764152D01*
X132618878Y-111741219D01*
X132610331Y-111717333D01*
X132604167Y-111692724D01*
X132600445Y-111667630D01*
X132599200Y-111642292D01*
X132599200Y-108357708D01*
X132600445Y-108332370D01*
X132604167Y-108307276D01*
X132610331Y-108282667D01*
X132618878Y-108258781D01*
X132629724Y-108235848D01*
X132642766Y-108214089D01*
X132657879Y-108193712D01*
X132674915Y-108174915D01*
X132693712Y-108157879D01*
X132714089Y-108142766D01*
X132735848Y-108129724D01*
X132758781Y-108118878D01*
X132782667Y-108110331D01*
X132807276Y-108104167D01*
X132832370Y-108100445D01*
X132857708Y-108099200D01*
X136142292Y-108099200D01*
X136167630Y-108100445D01*
G37*
D17*
X126500000Y-103500000D03*
D18*
X127475000Y-105050000D03*
X126825000Y-105050000D03*
X126175000Y-105050000D03*
X125525000Y-105050000D03*
X125525000Y-101950000D03*
X126175000Y-101950000D03*
X126825000Y-101950000D03*
X127475000Y-101950000D03*
D19*
X158250000Y-110000000D03*
D20*
X159800000Y-109025000D03*
X159800000Y-109675000D03*
X159800000Y-110325000D03*
X159800000Y-110975000D03*
X156700000Y-110975000D03*
X156700000Y-110325000D03*
X156700000Y-109675000D03*
X156700000Y-109025000D03*
D21*
X142600000Y-122100000D03*
X142600000Y-97900000D03*
X118450000Y-122100000D03*
X118450000Y-97900000D03*
D22*
X148250000Y-97750000D03*
D23*
X147500000Y-96250000D03*
X148000000Y-96250000D03*
X148500000Y-96250000D03*
X149000000Y-96250000D03*
X149000000Y-99250000D03*
X148500000Y-99250000D03*
X148000000Y-99250000D03*
X147500000Y-99250000D03*
M02*
