G04 #@! TF.GenerationSoftware,KiCad,Pcbnew,(5.1.5-0-10_14)*
G04 #@! TF.CreationDate,2020-04-12T13:28:57-07:00*
G04 #@! TF.ProjectId,kimchi_usb_ulid,6b696d63-6869-45f7-9573-625f756c6964,v0.1*
G04 #@! TF.SameCoordinates,Original*
G04 #@! TF.FileFunction,Legend,Bot*
G04 #@! TF.FilePolarity,Positive*
%FSLAX46Y46*%
G04 Gerber Fmt 4.6, Leading zero omitted, Abs format (unit mm)*
G04 Created by KiCad (PCBNEW (5.1.5-0-10_14)) date 2020-04-12 13:28:57*
%MOMM*%
%LPD*%
G04 APERTURE LIST*
%ADD10C,0.100000*%
%ADD11C,0.150000*%
%ADD12C,0.120000*%
%ADD13C,0.010000*%
%ADD14R,0.551600X0.601600*%
%ADD15R,0.551600X0.501600*%
%ADD16C,1.701600*%
%ADD17R,1.701600X1.701600*%
%ADD18C,3.101600*%
%ADD19C,5.101600*%
%ADD20R,0.301600X1.601600*%
G04 APERTURE END LIST*
D10*
X170500000Y-120500000D02*
X161500000Y-120500000D01*
X170500000Y-126000000D02*
X170500000Y-120500000D01*
X161500000Y-126000000D02*
X170500000Y-126000000D01*
X161500000Y-120500000D02*
X161500000Y-126000000D01*
X138500000Y-120500000D02*
X129500000Y-120500000D01*
X138500000Y-126000000D02*
X138500000Y-120500000D01*
X129500000Y-126000000D02*
X138500000Y-126000000D01*
X129500000Y-120500000D02*
X129500000Y-126000000D01*
X138500000Y-94000000D02*
X128000000Y-94000000D01*
X138500000Y-101000000D02*
X138500000Y-94000000D01*
X128000000Y-101000000D02*
X138500000Y-101000000D01*
X128000000Y-94000000D02*
X128000000Y-101000000D01*
X167500000Y-94000000D02*
X160000000Y-94000000D01*
X167500000Y-99500000D02*
X167500000Y-94000000D01*
X160000000Y-99500000D02*
X167500000Y-99500000D01*
X160000000Y-94000000D02*
X160000000Y-99500000D01*
D11*
X107000000Y-126000000D02*
X107000000Y-94000000D01*
X172000000Y-126000000D02*
X107000000Y-126000000D01*
X172000000Y-94000000D02*
X172000000Y-126000000D01*
X107000000Y-94000000D02*
X172000000Y-94000000D01*
D12*
X162200000Y-118050000D02*
X161600000Y-118050000D01*
X161200000Y-119450000D02*
X161200000Y-119450000D01*
X162400000Y-119450000D02*
X161200000Y-119450000D01*
X162200000Y-100550000D02*
X161600000Y-100550000D01*
X161200000Y-101950000D02*
X161200000Y-101950000D01*
X162400000Y-101950000D02*
X161200000Y-101950000D01*
X122600000Y-109300000D02*
X122000000Y-109300000D01*
X121600000Y-110700000D02*
X121600000Y-110700000D01*
X122800000Y-110700000D02*
X121600000Y-110700000D01*
X146100000Y-125490000D02*
X158100000Y-125490000D01*
X146100000Y-120610000D02*
X146100000Y-125490000D01*
X158900000Y-120610000D02*
X146100000Y-120610000D01*
X158900000Y-124690000D02*
X158900000Y-120610000D01*
X158100000Y-125490000D02*
X158900000Y-124690000D01*
X146100000Y-99490000D02*
X158100000Y-99490000D01*
X146100000Y-94610000D02*
X146100000Y-99490000D01*
X158900000Y-94610000D02*
X146100000Y-94610000D01*
X158900000Y-98690000D02*
X158900000Y-94610000D01*
X158100000Y-99490000D02*
X158900000Y-98690000D01*
D13*
G36*
X111123036Y-119290018D02*
G01*
X111066188Y-119591570D01*
X110646662Y-119764512D01*
X110395016Y-119593395D01*
X110324542Y-119545750D01*
X110260837Y-119503210D01*
X110206874Y-119467715D01*
X110165627Y-119441210D01*
X110140066Y-119425636D01*
X110133105Y-119422278D01*
X110120565Y-119430914D01*
X110093769Y-119454792D01*
X110055720Y-119490859D01*
X110009421Y-119536067D01*
X109957877Y-119587364D01*
X109904091Y-119641701D01*
X109851065Y-119696028D01*
X109801805Y-119747295D01*
X109759313Y-119792451D01*
X109726593Y-119828446D01*
X109706649Y-119852230D01*
X109701881Y-119860190D01*
X109708743Y-119874865D01*
X109727980Y-119907014D01*
X109757570Y-119953492D01*
X109795490Y-120011156D01*
X109839718Y-120076860D01*
X109865346Y-120114336D01*
X109912059Y-120182768D01*
X109953568Y-120244520D01*
X109987860Y-120296519D01*
X110012920Y-120335692D01*
X110026736Y-120358965D01*
X110028812Y-120363855D01*
X110024105Y-120377755D01*
X110011277Y-120410150D01*
X109992262Y-120456485D01*
X109968997Y-120512206D01*
X109943416Y-120572758D01*
X109917455Y-120633586D01*
X109893050Y-120690136D01*
X109872137Y-120737852D01*
X109856651Y-120772181D01*
X109848528Y-120788568D01*
X109848048Y-120789212D01*
X109835293Y-120792341D01*
X109801323Y-120799321D01*
X109749660Y-120809467D01*
X109683824Y-120822092D01*
X109607336Y-120836509D01*
X109562710Y-120844823D01*
X109480979Y-120860384D01*
X109407157Y-120875192D01*
X109344979Y-120888436D01*
X109298178Y-120899305D01*
X109270491Y-120906989D01*
X109264926Y-120909427D01*
X109259474Y-120925930D01*
X109255076Y-120963200D01*
X109251728Y-121016880D01*
X109249426Y-121082612D01*
X109248168Y-121156037D01*
X109247952Y-121232796D01*
X109248773Y-121308532D01*
X109250629Y-121378886D01*
X109253518Y-121439500D01*
X109257435Y-121486016D01*
X109262378Y-121514075D01*
X109265343Y-121519916D01*
X109283066Y-121526917D01*
X109320619Y-121536927D01*
X109373036Y-121548769D01*
X109435348Y-121561267D01*
X109457100Y-121565310D01*
X109561976Y-121584520D01*
X109644820Y-121599991D01*
X109708370Y-121612337D01*
X109755363Y-121622173D01*
X109788537Y-121630114D01*
X109810629Y-121636776D01*
X109824376Y-121642773D01*
X109832516Y-121648719D01*
X109833655Y-121649894D01*
X109845023Y-121668826D01*
X109862365Y-121705669D01*
X109883950Y-121755913D01*
X109908046Y-121815046D01*
X109932921Y-121878556D01*
X109956843Y-121941932D01*
X109978081Y-122000662D01*
X109994903Y-122050235D01*
X110005578Y-122086139D01*
X110008373Y-122103862D01*
X110008140Y-122104483D01*
X109998669Y-122118970D01*
X109977182Y-122150844D01*
X109945937Y-122196789D01*
X109907193Y-122253485D01*
X109863207Y-122317617D01*
X109850681Y-122335842D01*
X109806016Y-122401914D01*
X109766712Y-122462200D01*
X109734912Y-122513235D01*
X109712755Y-122551560D01*
X109702383Y-122573711D01*
X109701881Y-122576432D01*
X109710595Y-122590736D01*
X109734675Y-122619072D01*
X109771024Y-122658396D01*
X109816547Y-122705661D01*
X109868148Y-122757823D01*
X109922733Y-122811835D01*
X109977206Y-122864653D01*
X110028471Y-122913231D01*
X110073433Y-122954523D01*
X110108996Y-122985485D01*
X110132065Y-123003070D01*
X110138446Y-123005941D01*
X110153301Y-122999178D01*
X110183714Y-122980939D01*
X110224732Y-122954297D01*
X110256291Y-122932852D01*
X110313475Y-122893503D01*
X110381194Y-122847171D01*
X110449120Y-122800913D01*
X110485639Y-122776155D01*
X110609248Y-122692547D01*
X110713009Y-122748650D01*
X110760280Y-122773228D01*
X110800477Y-122792331D01*
X110827674Y-122803227D01*
X110834598Y-122804743D01*
X110842923Y-122793549D01*
X110859346Y-122761917D01*
X110882643Y-122712765D01*
X110911586Y-122649010D01*
X110944950Y-122573571D01*
X110981509Y-122489364D01*
X111020036Y-122399308D01*
X111059306Y-122306321D01*
X111098092Y-122213320D01*
X111135170Y-122123223D01*
X111169311Y-122038948D01*
X111199292Y-121963413D01*
X111223884Y-121899534D01*
X111241864Y-121850231D01*
X111252003Y-121818421D01*
X111253634Y-121807496D01*
X111240709Y-121793561D01*
X111212411Y-121770940D01*
X111174654Y-121744333D01*
X111171485Y-121742228D01*
X111073900Y-121664114D01*
X110995214Y-121572982D01*
X110936109Y-121471745D01*
X110897268Y-121363318D01*
X110879372Y-121250614D01*
X110883103Y-121136548D01*
X110909143Y-121024034D01*
X110958175Y-120915985D01*
X110972600Y-120892345D01*
X111047631Y-120796887D01*
X111136270Y-120720232D01*
X111235451Y-120662780D01*
X111342105Y-120624929D01*
X111453164Y-120607078D01*
X111565561Y-120609625D01*
X111676227Y-120632970D01*
X111782094Y-120677510D01*
X111880095Y-120743645D01*
X111910410Y-120770487D01*
X111987562Y-120854512D01*
X112043782Y-120942966D01*
X112082347Y-121042115D01*
X112103826Y-121140303D01*
X112109128Y-121250697D01*
X112091448Y-121361640D01*
X112052581Y-121469381D01*
X111994323Y-121570169D01*
X111918469Y-121660256D01*
X111826817Y-121735892D01*
X111814772Y-121743864D01*
X111776611Y-121769974D01*
X111747601Y-121792595D01*
X111733732Y-121807039D01*
X111733531Y-121807496D01*
X111736508Y-121823121D01*
X111748311Y-121858582D01*
X111767714Y-121910962D01*
X111793488Y-121977345D01*
X111824409Y-122054814D01*
X111859249Y-122140450D01*
X111896783Y-122231337D01*
X111935783Y-122324559D01*
X111975023Y-122417197D01*
X112013276Y-122506335D01*
X112049317Y-122589055D01*
X112081917Y-122662441D01*
X112109852Y-122723575D01*
X112131895Y-122769541D01*
X112146818Y-122797421D01*
X112152828Y-122804743D01*
X112171191Y-122799041D01*
X112205552Y-122783749D01*
X112249984Y-122761599D01*
X112274417Y-122748650D01*
X112378178Y-122692547D01*
X112501787Y-122776155D01*
X112564886Y-122818987D01*
X112633970Y-122866122D01*
X112698707Y-122910503D01*
X112731134Y-122932852D01*
X112776741Y-122963477D01*
X112815360Y-122987747D01*
X112841952Y-123002587D01*
X112850590Y-123005724D01*
X112863161Y-122997261D01*
X112890984Y-122973636D01*
X112931361Y-122937302D01*
X112981595Y-122890711D01*
X113038988Y-122836317D01*
X113075286Y-122801392D01*
X113138790Y-122738996D01*
X113193673Y-122683188D01*
X113237714Y-122636354D01*
X113268695Y-122600882D01*
X113284398Y-122579161D01*
X113285905Y-122574752D01*
X113278914Y-122557985D01*
X113259594Y-122524082D01*
X113230091Y-122476476D01*
X113192545Y-122418599D01*
X113149100Y-122353884D01*
X113136745Y-122335842D01*
X113091727Y-122270267D01*
X113051340Y-122211228D01*
X113017840Y-122162042D01*
X112993486Y-122126028D01*
X112980536Y-122106502D01*
X112979285Y-122104483D01*
X112981156Y-122088922D01*
X112991087Y-122054709D01*
X113007347Y-122006355D01*
X113028205Y-121948371D01*
X113051927Y-121885270D01*
X113076784Y-121821563D01*
X113101042Y-121761761D01*
X113122971Y-121710376D01*
X113140838Y-121671919D01*
X113152913Y-121650902D01*
X113153771Y-121649894D01*
X113161154Y-121643888D01*
X113173625Y-121637948D01*
X113193920Y-121631460D01*
X113224778Y-121623809D01*
X113268934Y-121614380D01*
X113329126Y-121602559D01*
X113408093Y-121587729D01*
X113508570Y-121569277D01*
X113530325Y-121565310D01*
X113594802Y-121552853D01*
X113651011Y-121540666D01*
X113693987Y-121529926D01*
X113718760Y-121521809D01*
X113722082Y-121519916D01*
X113727556Y-121503138D01*
X113732006Y-121465645D01*
X113735428Y-121411794D01*
X113737819Y-121345944D01*
X113739177Y-121272453D01*
X113739499Y-121195680D01*
X113738781Y-121119983D01*
X113737021Y-121049720D01*
X113734216Y-120989250D01*
X113730362Y-120942930D01*
X113725457Y-120915119D01*
X113722500Y-120909427D01*
X113706037Y-120903686D01*
X113668551Y-120894345D01*
X113613775Y-120882215D01*
X113545445Y-120868107D01*
X113467294Y-120852830D01*
X113424716Y-120844823D01*
X113343929Y-120829721D01*
X113271887Y-120816040D01*
X113212111Y-120804467D01*
X113168121Y-120795687D01*
X113143439Y-120790387D01*
X113139377Y-120789212D01*
X113132511Y-120775965D01*
X113117998Y-120744057D01*
X113097771Y-120698047D01*
X113073766Y-120642492D01*
X113047918Y-120581953D01*
X113022160Y-120520986D01*
X112998427Y-120464151D01*
X112978654Y-120416006D01*
X112964776Y-120381110D01*
X112958726Y-120364021D01*
X112958614Y-120363274D01*
X112965472Y-120349793D01*
X112984698Y-120318770D01*
X113014272Y-120273289D01*
X113052173Y-120216432D01*
X113096380Y-120151283D01*
X113122079Y-120113862D01*
X113168907Y-120045247D01*
X113210499Y-119982952D01*
X113244825Y-119930129D01*
X113269857Y-119889927D01*
X113283565Y-119865500D01*
X113285544Y-119860024D01*
X113277034Y-119847278D01*
X113253507Y-119820063D01*
X113217968Y-119781428D01*
X113173423Y-119734423D01*
X113122877Y-119682095D01*
X113069336Y-119627495D01*
X113015805Y-119573670D01*
X112965289Y-119523670D01*
X112920794Y-119480543D01*
X112885325Y-119447339D01*
X112861887Y-119427106D01*
X112854046Y-119422278D01*
X112841280Y-119429067D01*
X112810744Y-119448142D01*
X112765410Y-119477561D01*
X112708244Y-119515381D01*
X112642216Y-119559661D01*
X112592410Y-119593395D01*
X112340764Y-119764512D01*
X112131001Y-119678041D01*
X111921237Y-119591570D01*
X111864389Y-119290018D01*
X111807540Y-118988466D01*
X111179885Y-118988466D01*
X111123036Y-119290018D01*
G37*
X111123036Y-119290018D02*
X111066188Y-119591570D01*
X110646662Y-119764512D01*
X110395016Y-119593395D01*
X110324542Y-119545750D01*
X110260837Y-119503210D01*
X110206874Y-119467715D01*
X110165627Y-119441210D01*
X110140066Y-119425636D01*
X110133105Y-119422278D01*
X110120565Y-119430914D01*
X110093769Y-119454792D01*
X110055720Y-119490859D01*
X110009421Y-119536067D01*
X109957877Y-119587364D01*
X109904091Y-119641701D01*
X109851065Y-119696028D01*
X109801805Y-119747295D01*
X109759313Y-119792451D01*
X109726593Y-119828446D01*
X109706649Y-119852230D01*
X109701881Y-119860190D01*
X109708743Y-119874865D01*
X109727980Y-119907014D01*
X109757570Y-119953492D01*
X109795490Y-120011156D01*
X109839718Y-120076860D01*
X109865346Y-120114336D01*
X109912059Y-120182768D01*
X109953568Y-120244520D01*
X109987860Y-120296519D01*
X110012920Y-120335692D01*
X110026736Y-120358965D01*
X110028812Y-120363855D01*
X110024105Y-120377755D01*
X110011277Y-120410150D01*
X109992262Y-120456485D01*
X109968997Y-120512206D01*
X109943416Y-120572758D01*
X109917455Y-120633586D01*
X109893050Y-120690136D01*
X109872137Y-120737852D01*
X109856651Y-120772181D01*
X109848528Y-120788568D01*
X109848048Y-120789212D01*
X109835293Y-120792341D01*
X109801323Y-120799321D01*
X109749660Y-120809467D01*
X109683824Y-120822092D01*
X109607336Y-120836509D01*
X109562710Y-120844823D01*
X109480979Y-120860384D01*
X109407157Y-120875192D01*
X109344979Y-120888436D01*
X109298178Y-120899305D01*
X109270491Y-120906989D01*
X109264926Y-120909427D01*
X109259474Y-120925930D01*
X109255076Y-120963200D01*
X109251728Y-121016880D01*
X109249426Y-121082612D01*
X109248168Y-121156037D01*
X109247952Y-121232796D01*
X109248773Y-121308532D01*
X109250629Y-121378886D01*
X109253518Y-121439500D01*
X109257435Y-121486016D01*
X109262378Y-121514075D01*
X109265343Y-121519916D01*
X109283066Y-121526917D01*
X109320619Y-121536927D01*
X109373036Y-121548769D01*
X109435348Y-121561267D01*
X109457100Y-121565310D01*
X109561976Y-121584520D01*
X109644820Y-121599991D01*
X109708370Y-121612337D01*
X109755363Y-121622173D01*
X109788537Y-121630114D01*
X109810629Y-121636776D01*
X109824376Y-121642773D01*
X109832516Y-121648719D01*
X109833655Y-121649894D01*
X109845023Y-121668826D01*
X109862365Y-121705669D01*
X109883950Y-121755913D01*
X109908046Y-121815046D01*
X109932921Y-121878556D01*
X109956843Y-121941932D01*
X109978081Y-122000662D01*
X109994903Y-122050235D01*
X110005578Y-122086139D01*
X110008373Y-122103862D01*
X110008140Y-122104483D01*
X109998669Y-122118970D01*
X109977182Y-122150844D01*
X109945937Y-122196789D01*
X109907193Y-122253485D01*
X109863207Y-122317617D01*
X109850681Y-122335842D01*
X109806016Y-122401914D01*
X109766712Y-122462200D01*
X109734912Y-122513235D01*
X109712755Y-122551560D01*
X109702383Y-122573711D01*
X109701881Y-122576432D01*
X109710595Y-122590736D01*
X109734675Y-122619072D01*
X109771024Y-122658396D01*
X109816547Y-122705661D01*
X109868148Y-122757823D01*
X109922733Y-122811835D01*
X109977206Y-122864653D01*
X110028471Y-122913231D01*
X110073433Y-122954523D01*
X110108996Y-122985485D01*
X110132065Y-123003070D01*
X110138446Y-123005941D01*
X110153301Y-122999178D01*
X110183714Y-122980939D01*
X110224732Y-122954297D01*
X110256291Y-122932852D01*
X110313475Y-122893503D01*
X110381194Y-122847171D01*
X110449120Y-122800913D01*
X110485639Y-122776155D01*
X110609248Y-122692547D01*
X110713009Y-122748650D01*
X110760280Y-122773228D01*
X110800477Y-122792331D01*
X110827674Y-122803227D01*
X110834598Y-122804743D01*
X110842923Y-122793549D01*
X110859346Y-122761917D01*
X110882643Y-122712765D01*
X110911586Y-122649010D01*
X110944950Y-122573571D01*
X110981509Y-122489364D01*
X111020036Y-122399308D01*
X111059306Y-122306321D01*
X111098092Y-122213320D01*
X111135170Y-122123223D01*
X111169311Y-122038948D01*
X111199292Y-121963413D01*
X111223884Y-121899534D01*
X111241864Y-121850231D01*
X111252003Y-121818421D01*
X111253634Y-121807496D01*
X111240709Y-121793561D01*
X111212411Y-121770940D01*
X111174654Y-121744333D01*
X111171485Y-121742228D01*
X111073900Y-121664114D01*
X110995214Y-121572982D01*
X110936109Y-121471745D01*
X110897268Y-121363318D01*
X110879372Y-121250614D01*
X110883103Y-121136548D01*
X110909143Y-121024034D01*
X110958175Y-120915985D01*
X110972600Y-120892345D01*
X111047631Y-120796887D01*
X111136270Y-120720232D01*
X111235451Y-120662780D01*
X111342105Y-120624929D01*
X111453164Y-120607078D01*
X111565561Y-120609625D01*
X111676227Y-120632970D01*
X111782094Y-120677510D01*
X111880095Y-120743645D01*
X111910410Y-120770487D01*
X111987562Y-120854512D01*
X112043782Y-120942966D01*
X112082347Y-121042115D01*
X112103826Y-121140303D01*
X112109128Y-121250697D01*
X112091448Y-121361640D01*
X112052581Y-121469381D01*
X111994323Y-121570169D01*
X111918469Y-121660256D01*
X111826817Y-121735892D01*
X111814772Y-121743864D01*
X111776611Y-121769974D01*
X111747601Y-121792595D01*
X111733732Y-121807039D01*
X111733531Y-121807496D01*
X111736508Y-121823121D01*
X111748311Y-121858582D01*
X111767714Y-121910962D01*
X111793488Y-121977345D01*
X111824409Y-122054814D01*
X111859249Y-122140450D01*
X111896783Y-122231337D01*
X111935783Y-122324559D01*
X111975023Y-122417197D01*
X112013276Y-122506335D01*
X112049317Y-122589055D01*
X112081917Y-122662441D01*
X112109852Y-122723575D01*
X112131895Y-122769541D01*
X112146818Y-122797421D01*
X112152828Y-122804743D01*
X112171191Y-122799041D01*
X112205552Y-122783749D01*
X112249984Y-122761599D01*
X112274417Y-122748650D01*
X112378178Y-122692547D01*
X112501787Y-122776155D01*
X112564886Y-122818987D01*
X112633970Y-122866122D01*
X112698707Y-122910503D01*
X112731134Y-122932852D01*
X112776741Y-122963477D01*
X112815360Y-122987747D01*
X112841952Y-123002587D01*
X112850590Y-123005724D01*
X112863161Y-122997261D01*
X112890984Y-122973636D01*
X112931361Y-122937302D01*
X112981595Y-122890711D01*
X113038988Y-122836317D01*
X113075286Y-122801392D01*
X113138790Y-122738996D01*
X113193673Y-122683188D01*
X113237714Y-122636354D01*
X113268695Y-122600882D01*
X113284398Y-122579161D01*
X113285905Y-122574752D01*
X113278914Y-122557985D01*
X113259594Y-122524082D01*
X113230091Y-122476476D01*
X113192545Y-122418599D01*
X113149100Y-122353884D01*
X113136745Y-122335842D01*
X113091727Y-122270267D01*
X113051340Y-122211228D01*
X113017840Y-122162042D01*
X112993486Y-122126028D01*
X112980536Y-122106502D01*
X112979285Y-122104483D01*
X112981156Y-122088922D01*
X112991087Y-122054709D01*
X113007347Y-122006355D01*
X113028205Y-121948371D01*
X113051927Y-121885270D01*
X113076784Y-121821563D01*
X113101042Y-121761761D01*
X113122971Y-121710376D01*
X113140838Y-121671919D01*
X113152913Y-121650902D01*
X113153771Y-121649894D01*
X113161154Y-121643888D01*
X113173625Y-121637948D01*
X113193920Y-121631460D01*
X113224778Y-121623809D01*
X113268934Y-121614380D01*
X113329126Y-121602559D01*
X113408093Y-121587729D01*
X113508570Y-121569277D01*
X113530325Y-121565310D01*
X113594802Y-121552853D01*
X113651011Y-121540666D01*
X113693987Y-121529926D01*
X113718760Y-121521809D01*
X113722082Y-121519916D01*
X113727556Y-121503138D01*
X113732006Y-121465645D01*
X113735428Y-121411794D01*
X113737819Y-121345944D01*
X113739177Y-121272453D01*
X113739499Y-121195680D01*
X113738781Y-121119983D01*
X113737021Y-121049720D01*
X113734216Y-120989250D01*
X113730362Y-120942930D01*
X113725457Y-120915119D01*
X113722500Y-120909427D01*
X113706037Y-120903686D01*
X113668551Y-120894345D01*
X113613775Y-120882215D01*
X113545445Y-120868107D01*
X113467294Y-120852830D01*
X113424716Y-120844823D01*
X113343929Y-120829721D01*
X113271887Y-120816040D01*
X113212111Y-120804467D01*
X113168121Y-120795687D01*
X113143439Y-120790387D01*
X113139377Y-120789212D01*
X113132511Y-120775965D01*
X113117998Y-120744057D01*
X113097771Y-120698047D01*
X113073766Y-120642492D01*
X113047918Y-120581953D01*
X113022160Y-120520986D01*
X112998427Y-120464151D01*
X112978654Y-120416006D01*
X112964776Y-120381110D01*
X112958726Y-120364021D01*
X112958614Y-120363274D01*
X112965472Y-120349793D01*
X112984698Y-120318770D01*
X113014272Y-120273289D01*
X113052173Y-120216432D01*
X113096380Y-120151283D01*
X113122079Y-120113862D01*
X113168907Y-120045247D01*
X113210499Y-119982952D01*
X113244825Y-119930129D01*
X113269857Y-119889927D01*
X113283565Y-119865500D01*
X113285544Y-119860024D01*
X113277034Y-119847278D01*
X113253507Y-119820063D01*
X113217968Y-119781428D01*
X113173423Y-119734423D01*
X113122877Y-119682095D01*
X113069336Y-119627495D01*
X113015805Y-119573670D01*
X112965289Y-119523670D01*
X112920794Y-119480543D01*
X112885325Y-119447339D01*
X112861887Y-119427106D01*
X112854046Y-119422278D01*
X112841280Y-119429067D01*
X112810744Y-119448142D01*
X112765410Y-119477561D01*
X112708244Y-119515381D01*
X112642216Y-119559661D01*
X112592410Y-119593395D01*
X112340764Y-119764512D01*
X112131001Y-119678041D01*
X111921237Y-119591570D01*
X111864389Y-119290018D01*
X111807540Y-118988466D01*
X111179885Y-118988466D01*
X111123036Y-119290018D01*
G36*
X109700540Y-123458030D02*
G01*
X109657289Y-123471245D01*
X109629442Y-123487941D01*
X109620371Y-123501145D01*
X109622868Y-123516797D01*
X109639069Y-123541385D01*
X109652768Y-123558800D01*
X109681008Y-123590283D01*
X109702225Y-123603529D01*
X109720312Y-123602664D01*
X109773965Y-123589010D01*
X109813370Y-123589630D01*
X109845368Y-123605104D01*
X109856110Y-123614161D01*
X109890495Y-123646027D01*
X109890495Y-124062179D01*
X110028812Y-124062179D01*
X110028812Y-123458614D01*
X109959653Y-123458614D01*
X109918131Y-123460256D01*
X109896709Y-123466087D01*
X109890498Y-123477461D01*
X109890495Y-123477798D01*
X109887561Y-123489713D01*
X109874296Y-123488159D01*
X109855916Y-123479563D01*
X109817954Y-123463568D01*
X109787128Y-123453945D01*
X109747464Y-123451478D01*
X109700540Y-123458030D01*
G37*
X109700540Y-123458030D02*
X109657289Y-123471245D01*
X109629442Y-123487941D01*
X109620371Y-123501145D01*
X109622868Y-123516797D01*
X109639069Y-123541385D01*
X109652768Y-123558800D01*
X109681008Y-123590283D01*
X109702225Y-123603529D01*
X109720312Y-123602664D01*
X109773965Y-123589010D01*
X109813370Y-123589630D01*
X109845368Y-123605104D01*
X109856110Y-123614161D01*
X109890495Y-123646027D01*
X109890495Y-124062179D01*
X110028812Y-124062179D01*
X110028812Y-123458614D01*
X109959653Y-123458614D01*
X109918131Y-123460256D01*
X109896709Y-123466087D01*
X109890498Y-123477461D01*
X109890495Y-123477798D01*
X109887561Y-123489713D01*
X109874296Y-123488159D01*
X109855916Y-123479563D01*
X109817954Y-123463568D01*
X109787128Y-123453945D01*
X109747464Y-123451478D01*
X109700540Y-123458030D01*
G36*
X112254012Y-123469002D02*
G01*
X112222717Y-123483950D01*
X112192409Y-123505541D01*
X112169318Y-123530391D01*
X112152500Y-123562087D01*
X112141006Y-123604214D01*
X112133891Y-123660358D01*
X112130207Y-123734106D01*
X112129008Y-123829044D01*
X112128989Y-123838985D01*
X112128713Y-124062179D01*
X112267030Y-124062179D01*
X112267030Y-123856418D01*
X112267128Y-123780189D01*
X112267809Y-123724939D01*
X112269651Y-123686501D01*
X112273233Y-123660706D01*
X112279132Y-123643384D01*
X112287927Y-123630368D01*
X112300180Y-123617507D01*
X112343047Y-123589873D01*
X112389843Y-123584745D01*
X112434424Y-123602217D01*
X112449928Y-123615221D01*
X112461310Y-123627447D01*
X112469481Y-123640540D01*
X112474974Y-123658615D01*
X112478320Y-123685787D01*
X112480051Y-123726170D01*
X112480697Y-123783879D01*
X112480792Y-123854132D01*
X112480792Y-124062179D01*
X112619109Y-124062179D01*
X112619109Y-123458614D01*
X112549950Y-123458614D01*
X112508428Y-123460256D01*
X112487006Y-123466087D01*
X112480795Y-123477461D01*
X112480792Y-123477798D01*
X112477910Y-123488938D01*
X112465199Y-123487674D01*
X112439926Y-123475434D01*
X112382605Y-123457424D01*
X112317037Y-123455421D01*
X112254012Y-123469002D01*
G37*
X112254012Y-123469002D02*
X112222717Y-123483950D01*
X112192409Y-123505541D01*
X112169318Y-123530391D01*
X112152500Y-123562087D01*
X112141006Y-123604214D01*
X112133891Y-123660358D01*
X112130207Y-123734106D01*
X112129008Y-123829044D01*
X112128989Y-123838985D01*
X112128713Y-124062179D01*
X112267030Y-124062179D01*
X112267030Y-123856418D01*
X112267128Y-123780189D01*
X112267809Y-123724939D01*
X112269651Y-123686501D01*
X112273233Y-123660706D01*
X112279132Y-123643384D01*
X112287927Y-123630368D01*
X112300180Y-123617507D01*
X112343047Y-123589873D01*
X112389843Y-123584745D01*
X112434424Y-123602217D01*
X112449928Y-123615221D01*
X112461310Y-123627447D01*
X112469481Y-123640540D01*
X112474974Y-123658615D01*
X112478320Y-123685787D01*
X112480051Y-123726170D01*
X112480697Y-123783879D01*
X112480792Y-123854132D01*
X112480792Y-124062179D01*
X112619109Y-124062179D01*
X112619109Y-123458614D01*
X112549950Y-123458614D01*
X112508428Y-123460256D01*
X112487006Y-123466087D01*
X112480795Y-123477461D01*
X112480792Y-123477798D01*
X112477910Y-123488938D01*
X112465199Y-123487674D01*
X112439926Y-123475434D01*
X112382605Y-123457424D01*
X112317037Y-123455421D01*
X112254012Y-123469002D01*
G36*
X108822102Y-123456457D02*
G01*
X108789904Y-123464279D01*
X108728175Y-123492921D01*
X108675390Y-123536667D01*
X108638859Y-123589117D01*
X108633840Y-123600893D01*
X108626955Y-123631740D01*
X108622136Y-123677371D01*
X108620495Y-123723492D01*
X108620495Y-123810693D01*
X108802822Y-123810693D01*
X108878021Y-123810978D01*
X108930997Y-123812704D01*
X108964675Y-123817181D01*
X108981980Y-123825720D01*
X108985837Y-123839630D01*
X108979171Y-123860222D01*
X108967230Y-123884315D01*
X108933920Y-123924525D01*
X108887632Y-123944558D01*
X108831056Y-123943905D01*
X108766969Y-123922101D01*
X108711583Y-123895193D01*
X108665625Y-123931532D01*
X108619667Y-123967872D01*
X108662904Y-124007819D01*
X108720626Y-124045563D01*
X108791614Y-124068320D01*
X108867971Y-124074688D01*
X108941801Y-124063268D01*
X108953713Y-124059393D01*
X109018601Y-124025506D01*
X109066870Y-123974986D01*
X109099535Y-123906325D01*
X109117615Y-123818014D01*
X109117825Y-123816121D01*
X109119444Y-123719878D01*
X109112900Y-123685542D01*
X108985148Y-123685542D01*
X108973416Y-123690822D01*
X108941562Y-123694867D01*
X108894603Y-123697176D01*
X108864846Y-123697525D01*
X108809352Y-123697306D01*
X108774654Y-123695916D01*
X108756399Y-123692251D01*
X108750234Y-123685210D01*
X108751805Y-123673690D01*
X108753122Y-123669233D01*
X108775618Y-123627355D01*
X108810997Y-123593604D01*
X108842220Y-123578773D01*
X108883699Y-123579668D01*
X108925731Y-123598164D01*
X108960988Y-123628786D01*
X108982146Y-123666062D01*
X108985148Y-123685542D01*
X109112900Y-123685542D01*
X109103310Y-123635229D01*
X109071302Y-123564191D01*
X109025299Y-123508779D01*
X108967179Y-123471009D01*
X108898820Y-123452896D01*
X108822102Y-123456457D01*
G37*
X108822102Y-123456457D02*
X108789904Y-123464279D01*
X108728175Y-123492921D01*
X108675390Y-123536667D01*
X108638859Y-123589117D01*
X108633840Y-123600893D01*
X108626955Y-123631740D01*
X108622136Y-123677371D01*
X108620495Y-123723492D01*
X108620495Y-123810693D01*
X108802822Y-123810693D01*
X108878021Y-123810978D01*
X108930997Y-123812704D01*
X108964675Y-123817181D01*
X108981980Y-123825720D01*
X108985837Y-123839630D01*
X108979171Y-123860222D01*
X108967230Y-123884315D01*
X108933920Y-123924525D01*
X108887632Y-123944558D01*
X108831056Y-123943905D01*
X108766969Y-123922101D01*
X108711583Y-123895193D01*
X108665625Y-123931532D01*
X108619667Y-123967872D01*
X108662904Y-124007819D01*
X108720626Y-124045563D01*
X108791614Y-124068320D01*
X108867971Y-124074688D01*
X108941801Y-124063268D01*
X108953713Y-124059393D01*
X109018601Y-124025506D01*
X109066870Y-123974986D01*
X109099535Y-123906325D01*
X109117615Y-123818014D01*
X109117825Y-123816121D01*
X109119444Y-123719878D01*
X109112900Y-123685542D01*
X108985148Y-123685542D01*
X108973416Y-123690822D01*
X108941562Y-123694867D01*
X108894603Y-123697176D01*
X108864846Y-123697525D01*
X108809352Y-123697306D01*
X108774654Y-123695916D01*
X108756399Y-123692251D01*
X108750234Y-123685210D01*
X108751805Y-123673690D01*
X108753122Y-123669233D01*
X108775618Y-123627355D01*
X108810997Y-123593604D01*
X108842220Y-123578773D01*
X108883699Y-123579668D01*
X108925731Y-123598164D01*
X108960988Y-123628786D01*
X108982146Y-123666062D01*
X108985148Y-123685542D01*
X109112900Y-123685542D01*
X109103310Y-123635229D01*
X109071302Y-123564191D01*
X109025299Y-123508779D01*
X108967179Y-123471009D01*
X108898820Y-123452896D01*
X108822102Y-123456457D01*
G36*
X109282774Y-123463880D02*
G01*
X109209920Y-123494830D01*
X109186973Y-123509895D01*
X109157646Y-123533048D01*
X109139236Y-123551253D01*
X109136039Y-123557183D01*
X109145065Y-123570340D01*
X109168163Y-123592667D01*
X109186656Y-123608250D01*
X109237272Y-123648926D01*
X109277240Y-123615295D01*
X109308126Y-123593584D01*
X109338241Y-123586090D01*
X109372708Y-123587920D01*
X109427439Y-123601528D01*
X109465114Y-123629772D01*
X109488009Y-123675433D01*
X109498403Y-123741289D01*
X109498405Y-123741331D01*
X109497506Y-123814939D01*
X109483537Y-123868946D01*
X109455672Y-123905716D01*
X109436675Y-123918168D01*
X109386224Y-123933673D01*
X109332337Y-123933683D01*
X109285454Y-123918638D01*
X109274356Y-123911287D01*
X109246524Y-123892511D01*
X109224764Y-123889434D01*
X109201296Y-123903409D01*
X109175351Y-123928510D01*
X109134284Y-123970880D01*
X109179879Y-124008464D01*
X109250326Y-124050882D01*
X109329767Y-124071785D01*
X109412785Y-124070272D01*
X109467306Y-124056411D01*
X109531030Y-124022135D01*
X109581995Y-123968212D01*
X109605149Y-123930149D01*
X109623901Y-123875536D01*
X109633285Y-123806369D01*
X109633357Y-123731407D01*
X109624176Y-123659409D01*
X109605801Y-123599137D01*
X109602907Y-123592958D01*
X109560048Y-123532351D01*
X109502021Y-123488224D01*
X109433409Y-123461493D01*
X109358799Y-123453073D01*
X109282774Y-123463880D01*
G37*
X109282774Y-123463880D02*
X109209920Y-123494830D01*
X109186973Y-123509895D01*
X109157646Y-123533048D01*
X109139236Y-123551253D01*
X109136039Y-123557183D01*
X109145065Y-123570340D01*
X109168163Y-123592667D01*
X109186656Y-123608250D01*
X109237272Y-123648926D01*
X109277240Y-123615295D01*
X109308126Y-123593584D01*
X109338241Y-123586090D01*
X109372708Y-123587920D01*
X109427439Y-123601528D01*
X109465114Y-123629772D01*
X109488009Y-123675433D01*
X109498403Y-123741289D01*
X109498405Y-123741331D01*
X109497506Y-123814939D01*
X109483537Y-123868946D01*
X109455672Y-123905716D01*
X109436675Y-123918168D01*
X109386224Y-123933673D01*
X109332337Y-123933683D01*
X109285454Y-123918638D01*
X109274356Y-123911287D01*
X109246524Y-123892511D01*
X109224764Y-123889434D01*
X109201296Y-123903409D01*
X109175351Y-123928510D01*
X109134284Y-123970880D01*
X109179879Y-124008464D01*
X109250326Y-124050882D01*
X109329767Y-124071785D01*
X109412785Y-124070272D01*
X109467306Y-124056411D01*
X109531030Y-124022135D01*
X109581995Y-123968212D01*
X109605149Y-123930149D01*
X109623901Y-123875536D01*
X109633285Y-123806369D01*
X109633357Y-123731407D01*
X109624176Y-123659409D01*
X109605801Y-123599137D01*
X109602907Y-123592958D01*
X109560048Y-123532351D01*
X109502021Y-123488224D01*
X109433409Y-123461493D01*
X109358799Y-123453073D01*
X109282774Y-123463880D01*
G36*
X110506633Y-123654342D02*
G01*
X110505445Y-123746563D01*
X110501103Y-123816610D01*
X110492442Y-123867381D01*
X110478296Y-123901772D01*
X110457500Y-123922679D01*
X110428890Y-123933000D01*
X110393465Y-123935636D01*
X110356364Y-123932682D01*
X110328182Y-123921889D01*
X110307757Y-123900360D01*
X110293921Y-123865199D01*
X110285509Y-123813510D01*
X110281357Y-123742394D01*
X110280297Y-123654342D01*
X110280297Y-123458614D01*
X110141980Y-123458614D01*
X110141980Y-124062179D01*
X110211138Y-124062179D01*
X110252830Y-124060489D01*
X110274299Y-124054556D01*
X110280297Y-124043293D01*
X110283909Y-124033261D01*
X110298286Y-124035383D01*
X110327264Y-124049580D01*
X110393681Y-124071480D01*
X110464125Y-124069928D01*
X110531623Y-124046147D01*
X110563767Y-124027362D01*
X110588285Y-124007022D01*
X110606196Y-123981573D01*
X110618521Y-123947458D01*
X110626277Y-123901121D01*
X110630484Y-123839007D01*
X110632160Y-123757561D01*
X110632376Y-123694578D01*
X110632376Y-123458614D01*
X110506633Y-123458614D01*
X110506633Y-123654342D01*
G37*
X110506633Y-123654342D02*
X110505445Y-123746563D01*
X110501103Y-123816610D01*
X110492442Y-123867381D01*
X110478296Y-123901772D01*
X110457500Y-123922679D01*
X110428890Y-123933000D01*
X110393465Y-123935636D01*
X110356364Y-123932682D01*
X110328182Y-123921889D01*
X110307757Y-123900360D01*
X110293921Y-123865199D01*
X110285509Y-123813510D01*
X110281357Y-123742394D01*
X110280297Y-123654342D01*
X110280297Y-123458614D01*
X110141980Y-123458614D01*
X110141980Y-124062179D01*
X110211138Y-124062179D01*
X110252830Y-124060489D01*
X110274299Y-124054556D01*
X110280297Y-124043293D01*
X110283909Y-124033261D01*
X110298286Y-124035383D01*
X110327264Y-124049580D01*
X110393681Y-124071480D01*
X110464125Y-124069928D01*
X110531623Y-124046147D01*
X110563767Y-124027362D01*
X110588285Y-124007022D01*
X110606196Y-123981573D01*
X110618521Y-123947458D01*
X110626277Y-123901121D01*
X110630484Y-123839007D01*
X110632160Y-123757561D01*
X110632376Y-123694578D01*
X110632376Y-123458614D01*
X110506633Y-123458614D01*
X110506633Y-123654342D01*
G36*
X110889238Y-123466055D02*
G01*
X110825637Y-123500692D01*
X110775877Y-123555372D01*
X110752432Y-123599842D01*
X110742366Y-123639121D01*
X110735844Y-123695116D01*
X110733049Y-123759621D01*
X110734164Y-123824429D01*
X110739374Y-123881334D01*
X110745459Y-123911727D01*
X110765986Y-123953306D01*
X110801537Y-123997468D01*
X110844381Y-124036087D01*
X110886789Y-124061034D01*
X110887823Y-124061430D01*
X110940447Y-124072331D01*
X111002812Y-124072601D01*
X111062076Y-124062676D01*
X111084960Y-124054722D01*
X111143898Y-124021300D01*
X111186110Y-123977511D01*
X111213844Y-123919538D01*
X111229349Y-123843565D01*
X111232857Y-123803771D01*
X111232410Y-123753766D01*
X111097624Y-123753766D01*
X111093083Y-123826732D01*
X111080014Y-123882334D01*
X111059244Y-123917861D01*
X111044448Y-123928020D01*
X111006536Y-123935104D01*
X110961473Y-123933007D01*
X110922513Y-123922812D01*
X110912296Y-123917204D01*
X110885341Y-123884538D01*
X110867549Y-123834545D01*
X110859976Y-123773705D01*
X110863675Y-123708497D01*
X110871943Y-123669253D01*
X110895680Y-123623805D01*
X110933151Y-123595396D01*
X110978280Y-123585573D01*
X111024989Y-123595887D01*
X111060868Y-123621112D01*
X111079723Y-123641925D01*
X111090728Y-123662439D01*
X111095974Y-123690203D01*
X111097551Y-123732762D01*
X111097624Y-123753766D01*
X111232410Y-123753766D01*
X111231906Y-123697580D01*
X111214612Y-123610501D01*
X111180971Y-123542530D01*
X111130982Y-123493664D01*
X111064644Y-123463899D01*
X111050399Y-123460448D01*
X110964790Y-123452345D01*
X110889238Y-123466055D01*
G37*
X110889238Y-123466055D02*
X110825637Y-123500692D01*
X110775877Y-123555372D01*
X110752432Y-123599842D01*
X110742366Y-123639121D01*
X110735844Y-123695116D01*
X110733049Y-123759621D01*
X110734164Y-123824429D01*
X110739374Y-123881334D01*
X110745459Y-123911727D01*
X110765986Y-123953306D01*
X110801537Y-123997468D01*
X110844381Y-124036087D01*
X110886789Y-124061034D01*
X110887823Y-124061430D01*
X110940447Y-124072331D01*
X111002812Y-124072601D01*
X111062076Y-124062676D01*
X111084960Y-124054722D01*
X111143898Y-124021300D01*
X111186110Y-123977511D01*
X111213844Y-123919538D01*
X111229349Y-123843565D01*
X111232857Y-123803771D01*
X111232410Y-123753766D01*
X111097624Y-123753766D01*
X111093083Y-123826732D01*
X111080014Y-123882334D01*
X111059244Y-123917861D01*
X111044448Y-123928020D01*
X111006536Y-123935104D01*
X110961473Y-123933007D01*
X110922513Y-123922812D01*
X110912296Y-123917204D01*
X110885341Y-123884538D01*
X110867549Y-123834545D01*
X110859976Y-123773705D01*
X110863675Y-123708497D01*
X110871943Y-123669253D01*
X110895680Y-123623805D01*
X110933151Y-123595396D01*
X110978280Y-123585573D01*
X111024989Y-123595887D01*
X111060868Y-123621112D01*
X111079723Y-123641925D01*
X111090728Y-123662439D01*
X111095974Y-123690203D01*
X111097551Y-123732762D01*
X111097624Y-123753766D01*
X111232410Y-123753766D01*
X111231906Y-123697580D01*
X111214612Y-123610501D01*
X111180971Y-123542530D01*
X111130982Y-123493664D01*
X111064644Y-123463899D01*
X111050399Y-123460448D01*
X110964790Y-123452345D01*
X110889238Y-123466055D01*
G36*
X111485983Y-123456452D02*
G01*
X111438366Y-123465482D01*
X111388966Y-123484370D01*
X111383688Y-123486777D01*
X111346226Y-123506476D01*
X111320283Y-123524781D01*
X111311897Y-123536508D01*
X111319883Y-123555632D01*
X111339280Y-123583850D01*
X111347890Y-123594384D01*
X111383372Y-123635847D01*
X111429115Y-123608858D01*
X111472650Y-123590878D01*
X111522950Y-123581267D01*
X111571188Y-123580660D01*
X111608533Y-123589691D01*
X111617495Y-123595327D01*
X111634563Y-123621171D01*
X111636637Y-123650941D01*
X111623866Y-123674197D01*
X111616312Y-123678708D01*
X111593675Y-123684309D01*
X111553885Y-123690892D01*
X111504834Y-123697183D01*
X111495785Y-123698170D01*
X111417004Y-123711798D01*
X111359864Y-123734946D01*
X111321970Y-123769752D01*
X111300921Y-123818354D01*
X111294365Y-123877718D01*
X111303423Y-123945198D01*
X111332836Y-123998188D01*
X111382722Y-124036783D01*
X111453200Y-124061081D01*
X111531435Y-124070667D01*
X111595234Y-124070552D01*
X111646984Y-124061845D01*
X111682327Y-124049825D01*
X111726983Y-124028880D01*
X111768253Y-124004574D01*
X111782921Y-123993876D01*
X111820643Y-123963084D01*
X111775148Y-123917049D01*
X111729653Y-123871013D01*
X111677928Y-123905243D01*
X111626048Y-123930952D01*
X111570649Y-123944399D01*
X111517395Y-123945818D01*
X111471951Y-123935443D01*
X111439984Y-123913507D01*
X111429662Y-123894998D01*
X111431211Y-123865314D01*
X111456860Y-123842615D01*
X111506540Y-123826940D01*
X111560969Y-123819695D01*
X111644736Y-123805873D01*
X111706967Y-123779796D01*
X111748493Y-123740699D01*
X111770147Y-123687820D01*
X111773147Y-123625126D01*
X111758329Y-123559642D01*
X111724546Y-123510144D01*
X111671495Y-123476408D01*
X111598874Y-123458207D01*
X111545072Y-123454639D01*
X111485983Y-123456452D01*
G37*
X111485983Y-123456452D02*
X111438366Y-123465482D01*
X111388966Y-123484370D01*
X111383688Y-123486777D01*
X111346226Y-123506476D01*
X111320283Y-123524781D01*
X111311897Y-123536508D01*
X111319883Y-123555632D01*
X111339280Y-123583850D01*
X111347890Y-123594384D01*
X111383372Y-123635847D01*
X111429115Y-123608858D01*
X111472650Y-123590878D01*
X111522950Y-123581267D01*
X111571188Y-123580660D01*
X111608533Y-123589691D01*
X111617495Y-123595327D01*
X111634563Y-123621171D01*
X111636637Y-123650941D01*
X111623866Y-123674197D01*
X111616312Y-123678708D01*
X111593675Y-123684309D01*
X111553885Y-123690892D01*
X111504834Y-123697183D01*
X111495785Y-123698170D01*
X111417004Y-123711798D01*
X111359864Y-123734946D01*
X111321970Y-123769752D01*
X111300921Y-123818354D01*
X111294365Y-123877718D01*
X111303423Y-123945198D01*
X111332836Y-123998188D01*
X111382722Y-124036783D01*
X111453200Y-124061081D01*
X111531435Y-124070667D01*
X111595234Y-124070552D01*
X111646984Y-124061845D01*
X111682327Y-124049825D01*
X111726983Y-124028880D01*
X111768253Y-124004574D01*
X111782921Y-123993876D01*
X111820643Y-123963084D01*
X111775148Y-123917049D01*
X111729653Y-123871013D01*
X111677928Y-123905243D01*
X111626048Y-123930952D01*
X111570649Y-123944399D01*
X111517395Y-123945818D01*
X111471951Y-123935443D01*
X111439984Y-123913507D01*
X111429662Y-123894998D01*
X111431211Y-123865314D01*
X111456860Y-123842615D01*
X111506540Y-123826940D01*
X111560969Y-123819695D01*
X111644736Y-123805873D01*
X111706967Y-123779796D01*
X111748493Y-123740699D01*
X111770147Y-123687820D01*
X111773147Y-123625126D01*
X111758329Y-123559642D01*
X111724546Y-123510144D01*
X111671495Y-123476408D01*
X111598874Y-123458207D01*
X111545072Y-123454639D01*
X111485983Y-123456452D01*
G36*
X112856699Y-123472614D02*
G01*
X112844168Y-123478514D01*
X112800799Y-123510283D01*
X112759790Y-123556646D01*
X112729168Y-123607696D01*
X112720459Y-123631166D01*
X112712512Y-123673091D01*
X112707774Y-123723757D01*
X112707199Y-123744679D01*
X112707129Y-123810693D01*
X113087083Y-123810693D01*
X113078983Y-123845273D01*
X113059104Y-123886170D01*
X113024347Y-123921514D01*
X112982998Y-123944282D01*
X112956649Y-123949010D01*
X112920916Y-123943273D01*
X112878282Y-123928882D01*
X112863799Y-123922262D01*
X112810240Y-123895513D01*
X112764533Y-123930376D01*
X112738158Y-123953955D01*
X112724124Y-123973417D01*
X112723414Y-123979129D01*
X112735951Y-123992973D01*
X112763428Y-124014012D01*
X112788366Y-124030425D01*
X112855664Y-124059930D01*
X112931110Y-124073284D01*
X113005888Y-124069812D01*
X113065495Y-124051663D01*
X113126941Y-124012784D01*
X113170608Y-123961595D01*
X113197926Y-123895367D01*
X113210322Y-123811371D01*
X113211421Y-123772936D01*
X113207022Y-123684861D01*
X113206482Y-123682299D01*
X113080582Y-123682299D01*
X113077115Y-123690558D01*
X113062863Y-123695113D01*
X113033470Y-123697065D01*
X112984575Y-123697517D01*
X112965748Y-123697525D01*
X112908467Y-123696843D01*
X112872141Y-123694364D01*
X112852604Y-123689443D01*
X112845690Y-123681434D01*
X112845445Y-123678862D01*
X112853336Y-123658423D01*
X112873085Y-123629789D01*
X112881575Y-123619763D01*
X112913094Y-123591408D01*
X112945949Y-123580259D01*
X112963651Y-123579327D01*
X113011539Y-123590981D01*
X113051699Y-123622285D01*
X113077173Y-123667752D01*
X113077625Y-123669233D01*
X113080582Y-123682299D01*
X113206482Y-123682299D01*
X113192392Y-123615510D01*
X113166038Y-123560025D01*
X113133807Y-123520639D01*
X113074217Y-123477931D01*
X113004168Y-123455109D01*
X112929661Y-123453046D01*
X112856699Y-123472614D01*
G37*
X112856699Y-123472614D02*
X112844168Y-123478514D01*
X112800799Y-123510283D01*
X112759790Y-123556646D01*
X112729168Y-123607696D01*
X112720459Y-123631166D01*
X112712512Y-123673091D01*
X112707774Y-123723757D01*
X112707199Y-123744679D01*
X112707129Y-123810693D01*
X113087083Y-123810693D01*
X113078983Y-123845273D01*
X113059104Y-123886170D01*
X113024347Y-123921514D01*
X112982998Y-123944282D01*
X112956649Y-123949010D01*
X112920916Y-123943273D01*
X112878282Y-123928882D01*
X112863799Y-123922262D01*
X112810240Y-123895513D01*
X112764533Y-123930376D01*
X112738158Y-123953955D01*
X112724124Y-123973417D01*
X112723414Y-123979129D01*
X112735951Y-123992973D01*
X112763428Y-124014012D01*
X112788366Y-124030425D01*
X112855664Y-124059930D01*
X112931110Y-124073284D01*
X113005888Y-124069812D01*
X113065495Y-124051663D01*
X113126941Y-124012784D01*
X113170608Y-123961595D01*
X113197926Y-123895367D01*
X113210322Y-123811371D01*
X113211421Y-123772936D01*
X113207022Y-123684861D01*
X113206482Y-123682299D01*
X113080582Y-123682299D01*
X113077115Y-123690558D01*
X113062863Y-123695113D01*
X113033470Y-123697065D01*
X112984575Y-123697517D01*
X112965748Y-123697525D01*
X112908467Y-123696843D01*
X112872141Y-123694364D01*
X112852604Y-123689443D01*
X112845690Y-123681434D01*
X112845445Y-123678862D01*
X112853336Y-123658423D01*
X112873085Y-123629789D01*
X112881575Y-123619763D01*
X112913094Y-123591408D01*
X112945949Y-123580259D01*
X112963651Y-123579327D01*
X113011539Y-123590981D01*
X113051699Y-123622285D01*
X113077173Y-123667752D01*
X113077625Y-123669233D01*
X113080582Y-123682299D01*
X113206482Y-123682299D01*
X113192392Y-123615510D01*
X113166038Y-123560025D01*
X113133807Y-123520639D01*
X113074217Y-123477931D01*
X113004168Y-123455109D01*
X112929661Y-123453046D01*
X112856699Y-123472614D01*
G36*
X114038261Y-123465148D02*
G01*
X113972479Y-123494231D01*
X113922540Y-123542793D01*
X113888374Y-123610908D01*
X113869907Y-123698651D01*
X113868583Y-123712351D01*
X113867546Y-123808939D01*
X113880993Y-123893602D01*
X113908108Y-123962221D01*
X113922627Y-123984294D01*
X113973201Y-124031011D01*
X114037609Y-124061268D01*
X114109666Y-124073824D01*
X114183185Y-124067439D01*
X114239072Y-124047772D01*
X114287132Y-124014629D01*
X114326412Y-123971175D01*
X114327092Y-123970158D01*
X114343044Y-123943338D01*
X114353410Y-123916368D01*
X114359688Y-123882332D01*
X114363373Y-123834310D01*
X114364997Y-123794931D01*
X114365672Y-123759219D01*
X114239955Y-123759219D01*
X114238726Y-123794770D01*
X114234266Y-123842094D01*
X114226397Y-123872465D01*
X114212207Y-123894072D01*
X114198917Y-123906694D01*
X114151802Y-123933122D01*
X114102505Y-123936653D01*
X114056593Y-123917639D01*
X114033638Y-123896331D01*
X114017096Y-123874859D01*
X114007421Y-123854313D01*
X114003174Y-123827574D01*
X114002920Y-123787523D01*
X114004228Y-123750638D01*
X114007043Y-123697947D01*
X114011505Y-123663772D01*
X114019548Y-123641480D01*
X114033103Y-123624442D01*
X114043845Y-123614703D01*
X114088777Y-123589123D01*
X114137249Y-123587847D01*
X114177894Y-123602999D01*
X114212567Y-123634642D01*
X114233224Y-123686620D01*
X114239955Y-123759219D01*
X114365672Y-123759219D01*
X114366479Y-123716621D01*
X114363948Y-123658056D01*
X114356362Y-123614007D01*
X114342681Y-123579248D01*
X114321865Y-123548551D01*
X114314147Y-123539436D01*
X114265889Y-123494021D01*
X114214128Y-123467493D01*
X114150828Y-123456379D01*
X114119961Y-123455471D01*
X114038261Y-123465148D01*
G37*
X114038261Y-123465148D02*
X113972479Y-123494231D01*
X113922540Y-123542793D01*
X113888374Y-123610908D01*
X113869907Y-123698651D01*
X113868583Y-123712351D01*
X113867546Y-123808939D01*
X113880993Y-123893602D01*
X113908108Y-123962221D01*
X113922627Y-123984294D01*
X113973201Y-124031011D01*
X114037609Y-124061268D01*
X114109666Y-124073824D01*
X114183185Y-124067439D01*
X114239072Y-124047772D01*
X114287132Y-124014629D01*
X114326412Y-123971175D01*
X114327092Y-123970158D01*
X114343044Y-123943338D01*
X114353410Y-123916368D01*
X114359688Y-123882332D01*
X114363373Y-123834310D01*
X114364997Y-123794931D01*
X114365672Y-123759219D01*
X114239955Y-123759219D01*
X114238726Y-123794770D01*
X114234266Y-123842094D01*
X114226397Y-123872465D01*
X114212207Y-123894072D01*
X114198917Y-123906694D01*
X114151802Y-123933122D01*
X114102505Y-123936653D01*
X114056593Y-123917639D01*
X114033638Y-123896331D01*
X114017096Y-123874859D01*
X114007421Y-123854313D01*
X114003174Y-123827574D01*
X114002920Y-123787523D01*
X114004228Y-123750638D01*
X114007043Y-123697947D01*
X114011505Y-123663772D01*
X114019548Y-123641480D01*
X114033103Y-123624442D01*
X114043845Y-123614703D01*
X114088777Y-123589123D01*
X114137249Y-123587847D01*
X114177894Y-123602999D01*
X114212567Y-123634642D01*
X114233224Y-123686620D01*
X114239955Y-123759219D01*
X114365672Y-123759219D01*
X114366479Y-123716621D01*
X114363948Y-123658056D01*
X114356362Y-123614007D01*
X114342681Y-123579248D01*
X114321865Y-123548551D01*
X114314147Y-123539436D01*
X114265889Y-123494021D01*
X114214128Y-123467493D01*
X114150828Y-123456379D01*
X114119961Y-123455471D01*
X114038261Y-123465148D01*
G36*
X109467419Y-124404970D02*
G01*
X109407315Y-124420597D01*
X109356979Y-124452848D01*
X109332607Y-124476940D01*
X109292655Y-124533895D01*
X109269758Y-124599965D01*
X109261892Y-124681182D01*
X109261852Y-124687748D01*
X109261782Y-124753763D01*
X109641736Y-124753763D01*
X109633637Y-124788342D01*
X109619013Y-124819659D01*
X109593419Y-124852291D01*
X109588065Y-124857500D01*
X109542057Y-124885694D01*
X109489590Y-124890475D01*
X109429197Y-124871926D01*
X109418960Y-124866931D01*
X109387561Y-124851745D01*
X109366530Y-124843094D01*
X109362861Y-124842293D01*
X109350052Y-124850063D01*
X109325622Y-124869072D01*
X109313221Y-124879460D01*
X109287524Y-124903321D01*
X109279085Y-124919077D01*
X109284942Y-124933571D01*
X109288072Y-124937534D01*
X109309275Y-124954879D01*
X109344262Y-124975959D01*
X109368663Y-124988265D01*
X109437928Y-125009946D01*
X109514612Y-125016971D01*
X109587235Y-125008647D01*
X109607574Y-125002686D01*
X109670524Y-124968952D01*
X109717185Y-124917045D01*
X109747827Y-124846459D01*
X109762718Y-124756692D01*
X109764353Y-124709753D01*
X109759579Y-124641413D01*
X109639010Y-124641413D01*
X109627348Y-124646465D01*
X109596002Y-124650429D01*
X109550429Y-124652768D01*
X109519554Y-124653169D01*
X109464019Y-124652783D01*
X109428967Y-124650975D01*
X109409738Y-124646773D01*
X109401670Y-124639203D01*
X109400099Y-124628218D01*
X109410879Y-124594381D01*
X109438020Y-124560940D01*
X109473723Y-124535272D01*
X109509440Y-124524772D01*
X109557952Y-124534086D01*
X109599947Y-124561013D01*
X109629064Y-124599827D01*
X109639010Y-124641413D01*
X109759579Y-124641413D01*
X109757401Y-124610236D01*
X109735945Y-124530949D01*
X109699530Y-124471263D01*
X109647703Y-124430549D01*
X109580010Y-124408179D01*
X109543338Y-124403871D01*
X109467419Y-124404970D01*
G37*
X109467419Y-124404970D02*
X109407315Y-124420597D01*
X109356979Y-124452848D01*
X109332607Y-124476940D01*
X109292655Y-124533895D01*
X109269758Y-124599965D01*
X109261892Y-124681182D01*
X109261852Y-124687748D01*
X109261782Y-124753763D01*
X109641736Y-124753763D01*
X109633637Y-124788342D01*
X109619013Y-124819659D01*
X109593419Y-124852291D01*
X109588065Y-124857500D01*
X109542057Y-124885694D01*
X109489590Y-124890475D01*
X109429197Y-124871926D01*
X109418960Y-124866931D01*
X109387561Y-124851745D01*
X109366530Y-124843094D01*
X109362861Y-124842293D01*
X109350052Y-124850063D01*
X109325622Y-124869072D01*
X109313221Y-124879460D01*
X109287524Y-124903321D01*
X109279085Y-124919077D01*
X109284942Y-124933571D01*
X109288072Y-124937534D01*
X109309275Y-124954879D01*
X109344262Y-124975959D01*
X109368663Y-124988265D01*
X109437928Y-125009946D01*
X109514612Y-125016971D01*
X109587235Y-125008647D01*
X109607574Y-125002686D01*
X109670524Y-124968952D01*
X109717185Y-124917045D01*
X109747827Y-124846459D01*
X109762718Y-124756692D01*
X109764353Y-124709753D01*
X109759579Y-124641413D01*
X109639010Y-124641413D01*
X109627348Y-124646465D01*
X109596002Y-124650429D01*
X109550429Y-124652768D01*
X109519554Y-124653169D01*
X109464019Y-124652783D01*
X109428967Y-124650975D01*
X109409738Y-124646773D01*
X109401670Y-124639203D01*
X109400099Y-124628218D01*
X109410879Y-124594381D01*
X109438020Y-124560940D01*
X109473723Y-124535272D01*
X109509440Y-124524772D01*
X109557952Y-124534086D01*
X109599947Y-124561013D01*
X109629064Y-124599827D01*
X109639010Y-124641413D01*
X109759579Y-124641413D01*
X109757401Y-124610236D01*
X109735945Y-124530949D01*
X109699530Y-124471263D01*
X109647703Y-124430549D01*
X109580010Y-124408179D01*
X109543338Y-124403871D01*
X109467419Y-124404970D01*
G36*
X109864745Y-124401486D02*
G01*
X109816405Y-124411015D01*
X109788886Y-124425125D01*
X109759936Y-124448568D01*
X109801124Y-124500571D01*
X109826518Y-124532064D01*
X109843762Y-124547428D01*
X109860898Y-124549776D01*
X109885973Y-124542217D01*
X109897743Y-124537941D01*
X109945730Y-124531631D01*
X109989676Y-124545156D01*
X110021940Y-124575710D01*
X110027181Y-124585452D01*
X110032888Y-124611258D01*
X110037294Y-124658817D01*
X110040189Y-124724758D01*
X110041369Y-124805710D01*
X110041386Y-124817226D01*
X110041386Y-125017822D01*
X110179703Y-125017822D01*
X110179703Y-124401683D01*
X110110544Y-124401683D01*
X110070667Y-124402725D01*
X110049893Y-124407358D01*
X110042211Y-124417849D01*
X110041386Y-124427745D01*
X110041386Y-124453806D01*
X110008255Y-124427745D01*
X109970265Y-124409965D01*
X109919230Y-124401174D01*
X109864745Y-124401486D01*
G37*
X109864745Y-124401486D02*
X109816405Y-124411015D01*
X109788886Y-124425125D01*
X109759936Y-124448568D01*
X109801124Y-124500571D01*
X109826518Y-124532064D01*
X109843762Y-124547428D01*
X109860898Y-124549776D01*
X109885973Y-124542217D01*
X109897743Y-124537941D01*
X109945730Y-124531631D01*
X109989676Y-124545156D01*
X110021940Y-124575710D01*
X110027181Y-124585452D01*
X110032888Y-124611258D01*
X110037294Y-124658817D01*
X110040189Y-124724758D01*
X110041369Y-124805710D01*
X110041386Y-124817226D01*
X110041386Y-125017822D01*
X110179703Y-125017822D01*
X110179703Y-124401683D01*
X110110544Y-124401683D01*
X110070667Y-124402725D01*
X110049893Y-124407358D01*
X110042211Y-124417849D01*
X110041386Y-124427745D01*
X110041386Y-124453806D01*
X110008255Y-124427745D01*
X109970265Y-124409965D01*
X109919230Y-124401174D01*
X109864745Y-124401486D01*
G36*
X110461589Y-124405417D02*
G01*
X110408589Y-124418290D01*
X110393269Y-124425110D01*
X110363572Y-124442974D01*
X110340780Y-124463093D01*
X110323917Y-124488962D01*
X110312002Y-124524073D01*
X110304058Y-124571920D01*
X110299106Y-124635996D01*
X110296169Y-124719794D01*
X110295053Y-124775768D01*
X110290948Y-125017822D01*
X110361068Y-125017822D01*
X110403607Y-125016038D01*
X110425524Y-125009942D01*
X110431188Y-124999706D01*
X110434179Y-124988637D01*
X110447549Y-124990754D01*
X110465767Y-124999629D01*
X110511376Y-125013233D01*
X110569993Y-125016899D01*
X110631646Y-125010903D01*
X110686362Y-124995521D01*
X110691270Y-124993386D01*
X110741277Y-124958255D01*
X110774244Y-124909419D01*
X110789413Y-124852333D01*
X110788254Y-124831824D01*
X110664492Y-124831824D01*
X110653587Y-124859425D01*
X110621255Y-124879204D01*
X110569090Y-124889819D01*
X110541213Y-124891228D01*
X110494753Y-124887620D01*
X110463871Y-124873597D01*
X110456336Y-124866931D01*
X110435924Y-124830666D01*
X110431188Y-124797773D01*
X110431188Y-124753763D01*
X110492487Y-124753763D01*
X110563744Y-124757395D01*
X110613724Y-124768818D01*
X110645304Y-124788824D01*
X110652374Y-124797743D01*
X110664492Y-124831824D01*
X110788254Y-124831824D01*
X110786029Y-124792456D01*
X110763337Y-124735244D01*
X110732376Y-124696580D01*
X110713624Y-124679864D01*
X110695267Y-124668878D01*
X110671381Y-124662180D01*
X110636043Y-124658326D01*
X110583331Y-124655873D01*
X110562423Y-124655168D01*
X110431188Y-124650879D01*
X110431380Y-124611158D01*
X110436463Y-124569405D01*
X110454838Y-124544158D01*
X110491961Y-124528030D01*
X110492957Y-124527742D01*
X110545590Y-124521400D01*
X110597094Y-124529684D01*
X110635370Y-124549827D01*
X110650728Y-124559773D01*
X110667270Y-124558397D01*
X110692725Y-124543987D01*
X110707672Y-124533817D01*
X110736909Y-124512088D01*
X110755020Y-124495800D01*
X110757926Y-124491137D01*
X110745960Y-124467005D01*
X110710604Y-124438185D01*
X110695247Y-124428461D01*
X110651099Y-124411714D01*
X110591602Y-124402227D01*
X110525513Y-124400095D01*
X110461589Y-124405417D01*
G37*
X110461589Y-124405417D02*
X110408589Y-124418290D01*
X110393269Y-124425110D01*
X110363572Y-124442974D01*
X110340780Y-124463093D01*
X110323917Y-124488962D01*
X110312002Y-124524073D01*
X110304058Y-124571920D01*
X110299106Y-124635996D01*
X110296169Y-124719794D01*
X110295053Y-124775768D01*
X110290948Y-125017822D01*
X110361068Y-125017822D01*
X110403607Y-125016038D01*
X110425524Y-125009942D01*
X110431188Y-124999706D01*
X110434179Y-124988637D01*
X110447549Y-124990754D01*
X110465767Y-124999629D01*
X110511376Y-125013233D01*
X110569993Y-125016899D01*
X110631646Y-125010903D01*
X110686362Y-124995521D01*
X110691270Y-124993386D01*
X110741277Y-124958255D01*
X110774244Y-124909419D01*
X110789413Y-124852333D01*
X110788254Y-124831824D01*
X110664492Y-124831824D01*
X110653587Y-124859425D01*
X110621255Y-124879204D01*
X110569090Y-124889819D01*
X110541213Y-124891228D01*
X110494753Y-124887620D01*
X110463871Y-124873597D01*
X110456336Y-124866931D01*
X110435924Y-124830666D01*
X110431188Y-124797773D01*
X110431188Y-124753763D01*
X110492487Y-124753763D01*
X110563744Y-124757395D01*
X110613724Y-124768818D01*
X110645304Y-124788824D01*
X110652374Y-124797743D01*
X110664492Y-124831824D01*
X110788254Y-124831824D01*
X110786029Y-124792456D01*
X110763337Y-124735244D01*
X110732376Y-124696580D01*
X110713624Y-124679864D01*
X110695267Y-124668878D01*
X110671381Y-124662180D01*
X110636043Y-124658326D01*
X110583331Y-124655873D01*
X110562423Y-124655168D01*
X110431188Y-124650879D01*
X110431380Y-124611158D01*
X110436463Y-124569405D01*
X110454838Y-124544158D01*
X110491961Y-124528030D01*
X110492957Y-124527742D01*
X110545590Y-124521400D01*
X110597094Y-124529684D01*
X110635370Y-124549827D01*
X110650728Y-124559773D01*
X110667270Y-124558397D01*
X110692725Y-124543987D01*
X110707672Y-124533817D01*
X110736909Y-124512088D01*
X110755020Y-124495800D01*
X110757926Y-124491137D01*
X110745960Y-124467005D01*
X110710604Y-124438185D01*
X110695247Y-124428461D01*
X110651099Y-124411714D01*
X110591602Y-124402227D01*
X110525513Y-124400095D01*
X110461589Y-124405417D01*
G36*
X111218476Y-124404237D02*
G01*
X111168745Y-124407971D01*
X111038709Y-124797773D01*
X111018322Y-124728614D01*
X111006054Y-124685874D01*
X110989915Y-124628115D01*
X110972488Y-124564625D01*
X110963274Y-124530570D01*
X110928612Y-124401683D01*
X110785609Y-124401683D01*
X110828354Y-124536857D01*
X110849404Y-124603342D01*
X110874833Y-124683539D01*
X110901390Y-124767193D01*
X110925098Y-124841782D01*
X110979098Y-125011535D01*
X111037402Y-125015328D01*
X111095705Y-125019122D01*
X111127321Y-124914734D01*
X111146818Y-124849889D01*
X111168096Y-124778400D01*
X111186692Y-124715263D01*
X111187426Y-124712750D01*
X111201316Y-124669969D01*
X111213571Y-124640779D01*
X111222154Y-124629741D01*
X111223918Y-124631018D01*
X111230109Y-124648130D01*
X111241872Y-124684787D01*
X111257775Y-124736378D01*
X111276386Y-124798294D01*
X111286457Y-124832352D01*
X111340993Y-125017822D01*
X111456736Y-125017822D01*
X111549263Y-124725471D01*
X111575256Y-124643462D01*
X111598934Y-124568987D01*
X111619180Y-124505544D01*
X111634874Y-124456632D01*
X111644898Y-124425749D01*
X111647945Y-124416726D01*
X111645533Y-124407487D01*
X111626592Y-124403441D01*
X111587177Y-124403846D01*
X111581007Y-124404152D01*
X111507914Y-124407971D01*
X111460043Y-124584010D01*
X111442447Y-124648211D01*
X111426723Y-124704649D01*
X111414254Y-124748422D01*
X111406426Y-124774630D01*
X111404980Y-124778903D01*
X111398986Y-124773990D01*
X111386899Y-124748532D01*
X111370107Y-124705997D01*
X111349997Y-124649850D01*
X111332997Y-124599130D01*
X111268206Y-124400504D01*
X111218476Y-124404237D01*
G37*
X111218476Y-124404237D02*
X111168745Y-124407971D01*
X111038709Y-124797773D01*
X111018322Y-124728614D01*
X111006054Y-124685874D01*
X110989915Y-124628115D01*
X110972488Y-124564625D01*
X110963274Y-124530570D01*
X110928612Y-124401683D01*
X110785609Y-124401683D01*
X110828354Y-124536857D01*
X110849404Y-124603342D01*
X110874833Y-124683539D01*
X110901390Y-124767193D01*
X110925098Y-124841782D01*
X110979098Y-125011535D01*
X111037402Y-125015328D01*
X111095705Y-125019122D01*
X111127321Y-124914734D01*
X111146818Y-124849889D01*
X111168096Y-124778400D01*
X111186692Y-124715263D01*
X111187426Y-124712750D01*
X111201316Y-124669969D01*
X111213571Y-124640779D01*
X111222154Y-124629741D01*
X111223918Y-124631018D01*
X111230109Y-124648130D01*
X111241872Y-124684787D01*
X111257775Y-124736378D01*
X111276386Y-124798294D01*
X111286457Y-124832352D01*
X111340993Y-125017822D01*
X111456736Y-125017822D01*
X111549263Y-124725471D01*
X111575256Y-124643462D01*
X111598934Y-124568987D01*
X111619180Y-124505544D01*
X111634874Y-124456632D01*
X111644898Y-124425749D01*
X111647945Y-124416726D01*
X111645533Y-124407487D01*
X111626592Y-124403441D01*
X111587177Y-124403846D01*
X111581007Y-124404152D01*
X111507914Y-124407971D01*
X111460043Y-124584010D01*
X111442447Y-124648211D01*
X111426723Y-124704649D01*
X111414254Y-124748422D01*
X111406426Y-124774630D01*
X111404980Y-124778903D01*
X111398986Y-124773990D01*
X111386899Y-124748532D01*
X111370107Y-124705997D01*
X111349997Y-124649850D01*
X111332997Y-124599130D01*
X111268206Y-124400504D01*
X111218476Y-124404237D01*
G36*
X111701188Y-125017822D02*
G01*
X111770346Y-125017822D01*
X111810488Y-125016645D01*
X111831394Y-125011772D01*
X111838922Y-125001186D01*
X111839505Y-124994029D01*
X111840774Y-124979676D01*
X111848779Y-124976923D01*
X111869815Y-124985771D01*
X111886173Y-124994029D01*
X111948977Y-125013597D01*
X112017248Y-125014729D01*
X112072752Y-125000135D01*
X112124438Y-124964877D01*
X112163838Y-124912835D01*
X112185413Y-124851450D01*
X112185962Y-124848018D01*
X112189167Y-124810571D01*
X112190761Y-124756813D01*
X112190633Y-124716155D01*
X112053279Y-124716155D01*
X112050097Y-124770194D01*
X112042859Y-124814735D01*
X112033060Y-124839888D01*
X111995989Y-124874260D01*
X111951974Y-124886582D01*
X111906584Y-124876618D01*
X111867797Y-124846895D01*
X111853108Y-124826905D01*
X111844519Y-124803050D01*
X111840496Y-124768230D01*
X111839505Y-124715930D01*
X111841278Y-124664139D01*
X111845963Y-124618634D01*
X111852603Y-124588181D01*
X111853710Y-124585452D01*
X111880491Y-124553000D01*
X111919579Y-124535183D01*
X111963315Y-124532306D01*
X112004038Y-124544674D01*
X112034087Y-124572593D01*
X112037204Y-124578148D01*
X112046961Y-124612022D01*
X112052277Y-124660728D01*
X112053279Y-124716155D01*
X112190633Y-124716155D01*
X112190568Y-124695540D01*
X112189664Y-124662563D01*
X112183514Y-124580981D01*
X112170733Y-124519730D01*
X112149471Y-124474449D01*
X112117878Y-124440779D01*
X112087207Y-124421014D01*
X112044354Y-124407120D01*
X111991056Y-124402354D01*
X111936480Y-124406236D01*
X111889792Y-124418282D01*
X111865124Y-124432693D01*
X111839505Y-124455878D01*
X111839505Y-124162773D01*
X111701188Y-124162773D01*
X111701188Y-125017822D01*
G37*
X111701188Y-125017822D02*
X111770346Y-125017822D01*
X111810488Y-125016645D01*
X111831394Y-125011772D01*
X111838922Y-125001186D01*
X111839505Y-124994029D01*
X111840774Y-124979676D01*
X111848779Y-124976923D01*
X111869815Y-124985771D01*
X111886173Y-124994029D01*
X111948977Y-125013597D01*
X112017248Y-125014729D01*
X112072752Y-125000135D01*
X112124438Y-124964877D01*
X112163838Y-124912835D01*
X112185413Y-124851450D01*
X112185962Y-124848018D01*
X112189167Y-124810571D01*
X112190761Y-124756813D01*
X112190633Y-124716155D01*
X112053279Y-124716155D01*
X112050097Y-124770194D01*
X112042859Y-124814735D01*
X112033060Y-124839888D01*
X111995989Y-124874260D01*
X111951974Y-124886582D01*
X111906584Y-124876618D01*
X111867797Y-124846895D01*
X111853108Y-124826905D01*
X111844519Y-124803050D01*
X111840496Y-124768230D01*
X111839505Y-124715930D01*
X111841278Y-124664139D01*
X111845963Y-124618634D01*
X111852603Y-124588181D01*
X111853710Y-124585452D01*
X111880491Y-124553000D01*
X111919579Y-124535183D01*
X111963315Y-124532306D01*
X112004038Y-124544674D01*
X112034087Y-124572593D01*
X112037204Y-124578148D01*
X112046961Y-124612022D01*
X112052277Y-124660728D01*
X112053279Y-124716155D01*
X112190633Y-124716155D01*
X112190568Y-124695540D01*
X112189664Y-124662563D01*
X112183514Y-124580981D01*
X112170733Y-124519730D01*
X112149471Y-124474449D01*
X112117878Y-124440779D01*
X112087207Y-124421014D01*
X112044354Y-124407120D01*
X111991056Y-124402354D01*
X111936480Y-124406236D01*
X111889792Y-124418282D01*
X111865124Y-124432693D01*
X111839505Y-124455878D01*
X111839505Y-124162773D01*
X111701188Y-124162773D01*
X111701188Y-125017822D01*
G36*
X112493356Y-124403020D02*
G01*
X112474539Y-124408660D01*
X112468473Y-124421053D01*
X112468218Y-124426647D01*
X112467129Y-124442230D01*
X112459632Y-124444676D01*
X112439381Y-124433993D01*
X112427351Y-124426694D01*
X112389400Y-124411063D01*
X112344072Y-124403334D01*
X112296544Y-124402740D01*
X112251995Y-124408513D01*
X112215602Y-124419884D01*
X112192543Y-124436088D01*
X112187996Y-124456355D01*
X112190291Y-124461843D01*
X112207020Y-124484626D01*
X112232963Y-124512647D01*
X112237655Y-124517177D01*
X112262383Y-124538005D01*
X112283718Y-124544735D01*
X112313555Y-124540038D01*
X112325508Y-124536917D01*
X112362705Y-124529421D01*
X112388859Y-124532792D01*
X112410946Y-124544681D01*
X112431178Y-124560635D01*
X112446079Y-124580700D01*
X112456434Y-124608702D01*
X112463029Y-124648467D01*
X112466649Y-124703823D01*
X112468078Y-124778594D01*
X112468218Y-124823740D01*
X112468218Y-125017822D01*
X112593960Y-125017822D01*
X112593960Y-124401683D01*
X112531089Y-124401683D01*
X112493356Y-124403020D01*
G37*
X112493356Y-124403020D02*
X112474539Y-124408660D01*
X112468473Y-124421053D01*
X112468218Y-124426647D01*
X112467129Y-124442230D01*
X112459632Y-124444676D01*
X112439381Y-124433993D01*
X112427351Y-124426694D01*
X112389400Y-124411063D01*
X112344072Y-124403334D01*
X112296544Y-124402740D01*
X112251995Y-124408513D01*
X112215602Y-124419884D01*
X112192543Y-124436088D01*
X112187996Y-124456355D01*
X112190291Y-124461843D01*
X112207020Y-124484626D01*
X112232963Y-124512647D01*
X112237655Y-124517177D01*
X112262383Y-124538005D01*
X112283718Y-124544735D01*
X112313555Y-124540038D01*
X112325508Y-124536917D01*
X112362705Y-124529421D01*
X112388859Y-124532792D01*
X112410946Y-124544681D01*
X112431178Y-124560635D01*
X112446079Y-124580700D01*
X112456434Y-124608702D01*
X112463029Y-124648467D01*
X112466649Y-124703823D01*
X112468078Y-124778594D01*
X112468218Y-124823740D01*
X112468218Y-125017822D01*
X112593960Y-125017822D01*
X112593960Y-124401683D01*
X112531089Y-124401683D01*
X112493356Y-124403020D01*
G36*
X112884210Y-124406555D02*
G01*
X112825055Y-124422339D01*
X112780023Y-124450948D01*
X112748246Y-124488419D01*
X112738366Y-124504411D01*
X112731073Y-124521163D01*
X112725974Y-124542592D01*
X112722679Y-124572616D01*
X112720797Y-124615154D01*
X112719937Y-124674122D01*
X112719707Y-124753440D01*
X112719703Y-124774484D01*
X112719703Y-125017822D01*
X112780059Y-125017822D01*
X112818557Y-125015126D01*
X112847023Y-125008295D01*
X112854155Y-125004083D01*
X112873652Y-124996813D01*
X112893566Y-125004083D01*
X112926353Y-125013160D01*
X112973978Y-125016813D01*
X113026764Y-125015228D01*
X113075036Y-125008589D01*
X113103218Y-125000072D01*
X113157753Y-124965063D01*
X113191835Y-124916479D01*
X113207157Y-124851882D01*
X113207299Y-124850223D01*
X113205955Y-124821566D01*
X113084356Y-124821566D01*
X113073726Y-124854161D01*
X113056410Y-124872505D01*
X113021652Y-124886379D01*
X112975773Y-124891917D01*
X112928988Y-124889191D01*
X112891514Y-124878274D01*
X112881015Y-124871269D01*
X112862668Y-124838904D01*
X112858020Y-124802111D01*
X112858020Y-124753763D01*
X112927582Y-124753763D01*
X112993667Y-124758850D01*
X113043764Y-124773263D01*
X113074929Y-124795729D01*
X113084356Y-124821566D01*
X113205955Y-124821566D01*
X113203987Y-124779647D01*
X113180710Y-124723845D01*
X113136948Y-124681647D01*
X113130899Y-124677808D01*
X113104907Y-124665309D01*
X113072735Y-124657740D01*
X113027760Y-124654061D01*
X112974331Y-124653216D01*
X112858020Y-124653169D01*
X112858020Y-124604411D01*
X112862953Y-124566581D01*
X112875543Y-124541236D01*
X112877017Y-124539887D01*
X112905034Y-124528800D01*
X112947326Y-124524503D01*
X112994064Y-124526615D01*
X113035418Y-124534756D01*
X113059957Y-124546965D01*
X113073253Y-124556746D01*
X113087294Y-124558613D01*
X113106671Y-124550600D01*
X113135976Y-124530739D01*
X113179803Y-124497063D01*
X113183825Y-124493909D01*
X113181764Y-124482236D01*
X113164568Y-124462822D01*
X113138433Y-124441248D01*
X113109552Y-124423096D01*
X113100478Y-124418809D01*
X113067380Y-124410256D01*
X113018880Y-124404155D01*
X112964695Y-124401708D01*
X112962161Y-124401703D01*
X112884210Y-124406555D01*
G37*
X112884210Y-124406555D02*
X112825055Y-124422339D01*
X112780023Y-124450948D01*
X112748246Y-124488419D01*
X112738366Y-124504411D01*
X112731073Y-124521163D01*
X112725974Y-124542592D01*
X112722679Y-124572616D01*
X112720797Y-124615154D01*
X112719937Y-124674122D01*
X112719707Y-124753440D01*
X112719703Y-124774484D01*
X112719703Y-125017822D01*
X112780059Y-125017822D01*
X112818557Y-125015126D01*
X112847023Y-125008295D01*
X112854155Y-125004083D01*
X112873652Y-124996813D01*
X112893566Y-125004083D01*
X112926353Y-125013160D01*
X112973978Y-125016813D01*
X113026764Y-125015228D01*
X113075036Y-125008589D01*
X113103218Y-125000072D01*
X113157753Y-124965063D01*
X113191835Y-124916479D01*
X113207157Y-124851882D01*
X113207299Y-124850223D01*
X113205955Y-124821566D01*
X113084356Y-124821566D01*
X113073726Y-124854161D01*
X113056410Y-124872505D01*
X113021652Y-124886379D01*
X112975773Y-124891917D01*
X112928988Y-124889191D01*
X112891514Y-124878274D01*
X112881015Y-124871269D01*
X112862668Y-124838904D01*
X112858020Y-124802111D01*
X112858020Y-124753763D01*
X112927582Y-124753763D01*
X112993667Y-124758850D01*
X113043764Y-124773263D01*
X113074929Y-124795729D01*
X113084356Y-124821566D01*
X113205955Y-124821566D01*
X113203987Y-124779647D01*
X113180710Y-124723845D01*
X113136948Y-124681647D01*
X113130899Y-124677808D01*
X113104907Y-124665309D01*
X113072735Y-124657740D01*
X113027760Y-124654061D01*
X112974331Y-124653216D01*
X112858020Y-124653169D01*
X112858020Y-124604411D01*
X112862953Y-124566581D01*
X112875543Y-124541236D01*
X112877017Y-124539887D01*
X112905034Y-124528800D01*
X112947326Y-124524503D01*
X112994064Y-124526615D01*
X113035418Y-124534756D01*
X113059957Y-124546965D01*
X113073253Y-124556746D01*
X113087294Y-124558613D01*
X113106671Y-124550600D01*
X113135976Y-124530739D01*
X113179803Y-124497063D01*
X113183825Y-124493909D01*
X113181764Y-124482236D01*
X113164568Y-124462822D01*
X113138433Y-124441248D01*
X113109552Y-124423096D01*
X113100478Y-124418809D01*
X113067380Y-124410256D01*
X113018880Y-124404155D01*
X112964695Y-124401708D01*
X112962161Y-124401703D01*
X112884210Y-124406555D01*
G36*
X113408759Y-123469184D02*
G01*
X113382247Y-123482282D01*
X113349553Y-123505106D01*
X113325725Y-123529996D01*
X113309406Y-123561249D01*
X113299240Y-123603166D01*
X113293872Y-123660044D01*
X113291944Y-123736184D01*
X113291831Y-123768917D01*
X113292161Y-123840656D01*
X113293527Y-123891927D01*
X113296500Y-123927404D01*
X113301649Y-123951763D01*
X113309543Y-123969680D01*
X113317757Y-123981902D01*
X113370187Y-124033905D01*
X113431930Y-124065184D01*
X113498536Y-124074592D01*
X113565558Y-124060980D01*
X113586792Y-124051354D01*
X113637624Y-124024859D01*
X113637624Y-124440052D01*
X113600525Y-124420868D01*
X113551643Y-124406025D01*
X113491561Y-124402222D01*
X113431564Y-124409243D01*
X113386256Y-124425013D01*
X113348675Y-124455047D01*
X113316564Y-124498024D01*
X113314150Y-124502436D01*
X113303967Y-124523221D01*
X113296530Y-124544170D01*
X113291411Y-124569548D01*
X113288181Y-124603618D01*
X113286413Y-124650641D01*
X113285677Y-124714882D01*
X113285544Y-124787176D01*
X113285544Y-125017822D01*
X113423861Y-125017822D01*
X113423861Y-124592533D01*
X113462549Y-124559979D01*
X113502738Y-124533940D01*
X113540797Y-124529205D01*
X113579066Y-124541389D01*
X113599462Y-124553320D01*
X113614642Y-124570313D01*
X113625438Y-124595995D01*
X113632683Y-124633991D01*
X113637208Y-124687926D01*
X113639844Y-124761425D01*
X113640772Y-124810347D01*
X113643911Y-125011535D01*
X113709926Y-125015336D01*
X113775940Y-125019136D01*
X113775940Y-123770650D01*
X113637624Y-123770650D01*
X113634097Y-123840254D01*
X113622215Y-123888569D01*
X113600020Y-123918631D01*
X113565559Y-123933471D01*
X113530742Y-123936436D01*
X113491329Y-123933028D01*
X113465171Y-123919617D01*
X113448814Y-123901896D01*
X113435937Y-123882835D01*
X113428272Y-123861601D01*
X113424861Y-123831849D01*
X113424749Y-123787236D01*
X113425897Y-123749880D01*
X113428532Y-123693604D01*
X113432456Y-123656658D01*
X113439063Y-123633223D01*
X113449749Y-123617480D01*
X113459833Y-123608380D01*
X113501970Y-123588537D01*
X113551840Y-123585332D01*
X113580476Y-123592168D01*
X113608828Y-123616464D01*
X113627609Y-123663728D01*
X113636712Y-123733624D01*
X113637624Y-123770650D01*
X113775940Y-123770650D01*
X113775940Y-123458614D01*
X113706782Y-123458614D01*
X113665260Y-123460256D01*
X113643838Y-123466087D01*
X113637626Y-123477461D01*
X113637624Y-123477798D01*
X113634742Y-123488938D01*
X113622030Y-123487673D01*
X113596757Y-123475433D01*
X113537869Y-123456707D01*
X113471615Y-123454739D01*
X113408759Y-123469184D01*
G37*
X113408759Y-123469184D02*
X113382247Y-123482282D01*
X113349553Y-123505106D01*
X113325725Y-123529996D01*
X113309406Y-123561249D01*
X113299240Y-123603166D01*
X113293872Y-123660044D01*
X113291944Y-123736184D01*
X113291831Y-123768917D01*
X113292161Y-123840656D01*
X113293527Y-123891927D01*
X113296500Y-123927404D01*
X113301649Y-123951763D01*
X113309543Y-123969680D01*
X113317757Y-123981902D01*
X113370187Y-124033905D01*
X113431930Y-124065184D01*
X113498536Y-124074592D01*
X113565558Y-124060980D01*
X113586792Y-124051354D01*
X113637624Y-124024859D01*
X113637624Y-124440052D01*
X113600525Y-124420868D01*
X113551643Y-124406025D01*
X113491561Y-124402222D01*
X113431564Y-124409243D01*
X113386256Y-124425013D01*
X113348675Y-124455047D01*
X113316564Y-124498024D01*
X113314150Y-124502436D01*
X113303967Y-124523221D01*
X113296530Y-124544170D01*
X113291411Y-124569548D01*
X113288181Y-124603618D01*
X113286413Y-124650641D01*
X113285677Y-124714882D01*
X113285544Y-124787176D01*
X113285544Y-125017822D01*
X113423861Y-125017822D01*
X113423861Y-124592533D01*
X113462549Y-124559979D01*
X113502738Y-124533940D01*
X113540797Y-124529205D01*
X113579066Y-124541389D01*
X113599462Y-124553320D01*
X113614642Y-124570313D01*
X113625438Y-124595995D01*
X113632683Y-124633991D01*
X113637208Y-124687926D01*
X113639844Y-124761425D01*
X113640772Y-124810347D01*
X113643911Y-125011535D01*
X113709926Y-125015336D01*
X113775940Y-125019136D01*
X113775940Y-123770650D01*
X113637624Y-123770650D01*
X113634097Y-123840254D01*
X113622215Y-123888569D01*
X113600020Y-123918631D01*
X113565559Y-123933471D01*
X113530742Y-123936436D01*
X113491329Y-123933028D01*
X113465171Y-123919617D01*
X113448814Y-123901896D01*
X113435937Y-123882835D01*
X113428272Y-123861601D01*
X113424861Y-123831849D01*
X113424749Y-123787236D01*
X113425897Y-123749880D01*
X113428532Y-123693604D01*
X113432456Y-123656658D01*
X113439063Y-123633223D01*
X113449749Y-123617480D01*
X113459833Y-123608380D01*
X113501970Y-123588537D01*
X113551840Y-123585332D01*
X113580476Y-123592168D01*
X113608828Y-123616464D01*
X113627609Y-123663728D01*
X113636712Y-123733624D01*
X113637624Y-123770650D01*
X113775940Y-123770650D01*
X113775940Y-123458614D01*
X113706782Y-123458614D01*
X113665260Y-123460256D01*
X113643838Y-123466087D01*
X113637626Y-123477461D01*
X113637624Y-123477798D01*
X113634742Y-123488938D01*
X113622030Y-123487673D01*
X113596757Y-123475433D01*
X113537869Y-123456707D01*
X113471615Y-123454739D01*
X113408759Y-123469184D01*
D11*
X162553571Y-120689285D02*
X162553571Y-119939285D01*
X162375000Y-119939285D01*
X162267857Y-119975000D01*
X162196428Y-120046428D01*
X162160714Y-120117857D01*
X162125000Y-120260714D01*
X162125000Y-120367857D01*
X162160714Y-120510714D01*
X162196428Y-120582142D01*
X162267857Y-120653571D01*
X162375000Y-120689285D01*
X162553571Y-120689285D01*
X161875000Y-119939285D02*
X161410714Y-119939285D01*
X161660714Y-120225000D01*
X161553571Y-120225000D01*
X161482142Y-120260714D01*
X161446428Y-120296428D01*
X161410714Y-120367857D01*
X161410714Y-120546428D01*
X161446428Y-120617857D01*
X161482142Y-120653571D01*
X161553571Y-120689285D01*
X161767857Y-120689285D01*
X161839285Y-120653571D01*
X161875000Y-120617857D01*
X162553571Y-103189285D02*
X162553571Y-102439285D01*
X162375000Y-102439285D01*
X162267857Y-102475000D01*
X162196428Y-102546428D01*
X162160714Y-102617857D01*
X162125000Y-102760714D01*
X162125000Y-102867857D01*
X162160714Y-103010714D01*
X162196428Y-103082142D01*
X162267857Y-103153571D01*
X162375000Y-103189285D01*
X162553571Y-103189285D01*
X161839285Y-102510714D02*
X161803571Y-102475000D01*
X161732142Y-102439285D01*
X161553571Y-102439285D01*
X161482142Y-102475000D01*
X161446428Y-102510714D01*
X161410714Y-102582142D01*
X161410714Y-102653571D01*
X161446428Y-102760714D01*
X161875000Y-103189285D01*
X161410714Y-103189285D01*
X122953571Y-111939285D02*
X122953571Y-111189285D01*
X122775000Y-111189285D01*
X122667857Y-111225000D01*
X122596428Y-111296428D01*
X122560714Y-111367857D01*
X122525000Y-111510714D01*
X122525000Y-111617857D01*
X122560714Y-111760714D01*
X122596428Y-111832142D01*
X122667857Y-111903571D01*
X122775000Y-111939285D01*
X122953571Y-111939285D01*
X121810714Y-111939285D02*
X122239285Y-111939285D01*
X122025000Y-111939285D02*
X122025000Y-111189285D01*
X122096428Y-111296428D01*
X122167857Y-111367857D01*
X122239285Y-111403571D01*
X152750000Y-119089285D02*
X152750000Y-119625000D01*
X152785714Y-119732142D01*
X152857142Y-119803571D01*
X152964285Y-119839285D01*
X153035714Y-119839285D01*
X152428571Y-119160714D02*
X152392857Y-119125000D01*
X152321428Y-119089285D01*
X152142857Y-119089285D01*
X152071428Y-119125000D01*
X152035714Y-119160714D01*
X152000000Y-119232142D01*
X152000000Y-119303571D01*
X152035714Y-119410714D01*
X152464285Y-119839285D01*
X152000000Y-119839285D01*
X152750000Y-100089285D02*
X152750000Y-100625000D01*
X152785714Y-100732142D01*
X152857142Y-100803571D01*
X152964285Y-100839285D01*
X153035714Y-100839285D01*
X152000000Y-100839285D02*
X152428571Y-100839285D01*
X152214285Y-100839285D02*
X152214285Y-100089285D01*
X152285714Y-100196428D01*
X152357142Y-100267857D01*
X152428571Y-100303571D01*
%LPC*%
D10*
G36*
X155000000Y-117500000D02*
G01*
X140000000Y-117500000D01*
X140000000Y-102500000D01*
X155000000Y-102500000D01*
X155000000Y-117500000D01*
G37*
X155000000Y-117500000D02*
X140000000Y-117500000D01*
X140000000Y-102500000D01*
X155000000Y-102500000D01*
X155000000Y-117500000D01*
D14*
X162475000Y-118750000D03*
D15*
X161325000Y-118350000D03*
X161325000Y-119150000D03*
D14*
X162475000Y-101250000D03*
D15*
X161325000Y-100850000D03*
X161325000Y-101650000D03*
D14*
X122875000Y-110000000D03*
D15*
X121725000Y-109600000D03*
X121725000Y-110400000D03*
D16*
X167000000Y-114000000D03*
X164500000Y-114000000D03*
X162500000Y-114000000D03*
D17*
X160000000Y-114000000D03*
D18*
X156930000Y-116710000D03*
X170070000Y-116710000D03*
D16*
X119000000Y-113500000D03*
X119000000Y-111000000D03*
X119000000Y-109000000D03*
D17*
X119000000Y-106500000D03*
D18*
X116290000Y-103430000D03*
X116290000Y-116570000D03*
D16*
X160000000Y-106000000D03*
X162500000Y-106000000D03*
X164500000Y-106000000D03*
D17*
X167000000Y-106000000D03*
D18*
X170070000Y-103290000D03*
X156930000Y-103290000D03*
D19*
X142600000Y-122100000D03*
X142600000Y-97900000D03*
X118450000Y-122100000D03*
X118450000Y-97900000D03*
D20*
X148700000Y-124160000D03*
X149100000Y-124160000D03*
X149500000Y-124160000D03*
X149900000Y-124160000D03*
X150300000Y-124160000D03*
X146700000Y-121840000D03*
X150700000Y-124160000D03*
X147100000Y-121840000D03*
X151100000Y-124160000D03*
X147500000Y-121840000D03*
X151500000Y-124160000D03*
X147900000Y-121840000D03*
X151900000Y-124160000D03*
X148300000Y-121840000D03*
X152300000Y-124160000D03*
X148700000Y-121840000D03*
X152700000Y-124160000D03*
X149100000Y-121840000D03*
X153100000Y-124160000D03*
X149500000Y-121840000D03*
X153500000Y-124160000D03*
X149900000Y-121840000D03*
X153900000Y-124160000D03*
X150300000Y-121840000D03*
X154300000Y-124160000D03*
X150700000Y-121840000D03*
X154700000Y-124160000D03*
X151100000Y-121840000D03*
X155100000Y-124160000D03*
X151500000Y-121840000D03*
X155500000Y-124160000D03*
X151900000Y-121840000D03*
X155900000Y-124160000D03*
X152300000Y-121840000D03*
X156300000Y-124160000D03*
X152700000Y-121840000D03*
X156700000Y-124160000D03*
X153100000Y-121840000D03*
X157100000Y-124160000D03*
X153500000Y-121840000D03*
X157500000Y-124160000D03*
X153900000Y-121840000D03*
X157900000Y-124160000D03*
X154300000Y-121840000D03*
X158300000Y-124160000D03*
X154700000Y-121840000D03*
X146700000Y-124160000D03*
X155100000Y-121840000D03*
X147100000Y-124160000D03*
X155500000Y-121840000D03*
X147500000Y-124160000D03*
X155900000Y-121840000D03*
X147900000Y-124160000D03*
X156300000Y-121840000D03*
X148300000Y-124160000D03*
X156700000Y-121840000D03*
X157100000Y-121840000D03*
X157500000Y-121840000D03*
X157900000Y-121840000D03*
X158300000Y-121840000D03*
X148700000Y-98160000D03*
X149100000Y-98160000D03*
X149500000Y-98160000D03*
X149900000Y-98160000D03*
X150300000Y-98160000D03*
X146700000Y-95840000D03*
X150700000Y-98160000D03*
X147100000Y-95840000D03*
X151100000Y-98160000D03*
X147500000Y-95840000D03*
X151500000Y-98160000D03*
X147900000Y-95840000D03*
X151900000Y-98160000D03*
X148300000Y-95840000D03*
X152300000Y-98160000D03*
X148700000Y-95840000D03*
X152700000Y-98160000D03*
X149100000Y-95840000D03*
X153100000Y-98160000D03*
X149500000Y-95840000D03*
X153500000Y-98160000D03*
X149900000Y-95840000D03*
X153900000Y-98160000D03*
X150300000Y-95840000D03*
X154300000Y-98160000D03*
X150700000Y-95840000D03*
X154700000Y-98160000D03*
X151100000Y-95840000D03*
X155100000Y-98160000D03*
X151500000Y-95840000D03*
X155500000Y-98160000D03*
X151900000Y-95840000D03*
X155900000Y-98160000D03*
X152300000Y-95840000D03*
X156300000Y-98160000D03*
X152700000Y-95840000D03*
X156700000Y-98160000D03*
X153100000Y-95840000D03*
X157100000Y-98160000D03*
X153500000Y-95840000D03*
X157500000Y-98160000D03*
X153900000Y-95840000D03*
X157900000Y-98160000D03*
X154300000Y-95840000D03*
X158300000Y-98160000D03*
X154700000Y-95840000D03*
X146700000Y-98160000D03*
X155100000Y-95840000D03*
X147100000Y-98160000D03*
X155500000Y-95840000D03*
X147500000Y-98160000D03*
X155900000Y-95840000D03*
X147900000Y-98160000D03*
X156300000Y-95840000D03*
X148300000Y-98160000D03*
X156700000Y-95840000D03*
X157100000Y-95840000D03*
X157500000Y-95840000D03*
X157900000Y-95840000D03*
X158300000Y-95840000D03*
M02*
