G04 #@! TF.GenerationSoftware,KiCad,Pcbnew,(5.1.5-0-10_14)*
G04 #@! TF.CreationDate,2020-04-12T13:28:57-07:00*
G04 #@! TF.ProjectId,kimchi_usb_ulid,6b696d63-6869-45f7-9573-625f756c6964,v0.1*
G04 #@! TF.SameCoordinates,Original*
G04 #@! TF.FileFunction,Copper,L2,Inr*
G04 #@! TF.FilePolarity,Positive*
%FSLAX46Y46*%
G04 Gerber Fmt 4.6, Leading zero omitted, Abs format (unit mm)*
G04 Created by KiCad (PCBNEW (5.1.5-0-10_14)) date 2020-04-12 13:28:57*
%MOMM*%
%LPD*%
G04 APERTURE LIST*
%ADD10C,0.150000*%
%ADD11C,1.600000*%
%ADD12R,1.600000X1.600000*%
%ADD13C,3.000000*%
%ADD14C,5.000000*%
%ADD15C,0.457200*%
%ADD16C,1.000000*%
%ADD17C,0.400000*%
%ADD18C,0.146812*%
%ADD19C,0.127000*%
G04 APERTURE END LIST*
D10*
X107000000Y-126000000D02*
X107000000Y-94000000D01*
X172000000Y-126000000D02*
X107000000Y-126000000D01*
X172000000Y-94000000D02*
X172000000Y-126000000D01*
X107000000Y-94000000D02*
X172000000Y-94000000D01*
D11*
X167000000Y-114000000D03*
X164500000Y-114000000D03*
X162500000Y-114000000D03*
D12*
X160000000Y-114000000D03*
D13*
X156930000Y-116710000D03*
X170070000Y-116710000D03*
D11*
X119000000Y-113500000D03*
X119000000Y-111000000D03*
X119000000Y-109000000D03*
D12*
X119000000Y-106500000D03*
D13*
X116290000Y-103430000D03*
X116290000Y-116570000D03*
D11*
X160000000Y-106000000D03*
X162500000Y-106000000D03*
X164500000Y-106000000D03*
D12*
X167000000Y-106000000D03*
D13*
X170070000Y-103290000D03*
X156930000Y-103290000D03*
D14*
X142600000Y-122100000D03*
X142600000Y-97900000D03*
X118450000Y-122100000D03*
X118450000Y-97900000D03*
D15*
X134199962Y-99700000D03*
X136700000Y-99700000D03*
X135900000Y-101400000D03*
D16*
X141500000Y-104000000D03*
X143000000Y-104000000D03*
X141500000Y-105500000D03*
X143000000Y-105500000D03*
X144500000Y-104000000D03*
X146000000Y-104000000D03*
X147500000Y-104000000D03*
X149000000Y-104000000D03*
X150500000Y-104000000D03*
X152000000Y-104000000D03*
X153500000Y-104000000D03*
X144500000Y-105500000D03*
X146000000Y-105500000D03*
X147500000Y-105500000D03*
X149000000Y-105500000D03*
X150500000Y-105500000D03*
X152000000Y-105500000D03*
X153500000Y-105500000D03*
X152000000Y-107000000D03*
X144500000Y-108500000D03*
X146000000Y-108500000D03*
X147500000Y-108500000D03*
X147500000Y-107000000D03*
X149000000Y-107000000D03*
X149000000Y-108500000D03*
X152000000Y-108500000D03*
X143000000Y-108500000D03*
X141500000Y-108500000D03*
X153500000Y-107000000D03*
X150500000Y-107000000D03*
X146000000Y-107000000D03*
X141500000Y-107000000D03*
X150500000Y-108500000D03*
X144500000Y-107000000D03*
X143000000Y-107000000D03*
X153500000Y-108500000D03*
X153500000Y-111500000D03*
X150500000Y-110000000D03*
X153500000Y-110000000D03*
X144500000Y-110000000D03*
X141500000Y-110000000D03*
X150500000Y-111500000D03*
X146000000Y-110000000D03*
X143000000Y-110000000D03*
X141500000Y-111500000D03*
X149000000Y-110000000D03*
X147500000Y-111500000D03*
X152000000Y-110000000D03*
X149000000Y-111500000D03*
X146000000Y-111500000D03*
X143000000Y-111500000D03*
X144500000Y-111500000D03*
X152000000Y-111500000D03*
X147500000Y-110000000D03*
X149000000Y-113000000D03*
X153500000Y-113000000D03*
X146000000Y-113000000D03*
X152000000Y-114500000D03*
X146000000Y-114500000D03*
X152000000Y-113000000D03*
X150500000Y-114500000D03*
X150500000Y-113000000D03*
X143000000Y-113000000D03*
X147500000Y-113000000D03*
X147500000Y-114500000D03*
X141500000Y-113000000D03*
X149000000Y-114500000D03*
X144500000Y-114500000D03*
X141500000Y-114500000D03*
X144500000Y-113000000D03*
X143000000Y-114500000D03*
X153500000Y-114500000D03*
X141500000Y-116000000D03*
X143000000Y-116000000D03*
X144500000Y-116000000D03*
X146000000Y-116000000D03*
X147500000Y-116000000D03*
X149000000Y-116000000D03*
X150500000Y-116000000D03*
X152000000Y-116000000D03*
X153500000Y-116000000D03*
D15*
X129900000Y-95500000D03*
X127900000Y-95500000D03*
X125900000Y-95500000D03*
X122900000Y-95500000D03*
X149200000Y-123000000D03*
X149700000Y-123000000D03*
X150200000Y-123000000D03*
X150700000Y-123000000D03*
X154100000Y-123000000D03*
X154600000Y-123000000D03*
X155100000Y-123000000D03*
X155600000Y-123000000D03*
X153900000Y-94600000D03*
X153400000Y-94600002D03*
X152900000Y-94600000D03*
X154400000Y-94600000D03*
X146000000Y-95500000D03*
X149000000Y-100250000D03*
X130750000Y-110000000D03*
X136000000Y-106250000D03*
X132500000Y-113750000D03*
X138250000Y-110000000D03*
X132000000Y-106250000D03*
X126900000Y-95500000D03*
X128900000Y-95500000D03*
X135000000Y-113750000D03*
X138000000Y-104000000D03*
X139000000Y-104000000D03*
X146750000Y-99265658D03*
X145500000Y-95000000D03*
X149000000Y-94499998D03*
X157043454Y-100043454D03*
X157456546Y-100456546D03*
X160292100Y-124250000D03*
X159707900Y-124250000D03*
D17*
X124800000Y-108513500D03*
X124800000Y-107986500D03*
D15*
X130000000Y-109542100D03*
X130000000Y-108957900D03*
X127500000Y-111042100D03*
X127500000Y-110457900D03*
X160000000Y-95000000D03*
X160500000Y-95000000D03*
X161000000Y-95000000D03*
X161500000Y-95000000D03*
X161500000Y-95500000D03*
X161000000Y-95500000D03*
X160500000Y-95500000D03*
X160000000Y-95500000D03*
X160000000Y-96000000D03*
X160500000Y-96000000D03*
X161000000Y-96000000D03*
X161500000Y-96000000D03*
X161500000Y-96500000D03*
X161000000Y-96500000D03*
X160500000Y-96500000D03*
X160000000Y-96500000D03*
X160000000Y-97000000D03*
X160500000Y-97000000D03*
X161000000Y-97000000D03*
X161500000Y-97000000D03*
X126750000Y-99750000D03*
X127250000Y-99750000D03*
X127750000Y-99750000D03*
X127750000Y-100250000D03*
X127250000Y-100250000D03*
X126750000Y-100250000D03*
X126750000Y-100750000D03*
X127250000Y-100750000D03*
X127750000Y-100750000D03*
X154500000Y-97000000D03*
X137500000Y-113000000D03*
X155750000Y-112000000D03*
X132600000Y-116800000D03*
X126200000Y-101100000D03*
X139000000Y-113000000D03*
X158500000Y-112000000D03*
X155750000Y-113000000D03*
X137250000Y-113750000D03*
X161250000Y-109000000D03*
X138250000Y-113000000D03*
X153500000Y-100500000D03*
X139500000Y-107500000D03*
X146500000Y-123000000D03*
X133500000Y-116800000D03*
X127500000Y-105900000D03*
X138250000Y-109250000D03*
X125400000Y-97700000D03*
X138250000Y-108665797D03*
X127400000Y-97700000D03*
X138250000Y-110750000D03*
X123400000Y-97700000D03*
X136750000Y-106250000D03*
X129400000Y-97700000D03*
D18*
X155500000Y-112250000D02*
X155750000Y-112000000D01*
X140500000Y-112250000D02*
X155500000Y-112250000D01*
X139320993Y-113429007D02*
X140500000Y-112250000D01*
X137929007Y-113429007D02*
X139320993Y-113429007D01*
X137500000Y-113000000D02*
X137929007Y-113429007D01*
X155000000Y-113750000D02*
X137250000Y-113750000D01*
X155750000Y-113000000D02*
X155000000Y-113750000D01*
X139500000Y-107500000D02*
X139500000Y-111000000D01*
X139500000Y-111000000D02*
X138500000Y-112000000D01*
X138500000Y-112000000D02*
X137000000Y-112000000D01*
X137000000Y-112000000D02*
X136000000Y-113000000D01*
X136000000Y-113000000D02*
X136000000Y-117000000D01*
X136000000Y-117000000D02*
X137000000Y-118000000D01*
X137000000Y-118000000D02*
X145500000Y-118000000D01*
X146500000Y-119000000D02*
X146500000Y-123000000D01*
X145500000Y-118000000D02*
X146500000Y-119000000D01*
X133500000Y-116800000D02*
X133500000Y-110400000D01*
X129000000Y-105900000D02*
X127500000Y-105900000D01*
X133500000Y-110400000D02*
X129000000Y-105900000D01*
X125400000Y-101400000D02*
X125400000Y-97700000D01*
X133350000Y-109250000D02*
X133000000Y-108900000D01*
X138250000Y-109250000D02*
X133350000Y-109250000D01*
X133000000Y-108900000D02*
X125400000Y-101400000D01*
X128500000Y-104000000D02*
X128500000Y-98800000D01*
X128500000Y-98800000D02*
X127400000Y-97700000D01*
X133165797Y-108665797D02*
X128500000Y-104000000D01*
X138250000Y-108665797D02*
X133165797Y-108665797D01*
X123400000Y-99800000D02*
X123400000Y-97700000D01*
X134350000Y-110750000D02*
X123400000Y-99800000D01*
X138250000Y-110750000D02*
X134350000Y-110750000D01*
X129400000Y-104500000D02*
X129400000Y-97700000D01*
X132200000Y-107300000D02*
X129400000Y-104500000D01*
X136023289Y-107300000D02*
X132200000Y-107300000D01*
X136750000Y-106573289D02*
X136023289Y-107300000D01*
X136750000Y-106250000D02*
X136750000Y-106573289D01*
D19*
G36*
X148628598Y-94301480D02*
G01*
X148597006Y-94377751D01*
X148580900Y-94458720D01*
X148580900Y-94541276D01*
X148597006Y-94622245D01*
X148628598Y-94698516D01*
X148674464Y-94767159D01*
X148732839Y-94825534D01*
X148801482Y-94871400D01*
X148877753Y-94902992D01*
X148958722Y-94919098D01*
X149041278Y-94919098D01*
X149122247Y-94902992D01*
X149198518Y-94871400D01*
X149267161Y-94825534D01*
X149325536Y-94767159D01*
X149371402Y-94698516D01*
X149402994Y-94622245D01*
X149419100Y-94541276D01*
X149419100Y-94458720D01*
X149402994Y-94377751D01*
X149371402Y-94301480D01*
X149347361Y-94265500D01*
X171734500Y-94265500D01*
X171734500Y-102985197D01*
X171700069Y-102812098D01*
X171569413Y-102598810D01*
X170878223Y-103290000D01*
X171569413Y-103981190D01*
X171700069Y-103767902D01*
X171734500Y-103585939D01*
X171734501Y-116405199D01*
X171700069Y-116232098D01*
X171569413Y-116018810D01*
X170878223Y-116710000D01*
X171569413Y-117401190D01*
X171700069Y-117187902D01*
X171734501Y-117005936D01*
X171734501Y-125734500D01*
X107265500Y-125734500D01*
X107265500Y-124338117D01*
X117020106Y-124338117D01*
X117359176Y-124573684D01*
X117862728Y-124738962D01*
X118388848Y-124802827D01*
X118917318Y-124762823D01*
X119427830Y-124620488D01*
X119540824Y-124573684D01*
X119879894Y-124338117D01*
X141170106Y-124338117D01*
X141509176Y-124573684D01*
X142012728Y-124738962D01*
X142538848Y-124802827D01*
X143067318Y-124762823D01*
X143577830Y-124620488D01*
X143690824Y-124573684D01*
X144029894Y-124338117D01*
X143900499Y-124208722D01*
X159288800Y-124208722D01*
X159288800Y-124291278D01*
X159304906Y-124372247D01*
X159336498Y-124448518D01*
X159382364Y-124517161D01*
X159440739Y-124575536D01*
X159509382Y-124621402D01*
X159585653Y-124652994D01*
X159666622Y-124669100D01*
X159749178Y-124669100D01*
X159830147Y-124652994D01*
X159906418Y-124621402D01*
X159975061Y-124575536D01*
X160000000Y-124550597D01*
X160024939Y-124575536D01*
X160093582Y-124621402D01*
X160169853Y-124652994D01*
X160250822Y-124669100D01*
X160333378Y-124669100D01*
X160414347Y-124652994D01*
X160490618Y-124621402D01*
X160559261Y-124575536D01*
X160617636Y-124517161D01*
X160663502Y-124448518D01*
X160695094Y-124372247D01*
X160711200Y-124291278D01*
X160711200Y-124208722D01*
X160695094Y-124127753D01*
X160663502Y-124051482D01*
X160617636Y-123982839D01*
X160559261Y-123924464D01*
X160490618Y-123878598D01*
X160414347Y-123847006D01*
X160333378Y-123830900D01*
X160250822Y-123830900D01*
X160169853Y-123847006D01*
X160093582Y-123878598D01*
X160024939Y-123924464D01*
X160000000Y-123949403D01*
X159975061Y-123924464D01*
X159906418Y-123878598D01*
X159830147Y-123847006D01*
X159749178Y-123830900D01*
X159666622Y-123830900D01*
X159585653Y-123847006D01*
X159509382Y-123878598D01*
X159440739Y-123924464D01*
X159382364Y-123982839D01*
X159336498Y-124051482D01*
X159304906Y-124127753D01*
X159288800Y-124208722D01*
X143900499Y-124208722D01*
X142600000Y-122908223D01*
X141170106Y-124338117D01*
X119879894Y-124338117D01*
X118450000Y-122908223D01*
X117020106Y-124338117D01*
X107265500Y-124338117D01*
X107265500Y-122038848D01*
X115747173Y-122038848D01*
X115787177Y-122567318D01*
X115929512Y-123077830D01*
X115976316Y-123190824D01*
X116211883Y-123529894D01*
X117641777Y-122100000D01*
X119258223Y-122100000D01*
X120688117Y-123529894D01*
X120923684Y-123190824D01*
X121088962Y-122687272D01*
X121152827Y-122161152D01*
X121143569Y-122038848D01*
X139897173Y-122038848D01*
X139937177Y-122567318D01*
X140079512Y-123077830D01*
X140126316Y-123190824D01*
X140361883Y-123529894D01*
X141791777Y-122100000D01*
X143408223Y-122100000D01*
X144838117Y-123529894D01*
X145073684Y-123190824D01*
X145238962Y-122687272D01*
X145302827Y-122161152D01*
X145262823Y-121632682D01*
X145120488Y-121122170D01*
X145073684Y-121009176D01*
X144838117Y-120670106D01*
X143408223Y-122100000D01*
X141791777Y-122100000D01*
X140361883Y-120670106D01*
X140126316Y-121009176D01*
X139961038Y-121512728D01*
X139897173Y-122038848D01*
X121143569Y-122038848D01*
X121112823Y-121632682D01*
X120970488Y-121122170D01*
X120923684Y-121009176D01*
X120688117Y-120670106D01*
X119258223Y-122100000D01*
X117641777Y-122100000D01*
X116211883Y-120670106D01*
X115976316Y-121009176D01*
X115811038Y-121512728D01*
X115747173Y-122038848D01*
X107265500Y-122038848D01*
X107265500Y-119861883D01*
X117020106Y-119861883D01*
X118450000Y-121291777D01*
X119879894Y-119861883D01*
X141170106Y-119861883D01*
X142600000Y-121291777D01*
X144029894Y-119861883D01*
X143690824Y-119626316D01*
X143187272Y-119461038D01*
X142661152Y-119397173D01*
X142132682Y-119437177D01*
X141622170Y-119579512D01*
X141509176Y-119626316D01*
X141170106Y-119861883D01*
X119879894Y-119861883D01*
X119540824Y-119626316D01*
X119037272Y-119461038D01*
X118511152Y-119397173D01*
X117982682Y-119437177D01*
X117472170Y-119579512D01*
X117359176Y-119626316D01*
X117020106Y-119861883D01*
X107265500Y-119861883D01*
X107265500Y-118069413D01*
X115598810Y-118069413D01*
X115812098Y-118200069D01*
X116139292Y-118261981D01*
X116472277Y-118258872D01*
X116767902Y-118200069D01*
X116981190Y-118069413D01*
X116290000Y-117378223D01*
X115598810Y-118069413D01*
X107265500Y-118069413D01*
X107265500Y-116419292D01*
X114598019Y-116419292D01*
X114601128Y-116752277D01*
X114659931Y-117047902D01*
X114790587Y-117261190D01*
X115481777Y-116570000D01*
X117098223Y-116570000D01*
X117789413Y-117261190D01*
X117920069Y-117047902D01*
X117974787Y-116758722D01*
X132180900Y-116758722D01*
X132180900Y-116841278D01*
X132197006Y-116922247D01*
X132228598Y-116998518D01*
X132274464Y-117067161D01*
X132332839Y-117125536D01*
X132401482Y-117171402D01*
X132477753Y-117202994D01*
X132558722Y-117219100D01*
X132641278Y-117219100D01*
X132722247Y-117202994D01*
X132798518Y-117171402D01*
X132867161Y-117125536D01*
X132925536Y-117067161D01*
X132971402Y-116998518D01*
X133002994Y-116922247D01*
X133019100Y-116841278D01*
X133019100Y-116758722D01*
X133002994Y-116677753D01*
X132971402Y-116601482D01*
X132925536Y-116532839D01*
X132867161Y-116474464D01*
X132798518Y-116428598D01*
X132722247Y-116397006D01*
X132641278Y-116380900D01*
X132558722Y-116380900D01*
X132477753Y-116397006D01*
X132401482Y-116428598D01*
X132332839Y-116474464D01*
X132274464Y-116532839D01*
X132228598Y-116601482D01*
X132197006Y-116677753D01*
X132180900Y-116758722D01*
X117974787Y-116758722D01*
X117981981Y-116720708D01*
X117978872Y-116387723D01*
X117920069Y-116092098D01*
X117789413Y-115878810D01*
X117098223Y-116570000D01*
X115481777Y-116570000D01*
X114790587Y-115878810D01*
X114659931Y-116092098D01*
X114598019Y-116419292D01*
X107265500Y-116419292D01*
X107265500Y-115070587D01*
X115598810Y-115070587D01*
X116290000Y-115761777D01*
X116981190Y-115070587D01*
X116767902Y-114939931D01*
X116440708Y-114878019D01*
X116107723Y-114881128D01*
X115812098Y-114939931D01*
X115598810Y-115070587D01*
X107265500Y-115070587D01*
X107265500Y-114438650D01*
X118869573Y-114438650D01*
X118983391Y-114495154D01*
X119016609Y-114495154D01*
X119130427Y-114438650D01*
X119000000Y-114308223D01*
X118869573Y-114438650D01*
X107265500Y-114438650D01*
X107265500Y-113708722D01*
X132080900Y-113708722D01*
X132080900Y-113791278D01*
X132097006Y-113872247D01*
X132128598Y-113948518D01*
X132174464Y-114017161D01*
X132232839Y-114075536D01*
X132301482Y-114121402D01*
X132377753Y-114152994D01*
X132458722Y-114169100D01*
X132541278Y-114169100D01*
X132622247Y-114152994D01*
X132698518Y-114121402D01*
X132767161Y-114075536D01*
X132825536Y-114017161D01*
X132871402Y-113948518D01*
X132902994Y-113872247D01*
X132919100Y-113791278D01*
X132919100Y-113708722D01*
X132902994Y-113627753D01*
X132871402Y-113551482D01*
X132825536Y-113482839D01*
X132767161Y-113424464D01*
X132698518Y-113378598D01*
X132622247Y-113347006D01*
X132541278Y-113330900D01*
X132458722Y-113330900D01*
X132377753Y-113347006D01*
X132301482Y-113378598D01*
X132232839Y-113424464D01*
X132174464Y-113482839D01*
X132128598Y-113551482D01*
X132097006Y-113627753D01*
X132080900Y-113708722D01*
X107265500Y-113708722D01*
X107265500Y-113483391D01*
X118004846Y-113483391D01*
X118004846Y-113516609D01*
X118061350Y-113630427D01*
X118191777Y-113500000D01*
X119808223Y-113500000D01*
X119938650Y-113630427D01*
X119995154Y-113516609D01*
X119995154Y-113483391D01*
X119938650Y-113369573D01*
X119808223Y-113500000D01*
X118191777Y-113500000D01*
X118061350Y-113369573D01*
X118004846Y-113483391D01*
X107265500Y-113483391D01*
X107265500Y-112561350D01*
X118869573Y-112561350D01*
X119000000Y-112691777D01*
X119130427Y-112561350D01*
X119016609Y-112504846D01*
X118983391Y-112504846D01*
X118869573Y-112561350D01*
X107265500Y-112561350D01*
X107265500Y-110902444D01*
X118009500Y-110902444D01*
X118009500Y-111097556D01*
X118047564Y-111288918D01*
X118122230Y-111469178D01*
X118230628Y-111631407D01*
X118368593Y-111769372D01*
X118530822Y-111877770D01*
X118711082Y-111952436D01*
X118902444Y-111990500D01*
X119097556Y-111990500D01*
X119288918Y-111952436D01*
X119469178Y-111877770D01*
X119631407Y-111769372D01*
X119769372Y-111631407D01*
X119877770Y-111469178D01*
X119952436Y-111288918D01*
X119990500Y-111097556D01*
X119990500Y-110902444D01*
X119952436Y-110711082D01*
X119877770Y-110530822D01*
X119801464Y-110416622D01*
X127080900Y-110416622D01*
X127080900Y-110499178D01*
X127097006Y-110580147D01*
X127128598Y-110656418D01*
X127174464Y-110725061D01*
X127199403Y-110750000D01*
X127174464Y-110774939D01*
X127128598Y-110843582D01*
X127097006Y-110919853D01*
X127080900Y-111000822D01*
X127080900Y-111083378D01*
X127097006Y-111164347D01*
X127128598Y-111240618D01*
X127174464Y-111309261D01*
X127232839Y-111367636D01*
X127301482Y-111413502D01*
X127377753Y-111445094D01*
X127458722Y-111461200D01*
X127541278Y-111461200D01*
X127622247Y-111445094D01*
X127698518Y-111413502D01*
X127767161Y-111367636D01*
X127825536Y-111309261D01*
X127871402Y-111240618D01*
X127902994Y-111164347D01*
X127919100Y-111083378D01*
X127919100Y-111000822D01*
X127902994Y-110919853D01*
X127871402Y-110843582D01*
X127825536Y-110774939D01*
X127800597Y-110750000D01*
X127825536Y-110725061D01*
X127871402Y-110656418D01*
X127902994Y-110580147D01*
X127919100Y-110499178D01*
X127919100Y-110416622D01*
X127902994Y-110335653D01*
X127871402Y-110259382D01*
X127825536Y-110190739D01*
X127767161Y-110132364D01*
X127698518Y-110086498D01*
X127622247Y-110054906D01*
X127541278Y-110038800D01*
X127458722Y-110038800D01*
X127377753Y-110054906D01*
X127301482Y-110086498D01*
X127232839Y-110132364D01*
X127174464Y-110190739D01*
X127128598Y-110259382D01*
X127097006Y-110335653D01*
X127080900Y-110416622D01*
X119801464Y-110416622D01*
X119769372Y-110368593D01*
X119631407Y-110230628D01*
X119469178Y-110122230D01*
X119288918Y-110047564D01*
X119097556Y-110009500D01*
X118902444Y-110009500D01*
X118711082Y-110047564D01*
X118530822Y-110122230D01*
X118368593Y-110230628D01*
X118230628Y-110368593D01*
X118122230Y-110530822D01*
X118047564Y-110711082D01*
X118009500Y-110902444D01*
X107265500Y-110902444D01*
X107265500Y-108902444D01*
X118009500Y-108902444D01*
X118009500Y-109097556D01*
X118047564Y-109288918D01*
X118122230Y-109469178D01*
X118230628Y-109631407D01*
X118368593Y-109769372D01*
X118530822Y-109877770D01*
X118711082Y-109952436D01*
X118902444Y-109990500D01*
X119097556Y-109990500D01*
X119288918Y-109952436D01*
X119469178Y-109877770D01*
X119631407Y-109769372D01*
X119769372Y-109631407D01*
X119877770Y-109469178D01*
X119952436Y-109288918D01*
X119990500Y-109097556D01*
X119990500Y-108916622D01*
X129580900Y-108916622D01*
X129580900Y-108999178D01*
X129597006Y-109080147D01*
X129628598Y-109156418D01*
X129674464Y-109225061D01*
X129699403Y-109250000D01*
X129674464Y-109274939D01*
X129628598Y-109343582D01*
X129597006Y-109419853D01*
X129580900Y-109500822D01*
X129580900Y-109583378D01*
X129597006Y-109664347D01*
X129628598Y-109740618D01*
X129674464Y-109809261D01*
X129732839Y-109867636D01*
X129801482Y-109913502D01*
X129877753Y-109945094D01*
X129958722Y-109961200D01*
X130041278Y-109961200D01*
X130053735Y-109958722D01*
X130330900Y-109958722D01*
X130330900Y-110041278D01*
X130347006Y-110122247D01*
X130378598Y-110198518D01*
X130424464Y-110267161D01*
X130482839Y-110325536D01*
X130551482Y-110371402D01*
X130627753Y-110402994D01*
X130708722Y-110419100D01*
X130791278Y-110419100D01*
X130872247Y-110402994D01*
X130948518Y-110371402D01*
X131017161Y-110325536D01*
X131075536Y-110267161D01*
X131121402Y-110198518D01*
X131152994Y-110122247D01*
X131169100Y-110041278D01*
X131169100Y-109958722D01*
X131152994Y-109877753D01*
X131121402Y-109801482D01*
X131075536Y-109732839D01*
X131017161Y-109674464D01*
X130948518Y-109628598D01*
X130872247Y-109597006D01*
X130791278Y-109580900D01*
X130708722Y-109580900D01*
X130627753Y-109597006D01*
X130551482Y-109628598D01*
X130482839Y-109674464D01*
X130424464Y-109732839D01*
X130378598Y-109801482D01*
X130347006Y-109877753D01*
X130330900Y-109958722D01*
X130053735Y-109958722D01*
X130122247Y-109945094D01*
X130198518Y-109913502D01*
X130267161Y-109867636D01*
X130325536Y-109809261D01*
X130371402Y-109740618D01*
X130402994Y-109664347D01*
X130419100Y-109583378D01*
X130419100Y-109500822D01*
X130402994Y-109419853D01*
X130371402Y-109343582D01*
X130325536Y-109274939D01*
X130300597Y-109250000D01*
X130325536Y-109225061D01*
X130371402Y-109156418D01*
X130402994Y-109080147D01*
X130419100Y-108999178D01*
X130419100Y-108916622D01*
X130402994Y-108835653D01*
X130371402Y-108759382D01*
X130325536Y-108690739D01*
X130267161Y-108632364D01*
X130198518Y-108586498D01*
X130122247Y-108554906D01*
X130041278Y-108538800D01*
X129958722Y-108538800D01*
X129877753Y-108554906D01*
X129801482Y-108586498D01*
X129732839Y-108632364D01*
X129674464Y-108690739D01*
X129628598Y-108759382D01*
X129597006Y-108835653D01*
X129580900Y-108916622D01*
X119990500Y-108916622D01*
X119990500Y-108902444D01*
X119952436Y-108711082D01*
X119877770Y-108530822D01*
X119769372Y-108368593D01*
X119631407Y-108230628D01*
X119469178Y-108122230D01*
X119288918Y-108047564D01*
X119097556Y-108009500D01*
X118902444Y-108009500D01*
X118711082Y-108047564D01*
X118530822Y-108122230D01*
X118368593Y-108230628D01*
X118230628Y-108368593D01*
X118122230Y-108530822D01*
X118047564Y-108711082D01*
X118009500Y-108902444D01*
X107265500Y-108902444D01*
X107265500Y-107948039D01*
X124409500Y-107948039D01*
X124409500Y-108024961D01*
X124424507Y-108100405D01*
X124453944Y-108171471D01*
X124496679Y-108235429D01*
X124511250Y-108250000D01*
X124496679Y-108264571D01*
X124453944Y-108328529D01*
X124424507Y-108399595D01*
X124409500Y-108475039D01*
X124409500Y-108551961D01*
X124424507Y-108627405D01*
X124453944Y-108698471D01*
X124496679Y-108762429D01*
X124551071Y-108816821D01*
X124615029Y-108859556D01*
X124686095Y-108888993D01*
X124761539Y-108904000D01*
X124838461Y-108904000D01*
X124913905Y-108888993D01*
X124984971Y-108859556D01*
X125048929Y-108816821D01*
X125103321Y-108762429D01*
X125146056Y-108698471D01*
X125175493Y-108627405D01*
X125190500Y-108551961D01*
X125190500Y-108475039D01*
X125175493Y-108399595D01*
X125146056Y-108328529D01*
X125103321Y-108264571D01*
X125088750Y-108250000D01*
X125103321Y-108235429D01*
X125146056Y-108171471D01*
X125175493Y-108100405D01*
X125190500Y-108024961D01*
X125190500Y-107948039D01*
X125175493Y-107872595D01*
X125146056Y-107801529D01*
X125103321Y-107737571D01*
X125048929Y-107683179D01*
X124984971Y-107640444D01*
X124913905Y-107611007D01*
X124838461Y-107596000D01*
X124761539Y-107596000D01*
X124686095Y-107611007D01*
X124615029Y-107640444D01*
X124551071Y-107683179D01*
X124496679Y-107737571D01*
X124453944Y-107801529D01*
X124424507Y-107872595D01*
X124409500Y-107948039D01*
X107265500Y-107948039D01*
X107265500Y-105700000D01*
X118008579Y-105700000D01*
X118008579Y-107300000D01*
X118012257Y-107337344D01*
X118023150Y-107373254D01*
X118040839Y-107406348D01*
X118064645Y-107435355D01*
X118093652Y-107459161D01*
X118126746Y-107476850D01*
X118162656Y-107487743D01*
X118200000Y-107491421D01*
X119800000Y-107491421D01*
X119837344Y-107487743D01*
X119873254Y-107476850D01*
X119906348Y-107459161D01*
X119935355Y-107435355D01*
X119959161Y-107406348D01*
X119976850Y-107373254D01*
X119987743Y-107337344D01*
X119991421Y-107300000D01*
X119991421Y-105700000D01*
X119987743Y-105662656D01*
X119976850Y-105626746D01*
X119959161Y-105593652D01*
X119935355Y-105564645D01*
X119906348Y-105540839D01*
X119873254Y-105523150D01*
X119837344Y-105512257D01*
X119800000Y-105508579D01*
X118200000Y-105508579D01*
X118162656Y-105512257D01*
X118126746Y-105523150D01*
X118093652Y-105540839D01*
X118064645Y-105564645D01*
X118040839Y-105593652D01*
X118023150Y-105626746D01*
X118012257Y-105662656D01*
X118008579Y-105700000D01*
X107265500Y-105700000D01*
X107265500Y-104929413D01*
X115598810Y-104929413D01*
X115812098Y-105060069D01*
X116139292Y-105121981D01*
X116472277Y-105118872D01*
X116767902Y-105060069D01*
X116981190Y-104929413D01*
X116290000Y-104238223D01*
X115598810Y-104929413D01*
X107265500Y-104929413D01*
X107265500Y-103279292D01*
X114598019Y-103279292D01*
X114601128Y-103612277D01*
X114659931Y-103907902D01*
X114790587Y-104121190D01*
X115481777Y-103430000D01*
X117098223Y-103430000D01*
X117789413Y-104121190D01*
X117920069Y-103907902D01*
X117981981Y-103580708D01*
X117978872Y-103247723D01*
X117920069Y-102952098D01*
X117789413Y-102738810D01*
X117098223Y-103430000D01*
X115481777Y-103430000D01*
X114790587Y-102738810D01*
X114659931Y-102952098D01*
X114598019Y-103279292D01*
X107265500Y-103279292D01*
X107265500Y-101930587D01*
X115598810Y-101930587D01*
X116290000Y-102621777D01*
X116981190Y-101930587D01*
X116767902Y-101799931D01*
X116440708Y-101738019D01*
X116107723Y-101741128D01*
X115812098Y-101799931D01*
X115598810Y-101930587D01*
X107265500Y-101930587D01*
X107265500Y-100138117D01*
X117020106Y-100138117D01*
X117359176Y-100373684D01*
X117862728Y-100538962D01*
X118388848Y-100602827D01*
X118917318Y-100562823D01*
X119427830Y-100420488D01*
X119540824Y-100373684D01*
X119879894Y-100138117D01*
X118450000Y-98708223D01*
X117020106Y-100138117D01*
X107265500Y-100138117D01*
X107265500Y-97838848D01*
X115747173Y-97838848D01*
X115787177Y-98367318D01*
X115929512Y-98877830D01*
X115976316Y-98990824D01*
X116211883Y-99329894D01*
X117641777Y-97900000D01*
X119258223Y-97900000D01*
X120688117Y-99329894D01*
X120923684Y-98990824D01*
X121088962Y-98487272D01*
X121152827Y-97961152D01*
X121129934Y-97658722D01*
X122980900Y-97658722D01*
X122980900Y-97741278D01*
X122997006Y-97822247D01*
X123028598Y-97898518D01*
X123074464Y-97967161D01*
X123132839Y-98025536D01*
X123136095Y-98027711D01*
X123136094Y-99787046D01*
X123134818Y-99800000D01*
X123136094Y-99812954D01*
X123136094Y-99812955D01*
X123139913Y-99851733D01*
X123155004Y-99901480D01*
X123179509Y-99947327D01*
X123212488Y-99987512D01*
X123222559Y-99995777D01*
X128862875Y-105636094D01*
X127827711Y-105636094D01*
X127825536Y-105632839D01*
X127767161Y-105574464D01*
X127698518Y-105528598D01*
X127622247Y-105497006D01*
X127541278Y-105480900D01*
X127458722Y-105480900D01*
X127377753Y-105497006D01*
X127301482Y-105528598D01*
X127232839Y-105574464D01*
X127174464Y-105632839D01*
X127128598Y-105701482D01*
X127097006Y-105777753D01*
X127080900Y-105858722D01*
X127080900Y-105941278D01*
X127097006Y-106022247D01*
X127128598Y-106098518D01*
X127174464Y-106167161D01*
X127232839Y-106225536D01*
X127301482Y-106271402D01*
X127377753Y-106302994D01*
X127458722Y-106319100D01*
X127541278Y-106319100D01*
X127622247Y-106302994D01*
X127698518Y-106271402D01*
X127767161Y-106225536D01*
X127825536Y-106167161D01*
X127827711Y-106163906D01*
X128890688Y-106163906D01*
X133236095Y-110509314D01*
X133236094Y-116472289D01*
X133232839Y-116474464D01*
X133174464Y-116532839D01*
X133128598Y-116601482D01*
X133097006Y-116677753D01*
X133080900Y-116758722D01*
X133080900Y-116841278D01*
X133097006Y-116922247D01*
X133128598Y-116998518D01*
X133174464Y-117067161D01*
X133232839Y-117125536D01*
X133301482Y-117171402D01*
X133377753Y-117202994D01*
X133458722Y-117219100D01*
X133541278Y-117219100D01*
X133622247Y-117202994D01*
X133698518Y-117171402D01*
X133767161Y-117125536D01*
X133825536Y-117067161D01*
X133871402Y-116998518D01*
X133902994Y-116922247D01*
X133919100Y-116841278D01*
X133919100Y-116758722D01*
X133902994Y-116677753D01*
X133871402Y-116601482D01*
X133825536Y-116532839D01*
X133767161Y-116474464D01*
X133763906Y-116472289D01*
X133763906Y-113708722D01*
X134580900Y-113708722D01*
X134580900Y-113791278D01*
X134597006Y-113872247D01*
X134628598Y-113948518D01*
X134674464Y-114017161D01*
X134732839Y-114075536D01*
X134801482Y-114121402D01*
X134877753Y-114152994D01*
X134958722Y-114169100D01*
X135041278Y-114169100D01*
X135122247Y-114152994D01*
X135198518Y-114121402D01*
X135267161Y-114075536D01*
X135325536Y-114017161D01*
X135371402Y-113948518D01*
X135402994Y-113872247D01*
X135419100Y-113791278D01*
X135419100Y-113708722D01*
X135402994Y-113627753D01*
X135371402Y-113551482D01*
X135325536Y-113482839D01*
X135267161Y-113424464D01*
X135198518Y-113378598D01*
X135122247Y-113347006D01*
X135041278Y-113330900D01*
X134958722Y-113330900D01*
X134877753Y-113347006D01*
X134801482Y-113378598D01*
X134732839Y-113424464D01*
X134674464Y-113482839D01*
X134628598Y-113551482D01*
X134597006Y-113627753D01*
X134580900Y-113708722D01*
X133763906Y-113708722D01*
X133763906Y-113000000D01*
X135734818Y-113000000D01*
X135736094Y-113012954D01*
X135736095Y-116987036D01*
X135734818Y-117000000D01*
X135739914Y-117051734D01*
X135755004Y-117101480D01*
X135779510Y-117147327D01*
X135812489Y-117187512D01*
X135822555Y-117195773D01*
X136804232Y-118177452D01*
X136812488Y-118187512D01*
X136822548Y-118195768D01*
X136822551Y-118195771D01*
X136852672Y-118220491D01*
X136898519Y-118244996D01*
X136948266Y-118260087D01*
X136987044Y-118263906D01*
X136987046Y-118263906D01*
X137000000Y-118265182D01*
X137012954Y-118263906D01*
X145390688Y-118263906D01*
X146236094Y-119109314D01*
X146236095Y-122672288D01*
X146232839Y-122674464D01*
X146174464Y-122732839D01*
X146128598Y-122801482D01*
X146097006Y-122877753D01*
X146080900Y-122958722D01*
X146080900Y-123041278D01*
X146097006Y-123122247D01*
X146128598Y-123198518D01*
X146174464Y-123267161D01*
X146232839Y-123325536D01*
X146301482Y-123371402D01*
X146377753Y-123402994D01*
X146458722Y-123419100D01*
X146541278Y-123419100D01*
X146622247Y-123402994D01*
X146698518Y-123371402D01*
X146767161Y-123325536D01*
X146825536Y-123267161D01*
X146871402Y-123198518D01*
X146902994Y-123122247D01*
X146919100Y-123041278D01*
X146919100Y-122958722D01*
X146902994Y-122877753D01*
X146871402Y-122801482D01*
X146825536Y-122732839D01*
X146767161Y-122674464D01*
X146763906Y-122672289D01*
X146763906Y-119012954D01*
X146765182Y-119000000D01*
X146763906Y-118987044D01*
X146760087Y-118948266D01*
X146744996Y-118898519D01*
X146720491Y-118852672D01*
X146695771Y-118822551D01*
X146695768Y-118822548D01*
X146687512Y-118812488D01*
X146677452Y-118804232D01*
X146082632Y-118209413D01*
X156238810Y-118209413D01*
X156452098Y-118340069D01*
X156779292Y-118401981D01*
X157112277Y-118398872D01*
X157407902Y-118340069D01*
X157621190Y-118209413D01*
X169378810Y-118209413D01*
X169592098Y-118340069D01*
X169919292Y-118401981D01*
X170252277Y-118398872D01*
X170547902Y-118340069D01*
X170761190Y-118209413D01*
X170070000Y-117518223D01*
X169378810Y-118209413D01*
X157621190Y-118209413D01*
X156930000Y-117518223D01*
X156238810Y-118209413D01*
X146082632Y-118209413D01*
X145695777Y-117822559D01*
X145687512Y-117812488D01*
X145647327Y-117779509D01*
X145601481Y-117755004D01*
X145551734Y-117739913D01*
X145512956Y-117736094D01*
X145512954Y-117736094D01*
X145500000Y-117734818D01*
X145487046Y-117736094D01*
X137109314Y-117736094D01*
X136263906Y-116890688D01*
X136263906Y-116559292D01*
X155238019Y-116559292D01*
X155241128Y-116892277D01*
X155299931Y-117187902D01*
X155430587Y-117401190D01*
X156121777Y-116710000D01*
X157738223Y-116710000D01*
X158429413Y-117401190D01*
X158560069Y-117187902D01*
X158621981Y-116860708D01*
X158619167Y-116559292D01*
X168378019Y-116559292D01*
X168381128Y-116892277D01*
X168439931Y-117187902D01*
X168570587Y-117401190D01*
X169261777Y-116710000D01*
X168570587Y-116018810D01*
X168439931Y-116232098D01*
X168378019Y-116559292D01*
X158619167Y-116559292D01*
X158618872Y-116527723D01*
X158560069Y-116232098D01*
X158429413Y-116018810D01*
X157738223Y-116710000D01*
X156121777Y-116710000D01*
X155430587Y-116018810D01*
X155299931Y-116232098D01*
X155238019Y-116559292D01*
X136263906Y-116559292D01*
X136263906Y-115210587D01*
X156238810Y-115210587D01*
X156930000Y-115901777D01*
X157621190Y-115210587D01*
X169378810Y-115210587D01*
X170070000Y-115901777D01*
X170761190Y-115210587D01*
X170547902Y-115079931D01*
X170220708Y-115018019D01*
X169887723Y-115021128D01*
X169592098Y-115079931D01*
X169378810Y-115210587D01*
X157621190Y-115210587D01*
X157407902Y-115079931D01*
X157080708Y-115018019D01*
X156747723Y-115021128D01*
X156452098Y-115079931D01*
X156238810Y-115210587D01*
X136263906Y-115210587D01*
X136263906Y-113708722D01*
X136830900Y-113708722D01*
X136830900Y-113791278D01*
X136847006Y-113872247D01*
X136878598Y-113948518D01*
X136924464Y-114017161D01*
X136982839Y-114075536D01*
X137051482Y-114121402D01*
X137127753Y-114152994D01*
X137208722Y-114169100D01*
X137291278Y-114169100D01*
X137372247Y-114152994D01*
X137448518Y-114121402D01*
X137517161Y-114075536D01*
X137575536Y-114017161D01*
X137577711Y-114013906D01*
X154987046Y-114013906D01*
X155000000Y-114015182D01*
X155012954Y-114013906D01*
X155012956Y-114013906D01*
X155051734Y-114010087D01*
X155101481Y-113994996D01*
X155147327Y-113970491D01*
X155187512Y-113937512D01*
X155195777Y-113927441D01*
X155704882Y-113418336D01*
X155708722Y-113419100D01*
X155791278Y-113419100D01*
X155872247Y-113402994D01*
X155948518Y-113371402D01*
X156017161Y-113325536D01*
X156075536Y-113267161D01*
X156120411Y-113200000D01*
X159008579Y-113200000D01*
X159008579Y-114800000D01*
X159012257Y-114837344D01*
X159023150Y-114873254D01*
X159040839Y-114906348D01*
X159064645Y-114935355D01*
X159093652Y-114959161D01*
X159126746Y-114976850D01*
X159162656Y-114987743D01*
X159200000Y-114991421D01*
X160800000Y-114991421D01*
X160837344Y-114987743D01*
X160873254Y-114976850D01*
X160906348Y-114959161D01*
X160935355Y-114935355D01*
X160959161Y-114906348D01*
X160976850Y-114873254D01*
X160987743Y-114837344D01*
X160991421Y-114800000D01*
X160991421Y-113902444D01*
X161509500Y-113902444D01*
X161509500Y-114097556D01*
X161547564Y-114288918D01*
X161622230Y-114469178D01*
X161730628Y-114631407D01*
X161868593Y-114769372D01*
X162030822Y-114877770D01*
X162211082Y-114952436D01*
X162402444Y-114990500D01*
X162597556Y-114990500D01*
X162788918Y-114952436D01*
X162969178Y-114877770D01*
X163131407Y-114769372D01*
X163269372Y-114631407D01*
X163377770Y-114469178D01*
X163452436Y-114288918D01*
X163490500Y-114097556D01*
X163490500Y-113902444D01*
X163509500Y-113902444D01*
X163509500Y-114097556D01*
X163547564Y-114288918D01*
X163622230Y-114469178D01*
X163730628Y-114631407D01*
X163868593Y-114769372D01*
X164030822Y-114877770D01*
X164211082Y-114952436D01*
X164402444Y-114990500D01*
X164597556Y-114990500D01*
X164788918Y-114952436D01*
X164822200Y-114938650D01*
X166869573Y-114938650D01*
X166983391Y-114995154D01*
X167016609Y-114995154D01*
X167130427Y-114938650D01*
X167000000Y-114808223D01*
X166869573Y-114938650D01*
X164822200Y-114938650D01*
X164969178Y-114877770D01*
X165131407Y-114769372D01*
X165269372Y-114631407D01*
X165377770Y-114469178D01*
X165452436Y-114288918D01*
X165490500Y-114097556D01*
X165490500Y-113983391D01*
X166004846Y-113983391D01*
X166004846Y-114016609D01*
X166061350Y-114130427D01*
X166191777Y-114000000D01*
X167808223Y-114000000D01*
X167938650Y-114130427D01*
X167995154Y-114016609D01*
X167995154Y-113983391D01*
X167938650Y-113869573D01*
X167808223Y-114000000D01*
X166191777Y-114000000D01*
X166061350Y-113869573D01*
X166004846Y-113983391D01*
X165490500Y-113983391D01*
X165490500Y-113902444D01*
X165452436Y-113711082D01*
X165377770Y-113530822D01*
X165269372Y-113368593D01*
X165131407Y-113230628D01*
X164969178Y-113122230D01*
X164822201Y-113061350D01*
X166869573Y-113061350D01*
X167000000Y-113191777D01*
X167130427Y-113061350D01*
X167016609Y-113004846D01*
X166983391Y-113004846D01*
X166869573Y-113061350D01*
X164822201Y-113061350D01*
X164788918Y-113047564D01*
X164597556Y-113009500D01*
X164402444Y-113009500D01*
X164211082Y-113047564D01*
X164030822Y-113122230D01*
X163868593Y-113230628D01*
X163730628Y-113368593D01*
X163622230Y-113530822D01*
X163547564Y-113711082D01*
X163509500Y-113902444D01*
X163490500Y-113902444D01*
X163452436Y-113711082D01*
X163377770Y-113530822D01*
X163269372Y-113368593D01*
X163131407Y-113230628D01*
X162969178Y-113122230D01*
X162788918Y-113047564D01*
X162597556Y-113009500D01*
X162402444Y-113009500D01*
X162211082Y-113047564D01*
X162030822Y-113122230D01*
X161868593Y-113230628D01*
X161730628Y-113368593D01*
X161622230Y-113530822D01*
X161547564Y-113711082D01*
X161509500Y-113902444D01*
X160991421Y-113902444D01*
X160991421Y-113200000D01*
X160987743Y-113162656D01*
X160976850Y-113126746D01*
X160959161Y-113093652D01*
X160935355Y-113064645D01*
X160906348Y-113040839D01*
X160873254Y-113023150D01*
X160837344Y-113012257D01*
X160800000Y-113008579D01*
X159200000Y-113008579D01*
X159162656Y-113012257D01*
X159126746Y-113023150D01*
X159093652Y-113040839D01*
X159064645Y-113064645D01*
X159040839Y-113093652D01*
X159023150Y-113126746D01*
X159012257Y-113162656D01*
X159008579Y-113200000D01*
X156120411Y-113200000D01*
X156121402Y-113198518D01*
X156152994Y-113122247D01*
X156169100Y-113041278D01*
X156169100Y-112958722D01*
X156152994Y-112877753D01*
X156121402Y-112801482D01*
X156075536Y-112732839D01*
X156017161Y-112674464D01*
X155948518Y-112628598D01*
X155872247Y-112597006D01*
X155791278Y-112580900D01*
X155708722Y-112580900D01*
X155627753Y-112597006D01*
X155551482Y-112628598D01*
X155482839Y-112674464D01*
X155424464Y-112732839D01*
X155378598Y-112801482D01*
X155347006Y-112877753D01*
X155330900Y-112958722D01*
X155330900Y-113041278D01*
X155331664Y-113045118D01*
X154890688Y-113486094D01*
X139637124Y-113486094D01*
X140609314Y-112513906D01*
X155487046Y-112513906D01*
X155500000Y-112515182D01*
X155512954Y-112513906D01*
X155512956Y-112513906D01*
X155551734Y-112510087D01*
X155601481Y-112494996D01*
X155647327Y-112470491D01*
X155687512Y-112437512D01*
X155695777Y-112427441D01*
X155704882Y-112418336D01*
X155708722Y-112419100D01*
X155791278Y-112419100D01*
X155872247Y-112402994D01*
X155948518Y-112371402D01*
X156017161Y-112325536D01*
X156075536Y-112267161D01*
X156121402Y-112198518D01*
X156152994Y-112122247D01*
X156169100Y-112041278D01*
X156169100Y-111958722D01*
X158080900Y-111958722D01*
X158080900Y-112041278D01*
X158097006Y-112122247D01*
X158128598Y-112198518D01*
X158174464Y-112267161D01*
X158232839Y-112325536D01*
X158301482Y-112371402D01*
X158377753Y-112402994D01*
X158458722Y-112419100D01*
X158541278Y-112419100D01*
X158622247Y-112402994D01*
X158698518Y-112371402D01*
X158767161Y-112325536D01*
X158825536Y-112267161D01*
X158871402Y-112198518D01*
X158902994Y-112122247D01*
X158919100Y-112041278D01*
X158919100Y-111958722D01*
X158902994Y-111877753D01*
X158871402Y-111801482D01*
X158825536Y-111732839D01*
X158767161Y-111674464D01*
X158698518Y-111628598D01*
X158622247Y-111597006D01*
X158541278Y-111580900D01*
X158458722Y-111580900D01*
X158377753Y-111597006D01*
X158301482Y-111628598D01*
X158232839Y-111674464D01*
X158174464Y-111732839D01*
X158128598Y-111801482D01*
X158097006Y-111877753D01*
X158080900Y-111958722D01*
X156169100Y-111958722D01*
X156152994Y-111877753D01*
X156121402Y-111801482D01*
X156075536Y-111732839D01*
X156017161Y-111674464D01*
X155948518Y-111628598D01*
X155872247Y-111597006D01*
X155791278Y-111580900D01*
X155708722Y-111580900D01*
X155627753Y-111597006D01*
X155551482Y-111628598D01*
X155482839Y-111674464D01*
X155424464Y-111732839D01*
X155378598Y-111801482D01*
X155347006Y-111877753D01*
X155330900Y-111958722D01*
X155330900Y-111986094D01*
X140512954Y-111986094D01*
X140500000Y-111984818D01*
X140487046Y-111986094D01*
X140487044Y-111986094D01*
X140448266Y-111989913D01*
X140398519Y-112005004D01*
X140352673Y-112029509D01*
X140352671Y-112029510D01*
X140352672Y-112029510D01*
X140322551Y-112054229D01*
X140322548Y-112054232D01*
X140312488Y-112062488D01*
X140304232Y-112072548D01*
X139418927Y-112957854D01*
X139402994Y-112877753D01*
X139371402Y-112801482D01*
X139325536Y-112732839D01*
X139267161Y-112674464D01*
X139198518Y-112628598D01*
X139122247Y-112597006D01*
X139041278Y-112580900D01*
X138958722Y-112580900D01*
X138877753Y-112597006D01*
X138801482Y-112628598D01*
X138732839Y-112674464D01*
X138674464Y-112732839D01*
X138628598Y-112801482D01*
X138625000Y-112810168D01*
X138621402Y-112801482D01*
X138575536Y-112732839D01*
X138517161Y-112674464D01*
X138448518Y-112628598D01*
X138372247Y-112597006D01*
X138291278Y-112580900D01*
X138208722Y-112580900D01*
X138127753Y-112597006D01*
X138051482Y-112628598D01*
X137982839Y-112674464D01*
X137924464Y-112732839D01*
X137878598Y-112801482D01*
X137875000Y-112810168D01*
X137871402Y-112801482D01*
X137825536Y-112732839D01*
X137767161Y-112674464D01*
X137698518Y-112628598D01*
X137622247Y-112597006D01*
X137541278Y-112580900D01*
X137458722Y-112580900D01*
X137377753Y-112597006D01*
X137301482Y-112628598D01*
X137232839Y-112674464D01*
X137174464Y-112732839D01*
X137128598Y-112801482D01*
X137097006Y-112877753D01*
X137080900Y-112958722D01*
X137080900Y-113041278D01*
X137097006Y-113122247D01*
X137128598Y-113198518D01*
X137174464Y-113267161D01*
X137232839Y-113325536D01*
X137240867Y-113330900D01*
X137208722Y-113330900D01*
X137127753Y-113347006D01*
X137051482Y-113378598D01*
X136982839Y-113424464D01*
X136924464Y-113482839D01*
X136878598Y-113551482D01*
X136847006Y-113627753D01*
X136830900Y-113708722D01*
X136263906Y-113708722D01*
X136263906Y-113109312D01*
X137109314Y-112263906D01*
X138487046Y-112263906D01*
X138500000Y-112265182D01*
X138512954Y-112263906D01*
X138512956Y-112263906D01*
X138551734Y-112260087D01*
X138601481Y-112244996D01*
X138647327Y-112220491D01*
X138687512Y-112187512D01*
X138695777Y-112177441D01*
X139677452Y-111195768D01*
X139687512Y-111187512D01*
X139695768Y-111177452D01*
X139695771Y-111177449D01*
X139720491Y-111147328D01*
X139744996Y-111101481D01*
X139746187Y-111097556D01*
X139760087Y-111051734D01*
X139763906Y-111012956D01*
X139763906Y-111012954D01*
X139765182Y-111000000D01*
X139763906Y-110987046D01*
X139763906Y-108958722D01*
X160830900Y-108958722D01*
X160830900Y-109041278D01*
X160847006Y-109122247D01*
X160878598Y-109198518D01*
X160924464Y-109267161D01*
X160982839Y-109325536D01*
X161051482Y-109371402D01*
X161127753Y-109402994D01*
X161208722Y-109419100D01*
X161291278Y-109419100D01*
X161372247Y-109402994D01*
X161448518Y-109371402D01*
X161517161Y-109325536D01*
X161575536Y-109267161D01*
X161621402Y-109198518D01*
X161652994Y-109122247D01*
X161669100Y-109041278D01*
X161669100Y-108958722D01*
X161652994Y-108877753D01*
X161621402Y-108801482D01*
X161575536Y-108732839D01*
X161517161Y-108674464D01*
X161448518Y-108628598D01*
X161372247Y-108597006D01*
X161291278Y-108580900D01*
X161208722Y-108580900D01*
X161127753Y-108597006D01*
X161051482Y-108628598D01*
X160982839Y-108674464D01*
X160924464Y-108732839D01*
X160878598Y-108801482D01*
X160847006Y-108877753D01*
X160830900Y-108958722D01*
X139763906Y-108958722D01*
X139763906Y-107827711D01*
X139767161Y-107825536D01*
X139825536Y-107767161D01*
X139871402Y-107698518D01*
X139902994Y-107622247D01*
X139919100Y-107541278D01*
X139919100Y-107458722D01*
X139902994Y-107377753D01*
X139871402Y-107301482D01*
X139825536Y-107232839D01*
X139767161Y-107174464D01*
X139698518Y-107128598D01*
X139622247Y-107097006D01*
X139541278Y-107080900D01*
X139458722Y-107080900D01*
X139377753Y-107097006D01*
X139301482Y-107128598D01*
X139232839Y-107174464D01*
X139174464Y-107232839D01*
X139128598Y-107301482D01*
X139097006Y-107377753D01*
X139080900Y-107458722D01*
X139080900Y-107541278D01*
X139097006Y-107622247D01*
X139128598Y-107698518D01*
X139174464Y-107767161D01*
X139232839Y-107825536D01*
X139236094Y-107827711D01*
X139236095Y-110890685D01*
X138390688Y-111736094D01*
X137012954Y-111736094D01*
X137000000Y-111734818D01*
X136987046Y-111736094D01*
X136987044Y-111736094D01*
X136948266Y-111739913D01*
X136898519Y-111755004D01*
X136852672Y-111779509D01*
X136822551Y-111804229D01*
X136822550Y-111804230D01*
X136812488Y-111812488D01*
X136804232Y-111822548D01*
X135822559Y-112804223D01*
X135812488Y-112812488D01*
X135779509Y-112852673D01*
X135755004Y-112898520D01*
X135739913Y-112948267D01*
X135736094Y-112987044D01*
X135734818Y-113000000D01*
X133763906Y-113000000D01*
X133763906Y-110537126D01*
X134154232Y-110927452D01*
X134162488Y-110937512D01*
X134172548Y-110945768D01*
X134172551Y-110945771D01*
X134202672Y-110970491D01*
X134248519Y-110994996D01*
X134298266Y-111010087D01*
X134337044Y-111013906D01*
X134337046Y-111013906D01*
X134350000Y-111015182D01*
X134362954Y-111013906D01*
X137922289Y-111013906D01*
X137924464Y-111017161D01*
X137982839Y-111075536D01*
X138051482Y-111121402D01*
X138127753Y-111152994D01*
X138208722Y-111169100D01*
X138291278Y-111169100D01*
X138372247Y-111152994D01*
X138448518Y-111121402D01*
X138517161Y-111075536D01*
X138575536Y-111017161D01*
X138621402Y-110948518D01*
X138652994Y-110872247D01*
X138669100Y-110791278D01*
X138669100Y-110708722D01*
X138652994Y-110627753D01*
X138621402Y-110551482D01*
X138575536Y-110482839D01*
X138517161Y-110424464D01*
X138448518Y-110378598D01*
X138439832Y-110375000D01*
X138448518Y-110371402D01*
X138517161Y-110325536D01*
X138575536Y-110267161D01*
X138621402Y-110198518D01*
X138652994Y-110122247D01*
X138669100Y-110041278D01*
X138669100Y-109958722D01*
X138652994Y-109877753D01*
X138621402Y-109801482D01*
X138575536Y-109732839D01*
X138517161Y-109674464D01*
X138448518Y-109628598D01*
X138439832Y-109625000D01*
X138448518Y-109621402D01*
X138517161Y-109575536D01*
X138575536Y-109517161D01*
X138621402Y-109448518D01*
X138652994Y-109372247D01*
X138669100Y-109291278D01*
X138669100Y-109208722D01*
X138652994Y-109127753D01*
X138621402Y-109051482D01*
X138575536Y-108982839D01*
X138550596Y-108957899D01*
X138575536Y-108932958D01*
X138621402Y-108864315D01*
X138652994Y-108788044D01*
X138669100Y-108707075D01*
X138669100Y-108624519D01*
X138652994Y-108543550D01*
X138621402Y-108467279D01*
X138575536Y-108398636D01*
X138517161Y-108340261D01*
X138448518Y-108294395D01*
X138372247Y-108262803D01*
X138291278Y-108246697D01*
X138208722Y-108246697D01*
X138127753Y-108262803D01*
X138051482Y-108294395D01*
X137982839Y-108340261D01*
X137924464Y-108398636D01*
X137922289Y-108401891D01*
X133275110Y-108401891D01*
X132437125Y-107563906D01*
X136010335Y-107563906D01*
X136023289Y-107565182D01*
X136036243Y-107563906D01*
X136036245Y-107563906D01*
X136075023Y-107560087D01*
X136124770Y-107544996D01*
X136170616Y-107520491D01*
X136210801Y-107487512D01*
X136219066Y-107477441D01*
X136757858Y-106938650D01*
X159869573Y-106938650D01*
X159983391Y-106995154D01*
X160016609Y-106995154D01*
X160130427Y-106938650D01*
X160000000Y-106808223D01*
X159869573Y-106938650D01*
X136757858Y-106938650D01*
X136927452Y-106769057D01*
X136937512Y-106760801D01*
X136945768Y-106750741D01*
X136945771Y-106750738D01*
X136970491Y-106720617D01*
X136994996Y-106674770D01*
X137008150Y-106631407D01*
X137010087Y-106625023D01*
X137013906Y-106586245D01*
X137013906Y-106586243D01*
X137014806Y-106577110D01*
X137017161Y-106575536D01*
X137075536Y-106517161D01*
X137121402Y-106448518D01*
X137152994Y-106372247D01*
X137169100Y-106291278D01*
X137169100Y-106208722D01*
X137152994Y-106127753D01*
X137121402Y-106051482D01*
X137075905Y-105983391D01*
X159004846Y-105983391D01*
X159004846Y-106016609D01*
X159061350Y-106130427D01*
X159191777Y-106000000D01*
X160808223Y-106000000D01*
X160938650Y-106130427D01*
X160995154Y-106016609D01*
X160995154Y-105983391D01*
X160954969Y-105902444D01*
X161509500Y-105902444D01*
X161509500Y-106097556D01*
X161547564Y-106288918D01*
X161622230Y-106469178D01*
X161730628Y-106631407D01*
X161868593Y-106769372D01*
X162030822Y-106877770D01*
X162211082Y-106952436D01*
X162402444Y-106990500D01*
X162597556Y-106990500D01*
X162788918Y-106952436D01*
X162969178Y-106877770D01*
X163131407Y-106769372D01*
X163269372Y-106631407D01*
X163377770Y-106469178D01*
X163452436Y-106288918D01*
X163490500Y-106097556D01*
X163490500Y-105902444D01*
X163509500Y-105902444D01*
X163509500Y-106097556D01*
X163547564Y-106288918D01*
X163622230Y-106469178D01*
X163730628Y-106631407D01*
X163868593Y-106769372D01*
X164030822Y-106877770D01*
X164211082Y-106952436D01*
X164402444Y-106990500D01*
X164597556Y-106990500D01*
X164788918Y-106952436D01*
X164969178Y-106877770D01*
X165131407Y-106769372D01*
X165269372Y-106631407D01*
X165377770Y-106469178D01*
X165452436Y-106288918D01*
X165490500Y-106097556D01*
X165490500Y-105902444D01*
X165452436Y-105711082D01*
X165377770Y-105530822D01*
X165269372Y-105368593D01*
X165131407Y-105230628D01*
X165085569Y-105200000D01*
X166008579Y-105200000D01*
X166008579Y-106800000D01*
X166012257Y-106837344D01*
X166023150Y-106873254D01*
X166040839Y-106906348D01*
X166064645Y-106935355D01*
X166093652Y-106959161D01*
X166126746Y-106976850D01*
X166162656Y-106987743D01*
X166200000Y-106991421D01*
X167800000Y-106991421D01*
X167837344Y-106987743D01*
X167873254Y-106976850D01*
X167906348Y-106959161D01*
X167935355Y-106935355D01*
X167959161Y-106906348D01*
X167976850Y-106873254D01*
X167987743Y-106837344D01*
X167991421Y-106800000D01*
X167991421Y-105200000D01*
X167987743Y-105162656D01*
X167976850Y-105126746D01*
X167959161Y-105093652D01*
X167935355Y-105064645D01*
X167906348Y-105040839D01*
X167873254Y-105023150D01*
X167837344Y-105012257D01*
X167800000Y-105008579D01*
X166200000Y-105008579D01*
X166162656Y-105012257D01*
X166126746Y-105023150D01*
X166093652Y-105040839D01*
X166064645Y-105064645D01*
X166040839Y-105093652D01*
X166023150Y-105126746D01*
X166012257Y-105162656D01*
X166008579Y-105200000D01*
X165085569Y-105200000D01*
X164969178Y-105122230D01*
X164788918Y-105047564D01*
X164597556Y-105009500D01*
X164402444Y-105009500D01*
X164211082Y-105047564D01*
X164030822Y-105122230D01*
X163868593Y-105230628D01*
X163730628Y-105368593D01*
X163622230Y-105530822D01*
X163547564Y-105711082D01*
X163509500Y-105902444D01*
X163490500Y-105902444D01*
X163452436Y-105711082D01*
X163377770Y-105530822D01*
X163269372Y-105368593D01*
X163131407Y-105230628D01*
X162969178Y-105122230D01*
X162788918Y-105047564D01*
X162597556Y-105009500D01*
X162402444Y-105009500D01*
X162211082Y-105047564D01*
X162030822Y-105122230D01*
X161868593Y-105230628D01*
X161730628Y-105368593D01*
X161622230Y-105530822D01*
X161547564Y-105711082D01*
X161509500Y-105902444D01*
X160954969Y-105902444D01*
X160938650Y-105869573D01*
X160808223Y-106000000D01*
X159191777Y-106000000D01*
X159061350Y-105869573D01*
X159004846Y-105983391D01*
X137075905Y-105983391D01*
X137075536Y-105982839D01*
X137017161Y-105924464D01*
X136948518Y-105878598D01*
X136872247Y-105847006D01*
X136791278Y-105830900D01*
X136708722Y-105830900D01*
X136627753Y-105847006D01*
X136551482Y-105878598D01*
X136482839Y-105924464D01*
X136424464Y-105982839D01*
X136378598Y-106051482D01*
X136375000Y-106060168D01*
X136371402Y-106051482D01*
X136325536Y-105982839D01*
X136267161Y-105924464D01*
X136198518Y-105878598D01*
X136122247Y-105847006D01*
X136041278Y-105830900D01*
X135958722Y-105830900D01*
X135877753Y-105847006D01*
X135801482Y-105878598D01*
X135732839Y-105924464D01*
X135674464Y-105982839D01*
X135628598Y-106051482D01*
X135597006Y-106127753D01*
X135580900Y-106208722D01*
X135580900Y-106291278D01*
X135597006Y-106372247D01*
X135628598Y-106448518D01*
X135674464Y-106517161D01*
X135732839Y-106575536D01*
X135801482Y-106621402D01*
X135877753Y-106652994D01*
X135958722Y-106669100D01*
X136041278Y-106669100D01*
X136122247Y-106652994D01*
X136198518Y-106621402D01*
X136267161Y-106575536D01*
X136325536Y-106517161D01*
X136371402Y-106448518D01*
X136375000Y-106439832D01*
X136378598Y-106448518D01*
X136424464Y-106517161D01*
X136428686Y-106521383D01*
X135913977Y-107036094D01*
X132309314Y-107036094D01*
X131938247Y-106665027D01*
X131958722Y-106669100D01*
X132041278Y-106669100D01*
X132122247Y-106652994D01*
X132198518Y-106621402D01*
X132267161Y-106575536D01*
X132325536Y-106517161D01*
X132371402Y-106448518D01*
X132402994Y-106372247D01*
X132419100Y-106291278D01*
X132419100Y-106208722D01*
X132402994Y-106127753D01*
X132371402Y-106051482D01*
X132325536Y-105982839D01*
X132267161Y-105924464D01*
X132198518Y-105878598D01*
X132122247Y-105847006D01*
X132041278Y-105830900D01*
X131958722Y-105830900D01*
X131877753Y-105847006D01*
X131801482Y-105878598D01*
X131732839Y-105924464D01*
X131674464Y-105982839D01*
X131628598Y-106051482D01*
X131597006Y-106127753D01*
X131580900Y-106208722D01*
X131580900Y-106291278D01*
X131584973Y-106311753D01*
X130334570Y-105061350D01*
X159869573Y-105061350D01*
X160000000Y-105191777D01*
X160130427Y-105061350D01*
X160016609Y-105004846D01*
X159983391Y-105004846D01*
X159869573Y-105061350D01*
X130334570Y-105061350D01*
X130062632Y-104789413D01*
X156238810Y-104789413D01*
X156452098Y-104920069D01*
X156779292Y-104981981D01*
X157112277Y-104978872D01*
X157407902Y-104920069D01*
X157621190Y-104789413D01*
X169378810Y-104789413D01*
X169592098Y-104920069D01*
X169919292Y-104981981D01*
X170252277Y-104978872D01*
X170547902Y-104920069D01*
X170761190Y-104789413D01*
X170070000Y-104098223D01*
X169378810Y-104789413D01*
X157621190Y-104789413D01*
X156930000Y-104098223D01*
X156238810Y-104789413D01*
X130062632Y-104789413D01*
X129663906Y-104390688D01*
X129663906Y-103958722D01*
X137580900Y-103958722D01*
X137580900Y-104041278D01*
X137597006Y-104122247D01*
X137628598Y-104198518D01*
X137674464Y-104267161D01*
X137732839Y-104325536D01*
X137801482Y-104371402D01*
X137877753Y-104402994D01*
X137958722Y-104419100D01*
X138041278Y-104419100D01*
X138122247Y-104402994D01*
X138198518Y-104371402D01*
X138267161Y-104325536D01*
X138325536Y-104267161D01*
X138371402Y-104198518D01*
X138402994Y-104122247D01*
X138419100Y-104041278D01*
X138419100Y-103958722D01*
X138580900Y-103958722D01*
X138580900Y-104041278D01*
X138597006Y-104122247D01*
X138628598Y-104198518D01*
X138674464Y-104267161D01*
X138732839Y-104325536D01*
X138801482Y-104371402D01*
X138877753Y-104402994D01*
X138958722Y-104419100D01*
X139041278Y-104419100D01*
X139122247Y-104402994D01*
X139198518Y-104371402D01*
X139267161Y-104325536D01*
X139325536Y-104267161D01*
X139371402Y-104198518D01*
X139402994Y-104122247D01*
X139419100Y-104041278D01*
X139419100Y-103958722D01*
X139402994Y-103877753D01*
X139371402Y-103801482D01*
X139325536Y-103732839D01*
X139267161Y-103674464D01*
X139198518Y-103628598D01*
X139122247Y-103597006D01*
X139041278Y-103580900D01*
X138958722Y-103580900D01*
X138877753Y-103597006D01*
X138801482Y-103628598D01*
X138732839Y-103674464D01*
X138674464Y-103732839D01*
X138628598Y-103801482D01*
X138597006Y-103877753D01*
X138580900Y-103958722D01*
X138419100Y-103958722D01*
X138402994Y-103877753D01*
X138371402Y-103801482D01*
X138325536Y-103732839D01*
X138267161Y-103674464D01*
X138198518Y-103628598D01*
X138122247Y-103597006D01*
X138041278Y-103580900D01*
X137958722Y-103580900D01*
X137877753Y-103597006D01*
X137801482Y-103628598D01*
X137732839Y-103674464D01*
X137674464Y-103732839D01*
X137628598Y-103801482D01*
X137597006Y-103877753D01*
X137580900Y-103958722D01*
X129663906Y-103958722D01*
X129663906Y-103139292D01*
X155238019Y-103139292D01*
X155241128Y-103472277D01*
X155299931Y-103767902D01*
X155430587Y-103981190D01*
X156121777Y-103290000D01*
X157738223Y-103290000D01*
X158429413Y-103981190D01*
X158560069Y-103767902D01*
X158621981Y-103440708D01*
X158619167Y-103139292D01*
X168378019Y-103139292D01*
X168381128Y-103472277D01*
X168439931Y-103767902D01*
X168570587Y-103981190D01*
X169261777Y-103290000D01*
X168570587Y-102598810D01*
X168439931Y-102812098D01*
X168378019Y-103139292D01*
X158619167Y-103139292D01*
X158618872Y-103107723D01*
X158560069Y-102812098D01*
X158429413Y-102598810D01*
X157738223Y-103290000D01*
X156121777Y-103290000D01*
X155430587Y-102598810D01*
X155299931Y-102812098D01*
X155238019Y-103139292D01*
X129663906Y-103139292D01*
X129663906Y-101790587D01*
X156238810Y-101790587D01*
X156930000Y-102481777D01*
X157621190Y-101790587D01*
X169378810Y-101790587D01*
X170070000Y-102481777D01*
X170761190Y-101790587D01*
X170547902Y-101659931D01*
X170220708Y-101598019D01*
X169887723Y-101601128D01*
X169592098Y-101659931D01*
X169378810Y-101790587D01*
X157621190Y-101790587D01*
X157407902Y-101659931D01*
X157080708Y-101598019D01*
X156747723Y-101601128D01*
X156452098Y-101659931D01*
X156238810Y-101790587D01*
X129663906Y-101790587D01*
X129663906Y-100138117D01*
X141170106Y-100138117D01*
X141509176Y-100373684D01*
X142012728Y-100538962D01*
X142538848Y-100602827D01*
X143067318Y-100562823D01*
X143440696Y-100458722D01*
X153080900Y-100458722D01*
X153080900Y-100541278D01*
X153097006Y-100622247D01*
X153128598Y-100698518D01*
X153174464Y-100767161D01*
X153232839Y-100825536D01*
X153301482Y-100871402D01*
X153377753Y-100902994D01*
X153458722Y-100919100D01*
X153541278Y-100919100D01*
X153622247Y-100902994D01*
X153698518Y-100871402D01*
X153767161Y-100825536D01*
X153825536Y-100767161D01*
X153871402Y-100698518D01*
X153902994Y-100622247D01*
X153919100Y-100541278D01*
X153919100Y-100458722D01*
X153902994Y-100377753D01*
X153871402Y-100301482D01*
X153825536Y-100232839D01*
X153767161Y-100174464D01*
X153698518Y-100128598D01*
X153622247Y-100097006D01*
X153541278Y-100080900D01*
X153458722Y-100080900D01*
X153377753Y-100097006D01*
X153301482Y-100128598D01*
X153232839Y-100174464D01*
X153174464Y-100232839D01*
X153128598Y-100301482D01*
X153097006Y-100377753D01*
X153080900Y-100458722D01*
X143440696Y-100458722D01*
X143577830Y-100420488D01*
X143690824Y-100373684D01*
X144029894Y-100138117D01*
X143893953Y-100002176D01*
X156624354Y-100002176D01*
X156624354Y-100084732D01*
X156640460Y-100165701D01*
X156672052Y-100241972D01*
X156717918Y-100310615D01*
X156776293Y-100368990D01*
X156844936Y-100414856D01*
X156921207Y-100446448D01*
X157002176Y-100462554D01*
X157037446Y-100462554D01*
X157037446Y-100497824D01*
X157053552Y-100578793D01*
X157085144Y-100655064D01*
X157131010Y-100723707D01*
X157189385Y-100782082D01*
X157258028Y-100827948D01*
X157334299Y-100859540D01*
X157415268Y-100875646D01*
X157497824Y-100875646D01*
X157578793Y-100859540D01*
X157655064Y-100827948D01*
X157723707Y-100782082D01*
X157782082Y-100723707D01*
X157827948Y-100655064D01*
X157859540Y-100578793D01*
X157875646Y-100497824D01*
X157875646Y-100415268D01*
X157859540Y-100334299D01*
X157827948Y-100258028D01*
X157782082Y-100189385D01*
X157723707Y-100131010D01*
X157655064Y-100085144D01*
X157578793Y-100053552D01*
X157497824Y-100037446D01*
X157462554Y-100037446D01*
X157462554Y-100002176D01*
X157446448Y-99921207D01*
X157414856Y-99844936D01*
X157368990Y-99776293D01*
X157310615Y-99717918D01*
X157241972Y-99672052D01*
X157165701Y-99640460D01*
X157084732Y-99624354D01*
X157002176Y-99624354D01*
X156921207Y-99640460D01*
X156844936Y-99672052D01*
X156776293Y-99717918D01*
X156717918Y-99776293D01*
X156672052Y-99844936D01*
X156640460Y-99921207D01*
X156624354Y-100002176D01*
X143893953Y-100002176D01*
X142600000Y-98708223D01*
X141170106Y-100138117D01*
X129663906Y-100138117D01*
X129663906Y-98027711D01*
X129667161Y-98025536D01*
X129725536Y-97967161D01*
X129771402Y-97898518D01*
X129796117Y-97838848D01*
X139897173Y-97838848D01*
X139937177Y-98367318D01*
X140079512Y-98877830D01*
X140126316Y-98990824D01*
X140361883Y-99329894D01*
X141791777Y-97900000D01*
X143408223Y-97900000D01*
X144838117Y-99329894D01*
X144911422Y-99224380D01*
X146330900Y-99224380D01*
X146330900Y-99306936D01*
X146347006Y-99387905D01*
X146378598Y-99464176D01*
X146424464Y-99532819D01*
X146482839Y-99591194D01*
X146551482Y-99637060D01*
X146627753Y-99668652D01*
X146708722Y-99684758D01*
X146791278Y-99684758D01*
X146872247Y-99668652D01*
X146948518Y-99637060D01*
X147017161Y-99591194D01*
X147075536Y-99532819D01*
X147121402Y-99464176D01*
X147152994Y-99387905D01*
X147169100Y-99306936D01*
X147169100Y-99224380D01*
X147152994Y-99143411D01*
X147121402Y-99067140D01*
X147075536Y-98998497D01*
X147017161Y-98940122D01*
X146948518Y-98894256D01*
X146872247Y-98862664D01*
X146791278Y-98846558D01*
X146708722Y-98846558D01*
X146627753Y-98862664D01*
X146551482Y-98894256D01*
X146482839Y-98940122D01*
X146424464Y-98998497D01*
X146378598Y-99067140D01*
X146347006Y-99143411D01*
X146330900Y-99224380D01*
X144911422Y-99224380D01*
X145073684Y-98990824D01*
X145238962Y-98487272D01*
X145302827Y-97961152D01*
X145262823Y-97432682D01*
X145130680Y-96958722D01*
X154080900Y-96958722D01*
X154080900Y-97041278D01*
X154097006Y-97122247D01*
X154128598Y-97198518D01*
X154174464Y-97267161D01*
X154232839Y-97325536D01*
X154301482Y-97371402D01*
X154377753Y-97402994D01*
X154458722Y-97419100D01*
X154541278Y-97419100D01*
X154622247Y-97402994D01*
X154698518Y-97371402D01*
X154767161Y-97325536D01*
X154825536Y-97267161D01*
X154871402Y-97198518D01*
X154902994Y-97122247D01*
X154919100Y-97041278D01*
X154919100Y-96958722D01*
X154902994Y-96877753D01*
X154871402Y-96801482D01*
X154825536Y-96732839D01*
X154767161Y-96674464D01*
X154698518Y-96628598D01*
X154622247Y-96597006D01*
X154541278Y-96580900D01*
X154458722Y-96580900D01*
X154377753Y-96597006D01*
X154301482Y-96628598D01*
X154232839Y-96674464D01*
X154174464Y-96732839D01*
X154128598Y-96801482D01*
X154097006Y-96877753D01*
X154080900Y-96958722D01*
X145130680Y-96958722D01*
X145120488Y-96922170D01*
X145073684Y-96809176D01*
X144838117Y-96470106D01*
X143408223Y-97900000D01*
X141791777Y-97900000D01*
X140361883Y-96470106D01*
X140126316Y-96809176D01*
X139961038Y-97312728D01*
X139897173Y-97838848D01*
X129796117Y-97838848D01*
X129802994Y-97822247D01*
X129819100Y-97741278D01*
X129819100Y-97658722D01*
X129802994Y-97577753D01*
X129771402Y-97501482D01*
X129725536Y-97432839D01*
X129667161Y-97374464D01*
X129598518Y-97328598D01*
X129522247Y-97297006D01*
X129441278Y-97280900D01*
X129358722Y-97280900D01*
X129277753Y-97297006D01*
X129201482Y-97328598D01*
X129132839Y-97374464D01*
X129074464Y-97432839D01*
X129028598Y-97501482D01*
X128997006Y-97577753D01*
X128980900Y-97658722D01*
X128980900Y-97741278D01*
X128997006Y-97822247D01*
X129028598Y-97898518D01*
X129074464Y-97967161D01*
X129132839Y-98025536D01*
X129136095Y-98027712D01*
X129136094Y-104262876D01*
X128763906Y-103890688D01*
X128763906Y-98812954D01*
X128765182Y-98800000D01*
X128763906Y-98787044D01*
X128760087Y-98748266D01*
X128744996Y-98698519D01*
X128720491Y-98652673D01*
X128714000Y-98644763D01*
X128695771Y-98622551D01*
X128695768Y-98622548D01*
X128687512Y-98612488D01*
X128677452Y-98604232D01*
X127818336Y-97745118D01*
X127819100Y-97741278D01*
X127819100Y-97658722D01*
X127802994Y-97577753D01*
X127771402Y-97501482D01*
X127725536Y-97432839D01*
X127667161Y-97374464D01*
X127598518Y-97328598D01*
X127522247Y-97297006D01*
X127441278Y-97280900D01*
X127358722Y-97280900D01*
X127277753Y-97297006D01*
X127201482Y-97328598D01*
X127132839Y-97374464D01*
X127074464Y-97432839D01*
X127028598Y-97501482D01*
X126997006Y-97577753D01*
X126980900Y-97658722D01*
X126980900Y-97741278D01*
X126997006Y-97822247D01*
X127028598Y-97898518D01*
X127074464Y-97967161D01*
X127132839Y-98025536D01*
X127201482Y-98071402D01*
X127277753Y-98102994D01*
X127358722Y-98119100D01*
X127441278Y-98119100D01*
X127445118Y-98118336D01*
X128236095Y-98909315D01*
X128236094Y-103828006D01*
X125663906Y-101289662D01*
X125663906Y-101058722D01*
X125780900Y-101058722D01*
X125780900Y-101141278D01*
X125797006Y-101222247D01*
X125828598Y-101298518D01*
X125874464Y-101367161D01*
X125932839Y-101425536D01*
X126001482Y-101471402D01*
X126077753Y-101502994D01*
X126158722Y-101519100D01*
X126241278Y-101519100D01*
X126322247Y-101502994D01*
X126398518Y-101471402D01*
X126467161Y-101425536D01*
X126525536Y-101367161D01*
X126571402Y-101298518D01*
X126602994Y-101222247D01*
X126617606Y-101148791D01*
X126627753Y-101152994D01*
X126708722Y-101169100D01*
X126791278Y-101169100D01*
X126872247Y-101152994D01*
X126948518Y-101121402D01*
X127000000Y-101087003D01*
X127051482Y-101121402D01*
X127127753Y-101152994D01*
X127208722Y-101169100D01*
X127291278Y-101169100D01*
X127372247Y-101152994D01*
X127448518Y-101121402D01*
X127500000Y-101087003D01*
X127551482Y-101121402D01*
X127627753Y-101152994D01*
X127708722Y-101169100D01*
X127791278Y-101169100D01*
X127872247Y-101152994D01*
X127948518Y-101121402D01*
X128017161Y-101075536D01*
X128075536Y-101017161D01*
X128121402Y-100948518D01*
X128152994Y-100872247D01*
X128169100Y-100791278D01*
X128169100Y-100708722D01*
X128152994Y-100627753D01*
X128121402Y-100551482D01*
X128087003Y-100500000D01*
X128121402Y-100448518D01*
X128152994Y-100372247D01*
X128169100Y-100291278D01*
X128169100Y-100208722D01*
X128152994Y-100127753D01*
X128121402Y-100051482D01*
X128087003Y-100000000D01*
X128121402Y-99948518D01*
X128152994Y-99872247D01*
X128169100Y-99791278D01*
X128169100Y-99708722D01*
X128152994Y-99627753D01*
X128121402Y-99551482D01*
X128075536Y-99482839D01*
X128017161Y-99424464D01*
X127948518Y-99378598D01*
X127872247Y-99347006D01*
X127791278Y-99330900D01*
X127708722Y-99330900D01*
X127627753Y-99347006D01*
X127551482Y-99378598D01*
X127500000Y-99412997D01*
X127448518Y-99378598D01*
X127372247Y-99347006D01*
X127291278Y-99330900D01*
X127208722Y-99330900D01*
X127127753Y-99347006D01*
X127051482Y-99378598D01*
X127000000Y-99412997D01*
X126948518Y-99378598D01*
X126872247Y-99347006D01*
X126791278Y-99330900D01*
X126708722Y-99330900D01*
X126627753Y-99347006D01*
X126551482Y-99378598D01*
X126482839Y-99424464D01*
X126424464Y-99482839D01*
X126378598Y-99551482D01*
X126347006Y-99627753D01*
X126330900Y-99708722D01*
X126330900Y-99791278D01*
X126347006Y-99872247D01*
X126378598Y-99948518D01*
X126412997Y-100000000D01*
X126378598Y-100051482D01*
X126347006Y-100127753D01*
X126330900Y-100208722D01*
X126330900Y-100291278D01*
X126347006Y-100372247D01*
X126378598Y-100448518D01*
X126412997Y-100500000D01*
X126378598Y-100551482D01*
X126347006Y-100627753D01*
X126332394Y-100701209D01*
X126322247Y-100697006D01*
X126241278Y-100680900D01*
X126158722Y-100680900D01*
X126077753Y-100697006D01*
X126001482Y-100728598D01*
X125932839Y-100774464D01*
X125874464Y-100832839D01*
X125828598Y-100901482D01*
X125797006Y-100977753D01*
X125780900Y-101058722D01*
X125663906Y-101058722D01*
X125663906Y-98027711D01*
X125667161Y-98025536D01*
X125725536Y-97967161D01*
X125771402Y-97898518D01*
X125802994Y-97822247D01*
X125819100Y-97741278D01*
X125819100Y-97658722D01*
X125802994Y-97577753D01*
X125771402Y-97501482D01*
X125725536Y-97432839D01*
X125667161Y-97374464D01*
X125598518Y-97328598D01*
X125522247Y-97297006D01*
X125441278Y-97280900D01*
X125358722Y-97280900D01*
X125277753Y-97297006D01*
X125201482Y-97328598D01*
X125132839Y-97374464D01*
X125074464Y-97432839D01*
X125028598Y-97501482D01*
X124997006Y-97577753D01*
X124980900Y-97658722D01*
X124980900Y-97741278D01*
X124997006Y-97822247D01*
X125028598Y-97898518D01*
X125074464Y-97967161D01*
X125132839Y-98025536D01*
X125136095Y-98027712D01*
X125136094Y-101162876D01*
X123663906Y-99690688D01*
X123663906Y-98027711D01*
X123667161Y-98025536D01*
X123725536Y-97967161D01*
X123771402Y-97898518D01*
X123802994Y-97822247D01*
X123819100Y-97741278D01*
X123819100Y-97658722D01*
X123802994Y-97577753D01*
X123771402Y-97501482D01*
X123725536Y-97432839D01*
X123667161Y-97374464D01*
X123598518Y-97328598D01*
X123522247Y-97297006D01*
X123441278Y-97280900D01*
X123358722Y-97280900D01*
X123277753Y-97297006D01*
X123201482Y-97328598D01*
X123132839Y-97374464D01*
X123074464Y-97432839D01*
X123028598Y-97501482D01*
X122997006Y-97577753D01*
X122980900Y-97658722D01*
X121129934Y-97658722D01*
X121112823Y-97432682D01*
X120970488Y-96922170D01*
X120923684Y-96809176D01*
X120688117Y-96470106D01*
X119258223Y-97900000D01*
X117641777Y-97900000D01*
X116211883Y-96470106D01*
X115976316Y-96809176D01*
X115811038Y-97312728D01*
X115747173Y-97838848D01*
X107265500Y-97838848D01*
X107265500Y-95661883D01*
X117020106Y-95661883D01*
X118450000Y-97091777D01*
X119879894Y-95661883D01*
X119587469Y-95458722D01*
X126480900Y-95458722D01*
X126480900Y-95541278D01*
X126497006Y-95622247D01*
X126528598Y-95698518D01*
X126574464Y-95767161D01*
X126632839Y-95825536D01*
X126701482Y-95871402D01*
X126777753Y-95902994D01*
X126858722Y-95919100D01*
X126941278Y-95919100D01*
X127022247Y-95902994D01*
X127098518Y-95871402D01*
X127167161Y-95825536D01*
X127225536Y-95767161D01*
X127271402Y-95698518D01*
X127302994Y-95622247D01*
X127319100Y-95541278D01*
X127319100Y-95458722D01*
X128480900Y-95458722D01*
X128480900Y-95541278D01*
X128497006Y-95622247D01*
X128528598Y-95698518D01*
X128574464Y-95767161D01*
X128632839Y-95825536D01*
X128701482Y-95871402D01*
X128777753Y-95902994D01*
X128858722Y-95919100D01*
X128941278Y-95919100D01*
X129022247Y-95902994D01*
X129098518Y-95871402D01*
X129167161Y-95825536D01*
X129225536Y-95767161D01*
X129271402Y-95698518D01*
X129286576Y-95661883D01*
X141170106Y-95661883D01*
X142600000Y-97091777D01*
X144029894Y-95661883D01*
X143690824Y-95426316D01*
X143187272Y-95261038D01*
X142661152Y-95197173D01*
X142132682Y-95237177D01*
X141622170Y-95379512D01*
X141509176Y-95426316D01*
X141170106Y-95661883D01*
X129286576Y-95661883D01*
X129302994Y-95622247D01*
X129319100Y-95541278D01*
X129319100Y-95458722D01*
X129302994Y-95377753D01*
X129271402Y-95301482D01*
X129225536Y-95232839D01*
X129167161Y-95174464D01*
X129098518Y-95128598D01*
X129022247Y-95097006D01*
X128941278Y-95080900D01*
X128858722Y-95080900D01*
X128777753Y-95097006D01*
X128701482Y-95128598D01*
X128632839Y-95174464D01*
X128574464Y-95232839D01*
X128528598Y-95301482D01*
X128497006Y-95377753D01*
X128480900Y-95458722D01*
X127319100Y-95458722D01*
X127302994Y-95377753D01*
X127271402Y-95301482D01*
X127225536Y-95232839D01*
X127167161Y-95174464D01*
X127098518Y-95128598D01*
X127022247Y-95097006D01*
X126941278Y-95080900D01*
X126858722Y-95080900D01*
X126777753Y-95097006D01*
X126701482Y-95128598D01*
X126632839Y-95174464D01*
X126574464Y-95232839D01*
X126528598Y-95301482D01*
X126497006Y-95377753D01*
X126480900Y-95458722D01*
X119587469Y-95458722D01*
X119540824Y-95426316D01*
X119037272Y-95261038D01*
X118511152Y-95197173D01*
X117982682Y-95237177D01*
X117472170Y-95379512D01*
X117359176Y-95426316D01*
X117020106Y-95661883D01*
X107265500Y-95661883D01*
X107265500Y-94958722D01*
X145080900Y-94958722D01*
X145080900Y-95041278D01*
X145097006Y-95122247D01*
X145128598Y-95198518D01*
X145174464Y-95267161D01*
X145232839Y-95325536D01*
X145301482Y-95371402D01*
X145377753Y-95402994D01*
X145458722Y-95419100D01*
X145541278Y-95419100D01*
X145622247Y-95402994D01*
X145698518Y-95371402D01*
X145767161Y-95325536D01*
X145825536Y-95267161D01*
X145871402Y-95198518D01*
X145902994Y-95122247D01*
X145919100Y-95041278D01*
X145919100Y-94958722D01*
X159580900Y-94958722D01*
X159580900Y-95041278D01*
X159597006Y-95122247D01*
X159628598Y-95198518D01*
X159662997Y-95250000D01*
X159628598Y-95301482D01*
X159597006Y-95377753D01*
X159580900Y-95458722D01*
X159580900Y-95541278D01*
X159597006Y-95622247D01*
X159628598Y-95698518D01*
X159662997Y-95750000D01*
X159628598Y-95801482D01*
X159597006Y-95877753D01*
X159580900Y-95958722D01*
X159580900Y-96041278D01*
X159597006Y-96122247D01*
X159628598Y-96198518D01*
X159662997Y-96250000D01*
X159628598Y-96301482D01*
X159597006Y-96377753D01*
X159580900Y-96458722D01*
X159580900Y-96541278D01*
X159597006Y-96622247D01*
X159628598Y-96698518D01*
X159662997Y-96750000D01*
X159628598Y-96801482D01*
X159597006Y-96877753D01*
X159580900Y-96958722D01*
X159580900Y-97041278D01*
X159597006Y-97122247D01*
X159628598Y-97198518D01*
X159674464Y-97267161D01*
X159732839Y-97325536D01*
X159801482Y-97371402D01*
X159877753Y-97402994D01*
X159958722Y-97419100D01*
X160041278Y-97419100D01*
X160122247Y-97402994D01*
X160198518Y-97371402D01*
X160250000Y-97337003D01*
X160301482Y-97371402D01*
X160377753Y-97402994D01*
X160458722Y-97419100D01*
X160541278Y-97419100D01*
X160622247Y-97402994D01*
X160698518Y-97371402D01*
X160750000Y-97337003D01*
X160801482Y-97371402D01*
X160877753Y-97402994D01*
X160958722Y-97419100D01*
X161041278Y-97419100D01*
X161122247Y-97402994D01*
X161198518Y-97371402D01*
X161250000Y-97337003D01*
X161301482Y-97371402D01*
X161377753Y-97402994D01*
X161458722Y-97419100D01*
X161541278Y-97419100D01*
X161622247Y-97402994D01*
X161698518Y-97371402D01*
X161767161Y-97325536D01*
X161825536Y-97267161D01*
X161871402Y-97198518D01*
X161902994Y-97122247D01*
X161919100Y-97041278D01*
X161919100Y-96958722D01*
X161902994Y-96877753D01*
X161871402Y-96801482D01*
X161837003Y-96750000D01*
X161871402Y-96698518D01*
X161902994Y-96622247D01*
X161919100Y-96541278D01*
X161919100Y-96458722D01*
X161902994Y-96377753D01*
X161871402Y-96301482D01*
X161837003Y-96250000D01*
X161871402Y-96198518D01*
X161902994Y-96122247D01*
X161919100Y-96041278D01*
X161919100Y-95958722D01*
X161902994Y-95877753D01*
X161871402Y-95801482D01*
X161837003Y-95750000D01*
X161871402Y-95698518D01*
X161902994Y-95622247D01*
X161919100Y-95541278D01*
X161919100Y-95458722D01*
X161902994Y-95377753D01*
X161871402Y-95301482D01*
X161837003Y-95250000D01*
X161871402Y-95198518D01*
X161902994Y-95122247D01*
X161919100Y-95041278D01*
X161919100Y-94958722D01*
X161902994Y-94877753D01*
X161871402Y-94801482D01*
X161825536Y-94732839D01*
X161767161Y-94674464D01*
X161698518Y-94628598D01*
X161622247Y-94597006D01*
X161541278Y-94580900D01*
X161458722Y-94580900D01*
X161377753Y-94597006D01*
X161301482Y-94628598D01*
X161250000Y-94662997D01*
X161198518Y-94628598D01*
X161122247Y-94597006D01*
X161041278Y-94580900D01*
X160958722Y-94580900D01*
X160877753Y-94597006D01*
X160801482Y-94628598D01*
X160750000Y-94662997D01*
X160698518Y-94628598D01*
X160622247Y-94597006D01*
X160541278Y-94580900D01*
X160458722Y-94580900D01*
X160377753Y-94597006D01*
X160301482Y-94628598D01*
X160250000Y-94662997D01*
X160198518Y-94628598D01*
X160122247Y-94597006D01*
X160041278Y-94580900D01*
X159958722Y-94580900D01*
X159877753Y-94597006D01*
X159801482Y-94628598D01*
X159732839Y-94674464D01*
X159674464Y-94732839D01*
X159628598Y-94801482D01*
X159597006Y-94877753D01*
X159580900Y-94958722D01*
X145919100Y-94958722D01*
X145902994Y-94877753D01*
X145871402Y-94801482D01*
X145825536Y-94732839D01*
X145767161Y-94674464D01*
X145698518Y-94628598D01*
X145622247Y-94597006D01*
X145541278Y-94580900D01*
X145458722Y-94580900D01*
X145377753Y-94597006D01*
X145301482Y-94628598D01*
X145232839Y-94674464D01*
X145174464Y-94732839D01*
X145128598Y-94801482D01*
X145097006Y-94877753D01*
X145080900Y-94958722D01*
X107265500Y-94958722D01*
X107265500Y-94265500D01*
X148652639Y-94265500D01*
X148628598Y-94301480D01*
G37*
X148628598Y-94301480D02*
X148597006Y-94377751D01*
X148580900Y-94458720D01*
X148580900Y-94541276D01*
X148597006Y-94622245D01*
X148628598Y-94698516D01*
X148674464Y-94767159D01*
X148732839Y-94825534D01*
X148801482Y-94871400D01*
X148877753Y-94902992D01*
X148958722Y-94919098D01*
X149041278Y-94919098D01*
X149122247Y-94902992D01*
X149198518Y-94871400D01*
X149267161Y-94825534D01*
X149325536Y-94767159D01*
X149371402Y-94698516D01*
X149402994Y-94622245D01*
X149419100Y-94541276D01*
X149419100Y-94458720D01*
X149402994Y-94377751D01*
X149371402Y-94301480D01*
X149347361Y-94265500D01*
X171734500Y-94265500D01*
X171734500Y-102985197D01*
X171700069Y-102812098D01*
X171569413Y-102598810D01*
X170878223Y-103290000D01*
X171569413Y-103981190D01*
X171700069Y-103767902D01*
X171734500Y-103585939D01*
X171734501Y-116405199D01*
X171700069Y-116232098D01*
X171569413Y-116018810D01*
X170878223Y-116710000D01*
X171569413Y-117401190D01*
X171700069Y-117187902D01*
X171734501Y-117005936D01*
X171734501Y-125734500D01*
X107265500Y-125734500D01*
X107265500Y-124338117D01*
X117020106Y-124338117D01*
X117359176Y-124573684D01*
X117862728Y-124738962D01*
X118388848Y-124802827D01*
X118917318Y-124762823D01*
X119427830Y-124620488D01*
X119540824Y-124573684D01*
X119879894Y-124338117D01*
X141170106Y-124338117D01*
X141509176Y-124573684D01*
X142012728Y-124738962D01*
X142538848Y-124802827D01*
X143067318Y-124762823D01*
X143577830Y-124620488D01*
X143690824Y-124573684D01*
X144029894Y-124338117D01*
X143900499Y-124208722D01*
X159288800Y-124208722D01*
X159288800Y-124291278D01*
X159304906Y-124372247D01*
X159336498Y-124448518D01*
X159382364Y-124517161D01*
X159440739Y-124575536D01*
X159509382Y-124621402D01*
X159585653Y-124652994D01*
X159666622Y-124669100D01*
X159749178Y-124669100D01*
X159830147Y-124652994D01*
X159906418Y-124621402D01*
X159975061Y-124575536D01*
X160000000Y-124550597D01*
X160024939Y-124575536D01*
X160093582Y-124621402D01*
X160169853Y-124652994D01*
X160250822Y-124669100D01*
X160333378Y-124669100D01*
X160414347Y-124652994D01*
X160490618Y-124621402D01*
X160559261Y-124575536D01*
X160617636Y-124517161D01*
X160663502Y-124448518D01*
X160695094Y-124372247D01*
X160711200Y-124291278D01*
X160711200Y-124208722D01*
X160695094Y-124127753D01*
X160663502Y-124051482D01*
X160617636Y-123982839D01*
X160559261Y-123924464D01*
X160490618Y-123878598D01*
X160414347Y-123847006D01*
X160333378Y-123830900D01*
X160250822Y-123830900D01*
X160169853Y-123847006D01*
X160093582Y-123878598D01*
X160024939Y-123924464D01*
X160000000Y-123949403D01*
X159975061Y-123924464D01*
X159906418Y-123878598D01*
X159830147Y-123847006D01*
X159749178Y-123830900D01*
X159666622Y-123830900D01*
X159585653Y-123847006D01*
X159509382Y-123878598D01*
X159440739Y-123924464D01*
X159382364Y-123982839D01*
X159336498Y-124051482D01*
X159304906Y-124127753D01*
X159288800Y-124208722D01*
X143900499Y-124208722D01*
X142600000Y-122908223D01*
X141170106Y-124338117D01*
X119879894Y-124338117D01*
X118450000Y-122908223D01*
X117020106Y-124338117D01*
X107265500Y-124338117D01*
X107265500Y-122038848D01*
X115747173Y-122038848D01*
X115787177Y-122567318D01*
X115929512Y-123077830D01*
X115976316Y-123190824D01*
X116211883Y-123529894D01*
X117641777Y-122100000D01*
X119258223Y-122100000D01*
X120688117Y-123529894D01*
X120923684Y-123190824D01*
X121088962Y-122687272D01*
X121152827Y-122161152D01*
X121143569Y-122038848D01*
X139897173Y-122038848D01*
X139937177Y-122567318D01*
X140079512Y-123077830D01*
X140126316Y-123190824D01*
X140361883Y-123529894D01*
X141791777Y-122100000D01*
X143408223Y-122100000D01*
X144838117Y-123529894D01*
X145073684Y-123190824D01*
X145238962Y-122687272D01*
X145302827Y-122161152D01*
X145262823Y-121632682D01*
X145120488Y-121122170D01*
X145073684Y-121009176D01*
X144838117Y-120670106D01*
X143408223Y-122100000D01*
X141791777Y-122100000D01*
X140361883Y-120670106D01*
X140126316Y-121009176D01*
X139961038Y-121512728D01*
X139897173Y-122038848D01*
X121143569Y-122038848D01*
X121112823Y-121632682D01*
X120970488Y-121122170D01*
X120923684Y-121009176D01*
X120688117Y-120670106D01*
X119258223Y-122100000D01*
X117641777Y-122100000D01*
X116211883Y-120670106D01*
X115976316Y-121009176D01*
X115811038Y-121512728D01*
X115747173Y-122038848D01*
X107265500Y-122038848D01*
X107265500Y-119861883D01*
X117020106Y-119861883D01*
X118450000Y-121291777D01*
X119879894Y-119861883D01*
X141170106Y-119861883D01*
X142600000Y-121291777D01*
X144029894Y-119861883D01*
X143690824Y-119626316D01*
X143187272Y-119461038D01*
X142661152Y-119397173D01*
X142132682Y-119437177D01*
X141622170Y-119579512D01*
X141509176Y-119626316D01*
X141170106Y-119861883D01*
X119879894Y-119861883D01*
X119540824Y-119626316D01*
X119037272Y-119461038D01*
X118511152Y-119397173D01*
X117982682Y-119437177D01*
X117472170Y-119579512D01*
X117359176Y-119626316D01*
X117020106Y-119861883D01*
X107265500Y-119861883D01*
X107265500Y-118069413D01*
X115598810Y-118069413D01*
X115812098Y-118200069D01*
X116139292Y-118261981D01*
X116472277Y-118258872D01*
X116767902Y-118200069D01*
X116981190Y-118069413D01*
X116290000Y-117378223D01*
X115598810Y-118069413D01*
X107265500Y-118069413D01*
X107265500Y-116419292D01*
X114598019Y-116419292D01*
X114601128Y-116752277D01*
X114659931Y-117047902D01*
X114790587Y-117261190D01*
X115481777Y-116570000D01*
X117098223Y-116570000D01*
X117789413Y-117261190D01*
X117920069Y-117047902D01*
X117974787Y-116758722D01*
X132180900Y-116758722D01*
X132180900Y-116841278D01*
X132197006Y-116922247D01*
X132228598Y-116998518D01*
X132274464Y-117067161D01*
X132332839Y-117125536D01*
X132401482Y-117171402D01*
X132477753Y-117202994D01*
X132558722Y-117219100D01*
X132641278Y-117219100D01*
X132722247Y-117202994D01*
X132798518Y-117171402D01*
X132867161Y-117125536D01*
X132925536Y-117067161D01*
X132971402Y-116998518D01*
X133002994Y-116922247D01*
X133019100Y-116841278D01*
X133019100Y-116758722D01*
X133002994Y-116677753D01*
X132971402Y-116601482D01*
X132925536Y-116532839D01*
X132867161Y-116474464D01*
X132798518Y-116428598D01*
X132722247Y-116397006D01*
X132641278Y-116380900D01*
X132558722Y-116380900D01*
X132477753Y-116397006D01*
X132401482Y-116428598D01*
X132332839Y-116474464D01*
X132274464Y-116532839D01*
X132228598Y-116601482D01*
X132197006Y-116677753D01*
X132180900Y-116758722D01*
X117974787Y-116758722D01*
X117981981Y-116720708D01*
X117978872Y-116387723D01*
X117920069Y-116092098D01*
X117789413Y-115878810D01*
X117098223Y-116570000D01*
X115481777Y-116570000D01*
X114790587Y-115878810D01*
X114659931Y-116092098D01*
X114598019Y-116419292D01*
X107265500Y-116419292D01*
X107265500Y-115070587D01*
X115598810Y-115070587D01*
X116290000Y-115761777D01*
X116981190Y-115070587D01*
X116767902Y-114939931D01*
X116440708Y-114878019D01*
X116107723Y-114881128D01*
X115812098Y-114939931D01*
X115598810Y-115070587D01*
X107265500Y-115070587D01*
X107265500Y-114438650D01*
X118869573Y-114438650D01*
X118983391Y-114495154D01*
X119016609Y-114495154D01*
X119130427Y-114438650D01*
X119000000Y-114308223D01*
X118869573Y-114438650D01*
X107265500Y-114438650D01*
X107265500Y-113708722D01*
X132080900Y-113708722D01*
X132080900Y-113791278D01*
X132097006Y-113872247D01*
X132128598Y-113948518D01*
X132174464Y-114017161D01*
X132232839Y-114075536D01*
X132301482Y-114121402D01*
X132377753Y-114152994D01*
X132458722Y-114169100D01*
X132541278Y-114169100D01*
X132622247Y-114152994D01*
X132698518Y-114121402D01*
X132767161Y-114075536D01*
X132825536Y-114017161D01*
X132871402Y-113948518D01*
X132902994Y-113872247D01*
X132919100Y-113791278D01*
X132919100Y-113708722D01*
X132902994Y-113627753D01*
X132871402Y-113551482D01*
X132825536Y-113482839D01*
X132767161Y-113424464D01*
X132698518Y-113378598D01*
X132622247Y-113347006D01*
X132541278Y-113330900D01*
X132458722Y-113330900D01*
X132377753Y-113347006D01*
X132301482Y-113378598D01*
X132232839Y-113424464D01*
X132174464Y-113482839D01*
X132128598Y-113551482D01*
X132097006Y-113627753D01*
X132080900Y-113708722D01*
X107265500Y-113708722D01*
X107265500Y-113483391D01*
X118004846Y-113483391D01*
X118004846Y-113516609D01*
X118061350Y-113630427D01*
X118191777Y-113500000D01*
X119808223Y-113500000D01*
X119938650Y-113630427D01*
X119995154Y-113516609D01*
X119995154Y-113483391D01*
X119938650Y-113369573D01*
X119808223Y-113500000D01*
X118191777Y-113500000D01*
X118061350Y-113369573D01*
X118004846Y-113483391D01*
X107265500Y-113483391D01*
X107265500Y-112561350D01*
X118869573Y-112561350D01*
X119000000Y-112691777D01*
X119130427Y-112561350D01*
X119016609Y-112504846D01*
X118983391Y-112504846D01*
X118869573Y-112561350D01*
X107265500Y-112561350D01*
X107265500Y-110902444D01*
X118009500Y-110902444D01*
X118009500Y-111097556D01*
X118047564Y-111288918D01*
X118122230Y-111469178D01*
X118230628Y-111631407D01*
X118368593Y-111769372D01*
X118530822Y-111877770D01*
X118711082Y-111952436D01*
X118902444Y-111990500D01*
X119097556Y-111990500D01*
X119288918Y-111952436D01*
X119469178Y-111877770D01*
X119631407Y-111769372D01*
X119769372Y-111631407D01*
X119877770Y-111469178D01*
X119952436Y-111288918D01*
X119990500Y-111097556D01*
X119990500Y-110902444D01*
X119952436Y-110711082D01*
X119877770Y-110530822D01*
X119801464Y-110416622D01*
X127080900Y-110416622D01*
X127080900Y-110499178D01*
X127097006Y-110580147D01*
X127128598Y-110656418D01*
X127174464Y-110725061D01*
X127199403Y-110750000D01*
X127174464Y-110774939D01*
X127128598Y-110843582D01*
X127097006Y-110919853D01*
X127080900Y-111000822D01*
X127080900Y-111083378D01*
X127097006Y-111164347D01*
X127128598Y-111240618D01*
X127174464Y-111309261D01*
X127232839Y-111367636D01*
X127301482Y-111413502D01*
X127377753Y-111445094D01*
X127458722Y-111461200D01*
X127541278Y-111461200D01*
X127622247Y-111445094D01*
X127698518Y-111413502D01*
X127767161Y-111367636D01*
X127825536Y-111309261D01*
X127871402Y-111240618D01*
X127902994Y-111164347D01*
X127919100Y-111083378D01*
X127919100Y-111000822D01*
X127902994Y-110919853D01*
X127871402Y-110843582D01*
X127825536Y-110774939D01*
X127800597Y-110750000D01*
X127825536Y-110725061D01*
X127871402Y-110656418D01*
X127902994Y-110580147D01*
X127919100Y-110499178D01*
X127919100Y-110416622D01*
X127902994Y-110335653D01*
X127871402Y-110259382D01*
X127825536Y-110190739D01*
X127767161Y-110132364D01*
X127698518Y-110086498D01*
X127622247Y-110054906D01*
X127541278Y-110038800D01*
X127458722Y-110038800D01*
X127377753Y-110054906D01*
X127301482Y-110086498D01*
X127232839Y-110132364D01*
X127174464Y-110190739D01*
X127128598Y-110259382D01*
X127097006Y-110335653D01*
X127080900Y-110416622D01*
X119801464Y-110416622D01*
X119769372Y-110368593D01*
X119631407Y-110230628D01*
X119469178Y-110122230D01*
X119288918Y-110047564D01*
X119097556Y-110009500D01*
X118902444Y-110009500D01*
X118711082Y-110047564D01*
X118530822Y-110122230D01*
X118368593Y-110230628D01*
X118230628Y-110368593D01*
X118122230Y-110530822D01*
X118047564Y-110711082D01*
X118009500Y-110902444D01*
X107265500Y-110902444D01*
X107265500Y-108902444D01*
X118009500Y-108902444D01*
X118009500Y-109097556D01*
X118047564Y-109288918D01*
X118122230Y-109469178D01*
X118230628Y-109631407D01*
X118368593Y-109769372D01*
X118530822Y-109877770D01*
X118711082Y-109952436D01*
X118902444Y-109990500D01*
X119097556Y-109990500D01*
X119288918Y-109952436D01*
X119469178Y-109877770D01*
X119631407Y-109769372D01*
X119769372Y-109631407D01*
X119877770Y-109469178D01*
X119952436Y-109288918D01*
X119990500Y-109097556D01*
X119990500Y-108916622D01*
X129580900Y-108916622D01*
X129580900Y-108999178D01*
X129597006Y-109080147D01*
X129628598Y-109156418D01*
X129674464Y-109225061D01*
X129699403Y-109250000D01*
X129674464Y-109274939D01*
X129628598Y-109343582D01*
X129597006Y-109419853D01*
X129580900Y-109500822D01*
X129580900Y-109583378D01*
X129597006Y-109664347D01*
X129628598Y-109740618D01*
X129674464Y-109809261D01*
X129732839Y-109867636D01*
X129801482Y-109913502D01*
X129877753Y-109945094D01*
X129958722Y-109961200D01*
X130041278Y-109961200D01*
X130053735Y-109958722D01*
X130330900Y-109958722D01*
X130330900Y-110041278D01*
X130347006Y-110122247D01*
X130378598Y-110198518D01*
X130424464Y-110267161D01*
X130482839Y-110325536D01*
X130551482Y-110371402D01*
X130627753Y-110402994D01*
X130708722Y-110419100D01*
X130791278Y-110419100D01*
X130872247Y-110402994D01*
X130948518Y-110371402D01*
X131017161Y-110325536D01*
X131075536Y-110267161D01*
X131121402Y-110198518D01*
X131152994Y-110122247D01*
X131169100Y-110041278D01*
X131169100Y-109958722D01*
X131152994Y-109877753D01*
X131121402Y-109801482D01*
X131075536Y-109732839D01*
X131017161Y-109674464D01*
X130948518Y-109628598D01*
X130872247Y-109597006D01*
X130791278Y-109580900D01*
X130708722Y-109580900D01*
X130627753Y-109597006D01*
X130551482Y-109628598D01*
X130482839Y-109674464D01*
X130424464Y-109732839D01*
X130378598Y-109801482D01*
X130347006Y-109877753D01*
X130330900Y-109958722D01*
X130053735Y-109958722D01*
X130122247Y-109945094D01*
X130198518Y-109913502D01*
X130267161Y-109867636D01*
X130325536Y-109809261D01*
X130371402Y-109740618D01*
X130402994Y-109664347D01*
X130419100Y-109583378D01*
X130419100Y-109500822D01*
X130402994Y-109419853D01*
X130371402Y-109343582D01*
X130325536Y-109274939D01*
X130300597Y-109250000D01*
X130325536Y-109225061D01*
X130371402Y-109156418D01*
X130402994Y-109080147D01*
X130419100Y-108999178D01*
X130419100Y-108916622D01*
X130402994Y-108835653D01*
X130371402Y-108759382D01*
X130325536Y-108690739D01*
X130267161Y-108632364D01*
X130198518Y-108586498D01*
X130122247Y-108554906D01*
X130041278Y-108538800D01*
X129958722Y-108538800D01*
X129877753Y-108554906D01*
X129801482Y-108586498D01*
X129732839Y-108632364D01*
X129674464Y-108690739D01*
X129628598Y-108759382D01*
X129597006Y-108835653D01*
X129580900Y-108916622D01*
X119990500Y-108916622D01*
X119990500Y-108902444D01*
X119952436Y-108711082D01*
X119877770Y-108530822D01*
X119769372Y-108368593D01*
X119631407Y-108230628D01*
X119469178Y-108122230D01*
X119288918Y-108047564D01*
X119097556Y-108009500D01*
X118902444Y-108009500D01*
X118711082Y-108047564D01*
X118530822Y-108122230D01*
X118368593Y-108230628D01*
X118230628Y-108368593D01*
X118122230Y-108530822D01*
X118047564Y-108711082D01*
X118009500Y-108902444D01*
X107265500Y-108902444D01*
X107265500Y-107948039D01*
X124409500Y-107948039D01*
X124409500Y-108024961D01*
X124424507Y-108100405D01*
X124453944Y-108171471D01*
X124496679Y-108235429D01*
X124511250Y-108250000D01*
X124496679Y-108264571D01*
X124453944Y-108328529D01*
X124424507Y-108399595D01*
X124409500Y-108475039D01*
X124409500Y-108551961D01*
X124424507Y-108627405D01*
X124453944Y-108698471D01*
X124496679Y-108762429D01*
X124551071Y-108816821D01*
X124615029Y-108859556D01*
X124686095Y-108888993D01*
X124761539Y-108904000D01*
X124838461Y-108904000D01*
X124913905Y-108888993D01*
X124984971Y-108859556D01*
X125048929Y-108816821D01*
X125103321Y-108762429D01*
X125146056Y-108698471D01*
X125175493Y-108627405D01*
X125190500Y-108551961D01*
X125190500Y-108475039D01*
X125175493Y-108399595D01*
X125146056Y-108328529D01*
X125103321Y-108264571D01*
X125088750Y-108250000D01*
X125103321Y-108235429D01*
X125146056Y-108171471D01*
X125175493Y-108100405D01*
X125190500Y-108024961D01*
X125190500Y-107948039D01*
X125175493Y-107872595D01*
X125146056Y-107801529D01*
X125103321Y-107737571D01*
X125048929Y-107683179D01*
X124984971Y-107640444D01*
X124913905Y-107611007D01*
X124838461Y-107596000D01*
X124761539Y-107596000D01*
X124686095Y-107611007D01*
X124615029Y-107640444D01*
X124551071Y-107683179D01*
X124496679Y-107737571D01*
X124453944Y-107801529D01*
X124424507Y-107872595D01*
X124409500Y-107948039D01*
X107265500Y-107948039D01*
X107265500Y-105700000D01*
X118008579Y-105700000D01*
X118008579Y-107300000D01*
X118012257Y-107337344D01*
X118023150Y-107373254D01*
X118040839Y-107406348D01*
X118064645Y-107435355D01*
X118093652Y-107459161D01*
X118126746Y-107476850D01*
X118162656Y-107487743D01*
X118200000Y-107491421D01*
X119800000Y-107491421D01*
X119837344Y-107487743D01*
X119873254Y-107476850D01*
X119906348Y-107459161D01*
X119935355Y-107435355D01*
X119959161Y-107406348D01*
X119976850Y-107373254D01*
X119987743Y-107337344D01*
X119991421Y-107300000D01*
X119991421Y-105700000D01*
X119987743Y-105662656D01*
X119976850Y-105626746D01*
X119959161Y-105593652D01*
X119935355Y-105564645D01*
X119906348Y-105540839D01*
X119873254Y-105523150D01*
X119837344Y-105512257D01*
X119800000Y-105508579D01*
X118200000Y-105508579D01*
X118162656Y-105512257D01*
X118126746Y-105523150D01*
X118093652Y-105540839D01*
X118064645Y-105564645D01*
X118040839Y-105593652D01*
X118023150Y-105626746D01*
X118012257Y-105662656D01*
X118008579Y-105700000D01*
X107265500Y-105700000D01*
X107265500Y-104929413D01*
X115598810Y-104929413D01*
X115812098Y-105060069D01*
X116139292Y-105121981D01*
X116472277Y-105118872D01*
X116767902Y-105060069D01*
X116981190Y-104929413D01*
X116290000Y-104238223D01*
X115598810Y-104929413D01*
X107265500Y-104929413D01*
X107265500Y-103279292D01*
X114598019Y-103279292D01*
X114601128Y-103612277D01*
X114659931Y-103907902D01*
X114790587Y-104121190D01*
X115481777Y-103430000D01*
X117098223Y-103430000D01*
X117789413Y-104121190D01*
X117920069Y-103907902D01*
X117981981Y-103580708D01*
X117978872Y-103247723D01*
X117920069Y-102952098D01*
X117789413Y-102738810D01*
X117098223Y-103430000D01*
X115481777Y-103430000D01*
X114790587Y-102738810D01*
X114659931Y-102952098D01*
X114598019Y-103279292D01*
X107265500Y-103279292D01*
X107265500Y-101930587D01*
X115598810Y-101930587D01*
X116290000Y-102621777D01*
X116981190Y-101930587D01*
X116767902Y-101799931D01*
X116440708Y-101738019D01*
X116107723Y-101741128D01*
X115812098Y-101799931D01*
X115598810Y-101930587D01*
X107265500Y-101930587D01*
X107265500Y-100138117D01*
X117020106Y-100138117D01*
X117359176Y-100373684D01*
X117862728Y-100538962D01*
X118388848Y-100602827D01*
X118917318Y-100562823D01*
X119427830Y-100420488D01*
X119540824Y-100373684D01*
X119879894Y-100138117D01*
X118450000Y-98708223D01*
X117020106Y-100138117D01*
X107265500Y-100138117D01*
X107265500Y-97838848D01*
X115747173Y-97838848D01*
X115787177Y-98367318D01*
X115929512Y-98877830D01*
X115976316Y-98990824D01*
X116211883Y-99329894D01*
X117641777Y-97900000D01*
X119258223Y-97900000D01*
X120688117Y-99329894D01*
X120923684Y-98990824D01*
X121088962Y-98487272D01*
X121152827Y-97961152D01*
X121129934Y-97658722D01*
X122980900Y-97658722D01*
X122980900Y-97741278D01*
X122997006Y-97822247D01*
X123028598Y-97898518D01*
X123074464Y-97967161D01*
X123132839Y-98025536D01*
X123136095Y-98027711D01*
X123136094Y-99787046D01*
X123134818Y-99800000D01*
X123136094Y-99812954D01*
X123136094Y-99812955D01*
X123139913Y-99851733D01*
X123155004Y-99901480D01*
X123179509Y-99947327D01*
X123212488Y-99987512D01*
X123222559Y-99995777D01*
X128862875Y-105636094D01*
X127827711Y-105636094D01*
X127825536Y-105632839D01*
X127767161Y-105574464D01*
X127698518Y-105528598D01*
X127622247Y-105497006D01*
X127541278Y-105480900D01*
X127458722Y-105480900D01*
X127377753Y-105497006D01*
X127301482Y-105528598D01*
X127232839Y-105574464D01*
X127174464Y-105632839D01*
X127128598Y-105701482D01*
X127097006Y-105777753D01*
X127080900Y-105858722D01*
X127080900Y-105941278D01*
X127097006Y-106022247D01*
X127128598Y-106098518D01*
X127174464Y-106167161D01*
X127232839Y-106225536D01*
X127301482Y-106271402D01*
X127377753Y-106302994D01*
X127458722Y-106319100D01*
X127541278Y-106319100D01*
X127622247Y-106302994D01*
X127698518Y-106271402D01*
X127767161Y-106225536D01*
X127825536Y-106167161D01*
X127827711Y-106163906D01*
X128890688Y-106163906D01*
X133236095Y-110509314D01*
X133236094Y-116472289D01*
X133232839Y-116474464D01*
X133174464Y-116532839D01*
X133128598Y-116601482D01*
X133097006Y-116677753D01*
X133080900Y-116758722D01*
X133080900Y-116841278D01*
X133097006Y-116922247D01*
X133128598Y-116998518D01*
X133174464Y-117067161D01*
X133232839Y-117125536D01*
X133301482Y-117171402D01*
X133377753Y-117202994D01*
X133458722Y-117219100D01*
X133541278Y-117219100D01*
X133622247Y-117202994D01*
X133698518Y-117171402D01*
X133767161Y-117125536D01*
X133825536Y-117067161D01*
X133871402Y-116998518D01*
X133902994Y-116922247D01*
X133919100Y-116841278D01*
X133919100Y-116758722D01*
X133902994Y-116677753D01*
X133871402Y-116601482D01*
X133825536Y-116532839D01*
X133767161Y-116474464D01*
X133763906Y-116472289D01*
X133763906Y-113708722D01*
X134580900Y-113708722D01*
X134580900Y-113791278D01*
X134597006Y-113872247D01*
X134628598Y-113948518D01*
X134674464Y-114017161D01*
X134732839Y-114075536D01*
X134801482Y-114121402D01*
X134877753Y-114152994D01*
X134958722Y-114169100D01*
X135041278Y-114169100D01*
X135122247Y-114152994D01*
X135198518Y-114121402D01*
X135267161Y-114075536D01*
X135325536Y-114017161D01*
X135371402Y-113948518D01*
X135402994Y-113872247D01*
X135419100Y-113791278D01*
X135419100Y-113708722D01*
X135402994Y-113627753D01*
X135371402Y-113551482D01*
X135325536Y-113482839D01*
X135267161Y-113424464D01*
X135198518Y-113378598D01*
X135122247Y-113347006D01*
X135041278Y-113330900D01*
X134958722Y-113330900D01*
X134877753Y-113347006D01*
X134801482Y-113378598D01*
X134732839Y-113424464D01*
X134674464Y-113482839D01*
X134628598Y-113551482D01*
X134597006Y-113627753D01*
X134580900Y-113708722D01*
X133763906Y-113708722D01*
X133763906Y-113000000D01*
X135734818Y-113000000D01*
X135736094Y-113012954D01*
X135736095Y-116987036D01*
X135734818Y-117000000D01*
X135739914Y-117051734D01*
X135755004Y-117101480D01*
X135779510Y-117147327D01*
X135812489Y-117187512D01*
X135822555Y-117195773D01*
X136804232Y-118177452D01*
X136812488Y-118187512D01*
X136822548Y-118195768D01*
X136822551Y-118195771D01*
X136852672Y-118220491D01*
X136898519Y-118244996D01*
X136948266Y-118260087D01*
X136987044Y-118263906D01*
X136987046Y-118263906D01*
X137000000Y-118265182D01*
X137012954Y-118263906D01*
X145390688Y-118263906D01*
X146236094Y-119109314D01*
X146236095Y-122672288D01*
X146232839Y-122674464D01*
X146174464Y-122732839D01*
X146128598Y-122801482D01*
X146097006Y-122877753D01*
X146080900Y-122958722D01*
X146080900Y-123041278D01*
X146097006Y-123122247D01*
X146128598Y-123198518D01*
X146174464Y-123267161D01*
X146232839Y-123325536D01*
X146301482Y-123371402D01*
X146377753Y-123402994D01*
X146458722Y-123419100D01*
X146541278Y-123419100D01*
X146622247Y-123402994D01*
X146698518Y-123371402D01*
X146767161Y-123325536D01*
X146825536Y-123267161D01*
X146871402Y-123198518D01*
X146902994Y-123122247D01*
X146919100Y-123041278D01*
X146919100Y-122958722D01*
X146902994Y-122877753D01*
X146871402Y-122801482D01*
X146825536Y-122732839D01*
X146767161Y-122674464D01*
X146763906Y-122672289D01*
X146763906Y-119012954D01*
X146765182Y-119000000D01*
X146763906Y-118987044D01*
X146760087Y-118948266D01*
X146744996Y-118898519D01*
X146720491Y-118852672D01*
X146695771Y-118822551D01*
X146695768Y-118822548D01*
X146687512Y-118812488D01*
X146677452Y-118804232D01*
X146082632Y-118209413D01*
X156238810Y-118209413D01*
X156452098Y-118340069D01*
X156779292Y-118401981D01*
X157112277Y-118398872D01*
X157407902Y-118340069D01*
X157621190Y-118209413D01*
X169378810Y-118209413D01*
X169592098Y-118340069D01*
X169919292Y-118401981D01*
X170252277Y-118398872D01*
X170547902Y-118340069D01*
X170761190Y-118209413D01*
X170070000Y-117518223D01*
X169378810Y-118209413D01*
X157621190Y-118209413D01*
X156930000Y-117518223D01*
X156238810Y-118209413D01*
X146082632Y-118209413D01*
X145695777Y-117822559D01*
X145687512Y-117812488D01*
X145647327Y-117779509D01*
X145601481Y-117755004D01*
X145551734Y-117739913D01*
X145512956Y-117736094D01*
X145512954Y-117736094D01*
X145500000Y-117734818D01*
X145487046Y-117736094D01*
X137109314Y-117736094D01*
X136263906Y-116890688D01*
X136263906Y-116559292D01*
X155238019Y-116559292D01*
X155241128Y-116892277D01*
X155299931Y-117187902D01*
X155430587Y-117401190D01*
X156121777Y-116710000D01*
X157738223Y-116710000D01*
X158429413Y-117401190D01*
X158560069Y-117187902D01*
X158621981Y-116860708D01*
X158619167Y-116559292D01*
X168378019Y-116559292D01*
X168381128Y-116892277D01*
X168439931Y-117187902D01*
X168570587Y-117401190D01*
X169261777Y-116710000D01*
X168570587Y-116018810D01*
X168439931Y-116232098D01*
X168378019Y-116559292D01*
X158619167Y-116559292D01*
X158618872Y-116527723D01*
X158560069Y-116232098D01*
X158429413Y-116018810D01*
X157738223Y-116710000D01*
X156121777Y-116710000D01*
X155430587Y-116018810D01*
X155299931Y-116232098D01*
X155238019Y-116559292D01*
X136263906Y-116559292D01*
X136263906Y-115210587D01*
X156238810Y-115210587D01*
X156930000Y-115901777D01*
X157621190Y-115210587D01*
X169378810Y-115210587D01*
X170070000Y-115901777D01*
X170761190Y-115210587D01*
X170547902Y-115079931D01*
X170220708Y-115018019D01*
X169887723Y-115021128D01*
X169592098Y-115079931D01*
X169378810Y-115210587D01*
X157621190Y-115210587D01*
X157407902Y-115079931D01*
X157080708Y-115018019D01*
X156747723Y-115021128D01*
X156452098Y-115079931D01*
X156238810Y-115210587D01*
X136263906Y-115210587D01*
X136263906Y-113708722D01*
X136830900Y-113708722D01*
X136830900Y-113791278D01*
X136847006Y-113872247D01*
X136878598Y-113948518D01*
X136924464Y-114017161D01*
X136982839Y-114075536D01*
X137051482Y-114121402D01*
X137127753Y-114152994D01*
X137208722Y-114169100D01*
X137291278Y-114169100D01*
X137372247Y-114152994D01*
X137448518Y-114121402D01*
X137517161Y-114075536D01*
X137575536Y-114017161D01*
X137577711Y-114013906D01*
X154987046Y-114013906D01*
X155000000Y-114015182D01*
X155012954Y-114013906D01*
X155012956Y-114013906D01*
X155051734Y-114010087D01*
X155101481Y-113994996D01*
X155147327Y-113970491D01*
X155187512Y-113937512D01*
X155195777Y-113927441D01*
X155704882Y-113418336D01*
X155708722Y-113419100D01*
X155791278Y-113419100D01*
X155872247Y-113402994D01*
X155948518Y-113371402D01*
X156017161Y-113325536D01*
X156075536Y-113267161D01*
X156120411Y-113200000D01*
X159008579Y-113200000D01*
X159008579Y-114800000D01*
X159012257Y-114837344D01*
X159023150Y-114873254D01*
X159040839Y-114906348D01*
X159064645Y-114935355D01*
X159093652Y-114959161D01*
X159126746Y-114976850D01*
X159162656Y-114987743D01*
X159200000Y-114991421D01*
X160800000Y-114991421D01*
X160837344Y-114987743D01*
X160873254Y-114976850D01*
X160906348Y-114959161D01*
X160935355Y-114935355D01*
X160959161Y-114906348D01*
X160976850Y-114873254D01*
X160987743Y-114837344D01*
X160991421Y-114800000D01*
X160991421Y-113902444D01*
X161509500Y-113902444D01*
X161509500Y-114097556D01*
X161547564Y-114288918D01*
X161622230Y-114469178D01*
X161730628Y-114631407D01*
X161868593Y-114769372D01*
X162030822Y-114877770D01*
X162211082Y-114952436D01*
X162402444Y-114990500D01*
X162597556Y-114990500D01*
X162788918Y-114952436D01*
X162969178Y-114877770D01*
X163131407Y-114769372D01*
X163269372Y-114631407D01*
X163377770Y-114469178D01*
X163452436Y-114288918D01*
X163490500Y-114097556D01*
X163490500Y-113902444D01*
X163509500Y-113902444D01*
X163509500Y-114097556D01*
X163547564Y-114288918D01*
X163622230Y-114469178D01*
X163730628Y-114631407D01*
X163868593Y-114769372D01*
X164030822Y-114877770D01*
X164211082Y-114952436D01*
X164402444Y-114990500D01*
X164597556Y-114990500D01*
X164788918Y-114952436D01*
X164822200Y-114938650D01*
X166869573Y-114938650D01*
X166983391Y-114995154D01*
X167016609Y-114995154D01*
X167130427Y-114938650D01*
X167000000Y-114808223D01*
X166869573Y-114938650D01*
X164822200Y-114938650D01*
X164969178Y-114877770D01*
X165131407Y-114769372D01*
X165269372Y-114631407D01*
X165377770Y-114469178D01*
X165452436Y-114288918D01*
X165490500Y-114097556D01*
X165490500Y-113983391D01*
X166004846Y-113983391D01*
X166004846Y-114016609D01*
X166061350Y-114130427D01*
X166191777Y-114000000D01*
X167808223Y-114000000D01*
X167938650Y-114130427D01*
X167995154Y-114016609D01*
X167995154Y-113983391D01*
X167938650Y-113869573D01*
X167808223Y-114000000D01*
X166191777Y-114000000D01*
X166061350Y-113869573D01*
X166004846Y-113983391D01*
X165490500Y-113983391D01*
X165490500Y-113902444D01*
X165452436Y-113711082D01*
X165377770Y-113530822D01*
X165269372Y-113368593D01*
X165131407Y-113230628D01*
X164969178Y-113122230D01*
X164822201Y-113061350D01*
X166869573Y-113061350D01*
X167000000Y-113191777D01*
X167130427Y-113061350D01*
X167016609Y-113004846D01*
X166983391Y-113004846D01*
X166869573Y-113061350D01*
X164822201Y-113061350D01*
X164788918Y-113047564D01*
X164597556Y-113009500D01*
X164402444Y-113009500D01*
X164211082Y-113047564D01*
X164030822Y-113122230D01*
X163868593Y-113230628D01*
X163730628Y-113368593D01*
X163622230Y-113530822D01*
X163547564Y-113711082D01*
X163509500Y-113902444D01*
X163490500Y-113902444D01*
X163452436Y-113711082D01*
X163377770Y-113530822D01*
X163269372Y-113368593D01*
X163131407Y-113230628D01*
X162969178Y-113122230D01*
X162788918Y-113047564D01*
X162597556Y-113009500D01*
X162402444Y-113009500D01*
X162211082Y-113047564D01*
X162030822Y-113122230D01*
X161868593Y-113230628D01*
X161730628Y-113368593D01*
X161622230Y-113530822D01*
X161547564Y-113711082D01*
X161509500Y-113902444D01*
X160991421Y-113902444D01*
X160991421Y-113200000D01*
X160987743Y-113162656D01*
X160976850Y-113126746D01*
X160959161Y-113093652D01*
X160935355Y-113064645D01*
X160906348Y-113040839D01*
X160873254Y-113023150D01*
X160837344Y-113012257D01*
X160800000Y-113008579D01*
X159200000Y-113008579D01*
X159162656Y-113012257D01*
X159126746Y-113023150D01*
X159093652Y-113040839D01*
X159064645Y-113064645D01*
X159040839Y-113093652D01*
X159023150Y-113126746D01*
X159012257Y-113162656D01*
X159008579Y-113200000D01*
X156120411Y-113200000D01*
X156121402Y-113198518D01*
X156152994Y-113122247D01*
X156169100Y-113041278D01*
X156169100Y-112958722D01*
X156152994Y-112877753D01*
X156121402Y-112801482D01*
X156075536Y-112732839D01*
X156017161Y-112674464D01*
X155948518Y-112628598D01*
X155872247Y-112597006D01*
X155791278Y-112580900D01*
X155708722Y-112580900D01*
X155627753Y-112597006D01*
X155551482Y-112628598D01*
X155482839Y-112674464D01*
X155424464Y-112732839D01*
X155378598Y-112801482D01*
X155347006Y-112877753D01*
X155330900Y-112958722D01*
X155330900Y-113041278D01*
X155331664Y-113045118D01*
X154890688Y-113486094D01*
X139637124Y-113486094D01*
X140609314Y-112513906D01*
X155487046Y-112513906D01*
X155500000Y-112515182D01*
X155512954Y-112513906D01*
X155512956Y-112513906D01*
X155551734Y-112510087D01*
X155601481Y-112494996D01*
X155647327Y-112470491D01*
X155687512Y-112437512D01*
X155695777Y-112427441D01*
X155704882Y-112418336D01*
X155708722Y-112419100D01*
X155791278Y-112419100D01*
X155872247Y-112402994D01*
X155948518Y-112371402D01*
X156017161Y-112325536D01*
X156075536Y-112267161D01*
X156121402Y-112198518D01*
X156152994Y-112122247D01*
X156169100Y-112041278D01*
X156169100Y-111958722D01*
X158080900Y-111958722D01*
X158080900Y-112041278D01*
X158097006Y-112122247D01*
X158128598Y-112198518D01*
X158174464Y-112267161D01*
X158232839Y-112325536D01*
X158301482Y-112371402D01*
X158377753Y-112402994D01*
X158458722Y-112419100D01*
X158541278Y-112419100D01*
X158622247Y-112402994D01*
X158698518Y-112371402D01*
X158767161Y-112325536D01*
X158825536Y-112267161D01*
X158871402Y-112198518D01*
X158902994Y-112122247D01*
X158919100Y-112041278D01*
X158919100Y-111958722D01*
X158902994Y-111877753D01*
X158871402Y-111801482D01*
X158825536Y-111732839D01*
X158767161Y-111674464D01*
X158698518Y-111628598D01*
X158622247Y-111597006D01*
X158541278Y-111580900D01*
X158458722Y-111580900D01*
X158377753Y-111597006D01*
X158301482Y-111628598D01*
X158232839Y-111674464D01*
X158174464Y-111732839D01*
X158128598Y-111801482D01*
X158097006Y-111877753D01*
X158080900Y-111958722D01*
X156169100Y-111958722D01*
X156152994Y-111877753D01*
X156121402Y-111801482D01*
X156075536Y-111732839D01*
X156017161Y-111674464D01*
X155948518Y-111628598D01*
X155872247Y-111597006D01*
X155791278Y-111580900D01*
X155708722Y-111580900D01*
X155627753Y-111597006D01*
X155551482Y-111628598D01*
X155482839Y-111674464D01*
X155424464Y-111732839D01*
X155378598Y-111801482D01*
X155347006Y-111877753D01*
X155330900Y-111958722D01*
X155330900Y-111986094D01*
X140512954Y-111986094D01*
X140500000Y-111984818D01*
X140487046Y-111986094D01*
X140487044Y-111986094D01*
X140448266Y-111989913D01*
X140398519Y-112005004D01*
X140352673Y-112029509D01*
X140352671Y-112029510D01*
X140352672Y-112029510D01*
X140322551Y-112054229D01*
X140322548Y-112054232D01*
X140312488Y-112062488D01*
X140304232Y-112072548D01*
X139418927Y-112957854D01*
X139402994Y-112877753D01*
X139371402Y-112801482D01*
X139325536Y-112732839D01*
X139267161Y-112674464D01*
X139198518Y-112628598D01*
X139122247Y-112597006D01*
X139041278Y-112580900D01*
X138958722Y-112580900D01*
X138877753Y-112597006D01*
X138801482Y-112628598D01*
X138732839Y-112674464D01*
X138674464Y-112732839D01*
X138628598Y-112801482D01*
X138625000Y-112810168D01*
X138621402Y-112801482D01*
X138575536Y-112732839D01*
X138517161Y-112674464D01*
X138448518Y-112628598D01*
X138372247Y-112597006D01*
X138291278Y-112580900D01*
X138208722Y-112580900D01*
X138127753Y-112597006D01*
X138051482Y-112628598D01*
X137982839Y-112674464D01*
X137924464Y-112732839D01*
X137878598Y-112801482D01*
X137875000Y-112810168D01*
X137871402Y-112801482D01*
X137825536Y-112732839D01*
X137767161Y-112674464D01*
X137698518Y-112628598D01*
X137622247Y-112597006D01*
X137541278Y-112580900D01*
X137458722Y-112580900D01*
X137377753Y-112597006D01*
X137301482Y-112628598D01*
X137232839Y-112674464D01*
X137174464Y-112732839D01*
X137128598Y-112801482D01*
X137097006Y-112877753D01*
X137080900Y-112958722D01*
X137080900Y-113041278D01*
X137097006Y-113122247D01*
X137128598Y-113198518D01*
X137174464Y-113267161D01*
X137232839Y-113325536D01*
X137240867Y-113330900D01*
X137208722Y-113330900D01*
X137127753Y-113347006D01*
X137051482Y-113378598D01*
X136982839Y-113424464D01*
X136924464Y-113482839D01*
X136878598Y-113551482D01*
X136847006Y-113627753D01*
X136830900Y-113708722D01*
X136263906Y-113708722D01*
X136263906Y-113109312D01*
X137109314Y-112263906D01*
X138487046Y-112263906D01*
X138500000Y-112265182D01*
X138512954Y-112263906D01*
X138512956Y-112263906D01*
X138551734Y-112260087D01*
X138601481Y-112244996D01*
X138647327Y-112220491D01*
X138687512Y-112187512D01*
X138695777Y-112177441D01*
X139677452Y-111195768D01*
X139687512Y-111187512D01*
X139695768Y-111177452D01*
X139695771Y-111177449D01*
X139720491Y-111147328D01*
X139744996Y-111101481D01*
X139746187Y-111097556D01*
X139760087Y-111051734D01*
X139763906Y-111012956D01*
X139763906Y-111012954D01*
X139765182Y-111000000D01*
X139763906Y-110987046D01*
X139763906Y-108958722D01*
X160830900Y-108958722D01*
X160830900Y-109041278D01*
X160847006Y-109122247D01*
X160878598Y-109198518D01*
X160924464Y-109267161D01*
X160982839Y-109325536D01*
X161051482Y-109371402D01*
X161127753Y-109402994D01*
X161208722Y-109419100D01*
X161291278Y-109419100D01*
X161372247Y-109402994D01*
X161448518Y-109371402D01*
X161517161Y-109325536D01*
X161575536Y-109267161D01*
X161621402Y-109198518D01*
X161652994Y-109122247D01*
X161669100Y-109041278D01*
X161669100Y-108958722D01*
X161652994Y-108877753D01*
X161621402Y-108801482D01*
X161575536Y-108732839D01*
X161517161Y-108674464D01*
X161448518Y-108628598D01*
X161372247Y-108597006D01*
X161291278Y-108580900D01*
X161208722Y-108580900D01*
X161127753Y-108597006D01*
X161051482Y-108628598D01*
X160982839Y-108674464D01*
X160924464Y-108732839D01*
X160878598Y-108801482D01*
X160847006Y-108877753D01*
X160830900Y-108958722D01*
X139763906Y-108958722D01*
X139763906Y-107827711D01*
X139767161Y-107825536D01*
X139825536Y-107767161D01*
X139871402Y-107698518D01*
X139902994Y-107622247D01*
X139919100Y-107541278D01*
X139919100Y-107458722D01*
X139902994Y-107377753D01*
X139871402Y-107301482D01*
X139825536Y-107232839D01*
X139767161Y-107174464D01*
X139698518Y-107128598D01*
X139622247Y-107097006D01*
X139541278Y-107080900D01*
X139458722Y-107080900D01*
X139377753Y-107097006D01*
X139301482Y-107128598D01*
X139232839Y-107174464D01*
X139174464Y-107232839D01*
X139128598Y-107301482D01*
X139097006Y-107377753D01*
X139080900Y-107458722D01*
X139080900Y-107541278D01*
X139097006Y-107622247D01*
X139128598Y-107698518D01*
X139174464Y-107767161D01*
X139232839Y-107825536D01*
X139236094Y-107827711D01*
X139236095Y-110890685D01*
X138390688Y-111736094D01*
X137012954Y-111736094D01*
X137000000Y-111734818D01*
X136987046Y-111736094D01*
X136987044Y-111736094D01*
X136948266Y-111739913D01*
X136898519Y-111755004D01*
X136852672Y-111779509D01*
X136822551Y-111804229D01*
X136822550Y-111804230D01*
X136812488Y-111812488D01*
X136804232Y-111822548D01*
X135822559Y-112804223D01*
X135812488Y-112812488D01*
X135779509Y-112852673D01*
X135755004Y-112898520D01*
X135739913Y-112948267D01*
X135736094Y-112987044D01*
X135734818Y-113000000D01*
X133763906Y-113000000D01*
X133763906Y-110537126D01*
X134154232Y-110927452D01*
X134162488Y-110937512D01*
X134172548Y-110945768D01*
X134172551Y-110945771D01*
X134202672Y-110970491D01*
X134248519Y-110994996D01*
X134298266Y-111010087D01*
X134337044Y-111013906D01*
X134337046Y-111013906D01*
X134350000Y-111015182D01*
X134362954Y-111013906D01*
X137922289Y-111013906D01*
X137924464Y-111017161D01*
X137982839Y-111075536D01*
X138051482Y-111121402D01*
X138127753Y-111152994D01*
X138208722Y-111169100D01*
X138291278Y-111169100D01*
X138372247Y-111152994D01*
X138448518Y-111121402D01*
X138517161Y-111075536D01*
X138575536Y-111017161D01*
X138621402Y-110948518D01*
X138652994Y-110872247D01*
X138669100Y-110791278D01*
X138669100Y-110708722D01*
X138652994Y-110627753D01*
X138621402Y-110551482D01*
X138575536Y-110482839D01*
X138517161Y-110424464D01*
X138448518Y-110378598D01*
X138439832Y-110375000D01*
X138448518Y-110371402D01*
X138517161Y-110325536D01*
X138575536Y-110267161D01*
X138621402Y-110198518D01*
X138652994Y-110122247D01*
X138669100Y-110041278D01*
X138669100Y-109958722D01*
X138652994Y-109877753D01*
X138621402Y-109801482D01*
X138575536Y-109732839D01*
X138517161Y-109674464D01*
X138448518Y-109628598D01*
X138439832Y-109625000D01*
X138448518Y-109621402D01*
X138517161Y-109575536D01*
X138575536Y-109517161D01*
X138621402Y-109448518D01*
X138652994Y-109372247D01*
X138669100Y-109291278D01*
X138669100Y-109208722D01*
X138652994Y-109127753D01*
X138621402Y-109051482D01*
X138575536Y-108982839D01*
X138550596Y-108957899D01*
X138575536Y-108932958D01*
X138621402Y-108864315D01*
X138652994Y-108788044D01*
X138669100Y-108707075D01*
X138669100Y-108624519D01*
X138652994Y-108543550D01*
X138621402Y-108467279D01*
X138575536Y-108398636D01*
X138517161Y-108340261D01*
X138448518Y-108294395D01*
X138372247Y-108262803D01*
X138291278Y-108246697D01*
X138208722Y-108246697D01*
X138127753Y-108262803D01*
X138051482Y-108294395D01*
X137982839Y-108340261D01*
X137924464Y-108398636D01*
X137922289Y-108401891D01*
X133275110Y-108401891D01*
X132437125Y-107563906D01*
X136010335Y-107563906D01*
X136023289Y-107565182D01*
X136036243Y-107563906D01*
X136036245Y-107563906D01*
X136075023Y-107560087D01*
X136124770Y-107544996D01*
X136170616Y-107520491D01*
X136210801Y-107487512D01*
X136219066Y-107477441D01*
X136757858Y-106938650D01*
X159869573Y-106938650D01*
X159983391Y-106995154D01*
X160016609Y-106995154D01*
X160130427Y-106938650D01*
X160000000Y-106808223D01*
X159869573Y-106938650D01*
X136757858Y-106938650D01*
X136927452Y-106769057D01*
X136937512Y-106760801D01*
X136945768Y-106750741D01*
X136945771Y-106750738D01*
X136970491Y-106720617D01*
X136994996Y-106674770D01*
X137008150Y-106631407D01*
X137010087Y-106625023D01*
X137013906Y-106586245D01*
X137013906Y-106586243D01*
X137014806Y-106577110D01*
X137017161Y-106575536D01*
X137075536Y-106517161D01*
X137121402Y-106448518D01*
X137152994Y-106372247D01*
X137169100Y-106291278D01*
X137169100Y-106208722D01*
X137152994Y-106127753D01*
X137121402Y-106051482D01*
X137075905Y-105983391D01*
X159004846Y-105983391D01*
X159004846Y-106016609D01*
X159061350Y-106130427D01*
X159191777Y-106000000D01*
X160808223Y-106000000D01*
X160938650Y-106130427D01*
X160995154Y-106016609D01*
X160995154Y-105983391D01*
X160954969Y-105902444D01*
X161509500Y-105902444D01*
X161509500Y-106097556D01*
X161547564Y-106288918D01*
X161622230Y-106469178D01*
X161730628Y-106631407D01*
X161868593Y-106769372D01*
X162030822Y-106877770D01*
X162211082Y-106952436D01*
X162402444Y-106990500D01*
X162597556Y-106990500D01*
X162788918Y-106952436D01*
X162969178Y-106877770D01*
X163131407Y-106769372D01*
X163269372Y-106631407D01*
X163377770Y-106469178D01*
X163452436Y-106288918D01*
X163490500Y-106097556D01*
X163490500Y-105902444D01*
X163509500Y-105902444D01*
X163509500Y-106097556D01*
X163547564Y-106288918D01*
X163622230Y-106469178D01*
X163730628Y-106631407D01*
X163868593Y-106769372D01*
X164030822Y-106877770D01*
X164211082Y-106952436D01*
X164402444Y-106990500D01*
X164597556Y-106990500D01*
X164788918Y-106952436D01*
X164969178Y-106877770D01*
X165131407Y-106769372D01*
X165269372Y-106631407D01*
X165377770Y-106469178D01*
X165452436Y-106288918D01*
X165490500Y-106097556D01*
X165490500Y-105902444D01*
X165452436Y-105711082D01*
X165377770Y-105530822D01*
X165269372Y-105368593D01*
X165131407Y-105230628D01*
X165085569Y-105200000D01*
X166008579Y-105200000D01*
X166008579Y-106800000D01*
X166012257Y-106837344D01*
X166023150Y-106873254D01*
X166040839Y-106906348D01*
X166064645Y-106935355D01*
X166093652Y-106959161D01*
X166126746Y-106976850D01*
X166162656Y-106987743D01*
X166200000Y-106991421D01*
X167800000Y-106991421D01*
X167837344Y-106987743D01*
X167873254Y-106976850D01*
X167906348Y-106959161D01*
X167935355Y-106935355D01*
X167959161Y-106906348D01*
X167976850Y-106873254D01*
X167987743Y-106837344D01*
X167991421Y-106800000D01*
X167991421Y-105200000D01*
X167987743Y-105162656D01*
X167976850Y-105126746D01*
X167959161Y-105093652D01*
X167935355Y-105064645D01*
X167906348Y-105040839D01*
X167873254Y-105023150D01*
X167837344Y-105012257D01*
X167800000Y-105008579D01*
X166200000Y-105008579D01*
X166162656Y-105012257D01*
X166126746Y-105023150D01*
X166093652Y-105040839D01*
X166064645Y-105064645D01*
X166040839Y-105093652D01*
X166023150Y-105126746D01*
X166012257Y-105162656D01*
X166008579Y-105200000D01*
X165085569Y-105200000D01*
X164969178Y-105122230D01*
X164788918Y-105047564D01*
X164597556Y-105009500D01*
X164402444Y-105009500D01*
X164211082Y-105047564D01*
X164030822Y-105122230D01*
X163868593Y-105230628D01*
X163730628Y-105368593D01*
X163622230Y-105530822D01*
X163547564Y-105711082D01*
X163509500Y-105902444D01*
X163490500Y-105902444D01*
X163452436Y-105711082D01*
X163377770Y-105530822D01*
X163269372Y-105368593D01*
X163131407Y-105230628D01*
X162969178Y-105122230D01*
X162788918Y-105047564D01*
X162597556Y-105009500D01*
X162402444Y-105009500D01*
X162211082Y-105047564D01*
X162030822Y-105122230D01*
X161868593Y-105230628D01*
X161730628Y-105368593D01*
X161622230Y-105530822D01*
X161547564Y-105711082D01*
X161509500Y-105902444D01*
X160954969Y-105902444D01*
X160938650Y-105869573D01*
X160808223Y-106000000D01*
X159191777Y-106000000D01*
X159061350Y-105869573D01*
X159004846Y-105983391D01*
X137075905Y-105983391D01*
X137075536Y-105982839D01*
X137017161Y-105924464D01*
X136948518Y-105878598D01*
X136872247Y-105847006D01*
X136791278Y-105830900D01*
X136708722Y-105830900D01*
X136627753Y-105847006D01*
X136551482Y-105878598D01*
X136482839Y-105924464D01*
X136424464Y-105982839D01*
X136378598Y-106051482D01*
X136375000Y-106060168D01*
X136371402Y-106051482D01*
X136325536Y-105982839D01*
X136267161Y-105924464D01*
X136198518Y-105878598D01*
X136122247Y-105847006D01*
X136041278Y-105830900D01*
X135958722Y-105830900D01*
X135877753Y-105847006D01*
X135801482Y-105878598D01*
X135732839Y-105924464D01*
X135674464Y-105982839D01*
X135628598Y-106051482D01*
X135597006Y-106127753D01*
X135580900Y-106208722D01*
X135580900Y-106291278D01*
X135597006Y-106372247D01*
X135628598Y-106448518D01*
X135674464Y-106517161D01*
X135732839Y-106575536D01*
X135801482Y-106621402D01*
X135877753Y-106652994D01*
X135958722Y-106669100D01*
X136041278Y-106669100D01*
X136122247Y-106652994D01*
X136198518Y-106621402D01*
X136267161Y-106575536D01*
X136325536Y-106517161D01*
X136371402Y-106448518D01*
X136375000Y-106439832D01*
X136378598Y-106448518D01*
X136424464Y-106517161D01*
X136428686Y-106521383D01*
X135913977Y-107036094D01*
X132309314Y-107036094D01*
X131938247Y-106665027D01*
X131958722Y-106669100D01*
X132041278Y-106669100D01*
X132122247Y-106652994D01*
X132198518Y-106621402D01*
X132267161Y-106575536D01*
X132325536Y-106517161D01*
X132371402Y-106448518D01*
X132402994Y-106372247D01*
X132419100Y-106291278D01*
X132419100Y-106208722D01*
X132402994Y-106127753D01*
X132371402Y-106051482D01*
X132325536Y-105982839D01*
X132267161Y-105924464D01*
X132198518Y-105878598D01*
X132122247Y-105847006D01*
X132041278Y-105830900D01*
X131958722Y-105830900D01*
X131877753Y-105847006D01*
X131801482Y-105878598D01*
X131732839Y-105924464D01*
X131674464Y-105982839D01*
X131628598Y-106051482D01*
X131597006Y-106127753D01*
X131580900Y-106208722D01*
X131580900Y-106291278D01*
X131584973Y-106311753D01*
X130334570Y-105061350D01*
X159869573Y-105061350D01*
X160000000Y-105191777D01*
X160130427Y-105061350D01*
X160016609Y-105004846D01*
X159983391Y-105004846D01*
X159869573Y-105061350D01*
X130334570Y-105061350D01*
X130062632Y-104789413D01*
X156238810Y-104789413D01*
X156452098Y-104920069D01*
X156779292Y-104981981D01*
X157112277Y-104978872D01*
X157407902Y-104920069D01*
X157621190Y-104789413D01*
X169378810Y-104789413D01*
X169592098Y-104920069D01*
X169919292Y-104981981D01*
X170252277Y-104978872D01*
X170547902Y-104920069D01*
X170761190Y-104789413D01*
X170070000Y-104098223D01*
X169378810Y-104789413D01*
X157621190Y-104789413D01*
X156930000Y-104098223D01*
X156238810Y-104789413D01*
X130062632Y-104789413D01*
X129663906Y-104390688D01*
X129663906Y-103958722D01*
X137580900Y-103958722D01*
X137580900Y-104041278D01*
X137597006Y-104122247D01*
X137628598Y-104198518D01*
X137674464Y-104267161D01*
X137732839Y-104325536D01*
X137801482Y-104371402D01*
X137877753Y-104402994D01*
X137958722Y-104419100D01*
X138041278Y-104419100D01*
X138122247Y-104402994D01*
X138198518Y-104371402D01*
X138267161Y-104325536D01*
X138325536Y-104267161D01*
X138371402Y-104198518D01*
X138402994Y-104122247D01*
X138419100Y-104041278D01*
X138419100Y-103958722D01*
X138580900Y-103958722D01*
X138580900Y-104041278D01*
X138597006Y-104122247D01*
X138628598Y-104198518D01*
X138674464Y-104267161D01*
X138732839Y-104325536D01*
X138801482Y-104371402D01*
X138877753Y-104402994D01*
X138958722Y-104419100D01*
X139041278Y-104419100D01*
X139122247Y-104402994D01*
X139198518Y-104371402D01*
X139267161Y-104325536D01*
X139325536Y-104267161D01*
X139371402Y-104198518D01*
X139402994Y-104122247D01*
X139419100Y-104041278D01*
X139419100Y-103958722D01*
X139402994Y-103877753D01*
X139371402Y-103801482D01*
X139325536Y-103732839D01*
X139267161Y-103674464D01*
X139198518Y-103628598D01*
X139122247Y-103597006D01*
X139041278Y-103580900D01*
X138958722Y-103580900D01*
X138877753Y-103597006D01*
X138801482Y-103628598D01*
X138732839Y-103674464D01*
X138674464Y-103732839D01*
X138628598Y-103801482D01*
X138597006Y-103877753D01*
X138580900Y-103958722D01*
X138419100Y-103958722D01*
X138402994Y-103877753D01*
X138371402Y-103801482D01*
X138325536Y-103732839D01*
X138267161Y-103674464D01*
X138198518Y-103628598D01*
X138122247Y-103597006D01*
X138041278Y-103580900D01*
X137958722Y-103580900D01*
X137877753Y-103597006D01*
X137801482Y-103628598D01*
X137732839Y-103674464D01*
X137674464Y-103732839D01*
X137628598Y-103801482D01*
X137597006Y-103877753D01*
X137580900Y-103958722D01*
X129663906Y-103958722D01*
X129663906Y-103139292D01*
X155238019Y-103139292D01*
X155241128Y-103472277D01*
X155299931Y-103767902D01*
X155430587Y-103981190D01*
X156121777Y-103290000D01*
X157738223Y-103290000D01*
X158429413Y-103981190D01*
X158560069Y-103767902D01*
X158621981Y-103440708D01*
X158619167Y-103139292D01*
X168378019Y-103139292D01*
X168381128Y-103472277D01*
X168439931Y-103767902D01*
X168570587Y-103981190D01*
X169261777Y-103290000D01*
X168570587Y-102598810D01*
X168439931Y-102812098D01*
X168378019Y-103139292D01*
X158619167Y-103139292D01*
X158618872Y-103107723D01*
X158560069Y-102812098D01*
X158429413Y-102598810D01*
X157738223Y-103290000D01*
X156121777Y-103290000D01*
X155430587Y-102598810D01*
X155299931Y-102812098D01*
X155238019Y-103139292D01*
X129663906Y-103139292D01*
X129663906Y-101790587D01*
X156238810Y-101790587D01*
X156930000Y-102481777D01*
X157621190Y-101790587D01*
X169378810Y-101790587D01*
X170070000Y-102481777D01*
X170761190Y-101790587D01*
X170547902Y-101659931D01*
X170220708Y-101598019D01*
X169887723Y-101601128D01*
X169592098Y-101659931D01*
X169378810Y-101790587D01*
X157621190Y-101790587D01*
X157407902Y-101659931D01*
X157080708Y-101598019D01*
X156747723Y-101601128D01*
X156452098Y-101659931D01*
X156238810Y-101790587D01*
X129663906Y-101790587D01*
X129663906Y-100138117D01*
X141170106Y-100138117D01*
X141509176Y-100373684D01*
X142012728Y-100538962D01*
X142538848Y-100602827D01*
X143067318Y-100562823D01*
X143440696Y-100458722D01*
X153080900Y-100458722D01*
X153080900Y-100541278D01*
X153097006Y-100622247D01*
X153128598Y-100698518D01*
X153174464Y-100767161D01*
X153232839Y-100825536D01*
X153301482Y-100871402D01*
X153377753Y-100902994D01*
X153458722Y-100919100D01*
X153541278Y-100919100D01*
X153622247Y-100902994D01*
X153698518Y-100871402D01*
X153767161Y-100825536D01*
X153825536Y-100767161D01*
X153871402Y-100698518D01*
X153902994Y-100622247D01*
X153919100Y-100541278D01*
X153919100Y-100458722D01*
X153902994Y-100377753D01*
X153871402Y-100301482D01*
X153825536Y-100232839D01*
X153767161Y-100174464D01*
X153698518Y-100128598D01*
X153622247Y-100097006D01*
X153541278Y-100080900D01*
X153458722Y-100080900D01*
X153377753Y-100097006D01*
X153301482Y-100128598D01*
X153232839Y-100174464D01*
X153174464Y-100232839D01*
X153128598Y-100301482D01*
X153097006Y-100377753D01*
X153080900Y-100458722D01*
X143440696Y-100458722D01*
X143577830Y-100420488D01*
X143690824Y-100373684D01*
X144029894Y-100138117D01*
X143893953Y-100002176D01*
X156624354Y-100002176D01*
X156624354Y-100084732D01*
X156640460Y-100165701D01*
X156672052Y-100241972D01*
X156717918Y-100310615D01*
X156776293Y-100368990D01*
X156844936Y-100414856D01*
X156921207Y-100446448D01*
X157002176Y-100462554D01*
X157037446Y-100462554D01*
X157037446Y-100497824D01*
X157053552Y-100578793D01*
X157085144Y-100655064D01*
X157131010Y-100723707D01*
X157189385Y-100782082D01*
X157258028Y-100827948D01*
X157334299Y-100859540D01*
X157415268Y-100875646D01*
X157497824Y-100875646D01*
X157578793Y-100859540D01*
X157655064Y-100827948D01*
X157723707Y-100782082D01*
X157782082Y-100723707D01*
X157827948Y-100655064D01*
X157859540Y-100578793D01*
X157875646Y-100497824D01*
X157875646Y-100415268D01*
X157859540Y-100334299D01*
X157827948Y-100258028D01*
X157782082Y-100189385D01*
X157723707Y-100131010D01*
X157655064Y-100085144D01*
X157578793Y-100053552D01*
X157497824Y-100037446D01*
X157462554Y-100037446D01*
X157462554Y-100002176D01*
X157446448Y-99921207D01*
X157414856Y-99844936D01*
X157368990Y-99776293D01*
X157310615Y-99717918D01*
X157241972Y-99672052D01*
X157165701Y-99640460D01*
X157084732Y-99624354D01*
X157002176Y-99624354D01*
X156921207Y-99640460D01*
X156844936Y-99672052D01*
X156776293Y-99717918D01*
X156717918Y-99776293D01*
X156672052Y-99844936D01*
X156640460Y-99921207D01*
X156624354Y-100002176D01*
X143893953Y-100002176D01*
X142600000Y-98708223D01*
X141170106Y-100138117D01*
X129663906Y-100138117D01*
X129663906Y-98027711D01*
X129667161Y-98025536D01*
X129725536Y-97967161D01*
X129771402Y-97898518D01*
X129796117Y-97838848D01*
X139897173Y-97838848D01*
X139937177Y-98367318D01*
X140079512Y-98877830D01*
X140126316Y-98990824D01*
X140361883Y-99329894D01*
X141791777Y-97900000D01*
X143408223Y-97900000D01*
X144838117Y-99329894D01*
X144911422Y-99224380D01*
X146330900Y-99224380D01*
X146330900Y-99306936D01*
X146347006Y-99387905D01*
X146378598Y-99464176D01*
X146424464Y-99532819D01*
X146482839Y-99591194D01*
X146551482Y-99637060D01*
X146627753Y-99668652D01*
X146708722Y-99684758D01*
X146791278Y-99684758D01*
X146872247Y-99668652D01*
X146948518Y-99637060D01*
X147017161Y-99591194D01*
X147075536Y-99532819D01*
X147121402Y-99464176D01*
X147152994Y-99387905D01*
X147169100Y-99306936D01*
X147169100Y-99224380D01*
X147152994Y-99143411D01*
X147121402Y-99067140D01*
X147075536Y-98998497D01*
X147017161Y-98940122D01*
X146948518Y-98894256D01*
X146872247Y-98862664D01*
X146791278Y-98846558D01*
X146708722Y-98846558D01*
X146627753Y-98862664D01*
X146551482Y-98894256D01*
X146482839Y-98940122D01*
X146424464Y-98998497D01*
X146378598Y-99067140D01*
X146347006Y-99143411D01*
X146330900Y-99224380D01*
X144911422Y-99224380D01*
X145073684Y-98990824D01*
X145238962Y-98487272D01*
X145302827Y-97961152D01*
X145262823Y-97432682D01*
X145130680Y-96958722D01*
X154080900Y-96958722D01*
X154080900Y-97041278D01*
X154097006Y-97122247D01*
X154128598Y-97198518D01*
X154174464Y-97267161D01*
X154232839Y-97325536D01*
X154301482Y-97371402D01*
X154377753Y-97402994D01*
X154458722Y-97419100D01*
X154541278Y-97419100D01*
X154622247Y-97402994D01*
X154698518Y-97371402D01*
X154767161Y-97325536D01*
X154825536Y-97267161D01*
X154871402Y-97198518D01*
X154902994Y-97122247D01*
X154919100Y-97041278D01*
X154919100Y-96958722D01*
X154902994Y-96877753D01*
X154871402Y-96801482D01*
X154825536Y-96732839D01*
X154767161Y-96674464D01*
X154698518Y-96628598D01*
X154622247Y-96597006D01*
X154541278Y-96580900D01*
X154458722Y-96580900D01*
X154377753Y-96597006D01*
X154301482Y-96628598D01*
X154232839Y-96674464D01*
X154174464Y-96732839D01*
X154128598Y-96801482D01*
X154097006Y-96877753D01*
X154080900Y-96958722D01*
X145130680Y-96958722D01*
X145120488Y-96922170D01*
X145073684Y-96809176D01*
X144838117Y-96470106D01*
X143408223Y-97900000D01*
X141791777Y-97900000D01*
X140361883Y-96470106D01*
X140126316Y-96809176D01*
X139961038Y-97312728D01*
X139897173Y-97838848D01*
X129796117Y-97838848D01*
X129802994Y-97822247D01*
X129819100Y-97741278D01*
X129819100Y-97658722D01*
X129802994Y-97577753D01*
X129771402Y-97501482D01*
X129725536Y-97432839D01*
X129667161Y-97374464D01*
X129598518Y-97328598D01*
X129522247Y-97297006D01*
X129441278Y-97280900D01*
X129358722Y-97280900D01*
X129277753Y-97297006D01*
X129201482Y-97328598D01*
X129132839Y-97374464D01*
X129074464Y-97432839D01*
X129028598Y-97501482D01*
X128997006Y-97577753D01*
X128980900Y-97658722D01*
X128980900Y-97741278D01*
X128997006Y-97822247D01*
X129028598Y-97898518D01*
X129074464Y-97967161D01*
X129132839Y-98025536D01*
X129136095Y-98027712D01*
X129136094Y-104262876D01*
X128763906Y-103890688D01*
X128763906Y-98812954D01*
X128765182Y-98800000D01*
X128763906Y-98787044D01*
X128760087Y-98748266D01*
X128744996Y-98698519D01*
X128720491Y-98652673D01*
X128714000Y-98644763D01*
X128695771Y-98622551D01*
X128695768Y-98622548D01*
X128687512Y-98612488D01*
X128677452Y-98604232D01*
X127818336Y-97745118D01*
X127819100Y-97741278D01*
X127819100Y-97658722D01*
X127802994Y-97577753D01*
X127771402Y-97501482D01*
X127725536Y-97432839D01*
X127667161Y-97374464D01*
X127598518Y-97328598D01*
X127522247Y-97297006D01*
X127441278Y-97280900D01*
X127358722Y-97280900D01*
X127277753Y-97297006D01*
X127201482Y-97328598D01*
X127132839Y-97374464D01*
X127074464Y-97432839D01*
X127028598Y-97501482D01*
X126997006Y-97577753D01*
X126980900Y-97658722D01*
X126980900Y-97741278D01*
X126997006Y-97822247D01*
X127028598Y-97898518D01*
X127074464Y-97967161D01*
X127132839Y-98025536D01*
X127201482Y-98071402D01*
X127277753Y-98102994D01*
X127358722Y-98119100D01*
X127441278Y-98119100D01*
X127445118Y-98118336D01*
X128236095Y-98909315D01*
X128236094Y-103828006D01*
X125663906Y-101289662D01*
X125663906Y-101058722D01*
X125780900Y-101058722D01*
X125780900Y-101141278D01*
X125797006Y-101222247D01*
X125828598Y-101298518D01*
X125874464Y-101367161D01*
X125932839Y-101425536D01*
X126001482Y-101471402D01*
X126077753Y-101502994D01*
X126158722Y-101519100D01*
X126241278Y-101519100D01*
X126322247Y-101502994D01*
X126398518Y-101471402D01*
X126467161Y-101425536D01*
X126525536Y-101367161D01*
X126571402Y-101298518D01*
X126602994Y-101222247D01*
X126617606Y-101148791D01*
X126627753Y-101152994D01*
X126708722Y-101169100D01*
X126791278Y-101169100D01*
X126872247Y-101152994D01*
X126948518Y-101121402D01*
X127000000Y-101087003D01*
X127051482Y-101121402D01*
X127127753Y-101152994D01*
X127208722Y-101169100D01*
X127291278Y-101169100D01*
X127372247Y-101152994D01*
X127448518Y-101121402D01*
X127500000Y-101087003D01*
X127551482Y-101121402D01*
X127627753Y-101152994D01*
X127708722Y-101169100D01*
X127791278Y-101169100D01*
X127872247Y-101152994D01*
X127948518Y-101121402D01*
X128017161Y-101075536D01*
X128075536Y-101017161D01*
X128121402Y-100948518D01*
X128152994Y-100872247D01*
X128169100Y-100791278D01*
X128169100Y-100708722D01*
X128152994Y-100627753D01*
X128121402Y-100551482D01*
X128087003Y-100500000D01*
X128121402Y-100448518D01*
X128152994Y-100372247D01*
X128169100Y-100291278D01*
X128169100Y-100208722D01*
X128152994Y-100127753D01*
X128121402Y-100051482D01*
X128087003Y-100000000D01*
X128121402Y-99948518D01*
X128152994Y-99872247D01*
X128169100Y-99791278D01*
X128169100Y-99708722D01*
X128152994Y-99627753D01*
X128121402Y-99551482D01*
X128075536Y-99482839D01*
X128017161Y-99424464D01*
X127948518Y-99378598D01*
X127872247Y-99347006D01*
X127791278Y-99330900D01*
X127708722Y-99330900D01*
X127627753Y-99347006D01*
X127551482Y-99378598D01*
X127500000Y-99412997D01*
X127448518Y-99378598D01*
X127372247Y-99347006D01*
X127291278Y-99330900D01*
X127208722Y-99330900D01*
X127127753Y-99347006D01*
X127051482Y-99378598D01*
X127000000Y-99412997D01*
X126948518Y-99378598D01*
X126872247Y-99347006D01*
X126791278Y-99330900D01*
X126708722Y-99330900D01*
X126627753Y-99347006D01*
X126551482Y-99378598D01*
X126482839Y-99424464D01*
X126424464Y-99482839D01*
X126378598Y-99551482D01*
X126347006Y-99627753D01*
X126330900Y-99708722D01*
X126330900Y-99791278D01*
X126347006Y-99872247D01*
X126378598Y-99948518D01*
X126412997Y-100000000D01*
X126378598Y-100051482D01*
X126347006Y-100127753D01*
X126330900Y-100208722D01*
X126330900Y-100291278D01*
X126347006Y-100372247D01*
X126378598Y-100448518D01*
X126412997Y-100500000D01*
X126378598Y-100551482D01*
X126347006Y-100627753D01*
X126332394Y-100701209D01*
X126322247Y-100697006D01*
X126241278Y-100680900D01*
X126158722Y-100680900D01*
X126077753Y-100697006D01*
X126001482Y-100728598D01*
X125932839Y-100774464D01*
X125874464Y-100832839D01*
X125828598Y-100901482D01*
X125797006Y-100977753D01*
X125780900Y-101058722D01*
X125663906Y-101058722D01*
X125663906Y-98027711D01*
X125667161Y-98025536D01*
X125725536Y-97967161D01*
X125771402Y-97898518D01*
X125802994Y-97822247D01*
X125819100Y-97741278D01*
X125819100Y-97658722D01*
X125802994Y-97577753D01*
X125771402Y-97501482D01*
X125725536Y-97432839D01*
X125667161Y-97374464D01*
X125598518Y-97328598D01*
X125522247Y-97297006D01*
X125441278Y-97280900D01*
X125358722Y-97280900D01*
X125277753Y-97297006D01*
X125201482Y-97328598D01*
X125132839Y-97374464D01*
X125074464Y-97432839D01*
X125028598Y-97501482D01*
X124997006Y-97577753D01*
X124980900Y-97658722D01*
X124980900Y-97741278D01*
X124997006Y-97822247D01*
X125028598Y-97898518D01*
X125074464Y-97967161D01*
X125132839Y-98025536D01*
X125136095Y-98027712D01*
X125136094Y-101162876D01*
X123663906Y-99690688D01*
X123663906Y-98027711D01*
X123667161Y-98025536D01*
X123725536Y-97967161D01*
X123771402Y-97898518D01*
X123802994Y-97822247D01*
X123819100Y-97741278D01*
X123819100Y-97658722D01*
X123802994Y-97577753D01*
X123771402Y-97501482D01*
X123725536Y-97432839D01*
X123667161Y-97374464D01*
X123598518Y-97328598D01*
X123522247Y-97297006D01*
X123441278Y-97280900D01*
X123358722Y-97280900D01*
X123277753Y-97297006D01*
X123201482Y-97328598D01*
X123132839Y-97374464D01*
X123074464Y-97432839D01*
X123028598Y-97501482D01*
X122997006Y-97577753D01*
X122980900Y-97658722D01*
X121129934Y-97658722D01*
X121112823Y-97432682D01*
X120970488Y-96922170D01*
X120923684Y-96809176D01*
X120688117Y-96470106D01*
X119258223Y-97900000D01*
X117641777Y-97900000D01*
X116211883Y-96470106D01*
X115976316Y-96809176D01*
X115811038Y-97312728D01*
X115747173Y-97838848D01*
X107265500Y-97838848D01*
X107265500Y-95661883D01*
X117020106Y-95661883D01*
X118450000Y-97091777D01*
X119879894Y-95661883D01*
X119587469Y-95458722D01*
X126480900Y-95458722D01*
X126480900Y-95541278D01*
X126497006Y-95622247D01*
X126528598Y-95698518D01*
X126574464Y-95767161D01*
X126632839Y-95825536D01*
X126701482Y-95871402D01*
X126777753Y-95902994D01*
X126858722Y-95919100D01*
X126941278Y-95919100D01*
X127022247Y-95902994D01*
X127098518Y-95871402D01*
X127167161Y-95825536D01*
X127225536Y-95767161D01*
X127271402Y-95698518D01*
X127302994Y-95622247D01*
X127319100Y-95541278D01*
X127319100Y-95458722D01*
X128480900Y-95458722D01*
X128480900Y-95541278D01*
X128497006Y-95622247D01*
X128528598Y-95698518D01*
X128574464Y-95767161D01*
X128632839Y-95825536D01*
X128701482Y-95871402D01*
X128777753Y-95902994D01*
X128858722Y-95919100D01*
X128941278Y-95919100D01*
X129022247Y-95902994D01*
X129098518Y-95871402D01*
X129167161Y-95825536D01*
X129225536Y-95767161D01*
X129271402Y-95698518D01*
X129286576Y-95661883D01*
X141170106Y-95661883D01*
X142600000Y-97091777D01*
X144029894Y-95661883D01*
X143690824Y-95426316D01*
X143187272Y-95261038D01*
X142661152Y-95197173D01*
X142132682Y-95237177D01*
X141622170Y-95379512D01*
X141509176Y-95426316D01*
X141170106Y-95661883D01*
X129286576Y-95661883D01*
X129302994Y-95622247D01*
X129319100Y-95541278D01*
X129319100Y-95458722D01*
X129302994Y-95377753D01*
X129271402Y-95301482D01*
X129225536Y-95232839D01*
X129167161Y-95174464D01*
X129098518Y-95128598D01*
X129022247Y-95097006D01*
X128941278Y-95080900D01*
X128858722Y-95080900D01*
X128777753Y-95097006D01*
X128701482Y-95128598D01*
X128632839Y-95174464D01*
X128574464Y-95232839D01*
X128528598Y-95301482D01*
X128497006Y-95377753D01*
X128480900Y-95458722D01*
X127319100Y-95458722D01*
X127302994Y-95377753D01*
X127271402Y-95301482D01*
X127225536Y-95232839D01*
X127167161Y-95174464D01*
X127098518Y-95128598D01*
X127022247Y-95097006D01*
X126941278Y-95080900D01*
X126858722Y-95080900D01*
X126777753Y-95097006D01*
X126701482Y-95128598D01*
X126632839Y-95174464D01*
X126574464Y-95232839D01*
X126528598Y-95301482D01*
X126497006Y-95377753D01*
X126480900Y-95458722D01*
X119587469Y-95458722D01*
X119540824Y-95426316D01*
X119037272Y-95261038D01*
X118511152Y-95197173D01*
X117982682Y-95237177D01*
X117472170Y-95379512D01*
X117359176Y-95426316D01*
X117020106Y-95661883D01*
X107265500Y-95661883D01*
X107265500Y-94958722D01*
X145080900Y-94958722D01*
X145080900Y-95041278D01*
X145097006Y-95122247D01*
X145128598Y-95198518D01*
X145174464Y-95267161D01*
X145232839Y-95325536D01*
X145301482Y-95371402D01*
X145377753Y-95402994D01*
X145458722Y-95419100D01*
X145541278Y-95419100D01*
X145622247Y-95402994D01*
X145698518Y-95371402D01*
X145767161Y-95325536D01*
X145825536Y-95267161D01*
X145871402Y-95198518D01*
X145902994Y-95122247D01*
X145919100Y-95041278D01*
X145919100Y-94958722D01*
X159580900Y-94958722D01*
X159580900Y-95041278D01*
X159597006Y-95122247D01*
X159628598Y-95198518D01*
X159662997Y-95250000D01*
X159628598Y-95301482D01*
X159597006Y-95377753D01*
X159580900Y-95458722D01*
X159580900Y-95541278D01*
X159597006Y-95622247D01*
X159628598Y-95698518D01*
X159662997Y-95750000D01*
X159628598Y-95801482D01*
X159597006Y-95877753D01*
X159580900Y-95958722D01*
X159580900Y-96041278D01*
X159597006Y-96122247D01*
X159628598Y-96198518D01*
X159662997Y-96250000D01*
X159628598Y-96301482D01*
X159597006Y-96377753D01*
X159580900Y-96458722D01*
X159580900Y-96541278D01*
X159597006Y-96622247D01*
X159628598Y-96698518D01*
X159662997Y-96750000D01*
X159628598Y-96801482D01*
X159597006Y-96877753D01*
X159580900Y-96958722D01*
X159580900Y-97041278D01*
X159597006Y-97122247D01*
X159628598Y-97198518D01*
X159674464Y-97267161D01*
X159732839Y-97325536D01*
X159801482Y-97371402D01*
X159877753Y-97402994D01*
X159958722Y-97419100D01*
X160041278Y-97419100D01*
X160122247Y-97402994D01*
X160198518Y-97371402D01*
X160250000Y-97337003D01*
X160301482Y-97371402D01*
X160377753Y-97402994D01*
X160458722Y-97419100D01*
X160541278Y-97419100D01*
X160622247Y-97402994D01*
X160698518Y-97371402D01*
X160750000Y-97337003D01*
X160801482Y-97371402D01*
X160877753Y-97402994D01*
X160958722Y-97419100D01*
X161041278Y-97419100D01*
X161122247Y-97402994D01*
X161198518Y-97371402D01*
X161250000Y-97337003D01*
X161301482Y-97371402D01*
X161377753Y-97402994D01*
X161458722Y-97419100D01*
X161541278Y-97419100D01*
X161622247Y-97402994D01*
X161698518Y-97371402D01*
X161767161Y-97325536D01*
X161825536Y-97267161D01*
X161871402Y-97198518D01*
X161902994Y-97122247D01*
X161919100Y-97041278D01*
X161919100Y-96958722D01*
X161902994Y-96877753D01*
X161871402Y-96801482D01*
X161837003Y-96750000D01*
X161871402Y-96698518D01*
X161902994Y-96622247D01*
X161919100Y-96541278D01*
X161919100Y-96458722D01*
X161902994Y-96377753D01*
X161871402Y-96301482D01*
X161837003Y-96250000D01*
X161871402Y-96198518D01*
X161902994Y-96122247D01*
X161919100Y-96041278D01*
X161919100Y-95958722D01*
X161902994Y-95877753D01*
X161871402Y-95801482D01*
X161837003Y-95750000D01*
X161871402Y-95698518D01*
X161902994Y-95622247D01*
X161919100Y-95541278D01*
X161919100Y-95458722D01*
X161902994Y-95377753D01*
X161871402Y-95301482D01*
X161837003Y-95250000D01*
X161871402Y-95198518D01*
X161902994Y-95122247D01*
X161919100Y-95041278D01*
X161919100Y-94958722D01*
X161902994Y-94877753D01*
X161871402Y-94801482D01*
X161825536Y-94732839D01*
X161767161Y-94674464D01*
X161698518Y-94628598D01*
X161622247Y-94597006D01*
X161541278Y-94580900D01*
X161458722Y-94580900D01*
X161377753Y-94597006D01*
X161301482Y-94628598D01*
X161250000Y-94662997D01*
X161198518Y-94628598D01*
X161122247Y-94597006D01*
X161041278Y-94580900D01*
X160958722Y-94580900D01*
X160877753Y-94597006D01*
X160801482Y-94628598D01*
X160750000Y-94662997D01*
X160698518Y-94628598D01*
X160622247Y-94597006D01*
X160541278Y-94580900D01*
X160458722Y-94580900D01*
X160377753Y-94597006D01*
X160301482Y-94628598D01*
X160250000Y-94662997D01*
X160198518Y-94628598D01*
X160122247Y-94597006D01*
X160041278Y-94580900D01*
X159958722Y-94580900D01*
X159877753Y-94597006D01*
X159801482Y-94628598D01*
X159732839Y-94674464D01*
X159674464Y-94732839D01*
X159628598Y-94801482D01*
X159597006Y-94877753D01*
X159580900Y-94958722D01*
X145919100Y-94958722D01*
X145902994Y-94877753D01*
X145871402Y-94801482D01*
X145825536Y-94732839D01*
X145767161Y-94674464D01*
X145698518Y-94628598D01*
X145622247Y-94597006D01*
X145541278Y-94580900D01*
X145458722Y-94580900D01*
X145377753Y-94597006D01*
X145301482Y-94628598D01*
X145232839Y-94674464D01*
X145174464Y-94732839D01*
X145128598Y-94801482D01*
X145097006Y-94877753D01*
X145080900Y-94958722D01*
X107265500Y-94958722D01*
X107265500Y-94265500D01*
X148652639Y-94265500D01*
X148628598Y-94301480D01*
M02*
