G04 #@! TF.GenerationSoftware,KiCad,Pcbnew,(5.1.5-0-10_14)*
G04 #@! TF.CreationDate,2020-04-12T13:45:19-07:00*
G04 #@! TF.ProjectId,kimchi_usb_ulid,6b696d63-6869-45f7-9573-625f756c6964,v0.1*
G04 #@! TF.SameCoordinates,Original*
G04 #@! TF.FileFunction,Soldermask,Bot*
G04 #@! TF.FilePolarity,Negative*
%FSLAX46Y46*%
G04 Gerber Fmt 4.6, Leading zero omitted, Abs format (unit mm)*
G04 Created by KiCad (PCBNEW (5.1.5-0-10_14)) date 2020-04-12 13:45:19*
%MOMM*%
%LPD*%
G04 APERTURE LIST*
%ADD10C,0.100000*%
%ADD11C,0.150000*%
G04 APERTURE END LIST*
D10*
G36*
X155000000Y-117500000D02*
G01*
X140000000Y-117500000D01*
X140000000Y-102500000D01*
X155000000Y-102500000D01*
X155000000Y-117500000D01*
G37*
X155000000Y-117500000D02*
X140000000Y-117500000D01*
X140000000Y-102500000D01*
X155000000Y-102500000D01*
X155000000Y-117500000D01*
D11*
X107000000Y-126000000D02*
X107000000Y-94000000D01*
X172000000Y-126000000D02*
X107000000Y-126000000D01*
X172000000Y-94000000D02*
X172000000Y-126000000D01*
X107000000Y-94000000D02*
X172000000Y-94000000D01*
D10*
G36*
X158450800Y-124960800D02*
G01*
X158149200Y-124960800D01*
X158149200Y-123359200D01*
X158450800Y-123359200D01*
X158450800Y-124960800D01*
G37*
G36*
X158050800Y-124960800D02*
G01*
X157749200Y-124960800D01*
X157749200Y-123359200D01*
X158050800Y-123359200D01*
X158050800Y-124960800D01*
G37*
G36*
X157650800Y-124960800D02*
G01*
X157349200Y-124960800D01*
X157349200Y-123359200D01*
X157650800Y-123359200D01*
X157650800Y-124960800D01*
G37*
G36*
X157250800Y-124960800D02*
G01*
X156949200Y-124960800D01*
X156949200Y-123359200D01*
X157250800Y-123359200D01*
X157250800Y-124960800D01*
G37*
G36*
X156850800Y-124960800D02*
G01*
X156549200Y-124960800D01*
X156549200Y-123359200D01*
X156850800Y-123359200D01*
X156850800Y-124960800D01*
G37*
G36*
X156450800Y-124960800D02*
G01*
X156149200Y-124960800D01*
X156149200Y-123359200D01*
X156450800Y-123359200D01*
X156450800Y-124960800D01*
G37*
G36*
X156050800Y-124960800D02*
G01*
X155749200Y-124960800D01*
X155749200Y-123359200D01*
X156050800Y-123359200D01*
X156050800Y-124960800D01*
G37*
G36*
X155650800Y-124960800D02*
G01*
X155349200Y-124960800D01*
X155349200Y-123359200D01*
X155650800Y-123359200D01*
X155650800Y-124960800D01*
G37*
G36*
X155250800Y-124960800D02*
G01*
X154949200Y-124960800D01*
X154949200Y-123359200D01*
X155250800Y-123359200D01*
X155250800Y-124960800D01*
G37*
G36*
X154850800Y-124960800D02*
G01*
X154549200Y-124960800D01*
X154549200Y-123359200D01*
X154850800Y-123359200D01*
X154850800Y-124960800D01*
G37*
G36*
X154450800Y-124960800D02*
G01*
X154149200Y-124960800D01*
X154149200Y-123359200D01*
X154450800Y-123359200D01*
X154450800Y-124960800D01*
G37*
G36*
X154050800Y-124960800D02*
G01*
X153749200Y-124960800D01*
X153749200Y-123359200D01*
X154050800Y-123359200D01*
X154050800Y-124960800D01*
G37*
G36*
X153650800Y-124960800D02*
G01*
X153349200Y-124960800D01*
X153349200Y-123359200D01*
X153650800Y-123359200D01*
X153650800Y-124960800D01*
G37*
G36*
X153250800Y-124960800D02*
G01*
X152949200Y-124960800D01*
X152949200Y-123359200D01*
X153250800Y-123359200D01*
X153250800Y-124960800D01*
G37*
G36*
X152850800Y-124960800D02*
G01*
X152549200Y-124960800D01*
X152549200Y-123359200D01*
X152850800Y-123359200D01*
X152850800Y-124960800D01*
G37*
G36*
X152450800Y-124960800D02*
G01*
X152149200Y-124960800D01*
X152149200Y-123359200D01*
X152450800Y-123359200D01*
X152450800Y-124960800D01*
G37*
G36*
X152050800Y-124960800D02*
G01*
X151749200Y-124960800D01*
X151749200Y-123359200D01*
X152050800Y-123359200D01*
X152050800Y-124960800D01*
G37*
G36*
X151650800Y-124960800D02*
G01*
X151349200Y-124960800D01*
X151349200Y-123359200D01*
X151650800Y-123359200D01*
X151650800Y-124960800D01*
G37*
G36*
X151250800Y-124960800D02*
G01*
X150949200Y-124960800D01*
X150949200Y-123359200D01*
X151250800Y-123359200D01*
X151250800Y-124960800D01*
G37*
G36*
X150850800Y-124960800D02*
G01*
X150549200Y-124960800D01*
X150549200Y-123359200D01*
X150850800Y-123359200D01*
X150850800Y-124960800D01*
G37*
G36*
X150450800Y-124960800D02*
G01*
X150149200Y-124960800D01*
X150149200Y-123359200D01*
X150450800Y-123359200D01*
X150450800Y-124960800D01*
G37*
G36*
X150050800Y-124960800D02*
G01*
X149749200Y-124960800D01*
X149749200Y-123359200D01*
X150050800Y-123359200D01*
X150050800Y-124960800D01*
G37*
G36*
X149650800Y-124960800D02*
G01*
X149349200Y-124960800D01*
X149349200Y-123359200D01*
X149650800Y-123359200D01*
X149650800Y-124960800D01*
G37*
G36*
X149250800Y-124960800D02*
G01*
X148949200Y-124960800D01*
X148949200Y-123359200D01*
X149250800Y-123359200D01*
X149250800Y-124960800D01*
G37*
G36*
X148850800Y-124960800D02*
G01*
X148549200Y-124960800D01*
X148549200Y-123359200D01*
X148850800Y-123359200D01*
X148850800Y-124960800D01*
G37*
G36*
X148450800Y-124960800D02*
G01*
X148149200Y-124960800D01*
X148149200Y-123359200D01*
X148450800Y-123359200D01*
X148450800Y-124960800D01*
G37*
G36*
X148050800Y-124960800D02*
G01*
X147749200Y-124960800D01*
X147749200Y-123359200D01*
X148050800Y-123359200D01*
X148050800Y-124960800D01*
G37*
G36*
X147650800Y-124960800D02*
G01*
X147349200Y-124960800D01*
X147349200Y-123359200D01*
X147650800Y-123359200D01*
X147650800Y-124960800D01*
G37*
G36*
X147250800Y-124960800D02*
G01*
X146949200Y-124960800D01*
X146949200Y-123359200D01*
X147250800Y-123359200D01*
X147250800Y-124960800D01*
G37*
G36*
X146850800Y-124960800D02*
G01*
X146549200Y-124960800D01*
X146549200Y-123359200D01*
X146850800Y-123359200D01*
X146850800Y-124960800D01*
G37*
G36*
X119194041Y-119647226D02*
G01*
X119658258Y-119839510D01*
X120076041Y-120118665D01*
X120431335Y-120473959D01*
X120710490Y-120891742D01*
X120902774Y-121355959D01*
X121000800Y-121848769D01*
X121000800Y-122351231D01*
X120902774Y-122844041D01*
X120710490Y-123308258D01*
X120431335Y-123726041D01*
X120076041Y-124081335D01*
X119658258Y-124360490D01*
X119194041Y-124552774D01*
X118701232Y-124650800D01*
X118198768Y-124650800D01*
X117705959Y-124552774D01*
X117241742Y-124360490D01*
X116823959Y-124081335D01*
X116468665Y-123726041D01*
X116189510Y-123308258D01*
X115997226Y-122844041D01*
X115899200Y-122351231D01*
X115899200Y-121848769D01*
X115997226Y-121355959D01*
X116189510Y-120891742D01*
X116468665Y-120473959D01*
X116823959Y-120118665D01*
X117241742Y-119839510D01*
X117705959Y-119647226D01*
X118198768Y-119549200D01*
X118701232Y-119549200D01*
X119194041Y-119647226D01*
G37*
G36*
X143344041Y-119647226D02*
G01*
X143808258Y-119839510D01*
X144226041Y-120118665D01*
X144581335Y-120473959D01*
X144860490Y-120891742D01*
X145052774Y-121355959D01*
X145150800Y-121848769D01*
X145150800Y-122351231D01*
X145052774Y-122844041D01*
X144860490Y-123308258D01*
X144581335Y-123726041D01*
X144226041Y-124081335D01*
X143808258Y-124360490D01*
X143344041Y-124552774D01*
X142851232Y-124650800D01*
X142348768Y-124650800D01*
X141855959Y-124552774D01*
X141391742Y-124360490D01*
X140973959Y-124081335D01*
X140618665Y-123726041D01*
X140339510Y-123308258D01*
X140147226Y-122844041D01*
X140049200Y-122351231D01*
X140049200Y-121848769D01*
X140147226Y-121355959D01*
X140339510Y-120891742D01*
X140618665Y-120473959D01*
X140973959Y-120118665D01*
X141391742Y-119839510D01*
X141855959Y-119647226D01*
X142348768Y-119549200D01*
X142851232Y-119549200D01*
X143344041Y-119647226D01*
G37*
G36*
X158050800Y-122640800D02*
G01*
X157749200Y-122640800D01*
X157749200Y-121039200D01*
X158050800Y-121039200D01*
X158050800Y-122640800D01*
G37*
G36*
X157650800Y-122640800D02*
G01*
X157349200Y-122640800D01*
X157349200Y-121039200D01*
X157650800Y-121039200D01*
X157650800Y-122640800D01*
G37*
G36*
X157250800Y-122640800D02*
G01*
X156949200Y-122640800D01*
X156949200Y-121039200D01*
X157250800Y-121039200D01*
X157250800Y-122640800D01*
G37*
G36*
X156850800Y-122640800D02*
G01*
X156549200Y-122640800D01*
X156549200Y-121039200D01*
X156850800Y-121039200D01*
X156850800Y-122640800D01*
G37*
G36*
X158450800Y-122640800D02*
G01*
X158149200Y-122640800D01*
X158149200Y-121039200D01*
X158450800Y-121039200D01*
X158450800Y-122640800D01*
G37*
G36*
X156450800Y-122640800D02*
G01*
X156149200Y-122640800D01*
X156149200Y-121039200D01*
X156450800Y-121039200D01*
X156450800Y-122640800D01*
G37*
G36*
X156050800Y-122640800D02*
G01*
X155749200Y-122640800D01*
X155749200Y-121039200D01*
X156050800Y-121039200D01*
X156050800Y-122640800D01*
G37*
G36*
X146850800Y-122640800D02*
G01*
X146549200Y-122640800D01*
X146549200Y-121039200D01*
X146850800Y-121039200D01*
X146850800Y-122640800D01*
G37*
G36*
X155650800Y-122640800D02*
G01*
X155349200Y-122640800D01*
X155349200Y-121039200D01*
X155650800Y-121039200D01*
X155650800Y-122640800D01*
G37*
G36*
X147250800Y-122640800D02*
G01*
X146949200Y-122640800D01*
X146949200Y-121039200D01*
X147250800Y-121039200D01*
X147250800Y-122640800D01*
G37*
G36*
X155250800Y-122640800D02*
G01*
X154949200Y-122640800D01*
X154949200Y-121039200D01*
X155250800Y-121039200D01*
X155250800Y-122640800D01*
G37*
G36*
X147650800Y-122640800D02*
G01*
X147349200Y-122640800D01*
X147349200Y-121039200D01*
X147650800Y-121039200D01*
X147650800Y-122640800D01*
G37*
G36*
X154850800Y-122640800D02*
G01*
X154549200Y-122640800D01*
X154549200Y-121039200D01*
X154850800Y-121039200D01*
X154850800Y-122640800D01*
G37*
G36*
X148050800Y-122640800D02*
G01*
X147749200Y-122640800D01*
X147749200Y-121039200D01*
X148050800Y-121039200D01*
X148050800Y-122640800D01*
G37*
G36*
X154450800Y-122640800D02*
G01*
X154149200Y-122640800D01*
X154149200Y-121039200D01*
X154450800Y-121039200D01*
X154450800Y-122640800D01*
G37*
G36*
X148450800Y-122640800D02*
G01*
X148149200Y-122640800D01*
X148149200Y-121039200D01*
X148450800Y-121039200D01*
X148450800Y-122640800D01*
G37*
G36*
X154050800Y-122640800D02*
G01*
X153749200Y-122640800D01*
X153749200Y-121039200D01*
X154050800Y-121039200D01*
X154050800Y-122640800D01*
G37*
G36*
X148850800Y-122640800D02*
G01*
X148549200Y-122640800D01*
X148549200Y-121039200D01*
X148850800Y-121039200D01*
X148850800Y-122640800D01*
G37*
G36*
X153650800Y-122640800D02*
G01*
X153349200Y-122640800D01*
X153349200Y-121039200D01*
X153650800Y-121039200D01*
X153650800Y-122640800D01*
G37*
G36*
X149250800Y-122640800D02*
G01*
X148949200Y-122640800D01*
X148949200Y-121039200D01*
X149250800Y-121039200D01*
X149250800Y-122640800D01*
G37*
G36*
X153250800Y-122640800D02*
G01*
X152949200Y-122640800D01*
X152949200Y-121039200D01*
X153250800Y-121039200D01*
X153250800Y-122640800D01*
G37*
G36*
X149650800Y-122640800D02*
G01*
X149349200Y-122640800D01*
X149349200Y-121039200D01*
X149650800Y-121039200D01*
X149650800Y-122640800D01*
G37*
G36*
X152850800Y-122640800D02*
G01*
X152549200Y-122640800D01*
X152549200Y-121039200D01*
X152850800Y-121039200D01*
X152850800Y-122640800D01*
G37*
G36*
X150050800Y-122640800D02*
G01*
X149749200Y-122640800D01*
X149749200Y-121039200D01*
X150050800Y-121039200D01*
X150050800Y-122640800D01*
G37*
G36*
X152450800Y-122640800D02*
G01*
X152149200Y-122640800D01*
X152149200Y-121039200D01*
X152450800Y-121039200D01*
X152450800Y-122640800D01*
G37*
G36*
X150450800Y-122640800D02*
G01*
X150149200Y-122640800D01*
X150149200Y-121039200D01*
X150450800Y-121039200D01*
X150450800Y-122640800D01*
G37*
G36*
X152050800Y-122640800D02*
G01*
X151749200Y-122640800D01*
X151749200Y-121039200D01*
X152050800Y-121039200D01*
X152050800Y-122640800D01*
G37*
G36*
X150850800Y-122640800D02*
G01*
X150549200Y-122640800D01*
X150549200Y-121039200D01*
X150850800Y-121039200D01*
X150850800Y-122640800D01*
G37*
G36*
X151650800Y-122640800D02*
G01*
X151349200Y-122640800D01*
X151349200Y-121039200D01*
X151650800Y-121039200D01*
X151650800Y-122640800D01*
G37*
G36*
X151250800Y-122640800D02*
G01*
X150949200Y-122640800D01*
X150949200Y-121039200D01*
X151250800Y-121039200D01*
X151250800Y-122640800D01*
G37*
G36*
X161600800Y-119400800D02*
G01*
X161049200Y-119400800D01*
X161049200Y-118899200D01*
X161600800Y-118899200D01*
X161600800Y-119400800D01*
G37*
G36*
X162750800Y-119050800D02*
G01*
X162199200Y-119050800D01*
X162199200Y-118449200D01*
X162750800Y-118449200D01*
X162750800Y-119050800D01*
G37*
G36*
X161600800Y-118600800D02*
G01*
X161049200Y-118600800D01*
X161049200Y-118099200D01*
X161600800Y-118099200D01*
X161600800Y-118600800D01*
G37*
G36*
X170522352Y-115218796D02*
G01*
X170721917Y-115301459D01*
X170804580Y-115335699D01*
X170849054Y-115365416D01*
X171058578Y-115505415D01*
X171274585Y-115721422D01*
X171350756Y-115835421D01*
X171444301Y-115975420D01*
X171444301Y-115975421D01*
X171561204Y-116257648D01*
X171620800Y-116557259D01*
X171620800Y-116862741D01*
X171561204Y-117162352D01*
X171502291Y-117304579D01*
X171444301Y-117444580D01*
X171376322Y-117546317D01*
X171274585Y-117698578D01*
X171058578Y-117914585D01*
X170906317Y-118016322D01*
X170804580Y-118084301D01*
X170768610Y-118099200D01*
X170522352Y-118201204D01*
X170222741Y-118260800D01*
X169917259Y-118260800D01*
X169617648Y-118201204D01*
X169371390Y-118099200D01*
X169335420Y-118084301D01*
X169233683Y-118016322D01*
X169081422Y-117914585D01*
X168865415Y-117698578D01*
X168763678Y-117546317D01*
X168695699Y-117444580D01*
X168637709Y-117304579D01*
X168578796Y-117162352D01*
X168519200Y-116862741D01*
X168519200Y-116557259D01*
X168578796Y-116257648D01*
X168695699Y-115975421D01*
X168695699Y-115975420D01*
X168789244Y-115835421D01*
X168865415Y-115721422D01*
X169081422Y-115505415D01*
X169290946Y-115365416D01*
X169335420Y-115335699D01*
X169418083Y-115301459D01*
X169617648Y-115218796D01*
X169917259Y-115159200D01*
X170222741Y-115159200D01*
X170522352Y-115218796D01*
G37*
G36*
X157382352Y-115218796D02*
G01*
X157581917Y-115301459D01*
X157664580Y-115335699D01*
X157709054Y-115365416D01*
X157918578Y-115505415D01*
X158134585Y-115721422D01*
X158210756Y-115835421D01*
X158304301Y-115975420D01*
X158304301Y-115975421D01*
X158421204Y-116257648D01*
X158480800Y-116557259D01*
X158480800Y-116862741D01*
X158421204Y-117162352D01*
X158362291Y-117304579D01*
X158304301Y-117444580D01*
X158236322Y-117546317D01*
X158134585Y-117698578D01*
X157918578Y-117914585D01*
X157766317Y-118016322D01*
X157664580Y-118084301D01*
X157628610Y-118099200D01*
X157382352Y-118201204D01*
X157082741Y-118260800D01*
X156777259Y-118260800D01*
X156477648Y-118201204D01*
X156231390Y-118099200D01*
X156195420Y-118084301D01*
X156093683Y-118016322D01*
X155941422Y-117914585D01*
X155725415Y-117698578D01*
X155623678Y-117546317D01*
X155555699Y-117444580D01*
X155497709Y-117304579D01*
X155438796Y-117162352D01*
X155379200Y-116862741D01*
X155379200Y-116557259D01*
X155438796Y-116257648D01*
X155555699Y-115975421D01*
X155555699Y-115975420D01*
X155649244Y-115835421D01*
X155725415Y-115721422D01*
X155941422Y-115505415D01*
X156150946Y-115365416D01*
X156195420Y-115335699D01*
X156278083Y-115301459D01*
X156477648Y-115218796D01*
X156777259Y-115159200D01*
X157082741Y-115159200D01*
X157382352Y-115218796D01*
G37*
G36*
X116742352Y-115078796D02*
G01*
X116936463Y-115159200D01*
X117024580Y-115195699D01*
X117059148Y-115218797D01*
X117278578Y-115365415D01*
X117494585Y-115581422D01*
X117588130Y-115721422D01*
X117664301Y-115835420D01*
X117664301Y-115835421D01*
X117781204Y-116117648D01*
X117840800Y-116417259D01*
X117840800Y-116722741D01*
X117781204Y-117022352D01*
X117698541Y-117221917D01*
X117664301Y-117304580D01*
X117596322Y-117406317D01*
X117494585Y-117558578D01*
X117278578Y-117774585D01*
X117126317Y-117876322D01*
X117024580Y-117944301D01*
X116941917Y-117978541D01*
X116742352Y-118061204D01*
X116442741Y-118120800D01*
X116137259Y-118120800D01*
X115837648Y-118061204D01*
X115638083Y-117978541D01*
X115555420Y-117944301D01*
X115453683Y-117876322D01*
X115301422Y-117774585D01*
X115085415Y-117558578D01*
X114983678Y-117406317D01*
X114915699Y-117304580D01*
X114881459Y-117221917D01*
X114798796Y-117022352D01*
X114739200Y-116722741D01*
X114739200Y-116417259D01*
X114798796Y-116117648D01*
X114915699Y-115835421D01*
X114915699Y-115835420D01*
X114991870Y-115721422D01*
X115085415Y-115581422D01*
X115301422Y-115365415D01*
X115520852Y-115218797D01*
X115555420Y-115195699D01*
X115643537Y-115159200D01*
X115837648Y-115078796D01*
X116137259Y-115019200D01*
X116442741Y-115019200D01*
X116742352Y-115078796D01*
G37*
G36*
X167248169Y-113181895D02*
G01*
X167357655Y-113227246D01*
X167403006Y-113246031D01*
X167458821Y-113283325D01*
X167542354Y-113339140D01*
X167660860Y-113457646D01*
X167716675Y-113541179D01*
X167753969Y-113596994D01*
X167753969Y-113596995D01*
X167818105Y-113751831D01*
X167850800Y-113916203D01*
X167850800Y-114083797D01*
X167818105Y-114248169D01*
X167789136Y-114318105D01*
X167753969Y-114403006D01*
X167716675Y-114458821D01*
X167660860Y-114542354D01*
X167542354Y-114660860D01*
X167458821Y-114716675D01*
X167403006Y-114753969D01*
X167357655Y-114772754D01*
X167248169Y-114818105D01*
X167083797Y-114850800D01*
X166916203Y-114850800D01*
X166751831Y-114818105D01*
X166642345Y-114772754D01*
X166596994Y-114753969D01*
X166541179Y-114716675D01*
X166457646Y-114660860D01*
X166339140Y-114542354D01*
X166283325Y-114458821D01*
X166246031Y-114403006D01*
X166210864Y-114318105D01*
X166181895Y-114248169D01*
X166149200Y-114083797D01*
X166149200Y-113916203D01*
X166181895Y-113751831D01*
X166246031Y-113596995D01*
X166246031Y-113596994D01*
X166283325Y-113541179D01*
X166339140Y-113457646D01*
X166457646Y-113339140D01*
X166541179Y-113283325D01*
X166596994Y-113246031D01*
X166642345Y-113227246D01*
X166751831Y-113181895D01*
X166916203Y-113149200D01*
X167083797Y-113149200D01*
X167248169Y-113181895D01*
G37*
G36*
X164748169Y-113181895D02*
G01*
X164857655Y-113227246D01*
X164903006Y-113246031D01*
X164958821Y-113283325D01*
X165042354Y-113339140D01*
X165160860Y-113457646D01*
X165216675Y-113541179D01*
X165253969Y-113596994D01*
X165253969Y-113596995D01*
X165318105Y-113751831D01*
X165350800Y-113916203D01*
X165350800Y-114083797D01*
X165318105Y-114248169D01*
X165289136Y-114318105D01*
X165253969Y-114403006D01*
X165216675Y-114458821D01*
X165160860Y-114542354D01*
X165042354Y-114660860D01*
X164958821Y-114716675D01*
X164903006Y-114753969D01*
X164857655Y-114772754D01*
X164748169Y-114818105D01*
X164583797Y-114850800D01*
X164416203Y-114850800D01*
X164251831Y-114818105D01*
X164142345Y-114772754D01*
X164096994Y-114753969D01*
X164041179Y-114716675D01*
X163957646Y-114660860D01*
X163839140Y-114542354D01*
X163783325Y-114458821D01*
X163746031Y-114403006D01*
X163710864Y-114318105D01*
X163681895Y-114248169D01*
X163649200Y-114083797D01*
X163649200Y-113916203D01*
X163681895Y-113751831D01*
X163746031Y-113596995D01*
X163746031Y-113596994D01*
X163783325Y-113541179D01*
X163839140Y-113457646D01*
X163957646Y-113339140D01*
X164041179Y-113283325D01*
X164096994Y-113246031D01*
X164142345Y-113227246D01*
X164251831Y-113181895D01*
X164416203Y-113149200D01*
X164583797Y-113149200D01*
X164748169Y-113181895D01*
G37*
G36*
X162748169Y-113181895D02*
G01*
X162857655Y-113227246D01*
X162903006Y-113246031D01*
X162958821Y-113283325D01*
X163042354Y-113339140D01*
X163160860Y-113457646D01*
X163216675Y-113541179D01*
X163253969Y-113596994D01*
X163253969Y-113596995D01*
X163318105Y-113751831D01*
X163350800Y-113916203D01*
X163350800Y-114083797D01*
X163318105Y-114248169D01*
X163289136Y-114318105D01*
X163253969Y-114403006D01*
X163216675Y-114458821D01*
X163160860Y-114542354D01*
X163042354Y-114660860D01*
X162958821Y-114716675D01*
X162903006Y-114753969D01*
X162857655Y-114772754D01*
X162748169Y-114818105D01*
X162583797Y-114850800D01*
X162416203Y-114850800D01*
X162251831Y-114818105D01*
X162142345Y-114772754D01*
X162096994Y-114753969D01*
X162041179Y-114716675D01*
X161957646Y-114660860D01*
X161839140Y-114542354D01*
X161783325Y-114458821D01*
X161746031Y-114403006D01*
X161710864Y-114318105D01*
X161681895Y-114248169D01*
X161649200Y-114083797D01*
X161649200Y-113916203D01*
X161681895Y-113751831D01*
X161746031Y-113596995D01*
X161746031Y-113596994D01*
X161783325Y-113541179D01*
X161839140Y-113457646D01*
X161957646Y-113339140D01*
X162041179Y-113283325D01*
X162096994Y-113246031D01*
X162142345Y-113227246D01*
X162251831Y-113181895D01*
X162416203Y-113149200D01*
X162583797Y-113149200D01*
X162748169Y-113181895D01*
G37*
G36*
X160850800Y-114850800D02*
G01*
X159149200Y-114850800D01*
X159149200Y-113149200D01*
X160850800Y-113149200D01*
X160850800Y-114850800D01*
G37*
G36*
X119248169Y-112681895D02*
G01*
X119357655Y-112727246D01*
X119403006Y-112746031D01*
X119458821Y-112783325D01*
X119542354Y-112839140D01*
X119660860Y-112957646D01*
X119716675Y-113041179D01*
X119753969Y-113096994D01*
X119753969Y-113096995D01*
X119818105Y-113251831D01*
X119850800Y-113416203D01*
X119850800Y-113583797D01*
X119818105Y-113748169D01*
X119772754Y-113857655D01*
X119753969Y-113903006D01*
X119745150Y-113916204D01*
X119660860Y-114042354D01*
X119542354Y-114160860D01*
X119458821Y-114216675D01*
X119403006Y-114253969D01*
X119357655Y-114272754D01*
X119248169Y-114318105D01*
X119083797Y-114350800D01*
X118916203Y-114350800D01*
X118751831Y-114318105D01*
X118642345Y-114272754D01*
X118596994Y-114253969D01*
X118541179Y-114216675D01*
X118457646Y-114160860D01*
X118339140Y-114042354D01*
X118254850Y-113916204D01*
X118246031Y-113903006D01*
X118227246Y-113857655D01*
X118181895Y-113748169D01*
X118149200Y-113583797D01*
X118149200Y-113416203D01*
X118181895Y-113251831D01*
X118246031Y-113096995D01*
X118246031Y-113096994D01*
X118283325Y-113041179D01*
X118339140Y-112957646D01*
X118457646Y-112839140D01*
X118541179Y-112783325D01*
X118596994Y-112746031D01*
X118642345Y-112727246D01*
X118751831Y-112681895D01*
X118916203Y-112649200D01*
X119083797Y-112649200D01*
X119248169Y-112681895D01*
G37*
G36*
X119248169Y-110181895D02*
G01*
X119357655Y-110227246D01*
X119403006Y-110246031D01*
X119458821Y-110283325D01*
X119542354Y-110339140D01*
X119660860Y-110457646D01*
X119716675Y-110541179D01*
X119753969Y-110596994D01*
X119753969Y-110596995D01*
X119818105Y-110751831D01*
X119850800Y-110916203D01*
X119850800Y-111083797D01*
X119818105Y-111248169D01*
X119772754Y-111357655D01*
X119753969Y-111403006D01*
X119716675Y-111458821D01*
X119660860Y-111542354D01*
X119542354Y-111660860D01*
X119458821Y-111716675D01*
X119403006Y-111753969D01*
X119357655Y-111772754D01*
X119248169Y-111818105D01*
X119083797Y-111850800D01*
X118916203Y-111850800D01*
X118751831Y-111818105D01*
X118642345Y-111772754D01*
X118596994Y-111753969D01*
X118541179Y-111716675D01*
X118457646Y-111660860D01*
X118339140Y-111542354D01*
X118283325Y-111458821D01*
X118246031Y-111403006D01*
X118227246Y-111357655D01*
X118181895Y-111248169D01*
X118149200Y-111083797D01*
X118149200Y-110916203D01*
X118181895Y-110751831D01*
X118246031Y-110596995D01*
X118246031Y-110596994D01*
X118283325Y-110541179D01*
X118339140Y-110457646D01*
X118457646Y-110339140D01*
X118541179Y-110283325D01*
X118596994Y-110246031D01*
X118642345Y-110227246D01*
X118751831Y-110181895D01*
X118916203Y-110149200D01*
X119083797Y-110149200D01*
X119248169Y-110181895D01*
G37*
G36*
X122000800Y-110650800D02*
G01*
X121449200Y-110650800D01*
X121449200Y-110149200D01*
X122000800Y-110149200D01*
X122000800Y-110650800D01*
G37*
G36*
X123150800Y-110300800D02*
G01*
X122599200Y-110300800D01*
X122599200Y-109699200D01*
X123150800Y-109699200D01*
X123150800Y-110300800D01*
G37*
G36*
X122000800Y-109850800D02*
G01*
X121449200Y-109850800D01*
X121449200Y-109349200D01*
X122000800Y-109349200D01*
X122000800Y-109850800D01*
G37*
G36*
X119248169Y-108181895D02*
G01*
X119357655Y-108227246D01*
X119403006Y-108246031D01*
X119458821Y-108283325D01*
X119542354Y-108339140D01*
X119660860Y-108457646D01*
X119716675Y-108541179D01*
X119753969Y-108596994D01*
X119753969Y-108596995D01*
X119818105Y-108751831D01*
X119850800Y-108916203D01*
X119850800Y-109083797D01*
X119818105Y-109248169D01*
X119776256Y-109349200D01*
X119753969Y-109403006D01*
X119716675Y-109458821D01*
X119660860Y-109542354D01*
X119542354Y-109660860D01*
X119458821Y-109716675D01*
X119403006Y-109753969D01*
X119357655Y-109772754D01*
X119248169Y-109818105D01*
X119083797Y-109850800D01*
X118916203Y-109850800D01*
X118751831Y-109818105D01*
X118642345Y-109772754D01*
X118596994Y-109753969D01*
X118541179Y-109716675D01*
X118457646Y-109660860D01*
X118339140Y-109542354D01*
X118283325Y-109458821D01*
X118246031Y-109403006D01*
X118223744Y-109349200D01*
X118181895Y-109248169D01*
X118149200Y-109083797D01*
X118149200Y-108916203D01*
X118181895Y-108751831D01*
X118246031Y-108596995D01*
X118246031Y-108596994D01*
X118283325Y-108541179D01*
X118339140Y-108457646D01*
X118457646Y-108339140D01*
X118541179Y-108283325D01*
X118596994Y-108246031D01*
X118642345Y-108227246D01*
X118751831Y-108181895D01*
X118916203Y-108149200D01*
X119083797Y-108149200D01*
X119248169Y-108181895D01*
G37*
G36*
X119850800Y-107350800D02*
G01*
X118149200Y-107350800D01*
X118149200Y-105649200D01*
X119850800Y-105649200D01*
X119850800Y-107350800D01*
G37*
G36*
X167850800Y-106850800D02*
G01*
X166149200Y-106850800D01*
X166149200Y-105149200D01*
X167850800Y-105149200D01*
X167850800Y-106850800D01*
G37*
G36*
X164748169Y-105181895D02*
G01*
X164857655Y-105227246D01*
X164903006Y-105246031D01*
X164958821Y-105283325D01*
X165042354Y-105339140D01*
X165160860Y-105457646D01*
X165216675Y-105541179D01*
X165253969Y-105596994D01*
X165253969Y-105596995D01*
X165318105Y-105751831D01*
X165350800Y-105916203D01*
X165350800Y-106083797D01*
X165318105Y-106248169D01*
X165272754Y-106357655D01*
X165253969Y-106403006D01*
X165216675Y-106458821D01*
X165160860Y-106542354D01*
X165042354Y-106660860D01*
X164958821Y-106716675D01*
X164903006Y-106753969D01*
X164857655Y-106772754D01*
X164748169Y-106818105D01*
X164583797Y-106850800D01*
X164416203Y-106850800D01*
X164251831Y-106818105D01*
X164142345Y-106772754D01*
X164096994Y-106753969D01*
X164041179Y-106716675D01*
X163957646Y-106660860D01*
X163839140Y-106542354D01*
X163783325Y-106458821D01*
X163746031Y-106403006D01*
X163727246Y-106357655D01*
X163681895Y-106248169D01*
X163649200Y-106083797D01*
X163649200Y-105916203D01*
X163681895Y-105751831D01*
X163746031Y-105596995D01*
X163746031Y-105596994D01*
X163783325Y-105541179D01*
X163839140Y-105457646D01*
X163957646Y-105339140D01*
X164041179Y-105283325D01*
X164096994Y-105246031D01*
X164142345Y-105227246D01*
X164251831Y-105181895D01*
X164416203Y-105149200D01*
X164583797Y-105149200D01*
X164748169Y-105181895D01*
G37*
G36*
X162748169Y-105181895D02*
G01*
X162857655Y-105227246D01*
X162903006Y-105246031D01*
X162958821Y-105283325D01*
X163042354Y-105339140D01*
X163160860Y-105457646D01*
X163216675Y-105541179D01*
X163253969Y-105596994D01*
X163253969Y-105596995D01*
X163318105Y-105751831D01*
X163350800Y-105916203D01*
X163350800Y-106083797D01*
X163318105Y-106248169D01*
X163272754Y-106357655D01*
X163253969Y-106403006D01*
X163216675Y-106458821D01*
X163160860Y-106542354D01*
X163042354Y-106660860D01*
X162958821Y-106716675D01*
X162903006Y-106753969D01*
X162857655Y-106772754D01*
X162748169Y-106818105D01*
X162583797Y-106850800D01*
X162416203Y-106850800D01*
X162251831Y-106818105D01*
X162142345Y-106772754D01*
X162096994Y-106753969D01*
X162041179Y-106716675D01*
X161957646Y-106660860D01*
X161839140Y-106542354D01*
X161783325Y-106458821D01*
X161746031Y-106403006D01*
X161727246Y-106357655D01*
X161681895Y-106248169D01*
X161649200Y-106083797D01*
X161649200Y-105916203D01*
X161681895Y-105751831D01*
X161746031Y-105596995D01*
X161746031Y-105596994D01*
X161783325Y-105541179D01*
X161839140Y-105457646D01*
X161957646Y-105339140D01*
X162041179Y-105283325D01*
X162096994Y-105246031D01*
X162142345Y-105227246D01*
X162251831Y-105181895D01*
X162416203Y-105149200D01*
X162583797Y-105149200D01*
X162748169Y-105181895D01*
G37*
G36*
X160248169Y-105181895D02*
G01*
X160357655Y-105227246D01*
X160403006Y-105246031D01*
X160458821Y-105283325D01*
X160542354Y-105339140D01*
X160660860Y-105457646D01*
X160716675Y-105541179D01*
X160753969Y-105596994D01*
X160753969Y-105596995D01*
X160818105Y-105751831D01*
X160850800Y-105916203D01*
X160850800Y-106083797D01*
X160818105Y-106248169D01*
X160772754Y-106357655D01*
X160753969Y-106403006D01*
X160716675Y-106458821D01*
X160660860Y-106542354D01*
X160542354Y-106660860D01*
X160458821Y-106716675D01*
X160403006Y-106753969D01*
X160357655Y-106772754D01*
X160248169Y-106818105D01*
X160083797Y-106850800D01*
X159916203Y-106850800D01*
X159751831Y-106818105D01*
X159642345Y-106772754D01*
X159596994Y-106753969D01*
X159541179Y-106716675D01*
X159457646Y-106660860D01*
X159339140Y-106542354D01*
X159283325Y-106458821D01*
X159246031Y-106403006D01*
X159227246Y-106357655D01*
X159181895Y-106248169D01*
X159149200Y-106083797D01*
X159149200Y-105916203D01*
X159181895Y-105751831D01*
X159246031Y-105596995D01*
X159246031Y-105596994D01*
X159283325Y-105541179D01*
X159339140Y-105457646D01*
X159457646Y-105339140D01*
X159541179Y-105283325D01*
X159596994Y-105246031D01*
X159642345Y-105227246D01*
X159751831Y-105181895D01*
X159916203Y-105149200D01*
X160083797Y-105149200D01*
X160248169Y-105181895D01*
G37*
G36*
X116742352Y-101938796D02*
G01*
X116941917Y-102021459D01*
X117024580Y-102055699D01*
X117069054Y-102085416D01*
X117278578Y-102225415D01*
X117494585Y-102441422D01*
X117570756Y-102555421D01*
X117664301Y-102695420D01*
X117664301Y-102695421D01*
X117781204Y-102977648D01*
X117840800Y-103277259D01*
X117840800Y-103582741D01*
X117781204Y-103882352D01*
X117722291Y-104024579D01*
X117664301Y-104164580D01*
X117596322Y-104266317D01*
X117494585Y-104418578D01*
X117278578Y-104634585D01*
X117126317Y-104736322D01*
X117024580Y-104804301D01*
X116941917Y-104838541D01*
X116742352Y-104921204D01*
X116442741Y-104980800D01*
X116137259Y-104980800D01*
X115837648Y-104921204D01*
X115638083Y-104838541D01*
X115555420Y-104804301D01*
X115453683Y-104736322D01*
X115301422Y-104634585D01*
X115085415Y-104418578D01*
X114983678Y-104266317D01*
X114915699Y-104164580D01*
X114857709Y-104024579D01*
X114798796Y-103882352D01*
X114739200Y-103582741D01*
X114739200Y-103277259D01*
X114798796Y-102977648D01*
X114915699Y-102695421D01*
X114915699Y-102695420D01*
X115009244Y-102555421D01*
X115085415Y-102441422D01*
X115301422Y-102225415D01*
X115510946Y-102085416D01*
X115555420Y-102055699D01*
X115638083Y-102021459D01*
X115837648Y-101938796D01*
X116137259Y-101879200D01*
X116442741Y-101879200D01*
X116742352Y-101938796D01*
G37*
G36*
X157382352Y-101798796D02*
G01*
X157576463Y-101879200D01*
X157664580Y-101915699D01*
X157699148Y-101938797D01*
X157918578Y-102085415D01*
X158134585Y-102301422D01*
X158228130Y-102441422D01*
X158304301Y-102555420D01*
X158304301Y-102555421D01*
X158421204Y-102837648D01*
X158480800Y-103137259D01*
X158480800Y-103442741D01*
X158421204Y-103742352D01*
X158338541Y-103941917D01*
X158304301Y-104024580D01*
X158236322Y-104126317D01*
X158134585Y-104278578D01*
X157918578Y-104494585D01*
X157766317Y-104596322D01*
X157664580Y-104664301D01*
X157581917Y-104698541D01*
X157382352Y-104781204D01*
X157082741Y-104840800D01*
X156777259Y-104840800D01*
X156477648Y-104781204D01*
X156278083Y-104698541D01*
X156195420Y-104664301D01*
X156093683Y-104596322D01*
X155941422Y-104494585D01*
X155725415Y-104278578D01*
X155623678Y-104126317D01*
X155555699Y-104024580D01*
X155521459Y-103941917D01*
X155438796Y-103742352D01*
X155379200Y-103442741D01*
X155379200Y-103137259D01*
X155438796Y-102837648D01*
X155555699Y-102555421D01*
X155555699Y-102555420D01*
X155631870Y-102441422D01*
X155725415Y-102301422D01*
X155941422Y-102085415D01*
X156160852Y-101938797D01*
X156195420Y-101915699D01*
X156283537Y-101879200D01*
X156477648Y-101798796D01*
X156777259Y-101739200D01*
X157082741Y-101739200D01*
X157382352Y-101798796D01*
G37*
G36*
X170522352Y-101798796D02*
G01*
X170716463Y-101879200D01*
X170804580Y-101915699D01*
X170839148Y-101938797D01*
X171058578Y-102085415D01*
X171274585Y-102301422D01*
X171368130Y-102441422D01*
X171444301Y-102555420D01*
X171444301Y-102555421D01*
X171561204Y-102837648D01*
X171620800Y-103137259D01*
X171620800Y-103442741D01*
X171561204Y-103742352D01*
X171478541Y-103941917D01*
X171444301Y-104024580D01*
X171376322Y-104126317D01*
X171274585Y-104278578D01*
X171058578Y-104494585D01*
X170906317Y-104596322D01*
X170804580Y-104664301D01*
X170721917Y-104698541D01*
X170522352Y-104781204D01*
X170222741Y-104840800D01*
X169917259Y-104840800D01*
X169617648Y-104781204D01*
X169418083Y-104698541D01*
X169335420Y-104664301D01*
X169233683Y-104596322D01*
X169081422Y-104494585D01*
X168865415Y-104278578D01*
X168763678Y-104126317D01*
X168695699Y-104024580D01*
X168661459Y-103941917D01*
X168578796Y-103742352D01*
X168519200Y-103442741D01*
X168519200Y-103137259D01*
X168578796Y-102837648D01*
X168695699Y-102555421D01*
X168695699Y-102555420D01*
X168771870Y-102441422D01*
X168865415Y-102301422D01*
X169081422Y-102085415D01*
X169300852Y-101938797D01*
X169335420Y-101915699D01*
X169423537Y-101879200D01*
X169617648Y-101798796D01*
X169917259Y-101739200D01*
X170222741Y-101739200D01*
X170522352Y-101798796D01*
G37*
G36*
X161600800Y-101900800D02*
G01*
X161049200Y-101900800D01*
X161049200Y-101399200D01*
X161600800Y-101399200D01*
X161600800Y-101900800D01*
G37*
G36*
X162750800Y-101550800D02*
G01*
X162199200Y-101550800D01*
X162199200Y-100949200D01*
X162750800Y-100949200D01*
X162750800Y-101550800D01*
G37*
G36*
X161600800Y-101100800D02*
G01*
X161049200Y-101100800D01*
X161049200Y-100599200D01*
X161600800Y-100599200D01*
X161600800Y-101100800D01*
G37*
G36*
X119194041Y-95447226D02*
G01*
X119658258Y-95639510D01*
X120076041Y-95918665D01*
X120431335Y-96273959D01*
X120710490Y-96691742D01*
X120902774Y-97155959D01*
X121000800Y-97648769D01*
X121000800Y-98151231D01*
X120902774Y-98644041D01*
X120710490Y-99108258D01*
X120431335Y-99526041D01*
X120076041Y-99881335D01*
X119658258Y-100160490D01*
X119194041Y-100352774D01*
X118701232Y-100450800D01*
X118198768Y-100450800D01*
X117705959Y-100352774D01*
X117241742Y-100160490D01*
X116823959Y-99881335D01*
X116468665Y-99526041D01*
X116189510Y-99108258D01*
X115997226Y-98644041D01*
X115899200Y-98151231D01*
X115899200Y-97648769D01*
X115997226Y-97155959D01*
X116189510Y-96691742D01*
X116468665Y-96273959D01*
X116823959Y-95918665D01*
X117241742Y-95639510D01*
X117705959Y-95447226D01*
X118198768Y-95349200D01*
X118701232Y-95349200D01*
X119194041Y-95447226D01*
G37*
G36*
X143344041Y-95447226D02*
G01*
X143808258Y-95639510D01*
X144226041Y-95918665D01*
X144581335Y-96273959D01*
X144860490Y-96691742D01*
X145052774Y-97155959D01*
X145150800Y-97648769D01*
X145150800Y-98151231D01*
X145052774Y-98644041D01*
X144860490Y-99108258D01*
X144581335Y-99526041D01*
X144226041Y-99881335D01*
X143808258Y-100160490D01*
X143344041Y-100352774D01*
X142851232Y-100450800D01*
X142348768Y-100450800D01*
X141855959Y-100352774D01*
X141391742Y-100160490D01*
X140973959Y-99881335D01*
X140618665Y-99526041D01*
X140339510Y-99108258D01*
X140147226Y-98644041D01*
X140049200Y-98151231D01*
X140049200Y-97648769D01*
X140147226Y-97155959D01*
X140339510Y-96691742D01*
X140618665Y-96273959D01*
X140973959Y-95918665D01*
X141391742Y-95639510D01*
X141855959Y-95447226D01*
X142348768Y-95349200D01*
X142851232Y-95349200D01*
X143344041Y-95447226D01*
G37*
G36*
X149650800Y-98960800D02*
G01*
X149349200Y-98960800D01*
X149349200Y-97359200D01*
X149650800Y-97359200D01*
X149650800Y-98960800D01*
G37*
G36*
X149250800Y-98960800D02*
G01*
X148949200Y-98960800D01*
X148949200Y-97359200D01*
X149250800Y-97359200D01*
X149250800Y-98960800D01*
G37*
G36*
X150450800Y-98960800D02*
G01*
X150149200Y-98960800D01*
X150149200Y-97359200D01*
X150450800Y-97359200D01*
X150450800Y-98960800D01*
G37*
G36*
X147250800Y-98960800D02*
G01*
X146949200Y-98960800D01*
X146949200Y-97359200D01*
X147250800Y-97359200D01*
X147250800Y-98960800D01*
G37*
G36*
X147650800Y-98960800D02*
G01*
X147349200Y-98960800D01*
X147349200Y-97359200D01*
X147650800Y-97359200D01*
X147650800Y-98960800D01*
G37*
G36*
X148050800Y-98960800D02*
G01*
X147749200Y-98960800D01*
X147749200Y-97359200D01*
X148050800Y-97359200D01*
X148050800Y-98960800D01*
G37*
G36*
X148450800Y-98960800D02*
G01*
X148149200Y-98960800D01*
X148149200Y-97359200D01*
X148450800Y-97359200D01*
X148450800Y-98960800D01*
G37*
G36*
X148850800Y-98960800D02*
G01*
X148549200Y-98960800D01*
X148549200Y-97359200D01*
X148850800Y-97359200D01*
X148850800Y-98960800D01*
G37*
G36*
X150050800Y-98960800D02*
G01*
X149749200Y-98960800D01*
X149749200Y-97359200D01*
X150050800Y-97359200D01*
X150050800Y-98960800D01*
G37*
G36*
X150850800Y-98960800D02*
G01*
X150549200Y-98960800D01*
X150549200Y-97359200D01*
X150850800Y-97359200D01*
X150850800Y-98960800D01*
G37*
G36*
X151250800Y-98960800D02*
G01*
X150949200Y-98960800D01*
X150949200Y-97359200D01*
X151250800Y-97359200D01*
X151250800Y-98960800D01*
G37*
G36*
X151650800Y-98960800D02*
G01*
X151349200Y-98960800D01*
X151349200Y-97359200D01*
X151650800Y-97359200D01*
X151650800Y-98960800D01*
G37*
G36*
X152050800Y-98960800D02*
G01*
X151749200Y-98960800D01*
X151749200Y-97359200D01*
X152050800Y-97359200D01*
X152050800Y-98960800D01*
G37*
G36*
X152450800Y-98960800D02*
G01*
X152149200Y-98960800D01*
X152149200Y-97359200D01*
X152450800Y-97359200D01*
X152450800Y-98960800D01*
G37*
G36*
X152850800Y-98960800D02*
G01*
X152549200Y-98960800D01*
X152549200Y-97359200D01*
X152850800Y-97359200D01*
X152850800Y-98960800D01*
G37*
G36*
X153250800Y-98960800D02*
G01*
X152949200Y-98960800D01*
X152949200Y-97359200D01*
X153250800Y-97359200D01*
X153250800Y-98960800D01*
G37*
G36*
X153650800Y-98960800D02*
G01*
X153349200Y-98960800D01*
X153349200Y-97359200D01*
X153650800Y-97359200D01*
X153650800Y-98960800D01*
G37*
G36*
X154050800Y-98960800D02*
G01*
X153749200Y-98960800D01*
X153749200Y-97359200D01*
X154050800Y-97359200D01*
X154050800Y-98960800D01*
G37*
G36*
X154450800Y-98960800D02*
G01*
X154149200Y-98960800D01*
X154149200Y-97359200D01*
X154450800Y-97359200D01*
X154450800Y-98960800D01*
G37*
G36*
X154850800Y-98960800D02*
G01*
X154549200Y-98960800D01*
X154549200Y-97359200D01*
X154850800Y-97359200D01*
X154850800Y-98960800D01*
G37*
G36*
X155250800Y-98960800D02*
G01*
X154949200Y-98960800D01*
X154949200Y-97359200D01*
X155250800Y-97359200D01*
X155250800Y-98960800D01*
G37*
G36*
X155650800Y-98960800D02*
G01*
X155349200Y-98960800D01*
X155349200Y-97359200D01*
X155650800Y-97359200D01*
X155650800Y-98960800D01*
G37*
G36*
X156050800Y-98960800D02*
G01*
X155749200Y-98960800D01*
X155749200Y-97359200D01*
X156050800Y-97359200D01*
X156050800Y-98960800D01*
G37*
G36*
X156450800Y-98960800D02*
G01*
X156149200Y-98960800D01*
X156149200Y-97359200D01*
X156450800Y-97359200D01*
X156450800Y-98960800D01*
G37*
G36*
X156850800Y-98960800D02*
G01*
X156549200Y-98960800D01*
X156549200Y-97359200D01*
X156850800Y-97359200D01*
X156850800Y-98960800D01*
G37*
G36*
X157250800Y-98960800D02*
G01*
X156949200Y-98960800D01*
X156949200Y-97359200D01*
X157250800Y-97359200D01*
X157250800Y-98960800D01*
G37*
G36*
X157650800Y-98960800D02*
G01*
X157349200Y-98960800D01*
X157349200Y-97359200D01*
X157650800Y-97359200D01*
X157650800Y-98960800D01*
G37*
G36*
X158050800Y-98960800D02*
G01*
X157749200Y-98960800D01*
X157749200Y-97359200D01*
X158050800Y-97359200D01*
X158050800Y-98960800D01*
G37*
G36*
X158450800Y-98960800D02*
G01*
X158149200Y-98960800D01*
X158149200Y-97359200D01*
X158450800Y-97359200D01*
X158450800Y-98960800D01*
G37*
G36*
X146850800Y-98960800D02*
G01*
X146549200Y-98960800D01*
X146549200Y-97359200D01*
X146850800Y-97359200D01*
X146850800Y-98960800D01*
G37*
G36*
X156050800Y-96640800D02*
G01*
X155749200Y-96640800D01*
X155749200Y-95039200D01*
X156050800Y-95039200D01*
X156050800Y-96640800D01*
G37*
G36*
X158450800Y-96640800D02*
G01*
X158149200Y-96640800D01*
X158149200Y-95039200D01*
X158450800Y-95039200D01*
X158450800Y-96640800D01*
G37*
G36*
X158050800Y-96640800D02*
G01*
X157749200Y-96640800D01*
X157749200Y-95039200D01*
X158050800Y-95039200D01*
X158050800Y-96640800D01*
G37*
G36*
X157650800Y-96640800D02*
G01*
X157349200Y-96640800D01*
X157349200Y-95039200D01*
X157650800Y-95039200D01*
X157650800Y-96640800D01*
G37*
G36*
X157250800Y-96640800D02*
G01*
X156949200Y-96640800D01*
X156949200Y-95039200D01*
X157250800Y-95039200D01*
X157250800Y-96640800D01*
G37*
G36*
X146850800Y-96640800D02*
G01*
X146549200Y-96640800D01*
X146549200Y-95039200D01*
X146850800Y-95039200D01*
X146850800Y-96640800D01*
G37*
G36*
X156850800Y-96640800D02*
G01*
X156549200Y-96640800D01*
X156549200Y-95039200D01*
X156850800Y-95039200D01*
X156850800Y-96640800D01*
G37*
G36*
X147250800Y-96640800D02*
G01*
X146949200Y-96640800D01*
X146949200Y-95039200D01*
X147250800Y-95039200D01*
X147250800Y-96640800D01*
G37*
G36*
X156450800Y-96640800D02*
G01*
X156149200Y-96640800D01*
X156149200Y-95039200D01*
X156450800Y-95039200D01*
X156450800Y-96640800D01*
G37*
G36*
X147650800Y-96640800D02*
G01*
X147349200Y-96640800D01*
X147349200Y-95039200D01*
X147650800Y-95039200D01*
X147650800Y-96640800D01*
G37*
G36*
X148050800Y-96640800D02*
G01*
X147749200Y-96640800D01*
X147749200Y-95039200D01*
X148050800Y-95039200D01*
X148050800Y-96640800D01*
G37*
G36*
X148450800Y-96640800D02*
G01*
X148149200Y-96640800D01*
X148149200Y-95039200D01*
X148450800Y-95039200D01*
X148450800Y-96640800D01*
G37*
G36*
X148850800Y-96640800D02*
G01*
X148549200Y-96640800D01*
X148549200Y-95039200D01*
X148850800Y-95039200D01*
X148850800Y-96640800D01*
G37*
G36*
X149250800Y-96640800D02*
G01*
X148949200Y-96640800D01*
X148949200Y-95039200D01*
X149250800Y-95039200D01*
X149250800Y-96640800D01*
G37*
G36*
X149650800Y-96640800D02*
G01*
X149349200Y-96640800D01*
X149349200Y-95039200D01*
X149650800Y-95039200D01*
X149650800Y-96640800D01*
G37*
G36*
X150050800Y-96640800D02*
G01*
X149749200Y-96640800D01*
X149749200Y-95039200D01*
X150050800Y-95039200D01*
X150050800Y-96640800D01*
G37*
G36*
X150450800Y-96640800D02*
G01*
X150149200Y-96640800D01*
X150149200Y-95039200D01*
X150450800Y-95039200D01*
X150450800Y-96640800D01*
G37*
G36*
X150850800Y-96640800D02*
G01*
X150549200Y-96640800D01*
X150549200Y-95039200D01*
X150850800Y-95039200D01*
X150850800Y-96640800D01*
G37*
G36*
X151250800Y-96640800D02*
G01*
X150949200Y-96640800D01*
X150949200Y-95039200D01*
X151250800Y-95039200D01*
X151250800Y-96640800D01*
G37*
G36*
X151650800Y-96640800D02*
G01*
X151349200Y-96640800D01*
X151349200Y-95039200D01*
X151650800Y-95039200D01*
X151650800Y-96640800D01*
G37*
G36*
X152050800Y-96640800D02*
G01*
X151749200Y-96640800D01*
X151749200Y-95039200D01*
X152050800Y-95039200D01*
X152050800Y-96640800D01*
G37*
G36*
X152450800Y-96640800D02*
G01*
X152149200Y-96640800D01*
X152149200Y-95039200D01*
X152450800Y-95039200D01*
X152450800Y-96640800D01*
G37*
G36*
X152850800Y-96640800D02*
G01*
X152549200Y-96640800D01*
X152549200Y-95039200D01*
X152850800Y-95039200D01*
X152850800Y-96640800D01*
G37*
G36*
X153250800Y-96640800D02*
G01*
X152949200Y-96640800D01*
X152949200Y-95039200D01*
X153250800Y-95039200D01*
X153250800Y-96640800D01*
G37*
G36*
X153650800Y-96640800D02*
G01*
X153349200Y-96640800D01*
X153349200Y-95039200D01*
X153650800Y-95039200D01*
X153650800Y-96640800D01*
G37*
G36*
X154050800Y-96640800D02*
G01*
X153749200Y-96640800D01*
X153749200Y-95039200D01*
X154050800Y-95039200D01*
X154050800Y-96640800D01*
G37*
G36*
X154450800Y-96640800D02*
G01*
X154149200Y-96640800D01*
X154149200Y-95039200D01*
X154450800Y-95039200D01*
X154450800Y-96640800D01*
G37*
G36*
X154850800Y-96640800D02*
G01*
X154549200Y-96640800D01*
X154549200Y-95039200D01*
X154850800Y-95039200D01*
X154850800Y-96640800D01*
G37*
G36*
X155250800Y-96640800D02*
G01*
X154949200Y-96640800D01*
X154949200Y-95039200D01*
X155250800Y-95039200D01*
X155250800Y-96640800D01*
G37*
G36*
X155650800Y-96640800D02*
G01*
X155349200Y-96640800D01*
X155349200Y-95039200D01*
X155650800Y-95039200D01*
X155650800Y-96640800D01*
G37*
M02*
