M48
; DRILL file {KiCad (5.1.5-0-10_14)} date Sunday, April 12, 2020 at 01:29:01 PM
; FORMAT={2:4/ absolute / inch / suppress leading zeros}
; #@! TF.CreationDate,2020-04-12T13:29:01-07:00
; #@! TF.GenerationSoftware,Kicad,Pcbnew,(5.1.5-0-10_14)
; #@! TF.FileFunction,Plated,1,4,PTH
FMAT,2
INCH,TZ
T1C0.0079
T2C0.0100
T3C0.0157
T4C0.0362
T5C0.0906
T6C0.1181
%
G90
G05
T1
X49134Y-42514
X49134Y-42722
T2
X48386Y-37598
X48583Y-38465
X49370Y-38465
X49567Y-37598
X49685Y-39803
X49902Y-39272
X49902Y-39469
X49902Y-39665
X49961Y-37598
X50098Y-39272
X50098Y-39469
X50098Y-39665
X50157Y-38465
X50197Y-41693
X50197Y-43487
X50197Y-43717
X50295Y-39272
X50295Y-39469
X50295Y-39665
X50354Y-37598
X50748Y-37598
X50945Y-38465
X51142Y-37598
X51181Y-42897
X51181Y-43127
X51476Y-43307
X51969Y-41831
X52165Y-44783
X52205Y-45984
X52559Y-45984
X52835Y-39252
X53150Y-44783
X53504Y-39921
X53543Y-41831
X53819Y-39252
X53839Y-41831
X54035Y-44783
X54134Y-44488
X54331Y-40945
X54429Y-42782
X54429Y-43012
X54429Y-43307
X54429Y-43602
X54429Y-44488
X54724Y-40945
X54724Y-44488
X54921Y-42323
X57283Y-37402
X57480Y-37598
X57677Y-48425
X57776Y-39081
X58661Y-37205
X58661Y-39469
X58740Y-48425
X58937Y-48425
X59134Y-48425
X59331Y-48425
X60197Y-37244
X60394Y-37244
X60433Y-39567
X60591Y-37244
X60669Y-48425
X60787Y-37244
X60827Y-38189
X60866Y-48425
X61063Y-48425
X61260Y-48425
X61319Y-44094
X61319Y-44488
X61828Y-39387
X61991Y-39550
X62402Y-44094
X62877Y-48917
X62992Y-37402
X62992Y-37598
X62992Y-37795
X62992Y-37992
X62992Y-38189
X63107Y-48917
X63189Y-37402
X63189Y-37598
X63189Y-37795
X63189Y-37992
X63189Y-38189
X63386Y-37402
X63386Y-37598
X63386Y-37795
X63386Y-37992
X63386Y-38189
X63484Y-42913
X63583Y-37402
X63583Y-37598
X63583Y-37795
X63583Y-37992
X63583Y-38189
T3
X55709Y-40945
X55709Y-41535
X55709Y-42126
X55709Y-42717
X55709Y-43307
X55709Y-43898
X55709Y-44488
X55709Y-45079
X55709Y-45669
X56299Y-40945
X56299Y-41535
X56299Y-42126
X56299Y-42717
X56299Y-43307
X56299Y-43898
X56299Y-44488
X56299Y-45079
X56299Y-45669
X56890Y-40945
X56890Y-41535
X56890Y-42126
X56890Y-42717
X56890Y-43307
X56890Y-43898
X56890Y-44488
X56890Y-45079
X56890Y-45669
X57480Y-40945
X57480Y-41535
X57480Y-42126
X57480Y-42717
X57480Y-43307
X57480Y-43898
X57480Y-44488
X57480Y-45079
X57480Y-45669
X58071Y-40945
X58071Y-41535
X58071Y-42126
X58071Y-42717
X58071Y-43307
X58071Y-43898
X58071Y-44488
X58071Y-45079
X58071Y-45669
X58661Y-40945
X58661Y-41535
X58661Y-42126
X58661Y-42717
X58661Y-43307
X58661Y-43898
X58661Y-44488
X58661Y-45079
X58661Y-45669
X59252Y-40945
X59252Y-41535
X59252Y-42126
X59252Y-42717
X59252Y-43307
X59252Y-43898
X59252Y-44488
X59252Y-45079
X59252Y-45669
X59843Y-40945
X59843Y-41535
X59843Y-42126
X59843Y-42717
X59843Y-43307
X59843Y-43898
X59843Y-44488
X59843Y-45079
X59843Y-45669
X60433Y-40945
X60433Y-41535
X60433Y-42126
X60433Y-42717
X60433Y-43307
X60433Y-43898
X60433Y-44488
X60433Y-45079
X60433Y-45669
T4
X62992Y-44882
X63976Y-44882
X64764Y-44882
X65748Y-44882
X46850Y-41929
X46850Y-42913
X46850Y-43701
X46850Y-44685
X62992Y-41732
X63976Y-41732
X64764Y-41732
X65748Y-41732
T5
X61783Y-45949
X66957Y-45949
X45783Y-40720
X45783Y-45894
X61783Y-40665
X66957Y-40665
T6
X46634Y-48071
X56142Y-48071
X46634Y-38543
X56142Y-38543
T0
M30
