G04 #@! TF.GenerationSoftware,KiCad,Pcbnew,(5.1.5-0-10_14)*
G04 #@! TF.CreationDate,2020-04-12T13:28:57-07:00*
G04 #@! TF.ProjectId,kimchi_usb_ulid,6b696d63-6869-45f7-9573-625f756c6964,v0.1*
G04 #@! TF.SameCoordinates,Original*
G04 #@! TF.FileFunction,Paste,Bot*
G04 #@! TF.FilePolarity,Positive*
%FSLAX46Y46*%
G04 Gerber Fmt 4.6, Leading zero omitted, Abs format (unit mm)*
G04 Created by KiCad (PCBNEW (5.1.5-0-10_14)) date 2020-04-12 13:28:57*
%MOMM*%
%LPD*%
G04 APERTURE LIST*
%ADD10C,0.150000*%
%ADD11R,0.450000X0.500000*%
%ADD12R,0.450000X0.400000*%
%ADD13R,0.200000X1.500000*%
G04 APERTURE END LIST*
D10*
X107000000Y-126000000D02*
X107000000Y-94000000D01*
X172000000Y-126000000D02*
X107000000Y-126000000D01*
X172000000Y-94000000D02*
X172000000Y-126000000D01*
X107000000Y-94000000D02*
X172000000Y-94000000D01*
D11*
X162475000Y-118750000D03*
D12*
X161325000Y-118350000D03*
X161325000Y-119150000D03*
D11*
X162475000Y-101250000D03*
D12*
X161325000Y-100850000D03*
X161325000Y-101650000D03*
D11*
X122875000Y-110000000D03*
D12*
X121725000Y-109600000D03*
X121725000Y-110400000D03*
D13*
X148700000Y-124160000D03*
X149100000Y-124160000D03*
X149500000Y-124160000D03*
X149900000Y-124160000D03*
X150300000Y-124160000D03*
X146700000Y-121840000D03*
X150700000Y-124160000D03*
X147100000Y-121840000D03*
X151100000Y-124160000D03*
X147500000Y-121840000D03*
X151500000Y-124160000D03*
X147900000Y-121840000D03*
X151900000Y-124160000D03*
X148300000Y-121840000D03*
X152300000Y-124160000D03*
X148700000Y-121840000D03*
X152700000Y-124160000D03*
X149100000Y-121840000D03*
X153100000Y-124160000D03*
X149500000Y-121840000D03*
X153500000Y-124160000D03*
X149900000Y-121840000D03*
X153900000Y-124160000D03*
X150300000Y-121840000D03*
X154300000Y-124160000D03*
X150700000Y-121840000D03*
X154700000Y-124160000D03*
X151100000Y-121840000D03*
X155100000Y-124160000D03*
X151500000Y-121840000D03*
X155500000Y-124160000D03*
X151900000Y-121840000D03*
X155900000Y-124160000D03*
X152300000Y-121840000D03*
X156300000Y-124160000D03*
X152700000Y-121840000D03*
X156700000Y-124160000D03*
X153100000Y-121840000D03*
X157100000Y-124160000D03*
X153500000Y-121840000D03*
X157500000Y-124160000D03*
X153900000Y-121840000D03*
X157900000Y-124160000D03*
X154300000Y-121840000D03*
X158300000Y-124160000D03*
X154700000Y-121840000D03*
X146700000Y-124160000D03*
X155100000Y-121840000D03*
X147100000Y-124160000D03*
X155500000Y-121840000D03*
X147500000Y-124160000D03*
X155900000Y-121840000D03*
X147900000Y-124160000D03*
X156300000Y-121840000D03*
X148300000Y-124160000D03*
X156700000Y-121840000D03*
X157100000Y-121840000D03*
X157500000Y-121840000D03*
X157900000Y-121840000D03*
X158300000Y-121840000D03*
X148700000Y-98160000D03*
X149100000Y-98160000D03*
X149500000Y-98160000D03*
X149900000Y-98160000D03*
X150300000Y-98160000D03*
X146700000Y-95840000D03*
X150700000Y-98160000D03*
X147100000Y-95840000D03*
X151100000Y-98160000D03*
X147500000Y-95840000D03*
X151500000Y-98160000D03*
X147900000Y-95840000D03*
X151900000Y-98160000D03*
X148300000Y-95840000D03*
X152300000Y-98160000D03*
X148700000Y-95840000D03*
X152700000Y-98160000D03*
X149100000Y-95840000D03*
X153100000Y-98160000D03*
X149500000Y-95840000D03*
X153500000Y-98160000D03*
X149900000Y-95840000D03*
X153900000Y-98160000D03*
X150300000Y-95840000D03*
X154300000Y-98160000D03*
X150700000Y-95840000D03*
X154700000Y-98160000D03*
X151100000Y-95840000D03*
X155100000Y-98160000D03*
X151500000Y-95840000D03*
X155500000Y-98160000D03*
X151900000Y-95840000D03*
X155900000Y-98160000D03*
X152300000Y-95840000D03*
X156300000Y-98160000D03*
X152700000Y-95840000D03*
X156700000Y-98160000D03*
X153100000Y-95840000D03*
X157100000Y-98160000D03*
X153500000Y-95840000D03*
X157500000Y-98160000D03*
X153900000Y-95840000D03*
X157900000Y-98160000D03*
X154300000Y-95840000D03*
X158300000Y-98160000D03*
X154700000Y-95840000D03*
X146700000Y-98160000D03*
X155100000Y-95840000D03*
X147100000Y-98160000D03*
X155500000Y-95840000D03*
X147500000Y-98160000D03*
X155900000Y-95840000D03*
X147900000Y-98160000D03*
X156300000Y-95840000D03*
X148300000Y-98160000D03*
X156700000Y-95840000D03*
X157100000Y-95840000D03*
X157500000Y-95840000D03*
X157900000Y-95840000D03*
X158300000Y-95840000D03*
M02*
