G04 #@! TF.GenerationSoftware,KiCad,Pcbnew,(5.1.5-0-10_14)*
G04 #@! TF.CreationDate,2020-04-12T13:28:57-07:00*
G04 #@! TF.ProjectId,kimchi_usb_ulid,6b696d63-6869-45f7-9573-625f756c6964,v0.1*
G04 #@! TF.SameCoordinates,Original*
G04 #@! TF.FileFunction,Paste,Top*
G04 #@! TF.FilePolarity,Positive*
%FSLAX46Y46*%
G04 Gerber Fmt 4.6, Leading zero omitted, Abs format (unit mm)*
G04 Created by KiCad (PCBNEW (5.1.5-0-10_14)) date 2020-04-12 13:28:57*
%MOMM*%
%LPD*%
G04 APERTURE LIST*
%ADD10C,0.150000*%
%ADD11C,0.100000*%
%ADD12R,0.750000X0.700000*%
%ADD13R,1.000000X0.600000*%
%ADD14R,0.350000X0.650000*%
%ADD15R,0.600000X1.000000*%
%ADD16R,0.650000X0.350000*%
%ADD17R,0.600000X0.500000*%
%ADD18R,0.300000X0.750000*%
G04 APERTURE END LIST*
D10*
X107000000Y-126000000D02*
X107000000Y-94000000D01*
X172000000Y-126000000D02*
X107000000Y-126000000D01*
X172000000Y-94000000D02*
X172000000Y-126000000D01*
X107000000Y-94000000D02*
X172000000Y-94000000D01*
D11*
G36*
X153686958Y-99190710D02*
G01*
X153701276Y-99192834D01*
X153715317Y-99196351D01*
X153728946Y-99201228D01*
X153742031Y-99207417D01*
X153754447Y-99214858D01*
X153766073Y-99223481D01*
X153776798Y-99233202D01*
X153786519Y-99243927D01*
X153795142Y-99255553D01*
X153802583Y-99267969D01*
X153808772Y-99281054D01*
X153813649Y-99294683D01*
X153817166Y-99308724D01*
X153819290Y-99323042D01*
X153820000Y-99337500D01*
X153820000Y-99632500D01*
X153819290Y-99646958D01*
X153817166Y-99661276D01*
X153813649Y-99675317D01*
X153808772Y-99688946D01*
X153802583Y-99702031D01*
X153795142Y-99714447D01*
X153786519Y-99726073D01*
X153776798Y-99736798D01*
X153766073Y-99746519D01*
X153754447Y-99755142D01*
X153742031Y-99762583D01*
X153728946Y-99768772D01*
X153715317Y-99773649D01*
X153701276Y-99777166D01*
X153686958Y-99779290D01*
X153672500Y-99780000D01*
X153327500Y-99780000D01*
X153313042Y-99779290D01*
X153298724Y-99777166D01*
X153284683Y-99773649D01*
X153271054Y-99768772D01*
X153257969Y-99762583D01*
X153245553Y-99755142D01*
X153233927Y-99746519D01*
X153223202Y-99736798D01*
X153213481Y-99726073D01*
X153204858Y-99714447D01*
X153197417Y-99702031D01*
X153191228Y-99688946D01*
X153186351Y-99675317D01*
X153182834Y-99661276D01*
X153180710Y-99646958D01*
X153180000Y-99632500D01*
X153180000Y-99337500D01*
X153180710Y-99323042D01*
X153182834Y-99308724D01*
X153186351Y-99294683D01*
X153191228Y-99281054D01*
X153197417Y-99267969D01*
X153204858Y-99255553D01*
X153213481Y-99243927D01*
X153223202Y-99233202D01*
X153233927Y-99223481D01*
X153245553Y-99214858D01*
X153257969Y-99207417D01*
X153271054Y-99201228D01*
X153284683Y-99196351D01*
X153298724Y-99192834D01*
X153313042Y-99190710D01*
X153327500Y-99190000D01*
X153672500Y-99190000D01*
X153686958Y-99190710D01*
G37*
G36*
X153686958Y-98220710D02*
G01*
X153701276Y-98222834D01*
X153715317Y-98226351D01*
X153728946Y-98231228D01*
X153742031Y-98237417D01*
X153754447Y-98244858D01*
X153766073Y-98253481D01*
X153776798Y-98263202D01*
X153786519Y-98273927D01*
X153795142Y-98285553D01*
X153802583Y-98297969D01*
X153808772Y-98311054D01*
X153813649Y-98324683D01*
X153817166Y-98338724D01*
X153819290Y-98353042D01*
X153820000Y-98367500D01*
X153820000Y-98662500D01*
X153819290Y-98676958D01*
X153817166Y-98691276D01*
X153813649Y-98705317D01*
X153808772Y-98718946D01*
X153802583Y-98732031D01*
X153795142Y-98744447D01*
X153786519Y-98756073D01*
X153776798Y-98766798D01*
X153766073Y-98776519D01*
X153754447Y-98785142D01*
X153742031Y-98792583D01*
X153728946Y-98798772D01*
X153715317Y-98803649D01*
X153701276Y-98807166D01*
X153686958Y-98809290D01*
X153672500Y-98810000D01*
X153327500Y-98810000D01*
X153313042Y-98809290D01*
X153298724Y-98807166D01*
X153284683Y-98803649D01*
X153271054Y-98798772D01*
X153257969Y-98792583D01*
X153245553Y-98785142D01*
X153233927Y-98776519D01*
X153223202Y-98766798D01*
X153213481Y-98756073D01*
X153204858Y-98744447D01*
X153197417Y-98732031D01*
X153191228Y-98718946D01*
X153186351Y-98705317D01*
X153182834Y-98691276D01*
X153180710Y-98676958D01*
X153180000Y-98662500D01*
X153180000Y-98367500D01*
X153180710Y-98353042D01*
X153182834Y-98338724D01*
X153186351Y-98324683D01*
X153191228Y-98311054D01*
X153197417Y-98297969D01*
X153204858Y-98285553D01*
X153213481Y-98273927D01*
X153223202Y-98263202D01*
X153233927Y-98253481D01*
X153245553Y-98244858D01*
X153257969Y-98237417D01*
X153271054Y-98231228D01*
X153284683Y-98226351D01*
X153298724Y-98222834D01*
X153313042Y-98220710D01*
X153327500Y-98220000D01*
X153672500Y-98220000D01*
X153686958Y-98220710D01*
G37*
G36*
X128086958Y-95720710D02*
G01*
X128101276Y-95722834D01*
X128115317Y-95726351D01*
X128128946Y-95731228D01*
X128142031Y-95737417D01*
X128154447Y-95744858D01*
X128166073Y-95753481D01*
X128176798Y-95763202D01*
X128186519Y-95773927D01*
X128195142Y-95785553D01*
X128202583Y-95797969D01*
X128208772Y-95811054D01*
X128213649Y-95824683D01*
X128217166Y-95838724D01*
X128219290Y-95853042D01*
X128220000Y-95867500D01*
X128220000Y-96162500D01*
X128219290Y-96176958D01*
X128217166Y-96191276D01*
X128213649Y-96205317D01*
X128208772Y-96218946D01*
X128202583Y-96232031D01*
X128195142Y-96244447D01*
X128186519Y-96256073D01*
X128176798Y-96266798D01*
X128166073Y-96276519D01*
X128154447Y-96285142D01*
X128142031Y-96292583D01*
X128128946Y-96298772D01*
X128115317Y-96303649D01*
X128101276Y-96307166D01*
X128086958Y-96309290D01*
X128072500Y-96310000D01*
X127727500Y-96310000D01*
X127713042Y-96309290D01*
X127698724Y-96307166D01*
X127684683Y-96303649D01*
X127671054Y-96298772D01*
X127657969Y-96292583D01*
X127645553Y-96285142D01*
X127633927Y-96276519D01*
X127623202Y-96266798D01*
X127613481Y-96256073D01*
X127604858Y-96244447D01*
X127597417Y-96232031D01*
X127591228Y-96218946D01*
X127586351Y-96205317D01*
X127582834Y-96191276D01*
X127580710Y-96176958D01*
X127580000Y-96162500D01*
X127580000Y-95867500D01*
X127580710Y-95853042D01*
X127582834Y-95838724D01*
X127586351Y-95824683D01*
X127591228Y-95811054D01*
X127597417Y-95797969D01*
X127604858Y-95785553D01*
X127613481Y-95773927D01*
X127623202Y-95763202D01*
X127633927Y-95753481D01*
X127645553Y-95744858D01*
X127657969Y-95737417D01*
X127671054Y-95731228D01*
X127684683Y-95726351D01*
X127698724Y-95722834D01*
X127713042Y-95720710D01*
X127727500Y-95720000D01*
X128072500Y-95720000D01*
X128086958Y-95720710D01*
G37*
G36*
X128086958Y-96690710D02*
G01*
X128101276Y-96692834D01*
X128115317Y-96696351D01*
X128128946Y-96701228D01*
X128142031Y-96707417D01*
X128154447Y-96714858D01*
X128166073Y-96723481D01*
X128176798Y-96733202D01*
X128186519Y-96743927D01*
X128195142Y-96755553D01*
X128202583Y-96767969D01*
X128208772Y-96781054D01*
X128213649Y-96794683D01*
X128217166Y-96808724D01*
X128219290Y-96823042D01*
X128220000Y-96837500D01*
X128220000Y-97132500D01*
X128219290Y-97146958D01*
X128217166Y-97161276D01*
X128213649Y-97175317D01*
X128208772Y-97188946D01*
X128202583Y-97202031D01*
X128195142Y-97214447D01*
X128186519Y-97226073D01*
X128176798Y-97236798D01*
X128166073Y-97246519D01*
X128154447Y-97255142D01*
X128142031Y-97262583D01*
X128128946Y-97268772D01*
X128115317Y-97273649D01*
X128101276Y-97277166D01*
X128086958Y-97279290D01*
X128072500Y-97280000D01*
X127727500Y-97280000D01*
X127713042Y-97279290D01*
X127698724Y-97277166D01*
X127684683Y-97273649D01*
X127671054Y-97268772D01*
X127657969Y-97262583D01*
X127645553Y-97255142D01*
X127633927Y-97246519D01*
X127623202Y-97236798D01*
X127613481Y-97226073D01*
X127604858Y-97214447D01*
X127597417Y-97202031D01*
X127591228Y-97188946D01*
X127586351Y-97175317D01*
X127582834Y-97161276D01*
X127580710Y-97146958D01*
X127580000Y-97132500D01*
X127580000Y-96837500D01*
X127580710Y-96823042D01*
X127582834Y-96808724D01*
X127586351Y-96794683D01*
X127591228Y-96781054D01*
X127597417Y-96767969D01*
X127604858Y-96755553D01*
X127613481Y-96743927D01*
X127623202Y-96733202D01*
X127633927Y-96723481D01*
X127645553Y-96714858D01*
X127657969Y-96707417D01*
X127671054Y-96701228D01*
X127684683Y-96696351D01*
X127698724Y-96692834D01*
X127713042Y-96690710D01*
X127727500Y-96690000D01*
X128072500Y-96690000D01*
X128086958Y-96690710D01*
G37*
G36*
X130086958Y-95720710D02*
G01*
X130101276Y-95722834D01*
X130115317Y-95726351D01*
X130128946Y-95731228D01*
X130142031Y-95737417D01*
X130154447Y-95744858D01*
X130166073Y-95753481D01*
X130176798Y-95763202D01*
X130186519Y-95773927D01*
X130195142Y-95785553D01*
X130202583Y-95797969D01*
X130208772Y-95811054D01*
X130213649Y-95824683D01*
X130217166Y-95838724D01*
X130219290Y-95853042D01*
X130220000Y-95867500D01*
X130220000Y-96162500D01*
X130219290Y-96176958D01*
X130217166Y-96191276D01*
X130213649Y-96205317D01*
X130208772Y-96218946D01*
X130202583Y-96232031D01*
X130195142Y-96244447D01*
X130186519Y-96256073D01*
X130176798Y-96266798D01*
X130166073Y-96276519D01*
X130154447Y-96285142D01*
X130142031Y-96292583D01*
X130128946Y-96298772D01*
X130115317Y-96303649D01*
X130101276Y-96307166D01*
X130086958Y-96309290D01*
X130072500Y-96310000D01*
X129727500Y-96310000D01*
X129713042Y-96309290D01*
X129698724Y-96307166D01*
X129684683Y-96303649D01*
X129671054Y-96298772D01*
X129657969Y-96292583D01*
X129645553Y-96285142D01*
X129633927Y-96276519D01*
X129623202Y-96266798D01*
X129613481Y-96256073D01*
X129604858Y-96244447D01*
X129597417Y-96232031D01*
X129591228Y-96218946D01*
X129586351Y-96205317D01*
X129582834Y-96191276D01*
X129580710Y-96176958D01*
X129580000Y-96162500D01*
X129580000Y-95867500D01*
X129580710Y-95853042D01*
X129582834Y-95838724D01*
X129586351Y-95824683D01*
X129591228Y-95811054D01*
X129597417Y-95797969D01*
X129604858Y-95785553D01*
X129613481Y-95773927D01*
X129623202Y-95763202D01*
X129633927Y-95753481D01*
X129645553Y-95744858D01*
X129657969Y-95737417D01*
X129671054Y-95731228D01*
X129684683Y-95726351D01*
X129698724Y-95722834D01*
X129713042Y-95720710D01*
X129727500Y-95720000D01*
X130072500Y-95720000D01*
X130086958Y-95720710D01*
G37*
G36*
X130086958Y-96690710D02*
G01*
X130101276Y-96692834D01*
X130115317Y-96696351D01*
X130128946Y-96701228D01*
X130142031Y-96707417D01*
X130154447Y-96714858D01*
X130166073Y-96723481D01*
X130176798Y-96733202D01*
X130186519Y-96743927D01*
X130195142Y-96755553D01*
X130202583Y-96767969D01*
X130208772Y-96781054D01*
X130213649Y-96794683D01*
X130217166Y-96808724D01*
X130219290Y-96823042D01*
X130220000Y-96837500D01*
X130220000Y-97132500D01*
X130219290Y-97146958D01*
X130217166Y-97161276D01*
X130213649Y-97175317D01*
X130208772Y-97188946D01*
X130202583Y-97202031D01*
X130195142Y-97214447D01*
X130186519Y-97226073D01*
X130176798Y-97236798D01*
X130166073Y-97246519D01*
X130154447Y-97255142D01*
X130142031Y-97262583D01*
X130128946Y-97268772D01*
X130115317Y-97273649D01*
X130101276Y-97277166D01*
X130086958Y-97279290D01*
X130072500Y-97280000D01*
X129727500Y-97280000D01*
X129713042Y-97279290D01*
X129698724Y-97277166D01*
X129684683Y-97273649D01*
X129671054Y-97268772D01*
X129657969Y-97262583D01*
X129645553Y-97255142D01*
X129633927Y-97246519D01*
X129623202Y-97236798D01*
X129613481Y-97226073D01*
X129604858Y-97214447D01*
X129597417Y-97202031D01*
X129591228Y-97188946D01*
X129586351Y-97175317D01*
X129582834Y-97161276D01*
X129580710Y-97146958D01*
X129580000Y-97132500D01*
X129580000Y-96837500D01*
X129580710Y-96823042D01*
X129582834Y-96808724D01*
X129586351Y-96794683D01*
X129591228Y-96781054D01*
X129597417Y-96767969D01*
X129604858Y-96755553D01*
X129613481Y-96743927D01*
X129623202Y-96733202D01*
X129633927Y-96723481D01*
X129645553Y-96714858D01*
X129657969Y-96707417D01*
X129671054Y-96701228D01*
X129684683Y-96696351D01*
X129698724Y-96692834D01*
X129713042Y-96690710D01*
X129727500Y-96690000D01*
X130072500Y-96690000D01*
X130086958Y-96690710D01*
G37*
G36*
X123086958Y-95720710D02*
G01*
X123101276Y-95722834D01*
X123115317Y-95726351D01*
X123128946Y-95731228D01*
X123142031Y-95737417D01*
X123154447Y-95744858D01*
X123166073Y-95753481D01*
X123176798Y-95763202D01*
X123186519Y-95773927D01*
X123195142Y-95785553D01*
X123202583Y-95797969D01*
X123208772Y-95811054D01*
X123213649Y-95824683D01*
X123217166Y-95838724D01*
X123219290Y-95853042D01*
X123220000Y-95867500D01*
X123220000Y-96162500D01*
X123219290Y-96176958D01*
X123217166Y-96191276D01*
X123213649Y-96205317D01*
X123208772Y-96218946D01*
X123202583Y-96232031D01*
X123195142Y-96244447D01*
X123186519Y-96256073D01*
X123176798Y-96266798D01*
X123166073Y-96276519D01*
X123154447Y-96285142D01*
X123142031Y-96292583D01*
X123128946Y-96298772D01*
X123115317Y-96303649D01*
X123101276Y-96307166D01*
X123086958Y-96309290D01*
X123072500Y-96310000D01*
X122727500Y-96310000D01*
X122713042Y-96309290D01*
X122698724Y-96307166D01*
X122684683Y-96303649D01*
X122671054Y-96298772D01*
X122657969Y-96292583D01*
X122645553Y-96285142D01*
X122633927Y-96276519D01*
X122623202Y-96266798D01*
X122613481Y-96256073D01*
X122604858Y-96244447D01*
X122597417Y-96232031D01*
X122591228Y-96218946D01*
X122586351Y-96205317D01*
X122582834Y-96191276D01*
X122580710Y-96176958D01*
X122580000Y-96162500D01*
X122580000Y-95867500D01*
X122580710Y-95853042D01*
X122582834Y-95838724D01*
X122586351Y-95824683D01*
X122591228Y-95811054D01*
X122597417Y-95797969D01*
X122604858Y-95785553D01*
X122613481Y-95773927D01*
X122623202Y-95763202D01*
X122633927Y-95753481D01*
X122645553Y-95744858D01*
X122657969Y-95737417D01*
X122671054Y-95731228D01*
X122684683Y-95726351D01*
X122698724Y-95722834D01*
X122713042Y-95720710D01*
X122727500Y-95720000D01*
X123072500Y-95720000D01*
X123086958Y-95720710D01*
G37*
G36*
X123086958Y-96690710D02*
G01*
X123101276Y-96692834D01*
X123115317Y-96696351D01*
X123128946Y-96701228D01*
X123142031Y-96707417D01*
X123154447Y-96714858D01*
X123166073Y-96723481D01*
X123176798Y-96733202D01*
X123186519Y-96743927D01*
X123195142Y-96755553D01*
X123202583Y-96767969D01*
X123208772Y-96781054D01*
X123213649Y-96794683D01*
X123217166Y-96808724D01*
X123219290Y-96823042D01*
X123220000Y-96837500D01*
X123220000Y-97132500D01*
X123219290Y-97146958D01*
X123217166Y-97161276D01*
X123213649Y-97175317D01*
X123208772Y-97188946D01*
X123202583Y-97202031D01*
X123195142Y-97214447D01*
X123186519Y-97226073D01*
X123176798Y-97236798D01*
X123166073Y-97246519D01*
X123154447Y-97255142D01*
X123142031Y-97262583D01*
X123128946Y-97268772D01*
X123115317Y-97273649D01*
X123101276Y-97277166D01*
X123086958Y-97279290D01*
X123072500Y-97280000D01*
X122727500Y-97280000D01*
X122713042Y-97279290D01*
X122698724Y-97277166D01*
X122684683Y-97273649D01*
X122671054Y-97268772D01*
X122657969Y-97262583D01*
X122645553Y-97255142D01*
X122633927Y-97246519D01*
X122623202Y-97236798D01*
X122613481Y-97226073D01*
X122604858Y-97214447D01*
X122597417Y-97202031D01*
X122591228Y-97188946D01*
X122586351Y-97175317D01*
X122582834Y-97161276D01*
X122580710Y-97146958D01*
X122580000Y-97132500D01*
X122580000Y-96837500D01*
X122580710Y-96823042D01*
X122582834Y-96808724D01*
X122586351Y-96794683D01*
X122591228Y-96781054D01*
X122597417Y-96767969D01*
X122604858Y-96755553D01*
X122613481Y-96743927D01*
X122623202Y-96733202D01*
X122633927Y-96723481D01*
X122645553Y-96714858D01*
X122657969Y-96707417D01*
X122671054Y-96701228D01*
X122684683Y-96696351D01*
X122698724Y-96692834D01*
X122713042Y-96690710D01*
X122727500Y-96690000D01*
X123072500Y-96690000D01*
X123086958Y-96690710D01*
G37*
G36*
X126086958Y-95720710D02*
G01*
X126101276Y-95722834D01*
X126115317Y-95726351D01*
X126128946Y-95731228D01*
X126142031Y-95737417D01*
X126154447Y-95744858D01*
X126166073Y-95753481D01*
X126176798Y-95763202D01*
X126186519Y-95773927D01*
X126195142Y-95785553D01*
X126202583Y-95797969D01*
X126208772Y-95811054D01*
X126213649Y-95824683D01*
X126217166Y-95838724D01*
X126219290Y-95853042D01*
X126220000Y-95867500D01*
X126220000Y-96162500D01*
X126219290Y-96176958D01*
X126217166Y-96191276D01*
X126213649Y-96205317D01*
X126208772Y-96218946D01*
X126202583Y-96232031D01*
X126195142Y-96244447D01*
X126186519Y-96256073D01*
X126176798Y-96266798D01*
X126166073Y-96276519D01*
X126154447Y-96285142D01*
X126142031Y-96292583D01*
X126128946Y-96298772D01*
X126115317Y-96303649D01*
X126101276Y-96307166D01*
X126086958Y-96309290D01*
X126072500Y-96310000D01*
X125727500Y-96310000D01*
X125713042Y-96309290D01*
X125698724Y-96307166D01*
X125684683Y-96303649D01*
X125671054Y-96298772D01*
X125657969Y-96292583D01*
X125645553Y-96285142D01*
X125633927Y-96276519D01*
X125623202Y-96266798D01*
X125613481Y-96256073D01*
X125604858Y-96244447D01*
X125597417Y-96232031D01*
X125591228Y-96218946D01*
X125586351Y-96205317D01*
X125582834Y-96191276D01*
X125580710Y-96176958D01*
X125580000Y-96162500D01*
X125580000Y-95867500D01*
X125580710Y-95853042D01*
X125582834Y-95838724D01*
X125586351Y-95824683D01*
X125591228Y-95811054D01*
X125597417Y-95797969D01*
X125604858Y-95785553D01*
X125613481Y-95773927D01*
X125623202Y-95763202D01*
X125633927Y-95753481D01*
X125645553Y-95744858D01*
X125657969Y-95737417D01*
X125671054Y-95731228D01*
X125684683Y-95726351D01*
X125698724Y-95722834D01*
X125713042Y-95720710D01*
X125727500Y-95720000D01*
X126072500Y-95720000D01*
X126086958Y-95720710D01*
G37*
G36*
X126086958Y-96690710D02*
G01*
X126101276Y-96692834D01*
X126115317Y-96696351D01*
X126128946Y-96701228D01*
X126142031Y-96707417D01*
X126154447Y-96714858D01*
X126166073Y-96723481D01*
X126176798Y-96733202D01*
X126186519Y-96743927D01*
X126195142Y-96755553D01*
X126202583Y-96767969D01*
X126208772Y-96781054D01*
X126213649Y-96794683D01*
X126217166Y-96808724D01*
X126219290Y-96823042D01*
X126220000Y-96837500D01*
X126220000Y-97132500D01*
X126219290Y-97146958D01*
X126217166Y-97161276D01*
X126213649Y-97175317D01*
X126208772Y-97188946D01*
X126202583Y-97202031D01*
X126195142Y-97214447D01*
X126186519Y-97226073D01*
X126176798Y-97236798D01*
X126166073Y-97246519D01*
X126154447Y-97255142D01*
X126142031Y-97262583D01*
X126128946Y-97268772D01*
X126115317Y-97273649D01*
X126101276Y-97277166D01*
X126086958Y-97279290D01*
X126072500Y-97280000D01*
X125727500Y-97280000D01*
X125713042Y-97279290D01*
X125698724Y-97277166D01*
X125684683Y-97273649D01*
X125671054Y-97268772D01*
X125657969Y-97262583D01*
X125645553Y-97255142D01*
X125633927Y-97246519D01*
X125623202Y-97236798D01*
X125613481Y-97226073D01*
X125604858Y-97214447D01*
X125597417Y-97202031D01*
X125591228Y-97188946D01*
X125586351Y-97175317D01*
X125582834Y-97161276D01*
X125580710Y-97146958D01*
X125580000Y-97132500D01*
X125580000Y-96837500D01*
X125580710Y-96823042D01*
X125582834Y-96808724D01*
X125586351Y-96794683D01*
X125591228Y-96781054D01*
X125597417Y-96767969D01*
X125604858Y-96755553D01*
X125613481Y-96743927D01*
X125623202Y-96733202D01*
X125633927Y-96723481D01*
X125645553Y-96714858D01*
X125657969Y-96707417D01*
X125671054Y-96701228D01*
X125684683Y-96696351D01*
X125698724Y-96692834D01*
X125713042Y-96690710D01*
X125727500Y-96690000D01*
X126072500Y-96690000D01*
X126086958Y-96690710D01*
G37*
G36*
X129086958Y-95720710D02*
G01*
X129101276Y-95722834D01*
X129115317Y-95726351D01*
X129128946Y-95731228D01*
X129142031Y-95737417D01*
X129154447Y-95744858D01*
X129166073Y-95753481D01*
X129176798Y-95763202D01*
X129186519Y-95773927D01*
X129195142Y-95785553D01*
X129202583Y-95797969D01*
X129208772Y-95811054D01*
X129213649Y-95824683D01*
X129217166Y-95838724D01*
X129219290Y-95853042D01*
X129220000Y-95867500D01*
X129220000Y-96162500D01*
X129219290Y-96176958D01*
X129217166Y-96191276D01*
X129213649Y-96205317D01*
X129208772Y-96218946D01*
X129202583Y-96232031D01*
X129195142Y-96244447D01*
X129186519Y-96256073D01*
X129176798Y-96266798D01*
X129166073Y-96276519D01*
X129154447Y-96285142D01*
X129142031Y-96292583D01*
X129128946Y-96298772D01*
X129115317Y-96303649D01*
X129101276Y-96307166D01*
X129086958Y-96309290D01*
X129072500Y-96310000D01*
X128727500Y-96310000D01*
X128713042Y-96309290D01*
X128698724Y-96307166D01*
X128684683Y-96303649D01*
X128671054Y-96298772D01*
X128657969Y-96292583D01*
X128645553Y-96285142D01*
X128633927Y-96276519D01*
X128623202Y-96266798D01*
X128613481Y-96256073D01*
X128604858Y-96244447D01*
X128597417Y-96232031D01*
X128591228Y-96218946D01*
X128586351Y-96205317D01*
X128582834Y-96191276D01*
X128580710Y-96176958D01*
X128580000Y-96162500D01*
X128580000Y-95867500D01*
X128580710Y-95853042D01*
X128582834Y-95838724D01*
X128586351Y-95824683D01*
X128591228Y-95811054D01*
X128597417Y-95797969D01*
X128604858Y-95785553D01*
X128613481Y-95773927D01*
X128623202Y-95763202D01*
X128633927Y-95753481D01*
X128645553Y-95744858D01*
X128657969Y-95737417D01*
X128671054Y-95731228D01*
X128684683Y-95726351D01*
X128698724Y-95722834D01*
X128713042Y-95720710D01*
X128727500Y-95720000D01*
X129072500Y-95720000D01*
X129086958Y-95720710D01*
G37*
G36*
X129086958Y-96690710D02*
G01*
X129101276Y-96692834D01*
X129115317Y-96696351D01*
X129128946Y-96701228D01*
X129142031Y-96707417D01*
X129154447Y-96714858D01*
X129166073Y-96723481D01*
X129176798Y-96733202D01*
X129186519Y-96743927D01*
X129195142Y-96755553D01*
X129202583Y-96767969D01*
X129208772Y-96781054D01*
X129213649Y-96794683D01*
X129217166Y-96808724D01*
X129219290Y-96823042D01*
X129220000Y-96837500D01*
X129220000Y-97132500D01*
X129219290Y-97146958D01*
X129217166Y-97161276D01*
X129213649Y-97175317D01*
X129208772Y-97188946D01*
X129202583Y-97202031D01*
X129195142Y-97214447D01*
X129186519Y-97226073D01*
X129176798Y-97236798D01*
X129166073Y-97246519D01*
X129154447Y-97255142D01*
X129142031Y-97262583D01*
X129128946Y-97268772D01*
X129115317Y-97273649D01*
X129101276Y-97277166D01*
X129086958Y-97279290D01*
X129072500Y-97280000D01*
X128727500Y-97280000D01*
X128713042Y-97279290D01*
X128698724Y-97277166D01*
X128684683Y-97273649D01*
X128671054Y-97268772D01*
X128657969Y-97262583D01*
X128645553Y-97255142D01*
X128633927Y-97246519D01*
X128623202Y-97236798D01*
X128613481Y-97226073D01*
X128604858Y-97214447D01*
X128597417Y-97202031D01*
X128591228Y-97188946D01*
X128586351Y-97175317D01*
X128582834Y-97161276D01*
X128580710Y-97146958D01*
X128580000Y-97132500D01*
X128580000Y-96837500D01*
X128580710Y-96823042D01*
X128582834Y-96808724D01*
X128586351Y-96794683D01*
X128591228Y-96781054D01*
X128597417Y-96767969D01*
X128604858Y-96755553D01*
X128613481Y-96743927D01*
X128623202Y-96733202D01*
X128633927Y-96723481D01*
X128645553Y-96714858D01*
X128657969Y-96707417D01*
X128671054Y-96701228D01*
X128684683Y-96696351D01*
X128698724Y-96692834D01*
X128713042Y-96690710D01*
X128727500Y-96690000D01*
X129072500Y-96690000D01*
X129086958Y-96690710D01*
G37*
G36*
X124086958Y-96690710D02*
G01*
X124101276Y-96692834D01*
X124115317Y-96696351D01*
X124128946Y-96701228D01*
X124142031Y-96707417D01*
X124154447Y-96714858D01*
X124166073Y-96723481D01*
X124176798Y-96733202D01*
X124186519Y-96743927D01*
X124195142Y-96755553D01*
X124202583Y-96767969D01*
X124208772Y-96781054D01*
X124213649Y-96794683D01*
X124217166Y-96808724D01*
X124219290Y-96823042D01*
X124220000Y-96837500D01*
X124220000Y-97132500D01*
X124219290Y-97146958D01*
X124217166Y-97161276D01*
X124213649Y-97175317D01*
X124208772Y-97188946D01*
X124202583Y-97202031D01*
X124195142Y-97214447D01*
X124186519Y-97226073D01*
X124176798Y-97236798D01*
X124166073Y-97246519D01*
X124154447Y-97255142D01*
X124142031Y-97262583D01*
X124128946Y-97268772D01*
X124115317Y-97273649D01*
X124101276Y-97277166D01*
X124086958Y-97279290D01*
X124072500Y-97280000D01*
X123727500Y-97280000D01*
X123713042Y-97279290D01*
X123698724Y-97277166D01*
X123684683Y-97273649D01*
X123671054Y-97268772D01*
X123657969Y-97262583D01*
X123645553Y-97255142D01*
X123633927Y-97246519D01*
X123623202Y-97236798D01*
X123613481Y-97226073D01*
X123604858Y-97214447D01*
X123597417Y-97202031D01*
X123591228Y-97188946D01*
X123586351Y-97175317D01*
X123582834Y-97161276D01*
X123580710Y-97146958D01*
X123580000Y-97132500D01*
X123580000Y-96837500D01*
X123580710Y-96823042D01*
X123582834Y-96808724D01*
X123586351Y-96794683D01*
X123591228Y-96781054D01*
X123597417Y-96767969D01*
X123604858Y-96755553D01*
X123613481Y-96743927D01*
X123623202Y-96733202D01*
X123633927Y-96723481D01*
X123645553Y-96714858D01*
X123657969Y-96707417D01*
X123671054Y-96701228D01*
X123684683Y-96696351D01*
X123698724Y-96692834D01*
X123713042Y-96690710D01*
X123727500Y-96690000D01*
X124072500Y-96690000D01*
X124086958Y-96690710D01*
G37*
G36*
X124086958Y-95720710D02*
G01*
X124101276Y-95722834D01*
X124115317Y-95726351D01*
X124128946Y-95731228D01*
X124142031Y-95737417D01*
X124154447Y-95744858D01*
X124166073Y-95753481D01*
X124176798Y-95763202D01*
X124186519Y-95773927D01*
X124195142Y-95785553D01*
X124202583Y-95797969D01*
X124208772Y-95811054D01*
X124213649Y-95824683D01*
X124217166Y-95838724D01*
X124219290Y-95853042D01*
X124220000Y-95867500D01*
X124220000Y-96162500D01*
X124219290Y-96176958D01*
X124217166Y-96191276D01*
X124213649Y-96205317D01*
X124208772Y-96218946D01*
X124202583Y-96232031D01*
X124195142Y-96244447D01*
X124186519Y-96256073D01*
X124176798Y-96266798D01*
X124166073Y-96276519D01*
X124154447Y-96285142D01*
X124142031Y-96292583D01*
X124128946Y-96298772D01*
X124115317Y-96303649D01*
X124101276Y-96307166D01*
X124086958Y-96309290D01*
X124072500Y-96310000D01*
X123727500Y-96310000D01*
X123713042Y-96309290D01*
X123698724Y-96307166D01*
X123684683Y-96303649D01*
X123671054Y-96298772D01*
X123657969Y-96292583D01*
X123645553Y-96285142D01*
X123633927Y-96276519D01*
X123623202Y-96266798D01*
X123613481Y-96256073D01*
X123604858Y-96244447D01*
X123597417Y-96232031D01*
X123591228Y-96218946D01*
X123586351Y-96205317D01*
X123582834Y-96191276D01*
X123580710Y-96176958D01*
X123580000Y-96162500D01*
X123580000Y-95867500D01*
X123580710Y-95853042D01*
X123582834Y-95838724D01*
X123586351Y-95824683D01*
X123591228Y-95811054D01*
X123597417Y-95797969D01*
X123604858Y-95785553D01*
X123613481Y-95773927D01*
X123623202Y-95763202D01*
X123633927Y-95753481D01*
X123645553Y-95744858D01*
X123657969Y-95737417D01*
X123671054Y-95731228D01*
X123684683Y-95726351D01*
X123698724Y-95722834D01*
X123713042Y-95720710D01*
X123727500Y-95720000D01*
X124072500Y-95720000D01*
X124086958Y-95720710D01*
G37*
G36*
X127086958Y-95720710D02*
G01*
X127101276Y-95722834D01*
X127115317Y-95726351D01*
X127128946Y-95731228D01*
X127142031Y-95737417D01*
X127154447Y-95744858D01*
X127166073Y-95753481D01*
X127176798Y-95763202D01*
X127186519Y-95773927D01*
X127195142Y-95785553D01*
X127202583Y-95797969D01*
X127208772Y-95811054D01*
X127213649Y-95824683D01*
X127217166Y-95838724D01*
X127219290Y-95853042D01*
X127220000Y-95867500D01*
X127220000Y-96162500D01*
X127219290Y-96176958D01*
X127217166Y-96191276D01*
X127213649Y-96205317D01*
X127208772Y-96218946D01*
X127202583Y-96232031D01*
X127195142Y-96244447D01*
X127186519Y-96256073D01*
X127176798Y-96266798D01*
X127166073Y-96276519D01*
X127154447Y-96285142D01*
X127142031Y-96292583D01*
X127128946Y-96298772D01*
X127115317Y-96303649D01*
X127101276Y-96307166D01*
X127086958Y-96309290D01*
X127072500Y-96310000D01*
X126727500Y-96310000D01*
X126713042Y-96309290D01*
X126698724Y-96307166D01*
X126684683Y-96303649D01*
X126671054Y-96298772D01*
X126657969Y-96292583D01*
X126645553Y-96285142D01*
X126633927Y-96276519D01*
X126623202Y-96266798D01*
X126613481Y-96256073D01*
X126604858Y-96244447D01*
X126597417Y-96232031D01*
X126591228Y-96218946D01*
X126586351Y-96205317D01*
X126582834Y-96191276D01*
X126580710Y-96176958D01*
X126580000Y-96162500D01*
X126580000Y-95867500D01*
X126580710Y-95853042D01*
X126582834Y-95838724D01*
X126586351Y-95824683D01*
X126591228Y-95811054D01*
X126597417Y-95797969D01*
X126604858Y-95785553D01*
X126613481Y-95773927D01*
X126623202Y-95763202D01*
X126633927Y-95753481D01*
X126645553Y-95744858D01*
X126657969Y-95737417D01*
X126671054Y-95731228D01*
X126684683Y-95726351D01*
X126698724Y-95722834D01*
X126713042Y-95720710D01*
X126727500Y-95720000D01*
X127072500Y-95720000D01*
X127086958Y-95720710D01*
G37*
G36*
X127086958Y-96690710D02*
G01*
X127101276Y-96692834D01*
X127115317Y-96696351D01*
X127128946Y-96701228D01*
X127142031Y-96707417D01*
X127154447Y-96714858D01*
X127166073Y-96723481D01*
X127176798Y-96733202D01*
X127186519Y-96743927D01*
X127195142Y-96755553D01*
X127202583Y-96767969D01*
X127208772Y-96781054D01*
X127213649Y-96794683D01*
X127217166Y-96808724D01*
X127219290Y-96823042D01*
X127220000Y-96837500D01*
X127220000Y-97132500D01*
X127219290Y-97146958D01*
X127217166Y-97161276D01*
X127213649Y-97175317D01*
X127208772Y-97188946D01*
X127202583Y-97202031D01*
X127195142Y-97214447D01*
X127186519Y-97226073D01*
X127176798Y-97236798D01*
X127166073Y-97246519D01*
X127154447Y-97255142D01*
X127142031Y-97262583D01*
X127128946Y-97268772D01*
X127115317Y-97273649D01*
X127101276Y-97277166D01*
X127086958Y-97279290D01*
X127072500Y-97280000D01*
X126727500Y-97280000D01*
X126713042Y-97279290D01*
X126698724Y-97277166D01*
X126684683Y-97273649D01*
X126671054Y-97268772D01*
X126657969Y-97262583D01*
X126645553Y-97255142D01*
X126633927Y-97246519D01*
X126623202Y-97236798D01*
X126613481Y-97226073D01*
X126604858Y-97214447D01*
X126597417Y-97202031D01*
X126591228Y-97188946D01*
X126586351Y-97175317D01*
X126582834Y-97161276D01*
X126580710Y-97146958D01*
X126580000Y-97132500D01*
X126580000Y-96837500D01*
X126580710Y-96823042D01*
X126582834Y-96808724D01*
X126586351Y-96794683D01*
X126591228Y-96781054D01*
X126597417Y-96767969D01*
X126604858Y-96755553D01*
X126613481Y-96743927D01*
X126623202Y-96733202D01*
X126633927Y-96723481D01*
X126645553Y-96714858D01*
X126657969Y-96707417D01*
X126671054Y-96701228D01*
X126684683Y-96696351D01*
X126698724Y-96692834D01*
X126713042Y-96690710D01*
X126727500Y-96690000D01*
X127072500Y-96690000D01*
X127086958Y-96690710D01*
G37*
G36*
X125086958Y-95720710D02*
G01*
X125101276Y-95722834D01*
X125115317Y-95726351D01*
X125128946Y-95731228D01*
X125142031Y-95737417D01*
X125154447Y-95744858D01*
X125166073Y-95753481D01*
X125176798Y-95763202D01*
X125186519Y-95773927D01*
X125195142Y-95785553D01*
X125202583Y-95797969D01*
X125208772Y-95811054D01*
X125213649Y-95824683D01*
X125217166Y-95838724D01*
X125219290Y-95853042D01*
X125220000Y-95867500D01*
X125220000Y-96162500D01*
X125219290Y-96176958D01*
X125217166Y-96191276D01*
X125213649Y-96205317D01*
X125208772Y-96218946D01*
X125202583Y-96232031D01*
X125195142Y-96244447D01*
X125186519Y-96256073D01*
X125176798Y-96266798D01*
X125166073Y-96276519D01*
X125154447Y-96285142D01*
X125142031Y-96292583D01*
X125128946Y-96298772D01*
X125115317Y-96303649D01*
X125101276Y-96307166D01*
X125086958Y-96309290D01*
X125072500Y-96310000D01*
X124727500Y-96310000D01*
X124713042Y-96309290D01*
X124698724Y-96307166D01*
X124684683Y-96303649D01*
X124671054Y-96298772D01*
X124657969Y-96292583D01*
X124645553Y-96285142D01*
X124633927Y-96276519D01*
X124623202Y-96266798D01*
X124613481Y-96256073D01*
X124604858Y-96244447D01*
X124597417Y-96232031D01*
X124591228Y-96218946D01*
X124586351Y-96205317D01*
X124582834Y-96191276D01*
X124580710Y-96176958D01*
X124580000Y-96162500D01*
X124580000Y-95867500D01*
X124580710Y-95853042D01*
X124582834Y-95838724D01*
X124586351Y-95824683D01*
X124591228Y-95811054D01*
X124597417Y-95797969D01*
X124604858Y-95785553D01*
X124613481Y-95773927D01*
X124623202Y-95763202D01*
X124633927Y-95753481D01*
X124645553Y-95744858D01*
X124657969Y-95737417D01*
X124671054Y-95731228D01*
X124684683Y-95726351D01*
X124698724Y-95722834D01*
X124713042Y-95720710D01*
X124727500Y-95720000D01*
X125072500Y-95720000D01*
X125086958Y-95720710D01*
G37*
G36*
X125086958Y-96690710D02*
G01*
X125101276Y-96692834D01*
X125115317Y-96696351D01*
X125128946Y-96701228D01*
X125142031Y-96707417D01*
X125154447Y-96714858D01*
X125166073Y-96723481D01*
X125176798Y-96733202D01*
X125186519Y-96743927D01*
X125195142Y-96755553D01*
X125202583Y-96767969D01*
X125208772Y-96781054D01*
X125213649Y-96794683D01*
X125217166Y-96808724D01*
X125219290Y-96823042D01*
X125220000Y-96837500D01*
X125220000Y-97132500D01*
X125219290Y-97146958D01*
X125217166Y-97161276D01*
X125213649Y-97175317D01*
X125208772Y-97188946D01*
X125202583Y-97202031D01*
X125195142Y-97214447D01*
X125186519Y-97226073D01*
X125176798Y-97236798D01*
X125166073Y-97246519D01*
X125154447Y-97255142D01*
X125142031Y-97262583D01*
X125128946Y-97268772D01*
X125115317Y-97273649D01*
X125101276Y-97277166D01*
X125086958Y-97279290D01*
X125072500Y-97280000D01*
X124727500Y-97280000D01*
X124713042Y-97279290D01*
X124698724Y-97277166D01*
X124684683Y-97273649D01*
X124671054Y-97268772D01*
X124657969Y-97262583D01*
X124645553Y-97255142D01*
X124633927Y-97246519D01*
X124623202Y-97236798D01*
X124613481Y-97226073D01*
X124604858Y-97214447D01*
X124597417Y-97202031D01*
X124591228Y-97188946D01*
X124586351Y-97175317D01*
X124582834Y-97161276D01*
X124580710Y-97146958D01*
X124580000Y-97132500D01*
X124580000Y-96837500D01*
X124580710Y-96823042D01*
X124582834Y-96808724D01*
X124586351Y-96794683D01*
X124591228Y-96781054D01*
X124597417Y-96767969D01*
X124604858Y-96755553D01*
X124613481Y-96743927D01*
X124623202Y-96733202D01*
X124633927Y-96723481D01*
X124645553Y-96714858D01*
X124657969Y-96707417D01*
X124671054Y-96701228D01*
X124684683Y-96696351D01*
X124698724Y-96692834D01*
X124713042Y-96690710D01*
X124727500Y-96690000D01*
X125072500Y-96690000D01*
X125086958Y-96690710D01*
G37*
G36*
X132686958Y-105190710D02*
G01*
X132701276Y-105192834D01*
X132715317Y-105196351D01*
X132728946Y-105201228D01*
X132742031Y-105207417D01*
X132754447Y-105214858D01*
X132766073Y-105223481D01*
X132776798Y-105233202D01*
X132786519Y-105243927D01*
X132795142Y-105255553D01*
X132802583Y-105267969D01*
X132808772Y-105281054D01*
X132813649Y-105294683D01*
X132817166Y-105308724D01*
X132819290Y-105323042D01*
X132820000Y-105337500D01*
X132820000Y-105632500D01*
X132819290Y-105646958D01*
X132817166Y-105661276D01*
X132813649Y-105675317D01*
X132808772Y-105688946D01*
X132802583Y-105702031D01*
X132795142Y-105714447D01*
X132786519Y-105726073D01*
X132776798Y-105736798D01*
X132766073Y-105746519D01*
X132754447Y-105755142D01*
X132742031Y-105762583D01*
X132728946Y-105768772D01*
X132715317Y-105773649D01*
X132701276Y-105777166D01*
X132686958Y-105779290D01*
X132672500Y-105780000D01*
X132327500Y-105780000D01*
X132313042Y-105779290D01*
X132298724Y-105777166D01*
X132284683Y-105773649D01*
X132271054Y-105768772D01*
X132257969Y-105762583D01*
X132245553Y-105755142D01*
X132233927Y-105746519D01*
X132223202Y-105736798D01*
X132213481Y-105726073D01*
X132204858Y-105714447D01*
X132197417Y-105702031D01*
X132191228Y-105688946D01*
X132186351Y-105675317D01*
X132182834Y-105661276D01*
X132180710Y-105646958D01*
X132180000Y-105632500D01*
X132180000Y-105337500D01*
X132180710Y-105323042D01*
X132182834Y-105308724D01*
X132186351Y-105294683D01*
X132191228Y-105281054D01*
X132197417Y-105267969D01*
X132204858Y-105255553D01*
X132213481Y-105243927D01*
X132223202Y-105233202D01*
X132233927Y-105223481D01*
X132245553Y-105214858D01*
X132257969Y-105207417D01*
X132271054Y-105201228D01*
X132284683Y-105196351D01*
X132298724Y-105192834D01*
X132313042Y-105190710D01*
X132327500Y-105190000D01*
X132672500Y-105190000D01*
X132686958Y-105190710D01*
G37*
G36*
X132686958Y-104220710D02*
G01*
X132701276Y-104222834D01*
X132715317Y-104226351D01*
X132728946Y-104231228D01*
X132742031Y-104237417D01*
X132754447Y-104244858D01*
X132766073Y-104253481D01*
X132776798Y-104263202D01*
X132786519Y-104273927D01*
X132795142Y-104285553D01*
X132802583Y-104297969D01*
X132808772Y-104311054D01*
X132813649Y-104324683D01*
X132817166Y-104338724D01*
X132819290Y-104353042D01*
X132820000Y-104367500D01*
X132820000Y-104662500D01*
X132819290Y-104676958D01*
X132817166Y-104691276D01*
X132813649Y-104705317D01*
X132808772Y-104718946D01*
X132802583Y-104732031D01*
X132795142Y-104744447D01*
X132786519Y-104756073D01*
X132776798Y-104766798D01*
X132766073Y-104776519D01*
X132754447Y-104785142D01*
X132742031Y-104792583D01*
X132728946Y-104798772D01*
X132715317Y-104803649D01*
X132701276Y-104807166D01*
X132686958Y-104809290D01*
X132672500Y-104810000D01*
X132327500Y-104810000D01*
X132313042Y-104809290D01*
X132298724Y-104807166D01*
X132284683Y-104803649D01*
X132271054Y-104798772D01*
X132257969Y-104792583D01*
X132245553Y-104785142D01*
X132233927Y-104776519D01*
X132223202Y-104766798D01*
X132213481Y-104756073D01*
X132204858Y-104744447D01*
X132197417Y-104732031D01*
X132191228Y-104718946D01*
X132186351Y-104705317D01*
X132182834Y-104691276D01*
X132180710Y-104676958D01*
X132180000Y-104662500D01*
X132180000Y-104367500D01*
X132180710Y-104353042D01*
X132182834Y-104338724D01*
X132186351Y-104324683D01*
X132191228Y-104311054D01*
X132197417Y-104297969D01*
X132204858Y-104285553D01*
X132213481Y-104273927D01*
X132223202Y-104263202D01*
X132233927Y-104253481D01*
X132245553Y-104244858D01*
X132257969Y-104237417D01*
X132271054Y-104231228D01*
X132284683Y-104226351D01*
X132298724Y-104222834D01*
X132313042Y-104220710D01*
X132327500Y-104220000D01*
X132672500Y-104220000D01*
X132686958Y-104220710D01*
G37*
G36*
X138186958Y-104220710D02*
G01*
X138201276Y-104222834D01*
X138215317Y-104226351D01*
X138228946Y-104231228D01*
X138242031Y-104237417D01*
X138254447Y-104244858D01*
X138266073Y-104253481D01*
X138276798Y-104263202D01*
X138286519Y-104273927D01*
X138295142Y-104285553D01*
X138302583Y-104297969D01*
X138308772Y-104311054D01*
X138313649Y-104324683D01*
X138317166Y-104338724D01*
X138319290Y-104353042D01*
X138320000Y-104367500D01*
X138320000Y-104662500D01*
X138319290Y-104676958D01*
X138317166Y-104691276D01*
X138313649Y-104705317D01*
X138308772Y-104718946D01*
X138302583Y-104732031D01*
X138295142Y-104744447D01*
X138286519Y-104756073D01*
X138276798Y-104766798D01*
X138266073Y-104776519D01*
X138254447Y-104785142D01*
X138242031Y-104792583D01*
X138228946Y-104798772D01*
X138215317Y-104803649D01*
X138201276Y-104807166D01*
X138186958Y-104809290D01*
X138172500Y-104810000D01*
X137827500Y-104810000D01*
X137813042Y-104809290D01*
X137798724Y-104807166D01*
X137784683Y-104803649D01*
X137771054Y-104798772D01*
X137757969Y-104792583D01*
X137745553Y-104785142D01*
X137733927Y-104776519D01*
X137723202Y-104766798D01*
X137713481Y-104756073D01*
X137704858Y-104744447D01*
X137697417Y-104732031D01*
X137691228Y-104718946D01*
X137686351Y-104705317D01*
X137682834Y-104691276D01*
X137680710Y-104676958D01*
X137680000Y-104662500D01*
X137680000Y-104367500D01*
X137680710Y-104353042D01*
X137682834Y-104338724D01*
X137686351Y-104324683D01*
X137691228Y-104311054D01*
X137697417Y-104297969D01*
X137704858Y-104285553D01*
X137713481Y-104273927D01*
X137723202Y-104263202D01*
X137733927Y-104253481D01*
X137745553Y-104244858D01*
X137757969Y-104237417D01*
X137771054Y-104231228D01*
X137784683Y-104226351D01*
X137798724Y-104222834D01*
X137813042Y-104220710D01*
X137827500Y-104220000D01*
X138172500Y-104220000D01*
X138186958Y-104220710D01*
G37*
G36*
X138186958Y-105190710D02*
G01*
X138201276Y-105192834D01*
X138215317Y-105196351D01*
X138228946Y-105201228D01*
X138242031Y-105207417D01*
X138254447Y-105214858D01*
X138266073Y-105223481D01*
X138276798Y-105233202D01*
X138286519Y-105243927D01*
X138295142Y-105255553D01*
X138302583Y-105267969D01*
X138308772Y-105281054D01*
X138313649Y-105294683D01*
X138317166Y-105308724D01*
X138319290Y-105323042D01*
X138320000Y-105337500D01*
X138320000Y-105632500D01*
X138319290Y-105646958D01*
X138317166Y-105661276D01*
X138313649Y-105675317D01*
X138308772Y-105688946D01*
X138302583Y-105702031D01*
X138295142Y-105714447D01*
X138286519Y-105726073D01*
X138276798Y-105736798D01*
X138266073Y-105746519D01*
X138254447Y-105755142D01*
X138242031Y-105762583D01*
X138228946Y-105768772D01*
X138215317Y-105773649D01*
X138201276Y-105777166D01*
X138186958Y-105779290D01*
X138172500Y-105780000D01*
X137827500Y-105780000D01*
X137813042Y-105779290D01*
X137798724Y-105777166D01*
X137784683Y-105773649D01*
X137771054Y-105768772D01*
X137757969Y-105762583D01*
X137745553Y-105755142D01*
X137733927Y-105746519D01*
X137723202Y-105736798D01*
X137713481Y-105726073D01*
X137704858Y-105714447D01*
X137697417Y-105702031D01*
X137691228Y-105688946D01*
X137686351Y-105675317D01*
X137682834Y-105661276D01*
X137680710Y-105646958D01*
X137680000Y-105632500D01*
X137680000Y-105337500D01*
X137680710Y-105323042D01*
X137682834Y-105308724D01*
X137686351Y-105294683D01*
X137691228Y-105281054D01*
X137697417Y-105267969D01*
X137704858Y-105255553D01*
X137713481Y-105243927D01*
X137723202Y-105233202D01*
X137733927Y-105223481D01*
X137745553Y-105214858D01*
X137757969Y-105207417D01*
X137771054Y-105201228D01*
X137784683Y-105196351D01*
X137798724Y-105192834D01*
X137813042Y-105190710D01*
X137827500Y-105190000D01*
X138172500Y-105190000D01*
X138186958Y-105190710D01*
G37*
G36*
X139186958Y-104220710D02*
G01*
X139201276Y-104222834D01*
X139215317Y-104226351D01*
X139228946Y-104231228D01*
X139242031Y-104237417D01*
X139254447Y-104244858D01*
X139266073Y-104253481D01*
X139276798Y-104263202D01*
X139286519Y-104273927D01*
X139295142Y-104285553D01*
X139302583Y-104297969D01*
X139308772Y-104311054D01*
X139313649Y-104324683D01*
X139317166Y-104338724D01*
X139319290Y-104353042D01*
X139320000Y-104367500D01*
X139320000Y-104662500D01*
X139319290Y-104676958D01*
X139317166Y-104691276D01*
X139313649Y-104705317D01*
X139308772Y-104718946D01*
X139302583Y-104732031D01*
X139295142Y-104744447D01*
X139286519Y-104756073D01*
X139276798Y-104766798D01*
X139266073Y-104776519D01*
X139254447Y-104785142D01*
X139242031Y-104792583D01*
X139228946Y-104798772D01*
X139215317Y-104803649D01*
X139201276Y-104807166D01*
X139186958Y-104809290D01*
X139172500Y-104810000D01*
X138827500Y-104810000D01*
X138813042Y-104809290D01*
X138798724Y-104807166D01*
X138784683Y-104803649D01*
X138771054Y-104798772D01*
X138757969Y-104792583D01*
X138745553Y-104785142D01*
X138733927Y-104776519D01*
X138723202Y-104766798D01*
X138713481Y-104756073D01*
X138704858Y-104744447D01*
X138697417Y-104732031D01*
X138691228Y-104718946D01*
X138686351Y-104705317D01*
X138682834Y-104691276D01*
X138680710Y-104676958D01*
X138680000Y-104662500D01*
X138680000Y-104367500D01*
X138680710Y-104353042D01*
X138682834Y-104338724D01*
X138686351Y-104324683D01*
X138691228Y-104311054D01*
X138697417Y-104297969D01*
X138704858Y-104285553D01*
X138713481Y-104273927D01*
X138723202Y-104263202D01*
X138733927Y-104253481D01*
X138745553Y-104244858D01*
X138757969Y-104237417D01*
X138771054Y-104231228D01*
X138784683Y-104226351D01*
X138798724Y-104222834D01*
X138813042Y-104220710D01*
X138827500Y-104220000D01*
X139172500Y-104220000D01*
X139186958Y-104220710D01*
G37*
G36*
X139186958Y-105190710D02*
G01*
X139201276Y-105192834D01*
X139215317Y-105196351D01*
X139228946Y-105201228D01*
X139242031Y-105207417D01*
X139254447Y-105214858D01*
X139266073Y-105223481D01*
X139276798Y-105233202D01*
X139286519Y-105243927D01*
X139295142Y-105255553D01*
X139302583Y-105267969D01*
X139308772Y-105281054D01*
X139313649Y-105294683D01*
X139317166Y-105308724D01*
X139319290Y-105323042D01*
X139320000Y-105337500D01*
X139320000Y-105632500D01*
X139319290Y-105646958D01*
X139317166Y-105661276D01*
X139313649Y-105675317D01*
X139308772Y-105688946D01*
X139302583Y-105702031D01*
X139295142Y-105714447D01*
X139286519Y-105726073D01*
X139276798Y-105736798D01*
X139266073Y-105746519D01*
X139254447Y-105755142D01*
X139242031Y-105762583D01*
X139228946Y-105768772D01*
X139215317Y-105773649D01*
X139201276Y-105777166D01*
X139186958Y-105779290D01*
X139172500Y-105780000D01*
X138827500Y-105780000D01*
X138813042Y-105779290D01*
X138798724Y-105777166D01*
X138784683Y-105773649D01*
X138771054Y-105768772D01*
X138757969Y-105762583D01*
X138745553Y-105755142D01*
X138733927Y-105746519D01*
X138723202Y-105736798D01*
X138713481Y-105726073D01*
X138704858Y-105714447D01*
X138697417Y-105702031D01*
X138691228Y-105688946D01*
X138686351Y-105675317D01*
X138682834Y-105661276D01*
X138680710Y-105646958D01*
X138680000Y-105632500D01*
X138680000Y-105337500D01*
X138680710Y-105323042D01*
X138682834Y-105308724D01*
X138686351Y-105294683D01*
X138691228Y-105281054D01*
X138697417Y-105267969D01*
X138704858Y-105255553D01*
X138713481Y-105243927D01*
X138723202Y-105233202D01*
X138733927Y-105223481D01*
X138745553Y-105214858D01*
X138757969Y-105207417D01*
X138771054Y-105201228D01*
X138784683Y-105196351D01*
X138798724Y-105192834D01*
X138813042Y-105190710D01*
X138827500Y-105190000D01*
X139172500Y-105190000D01*
X139186958Y-105190710D01*
G37*
G36*
X134686958Y-114220710D02*
G01*
X134701276Y-114222834D01*
X134715317Y-114226351D01*
X134728946Y-114231228D01*
X134742031Y-114237417D01*
X134754447Y-114244858D01*
X134766073Y-114253481D01*
X134776798Y-114263202D01*
X134786519Y-114273927D01*
X134795142Y-114285553D01*
X134802583Y-114297969D01*
X134808772Y-114311054D01*
X134813649Y-114324683D01*
X134817166Y-114338724D01*
X134819290Y-114353042D01*
X134820000Y-114367500D01*
X134820000Y-114662500D01*
X134819290Y-114676958D01*
X134817166Y-114691276D01*
X134813649Y-114705317D01*
X134808772Y-114718946D01*
X134802583Y-114732031D01*
X134795142Y-114744447D01*
X134786519Y-114756073D01*
X134776798Y-114766798D01*
X134766073Y-114776519D01*
X134754447Y-114785142D01*
X134742031Y-114792583D01*
X134728946Y-114798772D01*
X134715317Y-114803649D01*
X134701276Y-114807166D01*
X134686958Y-114809290D01*
X134672500Y-114810000D01*
X134327500Y-114810000D01*
X134313042Y-114809290D01*
X134298724Y-114807166D01*
X134284683Y-114803649D01*
X134271054Y-114798772D01*
X134257969Y-114792583D01*
X134245553Y-114785142D01*
X134233927Y-114776519D01*
X134223202Y-114766798D01*
X134213481Y-114756073D01*
X134204858Y-114744447D01*
X134197417Y-114732031D01*
X134191228Y-114718946D01*
X134186351Y-114705317D01*
X134182834Y-114691276D01*
X134180710Y-114676958D01*
X134180000Y-114662500D01*
X134180000Y-114367500D01*
X134180710Y-114353042D01*
X134182834Y-114338724D01*
X134186351Y-114324683D01*
X134191228Y-114311054D01*
X134197417Y-114297969D01*
X134204858Y-114285553D01*
X134213481Y-114273927D01*
X134223202Y-114263202D01*
X134233927Y-114253481D01*
X134245553Y-114244858D01*
X134257969Y-114237417D01*
X134271054Y-114231228D01*
X134284683Y-114226351D01*
X134298724Y-114222834D01*
X134313042Y-114220710D01*
X134327500Y-114220000D01*
X134672500Y-114220000D01*
X134686958Y-114220710D01*
G37*
G36*
X134686958Y-115190710D02*
G01*
X134701276Y-115192834D01*
X134715317Y-115196351D01*
X134728946Y-115201228D01*
X134742031Y-115207417D01*
X134754447Y-115214858D01*
X134766073Y-115223481D01*
X134776798Y-115233202D01*
X134786519Y-115243927D01*
X134795142Y-115255553D01*
X134802583Y-115267969D01*
X134808772Y-115281054D01*
X134813649Y-115294683D01*
X134817166Y-115308724D01*
X134819290Y-115323042D01*
X134820000Y-115337500D01*
X134820000Y-115632500D01*
X134819290Y-115646958D01*
X134817166Y-115661276D01*
X134813649Y-115675317D01*
X134808772Y-115688946D01*
X134802583Y-115702031D01*
X134795142Y-115714447D01*
X134786519Y-115726073D01*
X134776798Y-115736798D01*
X134766073Y-115746519D01*
X134754447Y-115755142D01*
X134742031Y-115762583D01*
X134728946Y-115768772D01*
X134715317Y-115773649D01*
X134701276Y-115777166D01*
X134686958Y-115779290D01*
X134672500Y-115780000D01*
X134327500Y-115780000D01*
X134313042Y-115779290D01*
X134298724Y-115777166D01*
X134284683Y-115773649D01*
X134271054Y-115768772D01*
X134257969Y-115762583D01*
X134245553Y-115755142D01*
X134233927Y-115746519D01*
X134223202Y-115736798D01*
X134213481Y-115726073D01*
X134204858Y-115714447D01*
X134197417Y-115702031D01*
X134191228Y-115688946D01*
X134186351Y-115675317D01*
X134182834Y-115661276D01*
X134180710Y-115646958D01*
X134180000Y-115632500D01*
X134180000Y-115337500D01*
X134180710Y-115323042D01*
X134182834Y-115308724D01*
X134186351Y-115294683D01*
X134191228Y-115281054D01*
X134197417Y-115267969D01*
X134204858Y-115255553D01*
X134213481Y-115243927D01*
X134223202Y-115233202D01*
X134233927Y-115223481D01*
X134245553Y-115214858D01*
X134257969Y-115207417D01*
X134271054Y-115201228D01*
X134284683Y-115196351D01*
X134298724Y-115192834D01*
X134313042Y-115190710D01*
X134327500Y-115190000D01*
X134672500Y-115190000D01*
X134686958Y-115190710D01*
G37*
G36*
X133686958Y-105190710D02*
G01*
X133701276Y-105192834D01*
X133715317Y-105196351D01*
X133728946Y-105201228D01*
X133742031Y-105207417D01*
X133754447Y-105214858D01*
X133766073Y-105223481D01*
X133776798Y-105233202D01*
X133786519Y-105243927D01*
X133795142Y-105255553D01*
X133802583Y-105267969D01*
X133808772Y-105281054D01*
X133813649Y-105294683D01*
X133817166Y-105308724D01*
X133819290Y-105323042D01*
X133820000Y-105337500D01*
X133820000Y-105632500D01*
X133819290Y-105646958D01*
X133817166Y-105661276D01*
X133813649Y-105675317D01*
X133808772Y-105688946D01*
X133802583Y-105702031D01*
X133795142Y-105714447D01*
X133786519Y-105726073D01*
X133776798Y-105736798D01*
X133766073Y-105746519D01*
X133754447Y-105755142D01*
X133742031Y-105762583D01*
X133728946Y-105768772D01*
X133715317Y-105773649D01*
X133701276Y-105777166D01*
X133686958Y-105779290D01*
X133672500Y-105780000D01*
X133327500Y-105780000D01*
X133313042Y-105779290D01*
X133298724Y-105777166D01*
X133284683Y-105773649D01*
X133271054Y-105768772D01*
X133257969Y-105762583D01*
X133245553Y-105755142D01*
X133233927Y-105746519D01*
X133223202Y-105736798D01*
X133213481Y-105726073D01*
X133204858Y-105714447D01*
X133197417Y-105702031D01*
X133191228Y-105688946D01*
X133186351Y-105675317D01*
X133182834Y-105661276D01*
X133180710Y-105646958D01*
X133180000Y-105632500D01*
X133180000Y-105337500D01*
X133180710Y-105323042D01*
X133182834Y-105308724D01*
X133186351Y-105294683D01*
X133191228Y-105281054D01*
X133197417Y-105267969D01*
X133204858Y-105255553D01*
X133213481Y-105243927D01*
X133223202Y-105233202D01*
X133233927Y-105223481D01*
X133245553Y-105214858D01*
X133257969Y-105207417D01*
X133271054Y-105201228D01*
X133284683Y-105196351D01*
X133298724Y-105192834D01*
X133313042Y-105190710D01*
X133327500Y-105190000D01*
X133672500Y-105190000D01*
X133686958Y-105190710D01*
G37*
G36*
X133686958Y-104220710D02*
G01*
X133701276Y-104222834D01*
X133715317Y-104226351D01*
X133728946Y-104231228D01*
X133742031Y-104237417D01*
X133754447Y-104244858D01*
X133766073Y-104253481D01*
X133776798Y-104263202D01*
X133786519Y-104273927D01*
X133795142Y-104285553D01*
X133802583Y-104297969D01*
X133808772Y-104311054D01*
X133813649Y-104324683D01*
X133817166Y-104338724D01*
X133819290Y-104353042D01*
X133820000Y-104367500D01*
X133820000Y-104662500D01*
X133819290Y-104676958D01*
X133817166Y-104691276D01*
X133813649Y-104705317D01*
X133808772Y-104718946D01*
X133802583Y-104732031D01*
X133795142Y-104744447D01*
X133786519Y-104756073D01*
X133776798Y-104766798D01*
X133766073Y-104776519D01*
X133754447Y-104785142D01*
X133742031Y-104792583D01*
X133728946Y-104798772D01*
X133715317Y-104803649D01*
X133701276Y-104807166D01*
X133686958Y-104809290D01*
X133672500Y-104810000D01*
X133327500Y-104810000D01*
X133313042Y-104809290D01*
X133298724Y-104807166D01*
X133284683Y-104803649D01*
X133271054Y-104798772D01*
X133257969Y-104792583D01*
X133245553Y-104785142D01*
X133233927Y-104776519D01*
X133223202Y-104766798D01*
X133213481Y-104756073D01*
X133204858Y-104744447D01*
X133197417Y-104732031D01*
X133191228Y-104718946D01*
X133186351Y-104705317D01*
X133182834Y-104691276D01*
X133180710Y-104676958D01*
X133180000Y-104662500D01*
X133180000Y-104367500D01*
X133180710Y-104353042D01*
X133182834Y-104338724D01*
X133186351Y-104324683D01*
X133191228Y-104311054D01*
X133197417Y-104297969D01*
X133204858Y-104285553D01*
X133213481Y-104273927D01*
X133223202Y-104263202D01*
X133233927Y-104253481D01*
X133245553Y-104244858D01*
X133257969Y-104237417D01*
X133271054Y-104231228D01*
X133284683Y-104226351D01*
X133298724Y-104222834D01*
X133313042Y-104220710D01*
X133327500Y-104220000D01*
X133672500Y-104220000D01*
X133686958Y-104220710D01*
G37*
G36*
X139186958Y-107190710D02*
G01*
X139201276Y-107192834D01*
X139215317Y-107196351D01*
X139228946Y-107201228D01*
X139242031Y-107207417D01*
X139254447Y-107214858D01*
X139266073Y-107223481D01*
X139276798Y-107233202D01*
X139286519Y-107243927D01*
X139295142Y-107255553D01*
X139302583Y-107267969D01*
X139308772Y-107281054D01*
X139313649Y-107294683D01*
X139317166Y-107308724D01*
X139319290Y-107323042D01*
X139320000Y-107337500D01*
X139320000Y-107632500D01*
X139319290Y-107646958D01*
X139317166Y-107661276D01*
X139313649Y-107675317D01*
X139308772Y-107688946D01*
X139302583Y-107702031D01*
X139295142Y-107714447D01*
X139286519Y-107726073D01*
X139276798Y-107736798D01*
X139266073Y-107746519D01*
X139254447Y-107755142D01*
X139242031Y-107762583D01*
X139228946Y-107768772D01*
X139215317Y-107773649D01*
X139201276Y-107777166D01*
X139186958Y-107779290D01*
X139172500Y-107780000D01*
X138827500Y-107780000D01*
X138813042Y-107779290D01*
X138798724Y-107777166D01*
X138784683Y-107773649D01*
X138771054Y-107768772D01*
X138757969Y-107762583D01*
X138745553Y-107755142D01*
X138733927Y-107746519D01*
X138723202Y-107736798D01*
X138713481Y-107726073D01*
X138704858Y-107714447D01*
X138697417Y-107702031D01*
X138691228Y-107688946D01*
X138686351Y-107675317D01*
X138682834Y-107661276D01*
X138680710Y-107646958D01*
X138680000Y-107632500D01*
X138680000Y-107337500D01*
X138680710Y-107323042D01*
X138682834Y-107308724D01*
X138686351Y-107294683D01*
X138691228Y-107281054D01*
X138697417Y-107267969D01*
X138704858Y-107255553D01*
X138713481Y-107243927D01*
X138723202Y-107233202D01*
X138733927Y-107223481D01*
X138745553Y-107214858D01*
X138757969Y-107207417D01*
X138771054Y-107201228D01*
X138784683Y-107196351D01*
X138798724Y-107192834D01*
X138813042Y-107190710D01*
X138827500Y-107190000D01*
X139172500Y-107190000D01*
X139186958Y-107190710D01*
G37*
G36*
X139186958Y-106220710D02*
G01*
X139201276Y-106222834D01*
X139215317Y-106226351D01*
X139228946Y-106231228D01*
X139242031Y-106237417D01*
X139254447Y-106244858D01*
X139266073Y-106253481D01*
X139276798Y-106263202D01*
X139286519Y-106273927D01*
X139295142Y-106285553D01*
X139302583Y-106297969D01*
X139308772Y-106311054D01*
X139313649Y-106324683D01*
X139317166Y-106338724D01*
X139319290Y-106353042D01*
X139320000Y-106367500D01*
X139320000Y-106662500D01*
X139319290Y-106676958D01*
X139317166Y-106691276D01*
X139313649Y-106705317D01*
X139308772Y-106718946D01*
X139302583Y-106732031D01*
X139295142Y-106744447D01*
X139286519Y-106756073D01*
X139276798Y-106766798D01*
X139266073Y-106776519D01*
X139254447Y-106785142D01*
X139242031Y-106792583D01*
X139228946Y-106798772D01*
X139215317Y-106803649D01*
X139201276Y-106807166D01*
X139186958Y-106809290D01*
X139172500Y-106810000D01*
X138827500Y-106810000D01*
X138813042Y-106809290D01*
X138798724Y-106807166D01*
X138784683Y-106803649D01*
X138771054Y-106798772D01*
X138757969Y-106792583D01*
X138745553Y-106785142D01*
X138733927Y-106776519D01*
X138723202Y-106766798D01*
X138713481Y-106756073D01*
X138704858Y-106744447D01*
X138697417Y-106732031D01*
X138691228Y-106718946D01*
X138686351Y-106705317D01*
X138682834Y-106691276D01*
X138680710Y-106676958D01*
X138680000Y-106662500D01*
X138680000Y-106367500D01*
X138680710Y-106353042D01*
X138682834Y-106338724D01*
X138686351Y-106324683D01*
X138691228Y-106311054D01*
X138697417Y-106297969D01*
X138704858Y-106285553D01*
X138713481Y-106273927D01*
X138723202Y-106263202D01*
X138733927Y-106253481D01*
X138745553Y-106244858D01*
X138757969Y-106237417D01*
X138771054Y-106231228D01*
X138784683Y-106226351D01*
X138798724Y-106222834D01*
X138813042Y-106220710D01*
X138827500Y-106220000D01*
X139172500Y-106220000D01*
X139186958Y-106220710D01*
G37*
G36*
X139186958Y-109190710D02*
G01*
X139201276Y-109192834D01*
X139215317Y-109196351D01*
X139228946Y-109201228D01*
X139242031Y-109207417D01*
X139254447Y-109214858D01*
X139266073Y-109223481D01*
X139276798Y-109233202D01*
X139286519Y-109243927D01*
X139295142Y-109255553D01*
X139302583Y-109267969D01*
X139308772Y-109281054D01*
X139313649Y-109294683D01*
X139317166Y-109308724D01*
X139319290Y-109323042D01*
X139320000Y-109337500D01*
X139320000Y-109632500D01*
X139319290Y-109646958D01*
X139317166Y-109661276D01*
X139313649Y-109675317D01*
X139308772Y-109688946D01*
X139302583Y-109702031D01*
X139295142Y-109714447D01*
X139286519Y-109726073D01*
X139276798Y-109736798D01*
X139266073Y-109746519D01*
X139254447Y-109755142D01*
X139242031Y-109762583D01*
X139228946Y-109768772D01*
X139215317Y-109773649D01*
X139201276Y-109777166D01*
X139186958Y-109779290D01*
X139172500Y-109780000D01*
X138827500Y-109780000D01*
X138813042Y-109779290D01*
X138798724Y-109777166D01*
X138784683Y-109773649D01*
X138771054Y-109768772D01*
X138757969Y-109762583D01*
X138745553Y-109755142D01*
X138733927Y-109746519D01*
X138723202Y-109736798D01*
X138713481Y-109726073D01*
X138704858Y-109714447D01*
X138697417Y-109702031D01*
X138691228Y-109688946D01*
X138686351Y-109675317D01*
X138682834Y-109661276D01*
X138680710Y-109646958D01*
X138680000Y-109632500D01*
X138680000Y-109337500D01*
X138680710Y-109323042D01*
X138682834Y-109308724D01*
X138686351Y-109294683D01*
X138691228Y-109281054D01*
X138697417Y-109267969D01*
X138704858Y-109255553D01*
X138713481Y-109243927D01*
X138723202Y-109233202D01*
X138733927Y-109223481D01*
X138745553Y-109214858D01*
X138757969Y-109207417D01*
X138771054Y-109201228D01*
X138784683Y-109196351D01*
X138798724Y-109192834D01*
X138813042Y-109190710D01*
X138827500Y-109190000D01*
X139172500Y-109190000D01*
X139186958Y-109190710D01*
G37*
G36*
X139186958Y-108220710D02*
G01*
X139201276Y-108222834D01*
X139215317Y-108226351D01*
X139228946Y-108231228D01*
X139242031Y-108237417D01*
X139254447Y-108244858D01*
X139266073Y-108253481D01*
X139276798Y-108263202D01*
X139286519Y-108273927D01*
X139295142Y-108285553D01*
X139302583Y-108297969D01*
X139308772Y-108311054D01*
X139313649Y-108324683D01*
X139317166Y-108338724D01*
X139319290Y-108353042D01*
X139320000Y-108367500D01*
X139320000Y-108662500D01*
X139319290Y-108676958D01*
X139317166Y-108691276D01*
X139313649Y-108705317D01*
X139308772Y-108718946D01*
X139302583Y-108732031D01*
X139295142Y-108744447D01*
X139286519Y-108756073D01*
X139276798Y-108766798D01*
X139266073Y-108776519D01*
X139254447Y-108785142D01*
X139242031Y-108792583D01*
X139228946Y-108798772D01*
X139215317Y-108803649D01*
X139201276Y-108807166D01*
X139186958Y-108809290D01*
X139172500Y-108810000D01*
X138827500Y-108810000D01*
X138813042Y-108809290D01*
X138798724Y-108807166D01*
X138784683Y-108803649D01*
X138771054Y-108798772D01*
X138757969Y-108792583D01*
X138745553Y-108785142D01*
X138733927Y-108776519D01*
X138723202Y-108766798D01*
X138713481Y-108756073D01*
X138704858Y-108744447D01*
X138697417Y-108732031D01*
X138691228Y-108718946D01*
X138686351Y-108705317D01*
X138682834Y-108691276D01*
X138680710Y-108676958D01*
X138680000Y-108662500D01*
X138680000Y-108367500D01*
X138680710Y-108353042D01*
X138682834Y-108338724D01*
X138686351Y-108324683D01*
X138691228Y-108311054D01*
X138697417Y-108297969D01*
X138704858Y-108285553D01*
X138713481Y-108273927D01*
X138723202Y-108263202D01*
X138733927Y-108253481D01*
X138745553Y-108244858D01*
X138757969Y-108237417D01*
X138771054Y-108231228D01*
X138784683Y-108226351D01*
X138798724Y-108222834D01*
X138813042Y-108220710D01*
X138827500Y-108220000D01*
X139172500Y-108220000D01*
X139186958Y-108220710D01*
G37*
G36*
X135686958Y-114220710D02*
G01*
X135701276Y-114222834D01*
X135715317Y-114226351D01*
X135728946Y-114231228D01*
X135742031Y-114237417D01*
X135754447Y-114244858D01*
X135766073Y-114253481D01*
X135776798Y-114263202D01*
X135786519Y-114273927D01*
X135795142Y-114285553D01*
X135802583Y-114297969D01*
X135808772Y-114311054D01*
X135813649Y-114324683D01*
X135817166Y-114338724D01*
X135819290Y-114353042D01*
X135820000Y-114367500D01*
X135820000Y-114662500D01*
X135819290Y-114676958D01*
X135817166Y-114691276D01*
X135813649Y-114705317D01*
X135808772Y-114718946D01*
X135802583Y-114732031D01*
X135795142Y-114744447D01*
X135786519Y-114756073D01*
X135776798Y-114766798D01*
X135766073Y-114776519D01*
X135754447Y-114785142D01*
X135742031Y-114792583D01*
X135728946Y-114798772D01*
X135715317Y-114803649D01*
X135701276Y-114807166D01*
X135686958Y-114809290D01*
X135672500Y-114810000D01*
X135327500Y-114810000D01*
X135313042Y-114809290D01*
X135298724Y-114807166D01*
X135284683Y-114803649D01*
X135271054Y-114798772D01*
X135257969Y-114792583D01*
X135245553Y-114785142D01*
X135233927Y-114776519D01*
X135223202Y-114766798D01*
X135213481Y-114756073D01*
X135204858Y-114744447D01*
X135197417Y-114732031D01*
X135191228Y-114718946D01*
X135186351Y-114705317D01*
X135182834Y-114691276D01*
X135180710Y-114676958D01*
X135180000Y-114662500D01*
X135180000Y-114367500D01*
X135180710Y-114353042D01*
X135182834Y-114338724D01*
X135186351Y-114324683D01*
X135191228Y-114311054D01*
X135197417Y-114297969D01*
X135204858Y-114285553D01*
X135213481Y-114273927D01*
X135223202Y-114263202D01*
X135233927Y-114253481D01*
X135245553Y-114244858D01*
X135257969Y-114237417D01*
X135271054Y-114231228D01*
X135284683Y-114226351D01*
X135298724Y-114222834D01*
X135313042Y-114220710D01*
X135327500Y-114220000D01*
X135672500Y-114220000D01*
X135686958Y-114220710D01*
G37*
G36*
X135686958Y-115190710D02*
G01*
X135701276Y-115192834D01*
X135715317Y-115196351D01*
X135728946Y-115201228D01*
X135742031Y-115207417D01*
X135754447Y-115214858D01*
X135766073Y-115223481D01*
X135776798Y-115233202D01*
X135786519Y-115243927D01*
X135795142Y-115255553D01*
X135802583Y-115267969D01*
X135808772Y-115281054D01*
X135813649Y-115294683D01*
X135817166Y-115308724D01*
X135819290Y-115323042D01*
X135820000Y-115337500D01*
X135820000Y-115632500D01*
X135819290Y-115646958D01*
X135817166Y-115661276D01*
X135813649Y-115675317D01*
X135808772Y-115688946D01*
X135802583Y-115702031D01*
X135795142Y-115714447D01*
X135786519Y-115726073D01*
X135776798Y-115736798D01*
X135766073Y-115746519D01*
X135754447Y-115755142D01*
X135742031Y-115762583D01*
X135728946Y-115768772D01*
X135715317Y-115773649D01*
X135701276Y-115777166D01*
X135686958Y-115779290D01*
X135672500Y-115780000D01*
X135327500Y-115780000D01*
X135313042Y-115779290D01*
X135298724Y-115777166D01*
X135284683Y-115773649D01*
X135271054Y-115768772D01*
X135257969Y-115762583D01*
X135245553Y-115755142D01*
X135233927Y-115746519D01*
X135223202Y-115736798D01*
X135213481Y-115726073D01*
X135204858Y-115714447D01*
X135197417Y-115702031D01*
X135191228Y-115688946D01*
X135186351Y-115675317D01*
X135182834Y-115661276D01*
X135180710Y-115646958D01*
X135180000Y-115632500D01*
X135180000Y-115337500D01*
X135180710Y-115323042D01*
X135182834Y-115308724D01*
X135186351Y-115294683D01*
X135191228Y-115281054D01*
X135197417Y-115267969D01*
X135204858Y-115255553D01*
X135213481Y-115243927D01*
X135223202Y-115233202D01*
X135233927Y-115223481D01*
X135245553Y-115214858D01*
X135257969Y-115207417D01*
X135271054Y-115201228D01*
X135284683Y-115196351D01*
X135298724Y-115192834D01*
X135313042Y-115190710D01*
X135327500Y-115190000D01*
X135672500Y-115190000D01*
X135686958Y-115190710D01*
G37*
G36*
X139186958Y-110220710D02*
G01*
X139201276Y-110222834D01*
X139215317Y-110226351D01*
X139228946Y-110231228D01*
X139242031Y-110237417D01*
X139254447Y-110244858D01*
X139266073Y-110253481D01*
X139276798Y-110263202D01*
X139286519Y-110273927D01*
X139295142Y-110285553D01*
X139302583Y-110297969D01*
X139308772Y-110311054D01*
X139313649Y-110324683D01*
X139317166Y-110338724D01*
X139319290Y-110353042D01*
X139320000Y-110367500D01*
X139320000Y-110662500D01*
X139319290Y-110676958D01*
X139317166Y-110691276D01*
X139313649Y-110705317D01*
X139308772Y-110718946D01*
X139302583Y-110732031D01*
X139295142Y-110744447D01*
X139286519Y-110756073D01*
X139276798Y-110766798D01*
X139266073Y-110776519D01*
X139254447Y-110785142D01*
X139242031Y-110792583D01*
X139228946Y-110798772D01*
X139215317Y-110803649D01*
X139201276Y-110807166D01*
X139186958Y-110809290D01*
X139172500Y-110810000D01*
X138827500Y-110810000D01*
X138813042Y-110809290D01*
X138798724Y-110807166D01*
X138784683Y-110803649D01*
X138771054Y-110798772D01*
X138757969Y-110792583D01*
X138745553Y-110785142D01*
X138733927Y-110776519D01*
X138723202Y-110766798D01*
X138713481Y-110756073D01*
X138704858Y-110744447D01*
X138697417Y-110732031D01*
X138691228Y-110718946D01*
X138686351Y-110705317D01*
X138682834Y-110691276D01*
X138680710Y-110676958D01*
X138680000Y-110662500D01*
X138680000Y-110367500D01*
X138680710Y-110353042D01*
X138682834Y-110338724D01*
X138686351Y-110324683D01*
X138691228Y-110311054D01*
X138697417Y-110297969D01*
X138704858Y-110285553D01*
X138713481Y-110273927D01*
X138723202Y-110263202D01*
X138733927Y-110253481D01*
X138745553Y-110244858D01*
X138757969Y-110237417D01*
X138771054Y-110231228D01*
X138784683Y-110226351D01*
X138798724Y-110222834D01*
X138813042Y-110220710D01*
X138827500Y-110220000D01*
X139172500Y-110220000D01*
X139186958Y-110220710D01*
G37*
G36*
X139186958Y-111190710D02*
G01*
X139201276Y-111192834D01*
X139215317Y-111196351D01*
X139228946Y-111201228D01*
X139242031Y-111207417D01*
X139254447Y-111214858D01*
X139266073Y-111223481D01*
X139276798Y-111233202D01*
X139286519Y-111243927D01*
X139295142Y-111255553D01*
X139302583Y-111267969D01*
X139308772Y-111281054D01*
X139313649Y-111294683D01*
X139317166Y-111308724D01*
X139319290Y-111323042D01*
X139320000Y-111337500D01*
X139320000Y-111632500D01*
X139319290Y-111646958D01*
X139317166Y-111661276D01*
X139313649Y-111675317D01*
X139308772Y-111688946D01*
X139302583Y-111702031D01*
X139295142Y-111714447D01*
X139286519Y-111726073D01*
X139276798Y-111736798D01*
X139266073Y-111746519D01*
X139254447Y-111755142D01*
X139242031Y-111762583D01*
X139228946Y-111768772D01*
X139215317Y-111773649D01*
X139201276Y-111777166D01*
X139186958Y-111779290D01*
X139172500Y-111780000D01*
X138827500Y-111780000D01*
X138813042Y-111779290D01*
X138798724Y-111777166D01*
X138784683Y-111773649D01*
X138771054Y-111768772D01*
X138757969Y-111762583D01*
X138745553Y-111755142D01*
X138733927Y-111746519D01*
X138723202Y-111736798D01*
X138713481Y-111726073D01*
X138704858Y-111714447D01*
X138697417Y-111702031D01*
X138691228Y-111688946D01*
X138686351Y-111675317D01*
X138682834Y-111661276D01*
X138680710Y-111646958D01*
X138680000Y-111632500D01*
X138680000Y-111337500D01*
X138680710Y-111323042D01*
X138682834Y-111308724D01*
X138686351Y-111294683D01*
X138691228Y-111281054D01*
X138697417Y-111267969D01*
X138704858Y-111255553D01*
X138713481Y-111243927D01*
X138723202Y-111233202D01*
X138733927Y-111223481D01*
X138745553Y-111214858D01*
X138757969Y-111207417D01*
X138771054Y-111201228D01*
X138784683Y-111196351D01*
X138798724Y-111192834D01*
X138813042Y-111190710D01*
X138827500Y-111190000D01*
X139172500Y-111190000D01*
X139186958Y-111190710D01*
G37*
G36*
X131686958Y-105190710D02*
G01*
X131701276Y-105192834D01*
X131715317Y-105196351D01*
X131728946Y-105201228D01*
X131742031Y-105207417D01*
X131754447Y-105214858D01*
X131766073Y-105223481D01*
X131776798Y-105233202D01*
X131786519Y-105243927D01*
X131795142Y-105255553D01*
X131802583Y-105267969D01*
X131808772Y-105281054D01*
X131813649Y-105294683D01*
X131817166Y-105308724D01*
X131819290Y-105323042D01*
X131820000Y-105337500D01*
X131820000Y-105632500D01*
X131819290Y-105646958D01*
X131817166Y-105661276D01*
X131813649Y-105675317D01*
X131808772Y-105688946D01*
X131802583Y-105702031D01*
X131795142Y-105714447D01*
X131786519Y-105726073D01*
X131776798Y-105736798D01*
X131766073Y-105746519D01*
X131754447Y-105755142D01*
X131742031Y-105762583D01*
X131728946Y-105768772D01*
X131715317Y-105773649D01*
X131701276Y-105777166D01*
X131686958Y-105779290D01*
X131672500Y-105780000D01*
X131327500Y-105780000D01*
X131313042Y-105779290D01*
X131298724Y-105777166D01*
X131284683Y-105773649D01*
X131271054Y-105768772D01*
X131257969Y-105762583D01*
X131245553Y-105755142D01*
X131233927Y-105746519D01*
X131223202Y-105736798D01*
X131213481Y-105726073D01*
X131204858Y-105714447D01*
X131197417Y-105702031D01*
X131191228Y-105688946D01*
X131186351Y-105675317D01*
X131182834Y-105661276D01*
X131180710Y-105646958D01*
X131180000Y-105632500D01*
X131180000Y-105337500D01*
X131180710Y-105323042D01*
X131182834Y-105308724D01*
X131186351Y-105294683D01*
X131191228Y-105281054D01*
X131197417Y-105267969D01*
X131204858Y-105255553D01*
X131213481Y-105243927D01*
X131223202Y-105233202D01*
X131233927Y-105223481D01*
X131245553Y-105214858D01*
X131257969Y-105207417D01*
X131271054Y-105201228D01*
X131284683Y-105196351D01*
X131298724Y-105192834D01*
X131313042Y-105190710D01*
X131327500Y-105190000D01*
X131672500Y-105190000D01*
X131686958Y-105190710D01*
G37*
G36*
X131686958Y-104220710D02*
G01*
X131701276Y-104222834D01*
X131715317Y-104226351D01*
X131728946Y-104231228D01*
X131742031Y-104237417D01*
X131754447Y-104244858D01*
X131766073Y-104253481D01*
X131776798Y-104263202D01*
X131786519Y-104273927D01*
X131795142Y-104285553D01*
X131802583Y-104297969D01*
X131808772Y-104311054D01*
X131813649Y-104324683D01*
X131817166Y-104338724D01*
X131819290Y-104353042D01*
X131820000Y-104367500D01*
X131820000Y-104662500D01*
X131819290Y-104676958D01*
X131817166Y-104691276D01*
X131813649Y-104705317D01*
X131808772Y-104718946D01*
X131802583Y-104732031D01*
X131795142Y-104744447D01*
X131786519Y-104756073D01*
X131776798Y-104766798D01*
X131766073Y-104776519D01*
X131754447Y-104785142D01*
X131742031Y-104792583D01*
X131728946Y-104798772D01*
X131715317Y-104803649D01*
X131701276Y-104807166D01*
X131686958Y-104809290D01*
X131672500Y-104810000D01*
X131327500Y-104810000D01*
X131313042Y-104809290D01*
X131298724Y-104807166D01*
X131284683Y-104803649D01*
X131271054Y-104798772D01*
X131257969Y-104792583D01*
X131245553Y-104785142D01*
X131233927Y-104776519D01*
X131223202Y-104766798D01*
X131213481Y-104756073D01*
X131204858Y-104744447D01*
X131197417Y-104732031D01*
X131191228Y-104718946D01*
X131186351Y-104705317D01*
X131182834Y-104691276D01*
X131180710Y-104676958D01*
X131180000Y-104662500D01*
X131180000Y-104367500D01*
X131180710Y-104353042D01*
X131182834Y-104338724D01*
X131186351Y-104324683D01*
X131191228Y-104311054D01*
X131197417Y-104297969D01*
X131204858Y-104285553D01*
X131213481Y-104273927D01*
X131223202Y-104263202D01*
X131233927Y-104253481D01*
X131245553Y-104244858D01*
X131257969Y-104237417D01*
X131271054Y-104231228D01*
X131284683Y-104226351D01*
X131298724Y-104222834D01*
X131313042Y-104220710D01*
X131327500Y-104220000D01*
X131672500Y-104220000D01*
X131686958Y-104220710D01*
G37*
G36*
X129186958Y-109690710D02*
G01*
X129201276Y-109692834D01*
X129215317Y-109696351D01*
X129228946Y-109701228D01*
X129242031Y-109707417D01*
X129254447Y-109714858D01*
X129266073Y-109723481D01*
X129276798Y-109733202D01*
X129286519Y-109743927D01*
X129295142Y-109755553D01*
X129302583Y-109767969D01*
X129308772Y-109781054D01*
X129313649Y-109794683D01*
X129317166Y-109808724D01*
X129319290Y-109823042D01*
X129320000Y-109837500D01*
X129320000Y-110132500D01*
X129319290Y-110146958D01*
X129317166Y-110161276D01*
X129313649Y-110175317D01*
X129308772Y-110188946D01*
X129302583Y-110202031D01*
X129295142Y-110214447D01*
X129286519Y-110226073D01*
X129276798Y-110236798D01*
X129266073Y-110246519D01*
X129254447Y-110255142D01*
X129242031Y-110262583D01*
X129228946Y-110268772D01*
X129215317Y-110273649D01*
X129201276Y-110277166D01*
X129186958Y-110279290D01*
X129172500Y-110280000D01*
X128827500Y-110280000D01*
X128813042Y-110279290D01*
X128798724Y-110277166D01*
X128784683Y-110273649D01*
X128771054Y-110268772D01*
X128757969Y-110262583D01*
X128745553Y-110255142D01*
X128733927Y-110246519D01*
X128723202Y-110236798D01*
X128713481Y-110226073D01*
X128704858Y-110214447D01*
X128697417Y-110202031D01*
X128691228Y-110188946D01*
X128686351Y-110175317D01*
X128682834Y-110161276D01*
X128680710Y-110146958D01*
X128680000Y-110132500D01*
X128680000Y-109837500D01*
X128680710Y-109823042D01*
X128682834Y-109808724D01*
X128686351Y-109794683D01*
X128691228Y-109781054D01*
X128697417Y-109767969D01*
X128704858Y-109755553D01*
X128713481Y-109743927D01*
X128723202Y-109733202D01*
X128733927Y-109723481D01*
X128745553Y-109714858D01*
X128757969Y-109707417D01*
X128771054Y-109701228D01*
X128784683Y-109696351D01*
X128798724Y-109692834D01*
X128813042Y-109690710D01*
X128827500Y-109690000D01*
X129172500Y-109690000D01*
X129186958Y-109690710D01*
G37*
G36*
X129186958Y-108720710D02*
G01*
X129201276Y-108722834D01*
X129215317Y-108726351D01*
X129228946Y-108731228D01*
X129242031Y-108737417D01*
X129254447Y-108744858D01*
X129266073Y-108753481D01*
X129276798Y-108763202D01*
X129286519Y-108773927D01*
X129295142Y-108785553D01*
X129302583Y-108797969D01*
X129308772Y-108811054D01*
X129313649Y-108824683D01*
X129317166Y-108838724D01*
X129319290Y-108853042D01*
X129320000Y-108867500D01*
X129320000Y-109162500D01*
X129319290Y-109176958D01*
X129317166Y-109191276D01*
X129313649Y-109205317D01*
X129308772Y-109218946D01*
X129302583Y-109232031D01*
X129295142Y-109244447D01*
X129286519Y-109256073D01*
X129276798Y-109266798D01*
X129266073Y-109276519D01*
X129254447Y-109285142D01*
X129242031Y-109292583D01*
X129228946Y-109298772D01*
X129215317Y-109303649D01*
X129201276Y-109307166D01*
X129186958Y-109309290D01*
X129172500Y-109310000D01*
X128827500Y-109310000D01*
X128813042Y-109309290D01*
X128798724Y-109307166D01*
X128784683Y-109303649D01*
X128771054Y-109298772D01*
X128757969Y-109292583D01*
X128745553Y-109285142D01*
X128733927Y-109276519D01*
X128723202Y-109266798D01*
X128713481Y-109256073D01*
X128704858Y-109244447D01*
X128697417Y-109232031D01*
X128691228Y-109218946D01*
X128686351Y-109205317D01*
X128682834Y-109191276D01*
X128680710Y-109176958D01*
X128680000Y-109162500D01*
X128680000Y-108867500D01*
X128680710Y-108853042D01*
X128682834Y-108838724D01*
X128686351Y-108824683D01*
X128691228Y-108811054D01*
X128697417Y-108797969D01*
X128704858Y-108785553D01*
X128713481Y-108773927D01*
X128723202Y-108763202D01*
X128733927Y-108753481D01*
X128745553Y-108744858D01*
X128757969Y-108737417D01*
X128771054Y-108731228D01*
X128784683Y-108726351D01*
X128798724Y-108722834D01*
X128813042Y-108720710D01*
X128827500Y-108720000D01*
X129172500Y-108720000D01*
X129186958Y-108720710D01*
G37*
G36*
X136186958Y-105190710D02*
G01*
X136201276Y-105192834D01*
X136215317Y-105196351D01*
X136228946Y-105201228D01*
X136242031Y-105207417D01*
X136254447Y-105214858D01*
X136266073Y-105223481D01*
X136276798Y-105233202D01*
X136286519Y-105243927D01*
X136295142Y-105255553D01*
X136302583Y-105267969D01*
X136308772Y-105281054D01*
X136313649Y-105294683D01*
X136317166Y-105308724D01*
X136319290Y-105323042D01*
X136320000Y-105337500D01*
X136320000Y-105632500D01*
X136319290Y-105646958D01*
X136317166Y-105661276D01*
X136313649Y-105675317D01*
X136308772Y-105688946D01*
X136302583Y-105702031D01*
X136295142Y-105714447D01*
X136286519Y-105726073D01*
X136276798Y-105736798D01*
X136266073Y-105746519D01*
X136254447Y-105755142D01*
X136242031Y-105762583D01*
X136228946Y-105768772D01*
X136215317Y-105773649D01*
X136201276Y-105777166D01*
X136186958Y-105779290D01*
X136172500Y-105780000D01*
X135827500Y-105780000D01*
X135813042Y-105779290D01*
X135798724Y-105777166D01*
X135784683Y-105773649D01*
X135771054Y-105768772D01*
X135757969Y-105762583D01*
X135745553Y-105755142D01*
X135733927Y-105746519D01*
X135723202Y-105736798D01*
X135713481Y-105726073D01*
X135704858Y-105714447D01*
X135697417Y-105702031D01*
X135691228Y-105688946D01*
X135686351Y-105675317D01*
X135682834Y-105661276D01*
X135680710Y-105646958D01*
X135680000Y-105632500D01*
X135680000Y-105337500D01*
X135680710Y-105323042D01*
X135682834Y-105308724D01*
X135686351Y-105294683D01*
X135691228Y-105281054D01*
X135697417Y-105267969D01*
X135704858Y-105255553D01*
X135713481Y-105243927D01*
X135723202Y-105233202D01*
X135733927Y-105223481D01*
X135745553Y-105214858D01*
X135757969Y-105207417D01*
X135771054Y-105201228D01*
X135784683Y-105196351D01*
X135798724Y-105192834D01*
X135813042Y-105190710D01*
X135827500Y-105190000D01*
X136172500Y-105190000D01*
X136186958Y-105190710D01*
G37*
G36*
X136186958Y-104220710D02*
G01*
X136201276Y-104222834D01*
X136215317Y-104226351D01*
X136228946Y-104231228D01*
X136242031Y-104237417D01*
X136254447Y-104244858D01*
X136266073Y-104253481D01*
X136276798Y-104263202D01*
X136286519Y-104273927D01*
X136295142Y-104285553D01*
X136302583Y-104297969D01*
X136308772Y-104311054D01*
X136313649Y-104324683D01*
X136317166Y-104338724D01*
X136319290Y-104353042D01*
X136320000Y-104367500D01*
X136320000Y-104662500D01*
X136319290Y-104676958D01*
X136317166Y-104691276D01*
X136313649Y-104705317D01*
X136308772Y-104718946D01*
X136302583Y-104732031D01*
X136295142Y-104744447D01*
X136286519Y-104756073D01*
X136276798Y-104766798D01*
X136266073Y-104776519D01*
X136254447Y-104785142D01*
X136242031Y-104792583D01*
X136228946Y-104798772D01*
X136215317Y-104803649D01*
X136201276Y-104807166D01*
X136186958Y-104809290D01*
X136172500Y-104810000D01*
X135827500Y-104810000D01*
X135813042Y-104809290D01*
X135798724Y-104807166D01*
X135784683Y-104803649D01*
X135771054Y-104798772D01*
X135757969Y-104792583D01*
X135745553Y-104785142D01*
X135733927Y-104776519D01*
X135723202Y-104766798D01*
X135713481Y-104756073D01*
X135704858Y-104744447D01*
X135697417Y-104732031D01*
X135691228Y-104718946D01*
X135686351Y-104705317D01*
X135682834Y-104691276D01*
X135680710Y-104676958D01*
X135680000Y-104662500D01*
X135680000Y-104367500D01*
X135680710Y-104353042D01*
X135682834Y-104338724D01*
X135686351Y-104324683D01*
X135691228Y-104311054D01*
X135697417Y-104297969D01*
X135704858Y-104285553D01*
X135713481Y-104273927D01*
X135723202Y-104263202D01*
X135733927Y-104253481D01*
X135745553Y-104244858D01*
X135757969Y-104237417D01*
X135771054Y-104231228D01*
X135784683Y-104226351D01*
X135798724Y-104222834D01*
X135813042Y-104220710D01*
X135827500Y-104220000D01*
X136172500Y-104220000D01*
X136186958Y-104220710D01*
G37*
G36*
X132686958Y-114220710D02*
G01*
X132701276Y-114222834D01*
X132715317Y-114226351D01*
X132728946Y-114231228D01*
X132742031Y-114237417D01*
X132754447Y-114244858D01*
X132766073Y-114253481D01*
X132776798Y-114263202D01*
X132786519Y-114273927D01*
X132795142Y-114285553D01*
X132802583Y-114297969D01*
X132808772Y-114311054D01*
X132813649Y-114324683D01*
X132817166Y-114338724D01*
X132819290Y-114353042D01*
X132820000Y-114367500D01*
X132820000Y-114662500D01*
X132819290Y-114676958D01*
X132817166Y-114691276D01*
X132813649Y-114705317D01*
X132808772Y-114718946D01*
X132802583Y-114732031D01*
X132795142Y-114744447D01*
X132786519Y-114756073D01*
X132776798Y-114766798D01*
X132766073Y-114776519D01*
X132754447Y-114785142D01*
X132742031Y-114792583D01*
X132728946Y-114798772D01*
X132715317Y-114803649D01*
X132701276Y-114807166D01*
X132686958Y-114809290D01*
X132672500Y-114810000D01*
X132327500Y-114810000D01*
X132313042Y-114809290D01*
X132298724Y-114807166D01*
X132284683Y-114803649D01*
X132271054Y-114798772D01*
X132257969Y-114792583D01*
X132245553Y-114785142D01*
X132233927Y-114776519D01*
X132223202Y-114766798D01*
X132213481Y-114756073D01*
X132204858Y-114744447D01*
X132197417Y-114732031D01*
X132191228Y-114718946D01*
X132186351Y-114705317D01*
X132182834Y-114691276D01*
X132180710Y-114676958D01*
X132180000Y-114662500D01*
X132180000Y-114367500D01*
X132180710Y-114353042D01*
X132182834Y-114338724D01*
X132186351Y-114324683D01*
X132191228Y-114311054D01*
X132197417Y-114297969D01*
X132204858Y-114285553D01*
X132213481Y-114273927D01*
X132223202Y-114263202D01*
X132233927Y-114253481D01*
X132245553Y-114244858D01*
X132257969Y-114237417D01*
X132271054Y-114231228D01*
X132284683Y-114226351D01*
X132298724Y-114222834D01*
X132313042Y-114220710D01*
X132327500Y-114220000D01*
X132672500Y-114220000D01*
X132686958Y-114220710D01*
G37*
G36*
X132686958Y-115190710D02*
G01*
X132701276Y-115192834D01*
X132715317Y-115196351D01*
X132728946Y-115201228D01*
X132742031Y-115207417D01*
X132754447Y-115214858D01*
X132766073Y-115223481D01*
X132776798Y-115233202D01*
X132786519Y-115243927D01*
X132795142Y-115255553D01*
X132802583Y-115267969D01*
X132808772Y-115281054D01*
X132813649Y-115294683D01*
X132817166Y-115308724D01*
X132819290Y-115323042D01*
X132820000Y-115337500D01*
X132820000Y-115632500D01*
X132819290Y-115646958D01*
X132817166Y-115661276D01*
X132813649Y-115675317D01*
X132808772Y-115688946D01*
X132802583Y-115702031D01*
X132795142Y-115714447D01*
X132786519Y-115726073D01*
X132776798Y-115736798D01*
X132766073Y-115746519D01*
X132754447Y-115755142D01*
X132742031Y-115762583D01*
X132728946Y-115768772D01*
X132715317Y-115773649D01*
X132701276Y-115777166D01*
X132686958Y-115779290D01*
X132672500Y-115780000D01*
X132327500Y-115780000D01*
X132313042Y-115779290D01*
X132298724Y-115777166D01*
X132284683Y-115773649D01*
X132271054Y-115768772D01*
X132257969Y-115762583D01*
X132245553Y-115755142D01*
X132233927Y-115746519D01*
X132223202Y-115736798D01*
X132213481Y-115726073D01*
X132204858Y-115714447D01*
X132197417Y-115702031D01*
X132191228Y-115688946D01*
X132186351Y-115675317D01*
X132182834Y-115661276D01*
X132180710Y-115646958D01*
X132180000Y-115632500D01*
X132180000Y-115337500D01*
X132180710Y-115323042D01*
X132182834Y-115308724D01*
X132186351Y-115294683D01*
X132191228Y-115281054D01*
X132197417Y-115267969D01*
X132204858Y-115255553D01*
X132213481Y-115243927D01*
X132223202Y-115233202D01*
X132233927Y-115223481D01*
X132245553Y-115214858D01*
X132257969Y-115207417D01*
X132271054Y-115201228D01*
X132284683Y-115196351D01*
X132298724Y-115192834D01*
X132313042Y-115190710D01*
X132327500Y-115190000D01*
X132672500Y-115190000D01*
X132686958Y-115190710D01*
G37*
G36*
X154686958Y-99190710D02*
G01*
X154701276Y-99192834D01*
X154715317Y-99196351D01*
X154728946Y-99201228D01*
X154742031Y-99207417D01*
X154754447Y-99214858D01*
X154766073Y-99223481D01*
X154776798Y-99233202D01*
X154786519Y-99243927D01*
X154795142Y-99255553D01*
X154802583Y-99267969D01*
X154808772Y-99281054D01*
X154813649Y-99294683D01*
X154817166Y-99308724D01*
X154819290Y-99323042D01*
X154820000Y-99337500D01*
X154820000Y-99632500D01*
X154819290Y-99646958D01*
X154817166Y-99661276D01*
X154813649Y-99675317D01*
X154808772Y-99688946D01*
X154802583Y-99702031D01*
X154795142Y-99714447D01*
X154786519Y-99726073D01*
X154776798Y-99736798D01*
X154766073Y-99746519D01*
X154754447Y-99755142D01*
X154742031Y-99762583D01*
X154728946Y-99768772D01*
X154715317Y-99773649D01*
X154701276Y-99777166D01*
X154686958Y-99779290D01*
X154672500Y-99780000D01*
X154327500Y-99780000D01*
X154313042Y-99779290D01*
X154298724Y-99777166D01*
X154284683Y-99773649D01*
X154271054Y-99768772D01*
X154257969Y-99762583D01*
X154245553Y-99755142D01*
X154233927Y-99746519D01*
X154223202Y-99736798D01*
X154213481Y-99726073D01*
X154204858Y-99714447D01*
X154197417Y-99702031D01*
X154191228Y-99688946D01*
X154186351Y-99675317D01*
X154182834Y-99661276D01*
X154180710Y-99646958D01*
X154180000Y-99632500D01*
X154180000Y-99337500D01*
X154180710Y-99323042D01*
X154182834Y-99308724D01*
X154186351Y-99294683D01*
X154191228Y-99281054D01*
X154197417Y-99267969D01*
X154204858Y-99255553D01*
X154213481Y-99243927D01*
X154223202Y-99233202D01*
X154233927Y-99223481D01*
X154245553Y-99214858D01*
X154257969Y-99207417D01*
X154271054Y-99201228D01*
X154284683Y-99196351D01*
X154298724Y-99192834D01*
X154313042Y-99190710D01*
X154327500Y-99190000D01*
X154672500Y-99190000D01*
X154686958Y-99190710D01*
G37*
G36*
X154686958Y-98220710D02*
G01*
X154701276Y-98222834D01*
X154715317Y-98226351D01*
X154728946Y-98231228D01*
X154742031Y-98237417D01*
X154754447Y-98244858D01*
X154766073Y-98253481D01*
X154776798Y-98263202D01*
X154786519Y-98273927D01*
X154795142Y-98285553D01*
X154802583Y-98297969D01*
X154808772Y-98311054D01*
X154813649Y-98324683D01*
X154817166Y-98338724D01*
X154819290Y-98353042D01*
X154820000Y-98367500D01*
X154820000Y-98662500D01*
X154819290Y-98676958D01*
X154817166Y-98691276D01*
X154813649Y-98705317D01*
X154808772Y-98718946D01*
X154802583Y-98732031D01*
X154795142Y-98744447D01*
X154786519Y-98756073D01*
X154776798Y-98766798D01*
X154766073Y-98776519D01*
X154754447Y-98785142D01*
X154742031Y-98792583D01*
X154728946Y-98798772D01*
X154715317Y-98803649D01*
X154701276Y-98807166D01*
X154686958Y-98809290D01*
X154672500Y-98810000D01*
X154327500Y-98810000D01*
X154313042Y-98809290D01*
X154298724Y-98807166D01*
X154284683Y-98803649D01*
X154271054Y-98798772D01*
X154257969Y-98792583D01*
X154245553Y-98785142D01*
X154233927Y-98776519D01*
X154223202Y-98766798D01*
X154213481Y-98756073D01*
X154204858Y-98744447D01*
X154197417Y-98732031D01*
X154191228Y-98718946D01*
X154186351Y-98705317D01*
X154182834Y-98691276D01*
X154180710Y-98676958D01*
X154180000Y-98662500D01*
X154180000Y-98367500D01*
X154180710Y-98353042D01*
X154182834Y-98338724D01*
X154186351Y-98324683D01*
X154191228Y-98311054D01*
X154197417Y-98297969D01*
X154204858Y-98285553D01*
X154213481Y-98273927D01*
X154223202Y-98263202D01*
X154233927Y-98253481D01*
X154245553Y-98244858D01*
X154257969Y-98237417D01*
X154271054Y-98231228D01*
X154284683Y-98226351D01*
X154298724Y-98222834D01*
X154313042Y-98220710D01*
X154327500Y-98220000D01*
X154672500Y-98220000D01*
X154686958Y-98220710D01*
G37*
G36*
X123086958Y-100120710D02*
G01*
X123101276Y-100122834D01*
X123115317Y-100126351D01*
X123128946Y-100131228D01*
X123142031Y-100137417D01*
X123154447Y-100144858D01*
X123166073Y-100153481D01*
X123176798Y-100163202D01*
X123186519Y-100173927D01*
X123195142Y-100185553D01*
X123202583Y-100197969D01*
X123208772Y-100211054D01*
X123213649Y-100224683D01*
X123217166Y-100238724D01*
X123219290Y-100253042D01*
X123220000Y-100267500D01*
X123220000Y-100562500D01*
X123219290Y-100576958D01*
X123217166Y-100591276D01*
X123213649Y-100605317D01*
X123208772Y-100618946D01*
X123202583Y-100632031D01*
X123195142Y-100644447D01*
X123186519Y-100656073D01*
X123176798Y-100666798D01*
X123166073Y-100676519D01*
X123154447Y-100685142D01*
X123142031Y-100692583D01*
X123128946Y-100698772D01*
X123115317Y-100703649D01*
X123101276Y-100707166D01*
X123086958Y-100709290D01*
X123072500Y-100710000D01*
X122727500Y-100710000D01*
X122713042Y-100709290D01*
X122698724Y-100707166D01*
X122684683Y-100703649D01*
X122671054Y-100698772D01*
X122657969Y-100692583D01*
X122645553Y-100685142D01*
X122633927Y-100676519D01*
X122623202Y-100666798D01*
X122613481Y-100656073D01*
X122604858Y-100644447D01*
X122597417Y-100632031D01*
X122591228Y-100618946D01*
X122586351Y-100605317D01*
X122582834Y-100591276D01*
X122580710Y-100576958D01*
X122580000Y-100562500D01*
X122580000Y-100267500D01*
X122580710Y-100253042D01*
X122582834Y-100238724D01*
X122586351Y-100224683D01*
X122591228Y-100211054D01*
X122597417Y-100197969D01*
X122604858Y-100185553D01*
X122613481Y-100173927D01*
X122623202Y-100163202D01*
X122633927Y-100153481D01*
X122645553Y-100144858D01*
X122657969Y-100137417D01*
X122671054Y-100131228D01*
X122684683Y-100126351D01*
X122698724Y-100122834D01*
X122713042Y-100120710D01*
X122727500Y-100120000D01*
X123072500Y-100120000D01*
X123086958Y-100120710D01*
G37*
G36*
X123086958Y-101090710D02*
G01*
X123101276Y-101092834D01*
X123115317Y-101096351D01*
X123128946Y-101101228D01*
X123142031Y-101107417D01*
X123154447Y-101114858D01*
X123166073Y-101123481D01*
X123176798Y-101133202D01*
X123186519Y-101143927D01*
X123195142Y-101155553D01*
X123202583Y-101167969D01*
X123208772Y-101181054D01*
X123213649Y-101194683D01*
X123217166Y-101208724D01*
X123219290Y-101223042D01*
X123220000Y-101237500D01*
X123220000Y-101532500D01*
X123219290Y-101546958D01*
X123217166Y-101561276D01*
X123213649Y-101575317D01*
X123208772Y-101588946D01*
X123202583Y-101602031D01*
X123195142Y-101614447D01*
X123186519Y-101626073D01*
X123176798Y-101636798D01*
X123166073Y-101646519D01*
X123154447Y-101655142D01*
X123142031Y-101662583D01*
X123128946Y-101668772D01*
X123115317Y-101673649D01*
X123101276Y-101677166D01*
X123086958Y-101679290D01*
X123072500Y-101680000D01*
X122727500Y-101680000D01*
X122713042Y-101679290D01*
X122698724Y-101677166D01*
X122684683Y-101673649D01*
X122671054Y-101668772D01*
X122657969Y-101662583D01*
X122645553Y-101655142D01*
X122633927Y-101646519D01*
X122623202Y-101636798D01*
X122613481Y-101626073D01*
X122604858Y-101614447D01*
X122597417Y-101602031D01*
X122591228Y-101588946D01*
X122586351Y-101575317D01*
X122582834Y-101561276D01*
X122580710Y-101546958D01*
X122580000Y-101532500D01*
X122580000Y-101237500D01*
X122580710Y-101223042D01*
X122582834Y-101208724D01*
X122586351Y-101194683D01*
X122591228Y-101181054D01*
X122597417Y-101167969D01*
X122604858Y-101155553D01*
X122613481Y-101143927D01*
X122623202Y-101133202D01*
X122633927Y-101123481D01*
X122645553Y-101114858D01*
X122657969Y-101107417D01*
X122671054Y-101101228D01*
X122684683Y-101096351D01*
X122698724Y-101092834D01*
X122713042Y-101090710D01*
X122727500Y-101090000D01*
X123072500Y-101090000D01*
X123086958Y-101090710D01*
G37*
G36*
X135426958Y-98830710D02*
G01*
X135441276Y-98832834D01*
X135455317Y-98836351D01*
X135468946Y-98841228D01*
X135482031Y-98847417D01*
X135494447Y-98854858D01*
X135506073Y-98863481D01*
X135516798Y-98873202D01*
X135526519Y-98883927D01*
X135535142Y-98895553D01*
X135542583Y-98907969D01*
X135548772Y-98921054D01*
X135553649Y-98934683D01*
X135557166Y-98948724D01*
X135559290Y-98963042D01*
X135560000Y-98977500D01*
X135560000Y-99322500D01*
X135559290Y-99336958D01*
X135557166Y-99351276D01*
X135553649Y-99365317D01*
X135548772Y-99378946D01*
X135542583Y-99392031D01*
X135535142Y-99404447D01*
X135526519Y-99416073D01*
X135516798Y-99426798D01*
X135506073Y-99436519D01*
X135494447Y-99445142D01*
X135482031Y-99452583D01*
X135468946Y-99458772D01*
X135455317Y-99463649D01*
X135441276Y-99467166D01*
X135426958Y-99469290D01*
X135412500Y-99470000D01*
X135117500Y-99470000D01*
X135103042Y-99469290D01*
X135088724Y-99467166D01*
X135074683Y-99463649D01*
X135061054Y-99458772D01*
X135047969Y-99452583D01*
X135035553Y-99445142D01*
X135023927Y-99436519D01*
X135013202Y-99426798D01*
X135003481Y-99416073D01*
X134994858Y-99404447D01*
X134987417Y-99392031D01*
X134981228Y-99378946D01*
X134976351Y-99365317D01*
X134972834Y-99351276D01*
X134970710Y-99336958D01*
X134970000Y-99322500D01*
X134970000Y-98977500D01*
X134970710Y-98963042D01*
X134972834Y-98948724D01*
X134976351Y-98934683D01*
X134981228Y-98921054D01*
X134987417Y-98907969D01*
X134994858Y-98895553D01*
X135003481Y-98883927D01*
X135013202Y-98873202D01*
X135023927Y-98863481D01*
X135035553Y-98854858D01*
X135047969Y-98847417D01*
X135061054Y-98841228D01*
X135074683Y-98836351D01*
X135088724Y-98832834D01*
X135103042Y-98830710D01*
X135117500Y-98830000D01*
X135412500Y-98830000D01*
X135426958Y-98830710D01*
G37*
G36*
X136396958Y-98830710D02*
G01*
X136411276Y-98832834D01*
X136425317Y-98836351D01*
X136438946Y-98841228D01*
X136452031Y-98847417D01*
X136464447Y-98854858D01*
X136476073Y-98863481D01*
X136486798Y-98873202D01*
X136496519Y-98883927D01*
X136505142Y-98895553D01*
X136512583Y-98907969D01*
X136518772Y-98921054D01*
X136523649Y-98934683D01*
X136527166Y-98948724D01*
X136529290Y-98963042D01*
X136530000Y-98977500D01*
X136530000Y-99322500D01*
X136529290Y-99336958D01*
X136527166Y-99351276D01*
X136523649Y-99365317D01*
X136518772Y-99378946D01*
X136512583Y-99392031D01*
X136505142Y-99404447D01*
X136496519Y-99416073D01*
X136486798Y-99426798D01*
X136476073Y-99436519D01*
X136464447Y-99445142D01*
X136452031Y-99452583D01*
X136438946Y-99458772D01*
X136425317Y-99463649D01*
X136411276Y-99467166D01*
X136396958Y-99469290D01*
X136382500Y-99470000D01*
X136087500Y-99470000D01*
X136073042Y-99469290D01*
X136058724Y-99467166D01*
X136044683Y-99463649D01*
X136031054Y-99458772D01*
X136017969Y-99452583D01*
X136005553Y-99445142D01*
X135993927Y-99436519D01*
X135983202Y-99426798D01*
X135973481Y-99416073D01*
X135964858Y-99404447D01*
X135957417Y-99392031D01*
X135951228Y-99378946D01*
X135946351Y-99365317D01*
X135942834Y-99351276D01*
X135940710Y-99336958D01*
X135940000Y-99322500D01*
X135940000Y-98977500D01*
X135940710Y-98963042D01*
X135942834Y-98948724D01*
X135946351Y-98934683D01*
X135951228Y-98921054D01*
X135957417Y-98907969D01*
X135964858Y-98895553D01*
X135973481Y-98883927D01*
X135983202Y-98873202D01*
X135993927Y-98863481D01*
X136005553Y-98854858D01*
X136017969Y-98847417D01*
X136031054Y-98841228D01*
X136044683Y-98836351D01*
X136058724Y-98832834D01*
X136073042Y-98830710D01*
X136087500Y-98830000D01*
X136382500Y-98830000D01*
X136396958Y-98830710D01*
G37*
G36*
X132926958Y-98830710D02*
G01*
X132941276Y-98832834D01*
X132955317Y-98836351D01*
X132968946Y-98841228D01*
X132982031Y-98847417D01*
X132994447Y-98854858D01*
X133006073Y-98863481D01*
X133016798Y-98873202D01*
X133026519Y-98883927D01*
X133035142Y-98895553D01*
X133042583Y-98907969D01*
X133048772Y-98921054D01*
X133053649Y-98934683D01*
X133057166Y-98948724D01*
X133059290Y-98963042D01*
X133060000Y-98977500D01*
X133060000Y-99322500D01*
X133059290Y-99336958D01*
X133057166Y-99351276D01*
X133053649Y-99365317D01*
X133048772Y-99378946D01*
X133042583Y-99392031D01*
X133035142Y-99404447D01*
X133026519Y-99416073D01*
X133016798Y-99426798D01*
X133006073Y-99436519D01*
X132994447Y-99445142D01*
X132982031Y-99452583D01*
X132968946Y-99458772D01*
X132955317Y-99463649D01*
X132941276Y-99467166D01*
X132926958Y-99469290D01*
X132912500Y-99470000D01*
X132617500Y-99470000D01*
X132603042Y-99469290D01*
X132588724Y-99467166D01*
X132574683Y-99463649D01*
X132561054Y-99458772D01*
X132547969Y-99452583D01*
X132535553Y-99445142D01*
X132523927Y-99436519D01*
X132513202Y-99426798D01*
X132503481Y-99416073D01*
X132494858Y-99404447D01*
X132487417Y-99392031D01*
X132481228Y-99378946D01*
X132476351Y-99365317D01*
X132472834Y-99351276D01*
X132470710Y-99336958D01*
X132470000Y-99322500D01*
X132470000Y-98977500D01*
X132470710Y-98963042D01*
X132472834Y-98948724D01*
X132476351Y-98934683D01*
X132481228Y-98921054D01*
X132487417Y-98907969D01*
X132494858Y-98895553D01*
X132503481Y-98883927D01*
X132513202Y-98873202D01*
X132523927Y-98863481D01*
X132535553Y-98854858D01*
X132547969Y-98847417D01*
X132561054Y-98841228D01*
X132574683Y-98836351D01*
X132588724Y-98832834D01*
X132603042Y-98830710D01*
X132617500Y-98830000D01*
X132912500Y-98830000D01*
X132926958Y-98830710D01*
G37*
G36*
X133896958Y-98830710D02*
G01*
X133911276Y-98832834D01*
X133925317Y-98836351D01*
X133938946Y-98841228D01*
X133952031Y-98847417D01*
X133964447Y-98854858D01*
X133976073Y-98863481D01*
X133986798Y-98873202D01*
X133996519Y-98883927D01*
X134005142Y-98895553D01*
X134012583Y-98907969D01*
X134018772Y-98921054D01*
X134023649Y-98934683D01*
X134027166Y-98948724D01*
X134029290Y-98963042D01*
X134030000Y-98977500D01*
X134030000Y-99322500D01*
X134029290Y-99336958D01*
X134027166Y-99351276D01*
X134023649Y-99365317D01*
X134018772Y-99378946D01*
X134012583Y-99392031D01*
X134005142Y-99404447D01*
X133996519Y-99416073D01*
X133986798Y-99426798D01*
X133976073Y-99436519D01*
X133964447Y-99445142D01*
X133952031Y-99452583D01*
X133938946Y-99458772D01*
X133925317Y-99463649D01*
X133911276Y-99467166D01*
X133896958Y-99469290D01*
X133882500Y-99470000D01*
X133587500Y-99470000D01*
X133573042Y-99469290D01*
X133558724Y-99467166D01*
X133544683Y-99463649D01*
X133531054Y-99458772D01*
X133517969Y-99452583D01*
X133505553Y-99445142D01*
X133493927Y-99436519D01*
X133483202Y-99426798D01*
X133473481Y-99416073D01*
X133464858Y-99404447D01*
X133457417Y-99392031D01*
X133451228Y-99378946D01*
X133446351Y-99365317D01*
X133442834Y-99351276D01*
X133440710Y-99336958D01*
X133440000Y-99322500D01*
X133440000Y-98977500D01*
X133440710Y-98963042D01*
X133442834Y-98948724D01*
X133446351Y-98934683D01*
X133451228Y-98921054D01*
X133457417Y-98907969D01*
X133464858Y-98895553D01*
X133473481Y-98883927D01*
X133483202Y-98873202D01*
X133493927Y-98863481D01*
X133505553Y-98854858D01*
X133517969Y-98847417D01*
X133531054Y-98841228D01*
X133544683Y-98836351D01*
X133558724Y-98832834D01*
X133573042Y-98830710D01*
X133587500Y-98830000D01*
X133882500Y-98830000D01*
X133896958Y-98830710D01*
G37*
D12*
X135175000Y-101400000D03*
X133825000Y-101400000D03*
X135175000Y-100400000D03*
X133825000Y-100400000D03*
D11*
G36*
X132568626Y-106650301D02*
G01*
X132574693Y-106651201D01*
X132580643Y-106652691D01*
X132586418Y-106654758D01*
X132591962Y-106657380D01*
X132597223Y-106660533D01*
X132602150Y-106664187D01*
X132606694Y-106668306D01*
X132610813Y-106672850D01*
X132614467Y-106677777D01*
X132617620Y-106683038D01*
X132620242Y-106688582D01*
X132622309Y-106694357D01*
X132623799Y-106700307D01*
X132624699Y-106706374D01*
X132625000Y-106712500D01*
X132625000Y-107412500D01*
X132624699Y-107418626D01*
X132623799Y-107424693D01*
X132622309Y-107430643D01*
X132620242Y-107436418D01*
X132617620Y-107441962D01*
X132614467Y-107447223D01*
X132610813Y-107452150D01*
X132606694Y-107456694D01*
X132602150Y-107460813D01*
X132597223Y-107464467D01*
X132591962Y-107467620D01*
X132586418Y-107470242D01*
X132580643Y-107472309D01*
X132574693Y-107473799D01*
X132568626Y-107474699D01*
X132562500Y-107475000D01*
X132437500Y-107475000D01*
X132431374Y-107474699D01*
X132425307Y-107473799D01*
X132419357Y-107472309D01*
X132413582Y-107470242D01*
X132408038Y-107467620D01*
X132402777Y-107464467D01*
X132397850Y-107460813D01*
X132393306Y-107456694D01*
X132389187Y-107452150D01*
X132385533Y-107447223D01*
X132382380Y-107441962D01*
X132379758Y-107436418D01*
X132377691Y-107430643D01*
X132376201Y-107424693D01*
X132375301Y-107418626D01*
X132375000Y-107412500D01*
X132375000Y-106712500D01*
X132375301Y-106706374D01*
X132376201Y-106700307D01*
X132377691Y-106694357D01*
X132379758Y-106688582D01*
X132382380Y-106683038D01*
X132385533Y-106677777D01*
X132389187Y-106672850D01*
X132393306Y-106668306D01*
X132397850Y-106664187D01*
X132402777Y-106660533D01*
X132408038Y-106657380D01*
X132413582Y-106654758D01*
X132419357Y-106652691D01*
X132425307Y-106651201D01*
X132431374Y-106650301D01*
X132437500Y-106650000D01*
X132562500Y-106650000D01*
X132568626Y-106650301D01*
G37*
G36*
X133068626Y-106650301D02*
G01*
X133074693Y-106651201D01*
X133080643Y-106652691D01*
X133086418Y-106654758D01*
X133091962Y-106657380D01*
X133097223Y-106660533D01*
X133102150Y-106664187D01*
X133106694Y-106668306D01*
X133110813Y-106672850D01*
X133114467Y-106677777D01*
X133117620Y-106683038D01*
X133120242Y-106688582D01*
X133122309Y-106694357D01*
X133123799Y-106700307D01*
X133124699Y-106706374D01*
X133125000Y-106712500D01*
X133125000Y-107412500D01*
X133124699Y-107418626D01*
X133123799Y-107424693D01*
X133122309Y-107430643D01*
X133120242Y-107436418D01*
X133117620Y-107441962D01*
X133114467Y-107447223D01*
X133110813Y-107452150D01*
X133106694Y-107456694D01*
X133102150Y-107460813D01*
X133097223Y-107464467D01*
X133091962Y-107467620D01*
X133086418Y-107470242D01*
X133080643Y-107472309D01*
X133074693Y-107473799D01*
X133068626Y-107474699D01*
X133062500Y-107475000D01*
X132937500Y-107475000D01*
X132931374Y-107474699D01*
X132925307Y-107473799D01*
X132919357Y-107472309D01*
X132913582Y-107470242D01*
X132908038Y-107467620D01*
X132902777Y-107464467D01*
X132897850Y-107460813D01*
X132893306Y-107456694D01*
X132889187Y-107452150D01*
X132885533Y-107447223D01*
X132882380Y-107441962D01*
X132879758Y-107436418D01*
X132877691Y-107430643D01*
X132876201Y-107424693D01*
X132875301Y-107418626D01*
X132875000Y-107412500D01*
X132875000Y-106712500D01*
X132875301Y-106706374D01*
X132876201Y-106700307D01*
X132877691Y-106694357D01*
X132879758Y-106688582D01*
X132882380Y-106683038D01*
X132885533Y-106677777D01*
X132889187Y-106672850D01*
X132893306Y-106668306D01*
X132897850Y-106664187D01*
X132902777Y-106660533D01*
X132908038Y-106657380D01*
X132913582Y-106654758D01*
X132919357Y-106652691D01*
X132925307Y-106651201D01*
X132931374Y-106650301D01*
X132937500Y-106650000D01*
X133062500Y-106650000D01*
X133068626Y-106650301D01*
G37*
G36*
X133568626Y-106650301D02*
G01*
X133574693Y-106651201D01*
X133580643Y-106652691D01*
X133586418Y-106654758D01*
X133591962Y-106657380D01*
X133597223Y-106660533D01*
X133602150Y-106664187D01*
X133606694Y-106668306D01*
X133610813Y-106672850D01*
X133614467Y-106677777D01*
X133617620Y-106683038D01*
X133620242Y-106688582D01*
X133622309Y-106694357D01*
X133623799Y-106700307D01*
X133624699Y-106706374D01*
X133625000Y-106712500D01*
X133625000Y-107412500D01*
X133624699Y-107418626D01*
X133623799Y-107424693D01*
X133622309Y-107430643D01*
X133620242Y-107436418D01*
X133617620Y-107441962D01*
X133614467Y-107447223D01*
X133610813Y-107452150D01*
X133606694Y-107456694D01*
X133602150Y-107460813D01*
X133597223Y-107464467D01*
X133591962Y-107467620D01*
X133586418Y-107470242D01*
X133580643Y-107472309D01*
X133574693Y-107473799D01*
X133568626Y-107474699D01*
X133562500Y-107475000D01*
X133437500Y-107475000D01*
X133431374Y-107474699D01*
X133425307Y-107473799D01*
X133419357Y-107472309D01*
X133413582Y-107470242D01*
X133408038Y-107467620D01*
X133402777Y-107464467D01*
X133397850Y-107460813D01*
X133393306Y-107456694D01*
X133389187Y-107452150D01*
X133385533Y-107447223D01*
X133382380Y-107441962D01*
X133379758Y-107436418D01*
X133377691Y-107430643D01*
X133376201Y-107424693D01*
X133375301Y-107418626D01*
X133375000Y-107412500D01*
X133375000Y-106712500D01*
X133375301Y-106706374D01*
X133376201Y-106700307D01*
X133377691Y-106694357D01*
X133379758Y-106688582D01*
X133382380Y-106683038D01*
X133385533Y-106677777D01*
X133389187Y-106672850D01*
X133393306Y-106668306D01*
X133397850Y-106664187D01*
X133402777Y-106660533D01*
X133408038Y-106657380D01*
X133413582Y-106654758D01*
X133419357Y-106652691D01*
X133425307Y-106651201D01*
X133431374Y-106650301D01*
X133437500Y-106650000D01*
X133562500Y-106650000D01*
X133568626Y-106650301D01*
G37*
G36*
X134068626Y-106650301D02*
G01*
X134074693Y-106651201D01*
X134080643Y-106652691D01*
X134086418Y-106654758D01*
X134091962Y-106657380D01*
X134097223Y-106660533D01*
X134102150Y-106664187D01*
X134106694Y-106668306D01*
X134110813Y-106672850D01*
X134114467Y-106677777D01*
X134117620Y-106683038D01*
X134120242Y-106688582D01*
X134122309Y-106694357D01*
X134123799Y-106700307D01*
X134124699Y-106706374D01*
X134125000Y-106712500D01*
X134125000Y-107412500D01*
X134124699Y-107418626D01*
X134123799Y-107424693D01*
X134122309Y-107430643D01*
X134120242Y-107436418D01*
X134117620Y-107441962D01*
X134114467Y-107447223D01*
X134110813Y-107452150D01*
X134106694Y-107456694D01*
X134102150Y-107460813D01*
X134097223Y-107464467D01*
X134091962Y-107467620D01*
X134086418Y-107470242D01*
X134080643Y-107472309D01*
X134074693Y-107473799D01*
X134068626Y-107474699D01*
X134062500Y-107475000D01*
X133937500Y-107475000D01*
X133931374Y-107474699D01*
X133925307Y-107473799D01*
X133919357Y-107472309D01*
X133913582Y-107470242D01*
X133908038Y-107467620D01*
X133902777Y-107464467D01*
X133897850Y-107460813D01*
X133893306Y-107456694D01*
X133889187Y-107452150D01*
X133885533Y-107447223D01*
X133882380Y-107441962D01*
X133879758Y-107436418D01*
X133877691Y-107430643D01*
X133876201Y-107424693D01*
X133875301Y-107418626D01*
X133875000Y-107412500D01*
X133875000Y-106712500D01*
X133875301Y-106706374D01*
X133876201Y-106700307D01*
X133877691Y-106694357D01*
X133879758Y-106688582D01*
X133882380Y-106683038D01*
X133885533Y-106677777D01*
X133889187Y-106672850D01*
X133893306Y-106668306D01*
X133897850Y-106664187D01*
X133902777Y-106660533D01*
X133908038Y-106657380D01*
X133913582Y-106654758D01*
X133919357Y-106652691D01*
X133925307Y-106651201D01*
X133931374Y-106650301D01*
X133937500Y-106650000D01*
X134062500Y-106650000D01*
X134068626Y-106650301D01*
G37*
G36*
X134568626Y-106650301D02*
G01*
X134574693Y-106651201D01*
X134580643Y-106652691D01*
X134586418Y-106654758D01*
X134591962Y-106657380D01*
X134597223Y-106660533D01*
X134602150Y-106664187D01*
X134606694Y-106668306D01*
X134610813Y-106672850D01*
X134614467Y-106677777D01*
X134617620Y-106683038D01*
X134620242Y-106688582D01*
X134622309Y-106694357D01*
X134623799Y-106700307D01*
X134624699Y-106706374D01*
X134625000Y-106712500D01*
X134625000Y-107412500D01*
X134624699Y-107418626D01*
X134623799Y-107424693D01*
X134622309Y-107430643D01*
X134620242Y-107436418D01*
X134617620Y-107441962D01*
X134614467Y-107447223D01*
X134610813Y-107452150D01*
X134606694Y-107456694D01*
X134602150Y-107460813D01*
X134597223Y-107464467D01*
X134591962Y-107467620D01*
X134586418Y-107470242D01*
X134580643Y-107472309D01*
X134574693Y-107473799D01*
X134568626Y-107474699D01*
X134562500Y-107475000D01*
X134437500Y-107475000D01*
X134431374Y-107474699D01*
X134425307Y-107473799D01*
X134419357Y-107472309D01*
X134413582Y-107470242D01*
X134408038Y-107467620D01*
X134402777Y-107464467D01*
X134397850Y-107460813D01*
X134393306Y-107456694D01*
X134389187Y-107452150D01*
X134385533Y-107447223D01*
X134382380Y-107441962D01*
X134379758Y-107436418D01*
X134377691Y-107430643D01*
X134376201Y-107424693D01*
X134375301Y-107418626D01*
X134375000Y-107412500D01*
X134375000Y-106712500D01*
X134375301Y-106706374D01*
X134376201Y-106700307D01*
X134377691Y-106694357D01*
X134379758Y-106688582D01*
X134382380Y-106683038D01*
X134385533Y-106677777D01*
X134389187Y-106672850D01*
X134393306Y-106668306D01*
X134397850Y-106664187D01*
X134402777Y-106660533D01*
X134408038Y-106657380D01*
X134413582Y-106654758D01*
X134419357Y-106652691D01*
X134425307Y-106651201D01*
X134431374Y-106650301D01*
X134437500Y-106650000D01*
X134562500Y-106650000D01*
X134568626Y-106650301D01*
G37*
G36*
X135068626Y-106650301D02*
G01*
X135074693Y-106651201D01*
X135080643Y-106652691D01*
X135086418Y-106654758D01*
X135091962Y-106657380D01*
X135097223Y-106660533D01*
X135102150Y-106664187D01*
X135106694Y-106668306D01*
X135110813Y-106672850D01*
X135114467Y-106677777D01*
X135117620Y-106683038D01*
X135120242Y-106688582D01*
X135122309Y-106694357D01*
X135123799Y-106700307D01*
X135124699Y-106706374D01*
X135125000Y-106712500D01*
X135125000Y-107412500D01*
X135124699Y-107418626D01*
X135123799Y-107424693D01*
X135122309Y-107430643D01*
X135120242Y-107436418D01*
X135117620Y-107441962D01*
X135114467Y-107447223D01*
X135110813Y-107452150D01*
X135106694Y-107456694D01*
X135102150Y-107460813D01*
X135097223Y-107464467D01*
X135091962Y-107467620D01*
X135086418Y-107470242D01*
X135080643Y-107472309D01*
X135074693Y-107473799D01*
X135068626Y-107474699D01*
X135062500Y-107475000D01*
X134937500Y-107475000D01*
X134931374Y-107474699D01*
X134925307Y-107473799D01*
X134919357Y-107472309D01*
X134913582Y-107470242D01*
X134908038Y-107467620D01*
X134902777Y-107464467D01*
X134897850Y-107460813D01*
X134893306Y-107456694D01*
X134889187Y-107452150D01*
X134885533Y-107447223D01*
X134882380Y-107441962D01*
X134879758Y-107436418D01*
X134877691Y-107430643D01*
X134876201Y-107424693D01*
X134875301Y-107418626D01*
X134875000Y-107412500D01*
X134875000Y-106712500D01*
X134875301Y-106706374D01*
X134876201Y-106700307D01*
X134877691Y-106694357D01*
X134879758Y-106688582D01*
X134882380Y-106683038D01*
X134885533Y-106677777D01*
X134889187Y-106672850D01*
X134893306Y-106668306D01*
X134897850Y-106664187D01*
X134902777Y-106660533D01*
X134908038Y-106657380D01*
X134913582Y-106654758D01*
X134919357Y-106652691D01*
X134925307Y-106651201D01*
X134931374Y-106650301D01*
X134937500Y-106650000D01*
X135062500Y-106650000D01*
X135068626Y-106650301D01*
G37*
G36*
X135568626Y-106650301D02*
G01*
X135574693Y-106651201D01*
X135580643Y-106652691D01*
X135586418Y-106654758D01*
X135591962Y-106657380D01*
X135597223Y-106660533D01*
X135602150Y-106664187D01*
X135606694Y-106668306D01*
X135610813Y-106672850D01*
X135614467Y-106677777D01*
X135617620Y-106683038D01*
X135620242Y-106688582D01*
X135622309Y-106694357D01*
X135623799Y-106700307D01*
X135624699Y-106706374D01*
X135625000Y-106712500D01*
X135625000Y-107412500D01*
X135624699Y-107418626D01*
X135623799Y-107424693D01*
X135622309Y-107430643D01*
X135620242Y-107436418D01*
X135617620Y-107441962D01*
X135614467Y-107447223D01*
X135610813Y-107452150D01*
X135606694Y-107456694D01*
X135602150Y-107460813D01*
X135597223Y-107464467D01*
X135591962Y-107467620D01*
X135586418Y-107470242D01*
X135580643Y-107472309D01*
X135574693Y-107473799D01*
X135568626Y-107474699D01*
X135562500Y-107475000D01*
X135437500Y-107475000D01*
X135431374Y-107474699D01*
X135425307Y-107473799D01*
X135419357Y-107472309D01*
X135413582Y-107470242D01*
X135408038Y-107467620D01*
X135402777Y-107464467D01*
X135397850Y-107460813D01*
X135393306Y-107456694D01*
X135389187Y-107452150D01*
X135385533Y-107447223D01*
X135382380Y-107441962D01*
X135379758Y-107436418D01*
X135377691Y-107430643D01*
X135376201Y-107424693D01*
X135375301Y-107418626D01*
X135375000Y-107412500D01*
X135375000Y-106712500D01*
X135375301Y-106706374D01*
X135376201Y-106700307D01*
X135377691Y-106694357D01*
X135379758Y-106688582D01*
X135382380Y-106683038D01*
X135385533Y-106677777D01*
X135389187Y-106672850D01*
X135393306Y-106668306D01*
X135397850Y-106664187D01*
X135402777Y-106660533D01*
X135408038Y-106657380D01*
X135413582Y-106654758D01*
X135419357Y-106652691D01*
X135425307Y-106651201D01*
X135431374Y-106650301D01*
X135437500Y-106650000D01*
X135562500Y-106650000D01*
X135568626Y-106650301D01*
G37*
G36*
X136068626Y-106650301D02*
G01*
X136074693Y-106651201D01*
X136080643Y-106652691D01*
X136086418Y-106654758D01*
X136091962Y-106657380D01*
X136097223Y-106660533D01*
X136102150Y-106664187D01*
X136106694Y-106668306D01*
X136110813Y-106672850D01*
X136114467Y-106677777D01*
X136117620Y-106683038D01*
X136120242Y-106688582D01*
X136122309Y-106694357D01*
X136123799Y-106700307D01*
X136124699Y-106706374D01*
X136125000Y-106712500D01*
X136125000Y-107412500D01*
X136124699Y-107418626D01*
X136123799Y-107424693D01*
X136122309Y-107430643D01*
X136120242Y-107436418D01*
X136117620Y-107441962D01*
X136114467Y-107447223D01*
X136110813Y-107452150D01*
X136106694Y-107456694D01*
X136102150Y-107460813D01*
X136097223Y-107464467D01*
X136091962Y-107467620D01*
X136086418Y-107470242D01*
X136080643Y-107472309D01*
X136074693Y-107473799D01*
X136068626Y-107474699D01*
X136062500Y-107475000D01*
X135937500Y-107475000D01*
X135931374Y-107474699D01*
X135925307Y-107473799D01*
X135919357Y-107472309D01*
X135913582Y-107470242D01*
X135908038Y-107467620D01*
X135902777Y-107464467D01*
X135897850Y-107460813D01*
X135893306Y-107456694D01*
X135889187Y-107452150D01*
X135885533Y-107447223D01*
X135882380Y-107441962D01*
X135879758Y-107436418D01*
X135877691Y-107430643D01*
X135876201Y-107424693D01*
X135875301Y-107418626D01*
X135875000Y-107412500D01*
X135875000Y-106712500D01*
X135875301Y-106706374D01*
X135876201Y-106700307D01*
X135877691Y-106694357D01*
X135879758Y-106688582D01*
X135882380Y-106683038D01*
X135885533Y-106677777D01*
X135889187Y-106672850D01*
X135893306Y-106668306D01*
X135897850Y-106664187D01*
X135902777Y-106660533D01*
X135908038Y-106657380D01*
X135913582Y-106654758D01*
X135919357Y-106652691D01*
X135925307Y-106651201D01*
X135931374Y-106650301D01*
X135937500Y-106650000D01*
X136062500Y-106650000D01*
X136068626Y-106650301D01*
G37*
G36*
X136568626Y-106650301D02*
G01*
X136574693Y-106651201D01*
X136580643Y-106652691D01*
X136586418Y-106654758D01*
X136591962Y-106657380D01*
X136597223Y-106660533D01*
X136602150Y-106664187D01*
X136606694Y-106668306D01*
X136610813Y-106672850D01*
X136614467Y-106677777D01*
X136617620Y-106683038D01*
X136620242Y-106688582D01*
X136622309Y-106694357D01*
X136623799Y-106700307D01*
X136624699Y-106706374D01*
X136625000Y-106712500D01*
X136625000Y-107412500D01*
X136624699Y-107418626D01*
X136623799Y-107424693D01*
X136622309Y-107430643D01*
X136620242Y-107436418D01*
X136617620Y-107441962D01*
X136614467Y-107447223D01*
X136610813Y-107452150D01*
X136606694Y-107456694D01*
X136602150Y-107460813D01*
X136597223Y-107464467D01*
X136591962Y-107467620D01*
X136586418Y-107470242D01*
X136580643Y-107472309D01*
X136574693Y-107473799D01*
X136568626Y-107474699D01*
X136562500Y-107475000D01*
X136437500Y-107475000D01*
X136431374Y-107474699D01*
X136425307Y-107473799D01*
X136419357Y-107472309D01*
X136413582Y-107470242D01*
X136408038Y-107467620D01*
X136402777Y-107464467D01*
X136397850Y-107460813D01*
X136393306Y-107456694D01*
X136389187Y-107452150D01*
X136385533Y-107447223D01*
X136382380Y-107441962D01*
X136379758Y-107436418D01*
X136377691Y-107430643D01*
X136376201Y-107424693D01*
X136375301Y-107418626D01*
X136375000Y-107412500D01*
X136375000Y-106712500D01*
X136375301Y-106706374D01*
X136376201Y-106700307D01*
X136377691Y-106694357D01*
X136379758Y-106688582D01*
X136382380Y-106683038D01*
X136385533Y-106677777D01*
X136389187Y-106672850D01*
X136393306Y-106668306D01*
X136397850Y-106664187D01*
X136402777Y-106660533D01*
X136408038Y-106657380D01*
X136413582Y-106654758D01*
X136419357Y-106652691D01*
X136425307Y-106651201D01*
X136431374Y-106650301D01*
X136437500Y-106650000D01*
X136562500Y-106650000D01*
X136568626Y-106650301D01*
G37*
G36*
X137793626Y-107875301D02*
G01*
X137799693Y-107876201D01*
X137805643Y-107877691D01*
X137811418Y-107879758D01*
X137816962Y-107882380D01*
X137822223Y-107885533D01*
X137827150Y-107889187D01*
X137831694Y-107893306D01*
X137835813Y-107897850D01*
X137839467Y-107902777D01*
X137842620Y-107908038D01*
X137845242Y-107913582D01*
X137847309Y-107919357D01*
X137848799Y-107925307D01*
X137849699Y-107931374D01*
X137850000Y-107937500D01*
X137850000Y-108062500D01*
X137849699Y-108068626D01*
X137848799Y-108074693D01*
X137847309Y-108080643D01*
X137845242Y-108086418D01*
X137842620Y-108091962D01*
X137839467Y-108097223D01*
X137835813Y-108102150D01*
X137831694Y-108106694D01*
X137827150Y-108110813D01*
X137822223Y-108114467D01*
X137816962Y-108117620D01*
X137811418Y-108120242D01*
X137805643Y-108122309D01*
X137799693Y-108123799D01*
X137793626Y-108124699D01*
X137787500Y-108125000D01*
X137087500Y-108125000D01*
X137081374Y-108124699D01*
X137075307Y-108123799D01*
X137069357Y-108122309D01*
X137063582Y-108120242D01*
X137058038Y-108117620D01*
X137052777Y-108114467D01*
X137047850Y-108110813D01*
X137043306Y-108106694D01*
X137039187Y-108102150D01*
X137035533Y-108097223D01*
X137032380Y-108091962D01*
X137029758Y-108086418D01*
X137027691Y-108080643D01*
X137026201Y-108074693D01*
X137025301Y-108068626D01*
X137025000Y-108062500D01*
X137025000Y-107937500D01*
X137025301Y-107931374D01*
X137026201Y-107925307D01*
X137027691Y-107919357D01*
X137029758Y-107913582D01*
X137032380Y-107908038D01*
X137035533Y-107902777D01*
X137039187Y-107897850D01*
X137043306Y-107893306D01*
X137047850Y-107889187D01*
X137052777Y-107885533D01*
X137058038Y-107882380D01*
X137063582Y-107879758D01*
X137069357Y-107877691D01*
X137075307Y-107876201D01*
X137081374Y-107875301D01*
X137087500Y-107875000D01*
X137787500Y-107875000D01*
X137793626Y-107875301D01*
G37*
G36*
X137793626Y-108375301D02*
G01*
X137799693Y-108376201D01*
X137805643Y-108377691D01*
X137811418Y-108379758D01*
X137816962Y-108382380D01*
X137822223Y-108385533D01*
X137827150Y-108389187D01*
X137831694Y-108393306D01*
X137835813Y-108397850D01*
X137839467Y-108402777D01*
X137842620Y-108408038D01*
X137845242Y-108413582D01*
X137847309Y-108419357D01*
X137848799Y-108425307D01*
X137849699Y-108431374D01*
X137850000Y-108437500D01*
X137850000Y-108562500D01*
X137849699Y-108568626D01*
X137848799Y-108574693D01*
X137847309Y-108580643D01*
X137845242Y-108586418D01*
X137842620Y-108591962D01*
X137839467Y-108597223D01*
X137835813Y-108602150D01*
X137831694Y-108606694D01*
X137827150Y-108610813D01*
X137822223Y-108614467D01*
X137816962Y-108617620D01*
X137811418Y-108620242D01*
X137805643Y-108622309D01*
X137799693Y-108623799D01*
X137793626Y-108624699D01*
X137787500Y-108625000D01*
X137087500Y-108625000D01*
X137081374Y-108624699D01*
X137075307Y-108623799D01*
X137069357Y-108622309D01*
X137063582Y-108620242D01*
X137058038Y-108617620D01*
X137052777Y-108614467D01*
X137047850Y-108610813D01*
X137043306Y-108606694D01*
X137039187Y-108602150D01*
X137035533Y-108597223D01*
X137032380Y-108591962D01*
X137029758Y-108586418D01*
X137027691Y-108580643D01*
X137026201Y-108574693D01*
X137025301Y-108568626D01*
X137025000Y-108562500D01*
X137025000Y-108437500D01*
X137025301Y-108431374D01*
X137026201Y-108425307D01*
X137027691Y-108419357D01*
X137029758Y-108413582D01*
X137032380Y-108408038D01*
X137035533Y-108402777D01*
X137039187Y-108397850D01*
X137043306Y-108393306D01*
X137047850Y-108389187D01*
X137052777Y-108385533D01*
X137058038Y-108382380D01*
X137063582Y-108379758D01*
X137069357Y-108377691D01*
X137075307Y-108376201D01*
X137081374Y-108375301D01*
X137087500Y-108375000D01*
X137787500Y-108375000D01*
X137793626Y-108375301D01*
G37*
G36*
X137793626Y-108875301D02*
G01*
X137799693Y-108876201D01*
X137805643Y-108877691D01*
X137811418Y-108879758D01*
X137816962Y-108882380D01*
X137822223Y-108885533D01*
X137827150Y-108889187D01*
X137831694Y-108893306D01*
X137835813Y-108897850D01*
X137839467Y-108902777D01*
X137842620Y-108908038D01*
X137845242Y-108913582D01*
X137847309Y-108919357D01*
X137848799Y-108925307D01*
X137849699Y-108931374D01*
X137850000Y-108937500D01*
X137850000Y-109062500D01*
X137849699Y-109068626D01*
X137848799Y-109074693D01*
X137847309Y-109080643D01*
X137845242Y-109086418D01*
X137842620Y-109091962D01*
X137839467Y-109097223D01*
X137835813Y-109102150D01*
X137831694Y-109106694D01*
X137827150Y-109110813D01*
X137822223Y-109114467D01*
X137816962Y-109117620D01*
X137811418Y-109120242D01*
X137805643Y-109122309D01*
X137799693Y-109123799D01*
X137793626Y-109124699D01*
X137787500Y-109125000D01*
X137087500Y-109125000D01*
X137081374Y-109124699D01*
X137075307Y-109123799D01*
X137069357Y-109122309D01*
X137063582Y-109120242D01*
X137058038Y-109117620D01*
X137052777Y-109114467D01*
X137047850Y-109110813D01*
X137043306Y-109106694D01*
X137039187Y-109102150D01*
X137035533Y-109097223D01*
X137032380Y-109091962D01*
X137029758Y-109086418D01*
X137027691Y-109080643D01*
X137026201Y-109074693D01*
X137025301Y-109068626D01*
X137025000Y-109062500D01*
X137025000Y-108937500D01*
X137025301Y-108931374D01*
X137026201Y-108925307D01*
X137027691Y-108919357D01*
X137029758Y-108913582D01*
X137032380Y-108908038D01*
X137035533Y-108902777D01*
X137039187Y-108897850D01*
X137043306Y-108893306D01*
X137047850Y-108889187D01*
X137052777Y-108885533D01*
X137058038Y-108882380D01*
X137063582Y-108879758D01*
X137069357Y-108877691D01*
X137075307Y-108876201D01*
X137081374Y-108875301D01*
X137087500Y-108875000D01*
X137787500Y-108875000D01*
X137793626Y-108875301D01*
G37*
G36*
X137793626Y-109375301D02*
G01*
X137799693Y-109376201D01*
X137805643Y-109377691D01*
X137811418Y-109379758D01*
X137816962Y-109382380D01*
X137822223Y-109385533D01*
X137827150Y-109389187D01*
X137831694Y-109393306D01*
X137835813Y-109397850D01*
X137839467Y-109402777D01*
X137842620Y-109408038D01*
X137845242Y-109413582D01*
X137847309Y-109419357D01*
X137848799Y-109425307D01*
X137849699Y-109431374D01*
X137850000Y-109437500D01*
X137850000Y-109562500D01*
X137849699Y-109568626D01*
X137848799Y-109574693D01*
X137847309Y-109580643D01*
X137845242Y-109586418D01*
X137842620Y-109591962D01*
X137839467Y-109597223D01*
X137835813Y-109602150D01*
X137831694Y-109606694D01*
X137827150Y-109610813D01*
X137822223Y-109614467D01*
X137816962Y-109617620D01*
X137811418Y-109620242D01*
X137805643Y-109622309D01*
X137799693Y-109623799D01*
X137793626Y-109624699D01*
X137787500Y-109625000D01*
X137087500Y-109625000D01*
X137081374Y-109624699D01*
X137075307Y-109623799D01*
X137069357Y-109622309D01*
X137063582Y-109620242D01*
X137058038Y-109617620D01*
X137052777Y-109614467D01*
X137047850Y-109610813D01*
X137043306Y-109606694D01*
X137039187Y-109602150D01*
X137035533Y-109597223D01*
X137032380Y-109591962D01*
X137029758Y-109586418D01*
X137027691Y-109580643D01*
X137026201Y-109574693D01*
X137025301Y-109568626D01*
X137025000Y-109562500D01*
X137025000Y-109437500D01*
X137025301Y-109431374D01*
X137026201Y-109425307D01*
X137027691Y-109419357D01*
X137029758Y-109413582D01*
X137032380Y-109408038D01*
X137035533Y-109402777D01*
X137039187Y-109397850D01*
X137043306Y-109393306D01*
X137047850Y-109389187D01*
X137052777Y-109385533D01*
X137058038Y-109382380D01*
X137063582Y-109379758D01*
X137069357Y-109377691D01*
X137075307Y-109376201D01*
X137081374Y-109375301D01*
X137087500Y-109375000D01*
X137787500Y-109375000D01*
X137793626Y-109375301D01*
G37*
G36*
X137793626Y-109875301D02*
G01*
X137799693Y-109876201D01*
X137805643Y-109877691D01*
X137811418Y-109879758D01*
X137816962Y-109882380D01*
X137822223Y-109885533D01*
X137827150Y-109889187D01*
X137831694Y-109893306D01*
X137835813Y-109897850D01*
X137839467Y-109902777D01*
X137842620Y-109908038D01*
X137845242Y-109913582D01*
X137847309Y-109919357D01*
X137848799Y-109925307D01*
X137849699Y-109931374D01*
X137850000Y-109937500D01*
X137850000Y-110062500D01*
X137849699Y-110068626D01*
X137848799Y-110074693D01*
X137847309Y-110080643D01*
X137845242Y-110086418D01*
X137842620Y-110091962D01*
X137839467Y-110097223D01*
X137835813Y-110102150D01*
X137831694Y-110106694D01*
X137827150Y-110110813D01*
X137822223Y-110114467D01*
X137816962Y-110117620D01*
X137811418Y-110120242D01*
X137805643Y-110122309D01*
X137799693Y-110123799D01*
X137793626Y-110124699D01*
X137787500Y-110125000D01*
X137087500Y-110125000D01*
X137081374Y-110124699D01*
X137075307Y-110123799D01*
X137069357Y-110122309D01*
X137063582Y-110120242D01*
X137058038Y-110117620D01*
X137052777Y-110114467D01*
X137047850Y-110110813D01*
X137043306Y-110106694D01*
X137039187Y-110102150D01*
X137035533Y-110097223D01*
X137032380Y-110091962D01*
X137029758Y-110086418D01*
X137027691Y-110080643D01*
X137026201Y-110074693D01*
X137025301Y-110068626D01*
X137025000Y-110062500D01*
X137025000Y-109937500D01*
X137025301Y-109931374D01*
X137026201Y-109925307D01*
X137027691Y-109919357D01*
X137029758Y-109913582D01*
X137032380Y-109908038D01*
X137035533Y-109902777D01*
X137039187Y-109897850D01*
X137043306Y-109893306D01*
X137047850Y-109889187D01*
X137052777Y-109885533D01*
X137058038Y-109882380D01*
X137063582Y-109879758D01*
X137069357Y-109877691D01*
X137075307Y-109876201D01*
X137081374Y-109875301D01*
X137087500Y-109875000D01*
X137787500Y-109875000D01*
X137793626Y-109875301D01*
G37*
G36*
X137793626Y-110375301D02*
G01*
X137799693Y-110376201D01*
X137805643Y-110377691D01*
X137811418Y-110379758D01*
X137816962Y-110382380D01*
X137822223Y-110385533D01*
X137827150Y-110389187D01*
X137831694Y-110393306D01*
X137835813Y-110397850D01*
X137839467Y-110402777D01*
X137842620Y-110408038D01*
X137845242Y-110413582D01*
X137847309Y-110419357D01*
X137848799Y-110425307D01*
X137849699Y-110431374D01*
X137850000Y-110437500D01*
X137850000Y-110562500D01*
X137849699Y-110568626D01*
X137848799Y-110574693D01*
X137847309Y-110580643D01*
X137845242Y-110586418D01*
X137842620Y-110591962D01*
X137839467Y-110597223D01*
X137835813Y-110602150D01*
X137831694Y-110606694D01*
X137827150Y-110610813D01*
X137822223Y-110614467D01*
X137816962Y-110617620D01*
X137811418Y-110620242D01*
X137805643Y-110622309D01*
X137799693Y-110623799D01*
X137793626Y-110624699D01*
X137787500Y-110625000D01*
X137087500Y-110625000D01*
X137081374Y-110624699D01*
X137075307Y-110623799D01*
X137069357Y-110622309D01*
X137063582Y-110620242D01*
X137058038Y-110617620D01*
X137052777Y-110614467D01*
X137047850Y-110610813D01*
X137043306Y-110606694D01*
X137039187Y-110602150D01*
X137035533Y-110597223D01*
X137032380Y-110591962D01*
X137029758Y-110586418D01*
X137027691Y-110580643D01*
X137026201Y-110574693D01*
X137025301Y-110568626D01*
X137025000Y-110562500D01*
X137025000Y-110437500D01*
X137025301Y-110431374D01*
X137026201Y-110425307D01*
X137027691Y-110419357D01*
X137029758Y-110413582D01*
X137032380Y-110408038D01*
X137035533Y-110402777D01*
X137039187Y-110397850D01*
X137043306Y-110393306D01*
X137047850Y-110389187D01*
X137052777Y-110385533D01*
X137058038Y-110382380D01*
X137063582Y-110379758D01*
X137069357Y-110377691D01*
X137075307Y-110376201D01*
X137081374Y-110375301D01*
X137087500Y-110375000D01*
X137787500Y-110375000D01*
X137793626Y-110375301D01*
G37*
G36*
X137793626Y-110875301D02*
G01*
X137799693Y-110876201D01*
X137805643Y-110877691D01*
X137811418Y-110879758D01*
X137816962Y-110882380D01*
X137822223Y-110885533D01*
X137827150Y-110889187D01*
X137831694Y-110893306D01*
X137835813Y-110897850D01*
X137839467Y-110902777D01*
X137842620Y-110908038D01*
X137845242Y-110913582D01*
X137847309Y-110919357D01*
X137848799Y-110925307D01*
X137849699Y-110931374D01*
X137850000Y-110937500D01*
X137850000Y-111062500D01*
X137849699Y-111068626D01*
X137848799Y-111074693D01*
X137847309Y-111080643D01*
X137845242Y-111086418D01*
X137842620Y-111091962D01*
X137839467Y-111097223D01*
X137835813Y-111102150D01*
X137831694Y-111106694D01*
X137827150Y-111110813D01*
X137822223Y-111114467D01*
X137816962Y-111117620D01*
X137811418Y-111120242D01*
X137805643Y-111122309D01*
X137799693Y-111123799D01*
X137793626Y-111124699D01*
X137787500Y-111125000D01*
X137087500Y-111125000D01*
X137081374Y-111124699D01*
X137075307Y-111123799D01*
X137069357Y-111122309D01*
X137063582Y-111120242D01*
X137058038Y-111117620D01*
X137052777Y-111114467D01*
X137047850Y-111110813D01*
X137043306Y-111106694D01*
X137039187Y-111102150D01*
X137035533Y-111097223D01*
X137032380Y-111091962D01*
X137029758Y-111086418D01*
X137027691Y-111080643D01*
X137026201Y-111074693D01*
X137025301Y-111068626D01*
X137025000Y-111062500D01*
X137025000Y-110937500D01*
X137025301Y-110931374D01*
X137026201Y-110925307D01*
X137027691Y-110919357D01*
X137029758Y-110913582D01*
X137032380Y-110908038D01*
X137035533Y-110902777D01*
X137039187Y-110897850D01*
X137043306Y-110893306D01*
X137047850Y-110889187D01*
X137052777Y-110885533D01*
X137058038Y-110882380D01*
X137063582Y-110879758D01*
X137069357Y-110877691D01*
X137075307Y-110876201D01*
X137081374Y-110875301D01*
X137087500Y-110875000D01*
X137787500Y-110875000D01*
X137793626Y-110875301D01*
G37*
G36*
X137793626Y-111375301D02*
G01*
X137799693Y-111376201D01*
X137805643Y-111377691D01*
X137811418Y-111379758D01*
X137816962Y-111382380D01*
X137822223Y-111385533D01*
X137827150Y-111389187D01*
X137831694Y-111393306D01*
X137835813Y-111397850D01*
X137839467Y-111402777D01*
X137842620Y-111408038D01*
X137845242Y-111413582D01*
X137847309Y-111419357D01*
X137848799Y-111425307D01*
X137849699Y-111431374D01*
X137850000Y-111437500D01*
X137850000Y-111562500D01*
X137849699Y-111568626D01*
X137848799Y-111574693D01*
X137847309Y-111580643D01*
X137845242Y-111586418D01*
X137842620Y-111591962D01*
X137839467Y-111597223D01*
X137835813Y-111602150D01*
X137831694Y-111606694D01*
X137827150Y-111610813D01*
X137822223Y-111614467D01*
X137816962Y-111617620D01*
X137811418Y-111620242D01*
X137805643Y-111622309D01*
X137799693Y-111623799D01*
X137793626Y-111624699D01*
X137787500Y-111625000D01*
X137087500Y-111625000D01*
X137081374Y-111624699D01*
X137075307Y-111623799D01*
X137069357Y-111622309D01*
X137063582Y-111620242D01*
X137058038Y-111617620D01*
X137052777Y-111614467D01*
X137047850Y-111610813D01*
X137043306Y-111606694D01*
X137039187Y-111602150D01*
X137035533Y-111597223D01*
X137032380Y-111591962D01*
X137029758Y-111586418D01*
X137027691Y-111580643D01*
X137026201Y-111574693D01*
X137025301Y-111568626D01*
X137025000Y-111562500D01*
X137025000Y-111437500D01*
X137025301Y-111431374D01*
X137026201Y-111425307D01*
X137027691Y-111419357D01*
X137029758Y-111413582D01*
X137032380Y-111408038D01*
X137035533Y-111402777D01*
X137039187Y-111397850D01*
X137043306Y-111393306D01*
X137047850Y-111389187D01*
X137052777Y-111385533D01*
X137058038Y-111382380D01*
X137063582Y-111379758D01*
X137069357Y-111377691D01*
X137075307Y-111376201D01*
X137081374Y-111375301D01*
X137087500Y-111375000D01*
X137787500Y-111375000D01*
X137793626Y-111375301D01*
G37*
G36*
X137793626Y-111875301D02*
G01*
X137799693Y-111876201D01*
X137805643Y-111877691D01*
X137811418Y-111879758D01*
X137816962Y-111882380D01*
X137822223Y-111885533D01*
X137827150Y-111889187D01*
X137831694Y-111893306D01*
X137835813Y-111897850D01*
X137839467Y-111902777D01*
X137842620Y-111908038D01*
X137845242Y-111913582D01*
X137847309Y-111919357D01*
X137848799Y-111925307D01*
X137849699Y-111931374D01*
X137850000Y-111937500D01*
X137850000Y-112062500D01*
X137849699Y-112068626D01*
X137848799Y-112074693D01*
X137847309Y-112080643D01*
X137845242Y-112086418D01*
X137842620Y-112091962D01*
X137839467Y-112097223D01*
X137835813Y-112102150D01*
X137831694Y-112106694D01*
X137827150Y-112110813D01*
X137822223Y-112114467D01*
X137816962Y-112117620D01*
X137811418Y-112120242D01*
X137805643Y-112122309D01*
X137799693Y-112123799D01*
X137793626Y-112124699D01*
X137787500Y-112125000D01*
X137087500Y-112125000D01*
X137081374Y-112124699D01*
X137075307Y-112123799D01*
X137069357Y-112122309D01*
X137063582Y-112120242D01*
X137058038Y-112117620D01*
X137052777Y-112114467D01*
X137047850Y-112110813D01*
X137043306Y-112106694D01*
X137039187Y-112102150D01*
X137035533Y-112097223D01*
X137032380Y-112091962D01*
X137029758Y-112086418D01*
X137027691Y-112080643D01*
X137026201Y-112074693D01*
X137025301Y-112068626D01*
X137025000Y-112062500D01*
X137025000Y-111937500D01*
X137025301Y-111931374D01*
X137026201Y-111925307D01*
X137027691Y-111919357D01*
X137029758Y-111913582D01*
X137032380Y-111908038D01*
X137035533Y-111902777D01*
X137039187Y-111897850D01*
X137043306Y-111893306D01*
X137047850Y-111889187D01*
X137052777Y-111885533D01*
X137058038Y-111882380D01*
X137063582Y-111879758D01*
X137069357Y-111877691D01*
X137075307Y-111876201D01*
X137081374Y-111875301D01*
X137087500Y-111875000D01*
X137787500Y-111875000D01*
X137793626Y-111875301D01*
G37*
G36*
X136568626Y-112525301D02*
G01*
X136574693Y-112526201D01*
X136580643Y-112527691D01*
X136586418Y-112529758D01*
X136591962Y-112532380D01*
X136597223Y-112535533D01*
X136602150Y-112539187D01*
X136606694Y-112543306D01*
X136610813Y-112547850D01*
X136614467Y-112552777D01*
X136617620Y-112558038D01*
X136620242Y-112563582D01*
X136622309Y-112569357D01*
X136623799Y-112575307D01*
X136624699Y-112581374D01*
X136625000Y-112587500D01*
X136625000Y-113287500D01*
X136624699Y-113293626D01*
X136623799Y-113299693D01*
X136622309Y-113305643D01*
X136620242Y-113311418D01*
X136617620Y-113316962D01*
X136614467Y-113322223D01*
X136610813Y-113327150D01*
X136606694Y-113331694D01*
X136602150Y-113335813D01*
X136597223Y-113339467D01*
X136591962Y-113342620D01*
X136586418Y-113345242D01*
X136580643Y-113347309D01*
X136574693Y-113348799D01*
X136568626Y-113349699D01*
X136562500Y-113350000D01*
X136437500Y-113350000D01*
X136431374Y-113349699D01*
X136425307Y-113348799D01*
X136419357Y-113347309D01*
X136413582Y-113345242D01*
X136408038Y-113342620D01*
X136402777Y-113339467D01*
X136397850Y-113335813D01*
X136393306Y-113331694D01*
X136389187Y-113327150D01*
X136385533Y-113322223D01*
X136382380Y-113316962D01*
X136379758Y-113311418D01*
X136377691Y-113305643D01*
X136376201Y-113299693D01*
X136375301Y-113293626D01*
X136375000Y-113287500D01*
X136375000Y-112587500D01*
X136375301Y-112581374D01*
X136376201Y-112575307D01*
X136377691Y-112569357D01*
X136379758Y-112563582D01*
X136382380Y-112558038D01*
X136385533Y-112552777D01*
X136389187Y-112547850D01*
X136393306Y-112543306D01*
X136397850Y-112539187D01*
X136402777Y-112535533D01*
X136408038Y-112532380D01*
X136413582Y-112529758D01*
X136419357Y-112527691D01*
X136425307Y-112526201D01*
X136431374Y-112525301D01*
X136437500Y-112525000D01*
X136562500Y-112525000D01*
X136568626Y-112525301D01*
G37*
G36*
X136068626Y-112525301D02*
G01*
X136074693Y-112526201D01*
X136080643Y-112527691D01*
X136086418Y-112529758D01*
X136091962Y-112532380D01*
X136097223Y-112535533D01*
X136102150Y-112539187D01*
X136106694Y-112543306D01*
X136110813Y-112547850D01*
X136114467Y-112552777D01*
X136117620Y-112558038D01*
X136120242Y-112563582D01*
X136122309Y-112569357D01*
X136123799Y-112575307D01*
X136124699Y-112581374D01*
X136125000Y-112587500D01*
X136125000Y-113287500D01*
X136124699Y-113293626D01*
X136123799Y-113299693D01*
X136122309Y-113305643D01*
X136120242Y-113311418D01*
X136117620Y-113316962D01*
X136114467Y-113322223D01*
X136110813Y-113327150D01*
X136106694Y-113331694D01*
X136102150Y-113335813D01*
X136097223Y-113339467D01*
X136091962Y-113342620D01*
X136086418Y-113345242D01*
X136080643Y-113347309D01*
X136074693Y-113348799D01*
X136068626Y-113349699D01*
X136062500Y-113350000D01*
X135937500Y-113350000D01*
X135931374Y-113349699D01*
X135925307Y-113348799D01*
X135919357Y-113347309D01*
X135913582Y-113345242D01*
X135908038Y-113342620D01*
X135902777Y-113339467D01*
X135897850Y-113335813D01*
X135893306Y-113331694D01*
X135889187Y-113327150D01*
X135885533Y-113322223D01*
X135882380Y-113316962D01*
X135879758Y-113311418D01*
X135877691Y-113305643D01*
X135876201Y-113299693D01*
X135875301Y-113293626D01*
X135875000Y-113287500D01*
X135875000Y-112587500D01*
X135875301Y-112581374D01*
X135876201Y-112575307D01*
X135877691Y-112569357D01*
X135879758Y-112563582D01*
X135882380Y-112558038D01*
X135885533Y-112552777D01*
X135889187Y-112547850D01*
X135893306Y-112543306D01*
X135897850Y-112539187D01*
X135902777Y-112535533D01*
X135908038Y-112532380D01*
X135913582Y-112529758D01*
X135919357Y-112527691D01*
X135925307Y-112526201D01*
X135931374Y-112525301D01*
X135937500Y-112525000D01*
X136062500Y-112525000D01*
X136068626Y-112525301D01*
G37*
G36*
X135568626Y-112525301D02*
G01*
X135574693Y-112526201D01*
X135580643Y-112527691D01*
X135586418Y-112529758D01*
X135591962Y-112532380D01*
X135597223Y-112535533D01*
X135602150Y-112539187D01*
X135606694Y-112543306D01*
X135610813Y-112547850D01*
X135614467Y-112552777D01*
X135617620Y-112558038D01*
X135620242Y-112563582D01*
X135622309Y-112569357D01*
X135623799Y-112575307D01*
X135624699Y-112581374D01*
X135625000Y-112587500D01*
X135625000Y-113287500D01*
X135624699Y-113293626D01*
X135623799Y-113299693D01*
X135622309Y-113305643D01*
X135620242Y-113311418D01*
X135617620Y-113316962D01*
X135614467Y-113322223D01*
X135610813Y-113327150D01*
X135606694Y-113331694D01*
X135602150Y-113335813D01*
X135597223Y-113339467D01*
X135591962Y-113342620D01*
X135586418Y-113345242D01*
X135580643Y-113347309D01*
X135574693Y-113348799D01*
X135568626Y-113349699D01*
X135562500Y-113350000D01*
X135437500Y-113350000D01*
X135431374Y-113349699D01*
X135425307Y-113348799D01*
X135419357Y-113347309D01*
X135413582Y-113345242D01*
X135408038Y-113342620D01*
X135402777Y-113339467D01*
X135397850Y-113335813D01*
X135393306Y-113331694D01*
X135389187Y-113327150D01*
X135385533Y-113322223D01*
X135382380Y-113316962D01*
X135379758Y-113311418D01*
X135377691Y-113305643D01*
X135376201Y-113299693D01*
X135375301Y-113293626D01*
X135375000Y-113287500D01*
X135375000Y-112587500D01*
X135375301Y-112581374D01*
X135376201Y-112575307D01*
X135377691Y-112569357D01*
X135379758Y-112563582D01*
X135382380Y-112558038D01*
X135385533Y-112552777D01*
X135389187Y-112547850D01*
X135393306Y-112543306D01*
X135397850Y-112539187D01*
X135402777Y-112535533D01*
X135408038Y-112532380D01*
X135413582Y-112529758D01*
X135419357Y-112527691D01*
X135425307Y-112526201D01*
X135431374Y-112525301D01*
X135437500Y-112525000D01*
X135562500Y-112525000D01*
X135568626Y-112525301D01*
G37*
G36*
X135068626Y-112525301D02*
G01*
X135074693Y-112526201D01*
X135080643Y-112527691D01*
X135086418Y-112529758D01*
X135091962Y-112532380D01*
X135097223Y-112535533D01*
X135102150Y-112539187D01*
X135106694Y-112543306D01*
X135110813Y-112547850D01*
X135114467Y-112552777D01*
X135117620Y-112558038D01*
X135120242Y-112563582D01*
X135122309Y-112569357D01*
X135123799Y-112575307D01*
X135124699Y-112581374D01*
X135125000Y-112587500D01*
X135125000Y-113287500D01*
X135124699Y-113293626D01*
X135123799Y-113299693D01*
X135122309Y-113305643D01*
X135120242Y-113311418D01*
X135117620Y-113316962D01*
X135114467Y-113322223D01*
X135110813Y-113327150D01*
X135106694Y-113331694D01*
X135102150Y-113335813D01*
X135097223Y-113339467D01*
X135091962Y-113342620D01*
X135086418Y-113345242D01*
X135080643Y-113347309D01*
X135074693Y-113348799D01*
X135068626Y-113349699D01*
X135062500Y-113350000D01*
X134937500Y-113350000D01*
X134931374Y-113349699D01*
X134925307Y-113348799D01*
X134919357Y-113347309D01*
X134913582Y-113345242D01*
X134908038Y-113342620D01*
X134902777Y-113339467D01*
X134897850Y-113335813D01*
X134893306Y-113331694D01*
X134889187Y-113327150D01*
X134885533Y-113322223D01*
X134882380Y-113316962D01*
X134879758Y-113311418D01*
X134877691Y-113305643D01*
X134876201Y-113299693D01*
X134875301Y-113293626D01*
X134875000Y-113287500D01*
X134875000Y-112587500D01*
X134875301Y-112581374D01*
X134876201Y-112575307D01*
X134877691Y-112569357D01*
X134879758Y-112563582D01*
X134882380Y-112558038D01*
X134885533Y-112552777D01*
X134889187Y-112547850D01*
X134893306Y-112543306D01*
X134897850Y-112539187D01*
X134902777Y-112535533D01*
X134908038Y-112532380D01*
X134913582Y-112529758D01*
X134919357Y-112527691D01*
X134925307Y-112526201D01*
X134931374Y-112525301D01*
X134937500Y-112525000D01*
X135062500Y-112525000D01*
X135068626Y-112525301D01*
G37*
G36*
X134568626Y-112525301D02*
G01*
X134574693Y-112526201D01*
X134580643Y-112527691D01*
X134586418Y-112529758D01*
X134591962Y-112532380D01*
X134597223Y-112535533D01*
X134602150Y-112539187D01*
X134606694Y-112543306D01*
X134610813Y-112547850D01*
X134614467Y-112552777D01*
X134617620Y-112558038D01*
X134620242Y-112563582D01*
X134622309Y-112569357D01*
X134623799Y-112575307D01*
X134624699Y-112581374D01*
X134625000Y-112587500D01*
X134625000Y-113287500D01*
X134624699Y-113293626D01*
X134623799Y-113299693D01*
X134622309Y-113305643D01*
X134620242Y-113311418D01*
X134617620Y-113316962D01*
X134614467Y-113322223D01*
X134610813Y-113327150D01*
X134606694Y-113331694D01*
X134602150Y-113335813D01*
X134597223Y-113339467D01*
X134591962Y-113342620D01*
X134586418Y-113345242D01*
X134580643Y-113347309D01*
X134574693Y-113348799D01*
X134568626Y-113349699D01*
X134562500Y-113350000D01*
X134437500Y-113350000D01*
X134431374Y-113349699D01*
X134425307Y-113348799D01*
X134419357Y-113347309D01*
X134413582Y-113345242D01*
X134408038Y-113342620D01*
X134402777Y-113339467D01*
X134397850Y-113335813D01*
X134393306Y-113331694D01*
X134389187Y-113327150D01*
X134385533Y-113322223D01*
X134382380Y-113316962D01*
X134379758Y-113311418D01*
X134377691Y-113305643D01*
X134376201Y-113299693D01*
X134375301Y-113293626D01*
X134375000Y-113287500D01*
X134375000Y-112587500D01*
X134375301Y-112581374D01*
X134376201Y-112575307D01*
X134377691Y-112569357D01*
X134379758Y-112563582D01*
X134382380Y-112558038D01*
X134385533Y-112552777D01*
X134389187Y-112547850D01*
X134393306Y-112543306D01*
X134397850Y-112539187D01*
X134402777Y-112535533D01*
X134408038Y-112532380D01*
X134413582Y-112529758D01*
X134419357Y-112527691D01*
X134425307Y-112526201D01*
X134431374Y-112525301D01*
X134437500Y-112525000D01*
X134562500Y-112525000D01*
X134568626Y-112525301D01*
G37*
G36*
X134068626Y-112525301D02*
G01*
X134074693Y-112526201D01*
X134080643Y-112527691D01*
X134086418Y-112529758D01*
X134091962Y-112532380D01*
X134097223Y-112535533D01*
X134102150Y-112539187D01*
X134106694Y-112543306D01*
X134110813Y-112547850D01*
X134114467Y-112552777D01*
X134117620Y-112558038D01*
X134120242Y-112563582D01*
X134122309Y-112569357D01*
X134123799Y-112575307D01*
X134124699Y-112581374D01*
X134125000Y-112587500D01*
X134125000Y-113287500D01*
X134124699Y-113293626D01*
X134123799Y-113299693D01*
X134122309Y-113305643D01*
X134120242Y-113311418D01*
X134117620Y-113316962D01*
X134114467Y-113322223D01*
X134110813Y-113327150D01*
X134106694Y-113331694D01*
X134102150Y-113335813D01*
X134097223Y-113339467D01*
X134091962Y-113342620D01*
X134086418Y-113345242D01*
X134080643Y-113347309D01*
X134074693Y-113348799D01*
X134068626Y-113349699D01*
X134062500Y-113350000D01*
X133937500Y-113350000D01*
X133931374Y-113349699D01*
X133925307Y-113348799D01*
X133919357Y-113347309D01*
X133913582Y-113345242D01*
X133908038Y-113342620D01*
X133902777Y-113339467D01*
X133897850Y-113335813D01*
X133893306Y-113331694D01*
X133889187Y-113327150D01*
X133885533Y-113322223D01*
X133882380Y-113316962D01*
X133879758Y-113311418D01*
X133877691Y-113305643D01*
X133876201Y-113299693D01*
X133875301Y-113293626D01*
X133875000Y-113287500D01*
X133875000Y-112587500D01*
X133875301Y-112581374D01*
X133876201Y-112575307D01*
X133877691Y-112569357D01*
X133879758Y-112563582D01*
X133882380Y-112558038D01*
X133885533Y-112552777D01*
X133889187Y-112547850D01*
X133893306Y-112543306D01*
X133897850Y-112539187D01*
X133902777Y-112535533D01*
X133908038Y-112532380D01*
X133913582Y-112529758D01*
X133919357Y-112527691D01*
X133925307Y-112526201D01*
X133931374Y-112525301D01*
X133937500Y-112525000D01*
X134062500Y-112525000D01*
X134068626Y-112525301D01*
G37*
G36*
X133568626Y-112525301D02*
G01*
X133574693Y-112526201D01*
X133580643Y-112527691D01*
X133586418Y-112529758D01*
X133591962Y-112532380D01*
X133597223Y-112535533D01*
X133602150Y-112539187D01*
X133606694Y-112543306D01*
X133610813Y-112547850D01*
X133614467Y-112552777D01*
X133617620Y-112558038D01*
X133620242Y-112563582D01*
X133622309Y-112569357D01*
X133623799Y-112575307D01*
X133624699Y-112581374D01*
X133625000Y-112587500D01*
X133625000Y-113287500D01*
X133624699Y-113293626D01*
X133623799Y-113299693D01*
X133622309Y-113305643D01*
X133620242Y-113311418D01*
X133617620Y-113316962D01*
X133614467Y-113322223D01*
X133610813Y-113327150D01*
X133606694Y-113331694D01*
X133602150Y-113335813D01*
X133597223Y-113339467D01*
X133591962Y-113342620D01*
X133586418Y-113345242D01*
X133580643Y-113347309D01*
X133574693Y-113348799D01*
X133568626Y-113349699D01*
X133562500Y-113350000D01*
X133437500Y-113350000D01*
X133431374Y-113349699D01*
X133425307Y-113348799D01*
X133419357Y-113347309D01*
X133413582Y-113345242D01*
X133408038Y-113342620D01*
X133402777Y-113339467D01*
X133397850Y-113335813D01*
X133393306Y-113331694D01*
X133389187Y-113327150D01*
X133385533Y-113322223D01*
X133382380Y-113316962D01*
X133379758Y-113311418D01*
X133377691Y-113305643D01*
X133376201Y-113299693D01*
X133375301Y-113293626D01*
X133375000Y-113287500D01*
X133375000Y-112587500D01*
X133375301Y-112581374D01*
X133376201Y-112575307D01*
X133377691Y-112569357D01*
X133379758Y-112563582D01*
X133382380Y-112558038D01*
X133385533Y-112552777D01*
X133389187Y-112547850D01*
X133393306Y-112543306D01*
X133397850Y-112539187D01*
X133402777Y-112535533D01*
X133408038Y-112532380D01*
X133413582Y-112529758D01*
X133419357Y-112527691D01*
X133425307Y-112526201D01*
X133431374Y-112525301D01*
X133437500Y-112525000D01*
X133562500Y-112525000D01*
X133568626Y-112525301D01*
G37*
G36*
X133068626Y-112525301D02*
G01*
X133074693Y-112526201D01*
X133080643Y-112527691D01*
X133086418Y-112529758D01*
X133091962Y-112532380D01*
X133097223Y-112535533D01*
X133102150Y-112539187D01*
X133106694Y-112543306D01*
X133110813Y-112547850D01*
X133114467Y-112552777D01*
X133117620Y-112558038D01*
X133120242Y-112563582D01*
X133122309Y-112569357D01*
X133123799Y-112575307D01*
X133124699Y-112581374D01*
X133125000Y-112587500D01*
X133125000Y-113287500D01*
X133124699Y-113293626D01*
X133123799Y-113299693D01*
X133122309Y-113305643D01*
X133120242Y-113311418D01*
X133117620Y-113316962D01*
X133114467Y-113322223D01*
X133110813Y-113327150D01*
X133106694Y-113331694D01*
X133102150Y-113335813D01*
X133097223Y-113339467D01*
X133091962Y-113342620D01*
X133086418Y-113345242D01*
X133080643Y-113347309D01*
X133074693Y-113348799D01*
X133068626Y-113349699D01*
X133062500Y-113350000D01*
X132937500Y-113350000D01*
X132931374Y-113349699D01*
X132925307Y-113348799D01*
X132919357Y-113347309D01*
X132913582Y-113345242D01*
X132908038Y-113342620D01*
X132902777Y-113339467D01*
X132897850Y-113335813D01*
X132893306Y-113331694D01*
X132889187Y-113327150D01*
X132885533Y-113322223D01*
X132882380Y-113316962D01*
X132879758Y-113311418D01*
X132877691Y-113305643D01*
X132876201Y-113299693D01*
X132875301Y-113293626D01*
X132875000Y-113287500D01*
X132875000Y-112587500D01*
X132875301Y-112581374D01*
X132876201Y-112575307D01*
X132877691Y-112569357D01*
X132879758Y-112563582D01*
X132882380Y-112558038D01*
X132885533Y-112552777D01*
X132889187Y-112547850D01*
X132893306Y-112543306D01*
X132897850Y-112539187D01*
X132902777Y-112535533D01*
X132908038Y-112532380D01*
X132913582Y-112529758D01*
X132919357Y-112527691D01*
X132925307Y-112526201D01*
X132931374Y-112525301D01*
X132937500Y-112525000D01*
X133062500Y-112525000D01*
X133068626Y-112525301D01*
G37*
G36*
X132568626Y-112525301D02*
G01*
X132574693Y-112526201D01*
X132580643Y-112527691D01*
X132586418Y-112529758D01*
X132591962Y-112532380D01*
X132597223Y-112535533D01*
X132602150Y-112539187D01*
X132606694Y-112543306D01*
X132610813Y-112547850D01*
X132614467Y-112552777D01*
X132617620Y-112558038D01*
X132620242Y-112563582D01*
X132622309Y-112569357D01*
X132623799Y-112575307D01*
X132624699Y-112581374D01*
X132625000Y-112587500D01*
X132625000Y-113287500D01*
X132624699Y-113293626D01*
X132623799Y-113299693D01*
X132622309Y-113305643D01*
X132620242Y-113311418D01*
X132617620Y-113316962D01*
X132614467Y-113322223D01*
X132610813Y-113327150D01*
X132606694Y-113331694D01*
X132602150Y-113335813D01*
X132597223Y-113339467D01*
X132591962Y-113342620D01*
X132586418Y-113345242D01*
X132580643Y-113347309D01*
X132574693Y-113348799D01*
X132568626Y-113349699D01*
X132562500Y-113350000D01*
X132437500Y-113350000D01*
X132431374Y-113349699D01*
X132425307Y-113348799D01*
X132419357Y-113347309D01*
X132413582Y-113345242D01*
X132408038Y-113342620D01*
X132402777Y-113339467D01*
X132397850Y-113335813D01*
X132393306Y-113331694D01*
X132389187Y-113327150D01*
X132385533Y-113322223D01*
X132382380Y-113316962D01*
X132379758Y-113311418D01*
X132377691Y-113305643D01*
X132376201Y-113299693D01*
X132375301Y-113293626D01*
X132375000Y-113287500D01*
X132375000Y-112587500D01*
X132375301Y-112581374D01*
X132376201Y-112575307D01*
X132377691Y-112569357D01*
X132379758Y-112563582D01*
X132382380Y-112558038D01*
X132385533Y-112552777D01*
X132389187Y-112547850D01*
X132393306Y-112543306D01*
X132397850Y-112539187D01*
X132402777Y-112535533D01*
X132408038Y-112532380D01*
X132413582Y-112529758D01*
X132419357Y-112527691D01*
X132425307Y-112526201D01*
X132431374Y-112525301D01*
X132437500Y-112525000D01*
X132562500Y-112525000D01*
X132568626Y-112525301D01*
G37*
G36*
X131918626Y-111875301D02*
G01*
X131924693Y-111876201D01*
X131930643Y-111877691D01*
X131936418Y-111879758D01*
X131941962Y-111882380D01*
X131947223Y-111885533D01*
X131952150Y-111889187D01*
X131956694Y-111893306D01*
X131960813Y-111897850D01*
X131964467Y-111902777D01*
X131967620Y-111908038D01*
X131970242Y-111913582D01*
X131972309Y-111919357D01*
X131973799Y-111925307D01*
X131974699Y-111931374D01*
X131975000Y-111937500D01*
X131975000Y-112062500D01*
X131974699Y-112068626D01*
X131973799Y-112074693D01*
X131972309Y-112080643D01*
X131970242Y-112086418D01*
X131967620Y-112091962D01*
X131964467Y-112097223D01*
X131960813Y-112102150D01*
X131956694Y-112106694D01*
X131952150Y-112110813D01*
X131947223Y-112114467D01*
X131941962Y-112117620D01*
X131936418Y-112120242D01*
X131930643Y-112122309D01*
X131924693Y-112123799D01*
X131918626Y-112124699D01*
X131912500Y-112125000D01*
X131212500Y-112125000D01*
X131206374Y-112124699D01*
X131200307Y-112123799D01*
X131194357Y-112122309D01*
X131188582Y-112120242D01*
X131183038Y-112117620D01*
X131177777Y-112114467D01*
X131172850Y-112110813D01*
X131168306Y-112106694D01*
X131164187Y-112102150D01*
X131160533Y-112097223D01*
X131157380Y-112091962D01*
X131154758Y-112086418D01*
X131152691Y-112080643D01*
X131151201Y-112074693D01*
X131150301Y-112068626D01*
X131150000Y-112062500D01*
X131150000Y-111937500D01*
X131150301Y-111931374D01*
X131151201Y-111925307D01*
X131152691Y-111919357D01*
X131154758Y-111913582D01*
X131157380Y-111908038D01*
X131160533Y-111902777D01*
X131164187Y-111897850D01*
X131168306Y-111893306D01*
X131172850Y-111889187D01*
X131177777Y-111885533D01*
X131183038Y-111882380D01*
X131188582Y-111879758D01*
X131194357Y-111877691D01*
X131200307Y-111876201D01*
X131206374Y-111875301D01*
X131212500Y-111875000D01*
X131912500Y-111875000D01*
X131918626Y-111875301D01*
G37*
G36*
X131918626Y-111375301D02*
G01*
X131924693Y-111376201D01*
X131930643Y-111377691D01*
X131936418Y-111379758D01*
X131941962Y-111382380D01*
X131947223Y-111385533D01*
X131952150Y-111389187D01*
X131956694Y-111393306D01*
X131960813Y-111397850D01*
X131964467Y-111402777D01*
X131967620Y-111408038D01*
X131970242Y-111413582D01*
X131972309Y-111419357D01*
X131973799Y-111425307D01*
X131974699Y-111431374D01*
X131975000Y-111437500D01*
X131975000Y-111562500D01*
X131974699Y-111568626D01*
X131973799Y-111574693D01*
X131972309Y-111580643D01*
X131970242Y-111586418D01*
X131967620Y-111591962D01*
X131964467Y-111597223D01*
X131960813Y-111602150D01*
X131956694Y-111606694D01*
X131952150Y-111610813D01*
X131947223Y-111614467D01*
X131941962Y-111617620D01*
X131936418Y-111620242D01*
X131930643Y-111622309D01*
X131924693Y-111623799D01*
X131918626Y-111624699D01*
X131912500Y-111625000D01*
X131212500Y-111625000D01*
X131206374Y-111624699D01*
X131200307Y-111623799D01*
X131194357Y-111622309D01*
X131188582Y-111620242D01*
X131183038Y-111617620D01*
X131177777Y-111614467D01*
X131172850Y-111610813D01*
X131168306Y-111606694D01*
X131164187Y-111602150D01*
X131160533Y-111597223D01*
X131157380Y-111591962D01*
X131154758Y-111586418D01*
X131152691Y-111580643D01*
X131151201Y-111574693D01*
X131150301Y-111568626D01*
X131150000Y-111562500D01*
X131150000Y-111437500D01*
X131150301Y-111431374D01*
X131151201Y-111425307D01*
X131152691Y-111419357D01*
X131154758Y-111413582D01*
X131157380Y-111408038D01*
X131160533Y-111402777D01*
X131164187Y-111397850D01*
X131168306Y-111393306D01*
X131172850Y-111389187D01*
X131177777Y-111385533D01*
X131183038Y-111382380D01*
X131188582Y-111379758D01*
X131194357Y-111377691D01*
X131200307Y-111376201D01*
X131206374Y-111375301D01*
X131212500Y-111375000D01*
X131912500Y-111375000D01*
X131918626Y-111375301D01*
G37*
G36*
X131918626Y-110875301D02*
G01*
X131924693Y-110876201D01*
X131930643Y-110877691D01*
X131936418Y-110879758D01*
X131941962Y-110882380D01*
X131947223Y-110885533D01*
X131952150Y-110889187D01*
X131956694Y-110893306D01*
X131960813Y-110897850D01*
X131964467Y-110902777D01*
X131967620Y-110908038D01*
X131970242Y-110913582D01*
X131972309Y-110919357D01*
X131973799Y-110925307D01*
X131974699Y-110931374D01*
X131975000Y-110937500D01*
X131975000Y-111062500D01*
X131974699Y-111068626D01*
X131973799Y-111074693D01*
X131972309Y-111080643D01*
X131970242Y-111086418D01*
X131967620Y-111091962D01*
X131964467Y-111097223D01*
X131960813Y-111102150D01*
X131956694Y-111106694D01*
X131952150Y-111110813D01*
X131947223Y-111114467D01*
X131941962Y-111117620D01*
X131936418Y-111120242D01*
X131930643Y-111122309D01*
X131924693Y-111123799D01*
X131918626Y-111124699D01*
X131912500Y-111125000D01*
X131212500Y-111125000D01*
X131206374Y-111124699D01*
X131200307Y-111123799D01*
X131194357Y-111122309D01*
X131188582Y-111120242D01*
X131183038Y-111117620D01*
X131177777Y-111114467D01*
X131172850Y-111110813D01*
X131168306Y-111106694D01*
X131164187Y-111102150D01*
X131160533Y-111097223D01*
X131157380Y-111091962D01*
X131154758Y-111086418D01*
X131152691Y-111080643D01*
X131151201Y-111074693D01*
X131150301Y-111068626D01*
X131150000Y-111062500D01*
X131150000Y-110937500D01*
X131150301Y-110931374D01*
X131151201Y-110925307D01*
X131152691Y-110919357D01*
X131154758Y-110913582D01*
X131157380Y-110908038D01*
X131160533Y-110902777D01*
X131164187Y-110897850D01*
X131168306Y-110893306D01*
X131172850Y-110889187D01*
X131177777Y-110885533D01*
X131183038Y-110882380D01*
X131188582Y-110879758D01*
X131194357Y-110877691D01*
X131200307Y-110876201D01*
X131206374Y-110875301D01*
X131212500Y-110875000D01*
X131912500Y-110875000D01*
X131918626Y-110875301D01*
G37*
G36*
X131918626Y-110375301D02*
G01*
X131924693Y-110376201D01*
X131930643Y-110377691D01*
X131936418Y-110379758D01*
X131941962Y-110382380D01*
X131947223Y-110385533D01*
X131952150Y-110389187D01*
X131956694Y-110393306D01*
X131960813Y-110397850D01*
X131964467Y-110402777D01*
X131967620Y-110408038D01*
X131970242Y-110413582D01*
X131972309Y-110419357D01*
X131973799Y-110425307D01*
X131974699Y-110431374D01*
X131975000Y-110437500D01*
X131975000Y-110562500D01*
X131974699Y-110568626D01*
X131973799Y-110574693D01*
X131972309Y-110580643D01*
X131970242Y-110586418D01*
X131967620Y-110591962D01*
X131964467Y-110597223D01*
X131960813Y-110602150D01*
X131956694Y-110606694D01*
X131952150Y-110610813D01*
X131947223Y-110614467D01*
X131941962Y-110617620D01*
X131936418Y-110620242D01*
X131930643Y-110622309D01*
X131924693Y-110623799D01*
X131918626Y-110624699D01*
X131912500Y-110625000D01*
X131212500Y-110625000D01*
X131206374Y-110624699D01*
X131200307Y-110623799D01*
X131194357Y-110622309D01*
X131188582Y-110620242D01*
X131183038Y-110617620D01*
X131177777Y-110614467D01*
X131172850Y-110610813D01*
X131168306Y-110606694D01*
X131164187Y-110602150D01*
X131160533Y-110597223D01*
X131157380Y-110591962D01*
X131154758Y-110586418D01*
X131152691Y-110580643D01*
X131151201Y-110574693D01*
X131150301Y-110568626D01*
X131150000Y-110562500D01*
X131150000Y-110437500D01*
X131150301Y-110431374D01*
X131151201Y-110425307D01*
X131152691Y-110419357D01*
X131154758Y-110413582D01*
X131157380Y-110408038D01*
X131160533Y-110402777D01*
X131164187Y-110397850D01*
X131168306Y-110393306D01*
X131172850Y-110389187D01*
X131177777Y-110385533D01*
X131183038Y-110382380D01*
X131188582Y-110379758D01*
X131194357Y-110377691D01*
X131200307Y-110376201D01*
X131206374Y-110375301D01*
X131212500Y-110375000D01*
X131912500Y-110375000D01*
X131918626Y-110375301D01*
G37*
G36*
X131918626Y-109875301D02*
G01*
X131924693Y-109876201D01*
X131930643Y-109877691D01*
X131936418Y-109879758D01*
X131941962Y-109882380D01*
X131947223Y-109885533D01*
X131952150Y-109889187D01*
X131956694Y-109893306D01*
X131960813Y-109897850D01*
X131964467Y-109902777D01*
X131967620Y-109908038D01*
X131970242Y-109913582D01*
X131972309Y-109919357D01*
X131973799Y-109925307D01*
X131974699Y-109931374D01*
X131975000Y-109937500D01*
X131975000Y-110062500D01*
X131974699Y-110068626D01*
X131973799Y-110074693D01*
X131972309Y-110080643D01*
X131970242Y-110086418D01*
X131967620Y-110091962D01*
X131964467Y-110097223D01*
X131960813Y-110102150D01*
X131956694Y-110106694D01*
X131952150Y-110110813D01*
X131947223Y-110114467D01*
X131941962Y-110117620D01*
X131936418Y-110120242D01*
X131930643Y-110122309D01*
X131924693Y-110123799D01*
X131918626Y-110124699D01*
X131912500Y-110125000D01*
X131212500Y-110125000D01*
X131206374Y-110124699D01*
X131200307Y-110123799D01*
X131194357Y-110122309D01*
X131188582Y-110120242D01*
X131183038Y-110117620D01*
X131177777Y-110114467D01*
X131172850Y-110110813D01*
X131168306Y-110106694D01*
X131164187Y-110102150D01*
X131160533Y-110097223D01*
X131157380Y-110091962D01*
X131154758Y-110086418D01*
X131152691Y-110080643D01*
X131151201Y-110074693D01*
X131150301Y-110068626D01*
X131150000Y-110062500D01*
X131150000Y-109937500D01*
X131150301Y-109931374D01*
X131151201Y-109925307D01*
X131152691Y-109919357D01*
X131154758Y-109913582D01*
X131157380Y-109908038D01*
X131160533Y-109902777D01*
X131164187Y-109897850D01*
X131168306Y-109893306D01*
X131172850Y-109889187D01*
X131177777Y-109885533D01*
X131183038Y-109882380D01*
X131188582Y-109879758D01*
X131194357Y-109877691D01*
X131200307Y-109876201D01*
X131206374Y-109875301D01*
X131212500Y-109875000D01*
X131912500Y-109875000D01*
X131918626Y-109875301D01*
G37*
G36*
X131918626Y-109375301D02*
G01*
X131924693Y-109376201D01*
X131930643Y-109377691D01*
X131936418Y-109379758D01*
X131941962Y-109382380D01*
X131947223Y-109385533D01*
X131952150Y-109389187D01*
X131956694Y-109393306D01*
X131960813Y-109397850D01*
X131964467Y-109402777D01*
X131967620Y-109408038D01*
X131970242Y-109413582D01*
X131972309Y-109419357D01*
X131973799Y-109425307D01*
X131974699Y-109431374D01*
X131975000Y-109437500D01*
X131975000Y-109562500D01*
X131974699Y-109568626D01*
X131973799Y-109574693D01*
X131972309Y-109580643D01*
X131970242Y-109586418D01*
X131967620Y-109591962D01*
X131964467Y-109597223D01*
X131960813Y-109602150D01*
X131956694Y-109606694D01*
X131952150Y-109610813D01*
X131947223Y-109614467D01*
X131941962Y-109617620D01*
X131936418Y-109620242D01*
X131930643Y-109622309D01*
X131924693Y-109623799D01*
X131918626Y-109624699D01*
X131912500Y-109625000D01*
X131212500Y-109625000D01*
X131206374Y-109624699D01*
X131200307Y-109623799D01*
X131194357Y-109622309D01*
X131188582Y-109620242D01*
X131183038Y-109617620D01*
X131177777Y-109614467D01*
X131172850Y-109610813D01*
X131168306Y-109606694D01*
X131164187Y-109602150D01*
X131160533Y-109597223D01*
X131157380Y-109591962D01*
X131154758Y-109586418D01*
X131152691Y-109580643D01*
X131151201Y-109574693D01*
X131150301Y-109568626D01*
X131150000Y-109562500D01*
X131150000Y-109437500D01*
X131150301Y-109431374D01*
X131151201Y-109425307D01*
X131152691Y-109419357D01*
X131154758Y-109413582D01*
X131157380Y-109408038D01*
X131160533Y-109402777D01*
X131164187Y-109397850D01*
X131168306Y-109393306D01*
X131172850Y-109389187D01*
X131177777Y-109385533D01*
X131183038Y-109382380D01*
X131188582Y-109379758D01*
X131194357Y-109377691D01*
X131200307Y-109376201D01*
X131206374Y-109375301D01*
X131212500Y-109375000D01*
X131912500Y-109375000D01*
X131918626Y-109375301D01*
G37*
G36*
X131918626Y-108875301D02*
G01*
X131924693Y-108876201D01*
X131930643Y-108877691D01*
X131936418Y-108879758D01*
X131941962Y-108882380D01*
X131947223Y-108885533D01*
X131952150Y-108889187D01*
X131956694Y-108893306D01*
X131960813Y-108897850D01*
X131964467Y-108902777D01*
X131967620Y-108908038D01*
X131970242Y-108913582D01*
X131972309Y-108919357D01*
X131973799Y-108925307D01*
X131974699Y-108931374D01*
X131975000Y-108937500D01*
X131975000Y-109062500D01*
X131974699Y-109068626D01*
X131973799Y-109074693D01*
X131972309Y-109080643D01*
X131970242Y-109086418D01*
X131967620Y-109091962D01*
X131964467Y-109097223D01*
X131960813Y-109102150D01*
X131956694Y-109106694D01*
X131952150Y-109110813D01*
X131947223Y-109114467D01*
X131941962Y-109117620D01*
X131936418Y-109120242D01*
X131930643Y-109122309D01*
X131924693Y-109123799D01*
X131918626Y-109124699D01*
X131912500Y-109125000D01*
X131212500Y-109125000D01*
X131206374Y-109124699D01*
X131200307Y-109123799D01*
X131194357Y-109122309D01*
X131188582Y-109120242D01*
X131183038Y-109117620D01*
X131177777Y-109114467D01*
X131172850Y-109110813D01*
X131168306Y-109106694D01*
X131164187Y-109102150D01*
X131160533Y-109097223D01*
X131157380Y-109091962D01*
X131154758Y-109086418D01*
X131152691Y-109080643D01*
X131151201Y-109074693D01*
X131150301Y-109068626D01*
X131150000Y-109062500D01*
X131150000Y-108937500D01*
X131150301Y-108931374D01*
X131151201Y-108925307D01*
X131152691Y-108919357D01*
X131154758Y-108913582D01*
X131157380Y-108908038D01*
X131160533Y-108902777D01*
X131164187Y-108897850D01*
X131168306Y-108893306D01*
X131172850Y-108889187D01*
X131177777Y-108885533D01*
X131183038Y-108882380D01*
X131188582Y-108879758D01*
X131194357Y-108877691D01*
X131200307Y-108876201D01*
X131206374Y-108875301D01*
X131212500Y-108875000D01*
X131912500Y-108875000D01*
X131918626Y-108875301D01*
G37*
G36*
X131918626Y-108375301D02*
G01*
X131924693Y-108376201D01*
X131930643Y-108377691D01*
X131936418Y-108379758D01*
X131941962Y-108382380D01*
X131947223Y-108385533D01*
X131952150Y-108389187D01*
X131956694Y-108393306D01*
X131960813Y-108397850D01*
X131964467Y-108402777D01*
X131967620Y-108408038D01*
X131970242Y-108413582D01*
X131972309Y-108419357D01*
X131973799Y-108425307D01*
X131974699Y-108431374D01*
X131975000Y-108437500D01*
X131975000Y-108562500D01*
X131974699Y-108568626D01*
X131973799Y-108574693D01*
X131972309Y-108580643D01*
X131970242Y-108586418D01*
X131967620Y-108591962D01*
X131964467Y-108597223D01*
X131960813Y-108602150D01*
X131956694Y-108606694D01*
X131952150Y-108610813D01*
X131947223Y-108614467D01*
X131941962Y-108617620D01*
X131936418Y-108620242D01*
X131930643Y-108622309D01*
X131924693Y-108623799D01*
X131918626Y-108624699D01*
X131912500Y-108625000D01*
X131212500Y-108625000D01*
X131206374Y-108624699D01*
X131200307Y-108623799D01*
X131194357Y-108622309D01*
X131188582Y-108620242D01*
X131183038Y-108617620D01*
X131177777Y-108614467D01*
X131172850Y-108610813D01*
X131168306Y-108606694D01*
X131164187Y-108602150D01*
X131160533Y-108597223D01*
X131157380Y-108591962D01*
X131154758Y-108586418D01*
X131152691Y-108580643D01*
X131151201Y-108574693D01*
X131150301Y-108568626D01*
X131150000Y-108562500D01*
X131150000Y-108437500D01*
X131150301Y-108431374D01*
X131151201Y-108425307D01*
X131152691Y-108419357D01*
X131154758Y-108413582D01*
X131157380Y-108408038D01*
X131160533Y-108402777D01*
X131164187Y-108397850D01*
X131168306Y-108393306D01*
X131172850Y-108389187D01*
X131177777Y-108385533D01*
X131183038Y-108382380D01*
X131188582Y-108379758D01*
X131194357Y-108377691D01*
X131200307Y-108376201D01*
X131206374Y-108375301D01*
X131212500Y-108375000D01*
X131912500Y-108375000D01*
X131918626Y-108375301D01*
G37*
G36*
X131918626Y-107875301D02*
G01*
X131924693Y-107876201D01*
X131930643Y-107877691D01*
X131936418Y-107879758D01*
X131941962Y-107882380D01*
X131947223Y-107885533D01*
X131952150Y-107889187D01*
X131956694Y-107893306D01*
X131960813Y-107897850D01*
X131964467Y-107902777D01*
X131967620Y-107908038D01*
X131970242Y-107913582D01*
X131972309Y-107919357D01*
X131973799Y-107925307D01*
X131974699Y-107931374D01*
X131975000Y-107937500D01*
X131975000Y-108062500D01*
X131974699Y-108068626D01*
X131973799Y-108074693D01*
X131972309Y-108080643D01*
X131970242Y-108086418D01*
X131967620Y-108091962D01*
X131964467Y-108097223D01*
X131960813Y-108102150D01*
X131956694Y-108106694D01*
X131952150Y-108110813D01*
X131947223Y-108114467D01*
X131941962Y-108117620D01*
X131936418Y-108120242D01*
X131930643Y-108122309D01*
X131924693Y-108123799D01*
X131918626Y-108124699D01*
X131912500Y-108125000D01*
X131212500Y-108125000D01*
X131206374Y-108124699D01*
X131200307Y-108123799D01*
X131194357Y-108122309D01*
X131188582Y-108120242D01*
X131183038Y-108117620D01*
X131177777Y-108114467D01*
X131172850Y-108110813D01*
X131168306Y-108106694D01*
X131164187Y-108102150D01*
X131160533Y-108097223D01*
X131157380Y-108091962D01*
X131154758Y-108086418D01*
X131152691Y-108080643D01*
X131151201Y-108074693D01*
X131150301Y-108068626D01*
X131150000Y-108062500D01*
X131150000Y-107937500D01*
X131150301Y-107931374D01*
X131151201Y-107925307D01*
X131152691Y-107919357D01*
X131154758Y-107913582D01*
X131157380Y-107908038D01*
X131160533Y-107902777D01*
X131164187Y-107897850D01*
X131168306Y-107893306D01*
X131172850Y-107889187D01*
X131177777Y-107885533D01*
X131183038Y-107882380D01*
X131188582Y-107879758D01*
X131194357Y-107877691D01*
X131200307Y-107876201D01*
X131206374Y-107875301D01*
X131212500Y-107875000D01*
X131912500Y-107875000D01*
X131918626Y-107875301D01*
G37*
G36*
X136001759Y-110736192D02*
G01*
X136025785Y-110739756D01*
X136049345Y-110745657D01*
X136072214Y-110753840D01*
X136094171Y-110764224D01*
X136115004Y-110776711D01*
X136134512Y-110791180D01*
X136152509Y-110807491D01*
X136168820Y-110825488D01*
X136183289Y-110844996D01*
X136195776Y-110865829D01*
X136206160Y-110887786D01*
X136214343Y-110910655D01*
X136220244Y-110934215D01*
X136223808Y-110958241D01*
X136225000Y-110982500D01*
X136225000Y-111477500D01*
X136223808Y-111501759D01*
X136220244Y-111525785D01*
X136214343Y-111549345D01*
X136206160Y-111572214D01*
X136195776Y-111594171D01*
X136183289Y-111615004D01*
X136168820Y-111634512D01*
X136152509Y-111652509D01*
X136134512Y-111668820D01*
X136115004Y-111683289D01*
X136094171Y-111695776D01*
X136072214Y-111706160D01*
X136049345Y-111714343D01*
X136025785Y-111720244D01*
X136001759Y-111723808D01*
X135977500Y-111725000D01*
X135482500Y-111725000D01*
X135458241Y-111723808D01*
X135434215Y-111720244D01*
X135410655Y-111714343D01*
X135387786Y-111706160D01*
X135365829Y-111695776D01*
X135344996Y-111683289D01*
X135325488Y-111668820D01*
X135307491Y-111652509D01*
X135291180Y-111634512D01*
X135276711Y-111615004D01*
X135264224Y-111594171D01*
X135253840Y-111572214D01*
X135245657Y-111549345D01*
X135239756Y-111525785D01*
X135236192Y-111501759D01*
X135235000Y-111477500D01*
X135235000Y-110982500D01*
X135236192Y-110958241D01*
X135239756Y-110934215D01*
X135245657Y-110910655D01*
X135253840Y-110887786D01*
X135264224Y-110865829D01*
X135276711Y-110844996D01*
X135291180Y-110825488D01*
X135307491Y-110807491D01*
X135325488Y-110791180D01*
X135344996Y-110776711D01*
X135365829Y-110764224D01*
X135387786Y-110753840D01*
X135410655Y-110745657D01*
X135434215Y-110739756D01*
X135458241Y-110736192D01*
X135482500Y-110735000D01*
X135977500Y-110735000D01*
X136001759Y-110736192D01*
G37*
G36*
X136001759Y-109506192D02*
G01*
X136025785Y-109509756D01*
X136049345Y-109515657D01*
X136072214Y-109523840D01*
X136094171Y-109534224D01*
X136115004Y-109546711D01*
X136134512Y-109561180D01*
X136152509Y-109577491D01*
X136168820Y-109595488D01*
X136183289Y-109614996D01*
X136195776Y-109635829D01*
X136206160Y-109657786D01*
X136214343Y-109680655D01*
X136220244Y-109704215D01*
X136223808Y-109728241D01*
X136225000Y-109752500D01*
X136225000Y-110247500D01*
X136223808Y-110271759D01*
X136220244Y-110295785D01*
X136214343Y-110319345D01*
X136206160Y-110342214D01*
X136195776Y-110364171D01*
X136183289Y-110385004D01*
X136168820Y-110404512D01*
X136152509Y-110422509D01*
X136134512Y-110438820D01*
X136115004Y-110453289D01*
X136094171Y-110465776D01*
X136072214Y-110476160D01*
X136049345Y-110484343D01*
X136025785Y-110490244D01*
X136001759Y-110493808D01*
X135977500Y-110495000D01*
X135482500Y-110495000D01*
X135458241Y-110493808D01*
X135434215Y-110490244D01*
X135410655Y-110484343D01*
X135387786Y-110476160D01*
X135365829Y-110465776D01*
X135344996Y-110453289D01*
X135325488Y-110438820D01*
X135307491Y-110422509D01*
X135291180Y-110404512D01*
X135276711Y-110385004D01*
X135264224Y-110364171D01*
X135253840Y-110342214D01*
X135245657Y-110319345D01*
X135239756Y-110295785D01*
X135236192Y-110271759D01*
X135235000Y-110247500D01*
X135235000Y-109752500D01*
X135236192Y-109728241D01*
X135239756Y-109704215D01*
X135245657Y-109680655D01*
X135253840Y-109657786D01*
X135264224Y-109635829D01*
X135276711Y-109614996D01*
X135291180Y-109595488D01*
X135307491Y-109577491D01*
X135325488Y-109561180D01*
X135344996Y-109546711D01*
X135365829Y-109534224D01*
X135387786Y-109523840D01*
X135410655Y-109515657D01*
X135434215Y-109509756D01*
X135458241Y-109506192D01*
X135482500Y-109505000D01*
X135977500Y-109505000D01*
X136001759Y-109506192D01*
G37*
G36*
X136001759Y-108276192D02*
G01*
X136025785Y-108279756D01*
X136049345Y-108285657D01*
X136072214Y-108293840D01*
X136094171Y-108304224D01*
X136115004Y-108316711D01*
X136134512Y-108331180D01*
X136152509Y-108347491D01*
X136168820Y-108365488D01*
X136183289Y-108384996D01*
X136195776Y-108405829D01*
X136206160Y-108427786D01*
X136214343Y-108450655D01*
X136220244Y-108474215D01*
X136223808Y-108498241D01*
X136225000Y-108522500D01*
X136225000Y-109017500D01*
X136223808Y-109041759D01*
X136220244Y-109065785D01*
X136214343Y-109089345D01*
X136206160Y-109112214D01*
X136195776Y-109134171D01*
X136183289Y-109155004D01*
X136168820Y-109174512D01*
X136152509Y-109192509D01*
X136134512Y-109208820D01*
X136115004Y-109223289D01*
X136094171Y-109235776D01*
X136072214Y-109246160D01*
X136049345Y-109254343D01*
X136025785Y-109260244D01*
X136001759Y-109263808D01*
X135977500Y-109265000D01*
X135482500Y-109265000D01*
X135458241Y-109263808D01*
X135434215Y-109260244D01*
X135410655Y-109254343D01*
X135387786Y-109246160D01*
X135365829Y-109235776D01*
X135344996Y-109223289D01*
X135325488Y-109208820D01*
X135307491Y-109192509D01*
X135291180Y-109174512D01*
X135276711Y-109155004D01*
X135264224Y-109134171D01*
X135253840Y-109112214D01*
X135245657Y-109089345D01*
X135239756Y-109065785D01*
X135236192Y-109041759D01*
X135235000Y-109017500D01*
X135235000Y-108522500D01*
X135236192Y-108498241D01*
X135239756Y-108474215D01*
X135245657Y-108450655D01*
X135253840Y-108427786D01*
X135264224Y-108405829D01*
X135276711Y-108384996D01*
X135291180Y-108365488D01*
X135307491Y-108347491D01*
X135325488Y-108331180D01*
X135344996Y-108316711D01*
X135365829Y-108304224D01*
X135387786Y-108293840D01*
X135410655Y-108285657D01*
X135434215Y-108279756D01*
X135458241Y-108276192D01*
X135482500Y-108275000D01*
X135977500Y-108275000D01*
X136001759Y-108276192D01*
G37*
G36*
X134771759Y-110736192D02*
G01*
X134795785Y-110739756D01*
X134819345Y-110745657D01*
X134842214Y-110753840D01*
X134864171Y-110764224D01*
X134885004Y-110776711D01*
X134904512Y-110791180D01*
X134922509Y-110807491D01*
X134938820Y-110825488D01*
X134953289Y-110844996D01*
X134965776Y-110865829D01*
X134976160Y-110887786D01*
X134984343Y-110910655D01*
X134990244Y-110934215D01*
X134993808Y-110958241D01*
X134995000Y-110982500D01*
X134995000Y-111477500D01*
X134993808Y-111501759D01*
X134990244Y-111525785D01*
X134984343Y-111549345D01*
X134976160Y-111572214D01*
X134965776Y-111594171D01*
X134953289Y-111615004D01*
X134938820Y-111634512D01*
X134922509Y-111652509D01*
X134904512Y-111668820D01*
X134885004Y-111683289D01*
X134864171Y-111695776D01*
X134842214Y-111706160D01*
X134819345Y-111714343D01*
X134795785Y-111720244D01*
X134771759Y-111723808D01*
X134747500Y-111725000D01*
X134252500Y-111725000D01*
X134228241Y-111723808D01*
X134204215Y-111720244D01*
X134180655Y-111714343D01*
X134157786Y-111706160D01*
X134135829Y-111695776D01*
X134114996Y-111683289D01*
X134095488Y-111668820D01*
X134077491Y-111652509D01*
X134061180Y-111634512D01*
X134046711Y-111615004D01*
X134034224Y-111594171D01*
X134023840Y-111572214D01*
X134015657Y-111549345D01*
X134009756Y-111525785D01*
X134006192Y-111501759D01*
X134005000Y-111477500D01*
X134005000Y-110982500D01*
X134006192Y-110958241D01*
X134009756Y-110934215D01*
X134015657Y-110910655D01*
X134023840Y-110887786D01*
X134034224Y-110865829D01*
X134046711Y-110844996D01*
X134061180Y-110825488D01*
X134077491Y-110807491D01*
X134095488Y-110791180D01*
X134114996Y-110776711D01*
X134135829Y-110764224D01*
X134157786Y-110753840D01*
X134180655Y-110745657D01*
X134204215Y-110739756D01*
X134228241Y-110736192D01*
X134252500Y-110735000D01*
X134747500Y-110735000D01*
X134771759Y-110736192D01*
G37*
G36*
X134771759Y-109506192D02*
G01*
X134795785Y-109509756D01*
X134819345Y-109515657D01*
X134842214Y-109523840D01*
X134864171Y-109534224D01*
X134885004Y-109546711D01*
X134904512Y-109561180D01*
X134922509Y-109577491D01*
X134938820Y-109595488D01*
X134953289Y-109614996D01*
X134965776Y-109635829D01*
X134976160Y-109657786D01*
X134984343Y-109680655D01*
X134990244Y-109704215D01*
X134993808Y-109728241D01*
X134995000Y-109752500D01*
X134995000Y-110247500D01*
X134993808Y-110271759D01*
X134990244Y-110295785D01*
X134984343Y-110319345D01*
X134976160Y-110342214D01*
X134965776Y-110364171D01*
X134953289Y-110385004D01*
X134938820Y-110404512D01*
X134922509Y-110422509D01*
X134904512Y-110438820D01*
X134885004Y-110453289D01*
X134864171Y-110465776D01*
X134842214Y-110476160D01*
X134819345Y-110484343D01*
X134795785Y-110490244D01*
X134771759Y-110493808D01*
X134747500Y-110495000D01*
X134252500Y-110495000D01*
X134228241Y-110493808D01*
X134204215Y-110490244D01*
X134180655Y-110484343D01*
X134157786Y-110476160D01*
X134135829Y-110465776D01*
X134114996Y-110453289D01*
X134095488Y-110438820D01*
X134077491Y-110422509D01*
X134061180Y-110404512D01*
X134046711Y-110385004D01*
X134034224Y-110364171D01*
X134023840Y-110342214D01*
X134015657Y-110319345D01*
X134009756Y-110295785D01*
X134006192Y-110271759D01*
X134005000Y-110247500D01*
X134005000Y-109752500D01*
X134006192Y-109728241D01*
X134009756Y-109704215D01*
X134015657Y-109680655D01*
X134023840Y-109657786D01*
X134034224Y-109635829D01*
X134046711Y-109614996D01*
X134061180Y-109595488D01*
X134077491Y-109577491D01*
X134095488Y-109561180D01*
X134114996Y-109546711D01*
X134135829Y-109534224D01*
X134157786Y-109523840D01*
X134180655Y-109515657D01*
X134204215Y-109509756D01*
X134228241Y-109506192D01*
X134252500Y-109505000D01*
X134747500Y-109505000D01*
X134771759Y-109506192D01*
G37*
G36*
X134771759Y-108276192D02*
G01*
X134795785Y-108279756D01*
X134819345Y-108285657D01*
X134842214Y-108293840D01*
X134864171Y-108304224D01*
X134885004Y-108316711D01*
X134904512Y-108331180D01*
X134922509Y-108347491D01*
X134938820Y-108365488D01*
X134953289Y-108384996D01*
X134965776Y-108405829D01*
X134976160Y-108427786D01*
X134984343Y-108450655D01*
X134990244Y-108474215D01*
X134993808Y-108498241D01*
X134995000Y-108522500D01*
X134995000Y-109017500D01*
X134993808Y-109041759D01*
X134990244Y-109065785D01*
X134984343Y-109089345D01*
X134976160Y-109112214D01*
X134965776Y-109134171D01*
X134953289Y-109155004D01*
X134938820Y-109174512D01*
X134922509Y-109192509D01*
X134904512Y-109208820D01*
X134885004Y-109223289D01*
X134864171Y-109235776D01*
X134842214Y-109246160D01*
X134819345Y-109254343D01*
X134795785Y-109260244D01*
X134771759Y-109263808D01*
X134747500Y-109265000D01*
X134252500Y-109265000D01*
X134228241Y-109263808D01*
X134204215Y-109260244D01*
X134180655Y-109254343D01*
X134157786Y-109246160D01*
X134135829Y-109235776D01*
X134114996Y-109223289D01*
X134095488Y-109208820D01*
X134077491Y-109192509D01*
X134061180Y-109174512D01*
X134046711Y-109155004D01*
X134034224Y-109134171D01*
X134023840Y-109112214D01*
X134015657Y-109089345D01*
X134009756Y-109065785D01*
X134006192Y-109041759D01*
X134005000Y-109017500D01*
X134005000Y-108522500D01*
X134006192Y-108498241D01*
X134009756Y-108474215D01*
X134015657Y-108450655D01*
X134023840Y-108427786D01*
X134034224Y-108405829D01*
X134046711Y-108384996D01*
X134061180Y-108365488D01*
X134077491Y-108347491D01*
X134095488Y-108331180D01*
X134114996Y-108316711D01*
X134135829Y-108304224D01*
X134157786Y-108293840D01*
X134180655Y-108285657D01*
X134204215Y-108279756D01*
X134228241Y-108276192D01*
X134252500Y-108275000D01*
X134747500Y-108275000D01*
X134771759Y-108276192D01*
G37*
G36*
X133541759Y-110736192D02*
G01*
X133565785Y-110739756D01*
X133589345Y-110745657D01*
X133612214Y-110753840D01*
X133634171Y-110764224D01*
X133655004Y-110776711D01*
X133674512Y-110791180D01*
X133692509Y-110807491D01*
X133708820Y-110825488D01*
X133723289Y-110844996D01*
X133735776Y-110865829D01*
X133746160Y-110887786D01*
X133754343Y-110910655D01*
X133760244Y-110934215D01*
X133763808Y-110958241D01*
X133765000Y-110982500D01*
X133765000Y-111477500D01*
X133763808Y-111501759D01*
X133760244Y-111525785D01*
X133754343Y-111549345D01*
X133746160Y-111572214D01*
X133735776Y-111594171D01*
X133723289Y-111615004D01*
X133708820Y-111634512D01*
X133692509Y-111652509D01*
X133674512Y-111668820D01*
X133655004Y-111683289D01*
X133634171Y-111695776D01*
X133612214Y-111706160D01*
X133589345Y-111714343D01*
X133565785Y-111720244D01*
X133541759Y-111723808D01*
X133517500Y-111725000D01*
X133022500Y-111725000D01*
X132998241Y-111723808D01*
X132974215Y-111720244D01*
X132950655Y-111714343D01*
X132927786Y-111706160D01*
X132905829Y-111695776D01*
X132884996Y-111683289D01*
X132865488Y-111668820D01*
X132847491Y-111652509D01*
X132831180Y-111634512D01*
X132816711Y-111615004D01*
X132804224Y-111594171D01*
X132793840Y-111572214D01*
X132785657Y-111549345D01*
X132779756Y-111525785D01*
X132776192Y-111501759D01*
X132775000Y-111477500D01*
X132775000Y-110982500D01*
X132776192Y-110958241D01*
X132779756Y-110934215D01*
X132785657Y-110910655D01*
X132793840Y-110887786D01*
X132804224Y-110865829D01*
X132816711Y-110844996D01*
X132831180Y-110825488D01*
X132847491Y-110807491D01*
X132865488Y-110791180D01*
X132884996Y-110776711D01*
X132905829Y-110764224D01*
X132927786Y-110753840D01*
X132950655Y-110745657D01*
X132974215Y-110739756D01*
X132998241Y-110736192D01*
X133022500Y-110735000D01*
X133517500Y-110735000D01*
X133541759Y-110736192D01*
G37*
G36*
X133541759Y-109506192D02*
G01*
X133565785Y-109509756D01*
X133589345Y-109515657D01*
X133612214Y-109523840D01*
X133634171Y-109534224D01*
X133655004Y-109546711D01*
X133674512Y-109561180D01*
X133692509Y-109577491D01*
X133708820Y-109595488D01*
X133723289Y-109614996D01*
X133735776Y-109635829D01*
X133746160Y-109657786D01*
X133754343Y-109680655D01*
X133760244Y-109704215D01*
X133763808Y-109728241D01*
X133765000Y-109752500D01*
X133765000Y-110247500D01*
X133763808Y-110271759D01*
X133760244Y-110295785D01*
X133754343Y-110319345D01*
X133746160Y-110342214D01*
X133735776Y-110364171D01*
X133723289Y-110385004D01*
X133708820Y-110404512D01*
X133692509Y-110422509D01*
X133674512Y-110438820D01*
X133655004Y-110453289D01*
X133634171Y-110465776D01*
X133612214Y-110476160D01*
X133589345Y-110484343D01*
X133565785Y-110490244D01*
X133541759Y-110493808D01*
X133517500Y-110495000D01*
X133022500Y-110495000D01*
X132998241Y-110493808D01*
X132974215Y-110490244D01*
X132950655Y-110484343D01*
X132927786Y-110476160D01*
X132905829Y-110465776D01*
X132884996Y-110453289D01*
X132865488Y-110438820D01*
X132847491Y-110422509D01*
X132831180Y-110404512D01*
X132816711Y-110385004D01*
X132804224Y-110364171D01*
X132793840Y-110342214D01*
X132785657Y-110319345D01*
X132779756Y-110295785D01*
X132776192Y-110271759D01*
X132775000Y-110247500D01*
X132775000Y-109752500D01*
X132776192Y-109728241D01*
X132779756Y-109704215D01*
X132785657Y-109680655D01*
X132793840Y-109657786D01*
X132804224Y-109635829D01*
X132816711Y-109614996D01*
X132831180Y-109595488D01*
X132847491Y-109577491D01*
X132865488Y-109561180D01*
X132884996Y-109546711D01*
X132905829Y-109534224D01*
X132927786Y-109523840D01*
X132950655Y-109515657D01*
X132974215Y-109509756D01*
X132998241Y-109506192D01*
X133022500Y-109505000D01*
X133517500Y-109505000D01*
X133541759Y-109506192D01*
G37*
G36*
X133541759Y-108276192D02*
G01*
X133565785Y-108279756D01*
X133589345Y-108285657D01*
X133612214Y-108293840D01*
X133634171Y-108304224D01*
X133655004Y-108316711D01*
X133674512Y-108331180D01*
X133692509Y-108347491D01*
X133708820Y-108365488D01*
X133723289Y-108384996D01*
X133735776Y-108405829D01*
X133746160Y-108427786D01*
X133754343Y-108450655D01*
X133760244Y-108474215D01*
X133763808Y-108498241D01*
X133765000Y-108522500D01*
X133765000Y-109017500D01*
X133763808Y-109041759D01*
X133760244Y-109065785D01*
X133754343Y-109089345D01*
X133746160Y-109112214D01*
X133735776Y-109134171D01*
X133723289Y-109155004D01*
X133708820Y-109174512D01*
X133692509Y-109192509D01*
X133674512Y-109208820D01*
X133655004Y-109223289D01*
X133634171Y-109235776D01*
X133612214Y-109246160D01*
X133589345Y-109254343D01*
X133565785Y-109260244D01*
X133541759Y-109263808D01*
X133517500Y-109265000D01*
X133022500Y-109265000D01*
X132998241Y-109263808D01*
X132974215Y-109260244D01*
X132950655Y-109254343D01*
X132927786Y-109246160D01*
X132905829Y-109235776D01*
X132884996Y-109223289D01*
X132865488Y-109208820D01*
X132847491Y-109192509D01*
X132831180Y-109174512D01*
X132816711Y-109155004D01*
X132804224Y-109134171D01*
X132793840Y-109112214D01*
X132785657Y-109089345D01*
X132779756Y-109065785D01*
X132776192Y-109041759D01*
X132775000Y-109017500D01*
X132775000Y-108522500D01*
X132776192Y-108498241D01*
X132779756Y-108474215D01*
X132785657Y-108450655D01*
X132793840Y-108427786D01*
X132804224Y-108405829D01*
X132816711Y-108384996D01*
X132831180Y-108365488D01*
X132847491Y-108347491D01*
X132865488Y-108331180D01*
X132884996Y-108316711D01*
X132905829Y-108304224D01*
X132927786Y-108293840D01*
X132950655Y-108285657D01*
X132974215Y-108279756D01*
X132998241Y-108276192D01*
X133022500Y-108275000D01*
X133517500Y-108275000D01*
X133541759Y-108276192D01*
G37*
D13*
X127100000Y-103112500D03*
X127100000Y-103887500D03*
X125900000Y-103887500D03*
X125900000Y-103112500D03*
D14*
X127475000Y-105050000D03*
X126825000Y-105050000D03*
X126175000Y-105050000D03*
X125525000Y-105050000D03*
X125525000Y-101950000D03*
X126175000Y-101950000D03*
X126825000Y-101950000D03*
X127475000Y-101950000D03*
D15*
X157862500Y-109400000D03*
X158637500Y-109400000D03*
X158637500Y-110600000D03*
X157862500Y-110600000D03*
D16*
X159800000Y-109025000D03*
X159800000Y-109675000D03*
X159800000Y-110325000D03*
X159800000Y-110975000D03*
X156700000Y-110975000D03*
X156700000Y-110325000D03*
X156700000Y-109675000D03*
X156700000Y-109025000D03*
D17*
X148625000Y-97425000D03*
X147875000Y-97425000D03*
X148625000Y-98075000D03*
X147875000Y-98075000D03*
D18*
X147500000Y-96250000D03*
X148000000Y-96250000D03*
X148500000Y-96250000D03*
X149000000Y-96250000D03*
X149000000Y-99250000D03*
X148500000Y-99250000D03*
X148000000Y-99250000D03*
X147500000Y-99250000D03*
M02*
