G04 #@! TF.GenerationSoftware,KiCad,Pcbnew,(5.1.5-0-10_14)*
G04 #@! TF.CreationDate,2020-04-12T13:45:19-07:00*
G04 #@! TF.ProjectId,kimchi_usb_ulid,6b696d63-6869-45f7-9573-625f756c6964,v0.1*
G04 #@! TF.SameCoordinates,Original*
G04 #@! TF.FileFunction,Soldermask,Top*
G04 #@! TF.FilePolarity,Negative*
%FSLAX46Y46*%
G04 Gerber Fmt 4.6, Leading zero omitted, Abs format (unit mm)*
G04 Created by KiCad (PCBNEW (5.1.5-0-10_14)) date 2020-04-12 13:45:19*
%MOMM*%
%LPD*%
G04 APERTURE LIST*
%ADD10C,0.100000*%
%ADD11C,0.150000*%
G04 APERTURE END LIST*
D10*
G36*
X155000000Y-117500000D02*
G01*
X140000000Y-117500000D01*
X140000000Y-102500000D01*
X155000000Y-102500000D01*
X155000000Y-117500000D01*
G37*
X155000000Y-117500000D02*
X140000000Y-117500000D01*
X140000000Y-102500000D01*
X155000000Y-102500000D01*
X155000000Y-117500000D01*
D11*
X107000000Y-126000000D02*
X107000000Y-94000000D01*
X172000000Y-126000000D02*
X107000000Y-126000000D01*
X172000000Y-94000000D02*
X172000000Y-126000000D01*
X107000000Y-94000000D02*
X172000000Y-94000000D01*
D10*
G36*
X143344041Y-119647226D02*
G01*
X143808258Y-119839510D01*
X144226041Y-120118665D01*
X144581335Y-120473959D01*
X144860490Y-120891742D01*
X145052774Y-121355959D01*
X145150800Y-121848769D01*
X145150800Y-122351231D01*
X145052774Y-122844041D01*
X144860490Y-123308258D01*
X144581335Y-123726041D01*
X144226041Y-124081335D01*
X143808258Y-124360490D01*
X143344041Y-124552774D01*
X142851232Y-124650800D01*
X142348768Y-124650800D01*
X141855959Y-124552774D01*
X141391742Y-124360490D01*
X140973959Y-124081335D01*
X140618665Y-123726041D01*
X140339510Y-123308258D01*
X140147226Y-122844041D01*
X140049200Y-122351231D01*
X140049200Y-121848769D01*
X140147226Y-121355959D01*
X140339510Y-120891742D01*
X140618665Y-120473959D01*
X140973959Y-120118665D01*
X141391742Y-119839510D01*
X141855959Y-119647226D01*
X142348768Y-119549200D01*
X142851232Y-119549200D01*
X143344041Y-119647226D01*
G37*
G36*
X119194041Y-119647226D02*
G01*
X119658258Y-119839510D01*
X120076041Y-120118665D01*
X120431335Y-120473959D01*
X120710490Y-120891742D01*
X120902774Y-121355959D01*
X121000800Y-121848769D01*
X121000800Y-122351231D01*
X120902774Y-122844041D01*
X120710490Y-123308258D01*
X120431335Y-123726041D01*
X120076041Y-124081335D01*
X119658258Y-124360490D01*
X119194041Y-124552774D01*
X118701232Y-124650800D01*
X118198768Y-124650800D01*
X117705959Y-124552774D01*
X117241742Y-124360490D01*
X116823959Y-124081335D01*
X116468665Y-123726041D01*
X116189510Y-123308258D01*
X115997226Y-122844041D01*
X115899200Y-122351231D01*
X115899200Y-121848769D01*
X115997226Y-121355959D01*
X116189510Y-120891742D01*
X116468665Y-120473959D01*
X116823959Y-120118665D01*
X117241742Y-119839510D01*
X117705959Y-119647226D01*
X118198768Y-119549200D01*
X118701232Y-119549200D01*
X119194041Y-119647226D01*
G37*
G36*
X170522352Y-115218796D02*
G01*
X170706145Y-115294926D01*
X170804580Y-115335699D01*
X170849054Y-115365416D01*
X171058578Y-115505415D01*
X171274585Y-115721422D01*
X171350756Y-115835421D01*
X171444301Y-115975420D01*
X171444301Y-115975421D01*
X171561204Y-116257648D01*
X171620800Y-116557259D01*
X171620800Y-116862741D01*
X171561204Y-117162352D01*
X171502291Y-117304579D01*
X171444301Y-117444580D01*
X171376322Y-117546317D01*
X171274585Y-117698578D01*
X171058578Y-117914585D01*
X170906317Y-118016322D01*
X170804580Y-118084301D01*
X170721917Y-118118541D01*
X170522352Y-118201204D01*
X170222741Y-118260800D01*
X169917259Y-118260800D01*
X169617648Y-118201204D01*
X169418083Y-118118541D01*
X169335420Y-118084301D01*
X169233683Y-118016322D01*
X169081422Y-117914585D01*
X168865415Y-117698578D01*
X168763678Y-117546317D01*
X168695699Y-117444580D01*
X168637709Y-117304579D01*
X168578796Y-117162352D01*
X168519200Y-116862741D01*
X168519200Y-116557259D01*
X168578796Y-116257648D01*
X168695699Y-115975421D01*
X168695699Y-115975420D01*
X168789244Y-115835421D01*
X168865415Y-115721422D01*
X169081422Y-115505415D01*
X169290946Y-115365416D01*
X169335420Y-115335699D01*
X169433855Y-115294926D01*
X169617648Y-115218796D01*
X169917259Y-115159200D01*
X170222741Y-115159200D01*
X170522352Y-115218796D01*
G37*
G36*
X157382352Y-115218796D02*
G01*
X157566145Y-115294926D01*
X157664580Y-115335699D01*
X157709054Y-115365416D01*
X157918578Y-115505415D01*
X158134585Y-115721422D01*
X158210756Y-115835421D01*
X158304301Y-115975420D01*
X158304301Y-115975421D01*
X158421204Y-116257648D01*
X158480800Y-116557259D01*
X158480800Y-116862741D01*
X158421204Y-117162352D01*
X158362291Y-117304579D01*
X158304301Y-117444580D01*
X158236322Y-117546317D01*
X158134585Y-117698578D01*
X157918578Y-117914585D01*
X157766317Y-118016322D01*
X157664580Y-118084301D01*
X157581917Y-118118541D01*
X157382352Y-118201204D01*
X157082741Y-118260800D01*
X156777259Y-118260800D01*
X156477648Y-118201204D01*
X156278083Y-118118541D01*
X156195420Y-118084301D01*
X156093683Y-118016322D01*
X155941422Y-117914585D01*
X155725415Y-117698578D01*
X155623678Y-117546317D01*
X155555699Y-117444580D01*
X155497709Y-117304579D01*
X155438796Y-117162352D01*
X155379200Y-116862741D01*
X155379200Y-116557259D01*
X155438796Y-116257648D01*
X155555699Y-115975421D01*
X155555699Y-115975420D01*
X155649244Y-115835421D01*
X155725415Y-115721422D01*
X155941422Y-115505415D01*
X156150946Y-115365416D01*
X156195420Y-115335699D01*
X156293855Y-115294926D01*
X156477648Y-115218796D01*
X156777259Y-115159200D01*
X157082741Y-115159200D01*
X157382352Y-115218796D01*
G37*
G36*
X116742352Y-115078796D02*
G01*
X116919952Y-115152361D01*
X117024580Y-115195699D01*
X117125409Y-115263071D01*
X117278578Y-115365415D01*
X117494585Y-115581422D01*
X117557161Y-115675074D01*
X117664301Y-115835420D01*
X117664301Y-115835421D01*
X117781204Y-116117648D01*
X117840800Y-116417259D01*
X117840800Y-116722741D01*
X117781204Y-117022352D01*
X117698541Y-117221917D01*
X117664301Y-117304580D01*
X117596322Y-117406317D01*
X117494585Y-117558578D01*
X117278578Y-117774585D01*
X117126317Y-117876322D01*
X117024580Y-117944301D01*
X116941917Y-117978541D01*
X116742352Y-118061204D01*
X116442741Y-118120800D01*
X116137259Y-118120800D01*
X115837648Y-118061204D01*
X115638083Y-117978541D01*
X115555420Y-117944301D01*
X115453683Y-117876322D01*
X115301422Y-117774585D01*
X115085415Y-117558578D01*
X114983678Y-117406317D01*
X114915699Y-117304580D01*
X114881459Y-117221917D01*
X114798796Y-117022352D01*
X114739200Y-116722741D01*
X114739200Y-116417259D01*
X114798796Y-116117648D01*
X114915699Y-115835421D01*
X114915699Y-115835420D01*
X115022839Y-115675074D01*
X115085415Y-115581422D01*
X115301422Y-115365415D01*
X115454591Y-115263071D01*
X115555420Y-115195699D01*
X115660048Y-115152361D01*
X115837648Y-115078796D01*
X116137259Y-115019200D01*
X116442741Y-115019200D01*
X116742352Y-115078796D01*
G37*
G36*
X132746929Y-115142337D02*
G01*
X132775758Y-115151082D01*
X132802323Y-115165282D01*
X132825608Y-115184392D01*
X132844718Y-115207677D01*
X132858918Y-115234242D01*
X132867663Y-115263071D01*
X132870800Y-115294926D01*
X132870800Y-115675074D01*
X132867663Y-115706929D01*
X132858918Y-115735758D01*
X132844718Y-115762323D01*
X132825608Y-115785608D01*
X132802323Y-115804718D01*
X132775758Y-115818918D01*
X132746929Y-115827663D01*
X132715074Y-115830800D01*
X132284926Y-115830800D01*
X132253071Y-115827663D01*
X132224242Y-115818918D01*
X132197677Y-115804718D01*
X132174392Y-115785608D01*
X132155282Y-115762323D01*
X132141082Y-115735758D01*
X132132337Y-115706929D01*
X132129200Y-115675074D01*
X132129200Y-115294926D01*
X132132337Y-115263071D01*
X132141082Y-115234242D01*
X132155282Y-115207677D01*
X132174392Y-115184392D01*
X132197677Y-115165282D01*
X132224242Y-115151082D01*
X132253071Y-115142337D01*
X132284926Y-115139200D01*
X132715074Y-115139200D01*
X132746929Y-115142337D01*
G37*
G36*
X135746929Y-115142337D02*
G01*
X135775758Y-115151082D01*
X135802323Y-115165282D01*
X135825608Y-115184392D01*
X135844718Y-115207677D01*
X135858918Y-115234242D01*
X135867663Y-115263071D01*
X135870800Y-115294926D01*
X135870800Y-115675074D01*
X135867663Y-115706929D01*
X135858918Y-115735758D01*
X135844718Y-115762323D01*
X135825608Y-115785608D01*
X135802323Y-115804718D01*
X135775758Y-115818918D01*
X135746929Y-115827663D01*
X135715074Y-115830800D01*
X135284926Y-115830800D01*
X135253071Y-115827663D01*
X135224242Y-115818918D01*
X135197677Y-115804718D01*
X135174392Y-115785608D01*
X135155282Y-115762323D01*
X135141082Y-115735758D01*
X135132337Y-115706929D01*
X135129200Y-115675074D01*
X135129200Y-115294926D01*
X135132337Y-115263071D01*
X135141082Y-115234242D01*
X135155282Y-115207677D01*
X135174392Y-115184392D01*
X135197677Y-115165282D01*
X135224242Y-115151082D01*
X135253071Y-115142337D01*
X135284926Y-115139200D01*
X135715074Y-115139200D01*
X135746929Y-115142337D01*
G37*
G36*
X134746929Y-115142337D02*
G01*
X134775758Y-115151082D01*
X134802323Y-115165282D01*
X134825608Y-115184392D01*
X134844718Y-115207677D01*
X134858918Y-115234242D01*
X134867663Y-115263071D01*
X134870800Y-115294926D01*
X134870800Y-115675074D01*
X134867663Y-115706929D01*
X134858918Y-115735758D01*
X134844718Y-115762323D01*
X134825608Y-115785608D01*
X134802323Y-115804718D01*
X134775758Y-115818918D01*
X134746929Y-115827663D01*
X134715074Y-115830800D01*
X134284926Y-115830800D01*
X134253071Y-115827663D01*
X134224242Y-115818918D01*
X134197677Y-115804718D01*
X134174392Y-115785608D01*
X134155282Y-115762323D01*
X134141082Y-115735758D01*
X134132337Y-115706929D01*
X134129200Y-115675074D01*
X134129200Y-115294926D01*
X134132337Y-115263071D01*
X134141082Y-115234242D01*
X134155282Y-115207677D01*
X134174392Y-115184392D01*
X134197677Y-115165282D01*
X134224242Y-115151082D01*
X134253071Y-115142337D01*
X134284926Y-115139200D01*
X134715074Y-115139200D01*
X134746929Y-115142337D01*
G37*
G36*
X134746929Y-114172337D02*
G01*
X134775758Y-114181082D01*
X134802323Y-114195282D01*
X134825608Y-114214392D01*
X134844718Y-114237677D01*
X134858918Y-114264242D01*
X134867663Y-114293071D01*
X134870800Y-114324926D01*
X134870800Y-114705074D01*
X134867663Y-114736929D01*
X134858918Y-114765758D01*
X134844718Y-114792323D01*
X134825608Y-114815608D01*
X134802323Y-114834718D01*
X134775758Y-114848918D01*
X134746929Y-114857663D01*
X134715074Y-114860800D01*
X134284926Y-114860800D01*
X134253071Y-114857663D01*
X134224242Y-114848918D01*
X134197677Y-114834718D01*
X134174392Y-114815608D01*
X134155282Y-114792323D01*
X134141082Y-114765758D01*
X134132337Y-114736929D01*
X134129200Y-114705074D01*
X134129200Y-114324926D01*
X134132337Y-114293071D01*
X134141082Y-114264242D01*
X134155282Y-114237677D01*
X134174392Y-114214392D01*
X134197677Y-114195282D01*
X134224242Y-114181082D01*
X134253071Y-114172337D01*
X134284926Y-114169200D01*
X134715074Y-114169200D01*
X134746929Y-114172337D01*
G37*
G36*
X132746929Y-114172337D02*
G01*
X132775758Y-114181082D01*
X132802323Y-114195282D01*
X132825608Y-114214392D01*
X132844718Y-114237677D01*
X132858918Y-114264242D01*
X132867663Y-114293071D01*
X132870800Y-114324926D01*
X132870800Y-114705074D01*
X132867663Y-114736929D01*
X132858918Y-114765758D01*
X132844718Y-114792323D01*
X132825608Y-114815608D01*
X132802323Y-114834718D01*
X132775758Y-114848918D01*
X132746929Y-114857663D01*
X132715074Y-114860800D01*
X132284926Y-114860800D01*
X132253071Y-114857663D01*
X132224242Y-114848918D01*
X132197677Y-114834718D01*
X132174392Y-114815608D01*
X132155282Y-114792323D01*
X132141082Y-114765758D01*
X132132337Y-114736929D01*
X132129200Y-114705074D01*
X132129200Y-114324926D01*
X132132337Y-114293071D01*
X132141082Y-114264242D01*
X132155282Y-114237677D01*
X132174392Y-114214392D01*
X132197677Y-114195282D01*
X132224242Y-114181082D01*
X132253071Y-114172337D01*
X132284926Y-114169200D01*
X132715074Y-114169200D01*
X132746929Y-114172337D01*
G37*
G36*
X135746929Y-114172337D02*
G01*
X135775758Y-114181082D01*
X135802323Y-114195282D01*
X135825608Y-114214392D01*
X135844718Y-114237677D01*
X135858918Y-114264242D01*
X135867663Y-114293071D01*
X135870800Y-114324926D01*
X135870800Y-114705074D01*
X135867663Y-114736929D01*
X135858918Y-114765758D01*
X135844718Y-114792323D01*
X135825608Y-114815608D01*
X135802323Y-114834718D01*
X135775758Y-114848918D01*
X135746929Y-114857663D01*
X135715074Y-114860800D01*
X135284926Y-114860800D01*
X135253071Y-114857663D01*
X135224242Y-114848918D01*
X135197677Y-114834718D01*
X135174392Y-114815608D01*
X135155282Y-114792323D01*
X135141082Y-114765758D01*
X135132337Y-114736929D01*
X135129200Y-114705074D01*
X135129200Y-114324926D01*
X135132337Y-114293071D01*
X135141082Y-114264242D01*
X135155282Y-114237677D01*
X135174392Y-114214392D01*
X135197677Y-114195282D01*
X135224242Y-114181082D01*
X135253071Y-114172337D01*
X135284926Y-114169200D01*
X135715074Y-114169200D01*
X135746929Y-114172337D01*
G37*
G36*
X164748169Y-113181895D02*
G01*
X164857655Y-113227246D01*
X164903006Y-113246031D01*
X164958821Y-113283325D01*
X165042354Y-113339140D01*
X165160860Y-113457646D01*
X165216675Y-113541179D01*
X165253969Y-113596994D01*
X165253969Y-113596995D01*
X165318105Y-113751831D01*
X165350800Y-113916203D01*
X165350800Y-114083797D01*
X165318105Y-114248169D01*
X165279197Y-114342100D01*
X165253969Y-114403006D01*
X165216675Y-114458821D01*
X165160860Y-114542354D01*
X165042354Y-114660860D01*
X165001885Y-114687900D01*
X164903006Y-114753969D01*
X164857655Y-114772754D01*
X164748169Y-114818105D01*
X164583797Y-114850800D01*
X164416203Y-114850800D01*
X164251831Y-114818105D01*
X164142345Y-114772754D01*
X164096994Y-114753969D01*
X163998115Y-114687900D01*
X163957646Y-114660860D01*
X163839140Y-114542354D01*
X163783325Y-114458821D01*
X163746031Y-114403006D01*
X163720803Y-114342100D01*
X163681895Y-114248169D01*
X163649200Y-114083797D01*
X163649200Y-113916203D01*
X163681895Y-113751831D01*
X163746031Y-113596995D01*
X163746031Y-113596994D01*
X163783325Y-113541179D01*
X163839140Y-113457646D01*
X163957646Y-113339140D01*
X164041179Y-113283325D01*
X164096994Y-113246031D01*
X164142345Y-113227246D01*
X164251831Y-113181895D01*
X164416203Y-113149200D01*
X164583797Y-113149200D01*
X164748169Y-113181895D01*
G37*
G36*
X167248169Y-113181895D02*
G01*
X167357655Y-113227246D01*
X167403006Y-113246031D01*
X167458821Y-113283325D01*
X167542354Y-113339140D01*
X167660860Y-113457646D01*
X167716675Y-113541179D01*
X167753969Y-113596994D01*
X167753969Y-113596995D01*
X167818105Y-113751831D01*
X167850800Y-113916203D01*
X167850800Y-114083797D01*
X167818105Y-114248169D01*
X167779197Y-114342100D01*
X167753969Y-114403006D01*
X167716675Y-114458821D01*
X167660860Y-114542354D01*
X167542354Y-114660860D01*
X167501885Y-114687900D01*
X167403006Y-114753969D01*
X167357655Y-114772754D01*
X167248169Y-114818105D01*
X167083797Y-114850800D01*
X166916203Y-114850800D01*
X166751831Y-114818105D01*
X166642345Y-114772754D01*
X166596994Y-114753969D01*
X166498115Y-114687900D01*
X166457646Y-114660860D01*
X166339140Y-114542354D01*
X166283325Y-114458821D01*
X166246031Y-114403006D01*
X166220803Y-114342100D01*
X166181895Y-114248169D01*
X166149200Y-114083797D01*
X166149200Y-113916203D01*
X166181895Y-113751831D01*
X166246031Y-113596995D01*
X166246031Y-113596994D01*
X166283325Y-113541179D01*
X166339140Y-113457646D01*
X166457646Y-113339140D01*
X166541179Y-113283325D01*
X166596994Y-113246031D01*
X166642345Y-113227246D01*
X166751831Y-113181895D01*
X166916203Y-113149200D01*
X167083797Y-113149200D01*
X167248169Y-113181895D01*
G37*
G36*
X162748169Y-113181895D02*
G01*
X162857655Y-113227246D01*
X162903006Y-113246031D01*
X162958821Y-113283325D01*
X163042354Y-113339140D01*
X163160860Y-113457646D01*
X163216675Y-113541179D01*
X163253969Y-113596994D01*
X163253969Y-113596995D01*
X163318105Y-113751831D01*
X163350800Y-113916203D01*
X163350800Y-114083797D01*
X163318105Y-114248169D01*
X163279197Y-114342100D01*
X163253969Y-114403006D01*
X163216675Y-114458821D01*
X163160860Y-114542354D01*
X163042354Y-114660860D01*
X163001885Y-114687900D01*
X162903006Y-114753969D01*
X162857655Y-114772754D01*
X162748169Y-114818105D01*
X162583797Y-114850800D01*
X162416203Y-114850800D01*
X162251831Y-114818105D01*
X162142345Y-114772754D01*
X162096994Y-114753969D01*
X161998115Y-114687900D01*
X161957646Y-114660860D01*
X161839140Y-114542354D01*
X161783325Y-114458821D01*
X161746031Y-114403006D01*
X161720803Y-114342100D01*
X161681895Y-114248169D01*
X161649200Y-114083797D01*
X161649200Y-113916203D01*
X161681895Y-113751831D01*
X161746031Y-113596995D01*
X161746031Y-113596994D01*
X161783325Y-113541179D01*
X161839140Y-113457646D01*
X161957646Y-113339140D01*
X162041179Y-113283325D01*
X162096994Y-113246031D01*
X162142345Y-113227246D01*
X162251831Y-113181895D01*
X162416203Y-113149200D01*
X162583797Y-113149200D01*
X162748169Y-113181895D01*
G37*
G36*
X160850800Y-114850800D02*
G01*
X159149200Y-114850800D01*
X159149200Y-113149200D01*
X160850800Y-113149200D01*
X160850800Y-114850800D01*
G37*
G36*
X119248169Y-112681895D02*
G01*
X119357655Y-112727246D01*
X119403006Y-112746031D01*
X119458821Y-112783325D01*
X119542354Y-112839140D01*
X119660860Y-112957646D01*
X119716675Y-113041179D01*
X119753969Y-113096994D01*
X119753969Y-113096995D01*
X119818105Y-113251831D01*
X119850800Y-113416203D01*
X119850800Y-113583797D01*
X119818105Y-113748169D01*
X119772754Y-113857655D01*
X119753969Y-113903006D01*
X119745150Y-113916204D01*
X119660860Y-114042354D01*
X119542354Y-114160860D01*
X119490837Y-114195282D01*
X119403006Y-114253969D01*
X119357655Y-114272754D01*
X119248169Y-114318105D01*
X119083797Y-114350800D01*
X118916203Y-114350800D01*
X118751831Y-114318105D01*
X118642345Y-114272754D01*
X118596994Y-114253969D01*
X118509163Y-114195282D01*
X118457646Y-114160860D01*
X118339140Y-114042354D01*
X118254850Y-113916204D01*
X118246031Y-113903006D01*
X118227246Y-113857655D01*
X118181895Y-113748169D01*
X118149200Y-113583797D01*
X118149200Y-113416203D01*
X118181895Y-113251831D01*
X118246031Y-113096995D01*
X118246031Y-113096994D01*
X118283325Y-113041179D01*
X118339140Y-112957646D01*
X118457646Y-112839140D01*
X118541179Y-112783325D01*
X118596994Y-112746031D01*
X118642345Y-112727246D01*
X118751831Y-112681895D01*
X118916203Y-112649200D01*
X119083797Y-112649200D01*
X119248169Y-112681895D01*
G37*
G36*
X136120352Y-112475705D02*
G01*
X136133226Y-112479610D01*
X136145097Y-112485955D01*
X136155504Y-112494496D01*
X136164045Y-112504903D01*
X136170390Y-112516774D01*
X136174295Y-112529648D01*
X136175800Y-112544926D01*
X136175800Y-113330074D01*
X136174295Y-113345352D01*
X136170390Y-113358226D01*
X136164045Y-113370097D01*
X136155504Y-113380504D01*
X136145097Y-113389045D01*
X136133226Y-113395390D01*
X136120352Y-113399295D01*
X136105074Y-113400800D01*
X135894926Y-113400800D01*
X135879648Y-113399295D01*
X135866774Y-113395390D01*
X135854903Y-113389045D01*
X135844496Y-113380504D01*
X135835955Y-113370097D01*
X135829610Y-113358226D01*
X135825705Y-113345352D01*
X135824200Y-113330074D01*
X135824200Y-112544926D01*
X135825705Y-112529648D01*
X135829610Y-112516774D01*
X135835955Y-112504903D01*
X135844496Y-112494496D01*
X135854903Y-112485955D01*
X135866774Y-112479610D01*
X135879648Y-112475705D01*
X135894926Y-112474200D01*
X136105074Y-112474200D01*
X136120352Y-112475705D01*
G37*
G36*
X133120352Y-112475705D02*
G01*
X133133226Y-112479610D01*
X133145097Y-112485955D01*
X133155504Y-112494496D01*
X133164045Y-112504903D01*
X133170390Y-112516774D01*
X133174295Y-112529648D01*
X133175800Y-112544926D01*
X133175800Y-113330074D01*
X133174295Y-113345352D01*
X133170390Y-113358226D01*
X133164045Y-113370097D01*
X133155504Y-113380504D01*
X133145097Y-113389045D01*
X133133226Y-113395390D01*
X133120352Y-113399295D01*
X133105074Y-113400800D01*
X132894926Y-113400800D01*
X132879648Y-113399295D01*
X132866774Y-113395390D01*
X132854903Y-113389045D01*
X132844496Y-113380504D01*
X132835955Y-113370097D01*
X132829610Y-113358226D01*
X132825705Y-113345352D01*
X132824200Y-113330074D01*
X132824200Y-112544926D01*
X132825705Y-112529648D01*
X132829610Y-112516774D01*
X132835955Y-112504903D01*
X132844496Y-112494496D01*
X132854903Y-112485955D01*
X132866774Y-112479610D01*
X132879648Y-112475705D01*
X132894926Y-112474200D01*
X133105074Y-112474200D01*
X133120352Y-112475705D01*
G37*
G36*
X135620352Y-112475705D02*
G01*
X135633226Y-112479610D01*
X135645097Y-112485955D01*
X135655504Y-112494496D01*
X135664045Y-112504903D01*
X135670390Y-112516774D01*
X135674295Y-112529648D01*
X135675800Y-112544926D01*
X135675800Y-113330074D01*
X135674295Y-113345352D01*
X135670390Y-113358226D01*
X135664045Y-113370097D01*
X135655504Y-113380504D01*
X135645097Y-113389045D01*
X135633226Y-113395390D01*
X135620352Y-113399295D01*
X135605074Y-113400800D01*
X135394926Y-113400800D01*
X135379648Y-113399295D01*
X135366774Y-113395390D01*
X135354903Y-113389045D01*
X135344496Y-113380504D01*
X135335955Y-113370097D01*
X135329610Y-113358226D01*
X135325705Y-113345352D01*
X135324200Y-113330074D01*
X135324200Y-112544926D01*
X135325705Y-112529648D01*
X135329610Y-112516774D01*
X135335955Y-112504903D01*
X135344496Y-112494496D01*
X135354903Y-112485955D01*
X135366774Y-112479610D01*
X135379648Y-112475705D01*
X135394926Y-112474200D01*
X135605074Y-112474200D01*
X135620352Y-112475705D01*
G37*
G36*
X135120352Y-112475705D02*
G01*
X135133226Y-112479610D01*
X135145097Y-112485955D01*
X135155504Y-112494496D01*
X135164045Y-112504903D01*
X135170390Y-112516774D01*
X135174295Y-112529648D01*
X135175800Y-112544926D01*
X135175800Y-113330074D01*
X135174295Y-113345352D01*
X135170390Y-113358226D01*
X135164045Y-113370097D01*
X135155504Y-113380504D01*
X135145097Y-113389045D01*
X135133226Y-113395390D01*
X135120352Y-113399295D01*
X135105074Y-113400800D01*
X134894926Y-113400800D01*
X134879648Y-113399295D01*
X134866774Y-113395390D01*
X134854903Y-113389045D01*
X134844496Y-113380504D01*
X134835955Y-113370097D01*
X134829610Y-113358226D01*
X134825705Y-113345352D01*
X134824200Y-113330074D01*
X134824200Y-112544926D01*
X134825705Y-112529648D01*
X134829610Y-112516774D01*
X134835955Y-112504903D01*
X134844496Y-112494496D01*
X134854903Y-112485955D01*
X134866774Y-112479610D01*
X134879648Y-112475705D01*
X134894926Y-112474200D01*
X135105074Y-112474200D01*
X135120352Y-112475705D01*
G37*
G36*
X132620352Y-112475705D02*
G01*
X132633226Y-112479610D01*
X132645097Y-112485955D01*
X132655504Y-112494496D01*
X132664045Y-112504903D01*
X132670390Y-112516774D01*
X132674295Y-112529648D01*
X132675800Y-112544926D01*
X132675800Y-113330074D01*
X132674295Y-113345352D01*
X132670390Y-113358226D01*
X132664045Y-113370097D01*
X132655504Y-113380504D01*
X132645097Y-113389045D01*
X132633226Y-113395390D01*
X132620352Y-113399295D01*
X132605074Y-113400800D01*
X132394926Y-113400800D01*
X132379648Y-113399295D01*
X132366774Y-113395390D01*
X132354903Y-113389045D01*
X132344496Y-113380504D01*
X132335955Y-113370097D01*
X132329610Y-113358226D01*
X132325705Y-113345352D01*
X132324200Y-113330074D01*
X132324200Y-112544926D01*
X132325705Y-112529648D01*
X132329610Y-112516774D01*
X132335955Y-112504903D01*
X132344496Y-112494496D01*
X132354903Y-112485955D01*
X132366774Y-112479610D01*
X132379648Y-112475705D01*
X132394926Y-112474200D01*
X132605074Y-112474200D01*
X132620352Y-112475705D01*
G37*
G36*
X133620352Y-112475705D02*
G01*
X133633226Y-112479610D01*
X133645097Y-112485955D01*
X133655504Y-112494496D01*
X133664045Y-112504903D01*
X133670390Y-112516774D01*
X133674295Y-112529648D01*
X133675800Y-112544926D01*
X133675800Y-113330074D01*
X133674295Y-113345352D01*
X133670390Y-113358226D01*
X133664045Y-113370097D01*
X133655504Y-113380504D01*
X133645097Y-113389045D01*
X133633226Y-113395390D01*
X133620352Y-113399295D01*
X133605074Y-113400800D01*
X133394926Y-113400800D01*
X133379648Y-113399295D01*
X133366774Y-113395390D01*
X133354903Y-113389045D01*
X133344496Y-113380504D01*
X133335955Y-113370097D01*
X133329610Y-113358226D01*
X133325705Y-113345352D01*
X133324200Y-113330074D01*
X133324200Y-112544926D01*
X133325705Y-112529648D01*
X133329610Y-112516774D01*
X133335955Y-112504903D01*
X133344496Y-112494496D01*
X133354903Y-112485955D01*
X133366774Y-112479610D01*
X133379648Y-112475705D01*
X133394926Y-112474200D01*
X133605074Y-112474200D01*
X133620352Y-112475705D01*
G37*
G36*
X134120352Y-112475705D02*
G01*
X134133226Y-112479610D01*
X134145097Y-112485955D01*
X134155504Y-112494496D01*
X134164045Y-112504903D01*
X134170390Y-112516774D01*
X134174295Y-112529648D01*
X134175800Y-112544926D01*
X134175800Y-113330074D01*
X134174295Y-113345352D01*
X134170390Y-113358226D01*
X134164045Y-113370097D01*
X134155504Y-113380504D01*
X134145097Y-113389045D01*
X134133226Y-113395390D01*
X134120352Y-113399295D01*
X134105074Y-113400800D01*
X133894926Y-113400800D01*
X133879648Y-113399295D01*
X133866774Y-113395390D01*
X133854903Y-113389045D01*
X133844496Y-113380504D01*
X133835955Y-113370097D01*
X133829610Y-113358226D01*
X133825705Y-113345352D01*
X133824200Y-113330074D01*
X133824200Y-112544926D01*
X133825705Y-112529648D01*
X133829610Y-112516774D01*
X133835955Y-112504903D01*
X133844496Y-112494496D01*
X133854903Y-112485955D01*
X133866774Y-112479610D01*
X133879648Y-112475705D01*
X133894926Y-112474200D01*
X134105074Y-112474200D01*
X134120352Y-112475705D01*
G37*
G36*
X134620352Y-112475705D02*
G01*
X134633226Y-112479610D01*
X134645097Y-112485955D01*
X134655504Y-112494496D01*
X134664045Y-112504903D01*
X134670390Y-112516774D01*
X134674295Y-112529648D01*
X134675800Y-112544926D01*
X134675800Y-113330074D01*
X134674295Y-113345352D01*
X134670390Y-113358226D01*
X134664045Y-113370097D01*
X134655504Y-113380504D01*
X134645097Y-113389045D01*
X134633226Y-113395390D01*
X134620352Y-113399295D01*
X134605074Y-113400800D01*
X134394926Y-113400800D01*
X134379648Y-113399295D01*
X134366774Y-113395390D01*
X134354903Y-113389045D01*
X134344496Y-113380504D01*
X134335955Y-113370097D01*
X134329610Y-113358226D01*
X134325705Y-113345352D01*
X134324200Y-113330074D01*
X134324200Y-112544926D01*
X134325705Y-112529648D01*
X134329610Y-112516774D01*
X134335955Y-112504903D01*
X134344496Y-112494496D01*
X134354903Y-112485955D01*
X134366774Y-112479610D01*
X134379648Y-112475705D01*
X134394926Y-112474200D01*
X134605074Y-112474200D01*
X134620352Y-112475705D01*
G37*
G36*
X136620352Y-112475705D02*
G01*
X136633226Y-112479610D01*
X136645097Y-112485955D01*
X136655504Y-112494496D01*
X136664045Y-112504903D01*
X136670390Y-112516774D01*
X136674295Y-112529648D01*
X136675800Y-112544926D01*
X136675800Y-113330074D01*
X136674295Y-113345352D01*
X136670390Y-113358226D01*
X136664045Y-113370097D01*
X136655504Y-113380504D01*
X136645097Y-113389045D01*
X136633226Y-113395390D01*
X136620352Y-113399295D01*
X136605074Y-113400800D01*
X136394926Y-113400800D01*
X136379648Y-113399295D01*
X136366774Y-113395390D01*
X136354903Y-113389045D01*
X136344496Y-113380504D01*
X136335955Y-113370097D01*
X136329610Y-113358226D01*
X136325705Y-113345352D01*
X136324200Y-113330074D01*
X136324200Y-112544926D01*
X136325705Y-112529648D01*
X136329610Y-112516774D01*
X136335955Y-112504903D01*
X136344496Y-112494496D01*
X136354903Y-112485955D01*
X136366774Y-112479610D01*
X136379648Y-112475705D01*
X136394926Y-112474200D01*
X136605074Y-112474200D01*
X136620352Y-112475705D01*
G37*
G36*
X131970352Y-111825705D02*
G01*
X131983226Y-111829610D01*
X131995097Y-111835955D01*
X132005504Y-111844496D01*
X132014045Y-111854903D01*
X132020390Y-111866774D01*
X132024295Y-111879648D01*
X132025800Y-111894926D01*
X132025800Y-112105074D01*
X132024295Y-112120352D01*
X132020390Y-112133226D01*
X132014045Y-112145097D01*
X132005504Y-112155504D01*
X131995097Y-112164045D01*
X131983226Y-112170390D01*
X131970352Y-112174295D01*
X131955074Y-112175800D01*
X131169926Y-112175800D01*
X131154648Y-112174295D01*
X131141774Y-112170390D01*
X131129903Y-112164045D01*
X131119496Y-112155504D01*
X131110955Y-112145097D01*
X131104610Y-112133226D01*
X131100705Y-112120352D01*
X131099200Y-112105074D01*
X131099200Y-111894926D01*
X131100705Y-111879648D01*
X131104610Y-111866774D01*
X131110955Y-111854903D01*
X131119496Y-111844496D01*
X131129903Y-111835955D01*
X131141774Y-111829610D01*
X131154648Y-111825705D01*
X131169926Y-111824200D01*
X131955074Y-111824200D01*
X131970352Y-111825705D01*
G37*
G36*
X137845352Y-111825705D02*
G01*
X137858226Y-111829610D01*
X137870097Y-111835955D01*
X137880504Y-111844496D01*
X137889045Y-111854903D01*
X137895390Y-111866774D01*
X137899295Y-111879648D01*
X137900800Y-111894926D01*
X137900800Y-112105074D01*
X137899295Y-112120352D01*
X137895390Y-112133226D01*
X137889045Y-112145097D01*
X137880504Y-112155504D01*
X137870097Y-112164045D01*
X137858226Y-112170390D01*
X137845352Y-112174295D01*
X137830074Y-112175800D01*
X137044926Y-112175800D01*
X137029648Y-112174295D01*
X137016774Y-112170390D01*
X137004903Y-112164045D01*
X136994496Y-112155504D01*
X136985955Y-112145097D01*
X136979610Y-112133226D01*
X136975705Y-112120352D01*
X136974200Y-112105074D01*
X136974200Y-111894926D01*
X136975705Y-111879648D01*
X136979610Y-111866774D01*
X136985955Y-111854903D01*
X136994496Y-111844496D01*
X137004903Y-111835955D01*
X137016774Y-111829610D01*
X137029648Y-111825705D01*
X137044926Y-111824200D01*
X137830074Y-111824200D01*
X137845352Y-111825705D01*
G37*
G36*
X136219184Y-108103716D02*
G01*
X136261471Y-108116543D01*
X136300436Y-108137371D01*
X136334595Y-108165405D01*
X136362629Y-108199564D01*
X136383457Y-108238529D01*
X136396284Y-108280816D01*
X136400800Y-108326668D01*
X136400800Y-111673332D01*
X136396284Y-111719184D01*
X136383457Y-111761471D01*
X136362629Y-111800436D01*
X136334595Y-111834595D01*
X136300436Y-111862629D01*
X136261471Y-111883457D01*
X136219184Y-111896284D01*
X136173332Y-111900800D01*
X132826668Y-111900800D01*
X132780816Y-111896284D01*
X132738529Y-111883457D01*
X132699564Y-111862629D01*
X132665405Y-111834595D01*
X132637371Y-111800436D01*
X132616543Y-111761471D01*
X132603716Y-111719184D01*
X132599200Y-111673332D01*
X132599200Y-108326668D01*
X132603716Y-108280816D01*
X132616543Y-108238529D01*
X132637371Y-108199564D01*
X132665405Y-108165405D01*
X132699564Y-108137371D01*
X132738529Y-108116543D01*
X132780816Y-108103716D01*
X132826668Y-108099200D01*
X136173332Y-108099200D01*
X136219184Y-108103716D01*
G37*
G36*
X119248169Y-110181895D02*
G01*
X119349977Y-110224066D01*
X119403006Y-110246031D01*
X119454082Y-110280159D01*
X119542354Y-110339140D01*
X119660860Y-110457646D01*
X119716675Y-110541179D01*
X119753969Y-110596994D01*
X119763644Y-110620352D01*
X119818105Y-110751831D01*
X119850800Y-110916203D01*
X119850800Y-111083797D01*
X119818105Y-111248169D01*
X119775947Y-111349945D01*
X119753969Y-111403006D01*
X119716675Y-111458821D01*
X119660860Y-111542354D01*
X119542354Y-111660860D01*
X119473406Y-111706929D01*
X119403006Y-111753969D01*
X119384894Y-111761471D01*
X119248169Y-111818105D01*
X119083797Y-111850800D01*
X118916203Y-111850800D01*
X118751831Y-111818105D01*
X118615106Y-111761471D01*
X118596994Y-111753969D01*
X118526594Y-111706929D01*
X118457646Y-111660860D01*
X118339140Y-111542354D01*
X118283325Y-111458821D01*
X118246031Y-111403006D01*
X118224053Y-111349945D01*
X118181895Y-111248169D01*
X118149200Y-111083797D01*
X118149200Y-110916203D01*
X118181895Y-110751831D01*
X118236356Y-110620352D01*
X118246031Y-110596994D01*
X118283325Y-110541179D01*
X118339140Y-110457646D01*
X118457646Y-110339140D01*
X118545918Y-110280159D01*
X118596994Y-110246031D01*
X118650023Y-110224066D01*
X118751831Y-110181895D01*
X118916203Y-110149200D01*
X119083797Y-110149200D01*
X119248169Y-110181895D01*
G37*
G36*
X139246929Y-111142337D02*
G01*
X139275758Y-111151082D01*
X139302323Y-111165282D01*
X139325608Y-111184392D01*
X139344718Y-111207677D01*
X139358918Y-111234242D01*
X139367663Y-111263071D01*
X139370800Y-111294926D01*
X139370800Y-111675074D01*
X139367663Y-111706929D01*
X139358918Y-111735758D01*
X139344718Y-111762323D01*
X139325608Y-111785608D01*
X139302323Y-111804718D01*
X139275758Y-111818918D01*
X139246929Y-111827663D01*
X139215074Y-111830800D01*
X138784926Y-111830800D01*
X138753071Y-111827663D01*
X138724242Y-111818918D01*
X138697677Y-111804718D01*
X138674392Y-111785608D01*
X138655282Y-111762323D01*
X138641082Y-111735758D01*
X138632337Y-111706929D01*
X138629200Y-111675074D01*
X138629200Y-111294926D01*
X138632337Y-111263071D01*
X138641082Y-111234242D01*
X138655282Y-111207677D01*
X138674392Y-111184392D01*
X138697677Y-111165282D01*
X138724242Y-111151082D01*
X138753071Y-111142337D01*
X138784926Y-111139200D01*
X139215074Y-111139200D01*
X139246929Y-111142337D01*
G37*
G36*
X137845352Y-111325705D02*
G01*
X137858226Y-111329610D01*
X137870097Y-111335955D01*
X137880504Y-111344496D01*
X137889045Y-111354903D01*
X137895390Y-111366774D01*
X137899295Y-111379648D01*
X137900800Y-111394926D01*
X137900800Y-111605074D01*
X137899295Y-111620352D01*
X137895390Y-111633226D01*
X137889045Y-111645097D01*
X137880504Y-111655504D01*
X137870097Y-111664045D01*
X137858226Y-111670390D01*
X137845352Y-111674295D01*
X137830074Y-111675800D01*
X137044926Y-111675800D01*
X137029648Y-111674295D01*
X137016774Y-111670390D01*
X137004903Y-111664045D01*
X136994496Y-111655504D01*
X136985955Y-111645097D01*
X136979610Y-111633226D01*
X136975705Y-111620352D01*
X136974200Y-111605074D01*
X136974200Y-111394926D01*
X136975705Y-111379648D01*
X136979610Y-111366774D01*
X136985955Y-111354903D01*
X136994496Y-111344496D01*
X137004903Y-111335955D01*
X137016774Y-111329610D01*
X137029648Y-111325705D01*
X137044926Y-111324200D01*
X137830074Y-111324200D01*
X137845352Y-111325705D01*
G37*
G36*
X131970352Y-111325705D02*
G01*
X131983226Y-111329610D01*
X131995097Y-111335955D01*
X132005504Y-111344496D01*
X132014045Y-111354903D01*
X132020390Y-111366774D01*
X132024295Y-111379648D01*
X132025800Y-111394926D01*
X132025800Y-111605074D01*
X132024295Y-111620352D01*
X132020390Y-111633226D01*
X132014045Y-111645097D01*
X132005504Y-111655504D01*
X131995097Y-111664045D01*
X131983226Y-111670390D01*
X131970352Y-111674295D01*
X131955074Y-111675800D01*
X131169926Y-111675800D01*
X131154648Y-111674295D01*
X131141774Y-111670390D01*
X131129903Y-111664045D01*
X131119496Y-111655504D01*
X131110955Y-111645097D01*
X131104610Y-111633226D01*
X131100705Y-111620352D01*
X131099200Y-111605074D01*
X131099200Y-111394926D01*
X131100705Y-111379648D01*
X131104610Y-111366774D01*
X131110955Y-111354903D01*
X131119496Y-111344496D01*
X131129903Y-111335955D01*
X131141774Y-111329610D01*
X131154648Y-111325705D01*
X131169926Y-111324200D01*
X131955074Y-111324200D01*
X131970352Y-111325705D01*
G37*
G36*
X159075800Y-111250800D02*
G01*
X157424200Y-111250800D01*
X157424200Y-108749200D01*
X159075800Y-108749200D01*
X159075800Y-111250800D01*
G37*
G36*
X160175800Y-111200800D02*
G01*
X159424200Y-111200800D01*
X159424200Y-110749200D01*
X160175800Y-110749200D01*
X160175800Y-111200800D01*
G37*
G36*
X157075800Y-111200800D02*
G01*
X156324200Y-111200800D01*
X156324200Y-110749200D01*
X157075800Y-110749200D01*
X157075800Y-111200800D01*
G37*
G36*
X137845352Y-110825705D02*
G01*
X137858226Y-110829610D01*
X137870097Y-110835955D01*
X137880504Y-110844496D01*
X137889045Y-110854903D01*
X137895390Y-110866774D01*
X137899295Y-110879648D01*
X137900800Y-110894926D01*
X137900800Y-111105074D01*
X137899295Y-111120352D01*
X137895390Y-111133226D01*
X137889045Y-111145097D01*
X137880504Y-111155504D01*
X137870097Y-111164045D01*
X137858226Y-111170390D01*
X137845352Y-111174295D01*
X137830074Y-111175800D01*
X137044926Y-111175800D01*
X137029648Y-111174295D01*
X137016774Y-111170390D01*
X137004903Y-111164045D01*
X136994496Y-111155504D01*
X136985955Y-111145097D01*
X136979610Y-111133226D01*
X136975705Y-111120352D01*
X136974200Y-111105074D01*
X136974200Y-110894926D01*
X136975705Y-110879648D01*
X136979610Y-110866774D01*
X136985955Y-110854903D01*
X136994496Y-110844496D01*
X137004903Y-110835955D01*
X137016774Y-110829610D01*
X137029648Y-110825705D01*
X137044926Y-110824200D01*
X137830074Y-110824200D01*
X137845352Y-110825705D01*
G37*
G36*
X131970352Y-110825705D02*
G01*
X131983226Y-110829610D01*
X131995097Y-110835955D01*
X132005504Y-110844496D01*
X132014045Y-110854903D01*
X132020390Y-110866774D01*
X132024295Y-110879648D01*
X132025800Y-110894926D01*
X132025800Y-111105074D01*
X132024295Y-111120352D01*
X132020390Y-111133226D01*
X132014045Y-111145097D01*
X132005504Y-111155504D01*
X131995097Y-111164045D01*
X131983226Y-111170390D01*
X131970352Y-111174295D01*
X131955074Y-111175800D01*
X131169926Y-111175800D01*
X131154648Y-111174295D01*
X131141774Y-111170390D01*
X131129903Y-111164045D01*
X131119496Y-111155504D01*
X131110955Y-111145097D01*
X131104610Y-111133226D01*
X131100705Y-111120352D01*
X131099200Y-111105074D01*
X131099200Y-110894926D01*
X131100705Y-110879648D01*
X131104610Y-110866774D01*
X131110955Y-110854903D01*
X131119496Y-110844496D01*
X131129903Y-110835955D01*
X131141774Y-110829610D01*
X131154648Y-110825705D01*
X131169926Y-110824200D01*
X131955074Y-110824200D01*
X131970352Y-110825705D01*
G37*
G36*
X139246929Y-110172337D02*
G01*
X139275758Y-110181082D01*
X139302323Y-110195282D01*
X139325608Y-110214392D01*
X139344718Y-110237677D01*
X139358918Y-110264242D01*
X139367663Y-110293071D01*
X139370800Y-110324926D01*
X139370800Y-110705074D01*
X139367663Y-110736929D01*
X139358918Y-110765758D01*
X139344718Y-110792323D01*
X139325608Y-110815608D01*
X139302323Y-110834718D01*
X139275758Y-110848918D01*
X139246929Y-110857663D01*
X139215074Y-110860800D01*
X138784926Y-110860800D01*
X138753071Y-110857663D01*
X138724242Y-110848918D01*
X138697677Y-110834718D01*
X138674392Y-110815608D01*
X138655282Y-110792323D01*
X138641082Y-110765758D01*
X138632337Y-110736929D01*
X138629200Y-110705074D01*
X138629200Y-110324926D01*
X138632337Y-110293071D01*
X138641082Y-110264242D01*
X138655282Y-110237677D01*
X138674392Y-110214392D01*
X138697677Y-110195282D01*
X138724242Y-110181082D01*
X138753071Y-110172337D01*
X138784926Y-110169200D01*
X139215074Y-110169200D01*
X139246929Y-110172337D01*
G37*
G36*
X131970352Y-110325705D02*
G01*
X131983226Y-110329610D01*
X131995097Y-110335955D01*
X132005504Y-110344496D01*
X132014045Y-110354903D01*
X132020390Y-110366774D01*
X132024295Y-110379648D01*
X132025800Y-110394926D01*
X132025800Y-110605074D01*
X132024295Y-110620352D01*
X132020390Y-110633226D01*
X132014045Y-110645097D01*
X132005504Y-110655504D01*
X131995097Y-110664045D01*
X131983226Y-110670390D01*
X131970352Y-110674295D01*
X131955074Y-110675800D01*
X131169926Y-110675800D01*
X131154648Y-110674295D01*
X131141774Y-110670390D01*
X131129903Y-110664045D01*
X131119496Y-110655504D01*
X131110955Y-110645097D01*
X131104610Y-110633226D01*
X131100705Y-110620352D01*
X131099200Y-110605074D01*
X131099200Y-110394926D01*
X131100705Y-110379648D01*
X131104610Y-110366774D01*
X131110955Y-110354903D01*
X131119496Y-110344496D01*
X131129903Y-110335955D01*
X131141774Y-110329610D01*
X131154648Y-110325705D01*
X131169926Y-110324200D01*
X131955074Y-110324200D01*
X131970352Y-110325705D01*
G37*
G36*
X137845352Y-110325705D02*
G01*
X137858226Y-110329610D01*
X137870097Y-110335955D01*
X137880504Y-110344496D01*
X137889045Y-110354903D01*
X137895390Y-110366774D01*
X137899295Y-110379648D01*
X137900800Y-110394926D01*
X137900800Y-110605074D01*
X137899295Y-110620352D01*
X137895390Y-110633226D01*
X137889045Y-110645097D01*
X137880504Y-110655504D01*
X137870097Y-110664045D01*
X137858226Y-110670390D01*
X137845352Y-110674295D01*
X137830074Y-110675800D01*
X137044926Y-110675800D01*
X137029648Y-110674295D01*
X137016774Y-110670390D01*
X137004903Y-110664045D01*
X136994496Y-110655504D01*
X136985955Y-110645097D01*
X136979610Y-110633226D01*
X136975705Y-110620352D01*
X136974200Y-110605074D01*
X136974200Y-110394926D01*
X136975705Y-110379648D01*
X136979610Y-110366774D01*
X136985955Y-110354903D01*
X136994496Y-110344496D01*
X137004903Y-110335955D01*
X137016774Y-110329610D01*
X137029648Y-110325705D01*
X137044926Y-110324200D01*
X137830074Y-110324200D01*
X137845352Y-110325705D01*
G37*
G36*
X157075800Y-110550800D02*
G01*
X156324200Y-110550800D01*
X156324200Y-110099200D01*
X157075800Y-110099200D01*
X157075800Y-110550800D01*
G37*
G36*
X160175800Y-110550800D02*
G01*
X159424200Y-110550800D01*
X159424200Y-110099200D01*
X160175800Y-110099200D01*
X160175800Y-110550800D01*
G37*
G36*
X129246929Y-109642337D02*
G01*
X129275758Y-109651082D01*
X129302323Y-109665282D01*
X129325608Y-109684392D01*
X129344718Y-109707677D01*
X129358918Y-109734242D01*
X129367663Y-109763071D01*
X129370800Y-109794926D01*
X129370800Y-110175074D01*
X129367663Y-110206929D01*
X129358918Y-110235758D01*
X129344718Y-110262323D01*
X129325608Y-110285608D01*
X129302323Y-110304718D01*
X129275758Y-110318918D01*
X129246929Y-110327663D01*
X129215074Y-110330800D01*
X128784926Y-110330800D01*
X128753071Y-110327663D01*
X128724242Y-110318918D01*
X128697677Y-110304718D01*
X128674392Y-110285608D01*
X128655282Y-110262323D01*
X128641082Y-110235758D01*
X128632337Y-110206929D01*
X128629200Y-110175074D01*
X128629200Y-109794926D01*
X128632337Y-109763071D01*
X128641082Y-109734242D01*
X128655282Y-109707677D01*
X128674392Y-109684392D01*
X128697677Y-109665282D01*
X128724242Y-109651082D01*
X128753071Y-109642337D01*
X128784926Y-109639200D01*
X129215074Y-109639200D01*
X129246929Y-109642337D01*
G37*
G36*
X137845352Y-109825705D02*
G01*
X137858226Y-109829610D01*
X137870097Y-109835955D01*
X137880504Y-109844496D01*
X137889045Y-109854903D01*
X137895390Y-109866774D01*
X137899295Y-109879648D01*
X137900800Y-109894926D01*
X137900800Y-110105074D01*
X137899295Y-110120352D01*
X137895390Y-110133226D01*
X137889045Y-110145097D01*
X137880504Y-110155504D01*
X137870097Y-110164045D01*
X137858226Y-110170390D01*
X137845352Y-110174295D01*
X137830074Y-110175800D01*
X137044926Y-110175800D01*
X137029648Y-110174295D01*
X137016774Y-110170390D01*
X137004903Y-110164045D01*
X136994496Y-110155504D01*
X136985955Y-110145097D01*
X136979610Y-110133226D01*
X136975705Y-110120352D01*
X136974200Y-110105074D01*
X136974200Y-109894926D01*
X136975705Y-109879648D01*
X136979610Y-109866774D01*
X136985955Y-109854903D01*
X136994496Y-109844496D01*
X137004903Y-109835955D01*
X137016774Y-109829610D01*
X137029648Y-109825705D01*
X137044926Y-109824200D01*
X137830074Y-109824200D01*
X137845352Y-109825705D01*
G37*
G36*
X131970352Y-109825705D02*
G01*
X131983226Y-109829610D01*
X131995097Y-109835955D01*
X132005504Y-109844496D01*
X132014045Y-109854903D01*
X132020390Y-109866774D01*
X132024295Y-109879648D01*
X132025800Y-109894926D01*
X132025800Y-110105074D01*
X132024295Y-110120352D01*
X132020390Y-110133226D01*
X132014045Y-110145097D01*
X132005504Y-110155504D01*
X131995097Y-110164045D01*
X131983226Y-110170390D01*
X131970352Y-110174295D01*
X131955074Y-110175800D01*
X131169926Y-110175800D01*
X131154648Y-110174295D01*
X131141774Y-110170390D01*
X131129903Y-110164045D01*
X131119496Y-110155504D01*
X131110955Y-110145097D01*
X131104610Y-110133226D01*
X131100705Y-110120352D01*
X131099200Y-110105074D01*
X131099200Y-109894926D01*
X131100705Y-109879648D01*
X131104610Y-109866774D01*
X131110955Y-109854903D01*
X131119496Y-109844496D01*
X131129903Y-109835955D01*
X131141774Y-109829610D01*
X131154648Y-109825705D01*
X131169926Y-109824200D01*
X131955074Y-109824200D01*
X131970352Y-109825705D01*
G37*
G36*
X160175800Y-109900800D02*
G01*
X159424200Y-109900800D01*
X159424200Y-109449200D01*
X160175800Y-109449200D01*
X160175800Y-109900800D01*
G37*
G36*
X157075800Y-109900800D02*
G01*
X156324200Y-109900800D01*
X156324200Y-109449200D01*
X157075800Y-109449200D01*
X157075800Y-109900800D01*
G37*
G36*
X119248169Y-108181895D02*
G01*
X119357655Y-108227246D01*
X119403006Y-108246031D01*
X119455065Y-108280816D01*
X119542354Y-108339140D01*
X119660860Y-108457646D01*
X119716675Y-108541179D01*
X119753969Y-108596994D01*
X119763644Y-108620352D01*
X119818105Y-108751831D01*
X119850800Y-108916203D01*
X119850800Y-109083797D01*
X119818105Y-109248169D01*
X119776903Y-109347639D01*
X119753969Y-109403006D01*
X119723103Y-109449200D01*
X119660860Y-109542354D01*
X119542354Y-109660860D01*
X119459767Y-109716042D01*
X119403006Y-109753969D01*
X119357655Y-109772754D01*
X119248169Y-109818105D01*
X119083797Y-109850800D01*
X118916203Y-109850800D01*
X118751831Y-109818105D01*
X118642345Y-109772754D01*
X118596994Y-109753969D01*
X118540233Y-109716042D01*
X118457646Y-109660860D01*
X118339140Y-109542354D01*
X118276897Y-109449200D01*
X118246031Y-109403006D01*
X118223097Y-109347639D01*
X118181895Y-109248169D01*
X118149200Y-109083797D01*
X118149200Y-108916203D01*
X118181895Y-108751831D01*
X118236356Y-108620352D01*
X118246031Y-108596994D01*
X118283325Y-108541179D01*
X118339140Y-108457646D01*
X118457646Y-108339140D01*
X118544935Y-108280816D01*
X118596994Y-108246031D01*
X118642345Y-108227246D01*
X118751831Y-108181895D01*
X118916203Y-108149200D01*
X119083797Y-108149200D01*
X119248169Y-108181895D01*
G37*
G36*
X139246929Y-109142337D02*
G01*
X139275758Y-109151082D01*
X139302323Y-109165282D01*
X139325608Y-109184392D01*
X139344718Y-109207677D01*
X139358918Y-109234242D01*
X139367663Y-109263071D01*
X139370800Y-109294926D01*
X139370800Y-109675074D01*
X139367663Y-109706929D01*
X139358918Y-109735758D01*
X139344718Y-109762323D01*
X139325608Y-109785608D01*
X139302323Y-109804718D01*
X139275758Y-109818918D01*
X139246929Y-109827663D01*
X139215074Y-109830800D01*
X138784926Y-109830800D01*
X138753071Y-109827663D01*
X138724242Y-109818918D01*
X138697677Y-109804718D01*
X138674392Y-109785608D01*
X138655282Y-109762323D01*
X138641082Y-109735758D01*
X138632337Y-109706929D01*
X138629200Y-109675074D01*
X138629200Y-109294926D01*
X138632337Y-109263071D01*
X138641082Y-109234242D01*
X138655282Y-109207677D01*
X138674392Y-109184392D01*
X138697677Y-109165282D01*
X138724242Y-109151082D01*
X138753071Y-109142337D01*
X138784926Y-109139200D01*
X139215074Y-109139200D01*
X139246929Y-109142337D01*
G37*
G36*
X137845352Y-109325705D02*
G01*
X137858226Y-109329610D01*
X137870097Y-109335955D01*
X137880504Y-109344496D01*
X137889045Y-109354903D01*
X137895390Y-109366774D01*
X137899295Y-109379648D01*
X137900800Y-109394926D01*
X137900800Y-109605074D01*
X137899295Y-109620352D01*
X137895390Y-109633226D01*
X137889045Y-109645097D01*
X137880504Y-109655504D01*
X137870097Y-109664045D01*
X137858226Y-109670390D01*
X137845352Y-109674295D01*
X137830074Y-109675800D01*
X137044926Y-109675800D01*
X137029648Y-109674295D01*
X137016774Y-109670390D01*
X137004903Y-109664045D01*
X136994496Y-109655504D01*
X136985955Y-109645097D01*
X136979610Y-109633226D01*
X136975705Y-109620352D01*
X136974200Y-109605074D01*
X136974200Y-109394926D01*
X136975705Y-109379648D01*
X136979610Y-109366774D01*
X136985955Y-109354903D01*
X136994496Y-109344496D01*
X137004903Y-109335955D01*
X137016774Y-109329610D01*
X137029648Y-109325705D01*
X137044926Y-109324200D01*
X137830074Y-109324200D01*
X137845352Y-109325705D01*
G37*
G36*
X131970352Y-109325705D02*
G01*
X131983226Y-109329610D01*
X131995097Y-109335955D01*
X132005504Y-109344496D01*
X132014045Y-109354903D01*
X132020390Y-109366774D01*
X132024295Y-109379648D01*
X132025800Y-109394926D01*
X132025800Y-109605074D01*
X132024295Y-109620352D01*
X132020390Y-109633226D01*
X132014045Y-109645097D01*
X132005504Y-109655504D01*
X131995097Y-109664045D01*
X131983226Y-109670390D01*
X131970352Y-109674295D01*
X131955074Y-109675800D01*
X131169926Y-109675800D01*
X131154648Y-109674295D01*
X131141774Y-109670390D01*
X131129903Y-109664045D01*
X131119496Y-109655504D01*
X131110955Y-109645097D01*
X131104610Y-109633226D01*
X131100705Y-109620352D01*
X131099200Y-109605074D01*
X131099200Y-109394926D01*
X131100705Y-109379648D01*
X131104610Y-109366774D01*
X131110955Y-109354903D01*
X131119496Y-109344496D01*
X131129903Y-109335955D01*
X131141774Y-109329610D01*
X131154648Y-109325705D01*
X131169926Y-109324200D01*
X131955074Y-109324200D01*
X131970352Y-109325705D01*
G37*
G36*
X129246929Y-108672337D02*
G01*
X129275758Y-108681082D01*
X129302323Y-108695282D01*
X129325608Y-108714392D01*
X129344718Y-108737677D01*
X129358918Y-108764242D01*
X129367663Y-108793071D01*
X129370800Y-108824926D01*
X129370800Y-109205074D01*
X129367663Y-109236929D01*
X129358918Y-109265758D01*
X129344718Y-109292323D01*
X129325608Y-109315608D01*
X129302323Y-109334718D01*
X129275758Y-109348918D01*
X129246929Y-109357663D01*
X129215074Y-109360800D01*
X128784926Y-109360800D01*
X128753071Y-109357663D01*
X128724242Y-109348918D01*
X128697677Y-109334718D01*
X128674392Y-109315608D01*
X128655282Y-109292323D01*
X128641082Y-109265758D01*
X128632337Y-109236929D01*
X128629200Y-109205074D01*
X128629200Y-108824926D01*
X128632337Y-108793071D01*
X128641082Y-108764242D01*
X128655282Y-108737677D01*
X128674392Y-108714392D01*
X128697677Y-108695282D01*
X128724242Y-108681082D01*
X128753071Y-108672337D01*
X128784926Y-108669200D01*
X129215074Y-108669200D01*
X129246929Y-108672337D01*
G37*
G36*
X160175800Y-109250800D02*
G01*
X159424200Y-109250800D01*
X159424200Y-108799200D01*
X160175800Y-108799200D01*
X160175800Y-109250800D01*
G37*
G36*
X157075800Y-109250800D02*
G01*
X156324200Y-109250800D01*
X156324200Y-108799200D01*
X157075800Y-108799200D01*
X157075800Y-109250800D01*
G37*
G36*
X137845352Y-108825705D02*
G01*
X137858226Y-108829610D01*
X137870097Y-108835955D01*
X137880504Y-108844496D01*
X137889045Y-108854903D01*
X137895390Y-108866774D01*
X137899295Y-108879648D01*
X137900800Y-108894926D01*
X137900800Y-109105074D01*
X137899295Y-109120352D01*
X137895390Y-109133226D01*
X137889045Y-109145097D01*
X137880504Y-109155504D01*
X137870097Y-109164045D01*
X137858226Y-109170390D01*
X137845352Y-109174295D01*
X137830074Y-109175800D01*
X137044926Y-109175800D01*
X137029648Y-109174295D01*
X137016774Y-109170390D01*
X137004903Y-109164045D01*
X136994496Y-109155504D01*
X136985955Y-109145097D01*
X136979610Y-109133226D01*
X136975705Y-109120352D01*
X136974200Y-109105074D01*
X136974200Y-108894926D01*
X136975705Y-108879648D01*
X136979610Y-108866774D01*
X136985955Y-108854903D01*
X136994496Y-108844496D01*
X137004903Y-108835955D01*
X137016774Y-108829610D01*
X137029648Y-108825705D01*
X137044926Y-108824200D01*
X137830074Y-108824200D01*
X137845352Y-108825705D01*
G37*
G36*
X131970352Y-108825705D02*
G01*
X131983226Y-108829610D01*
X131995097Y-108835955D01*
X132005504Y-108844496D01*
X132014045Y-108854903D01*
X132020390Y-108866774D01*
X132024295Y-108879648D01*
X132025800Y-108894926D01*
X132025800Y-109105074D01*
X132024295Y-109120352D01*
X132020390Y-109133226D01*
X132014045Y-109145097D01*
X132005504Y-109155504D01*
X131995097Y-109164045D01*
X131983226Y-109170390D01*
X131970352Y-109174295D01*
X131955074Y-109175800D01*
X131169926Y-109175800D01*
X131154648Y-109174295D01*
X131141774Y-109170390D01*
X131129903Y-109164045D01*
X131119496Y-109155504D01*
X131110955Y-109145097D01*
X131104610Y-109133226D01*
X131100705Y-109120352D01*
X131099200Y-109105074D01*
X131099200Y-108894926D01*
X131100705Y-108879648D01*
X131104610Y-108866774D01*
X131110955Y-108854903D01*
X131119496Y-108844496D01*
X131129903Y-108835955D01*
X131141774Y-108829610D01*
X131154648Y-108825705D01*
X131169926Y-108824200D01*
X131955074Y-108824200D01*
X131970352Y-108825705D01*
G37*
G36*
X139246929Y-108172337D02*
G01*
X139275758Y-108181082D01*
X139302323Y-108195282D01*
X139325608Y-108214392D01*
X139344718Y-108237677D01*
X139358918Y-108264242D01*
X139367663Y-108293071D01*
X139370800Y-108324926D01*
X139370800Y-108705074D01*
X139367663Y-108736929D01*
X139358918Y-108765758D01*
X139344718Y-108792323D01*
X139325608Y-108815608D01*
X139302323Y-108834718D01*
X139275758Y-108848918D01*
X139246929Y-108857663D01*
X139215074Y-108860800D01*
X138784926Y-108860800D01*
X138753071Y-108857663D01*
X138724242Y-108848918D01*
X138697677Y-108834718D01*
X138674392Y-108815608D01*
X138655282Y-108792323D01*
X138641082Y-108765758D01*
X138632337Y-108736929D01*
X138629200Y-108705074D01*
X138629200Y-108324926D01*
X138632337Y-108293071D01*
X138641082Y-108264242D01*
X138655282Y-108237677D01*
X138674392Y-108214392D01*
X138697677Y-108195282D01*
X138724242Y-108181082D01*
X138753071Y-108172337D01*
X138784926Y-108169200D01*
X139215074Y-108169200D01*
X139246929Y-108172337D01*
G37*
G36*
X131970352Y-108325705D02*
G01*
X131983226Y-108329610D01*
X131995097Y-108335955D01*
X132005504Y-108344496D01*
X132014045Y-108354903D01*
X132020390Y-108366774D01*
X132024295Y-108379648D01*
X132025800Y-108394926D01*
X132025800Y-108605074D01*
X132024295Y-108620352D01*
X132020390Y-108633226D01*
X132014045Y-108645097D01*
X132005504Y-108655504D01*
X131995097Y-108664045D01*
X131983226Y-108670390D01*
X131970352Y-108674295D01*
X131955074Y-108675800D01*
X131169926Y-108675800D01*
X131154648Y-108674295D01*
X131141774Y-108670390D01*
X131129903Y-108664045D01*
X131119496Y-108655504D01*
X131110955Y-108645097D01*
X131104610Y-108633226D01*
X131100705Y-108620352D01*
X131099200Y-108605074D01*
X131099200Y-108394926D01*
X131100705Y-108379648D01*
X131104610Y-108366774D01*
X131110955Y-108354903D01*
X131119496Y-108344496D01*
X131129903Y-108335955D01*
X131141774Y-108329610D01*
X131154648Y-108325705D01*
X131169926Y-108324200D01*
X131955074Y-108324200D01*
X131970352Y-108325705D01*
G37*
G36*
X137845352Y-108325705D02*
G01*
X137858226Y-108329610D01*
X137870097Y-108335955D01*
X137880504Y-108344496D01*
X137889045Y-108354903D01*
X137895390Y-108366774D01*
X137899295Y-108379648D01*
X137900800Y-108394926D01*
X137900800Y-108605074D01*
X137899295Y-108620352D01*
X137895390Y-108633226D01*
X137889045Y-108645097D01*
X137880504Y-108655504D01*
X137870097Y-108664045D01*
X137858226Y-108670390D01*
X137845352Y-108674295D01*
X137830074Y-108675800D01*
X137044926Y-108675800D01*
X137029648Y-108674295D01*
X137016774Y-108670390D01*
X137004903Y-108664045D01*
X136994496Y-108655504D01*
X136985955Y-108645097D01*
X136979610Y-108633226D01*
X136975705Y-108620352D01*
X136974200Y-108605074D01*
X136974200Y-108394926D01*
X136975705Y-108379648D01*
X136979610Y-108366774D01*
X136985955Y-108354903D01*
X136994496Y-108344496D01*
X137004903Y-108335955D01*
X137016774Y-108329610D01*
X137029648Y-108325705D01*
X137044926Y-108324200D01*
X137830074Y-108324200D01*
X137845352Y-108325705D01*
G37*
G36*
X131970352Y-107825705D02*
G01*
X131983226Y-107829610D01*
X131995097Y-107835955D01*
X132005504Y-107844496D01*
X132014045Y-107854903D01*
X132020390Y-107866774D01*
X132024295Y-107879648D01*
X132025800Y-107894926D01*
X132025800Y-108105074D01*
X132024295Y-108120352D01*
X132020390Y-108133226D01*
X132014045Y-108145097D01*
X132005504Y-108155504D01*
X131995097Y-108164045D01*
X131983226Y-108170390D01*
X131970352Y-108174295D01*
X131955074Y-108175800D01*
X131169926Y-108175800D01*
X131154648Y-108174295D01*
X131141774Y-108170390D01*
X131129903Y-108164045D01*
X131119496Y-108155504D01*
X131110955Y-108145097D01*
X131104610Y-108133226D01*
X131100705Y-108120352D01*
X131099200Y-108105074D01*
X131099200Y-107894926D01*
X131100705Y-107879648D01*
X131104610Y-107866774D01*
X131110955Y-107854903D01*
X131119496Y-107844496D01*
X131129903Y-107835955D01*
X131141774Y-107829610D01*
X131154648Y-107825705D01*
X131169926Y-107824200D01*
X131955074Y-107824200D01*
X131970352Y-107825705D01*
G37*
G36*
X137845352Y-107825705D02*
G01*
X137858226Y-107829610D01*
X137870097Y-107835955D01*
X137880504Y-107844496D01*
X137889045Y-107854903D01*
X137895390Y-107866774D01*
X137899295Y-107879648D01*
X137900800Y-107894926D01*
X137900800Y-108105074D01*
X137899295Y-108120352D01*
X137895390Y-108133226D01*
X137889045Y-108145097D01*
X137880504Y-108155504D01*
X137870097Y-108164045D01*
X137858226Y-108170390D01*
X137845352Y-108174295D01*
X137830074Y-108175800D01*
X137044926Y-108175800D01*
X137029648Y-108174295D01*
X137016774Y-108170390D01*
X137004903Y-108164045D01*
X136994496Y-108155504D01*
X136985955Y-108145097D01*
X136979610Y-108133226D01*
X136975705Y-108120352D01*
X136974200Y-108105074D01*
X136974200Y-107894926D01*
X136975705Y-107879648D01*
X136979610Y-107866774D01*
X136985955Y-107854903D01*
X136994496Y-107844496D01*
X137004903Y-107835955D01*
X137016774Y-107829610D01*
X137029648Y-107825705D01*
X137044926Y-107824200D01*
X137830074Y-107824200D01*
X137845352Y-107825705D01*
G37*
G36*
X139246929Y-107142337D02*
G01*
X139275758Y-107151082D01*
X139302323Y-107165282D01*
X139325608Y-107184392D01*
X139344718Y-107207677D01*
X139358918Y-107234242D01*
X139367663Y-107263071D01*
X139370800Y-107294926D01*
X139370800Y-107675074D01*
X139367663Y-107706929D01*
X139358918Y-107735758D01*
X139344718Y-107762323D01*
X139325608Y-107785608D01*
X139302323Y-107804718D01*
X139275758Y-107818918D01*
X139246929Y-107827663D01*
X139215074Y-107830800D01*
X138784926Y-107830800D01*
X138753071Y-107827663D01*
X138724242Y-107818918D01*
X138697677Y-107804718D01*
X138674392Y-107785608D01*
X138655282Y-107762323D01*
X138641082Y-107735758D01*
X138632337Y-107706929D01*
X138629200Y-107675074D01*
X138629200Y-107294926D01*
X138632337Y-107263071D01*
X138641082Y-107234242D01*
X138655282Y-107207677D01*
X138674392Y-107184392D01*
X138697677Y-107165282D01*
X138724242Y-107151082D01*
X138753071Y-107142337D01*
X138784926Y-107139200D01*
X139215074Y-107139200D01*
X139246929Y-107142337D01*
G37*
G36*
X133120352Y-106600705D02*
G01*
X133133226Y-106604610D01*
X133145097Y-106610955D01*
X133155504Y-106619496D01*
X133164045Y-106629903D01*
X133170390Y-106641774D01*
X133174295Y-106654648D01*
X133175800Y-106669926D01*
X133175800Y-107455074D01*
X133174295Y-107470352D01*
X133170390Y-107483226D01*
X133164045Y-107495097D01*
X133155504Y-107505504D01*
X133145097Y-107514045D01*
X133133226Y-107520390D01*
X133120352Y-107524295D01*
X133105074Y-107525800D01*
X132894926Y-107525800D01*
X132879648Y-107524295D01*
X132866774Y-107520390D01*
X132854903Y-107514045D01*
X132844496Y-107505504D01*
X132835955Y-107495097D01*
X132829610Y-107483226D01*
X132825705Y-107470352D01*
X132824200Y-107455074D01*
X132824200Y-106669926D01*
X132825705Y-106654648D01*
X132829610Y-106641774D01*
X132835955Y-106629903D01*
X132844496Y-106619496D01*
X132854903Y-106610955D01*
X132866774Y-106604610D01*
X132879648Y-106600705D01*
X132894926Y-106599200D01*
X133105074Y-106599200D01*
X133120352Y-106600705D01*
G37*
G36*
X136620352Y-106600705D02*
G01*
X136633226Y-106604610D01*
X136645097Y-106610955D01*
X136655504Y-106619496D01*
X136664045Y-106629903D01*
X136670390Y-106641774D01*
X136674295Y-106654648D01*
X136675800Y-106669926D01*
X136675800Y-107455074D01*
X136674295Y-107470352D01*
X136670390Y-107483226D01*
X136664045Y-107495097D01*
X136655504Y-107505504D01*
X136645097Y-107514045D01*
X136633226Y-107520390D01*
X136620352Y-107524295D01*
X136605074Y-107525800D01*
X136394926Y-107525800D01*
X136379648Y-107524295D01*
X136366774Y-107520390D01*
X136354903Y-107514045D01*
X136344496Y-107505504D01*
X136335955Y-107495097D01*
X136329610Y-107483226D01*
X136325705Y-107470352D01*
X136324200Y-107455074D01*
X136324200Y-106669926D01*
X136325705Y-106654648D01*
X136329610Y-106641774D01*
X136335955Y-106629903D01*
X136344496Y-106619496D01*
X136354903Y-106610955D01*
X136366774Y-106604610D01*
X136379648Y-106600705D01*
X136394926Y-106599200D01*
X136605074Y-106599200D01*
X136620352Y-106600705D01*
G37*
G36*
X134120352Y-106600705D02*
G01*
X134133226Y-106604610D01*
X134145097Y-106610955D01*
X134155504Y-106619496D01*
X134164045Y-106629903D01*
X134170390Y-106641774D01*
X134174295Y-106654648D01*
X134175800Y-106669926D01*
X134175800Y-107455074D01*
X134174295Y-107470352D01*
X134170390Y-107483226D01*
X134164045Y-107495097D01*
X134155504Y-107505504D01*
X134145097Y-107514045D01*
X134133226Y-107520390D01*
X134120352Y-107524295D01*
X134105074Y-107525800D01*
X133894926Y-107525800D01*
X133879648Y-107524295D01*
X133866774Y-107520390D01*
X133854903Y-107514045D01*
X133844496Y-107505504D01*
X133835955Y-107495097D01*
X133829610Y-107483226D01*
X133825705Y-107470352D01*
X133824200Y-107455074D01*
X133824200Y-106669926D01*
X133825705Y-106654648D01*
X133829610Y-106641774D01*
X133835955Y-106629903D01*
X133844496Y-106619496D01*
X133854903Y-106610955D01*
X133866774Y-106604610D01*
X133879648Y-106600705D01*
X133894926Y-106599200D01*
X134105074Y-106599200D01*
X134120352Y-106600705D01*
G37*
G36*
X133620352Y-106600705D02*
G01*
X133633226Y-106604610D01*
X133645097Y-106610955D01*
X133655504Y-106619496D01*
X133664045Y-106629903D01*
X133670390Y-106641774D01*
X133674295Y-106654648D01*
X133675800Y-106669926D01*
X133675800Y-107455074D01*
X133674295Y-107470352D01*
X133670390Y-107483226D01*
X133664045Y-107495097D01*
X133655504Y-107505504D01*
X133645097Y-107514045D01*
X133633226Y-107520390D01*
X133620352Y-107524295D01*
X133605074Y-107525800D01*
X133394926Y-107525800D01*
X133379648Y-107524295D01*
X133366774Y-107520390D01*
X133354903Y-107514045D01*
X133344496Y-107505504D01*
X133335955Y-107495097D01*
X133329610Y-107483226D01*
X133325705Y-107470352D01*
X133324200Y-107455074D01*
X133324200Y-106669926D01*
X133325705Y-106654648D01*
X133329610Y-106641774D01*
X133335955Y-106629903D01*
X133344496Y-106619496D01*
X133354903Y-106610955D01*
X133366774Y-106604610D01*
X133379648Y-106600705D01*
X133394926Y-106599200D01*
X133605074Y-106599200D01*
X133620352Y-106600705D01*
G37*
G36*
X132620352Y-106600705D02*
G01*
X132633226Y-106604610D01*
X132645097Y-106610955D01*
X132655504Y-106619496D01*
X132664045Y-106629903D01*
X132670390Y-106641774D01*
X132674295Y-106654648D01*
X132675800Y-106669926D01*
X132675800Y-107455074D01*
X132674295Y-107470352D01*
X132670390Y-107483226D01*
X132664045Y-107495097D01*
X132655504Y-107505504D01*
X132645097Y-107514045D01*
X132633226Y-107520390D01*
X132620352Y-107524295D01*
X132605074Y-107525800D01*
X132394926Y-107525800D01*
X132379648Y-107524295D01*
X132366774Y-107520390D01*
X132354903Y-107514045D01*
X132344496Y-107505504D01*
X132335955Y-107495097D01*
X132329610Y-107483226D01*
X132325705Y-107470352D01*
X132324200Y-107455074D01*
X132324200Y-106669926D01*
X132325705Y-106654648D01*
X132329610Y-106641774D01*
X132335955Y-106629903D01*
X132344496Y-106619496D01*
X132354903Y-106610955D01*
X132366774Y-106604610D01*
X132379648Y-106600705D01*
X132394926Y-106599200D01*
X132605074Y-106599200D01*
X132620352Y-106600705D01*
G37*
G36*
X135620352Y-106600705D02*
G01*
X135633226Y-106604610D01*
X135645097Y-106610955D01*
X135655504Y-106619496D01*
X135664045Y-106629903D01*
X135670390Y-106641774D01*
X135674295Y-106654648D01*
X135675800Y-106669926D01*
X135675800Y-107455074D01*
X135674295Y-107470352D01*
X135670390Y-107483226D01*
X135664045Y-107495097D01*
X135655504Y-107505504D01*
X135645097Y-107514045D01*
X135633226Y-107520390D01*
X135620352Y-107524295D01*
X135605074Y-107525800D01*
X135394926Y-107525800D01*
X135379648Y-107524295D01*
X135366774Y-107520390D01*
X135354903Y-107514045D01*
X135344496Y-107505504D01*
X135335955Y-107495097D01*
X135329610Y-107483226D01*
X135325705Y-107470352D01*
X135324200Y-107455074D01*
X135324200Y-106669926D01*
X135325705Y-106654648D01*
X135329610Y-106641774D01*
X135335955Y-106629903D01*
X135344496Y-106619496D01*
X135354903Y-106610955D01*
X135366774Y-106604610D01*
X135379648Y-106600705D01*
X135394926Y-106599200D01*
X135605074Y-106599200D01*
X135620352Y-106600705D01*
G37*
G36*
X134620352Y-106600705D02*
G01*
X134633226Y-106604610D01*
X134645097Y-106610955D01*
X134655504Y-106619496D01*
X134664045Y-106629903D01*
X134670390Y-106641774D01*
X134674295Y-106654648D01*
X134675800Y-106669926D01*
X134675800Y-107455074D01*
X134674295Y-107470352D01*
X134670390Y-107483226D01*
X134664045Y-107495097D01*
X134655504Y-107505504D01*
X134645097Y-107514045D01*
X134633226Y-107520390D01*
X134620352Y-107524295D01*
X134605074Y-107525800D01*
X134394926Y-107525800D01*
X134379648Y-107524295D01*
X134366774Y-107520390D01*
X134354903Y-107514045D01*
X134344496Y-107505504D01*
X134335955Y-107495097D01*
X134329610Y-107483226D01*
X134325705Y-107470352D01*
X134324200Y-107455074D01*
X134324200Y-106669926D01*
X134325705Y-106654648D01*
X134329610Y-106641774D01*
X134335955Y-106629903D01*
X134344496Y-106619496D01*
X134354903Y-106610955D01*
X134366774Y-106604610D01*
X134379648Y-106600705D01*
X134394926Y-106599200D01*
X134605074Y-106599200D01*
X134620352Y-106600705D01*
G37*
G36*
X135120352Y-106600705D02*
G01*
X135133226Y-106604610D01*
X135145097Y-106610955D01*
X135155504Y-106619496D01*
X135164045Y-106629903D01*
X135170390Y-106641774D01*
X135174295Y-106654648D01*
X135175800Y-106669926D01*
X135175800Y-107455074D01*
X135174295Y-107470352D01*
X135170390Y-107483226D01*
X135164045Y-107495097D01*
X135155504Y-107505504D01*
X135145097Y-107514045D01*
X135133226Y-107520390D01*
X135120352Y-107524295D01*
X135105074Y-107525800D01*
X134894926Y-107525800D01*
X134879648Y-107524295D01*
X134866774Y-107520390D01*
X134854903Y-107514045D01*
X134844496Y-107505504D01*
X134835955Y-107495097D01*
X134829610Y-107483226D01*
X134825705Y-107470352D01*
X134824200Y-107455074D01*
X134824200Y-106669926D01*
X134825705Y-106654648D01*
X134829610Y-106641774D01*
X134835955Y-106629903D01*
X134844496Y-106619496D01*
X134854903Y-106610955D01*
X134866774Y-106604610D01*
X134879648Y-106600705D01*
X134894926Y-106599200D01*
X135105074Y-106599200D01*
X135120352Y-106600705D01*
G37*
G36*
X136120352Y-106600705D02*
G01*
X136133226Y-106604610D01*
X136145097Y-106610955D01*
X136155504Y-106619496D01*
X136164045Y-106629903D01*
X136170390Y-106641774D01*
X136174295Y-106654648D01*
X136175800Y-106669926D01*
X136175800Y-107455074D01*
X136174295Y-107470352D01*
X136170390Y-107483226D01*
X136164045Y-107495097D01*
X136155504Y-107505504D01*
X136145097Y-107514045D01*
X136133226Y-107520390D01*
X136120352Y-107524295D01*
X136105074Y-107525800D01*
X135894926Y-107525800D01*
X135879648Y-107524295D01*
X135866774Y-107520390D01*
X135854903Y-107514045D01*
X135844496Y-107505504D01*
X135835955Y-107495097D01*
X135829610Y-107483226D01*
X135825705Y-107470352D01*
X135824200Y-107455074D01*
X135824200Y-106669926D01*
X135825705Y-106654648D01*
X135829610Y-106641774D01*
X135835955Y-106629903D01*
X135844496Y-106619496D01*
X135854903Y-106610955D01*
X135866774Y-106604610D01*
X135879648Y-106600705D01*
X135894926Y-106599200D01*
X136105074Y-106599200D01*
X136120352Y-106600705D01*
G37*
G36*
X119850800Y-107350800D02*
G01*
X118149200Y-107350800D01*
X118149200Y-105649200D01*
X119850800Y-105649200D01*
X119850800Y-107350800D01*
G37*
G36*
X139246929Y-106172337D02*
G01*
X139275758Y-106181082D01*
X139302323Y-106195282D01*
X139325608Y-106214392D01*
X139344718Y-106237677D01*
X139358918Y-106264242D01*
X139367663Y-106293071D01*
X139370800Y-106324926D01*
X139370800Y-106705074D01*
X139367663Y-106736929D01*
X139358918Y-106765758D01*
X139344718Y-106792323D01*
X139325608Y-106815608D01*
X139302323Y-106834718D01*
X139275758Y-106848918D01*
X139246929Y-106857663D01*
X139215074Y-106860800D01*
X138784926Y-106860800D01*
X138753071Y-106857663D01*
X138724242Y-106848918D01*
X138697677Y-106834718D01*
X138674392Y-106815608D01*
X138655282Y-106792323D01*
X138641082Y-106765758D01*
X138632337Y-106736929D01*
X138629200Y-106705074D01*
X138629200Y-106324926D01*
X138632337Y-106293071D01*
X138641082Y-106264242D01*
X138655282Y-106237677D01*
X138674392Y-106214392D01*
X138697677Y-106195282D01*
X138724242Y-106181082D01*
X138753071Y-106172337D01*
X138784926Y-106169200D01*
X139215074Y-106169200D01*
X139246929Y-106172337D01*
G37*
G36*
X164748169Y-105181895D02*
G01*
X164857655Y-105227246D01*
X164903006Y-105246031D01*
X164951403Y-105278369D01*
X165042354Y-105339140D01*
X165160860Y-105457646D01*
X165216675Y-105541179D01*
X165253969Y-105596994D01*
X165253969Y-105596995D01*
X165318105Y-105751831D01*
X165350800Y-105916203D01*
X165350800Y-106083797D01*
X165318105Y-106248169D01*
X165279197Y-106342100D01*
X165253969Y-106403006D01*
X165216675Y-106458821D01*
X165160860Y-106542354D01*
X165042354Y-106660860D01*
X165001885Y-106687900D01*
X164903006Y-106753969D01*
X164857655Y-106772754D01*
X164748169Y-106818105D01*
X164583797Y-106850800D01*
X164416203Y-106850800D01*
X164251831Y-106818105D01*
X164142345Y-106772754D01*
X164096994Y-106753969D01*
X163998115Y-106687900D01*
X163957646Y-106660860D01*
X163839140Y-106542354D01*
X163783325Y-106458821D01*
X163746031Y-106403006D01*
X163720803Y-106342100D01*
X163681895Y-106248169D01*
X163649200Y-106083797D01*
X163649200Y-105916203D01*
X163681895Y-105751831D01*
X163746031Y-105596995D01*
X163746031Y-105596994D01*
X163783325Y-105541179D01*
X163839140Y-105457646D01*
X163957646Y-105339140D01*
X164048597Y-105278369D01*
X164096994Y-105246031D01*
X164142345Y-105227246D01*
X164251831Y-105181895D01*
X164416203Y-105149200D01*
X164583797Y-105149200D01*
X164748169Y-105181895D01*
G37*
G36*
X162748169Y-105181895D02*
G01*
X162857655Y-105227246D01*
X162903006Y-105246031D01*
X162951403Y-105278369D01*
X163042354Y-105339140D01*
X163160860Y-105457646D01*
X163216675Y-105541179D01*
X163253969Y-105596994D01*
X163253969Y-105596995D01*
X163318105Y-105751831D01*
X163350800Y-105916203D01*
X163350800Y-106083797D01*
X163318105Y-106248169D01*
X163279197Y-106342100D01*
X163253969Y-106403006D01*
X163216675Y-106458821D01*
X163160860Y-106542354D01*
X163042354Y-106660860D01*
X163001885Y-106687900D01*
X162903006Y-106753969D01*
X162857655Y-106772754D01*
X162748169Y-106818105D01*
X162583797Y-106850800D01*
X162416203Y-106850800D01*
X162251831Y-106818105D01*
X162142345Y-106772754D01*
X162096994Y-106753969D01*
X161998115Y-106687900D01*
X161957646Y-106660860D01*
X161839140Y-106542354D01*
X161783325Y-106458821D01*
X161746031Y-106403006D01*
X161720803Y-106342100D01*
X161681895Y-106248169D01*
X161649200Y-106083797D01*
X161649200Y-105916203D01*
X161681895Y-105751831D01*
X161746031Y-105596995D01*
X161746031Y-105596994D01*
X161783325Y-105541179D01*
X161839140Y-105457646D01*
X161957646Y-105339140D01*
X162048597Y-105278369D01*
X162096994Y-105246031D01*
X162142345Y-105227246D01*
X162251831Y-105181895D01*
X162416203Y-105149200D01*
X162583797Y-105149200D01*
X162748169Y-105181895D01*
G37*
G36*
X167850800Y-106850800D02*
G01*
X166149200Y-106850800D01*
X166149200Y-105149200D01*
X167850800Y-105149200D01*
X167850800Y-106850800D01*
G37*
G36*
X160248169Y-105181895D02*
G01*
X160357655Y-105227246D01*
X160403006Y-105246031D01*
X160451403Y-105278369D01*
X160542354Y-105339140D01*
X160660860Y-105457646D01*
X160716675Y-105541179D01*
X160753969Y-105596994D01*
X160753969Y-105596995D01*
X160818105Y-105751831D01*
X160850800Y-105916203D01*
X160850800Y-106083797D01*
X160818105Y-106248169D01*
X160779197Y-106342100D01*
X160753969Y-106403006D01*
X160716675Y-106458821D01*
X160660860Y-106542354D01*
X160542354Y-106660860D01*
X160501885Y-106687900D01*
X160403006Y-106753969D01*
X160357655Y-106772754D01*
X160248169Y-106818105D01*
X160083797Y-106850800D01*
X159916203Y-106850800D01*
X159751831Y-106818105D01*
X159642345Y-106772754D01*
X159596994Y-106753969D01*
X159498115Y-106687900D01*
X159457646Y-106660860D01*
X159339140Y-106542354D01*
X159283325Y-106458821D01*
X159246031Y-106403006D01*
X159220803Y-106342100D01*
X159181895Y-106248169D01*
X159149200Y-106083797D01*
X159149200Y-105916203D01*
X159181895Y-105751831D01*
X159246031Y-105596995D01*
X159246031Y-105596994D01*
X159283325Y-105541179D01*
X159339140Y-105457646D01*
X159457646Y-105339140D01*
X159548597Y-105278369D01*
X159596994Y-105246031D01*
X159642345Y-105227246D01*
X159751831Y-105181895D01*
X159916203Y-105149200D01*
X160083797Y-105149200D01*
X160248169Y-105181895D01*
G37*
G36*
X133746929Y-105142337D02*
G01*
X133775758Y-105151082D01*
X133802323Y-105165282D01*
X133825608Y-105184392D01*
X133844718Y-105207677D01*
X133858918Y-105234242D01*
X133867663Y-105263071D01*
X133870800Y-105294926D01*
X133870800Y-105675074D01*
X133867663Y-105706929D01*
X133858918Y-105735758D01*
X133844718Y-105762323D01*
X133825608Y-105785608D01*
X133802323Y-105804718D01*
X133775758Y-105818918D01*
X133746929Y-105827663D01*
X133715074Y-105830800D01*
X133284926Y-105830800D01*
X133253071Y-105827663D01*
X133224242Y-105818918D01*
X133197677Y-105804718D01*
X133174392Y-105785608D01*
X133155282Y-105762323D01*
X133141082Y-105735758D01*
X133132337Y-105706929D01*
X133129200Y-105675074D01*
X133129200Y-105294926D01*
X133132337Y-105263071D01*
X133141082Y-105234242D01*
X133155282Y-105207677D01*
X133174392Y-105184392D01*
X133197677Y-105165282D01*
X133224242Y-105151082D01*
X133253071Y-105142337D01*
X133284926Y-105139200D01*
X133715074Y-105139200D01*
X133746929Y-105142337D01*
G37*
G36*
X136246929Y-105142337D02*
G01*
X136275758Y-105151082D01*
X136302323Y-105165282D01*
X136325608Y-105184392D01*
X136344718Y-105207677D01*
X136358918Y-105234242D01*
X136367663Y-105263071D01*
X136370800Y-105294926D01*
X136370800Y-105675074D01*
X136367663Y-105706929D01*
X136358918Y-105735758D01*
X136344718Y-105762323D01*
X136325608Y-105785608D01*
X136302323Y-105804718D01*
X136275758Y-105818918D01*
X136246929Y-105827663D01*
X136215074Y-105830800D01*
X135784926Y-105830800D01*
X135753071Y-105827663D01*
X135724242Y-105818918D01*
X135697677Y-105804718D01*
X135674392Y-105785608D01*
X135655282Y-105762323D01*
X135641082Y-105735758D01*
X135632337Y-105706929D01*
X135629200Y-105675074D01*
X135629200Y-105294926D01*
X135632337Y-105263071D01*
X135641082Y-105234242D01*
X135655282Y-105207677D01*
X135674392Y-105184392D01*
X135697677Y-105165282D01*
X135724242Y-105151082D01*
X135753071Y-105142337D01*
X135784926Y-105139200D01*
X136215074Y-105139200D01*
X136246929Y-105142337D01*
G37*
G36*
X132746929Y-105142337D02*
G01*
X132775758Y-105151082D01*
X132802323Y-105165282D01*
X132825608Y-105184392D01*
X132844718Y-105207677D01*
X132858918Y-105234242D01*
X132867663Y-105263071D01*
X132870800Y-105294926D01*
X132870800Y-105675074D01*
X132867663Y-105706929D01*
X132858918Y-105735758D01*
X132844718Y-105762323D01*
X132825608Y-105785608D01*
X132802323Y-105804718D01*
X132775758Y-105818918D01*
X132746929Y-105827663D01*
X132715074Y-105830800D01*
X132284926Y-105830800D01*
X132253071Y-105827663D01*
X132224242Y-105818918D01*
X132197677Y-105804718D01*
X132174392Y-105785608D01*
X132155282Y-105762323D01*
X132141082Y-105735758D01*
X132132337Y-105706929D01*
X132129200Y-105675074D01*
X132129200Y-105294926D01*
X132132337Y-105263071D01*
X132141082Y-105234242D01*
X132155282Y-105207677D01*
X132174392Y-105184392D01*
X132197677Y-105165282D01*
X132224242Y-105151082D01*
X132253071Y-105142337D01*
X132284926Y-105139200D01*
X132715074Y-105139200D01*
X132746929Y-105142337D01*
G37*
G36*
X138246929Y-105142337D02*
G01*
X138275758Y-105151082D01*
X138302323Y-105165282D01*
X138325608Y-105184392D01*
X138344718Y-105207677D01*
X138358918Y-105234242D01*
X138367663Y-105263071D01*
X138370800Y-105294926D01*
X138370800Y-105675074D01*
X138367663Y-105706929D01*
X138358918Y-105735758D01*
X138344718Y-105762323D01*
X138325608Y-105785608D01*
X138302323Y-105804718D01*
X138275758Y-105818918D01*
X138246929Y-105827663D01*
X138215074Y-105830800D01*
X137784926Y-105830800D01*
X137753071Y-105827663D01*
X137724242Y-105818918D01*
X137697677Y-105804718D01*
X137674392Y-105785608D01*
X137655282Y-105762323D01*
X137641082Y-105735758D01*
X137632337Y-105706929D01*
X137629200Y-105675074D01*
X137629200Y-105294926D01*
X137632337Y-105263071D01*
X137641082Y-105234242D01*
X137655282Y-105207677D01*
X137674392Y-105184392D01*
X137697677Y-105165282D01*
X137724242Y-105151082D01*
X137753071Y-105142337D01*
X137784926Y-105139200D01*
X138215074Y-105139200D01*
X138246929Y-105142337D01*
G37*
G36*
X139246929Y-105142337D02*
G01*
X139275758Y-105151082D01*
X139302323Y-105165282D01*
X139325608Y-105184392D01*
X139344718Y-105207677D01*
X139358918Y-105234242D01*
X139367663Y-105263071D01*
X139370800Y-105294926D01*
X139370800Y-105675074D01*
X139367663Y-105706929D01*
X139358918Y-105735758D01*
X139344718Y-105762323D01*
X139325608Y-105785608D01*
X139302323Y-105804718D01*
X139275758Y-105818918D01*
X139246929Y-105827663D01*
X139215074Y-105830800D01*
X138784926Y-105830800D01*
X138753071Y-105827663D01*
X138724242Y-105818918D01*
X138697677Y-105804718D01*
X138674392Y-105785608D01*
X138655282Y-105762323D01*
X138641082Y-105735758D01*
X138632337Y-105706929D01*
X138629200Y-105675074D01*
X138629200Y-105294926D01*
X138632337Y-105263071D01*
X138641082Y-105234242D01*
X138655282Y-105207677D01*
X138674392Y-105184392D01*
X138697677Y-105165282D01*
X138724242Y-105151082D01*
X138753071Y-105142337D01*
X138784926Y-105139200D01*
X139215074Y-105139200D01*
X139246929Y-105142337D01*
G37*
G36*
X131746929Y-105142337D02*
G01*
X131775758Y-105151082D01*
X131802323Y-105165282D01*
X131825608Y-105184392D01*
X131844718Y-105207677D01*
X131858918Y-105234242D01*
X131867663Y-105263071D01*
X131870800Y-105294926D01*
X131870800Y-105675074D01*
X131867663Y-105706929D01*
X131858918Y-105735758D01*
X131844718Y-105762323D01*
X131825608Y-105785608D01*
X131802323Y-105804718D01*
X131775758Y-105818918D01*
X131746929Y-105827663D01*
X131715074Y-105830800D01*
X131284926Y-105830800D01*
X131253071Y-105827663D01*
X131224242Y-105818918D01*
X131197677Y-105804718D01*
X131174392Y-105785608D01*
X131155282Y-105762323D01*
X131141082Y-105735758D01*
X131132337Y-105706929D01*
X131129200Y-105675074D01*
X131129200Y-105294926D01*
X131132337Y-105263071D01*
X131141082Y-105234242D01*
X131155282Y-105207677D01*
X131174392Y-105184392D01*
X131197677Y-105165282D01*
X131224242Y-105151082D01*
X131253071Y-105142337D01*
X131284926Y-105139200D01*
X131715074Y-105139200D01*
X131746929Y-105142337D01*
G37*
G36*
X125750800Y-105425800D02*
G01*
X125299200Y-105425800D01*
X125299200Y-104674200D01*
X125750800Y-104674200D01*
X125750800Y-105425800D01*
G37*
G36*
X126400800Y-105425800D02*
G01*
X125949200Y-105425800D01*
X125949200Y-104674200D01*
X126400800Y-104674200D01*
X126400800Y-105425800D01*
G37*
G36*
X127050800Y-105425800D02*
G01*
X126599200Y-105425800D01*
X126599200Y-104674200D01*
X127050800Y-104674200D01*
X127050800Y-105425800D01*
G37*
G36*
X127700800Y-105425800D02*
G01*
X127249200Y-105425800D01*
X127249200Y-104674200D01*
X127700800Y-104674200D01*
X127700800Y-105425800D01*
G37*
G36*
X116742352Y-101938796D02*
G01*
X116941917Y-102021459D01*
X117024580Y-102055699D01*
X117069054Y-102085416D01*
X117278578Y-102225415D01*
X117494585Y-102441422D01*
X117570756Y-102555421D01*
X117664301Y-102695420D01*
X117664301Y-102695421D01*
X117781204Y-102977648D01*
X117840800Y-103277259D01*
X117840800Y-103582741D01*
X117781204Y-103882352D01*
X117722291Y-104024579D01*
X117664301Y-104164580D01*
X117597709Y-104264242D01*
X117494585Y-104418578D01*
X117278578Y-104634585D01*
X117173083Y-104705074D01*
X117024580Y-104804301D01*
X117010437Y-104810159D01*
X116742352Y-104921204D01*
X116442741Y-104980800D01*
X116137259Y-104980800D01*
X115837648Y-104921204D01*
X115569563Y-104810159D01*
X115555420Y-104804301D01*
X115406917Y-104705074D01*
X115301422Y-104634585D01*
X115085415Y-104418578D01*
X114982291Y-104264242D01*
X114915699Y-104164580D01*
X114857709Y-104024579D01*
X114798796Y-103882352D01*
X114739200Y-103582741D01*
X114739200Y-103277259D01*
X114798796Y-102977648D01*
X114915699Y-102695421D01*
X114915699Y-102695420D01*
X115009244Y-102555421D01*
X115085415Y-102441422D01*
X115301422Y-102225415D01*
X115510946Y-102085416D01*
X115555420Y-102055699D01*
X115638083Y-102021459D01*
X115837648Y-101938796D01*
X116137259Y-101879200D01*
X116442741Y-101879200D01*
X116742352Y-101938796D01*
G37*
G36*
X139246929Y-104172337D02*
G01*
X139275758Y-104181082D01*
X139302323Y-104195282D01*
X139325608Y-104214392D01*
X139344718Y-104237677D01*
X139358918Y-104264242D01*
X139367663Y-104293071D01*
X139370800Y-104324926D01*
X139370800Y-104705074D01*
X139367663Y-104736929D01*
X139358918Y-104765758D01*
X139344718Y-104792323D01*
X139325608Y-104815608D01*
X139302323Y-104834718D01*
X139275758Y-104848918D01*
X139246929Y-104857663D01*
X139215074Y-104860800D01*
X138784926Y-104860800D01*
X138753071Y-104857663D01*
X138724242Y-104848918D01*
X138697677Y-104834718D01*
X138674392Y-104815608D01*
X138655282Y-104792323D01*
X138641082Y-104765758D01*
X138632337Y-104736929D01*
X138629200Y-104705074D01*
X138629200Y-104324926D01*
X138632337Y-104293071D01*
X138641082Y-104264242D01*
X138655282Y-104237677D01*
X138674392Y-104214392D01*
X138697677Y-104195282D01*
X138724242Y-104181082D01*
X138753071Y-104172337D01*
X138784926Y-104169200D01*
X139215074Y-104169200D01*
X139246929Y-104172337D01*
G37*
G36*
X132746929Y-104172337D02*
G01*
X132775758Y-104181082D01*
X132802323Y-104195282D01*
X132825608Y-104214392D01*
X132844718Y-104237677D01*
X132858918Y-104264242D01*
X132867663Y-104293071D01*
X132870800Y-104324926D01*
X132870800Y-104705074D01*
X132867663Y-104736929D01*
X132858918Y-104765758D01*
X132844718Y-104792323D01*
X132825608Y-104815608D01*
X132802323Y-104834718D01*
X132775758Y-104848918D01*
X132746929Y-104857663D01*
X132715074Y-104860800D01*
X132284926Y-104860800D01*
X132253071Y-104857663D01*
X132224242Y-104848918D01*
X132197677Y-104834718D01*
X132174392Y-104815608D01*
X132155282Y-104792323D01*
X132141082Y-104765758D01*
X132132337Y-104736929D01*
X132129200Y-104705074D01*
X132129200Y-104324926D01*
X132132337Y-104293071D01*
X132141082Y-104264242D01*
X132155282Y-104237677D01*
X132174392Y-104214392D01*
X132197677Y-104195282D01*
X132224242Y-104181082D01*
X132253071Y-104172337D01*
X132284926Y-104169200D01*
X132715074Y-104169200D01*
X132746929Y-104172337D01*
G37*
G36*
X131746929Y-104172337D02*
G01*
X131775758Y-104181082D01*
X131802323Y-104195282D01*
X131825608Y-104214392D01*
X131844718Y-104237677D01*
X131858918Y-104264242D01*
X131867663Y-104293071D01*
X131870800Y-104324926D01*
X131870800Y-104705074D01*
X131867663Y-104736929D01*
X131858918Y-104765758D01*
X131844718Y-104792323D01*
X131825608Y-104815608D01*
X131802323Y-104834718D01*
X131775758Y-104848918D01*
X131746929Y-104857663D01*
X131715074Y-104860800D01*
X131284926Y-104860800D01*
X131253071Y-104857663D01*
X131224242Y-104848918D01*
X131197677Y-104834718D01*
X131174392Y-104815608D01*
X131155282Y-104792323D01*
X131141082Y-104765758D01*
X131132337Y-104736929D01*
X131129200Y-104705074D01*
X131129200Y-104324926D01*
X131132337Y-104293071D01*
X131141082Y-104264242D01*
X131155282Y-104237677D01*
X131174392Y-104214392D01*
X131197677Y-104195282D01*
X131224242Y-104181082D01*
X131253071Y-104172337D01*
X131284926Y-104169200D01*
X131715074Y-104169200D01*
X131746929Y-104172337D01*
G37*
G36*
X138246929Y-104172337D02*
G01*
X138275758Y-104181082D01*
X138302323Y-104195282D01*
X138325608Y-104214392D01*
X138344718Y-104237677D01*
X138358918Y-104264242D01*
X138367663Y-104293071D01*
X138370800Y-104324926D01*
X138370800Y-104705074D01*
X138367663Y-104736929D01*
X138358918Y-104765758D01*
X138344718Y-104792323D01*
X138325608Y-104815608D01*
X138302323Y-104834718D01*
X138275758Y-104848918D01*
X138246929Y-104857663D01*
X138215074Y-104860800D01*
X137784926Y-104860800D01*
X137753071Y-104857663D01*
X137724242Y-104848918D01*
X137697677Y-104834718D01*
X137674392Y-104815608D01*
X137655282Y-104792323D01*
X137641082Y-104765758D01*
X137632337Y-104736929D01*
X137629200Y-104705074D01*
X137629200Y-104324926D01*
X137632337Y-104293071D01*
X137641082Y-104264242D01*
X137655282Y-104237677D01*
X137674392Y-104214392D01*
X137697677Y-104195282D01*
X137724242Y-104181082D01*
X137753071Y-104172337D01*
X137784926Y-104169200D01*
X138215074Y-104169200D01*
X138246929Y-104172337D01*
G37*
G36*
X136246929Y-104172337D02*
G01*
X136275758Y-104181082D01*
X136302323Y-104195282D01*
X136325608Y-104214392D01*
X136344718Y-104237677D01*
X136358918Y-104264242D01*
X136367663Y-104293071D01*
X136370800Y-104324926D01*
X136370800Y-104705074D01*
X136367663Y-104736929D01*
X136358918Y-104765758D01*
X136344718Y-104792323D01*
X136325608Y-104815608D01*
X136302323Y-104834718D01*
X136275758Y-104848918D01*
X136246929Y-104857663D01*
X136215074Y-104860800D01*
X135784926Y-104860800D01*
X135753071Y-104857663D01*
X135724242Y-104848918D01*
X135697677Y-104834718D01*
X135674392Y-104815608D01*
X135655282Y-104792323D01*
X135641082Y-104765758D01*
X135632337Y-104736929D01*
X135629200Y-104705074D01*
X135629200Y-104324926D01*
X135632337Y-104293071D01*
X135641082Y-104264242D01*
X135655282Y-104237677D01*
X135674392Y-104214392D01*
X135697677Y-104195282D01*
X135724242Y-104181082D01*
X135753071Y-104172337D01*
X135784926Y-104169200D01*
X136215074Y-104169200D01*
X136246929Y-104172337D01*
G37*
G36*
X133746929Y-104172337D02*
G01*
X133775758Y-104181082D01*
X133802323Y-104195282D01*
X133825608Y-104214392D01*
X133844718Y-104237677D01*
X133858918Y-104264242D01*
X133867663Y-104293071D01*
X133870800Y-104324926D01*
X133870800Y-104705074D01*
X133867663Y-104736929D01*
X133858918Y-104765758D01*
X133844718Y-104792323D01*
X133825608Y-104815608D01*
X133802323Y-104834718D01*
X133775758Y-104848918D01*
X133746929Y-104857663D01*
X133715074Y-104860800D01*
X133284926Y-104860800D01*
X133253071Y-104857663D01*
X133224242Y-104848918D01*
X133197677Y-104834718D01*
X133174392Y-104815608D01*
X133155282Y-104792323D01*
X133141082Y-104765758D01*
X133132337Y-104736929D01*
X133129200Y-104705074D01*
X133129200Y-104324926D01*
X133132337Y-104293071D01*
X133141082Y-104264242D01*
X133155282Y-104237677D01*
X133174392Y-104214392D01*
X133197677Y-104195282D01*
X133224242Y-104181082D01*
X133253071Y-104172337D01*
X133284926Y-104169200D01*
X133715074Y-104169200D01*
X133746929Y-104172337D01*
G37*
G36*
X170522352Y-101798796D02*
G01*
X170716463Y-101879200D01*
X170804580Y-101915699D01*
X170839148Y-101938797D01*
X171058578Y-102085415D01*
X171274585Y-102301422D01*
X171368130Y-102441422D01*
X171444301Y-102555420D01*
X171444301Y-102555421D01*
X171561204Y-102837648D01*
X171620800Y-103137259D01*
X171620800Y-103442741D01*
X171561204Y-103742352D01*
X171478541Y-103941917D01*
X171444301Y-104024580D01*
X171376322Y-104126317D01*
X171274585Y-104278578D01*
X171058578Y-104494585D01*
X170906317Y-104596322D01*
X170804580Y-104664301D01*
X170721917Y-104698541D01*
X170522352Y-104781204D01*
X170222741Y-104840800D01*
X169917259Y-104840800D01*
X169617648Y-104781204D01*
X169418083Y-104698541D01*
X169335420Y-104664301D01*
X169233683Y-104596322D01*
X169081422Y-104494585D01*
X168865415Y-104278578D01*
X168763678Y-104126317D01*
X168695699Y-104024580D01*
X168661459Y-103941917D01*
X168578796Y-103742352D01*
X168519200Y-103442741D01*
X168519200Y-103137259D01*
X168578796Y-102837648D01*
X168695699Y-102555421D01*
X168695699Y-102555420D01*
X168771870Y-102441422D01*
X168865415Y-102301422D01*
X169081422Y-102085415D01*
X169300852Y-101938797D01*
X169335420Y-101915699D01*
X169423537Y-101879200D01*
X169617648Y-101798796D01*
X169917259Y-101739200D01*
X170222741Y-101739200D01*
X170522352Y-101798796D01*
G37*
G36*
X157382352Y-101798796D02*
G01*
X157576463Y-101879200D01*
X157664580Y-101915699D01*
X157699148Y-101938797D01*
X157918578Y-102085415D01*
X158134585Y-102301422D01*
X158228130Y-102441422D01*
X158304301Y-102555420D01*
X158304301Y-102555421D01*
X158421204Y-102837648D01*
X158480800Y-103137259D01*
X158480800Y-103442741D01*
X158421204Y-103742352D01*
X158338541Y-103941917D01*
X158304301Y-104024580D01*
X158236322Y-104126317D01*
X158134585Y-104278578D01*
X157918578Y-104494585D01*
X157766317Y-104596322D01*
X157664580Y-104664301D01*
X157581917Y-104698541D01*
X157382352Y-104781204D01*
X157082741Y-104840800D01*
X156777259Y-104840800D01*
X156477648Y-104781204D01*
X156278083Y-104698541D01*
X156195420Y-104664301D01*
X156093683Y-104596322D01*
X155941422Y-104494585D01*
X155725415Y-104278578D01*
X155623678Y-104126317D01*
X155555699Y-104024580D01*
X155521459Y-103941917D01*
X155438796Y-103742352D01*
X155379200Y-103442741D01*
X155379200Y-103137259D01*
X155438796Y-102837648D01*
X155555699Y-102555421D01*
X155555699Y-102555420D01*
X155631870Y-102441422D01*
X155725415Y-102301422D01*
X155941422Y-102085415D01*
X156160852Y-101938797D01*
X156195420Y-101915699D01*
X156283537Y-101879200D01*
X156477648Y-101798796D01*
X156777259Y-101739200D01*
X157082741Y-101739200D01*
X157382352Y-101798796D01*
G37*
G36*
X127750800Y-104325800D02*
G01*
X125249200Y-104325800D01*
X125249200Y-102674200D01*
X127750800Y-102674200D01*
X127750800Y-104325800D01*
G37*
G36*
X125750800Y-102325800D02*
G01*
X125299200Y-102325800D01*
X125299200Y-101574200D01*
X125750800Y-101574200D01*
X125750800Y-102325800D01*
G37*
G36*
X127700800Y-102325800D02*
G01*
X127249200Y-102325800D01*
X127249200Y-101574200D01*
X127700800Y-101574200D01*
X127700800Y-102325800D01*
G37*
G36*
X127050800Y-102325800D02*
G01*
X126599200Y-102325800D01*
X126599200Y-101574200D01*
X127050800Y-101574200D01*
X127050800Y-102325800D01*
G37*
G36*
X126400800Y-102325800D02*
G01*
X125949200Y-102325800D01*
X125949200Y-101574200D01*
X126400800Y-101574200D01*
X126400800Y-102325800D01*
G37*
G36*
X135600800Y-101800800D02*
G01*
X134749200Y-101800800D01*
X134749200Y-100999200D01*
X135600800Y-100999200D01*
X135600800Y-101800800D01*
G37*
G36*
X134250800Y-101800800D02*
G01*
X133399200Y-101800800D01*
X133399200Y-100999200D01*
X134250800Y-100999200D01*
X134250800Y-101800800D01*
G37*
G36*
X123146929Y-101042337D02*
G01*
X123175758Y-101051082D01*
X123202323Y-101065282D01*
X123225608Y-101084392D01*
X123244718Y-101107677D01*
X123258918Y-101134242D01*
X123267663Y-101163071D01*
X123270800Y-101194926D01*
X123270800Y-101575074D01*
X123267663Y-101606929D01*
X123258918Y-101635758D01*
X123244718Y-101662323D01*
X123225608Y-101685608D01*
X123202323Y-101704718D01*
X123175758Y-101718918D01*
X123146929Y-101727663D01*
X123115074Y-101730800D01*
X122684926Y-101730800D01*
X122653071Y-101727663D01*
X122624242Y-101718918D01*
X122597677Y-101704718D01*
X122574392Y-101685608D01*
X122555282Y-101662323D01*
X122541082Y-101635758D01*
X122532337Y-101606929D01*
X122529200Y-101575074D01*
X122529200Y-101194926D01*
X122532337Y-101163071D01*
X122541082Y-101134242D01*
X122555282Y-101107677D01*
X122574392Y-101084392D01*
X122597677Y-101065282D01*
X122624242Y-101051082D01*
X122653071Y-101042337D01*
X122684926Y-101039200D01*
X123115074Y-101039200D01*
X123146929Y-101042337D01*
G37*
G36*
X135600800Y-100800800D02*
G01*
X134749200Y-100800800D01*
X134749200Y-99999200D01*
X135600800Y-99999200D01*
X135600800Y-100800800D01*
G37*
G36*
X134250800Y-100800800D02*
G01*
X133399200Y-100800800D01*
X133399200Y-99999200D01*
X134250800Y-99999200D01*
X134250800Y-100800800D01*
G37*
G36*
X123146929Y-100072337D02*
G01*
X123175758Y-100081082D01*
X123202323Y-100095282D01*
X123225608Y-100114392D01*
X123244718Y-100137677D01*
X123258918Y-100164242D01*
X123267663Y-100193071D01*
X123270800Y-100224926D01*
X123270800Y-100605074D01*
X123267663Y-100636929D01*
X123258918Y-100665758D01*
X123244718Y-100692323D01*
X123225608Y-100715608D01*
X123202323Y-100734718D01*
X123175758Y-100748918D01*
X123146929Y-100757663D01*
X123115074Y-100760800D01*
X122684926Y-100760800D01*
X122653071Y-100757663D01*
X122624242Y-100748918D01*
X122597677Y-100734718D01*
X122574392Y-100715608D01*
X122555282Y-100692323D01*
X122541082Y-100665758D01*
X122532337Y-100636929D01*
X122529200Y-100605074D01*
X122529200Y-100224926D01*
X122532337Y-100193071D01*
X122541082Y-100164242D01*
X122555282Y-100137677D01*
X122574392Y-100114392D01*
X122597677Y-100095282D01*
X122624242Y-100081082D01*
X122653071Y-100072337D01*
X122684926Y-100069200D01*
X123115074Y-100069200D01*
X123146929Y-100072337D01*
G37*
G36*
X143344041Y-95447226D02*
G01*
X143808258Y-95639510D01*
X144085751Y-95824926D01*
X144226040Y-95918664D01*
X144581336Y-96273960D01*
X144605523Y-96310159D01*
X144860490Y-96691742D01*
X145052774Y-97155959D01*
X145150800Y-97648768D01*
X145150800Y-98151232D01*
X145137153Y-98219841D01*
X145052774Y-98644041D01*
X144860490Y-99108258D01*
X144648342Y-99425758D01*
X144592777Y-99508918D01*
X144581335Y-99526041D01*
X144226041Y-99881335D01*
X143808258Y-100160490D01*
X143344041Y-100352774D01*
X142851232Y-100450800D01*
X142348768Y-100450800D01*
X141855959Y-100352774D01*
X141391742Y-100160490D01*
X140973959Y-99881335D01*
X140618665Y-99526041D01*
X140607224Y-99508918D01*
X140551658Y-99425758D01*
X140339510Y-99108258D01*
X140147226Y-98644041D01*
X140062847Y-98219841D01*
X140049200Y-98151232D01*
X140049200Y-97648768D01*
X140147226Y-97155959D01*
X140339510Y-96691742D01*
X140594477Y-96310159D01*
X140618664Y-96273960D01*
X140973960Y-95918664D01*
X141114249Y-95824926D01*
X141391742Y-95639510D01*
X141855959Y-95447226D01*
X142348768Y-95349200D01*
X142851232Y-95349200D01*
X143344041Y-95447226D01*
G37*
G36*
X119194041Y-95447226D02*
G01*
X119658258Y-95639510D01*
X119935751Y-95824926D01*
X120076040Y-95918664D01*
X120431336Y-96273960D01*
X120455523Y-96310159D01*
X120710490Y-96691742D01*
X120902774Y-97155959D01*
X121000800Y-97648768D01*
X121000800Y-98151232D01*
X120987153Y-98219841D01*
X120902774Y-98644041D01*
X120710490Y-99108258D01*
X120498342Y-99425758D01*
X120442777Y-99508918D01*
X120431335Y-99526041D01*
X120076041Y-99881335D01*
X119658258Y-100160490D01*
X119194041Y-100352774D01*
X118701232Y-100450800D01*
X118198768Y-100450800D01*
X117705959Y-100352774D01*
X117241742Y-100160490D01*
X116823959Y-99881335D01*
X116468665Y-99526041D01*
X116457224Y-99508918D01*
X116401658Y-99425758D01*
X116189510Y-99108258D01*
X115997226Y-98644041D01*
X115912847Y-98219841D01*
X115899200Y-98151232D01*
X115899200Y-97648768D01*
X115997226Y-97155959D01*
X116189510Y-96691742D01*
X116444477Y-96310159D01*
X116468664Y-96273960D01*
X116823960Y-95918664D01*
X116964249Y-95824926D01*
X117241742Y-95639510D01*
X117705959Y-95447226D01*
X118198768Y-95349200D01*
X118701232Y-95349200D01*
X119194041Y-95447226D01*
G37*
G36*
X153746929Y-99142337D02*
G01*
X153775758Y-99151082D01*
X153802323Y-99165282D01*
X153825608Y-99184392D01*
X153844718Y-99207677D01*
X153858918Y-99234242D01*
X153867663Y-99263071D01*
X153870800Y-99294926D01*
X153870800Y-99675074D01*
X153867663Y-99706929D01*
X153858918Y-99735758D01*
X153844718Y-99762323D01*
X153825608Y-99785608D01*
X153802323Y-99804718D01*
X153775758Y-99818918D01*
X153746929Y-99827663D01*
X153715074Y-99830800D01*
X153284926Y-99830800D01*
X153253071Y-99827663D01*
X153224242Y-99818918D01*
X153197677Y-99804718D01*
X153174392Y-99785608D01*
X153155282Y-99762323D01*
X153141082Y-99735758D01*
X153132337Y-99706929D01*
X153129200Y-99675074D01*
X153129200Y-99294926D01*
X153132337Y-99263071D01*
X153141082Y-99234242D01*
X153155282Y-99207677D01*
X153174392Y-99184392D01*
X153197677Y-99165282D01*
X153224242Y-99151082D01*
X153253071Y-99142337D01*
X153284926Y-99139200D01*
X153715074Y-99139200D01*
X153746929Y-99142337D01*
G37*
G36*
X154746929Y-99142337D02*
G01*
X154775758Y-99151082D01*
X154802323Y-99165282D01*
X154825608Y-99184392D01*
X154844718Y-99207677D01*
X154858918Y-99234242D01*
X154867663Y-99263071D01*
X154870800Y-99294926D01*
X154870800Y-99675074D01*
X154867663Y-99706929D01*
X154858918Y-99735758D01*
X154844718Y-99762323D01*
X154825608Y-99785608D01*
X154802323Y-99804718D01*
X154775758Y-99818918D01*
X154746929Y-99827663D01*
X154715074Y-99830800D01*
X154284926Y-99830800D01*
X154253071Y-99827663D01*
X154224242Y-99818918D01*
X154197677Y-99804718D01*
X154174392Y-99785608D01*
X154155282Y-99762323D01*
X154141082Y-99735758D01*
X154132337Y-99706929D01*
X154129200Y-99675074D01*
X154129200Y-99294926D01*
X154132337Y-99263071D01*
X154141082Y-99234242D01*
X154155282Y-99207677D01*
X154174392Y-99184392D01*
X154197677Y-99165282D01*
X154224242Y-99151082D01*
X154253071Y-99142337D01*
X154284926Y-99139200D01*
X154715074Y-99139200D01*
X154746929Y-99142337D01*
G37*
G36*
X147700800Y-99675800D02*
G01*
X147299200Y-99675800D01*
X147299200Y-98824200D01*
X147700800Y-98824200D01*
X147700800Y-99675800D01*
G37*
G36*
X148200800Y-99675800D02*
G01*
X147799200Y-99675800D01*
X147799200Y-98824200D01*
X148200800Y-98824200D01*
X148200800Y-99675800D01*
G37*
G36*
X148700800Y-99675800D02*
G01*
X148299200Y-99675800D01*
X148299200Y-98824200D01*
X148700800Y-98824200D01*
X148700800Y-99675800D01*
G37*
G36*
X149200800Y-99675800D02*
G01*
X148799200Y-99675800D01*
X148799200Y-98824200D01*
X149200800Y-98824200D01*
X149200800Y-99675800D01*
G37*
G36*
X132986929Y-98782337D02*
G01*
X133015758Y-98791082D01*
X133042323Y-98805282D01*
X133065608Y-98824392D01*
X133084718Y-98847677D01*
X133098918Y-98874242D01*
X133107663Y-98903071D01*
X133110800Y-98934926D01*
X133110800Y-99365074D01*
X133107663Y-99396929D01*
X133098918Y-99425758D01*
X133084718Y-99452323D01*
X133065608Y-99475608D01*
X133042323Y-99494718D01*
X133015758Y-99508918D01*
X132986929Y-99517663D01*
X132955074Y-99520800D01*
X132574926Y-99520800D01*
X132543071Y-99517663D01*
X132514242Y-99508918D01*
X132487677Y-99494718D01*
X132464392Y-99475608D01*
X132445282Y-99452323D01*
X132431082Y-99425758D01*
X132422337Y-99396929D01*
X132419200Y-99365074D01*
X132419200Y-98934926D01*
X132422337Y-98903071D01*
X132431082Y-98874242D01*
X132445282Y-98847677D01*
X132464392Y-98824392D01*
X132487677Y-98805282D01*
X132514242Y-98791082D01*
X132543071Y-98782337D01*
X132574926Y-98779200D01*
X132955074Y-98779200D01*
X132986929Y-98782337D01*
G37*
G36*
X136456929Y-98782337D02*
G01*
X136485758Y-98791082D01*
X136512323Y-98805282D01*
X136535608Y-98824392D01*
X136554718Y-98847677D01*
X136568918Y-98874242D01*
X136577663Y-98903071D01*
X136580800Y-98934926D01*
X136580800Y-99365074D01*
X136577663Y-99396929D01*
X136568918Y-99425758D01*
X136554718Y-99452323D01*
X136535608Y-99475608D01*
X136512323Y-99494718D01*
X136485758Y-99508918D01*
X136456929Y-99517663D01*
X136425074Y-99520800D01*
X136044926Y-99520800D01*
X136013071Y-99517663D01*
X135984242Y-99508918D01*
X135957677Y-99494718D01*
X135934392Y-99475608D01*
X135915282Y-99452323D01*
X135901082Y-99425758D01*
X135892337Y-99396929D01*
X135889200Y-99365074D01*
X135889200Y-98934926D01*
X135892337Y-98903071D01*
X135901082Y-98874242D01*
X135915282Y-98847677D01*
X135934392Y-98824392D01*
X135957677Y-98805282D01*
X135984242Y-98791082D01*
X136013071Y-98782337D01*
X136044926Y-98779200D01*
X136425074Y-98779200D01*
X136456929Y-98782337D01*
G37*
G36*
X135486929Y-98782337D02*
G01*
X135515758Y-98791082D01*
X135542323Y-98805282D01*
X135565608Y-98824392D01*
X135584718Y-98847677D01*
X135598918Y-98874242D01*
X135607663Y-98903071D01*
X135610800Y-98934926D01*
X135610800Y-99365074D01*
X135607663Y-99396929D01*
X135598918Y-99425758D01*
X135584718Y-99452323D01*
X135565608Y-99475608D01*
X135542323Y-99494718D01*
X135515758Y-99508918D01*
X135486929Y-99517663D01*
X135455074Y-99520800D01*
X135074926Y-99520800D01*
X135043071Y-99517663D01*
X135014242Y-99508918D01*
X134987677Y-99494718D01*
X134964392Y-99475608D01*
X134945282Y-99452323D01*
X134931082Y-99425758D01*
X134922337Y-99396929D01*
X134919200Y-99365074D01*
X134919200Y-98934926D01*
X134922337Y-98903071D01*
X134931082Y-98874242D01*
X134945282Y-98847677D01*
X134964392Y-98824392D01*
X134987677Y-98805282D01*
X135014242Y-98791082D01*
X135043071Y-98782337D01*
X135074926Y-98779200D01*
X135455074Y-98779200D01*
X135486929Y-98782337D01*
G37*
G36*
X133956929Y-98782337D02*
G01*
X133985758Y-98791082D01*
X134012323Y-98805282D01*
X134035608Y-98824392D01*
X134054718Y-98847677D01*
X134068918Y-98874242D01*
X134077663Y-98903071D01*
X134080800Y-98934926D01*
X134080800Y-99365074D01*
X134077663Y-99396929D01*
X134068918Y-99425758D01*
X134054718Y-99452323D01*
X134035608Y-99475608D01*
X134012323Y-99494718D01*
X133985758Y-99508918D01*
X133956929Y-99517663D01*
X133925074Y-99520800D01*
X133544926Y-99520800D01*
X133513071Y-99517663D01*
X133484242Y-99508918D01*
X133457677Y-99494718D01*
X133434392Y-99475608D01*
X133415282Y-99452323D01*
X133401082Y-99425758D01*
X133392337Y-99396929D01*
X133389200Y-99365074D01*
X133389200Y-98934926D01*
X133392337Y-98903071D01*
X133401082Y-98874242D01*
X133415282Y-98847677D01*
X133434392Y-98824392D01*
X133457677Y-98805282D01*
X133484242Y-98791082D01*
X133513071Y-98782337D01*
X133544926Y-98779200D01*
X133925074Y-98779200D01*
X133956929Y-98782337D01*
G37*
G36*
X154746929Y-98172337D02*
G01*
X154775758Y-98181082D01*
X154802323Y-98195282D01*
X154825608Y-98214392D01*
X154844718Y-98237677D01*
X154858918Y-98264242D01*
X154867663Y-98293071D01*
X154870800Y-98324926D01*
X154870800Y-98705074D01*
X154867663Y-98736929D01*
X154858918Y-98765758D01*
X154844718Y-98792323D01*
X154825608Y-98815608D01*
X154802323Y-98834718D01*
X154775758Y-98848918D01*
X154746929Y-98857663D01*
X154715074Y-98860800D01*
X154284926Y-98860800D01*
X154253071Y-98857663D01*
X154224242Y-98848918D01*
X154197677Y-98834718D01*
X154174392Y-98815608D01*
X154155282Y-98792323D01*
X154141082Y-98765758D01*
X154132337Y-98736929D01*
X154129200Y-98705074D01*
X154129200Y-98324926D01*
X154132337Y-98293071D01*
X154141082Y-98264242D01*
X154155282Y-98237677D01*
X154174392Y-98214392D01*
X154197677Y-98195282D01*
X154224242Y-98181082D01*
X154253071Y-98172337D01*
X154284926Y-98169200D01*
X154715074Y-98169200D01*
X154746929Y-98172337D01*
G37*
G36*
X153746929Y-98172337D02*
G01*
X153775758Y-98181082D01*
X153802323Y-98195282D01*
X153825608Y-98214392D01*
X153844718Y-98237677D01*
X153858918Y-98264242D01*
X153867663Y-98293071D01*
X153870800Y-98324926D01*
X153870800Y-98705074D01*
X153867663Y-98736929D01*
X153858918Y-98765758D01*
X153844718Y-98792323D01*
X153825608Y-98815608D01*
X153802323Y-98834718D01*
X153775758Y-98848918D01*
X153746929Y-98857663D01*
X153715074Y-98860800D01*
X153284926Y-98860800D01*
X153253071Y-98857663D01*
X153224242Y-98848918D01*
X153197677Y-98834718D01*
X153174392Y-98815608D01*
X153155282Y-98792323D01*
X153141082Y-98765758D01*
X153132337Y-98736929D01*
X153129200Y-98705074D01*
X153129200Y-98324926D01*
X153132337Y-98293071D01*
X153141082Y-98264242D01*
X153155282Y-98237677D01*
X153174392Y-98214392D01*
X153197677Y-98195282D01*
X153224242Y-98181082D01*
X153253071Y-98172337D01*
X153284926Y-98169200D01*
X153715074Y-98169200D01*
X153746929Y-98172337D01*
G37*
G36*
X149030800Y-98480800D02*
G01*
X147469200Y-98480800D01*
X147469200Y-97019200D01*
X149030800Y-97019200D01*
X149030800Y-98480800D01*
G37*
G36*
X126146929Y-96642337D02*
G01*
X126175758Y-96651082D01*
X126202323Y-96665282D01*
X126225608Y-96684392D01*
X126244718Y-96707677D01*
X126258918Y-96734242D01*
X126267663Y-96763071D01*
X126270800Y-96794926D01*
X126270800Y-97175074D01*
X126267663Y-97206929D01*
X126258918Y-97235758D01*
X126244718Y-97262323D01*
X126225608Y-97285608D01*
X126202323Y-97304718D01*
X126175758Y-97318918D01*
X126146929Y-97327663D01*
X126115074Y-97330800D01*
X125684926Y-97330800D01*
X125653071Y-97327663D01*
X125624242Y-97318918D01*
X125597677Y-97304718D01*
X125574392Y-97285608D01*
X125555282Y-97262323D01*
X125541082Y-97235758D01*
X125532337Y-97206929D01*
X125529200Y-97175074D01*
X125529200Y-96794926D01*
X125532337Y-96763071D01*
X125541082Y-96734242D01*
X125555282Y-96707677D01*
X125574392Y-96684392D01*
X125597677Y-96665282D01*
X125624242Y-96651082D01*
X125653071Y-96642337D01*
X125684926Y-96639200D01*
X126115074Y-96639200D01*
X126146929Y-96642337D01*
G37*
G36*
X123146929Y-96642337D02*
G01*
X123175758Y-96651082D01*
X123202323Y-96665282D01*
X123225608Y-96684392D01*
X123244718Y-96707677D01*
X123258918Y-96734242D01*
X123267663Y-96763071D01*
X123270800Y-96794926D01*
X123270800Y-97175074D01*
X123267663Y-97206929D01*
X123258918Y-97235758D01*
X123244718Y-97262323D01*
X123225608Y-97285608D01*
X123202323Y-97304718D01*
X123175758Y-97318918D01*
X123146929Y-97327663D01*
X123115074Y-97330800D01*
X122684926Y-97330800D01*
X122653071Y-97327663D01*
X122624242Y-97318918D01*
X122597677Y-97304718D01*
X122574392Y-97285608D01*
X122555282Y-97262323D01*
X122541082Y-97235758D01*
X122532337Y-97206929D01*
X122529200Y-97175074D01*
X122529200Y-96794926D01*
X122532337Y-96763071D01*
X122541082Y-96734242D01*
X122555282Y-96707677D01*
X122574392Y-96684392D01*
X122597677Y-96665282D01*
X122624242Y-96651082D01*
X122653071Y-96642337D01*
X122684926Y-96639200D01*
X123115074Y-96639200D01*
X123146929Y-96642337D01*
G37*
G36*
X130146929Y-96642337D02*
G01*
X130175758Y-96651082D01*
X130202323Y-96665282D01*
X130225608Y-96684392D01*
X130244718Y-96707677D01*
X130258918Y-96734242D01*
X130267663Y-96763071D01*
X130270800Y-96794926D01*
X130270800Y-97175074D01*
X130267663Y-97206929D01*
X130258918Y-97235758D01*
X130244718Y-97262323D01*
X130225608Y-97285608D01*
X130202323Y-97304718D01*
X130175758Y-97318918D01*
X130146929Y-97327663D01*
X130115074Y-97330800D01*
X129684926Y-97330800D01*
X129653071Y-97327663D01*
X129624242Y-97318918D01*
X129597677Y-97304718D01*
X129574392Y-97285608D01*
X129555282Y-97262323D01*
X129541082Y-97235758D01*
X129532337Y-97206929D01*
X129529200Y-97175074D01*
X129529200Y-96794926D01*
X129532337Y-96763071D01*
X129541082Y-96734242D01*
X129555282Y-96707677D01*
X129574392Y-96684392D01*
X129597677Y-96665282D01*
X129624242Y-96651082D01*
X129653071Y-96642337D01*
X129684926Y-96639200D01*
X130115074Y-96639200D01*
X130146929Y-96642337D01*
G37*
G36*
X128146929Y-96642337D02*
G01*
X128175758Y-96651082D01*
X128202323Y-96665282D01*
X128225608Y-96684392D01*
X128244718Y-96707677D01*
X128258918Y-96734242D01*
X128267663Y-96763071D01*
X128270800Y-96794926D01*
X128270800Y-97175074D01*
X128267663Y-97206929D01*
X128258918Y-97235758D01*
X128244718Y-97262323D01*
X128225608Y-97285608D01*
X128202323Y-97304718D01*
X128175758Y-97318918D01*
X128146929Y-97327663D01*
X128115074Y-97330800D01*
X127684926Y-97330800D01*
X127653071Y-97327663D01*
X127624242Y-97318918D01*
X127597677Y-97304718D01*
X127574392Y-97285608D01*
X127555282Y-97262323D01*
X127541082Y-97235758D01*
X127532337Y-97206929D01*
X127529200Y-97175074D01*
X127529200Y-96794926D01*
X127532337Y-96763071D01*
X127541082Y-96734242D01*
X127555282Y-96707677D01*
X127574392Y-96684392D01*
X127597677Y-96665282D01*
X127624242Y-96651082D01*
X127653071Y-96642337D01*
X127684926Y-96639200D01*
X128115074Y-96639200D01*
X128146929Y-96642337D01*
G37*
G36*
X125146929Y-96642337D02*
G01*
X125175758Y-96651082D01*
X125202323Y-96665282D01*
X125225608Y-96684392D01*
X125244718Y-96707677D01*
X125258918Y-96734242D01*
X125267663Y-96763071D01*
X125270800Y-96794926D01*
X125270800Y-97175074D01*
X125267663Y-97206929D01*
X125258918Y-97235758D01*
X125244718Y-97262323D01*
X125225608Y-97285608D01*
X125202323Y-97304718D01*
X125175758Y-97318918D01*
X125146929Y-97327663D01*
X125115074Y-97330800D01*
X124684926Y-97330800D01*
X124653071Y-97327663D01*
X124624242Y-97318918D01*
X124597677Y-97304718D01*
X124574392Y-97285608D01*
X124555282Y-97262323D01*
X124541082Y-97235758D01*
X124532337Y-97206929D01*
X124529200Y-97175074D01*
X124529200Y-96794926D01*
X124532337Y-96763071D01*
X124541082Y-96734242D01*
X124555282Y-96707677D01*
X124574392Y-96684392D01*
X124597677Y-96665282D01*
X124624242Y-96651082D01*
X124653071Y-96642337D01*
X124684926Y-96639200D01*
X125115074Y-96639200D01*
X125146929Y-96642337D01*
G37*
G36*
X127146929Y-96642337D02*
G01*
X127175758Y-96651082D01*
X127202323Y-96665282D01*
X127225608Y-96684392D01*
X127244718Y-96707677D01*
X127258918Y-96734242D01*
X127267663Y-96763071D01*
X127270800Y-96794926D01*
X127270800Y-97175074D01*
X127267663Y-97206929D01*
X127258918Y-97235758D01*
X127244718Y-97262323D01*
X127225608Y-97285608D01*
X127202323Y-97304718D01*
X127175758Y-97318918D01*
X127146929Y-97327663D01*
X127115074Y-97330800D01*
X126684926Y-97330800D01*
X126653071Y-97327663D01*
X126624242Y-97318918D01*
X126597677Y-97304718D01*
X126574392Y-97285608D01*
X126555282Y-97262323D01*
X126541082Y-97235758D01*
X126532337Y-97206929D01*
X126529200Y-97175074D01*
X126529200Y-96794926D01*
X126532337Y-96763071D01*
X126541082Y-96734242D01*
X126555282Y-96707677D01*
X126574392Y-96684392D01*
X126597677Y-96665282D01*
X126624242Y-96651082D01*
X126653071Y-96642337D01*
X126684926Y-96639200D01*
X127115074Y-96639200D01*
X127146929Y-96642337D01*
G37*
G36*
X124146929Y-96642337D02*
G01*
X124175758Y-96651082D01*
X124202323Y-96665282D01*
X124225608Y-96684392D01*
X124244718Y-96707677D01*
X124258918Y-96734242D01*
X124267663Y-96763071D01*
X124270800Y-96794926D01*
X124270800Y-97175074D01*
X124267663Y-97206929D01*
X124258918Y-97235758D01*
X124244718Y-97262323D01*
X124225608Y-97285608D01*
X124202323Y-97304718D01*
X124175758Y-97318918D01*
X124146929Y-97327663D01*
X124115074Y-97330800D01*
X123684926Y-97330800D01*
X123653071Y-97327663D01*
X123624242Y-97318918D01*
X123597677Y-97304718D01*
X123574392Y-97285608D01*
X123555282Y-97262323D01*
X123541082Y-97235758D01*
X123532337Y-97206929D01*
X123529200Y-97175074D01*
X123529200Y-96794926D01*
X123532337Y-96763071D01*
X123541082Y-96734242D01*
X123555282Y-96707677D01*
X123574392Y-96684392D01*
X123597677Y-96665282D01*
X123624242Y-96651082D01*
X123653071Y-96642337D01*
X123684926Y-96639200D01*
X124115074Y-96639200D01*
X124146929Y-96642337D01*
G37*
G36*
X129146929Y-96642337D02*
G01*
X129175758Y-96651082D01*
X129202323Y-96665282D01*
X129225608Y-96684392D01*
X129244718Y-96707677D01*
X129258918Y-96734242D01*
X129267663Y-96763071D01*
X129270800Y-96794926D01*
X129270800Y-97175074D01*
X129267663Y-97206929D01*
X129258918Y-97235758D01*
X129244718Y-97262323D01*
X129225608Y-97285608D01*
X129202323Y-97304718D01*
X129175758Y-97318918D01*
X129146929Y-97327663D01*
X129115074Y-97330800D01*
X128684926Y-97330800D01*
X128653071Y-97327663D01*
X128624242Y-97318918D01*
X128597677Y-97304718D01*
X128574392Y-97285608D01*
X128555282Y-97262323D01*
X128541082Y-97235758D01*
X128532337Y-97206929D01*
X128529200Y-97175074D01*
X128529200Y-96794926D01*
X128532337Y-96763071D01*
X128541082Y-96734242D01*
X128555282Y-96707677D01*
X128574392Y-96684392D01*
X128597677Y-96665282D01*
X128624242Y-96651082D01*
X128653071Y-96642337D01*
X128684926Y-96639200D01*
X129115074Y-96639200D01*
X129146929Y-96642337D01*
G37*
G36*
X148200800Y-96675800D02*
G01*
X147799200Y-96675800D01*
X147799200Y-95824200D01*
X148200800Y-95824200D01*
X148200800Y-96675800D01*
G37*
G36*
X149200800Y-96675800D02*
G01*
X148799200Y-96675800D01*
X148799200Y-95824200D01*
X149200800Y-95824200D01*
X149200800Y-96675800D01*
G37*
G36*
X148700800Y-96675800D02*
G01*
X148299200Y-96675800D01*
X148299200Y-95824200D01*
X148700800Y-95824200D01*
X148700800Y-96675800D01*
G37*
G36*
X147700800Y-96675800D02*
G01*
X147299200Y-96675800D01*
X147299200Y-95824200D01*
X147700800Y-95824200D01*
X147700800Y-96675800D01*
G37*
G36*
X130146929Y-95672337D02*
G01*
X130175758Y-95681082D01*
X130202323Y-95695282D01*
X130225608Y-95714392D01*
X130244718Y-95737677D01*
X130258918Y-95764242D01*
X130267663Y-95793071D01*
X130270800Y-95824926D01*
X130270800Y-96205074D01*
X130267663Y-96236929D01*
X130258918Y-96265758D01*
X130244718Y-96292323D01*
X130225608Y-96315608D01*
X130202323Y-96334718D01*
X130175758Y-96348918D01*
X130146929Y-96357663D01*
X130115074Y-96360800D01*
X129684926Y-96360800D01*
X129653071Y-96357663D01*
X129624242Y-96348918D01*
X129597677Y-96334718D01*
X129574392Y-96315608D01*
X129555282Y-96292323D01*
X129541082Y-96265758D01*
X129532337Y-96236929D01*
X129529200Y-96205074D01*
X129529200Y-95824926D01*
X129532337Y-95793071D01*
X129541082Y-95764242D01*
X129555282Y-95737677D01*
X129574392Y-95714392D01*
X129597677Y-95695282D01*
X129624242Y-95681082D01*
X129653071Y-95672337D01*
X129684926Y-95669200D01*
X130115074Y-95669200D01*
X130146929Y-95672337D01*
G37*
G36*
X129146929Y-95672337D02*
G01*
X129175758Y-95681082D01*
X129202323Y-95695282D01*
X129225608Y-95714392D01*
X129244718Y-95737677D01*
X129258918Y-95764242D01*
X129267663Y-95793071D01*
X129270800Y-95824926D01*
X129270800Y-96205074D01*
X129267663Y-96236929D01*
X129258918Y-96265758D01*
X129244718Y-96292323D01*
X129225608Y-96315608D01*
X129202323Y-96334718D01*
X129175758Y-96348918D01*
X129146929Y-96357663D01*
X129115074Y-96360800D01*
X128684926Y-96360800D01*
X128653071Y-96357663D01*
X128624242Y-96348918D01*
X128597677Y-96334718D01*
X128574392Y-96315608D01*
X128555282Y-96292323D01*
X128541082Y-96265758D01*
X128532337Y-96236929D01*
X128529200Y-96205074D01*
X128529200Y-95824926D01*
X128532337Y-95793071D01*
X128541082Y-95764242D01*
X128555282Y-95737677D01*
X128574392Y-95714392D01*
X128597677Y-95695282D01*
X128624242Y-95681082D01*
X128653071Y-95672337D01*
X128684926Y-95669200D01*
X129115074Y-95669200D01*
X129146929Y-95672337D01*
G37*
G36*
X128146929Y-95672337D02*
G01*
X128175758Y-95681082D01*
X128202323Y-95695282D01*
X128225608Y-95714392D01*
X128244718Y-95737677D01*
X128258918Y-95764242D01*
X128267663Y-95793071D01*
X128270800Y-95824926D01*
X128270800Y-96205074D01*
X128267663Y-96236929D01*
X128258918Y-96265758D01*
X128244718Y-96292323D01*
X128225608Y-96315608D01*
X128202323Y-96334718D01*
X128175758Y-96348918D01*
X128146929Y-96357663D01*
X128115074Y-96360800D01*
X127684926Y-96360800D01*
X127653071Y-96357663D01*
X127624242Y-96348918D01*
X127597677Y-96334718D01*
X127574392Y-96315608D01*
X127555282Y-96292323D01*
X127541082Y-96265758D01*
X127532337Y-96236929D01*
X127529200Y-96205074D01*
X127529200Y-95824926D01*
X127532337Y-95793071D01*
X127541082Y-95764242D01*
X127555282Y-95737677D01*
X127574392Y-95714392D01*
X127597677Y-95695282D01*
X127624242Y-95681082D01*
X127653071Y-95672337D01*
X127684926Y-95669200D01*
X128115074Y-95669200D01*
X128146929Y-95672337D01*
G37*
G36*
X127146929Y-95672337D02*
G01*
X127175758Y-95681082D01*
X127202323Y-95695282D01*
X127225608Y-95714392D01*
X127244718Y-95737677D01*
X127258918Y-95764242D01*
X127267663Y-95793071D01*
X127270800Y-95824926D01*
X127270800Y-96205074D01*
X127267663Y-96236929D01*
X127258918Y-96265758D01*
X127244718Y-96292323D01*
X127225608Y-96315608D01*
X127202323Y-96334718D01*
X127175758Y-96348918D01*
X127146929Y-96357663D01*
X127115074Y-96360800D01*
X126684926Y-96360800D01*
X126653071Y-96357663D01*
X126624242Y-96348918D01*
X126597677Y-96334718D01*
X126574392Y-96315608D01*
X126555282Y-96292323D01*
X126541082Y-96265758D01*
X126532337Y-96236929D01*
X126529200Y-96205074D01*
X126529200Y-95824926D01*
X126532337Y-95793071D01*
X126541082Y-95764242D01*
X126555282Y-95737677D01*
X126574392Y-95714392D01*
X126597677Y-95695282D01*
X126624242Y-95681082D01*
X126653071Y-95672337D01*
X126684926Y-95669200D01*
X127115074Y-95669200D01*
X127146929Y-95672337D01*
G37*
G36*
X126146929Y-95672337D02*
G01*
X126175758Y-95681082D01*
X126202323Y-95695282D01*
X126225608Y-95714392D01*
X126244718Y-95737677D01*
X126258918Y-95764242D01*
X126267663Y-95793071D01*
X126270800Y-95824926D01*
X126270800Y-96205074D01*
X126267663Y-96236929D01*
X126258918Y-96265758D01*
X126244718Y-96292323D01*
X126225608Y-96315608D01*
X126202323Y-96334718D01*
X126175758Y-96348918D01*
X126146929Y-96357663D01*
X126115074Y-96360800D01*
X125684926Y-96360800D01*
X125653071Y-96357663D01*
X125624242Y-96348918D01*
X125597677Y-96334718D01*
X125574392Y-96315608D01*
X125555282Y-96292323D01*
X125541082Y-96265758D01*
X125532337Y-96236929D01*
X125529200Y-96205074D01*
X125529200Y-95824926D01*
X125532337Y-95793071D01*
X125541082Y-95764242D01*
X125555282Y-95737677D01*
X125574392Y-95714392D01*
X125597677Y-95695282D01*
X125624242Y-95681082D01*
X125653071Y-95672337D01*
X125684926Y-95669200D01*
X126115074Y-95669200D01*
X126146929Y-95672337D01*
G37*
G36*
X125146929Y-95672337D02*
G01*
X125175758Y-95681082D01*
X125202323Y-95695282D01*
X125225608Y-95714392D01*
X125244718Y-95737677D01*
X125258918Y-95764242D01*
X125267663Y-95793071D01*
X125270800Y-95824926D01*
X125270800Y-96205074D01*
X125267663Y-96236929D01*
X125258918Y-96265758D01*
X125244718Y-96292323D01*
X125225608Y-96315608D01*
X125202323Y-96334718D01*
X125175758Y-96348918D01*
X125146929Y-96357663D01*
X125115074Y-96360800D01*
X124684926Y-96360800D01*
X124653071Y-96357663D01*
X124624242Y-96348918D01*
X124597677Y-96334718D01*
X124574392Y-96315608D01*
X124555282Y-96292323D01*
X124541082Y-96265758D01*
X124532337Y-96236929D01*
X124529200Y-96205074D01*
X124529200Y-95824926D01*
X124532337Y-95793071D01*
X124541082Y-95764242D01*
X124555282Y-95737677D01*
X124574392Y-95714392D01*
X124597677Y-95695282D01*
X124624242Y-95681082D01*
X124653071Y-95672337D01*
X124684926Y-95669200D01*
X125115074Y-95669200D01*
X125146929Y-95672337D01*
G37*
G36*
X124146929Y-95672337D02*
G01*
X124175758Y-95681082D01*
X124202323Y-95695282D01*
X124225608Y-95714392D01*
X124244718Y-95737677D01*
X124258918Y-95764242D01*
X124267663Y-95793071D01*
X124270800Y-95824926D01*
X124270800Y-96205074D01*
X124267663Y-96236929D01*
X124258918Y-96265758D01*
X124244718Y-96292323D01*
X124225608Y-96315608D01*
X124202323Y-96334718D01*
X124175758Y-96348918D01*
X124146929Y-96357663D01*
X124115074Y-96360800D01*
X123684926Y-96360800D01*
X123653071Y-96357663D01*
X123624242Y-96348918D01*
X123597677Y-96334718D01*
X123574392Y-96315608D01*
X123555282Y-96292323D01*
X123541082Y-96265758D01*
X123532337Y-96236929D01*
X123529200Y-96205074D01*
X123529200Y-95824926D01*
X123532337Y-95793071D01*
X123541082Y-95764242D01*
X123555282Y-95737677D01*
X123574392Y-95714392D01*
X123597677Y-95695282D01*
X123624242Y-95681082D01*
X123653071Y-95672337D01*
X123684926Y-95669200D01*
X124115074Y-95669200D01*
X124146929Y-95672337D01*
G37*
G36*
X123146929Y-95672337D02*
G01*
X123175758Y-95681082D01*
X123202323Y-95695282D01*
X123225608Y-95714392D01*
X123244718Y-95737677D01*
X123258918Y-95764242D01*
X123267663Y-95793071D01*
X123270800Y-95824926D01*
X123270800Y-96205074D01*
X123267663Y-96236929D01*
X123258918Y-96265758D01*
X123244718Y-96292323D01*
X123225608Y-96315608D01*
X123202323Y-96334718D01*
X123175758Y-96348918D01*
X123146929Y-96357663D01*
X123115074Y-96360800D01*
X122684926Y-96360800D01*
X122653071Y-96357663D01*
X122624242Y-96348918D01*
X122597677Y-96334718D01*
X122574392Y-96315608D01*
X122555282Y-96292323D01*
X122541082Y-96265758D01*
X122532337Y-96236929D01*
X122529200Y-96205074D01*
X122529200Y-95824926D01*
X122532337Y-95793071D01*
X122541082Y-95764242D01*
X122555282Y-95737677D01*
X122574392Y-95714392D01*
X122597677Y-95695282D01*
X122624242Y-95681082D01*
X122653071Y-95672337D01*
X122684926Y-95669200D01*
X123115074Y-95669200D01*
X123146929Y-95672337D01*
G37*
M02*
