G04 #@! TF.GenerationSoftware,KiCad,Pcbnew,(5.1.5-0-10_14)*
G04 #@! TF.CreationDate,2020-04-12T13:45:19-07:00*
G04 #@! TF.ProjectId,kimchi_usb_ulid,6b696d63-6869-45f7-9573-625f756c6964,v0.1*
G04 #@! TF.SameCoordinates,Original*
G04 #@! TF.FileFunction,Copper,L4,Bot*
G04 #@! TF.FilePolarity,Positive*
%FSLAX46Y46*%
G04 Gerber Fmt 4.6, Leading zero omitted, Abs format (unit mm)*
G04 Created by KiCad (PCBNEW (5.1.5-0-10_14)) date 2020-04-12 13:45:19*
%MOMM*%
%LPD*%
G04 APERTURE LIST*
%ADD10C,0.150000*%
%ADD11R,0.450000X0.500000*%
%ADD12R,0.450000X0.400000*%
%ADD13C,1.600000*%
%ADD14R,1.600000X1.600000*%
%ADD15C,3.000000*%
%ADD16C,5.000000*%
%ADD17R,0.200000X1.500000*%
%ADD18C,0.457200*%
%ADD19C,1.000000*%
%ADD20C,0.400000*%
%ADD21C,0.254000*%
%ADD22C,0.146812*%
%ADD23C,0.131318*%
%ADD24C,0.127000*%
G04 APERTURE END LIST*
D10*
X107000000Y-126000000D02*
X107000000Y-94000000D01*
X172000000Y-126000000D02*
X107000000Y-126000000D01*
X172000000Y-94000000D02*
X172000000Y-126000000D01*
X107000000Y-94000000D02*
X172000000Y-94000000D01*
D11*
X162475000Y-118750000D03*
D12*
X161325000Y-118350000D03*
X161325000Y-119150000D03*
D11*
X162475000Y-101250000D03*
D12*
X161325000Y-100850000D03*
X161325000Y-101650000D03*
D11*
X122875000Y-110000000D03*
D12*
X121725000Y-109600000D03*
X121725000Y-110400000D03*
D13*
X167000000Y-114000000D03*
X164500000Y-114000000D03*
X162500000Y-114000000D03*
D14*
X160000000Y-114000000D03*
D15*
X156930000Y-116710000D03*
X170070000Y-116710000D03*
D13*
X119000000Y-113500000D03*
X119000000Y-111000000D03*
X119000000Y-109000000D03*
D14*
X119000000Y-106500000D03*
D15*
X116290000Y-103430000D03*
X116290000Y-116570000D03*
D13*
X160000000Y-106000000D03*
X162500000Y-106000000D03*
X164500000Y-106000000D03*
D14*
X167000000Y-106000000D03*
D15*
X170070000Y-103290000D03*
X156930000Y-103290000D03*
D16*
X142600000Y-122100000D03*
X142600000Y-97900000D03*
X118450000Y-122100000D03*
X118450000Y-97900000D03*
D17*
X148700000Y-124160000D03*
X149100000Y-124160000D03*
X149500000Y-124160000D03*
X149900000Y-124160000D03*
X150300000Y-124160000D03*
X146700000Y-121840000D03*
X150700000Y-124160000D03*
X147100000Y-121840000D03*
X151100000Y-124160000D03*
X147500000Y-121840000D03*
X151500000Y-124160000D03*
X147900000Y-121840000D03*
X151900000Y-124160000D03*
X148300000Y-121840000D03*
X152300000Y-124160000D03*
X148700000Y-121840000D03*
X152700000Y-124160000D03*
X149100000Y-121840000D03*
X153100000Y-124160000D03*
X149500000Y-121840000D03*
X153500000Y-124160000D03*
X149900000Y-121840000D03*
X153900000Y-124160000D03*
X150300000Y-121840000D03*
X154300000Y-124160000D03*
X150700000Y-121840000D03*
X154700000Y-124160000D03*
X151100000Y-121840000D03*
X155100000Y-124160000D03*
X151500000Y-121840000D03*
X155500000Y-124160000D03*
X151900000Y-121840000D03*
X155900000Y-124160000D03*
X152300000Y-121840000D03*
X156300000Y-124160000D03*
X152700000Y-121840000D03*
X156700000Y-124160000D03*
X153100000Y-121840000D03*
X157100000Y-124160000D03*
X153500000Y-121840000D03*
X157500000Y-124160000D03*
X153900000Y-121840000D03*
X157900000Y-124160000D03*
X154300000Y-121840000D03*
X158300000Y-124160000D03*
X154700000Y-121840000D03*
X146700000Y-124160000D03*
X155100000Y-121840000D03*
X147100000Y-124160000D03*
X155500000Y-121840000D03*
X147500000Y-124160000D03*
X155900000Y-121840000D03*
X147900000Y-124160000D03*
X156300000Y-121840000D03*
X148300000Y-124160000D03*
X156700000Y-121840000D03*
X157100000Y-121840000D03*
X157500000Y-121840000D03*
X157900000Y-121840000D03*
X158300000Y-121840000D03*
X148700000Y-98160000D03*
X149100000Y-98160000D03*
X149500000Y-98160000D03*
X149900000Y-98160000D03*
X150300000Y-98160000D03*
X146700000Y-95840000D03*
X150700000Y-98160000D03*
X147100000Y-95840000D03*
X151100000Y-98160000D03*
X147500000Y-95840000D03*
X151500000Y-98160000D03*
X147900000Y-95840000D03*
X151900000Y-98160000D03*
X148300000Y-95840000D03*
X152300000Y-98160000D03*
X148700000Y-95840000D03*
X152700000Y-98160000D03*
X149100000Y-95840000D03*
X153100000Y-98160000D03*
X149500000Y-95840000D03*
X153500000Y-98160000D03*
X149900000Y-95840000D03*
X153900000Y-98160000D03*
X150300000Y-95840000D03*
X154300000Y-98160000D03*
X150700000Y-95840000D03*
X154700000Y-98160000D03*
X151100000Y-95840000D03*
X155100000Y-98160000D03*
X151500000Y-95840000D03*
X155500000Y-98160000D03*
X151900000Y-95840000D03*
X155900000Y-98160000D03*
X152300000Y-95840000D03*
X156300000Y-98160000D03*
X152700000Y-95840000D03*
X156700000Y-98160000D03*
X153100000Y-95840000D03*
X157100000Y-98160000D03*
X153500000Y-95840000D03*
X157500000Y-98160000D03*
X153900000Y-95840000D03*
X157900000Y-98160000D03*
X154300000Y-95840000D03*
X158300000Y-98160000D03*
X154700000Y-95840000D03*
X146700000Y-98160000D03*
X155100000Y-95840000D03*
X147100000Y-98160000D03*
X155500000Y-95840000D03*
X147500000Y-98160000D03*
X155900000Y-95840000D03*
X147900000Y-98160000D03*
X156300000Y-95840000D03*
X148300000Y-98160000D03*
X156700000Y-95840000D03*
X157100000Y-95840000D03*
X157500000Y-95840000D03*
X157900000Y-95840000D03*
X158300000Y-95840000D03*
D18*
X134199962Y-99700000D03*
X136700000Y-99700000D03*
X135900000Y-101400000D03*
D19*
X141500000Y-104000000D03*
X143000000Y-104000000D03*
X141500000Y-105500000D03*
X143000000Y-105500000D03*
X144500000Y-104000000D03*
X146000000Y-104000000D03*
X147500000Y-104000000D03*
X149000000Y-104000000D03*
X150500000Y-104000000D03*
X152000000Y-104000000D03*
X153500000Y-104000000D03*
X144500000Y-105500000D03*
X146000000Y-105500000D03*
X147500000Y-105500000D03*
X149000000Y-105500000D03*
X150500000Y-105500000D03*
X152000000Y-105500000D03*
X153500000Y-105500000D03*
X152000000Y-107000000D03*
X144500000Y-108500000D03*
X146000000Y-108500000D03*
X147500000Y-108500000D03*
X147500000Y-107000000D03*
X149000000Y-107000000D03*
X149000000Y-108500000D03*
X152000000Y-108500000D03*
X143000000Y-108500000D03*
X141500000Y-108500000D03*
X153500000Y-107000000D03*
X150500000Y-107000000D03*
X146000000Y-107000000D03*
X141500000Y-107000000D03*
X150500000Y-108500000D03*
X144500000Y-107000000D03*
X143000000Y-107000000D03*
X153500000Y-108500000D03*
X153500000Y-111500000D03*
X150500000Y-110000000D03*
X153500000Y-110000000D03*
X144500000Y-110000000D03*
X141500000Y-110000000D03*
X150500000Y-111500000D03*
X146000000Y-110000000D03*
X143000000Y-110000000D03*
X141500000Y-111500000D03*
X149000000Y-110000000D03*
X147500000Y-111500000D03*
X152000000Y-110000000D03*
X149000000Y-111500000D03*
X146000000Y-111500000D03*
X143000000Y-111500000D03*
X144500000Y-111500000D03*
X152000000Y-111500000D03*
X147500000Y-110000000D03*
X149000000Y-113000000D03*
X153500000Y-113000000D03*
X146000000Y-113000000D03*
X152000000Y-114500000D03*
X146000000Y-114500000D03*
X152000000Y-113000000D03*
X150500000Y-114500000D03*
X150500000Y-113000000D03*
X143000000Y-113000000D03*
X147500000Y-113000000D03*
X147500000Y-114500000D03*
X141500000Y-113000000D03*
X149000000Y-114500000D03*
X144500000Y-114500000D03*
X141500000Y-114500000D03*
X144500000Y-113000000D03*
X143000000Y-114500000D03*
X153500000Y-114500000D03*
X141500000Y-116000000D03*
X143000000Y-116000000D03*
X144500000Y-116000000D03*
X146000000Y-116000000D03*
X147500000Y-116000000D03*
X149000000Y-116000000D03*
X150500000Y-116000000D03*
X152000000Y-116000000D03*
X153500000Y-116000000D03*
D18*
X129900000Y-95500000D03*
X127900000Y-95500000D03*
X125900000Y-95500000D03*
X122900000Y-95500000D03*
X149200000Y-123000000D03*
X149700000Y-123000000D03*
X150200000Y-123000000D03*
X150700000Y-123000000D03*
X154100000Y-123000000D03*
X154600000Y-123000000D03*
X155100000Y-123000000D03*
X155600000Y-123000000D03*
X153900000Y-94600000D03*
X153400000Y-94600002D03*
X152900000Y-94600000D03*
X154400000Y-94600000D03*
X146000000Y-95500000D03*
X149000000Y-100250000D03*
X130750000Y-110000000D03*
X136000000Y-106250000D03*
X132500000Y-113750000D03*
X138250000Y-110000000D03*
X132000000Y-106250000D03*
X126900000Y-95500000D03*
X128900000Y-95500000D03*
X135000000Y-113750000D03*
X138000000Y-104000000D03*
X139000000Y-104000000D03*
X146750000Y-99265658D03*
X145500000Y-95000000D03*
X149000000Y-94499998D03*
X157043454Y-100043454D03*
X157456546Y-100456546D03*
X160292100Y-124250000D03*
X159707900Y-124250000D03*
D20*
X124800000Y-108513500D03*
X124800000Y-107986500D03*
D18*
X130000000Y-109542100D03*
X130000000Y-108957900D03*
X127500000Y-111042100D03*
X127500000Y-110457900D03*
X160000000Y-95000000D03*
X160500000Y-95000000D03*
X161000000Y-95000000D03*
X161500000Y-95000000D03*
X161500000Y-95500000D03*
X161000000Y-95500000D03*
X160500000Y-95500000D03*
X160000000Y-95500000D03*
X160000000Y-96000000D03*
X160500000Y-96000000D03*
X161000000Y-96000000D03*
X161500000Y-96000000D03*
X161500000Y-96500000D03*
X161000000Y-96500000D03*
X160500000Y-96500000D03*
X160000000Y-96500000D03*
X160000000Y-97000000D03*
X160500000Y-97000000D03*
X161000000Y-97000000D03*
X161500000Y-97000000D03*
X126750000Y-99750000D03*
X127250000Y-99750000D03*
X127750000Y-99750000D03*
X127750000Y-100250000D03*
X127250000Y-100250000D03*
X126750000Y-100250000D03*
X126750000Y-100750000D03*
X127250000Y-100750000D03*
X127750000Y-100750000D03*
X154500000Y-97000000D03*
X137500000Y-113000000D03*
X155750000Y-112000000D03*
X132600000Y-116800000D03*
X126200000Y-101100000D03*
X139000000Y-113000000D03*
X158500000Y-112000000D03*
X155750000Y-113000000D03*
X137250000Y-113750000D03*
X161250000Y-109000000D03*
X138250000Y-113000000D03*
X153500000Y-100500000D03*
X139500000Y-107500000D03*
X146500000Y-123000000D03*
X133500000Y-116800000D03*
X127500000Y-105900000D03*
X138250000Y-109250000D03*
X125400000Y-97700000D03*
X138250000Y-108665797D03*
X127400000Y-97700000D03*
X138250000Y-110750000D03*
X123400000Y-97700000D03*
X136750000Y-106250000D03*
X129400000Y-97700000D03*
D21*
X154300000Y-124160000D02*
X154300000Y-123156000D01*
X149900000Y-124160000D02*
X149900000Y-123100000D01*
X149900000Y-123100000D02*
X150000000Y-123100000D01*
X150000000Y-123100000D02*
X150100000Y-123000000D01*
X150700000Y-124160000D02*
X150700000Y-123156000D01*
X150700000Y-123156000D02*
X150856000Y-123000000D01*
X150100000Y-123000000D02*
X150200000Y-123000000D01*
X150300000Y-124160000D02*
X150300000Y-123156000D01*
X150456000Y-123000000D02*
X150899998Y-123000000D01*
X150856000Y-123000000D02*
X150899998Y-123000000D01*
X150300000Y-123156000D02*
X150456000Y-123000000D01*
X149500000Y-124160000D02*
X149500000Y-123156000D01*
X149500000Y-123156000D02*
X149344000Y-123000000D01*
X149900000Y-123100000D02*
X149800000Y-123000000D01*
X149344000Y-123000000D02*
X149200000Y-123000000D01*
X149800000Y-123000000D02*
X149700000Y-123000000D01*
X149523289Y-123000000D02*
X149200000Y-123000000D01*
X149700000Y-123000000D02*
X149523289Y-123000000D01*
X149200000Y-123000000D02*
X149200000Y-123000000D01*
X149700000Y-123000000D02*
X149700000Y-123000000D01*
X150200000Y-123000000D02*
X150700000Y-123000000D01*
X150700000Y-123000000D02*
X150899998Y-123000000D01*
X154544000Y-123000000D02*
X154100000Y-123000000D01*
X154700000Y-123156000D02*
X154544000Y-123000000D01*
X154700000Y-124160000D02*
X154700000Y-123156000D01*
X154800000Y-123000000D02*
X154600000Y-123000000D01*
X155100000Y-123100000D02*
X154900000Y-123100000D01*
X154900000Y-123100000D02*
X154800000Y-123000000D01*
X155100000Y-123323289D02*
X155100000Y-123000000D01*
X155100000Y-124114000D02*
X155100000Y-123323289D01*
X154700000Y-124114000D02*
X154700000Y-123100000D01*
X154700000Y-123100000D02*
X154600000Y-123000000D01*
X155500000Y-123100000D02*
X155600000Y-123000000D01*
X155500000Y-124160000D02*
X155500000Y-123100000D01*
X153900000Y-95840000D02*
X153900000Y-94800000D01*
X153900000Y-94800000D02*
X153900000Y-94676711D01*
X153900000Y-94676711D02*
X153900000Y-94600000D01*
X153900000Y-94923289D02*
X153900000Y-94600000D01*
X153900000Y-95794000D02*
X153900000Y-94923289D01*
X153100000Y-95840000D02*
X153100000Y-94836000D01*
X153100000Y-94836000D02*
X152900000Y-94600000D01*
X153335998Y-94600002D02*
X153400000Y-94600002D01*
X153500000Y-94700002D02*
X153400000Y-94600002D01*
X153500000Y-95840000D02*
X153500000Y-94700002D01*
X154300000Y-94700000D02*
X154400000Y-94600000D01*
X153900000Y-94676711D02*
X153976711Y-94600000D01*
X154300000Y-95840000D02*
X154300000Y-94700000D01*
D22*
X154700000Y-98160000D02*
X154700000Y-99700000D01*
D21*
X154144000Y-123000000D02*
X154300000Y-123156000D01*
X154100000Y-123000000D02*
X154144000Y-123000000D01*
D22*
X151100000Y-124160000D02*
X151500000Y-124160000D01*
X151500000Y-124160000D02*
X151900000Y-124160000D01*
X152300000Y-124160000D02*
X151900000Y-124160000D01*
D21*
X155900000Y-124160000D02*
X156300000Y-124160000D01*
X157100000Y-124160000D02*
X156700000Y-124160000D01*
X146521401Y-99494257D02*
X146750000Y-99265658D01*
X135750000Y-104000000D02*
X139000000Y-100750000D01*
X145265658Y-100750000D02*
X146521401Y-99494257D01*
X139000000Y-100750000D02*
X145265658Y-100750000D01*
D22*
X152058219Y-96978593D02*
X146655304Y-96978593D01*
X145500000Y-95823289D02*
X145500000Y-95323289D01*
X146655304Y-96978593D02*
X145500000Y-95823289D01*
X152300000Y-96736812D02*
X152058219Y-96978593D01*
X152300000Y-95840000D02*
X152300000Y-96736812D01*
X145500000Y-95323289D02*
X145500000Y-95000000D01*
X152700000Y-95034931D02*
X152700000Y-95840000D01*
X152165067Y-94499998D02*
X152700000Y-95034931D01*
X149000000Y-94499998D02*
X152165067Y-94499998D01*
D23*
X157970841Y-99346500D02*
X157273887Y-100043454D01*
X157970841Y-98880841D02*
X157970841Y-99346500D01*
X157900000Y-98160000D02*
X157900000Y-98810000D01*
X157900000Y-98810000D02*
X157970841Y-98880841D01*
X157273887Y-100043454D02*
X157043454Y-100043454D01*
X157456546Y-100226113D02*
X157456546Y-100456546D01*
X158229159Y-99453500D02*
X157456546Y-100226113D01*
X158300000Y-98810000D02*
X158229159Y-98880841D01*
X158229159Y-98880841D02*
X158229159Y-99453500D01*
X158300000Y-98160000D02*
X158300000Y-98810000D01*
X157970841Y-124089159D02*
X157970841Y-123346499D01*
X157900000Y-124160000D02*
X157970841Y-124089159D01*
X157970841Y-123346499D02*
X158946499Y-122370841D01*
X158946499Y-122370841D02*
X159553501Y-122370841D01*
X159553501Y-122370841D02*
X160129159Y-122946499D01*
X160129159Y-124087059D02*
X160292100Y-124250000D01*
X160129159Y-122946499D02*
X160129159Y-124087059D01*
X158229159Y-124089159D02*
X158229159Y-123453501D01*
X158300000Y-124160000D02*
X158229159Y-124089159D01*
X158229159Y-123453501D02*
X159053501Y-122629159D01*
X159053501Y-122629159D02*
X159446499Y-122629159D01*
X159446499Y-122629159D02*
X159870841Y-123053501D01*
X159870841Y-124087059D02*
X159707900Y-124250000D01*
X159870841Y-123053501D02*
X159870841Y-124087059D01*
X123703501Y-108379159D02*
X121953501Y-110129159D01*
X119870841Y-110129159D02*
X119000000Y-111000000D01*
X121953501Y-110129159D02*
X119870841Y-110129159D01*
X124665659Y-108379159D02*
X123703501Y-108379159D01*
X124800000Y-108513500D02*
X124665659Y-108379159D01*
D22*
X121636916Y-110136916D02*
X121629159Y-110136916D01*
X121725000Y-110225000D02*
X121636916Y-110136916D01*
X121725000Y-110400000D02*
X121725000Y-110225000D01*
D23*
X119870841Y-109870841D02*
X119000000Y-109000000D01*
X123596499Y-108120841D02*
X121846499Y-109870841D01*
X121846499Y-109870841D02*
X119870841Y-109870841D01*
X124665659Y-108120841D02*
X123596499Y-108120841D01*
X124800000Y-107986500D02*
X124665659Y-108120841D01*
D22*
X121838742Y-109863084D02*
X121843290Y-109863084D01*
X121725000Y-109749342D02*
X121838742Y-109863084D01*
X121725000Y-109600000D02*
X121725000Y-109749342D01*
D23*
X139803501Y-101379159D02*
X161446499Y-101379159D01*
X163370841Y-105129159D02*
X162500000Y-106000000D01*
X163370841Y-103303501D02*
X163370841Y-105129159D01*
X161446499Y-101379159D02*
X163370841Y-103303501D01*
X131803501Y-109379159D02*
X139803501Y-101379159D01*
X161446499Y-101528501D02*
X161325000Y-101650000D01*
X161446499Y-101379159D02*
X161446499Y-101528501D01*
X130162941Y-109379159D02*
X131803501Y-109379159D01*
X130000000Y-109542100D02*
X130162941Y-109379159D01*
X163629159Y-105129159D02*
X164500000Y-106000000D01*
X163629159Y-103196499D02*
X163629159Y-105129159D01*
X161553501Y-101120841D02*
X163629159Y-103196499D01*
X131696499Y-109120841D02*
X139696499Y-101120841D01*
X161370841Y-100895841D02*
X161325000Y-100850000D01*
X161370841Y-101120841D02*
X161370841Y-100895841D01*
X139696499Y-101120841D02*
X161370841Y-101120841D01*
X161370841Y-101120841D02*
X161553501Y-101120841D01*
X130162941Y-109120841D02*
X131696499Y-109120841D01*
X130000000Y-108957900D02*
X130162941Y-109120841D01*
X163629159Y-114870841D02*
X164500000Y-114000000D01*
X161553501Y-118879159D02*
X163629159Y-116803501D01*
X136196499Y-118879159D02*
X161553501Y-118879159D01*
X163629159Y-116803501D02*
X163629159Y-114870841D01*
X128196499Y-110879159D02*
X136196499Y-118879159D01*
X127662941Y-110879159D02*
X128196499Y-110879159D01*
X127500000Y-111042100D02*
X127662941Y-110879159D01*
D22*
X161325000Y-119107660D02*
X161553501Y-118879159D01*
X161325000Y-119150000D02*
X161325000Y-119107660D01*
D23*
X163370841Y-116696499D02*
X163370841Y-114870841D01*
X161446499Y-118620841D02*
X163370841Y-116696499D01*
X136303501Y-118620841D02*
X161446499Y-118620841D01*
X127500000Y-110457900D02*
X127662941Y-110620841D01*
X128303501Y-110620841D02*
X136303501Y-118620841D01*
X127662941Y-110620841D02*
X128303501Y-110620841D01*
X163370841Y-114870841D02*
X162500000Y-114000000D01*
X161446499Y-118471499D02*
X161325000Y-118350000D01*
X161446499Y-118620841D02*
X161446499Y-118471499D01*
D22*
X157100000Y-97263188D02*
X156836812Y-97000000D01*
X156836812Y-97000000D02*
X154500000Y-97000000D01*
X157100000Y-98160000D02*
X157100000Y-97263188D01*
X155934751Y-100500000D02*
X153500000Y-100500000D01*
X157500000Y-98934751D02*
X155934751Y-100500000D01*
X157500000Y-98160000D02*
X157500000Y-98934751D01*
X146700000Y-123200000D02*
X146500000Y-123000000D01*
X146700000Y-124160000D02*
X146700000Y-123200000D01*
D24*
G36*
X171480500Y-102687723D02*
G01*
X170878223Y-103290000D01*
X171480500Y-103892277D01*
X171480501Y-116107722D01*
X170878223Y-116710000D01*
X171480501Y-117312278D01*
X171480501Y-125480500D01*
X158194500Y-125480500D01*
X158194500Y-125356108D01*
X158200000Y-125356650D01*
X158400000Y-125356650D01*
X158487137Y-125348068D01*
X158570926Y-125322651D01*
X158648145Y-125281376D01*
X158715829Y-125225829D01*
X158771376Y-125158145D01*
X158812651Y-125080926D01*
X158838068Y-124997137D01*
X158846650Y-124910000D01*
X158846650Y-123557483D01*
X159250000Y-123154133D01*
X159360682Y-123264816D01*
X159360683Y-123672473D01*
X159278824Y-123727169D01*
X159185069Y-123820924D01*
X159111406Y-123931168D01*
X159060667Y-124053664D01*
X159034800Y-124183705D01*
X159034800Y-124316295D01*
X159060667Y-124446336D01*
X159111406Y-124568832D01*
X159185069Y-124679076D01*
X159278824Y-124772831D01*
X159389068Y-124846494D01*
X159511564Y-124897233D01*
X159641605Y-124923100D01*
X159774195Y-124923100D01*
X159904236Y-124897233D01*
X160000000Y-124857567D01*
X160095764Y-124897233D01*
X160225805Y-124923100D01*
X160358395Y-124923100D01*
X160488436Y-124897233D01*
X160610932Y-124846494D01*
X160721176Y-124772831D01*
X160814931Y-124679076D01*
X160888594Y-124568832D01*
X160939333Y-124446336D01*
X160965200Y-124316295D01*
X160965200Y-124183705D01*
X160939333Y-124053664D01*
X160888594Y-123931168D01*
X160814931Y-123820924D01*
X160721176Y-123727169D01*
X160639318Y-123672473D01*
X160639318Y-122971546D01*
X160641785Y-122946498D01*
X160639318Y-122921450D01*
X160639318Y-122921441D01*
X160631936Y-122846490D01*
X160602765Y-122750325D01*
X160555393Y-122661699D01*
X160491641Y-122584017D01*
X160472178Y-122568044D01*
X159931960Y-122027827D01*
X159915983Y-122008359D01*
X159838301Y-121944607D01*
X159749675Y-121897235D01*
X159653510Y-121868064D01*
X159578559Y-121860682D01*
X159578549Y-121860682D01*
X159553501Y-121858215D01*
X159528453Y-121860682D01*
X158971557Y-121860682D01*
X158946499Y-121858214D01*
X158921441Y-121860682D01*
X158846650Y-121868048D01*
X158846650Y-121090000D01*
X158838068Y-121002863D01*
X158812651Y-120919074D01*
X158771376Y-120841855D01*
X158715829Y-120774171D01*
X158648145Y-120718624D01*
X158570926Y-120677349D01*
X158487137Y-120651932D01*
X158400000Y-120643350D01*
X158200000Y-120643350D01*
X158112863Y-120651932D01*
X158100000Y-120655834D01*
X158087137Y-120651932D01*
X158000000Y-120643350D01*
X157800000Y-120643350D01*
X157712863Y-120651932D01*
X157700000Y-120655834D01*
X157687137Y-120651932D01*
X157600000Y-120643350D01*
X157400000Y-120643350D01*
X157312863Y-120651932D01*
X157300000Y-120655834D01*
X157287137Y-120651932D01*
X157200000Y-120643350D01*
X157000000Y-120643350D01*
X156912863Y-120651932D01*
X156900000Y-120655834D01*
X156887137Y-120651932D01*
X156800000Y-120643350D01*
X156600000Y-120643350D01*
X156512863Y-120651932D01*
X156500000Y-120655834D01*
X156487137Y-120651932D01*
X156400000Y-120643350D01*
X156200000Y-120643350D01*
X156112863Y-120651932D01*
X156100000Y-120655834D01*
X156087137Y-120651932D01*
X156000000Y-120643350D01*
X155800000Y-120643350D01*
X155712863Y-120651932D01*
X155700000Y-120655834D01*
X155687137Y-120651932D01*
X155600000Y-120643350D01*
X155400000Y-120643350D01*
X155312863Y-120651932D01*
X155300000Y-120655834D01*
X155287137Y-120651932D01*
X155200000Y-120643350D01*
X155000000Y-120643350D01*
X154912863Y-120651932D01*
X154900000Y-120655834D01*
X154887137Y-120651932D01*
X154800000Y-120643350D01*
X154600000Y-120643350D01*
X154512863Y-120651932D01*
X154500000Y-120655834D01*
X154487137Y-120651932D01*
X154400000Y-120643350D01*
X154200000Y-120643350D01*
X154112863Y-120651932D01*
X154100000Y-120655834D01*
X154087137Y-120651932D01*
X154000000Y-120643350D01*
X153800000Y-120643350D01*
X153712863Y-120651932D01*
X153700000Y-120655834D01*
X153687137Y-120651932D01*
X153600000Y-120643350D01*
X153400000Y-120643350D01*
X153312863Y-120651932D01*
X153300000Y-120655834D01*
X153287137Y-120651932D01*
X153200000Y-120643350D01*
X153000000Y-120643350D01*
X152912863Y-120651932D01*
X152900000Y-120655834D01*
X152887137Y-120651932D01*
X152800000Y-120643350D01*
X152600000Y-120643350D01*
X152512863Y-120651932D01*
X152500000Y-120655834D01*
X152487137Y-120651932D01*
X152400000Y-120643350D01*
X152200000Y-120643350D01*
X152112863Y-120651932D01*
X152100000Y-120655834D01*
X152087137Y-120651932D01*
X152000000Y-120643350D01*
X151800000Y-120643350D01*
X151712863Y-120651932D01*
X151700000Y-120655834D01*
X151687137Y-120651932D01*
X151600000Y-120643350D01*
X151400000Y-120643350D01*
X151312863Y-120651932D01*
X151300000Y-120655834D01*
X151287137Y-120651932D01*
X151200000Y-120643350D01*
X151000000Y-120643350D01*
X150912863Y-120651932D01*
X150900000Y-120655834D01*
X150887137Y-120651932D01*
X150800000Y-120643350D01*
X150600000Y-120643350D01*
X150512863Y-120651932D01*
X150500000Y-120655834D01*
X150487137Y-120651932D01*
X150400000Y-120643350D01*
X150200000Y-120643350D01*
X150112863Y-120651932D01*
X150100000Y-120655834D01*
X150087137Y-120651932D01*
X150000000Y-120643350D01*
X149800000Y-120643350D01*
X149712863Y-120651932D01*
X149700000Y-120655834D01*
X149687137Y-120651932D01*
X149600000Y-120643350D01*
X149400000Y-120643350D01*
X149312863Y-120651932D01*
X149300000Y-120655834D01*
X149287137Y-120651932D01*
X149200000Y-120643350D01*
X149000000Y-120643350D01*
X148912863Y-120651932D01*
X148900000Y-120655834D01*
X148887137Y-120651932D01*
X148800000Y-120643350D01*
X148600000Y-120643350D01*
X148512863Y-120651932D01*
X148500000Y-120655834D01*
X148487137Y-120651932D01*
X148400000Y-120643350D01*
X148200000Y-120643350D01*
X148112863Y-120651932D01*
X148100000Y-120655834D01*
X148087137Y-120651932D01*
X148000000Y-120643350D01*
X147800000Y-120643350D01*
X147712863Y-120651932D01*
X147700000Y-120655834D01*
X147687137Y-120651932D01*
X147600000Y-120643350D01*
X147400000Y-120643350D01*
X147312863Y-120651932D01*
X147300000Y-120655834D01*
X147287137Y-120651932D01*
X147200000Y-120643350D01*
X147000000Y-120643350D01*
X146912863Y-120651932D01*
X146900000Y-120655834D01*
X146887137Y-120651932D01*
X146800000Y-120643350D01*
X146600000Y-120643350D01*
X146512863Y-120651932D01*
X146429074Y-120677349D01*
X146351855Y-120718624D01*
X146284171Y-120774171D01*
X146228624Y-120841855D01*
X146187349Y-120919074D01*
X146161932Y-121002863D01*
X146153350Y-121090000D01*
X146153350Y-122422093D01*
X146070924Y-122477169D01*
X145977169Y-122570924D01*
X145903506Y-122681168D01*
X145852767Y-122803664D01*
X145852402Y-122805500D01*
X145200157Y-122805500D01*
X145238962Y-122687272D01*
X145302827Y-122161152D01*
X145262823Y-121632682D01*
X145120488Y-121122170D01*
X145073684Y-121009176D01*
X144838117Y-120670106D01*
X143408223Y-122100000D01*
X143422366Y-122114143D01*
X142731008Y-122805500D01*
X142468992Y-122805500D01*
X141777635Y-122114143D01*
X141791777Y-122100000D01*
X140361883Y-120670106D01*
X140126316Y-121009176D01*
X139961038Y-121512728D01*
X139944500Y-121648968D01*
X139944500Y-119861883D01*
X141170106Y-119861883D01*
X142600000Y-121291777D01*
X144029894Y-119861883D01*
X143690824Y-119626316D01*
X143187272Y-119461038D01*
X142661152Y-119397173D01*
X142132682Y-119437177D01*
X141622170Y-119579512D01*
X141509176Y-119626316D01*
X141170106Y-119861883D01*
X139944500Y-119861883D01*
X139944500Y-119389318D01*
X160657222Y-119389318D01*
X160661932Y-119437137D01*
X160687349Y-119520926D01*
X160728624Y-119598145D01*
X160784171Y-119665829D01*
X160851855Y-119721376D01*
X160929074Y-119762651D01*
X161012863Y-119788068D01*
X161100000Y-119796650D01*
X161550000Y-119796650D01*
X161637137Y-119788068D01*
X161720926Y-119762651D01*
X161798145Y-119721376D01*
X161865829Y-119665829D01*
X161921376Y-119598145D01*
X161962651Y-119520926D01*
X161988068Y-119437137D01*
X161996650Y-119350000D01*
X161996650Y-119157483D01*
X162059500Y-119094633D01*
X162059500Y-119321502D01*
X162250000Y-119321502D01*
X162250000Y-119191422D01*
X162265875Y-119190500D01*
X162313500Y-119142875D01*
X162313500Y-118936500D01*
X162636500Y-118936500D01*
X162636500Y-119142875D01*
X162684125Y-119190500D01*
X162700000Y-119191422D01*
X162737345Y-119187744D01*
X162773254Y-119176851D01*
X162806348Y-119159162D01*
X162835356Y-119135356D01*
X162859162Y-119106348D01*
X162876851Y-119073254D01*
X162887744Y-119037345D01*
X162891422Y-119000000D01*
X162890500Y-118984125D01*
X162842875Y-118936500D01*
X162636500Y-118936500D01*
X162313500Y-118936500D01*
X162250000Y-118936500D01*
X162250000Y-118904133D01*
X162636500Y-118517633D01*
X162636500Y-118563500D01*
X162842875Y-118563500D01*
X162890500Y-118515875D01*
X162891422Y-118500000D01*
X163046502Y-118500000D01*
X163046502Y-118309500D01*
X162844633Y-118309500D01*
X162944720Y-118209413D01*
X169378810Y-118209413D01*
X169592098Y-118340069D01*
X169919292Y-118401981D01*
X170252277Y-118398872D01*
X170547902Y-118340069D01*
X170761190Y-118209413D01*
X170070000Y-117518223D01*
X169378810Y-118209413D01*
X162944720Y-118209413D01*
X163972173Y-117181960D01*
X163991641Y-117165983D01*
X164055393Y-117088301D01*
X164102765Y-116999675D01*
X164131936Y-116903510D01*
X164139318Y-116828559D01*
X164139318Y-116828558D01*
X164141786Y-116803501D01*
X164139318Y-116778443D01*
X164139318Y-116559292D01*
X168378019Y-116559292D01*
X168381128Y-116892277D01*
X168439931Y-117187902D01*
X168570587Y-117401190D01*
X169261777Y-116710000D01*
X168570587Y-116018810D01*
X168439931Y-116232098D01*
X168378019Y-116559292D01*
X164139318Y-116559292D01*
X164139318Y-115197137D01*
X164377427Y-115244500D01*
X164622573Y-115244500D01*
X164793066Y-115210587D01*
X169378810Y-115210587D01*
X170070000Y-115901777D01*
X170761190Y-115210587D01*
X170547902Y-115079931D01*
X170220708Y-115018019D01*
X169887723Y-115021128D01*
X169592098Y-115079931D01*
X169378810Y-115210587D01*
X164793066Y-115210587D01*
X164863007Y-115196675D01*
X165089492Y-115102862D01*
X165293323Y-114966667D01*
X165321340Y-114938650D01*
X166869573Y-114938650D01*
X166983391Y-114995154D01*
X167016609Y-114995154D01*
X167130427Y-114938650D01*
X167000000Y-114808223D01*
X166869573Y-114938650D01*
X165321340Y-114938650D01*
X165466667Y-114793323D01*
X165602862Y-114589492D01*
X165696675Y-114363007D01*
X165744500Y-114122573D01*
X165744500Y-113983391D01*
X166004846Y-113983391D01*
X166004846Y-114016609D01*
X166061350Y-114130427D01*
X166191777Y-114000000D01*
X167808223Y-114000000D01*
X167938650Y-114130427D01*
X167995154Y-114016609D01*
X167995154Y-113983391D01*
X167938650Y-113869573D01*
X167808223Y-114000000D01*
X166191777Y-114000000D01*
X166061350Y-113869573D01*
X166004846Y-113983391D01*
X165744500Y-113983391D01*
X165744500Y-113877427D01*
X165696675Y-113636993D01*
X165602862Y-113410508D01*
X165466667Y-113206677D01*
X165321340Y-113061350D01*
X166869573Y-113061350D01*
X167000000Y-113191777D01*
X167130427Y-113061350D01*
X167016609Y-113004846D01*
X166983391Y-113004846D01*
X166869573Y-113061350D01*
X165321340Y-113061350D01*
X165293323Y-113033333D01*
X165089492Y-112897138D01*
X164863007Y-112803325D01*
X164622573Y-112755500D01*
X164377427Y-112755500D01*
X164136993Y-112803325D01*
X163910508Y-112897138D01*
X163706677Y-113033333D01*
X163533333Y-113206677D01*
X163500000Y-113256564D01*
X163466667Y-113206677D01*
X163293323Y-113033333D01*
X163089492Y-112897138D01*
X162863007Y-112803325D01*
X162622573Y-112755500D01*
X162377427Y-112755500D01*
X162136993Y-112803325D01*
X161910508Y-112897138D01*
X161706677Y-113033333D01*
X161533333Y-113206677D01*
X161397138Y-113410508D01*
X161303325Y-113636993D01*
X161255500Y-113877427D01*
X161255500Y-114122573D01*
X161303325Y-114363007D01*
X161397138Y-114589492D01*
X161533333Y-114793323D01*
X161706677Y-114966667D01*
X161910508Y-115102862D01*
X162136993Y-115196675D01*
X162377427Y-115244500D01*
X162622573Y-115244500D01*
X162860683Y-115197137D01*
X162860682Y-116485185D01*
X161634222Y-117711645D01*
X161550000Y-117703350D01*
X161100000Y-117703350D01*
X161012863Y-117711932D01*
X160929074Y-117737349D01*
X160851855Y-117778624D01*
X160784171Y-117834171D01*
X160728624Y-117901855D01*
X160687349Y-117979074D01*
X160661932Y-118062863D01*
X160657222Y-118110682D01*
X157522459Y-118110682D01*
X156930000Y-117518223D01*
X156337541Y-118110682D01*
X139944500Y-118110682D01*
X139944500Y-116559292D01*
X155238019Y-116559292D01*
X155241128Y-116892277D01*
X155299931Y-117187902D01*
X155430587Y-117401190D01*
X156121777Y-116710000D01*
X157738223Y-116710000D01*
X158429413Y-117401190D01*
X158560069Y-117187902D01*
X158621981Y-116860708D01*
X158618872Y-116527723D01*
X158560069Y-116232098D01*
X158429413Y-116018810D01*
X157738223Y-116710000D01*
X156121777Y-116710000D01*
X155430587Y-116018810D01*
X155299931Y-116232098D01*
X155238019Y-116559292D01*
X139944500Y-116559292D01*
X139944500Y-115210587D01*
X156238810Y-115210587D01*
X156930000Y-115901777D01*
X157621190Y-115210587D01*
X157407902Y-115079931D01*
X157080708Y-115018019D01*
X156747723Y-115021128D01*
X156452098Y-115079931D01*
X156238810Y-115210587D01*
X139944500Y-115210587D01*
X139944500Y-111933705D01*
X155076900Y-111933705D01*
X155076900Y-112066295D01*
X155102767Y-112196336D01*
X155153506Y-112318832D01*
X155227169Y-112429076D01*
X155298093Y-112500000D01*
X155227169Y-112570924D01*
X155153506Y-112681168D01*
X155102767Y-112803664D01*
X155076900Y-112933705D01*
X155076900Y-113066295D01*
X155102767Y-113196336D01*
X155153506Y-113318832D01*
X155227169Y-113429076D01*
X155320924Y-113522831D01*
X155431168Y-113596494D01*
X155553664Y-113647233D01*
X155683705Y-113673100D01*
X155816295Y-113673100D01*
X155946336Y-113647233D01*
X156068832Y-113596494D01*
X156179076Y-113522831D01*
X156272831Y-113429076D01*
X156346494Y-113318832D01*
X156395715Y-113200000D01*
X158753350Y-113200000D01*
X158753350Y-114800000D01*
X158761932Y-114887137D01*
X158787349Y-114970926D01*
X158828624Y-115048145D01*
X158884171Y-115115829D01*
X158951855Y-115171376D01*
X159029074Y-115212651D01*
X159112863Y-115238068D01*
X159200000Y-115246650D01*
X160800000Y-115246650D01*
X160887137Y-115238068D01*
X160970926Y-115212651D01*
X161048145Y-115171376D01*
X161115829Y-115115829D01*
X161171376Y-115048145D01*
X161212651Y-114970926D01*
X161238068Y-114887137D01*
X161246650Y-114800000D01*
X161246650Y-113200000D01*
X161238068Y-113112863D01*
X161212651Y-113029074D01*
X161171376Y-112951855D01*
X161115829Y-112884171D01*
X161048145Y-112828624D01*
X160970926Y-112787349D01*
X160887137Y-112761932D01*
X160800000Y-112753350D01*
X159200000Y-112753350D01*
X159112863Y-112761932D01*
X159029074Y-112787349D01*
X158951855Y-112828624D01*
X158884171Y-112884171D01*
X158828624Y-112951855D01*
X158787349Y-113029074D01*
X158761932Y-113112863D01*
X158753350Y-113200000D01*
X156395715Y-113200000D01*
X156397233Y-113196336D01*
X156423100Y-113066295D01*
X156423100Y-112933705D01*
X156397233Y-112803664D01*
X156346494Y-112681168D01*
X156272831Y-112570924D01*
X156201907Y-112500000D01*
X156272831Y-112429076D01*
X156346494Y-112318832D01*
X156397233Y-112196336D01*
X156423100Y-112066295D01*
X156423100Y-111933705D01*
X157826900Y-111933705D01*
X157826900Y-112066295D01*
X157852767Y-112196336D01*
X157903506Y-112318832D01*
X157977169Y-112429076D01*
X158070924Y-112522831D01*
X158181168Y-112596494D01*
X158303664Y-112647233D01*
X158433705Y-112673100D01*
X158566295Y-112673100D01*
X158696336Y-112647233D01*
X158818832Y-112596494D01*
X158929076Y-112522831D01*
X159022831Y-112429076D01*
X159096494Y-112318832D01*
X159147233Y-112196336D01*
X159173100Y-112066295D01*
X159173100Y-111933705D01*
X159147233Y-111803664D01*
X159096494Y-111681168D01*
X159022831Y-111570924D01*
X158929076Y-111477169D01*
X158818832Y-111403506D01*
X158696336Y-111352767D01*
X158566295Y-111326900D01*
X158433705Y-111326900D01*
X158303664Y-111352767D01*
X158181168Y-111403506D01*
X158070924Y-111477169D01*
X157977169Y-111570924D01*
X157903506Y-111681168D01*
X157852767Y-111803664D01*
X157826900Y-111933705D01*
X156423100Y-111933705D01*
X156397233Y-111803664D01*
X156346494Y-111681168D01*
X156272831Y-111570924D01*
X156179076Y-111477169D01*
X156068832Y-111403506D01*
X155946336Y-111352767D01*
X155816295Y-111326900D01*
X155683705Y-111326900D01*
X155553664Y-111352767D01*
X155431168Y-111403506D01*
X155320924Y-111477169D01*
X155227169Y-111570924D01*
X155153506Y-111681168D01*
X155102767Y-111803664D01*
X155076900Y-111933705D01*
X139944500Y-111933705D01*
X139944500Y-108933705D01*
X160576900Y-108933705D01*
X160576900Y-109066295D01*
X160602767Y-109196336D01*
X160653506Y-109318832D01*
X160727169Y-109429076D01*
X160820924Y-109522831D01*
X160931168Y-109596494D01*
X161053664Y-109647233D01*
X161183705Y-109673100D01*
X161316295Y-109673100D01*
X161446336Y-109647233D01*
X161568832Y-109596494D01*
X161679076Y-109522831D01*
X161772831Y-109429076D01*
X161846494Y-109318832D01*
X161897233Y-109196336D01*
X161923100Y-109066295D01*
X161923100Y-108933705D01*
X161897233Y-108803664D01*
X161846494Y-108681168D01*
X161772831Y-108570924D01*
X161679076Y-108477169D01*
X161568832Y-108403506D01*
X161446336Y-108352767D01*
X161316295Y-108326900D01*
X161183705Y-108326900D01*
X161053664Y-108352767D01*
X160931168Y-108403506D01*
X160820924Y-108477169D01*
X160727169Y-108570924D01*
X160653506Y-108681168D01*
X160602767Y-108803664D01*
X160576900Y-108933705D01*
X139944500Y-108933705D01*
X139944500Y-108007407D01*
X140022831Y-107929076D01*
X140096494Y-107818832D01*
X140147233Y-107696336D01*
X140173100Y-107566295D01*
X140173100Y-107433705D01*
X140147233Y-107303664D01*
X140096494Y-107181168D01*
X140022831Y-107070924D01*
X139944500Y-106992593D01*
X139944500Y-106938650D01*
X159869573Y-106938650D01*
X159983391Y-106995154D01*
X160016609Y-106995154D01*
X160130427Y-106938650D01*
X160000000Y-106808223D01*
X159869573Y-106938650D01*
X139944500Y-106938650D01*
X139944500Y-105983391D01*
X159004846Y-105983391D01*
X159004846Y-106016609D01*
X159061350Y-106130427D01*
X159191777Y-106000000D01*
X160808223Y-106000000D01*
X160938650Y-106130427D01*
X160995154Y-106016609D01*
X160995154Y-105983391D01*
X160938650Y-105869573D01*
X160808223Y-106000000D01*
X159191777Y-106000000D01*
X159061350Y-105869573D01*
X159004846Y-105983391D01*
X139944500Y-105983391D01*
X139944500Y-105061350D01*
X159869573Y-105061350D01*
X160000000Y-105191777D01*
X160130427Y-105061350D01*
X160016609Y-105004846D01*
X159983391Y-105004846D01*
X159869573Y-105061350D01*
X139944500Y-105061350D01*
X139944500Y-104789413D01*
X156238810Y-104789413D01*
X156452098Y-104920069D01*
X156779292Y-104981981D01*
X157112277Y-104978872D01*
X157407902Y-104920069D01*
X157621190Y-104789413D01*
X156930000Y-104098223D01*
X156238810Y-104789413D01*
X139944500Y-104789413D01*
X139944500Y-103500000D01*
X139935959Y-103413282D01*
X139910664Y-103329897D01*
X139869588Y-103253049D01*
X139814309Y-103185691D01*
X139757772Y-103139292D01*
X155238019Y-103139292D01*
X155241128Y-103472277D01*
X155299931Y-103767902D01*
X155430587Y-103981190D01*
X156121777Y-103290000D01*
X157738223Y-103290000D01*
X158429413Y-103981190D01*
X158560069Y-103767902D01*
X158621981Y-103440708D01*
X158618872Y-103107723D01*
X158560069Y-102812098D01*
X158429413Y-102598810D01*
X157738223Y-103290000D01*
X156121777Y-103290000D01*
X155430587Y-102598810D01*
X155299931Y-102812098D01*
X155238019Y-103139292D01*
X139757772Y-103139292D01*
X139746951Y-103130412D01*
X139670103Y-103089336D01*
X139586718Y-103064041D01*
X139500000Y-103055500D01*
X138848634Y-103055500D01*
X140014816Y-101889318D01*
X156337541Y-101889318D01*
X156930000Y-102481777D01*
X157522459Y-101889318D01*
X160657222Y-101889318D01*
X160661932Y-101937137D01*
X160687349Y-102020926D01*
X160728624Y-102098145D01*
X160784171Y-102165829D01*
X160851855Y-102221376D01*
X160929074Y-102262651D01*
X161012863Y-102288068D01*
X161100000Y-102296650D01*
X161550000Y-102296650D01*
X161634222Y-102288355D01*
X162860682Y-103514815D01*
X162860683Y-104802863D01*
X162622573Y-104755500D01*
X162377427Y-104755500D01*
X162136993Y-104803325D01*
X161910508Y-104897138D01*
X161706677Y-105033333D01*
X161533333Y-105206677D01*
X161397138Y-105410508D01*
X161303325Y-105636993D01*
X161255500Y-105877427D01*
X161255500Y-106122573D01*
X161303325Y-106363007D01*
X161397138Y-106589492D01*
X161533333Y-106793323D01*
X161706677Y-106966667D01*
X161910508Y-107102862D01*
X162136993Y-107196675D01*
X162377427Y-107244500D01*
X162622573Y-107244500D01*
X162863007Y-107196675D01*
X163089492Y-107102862D01*
X163293323Y-106966667D01*
X163466667Y-106793323D01*
X163500000Y-106743436D01*
X163533333Y-106793323D01*
X163706677Y-106966667D01*
X163910508Y-107102862D01*
X164136993Y-107196675D01*
X164377427Y-107244500D01*
X164622573Y-107244500D01*
X164863007Y-107196675D01*
X165089492Y-107102862D01*
X165293323Y-106966667D01*
X165466667Y-106793323D01*
X165602862Y-106589492D01*
X165696675Y-106363007D01*
X165744500Y-106122573D01*
X165744500Y-105877427D01*
X165696675Y-105636993D01*
X165602862Y-105410508D01*
X165466667Y-105206677D01*
X165459990Y-105200000D01*
X165753350Y-105200000D01*
X165753350Y-106800000D01*
X165761932Y-106887137D01*
X165787349Y-106970926D01*
X165828624Y-107048145D01*
X165884171Y-107115829D01*
X165951855Y-107171376D01*
X166029074Y-107212651D01*
X166112863Y-107238068D01*
X166200000Y-107246650D01*
X167800000Y-107246650D01*
X167887137Y-107238068D01*
X167970926Y-107212651D01*
X168048145Y-107171376D01*
X168115829Y-107115829D01*
X168171376Y-107048145D01*
X168212651Y-106970926D01*
X168238068Y-106887137D01*
X168246650Y-106800000D01*
X168246650Y-105200000D01*
X168238068Y-105112863D01*
X168212651Y-105029074D01*
X168171376Y-104951855D01*
X168115829Y-104884171D01*
X168048145Y-104828624D01*
X167974788Y-104789413D01*
X169378810Y-104789413D01*
X169592098Y-104920069D01*
X169919292Y-104981981D01*
X170252277Y-104978872D01*
X170547902Y-104920069D01*
X170761190Y-104789413D01*
X170070000Y-104098223D01*
X169378810Y-104789413D01*
X167974788Y-104789413D01*
X167970926Y-104787349D01*
X167887137Y-104761932D01*
X167800000Y-104753350D01*
X166200000Y-104753350D01*
X166112863Y-104761932D01*
X166029074Y-104787349D01*
X165951855Y-104828624D01*
X165884171Y-104884171D01*
X165828624Y-104951855D01*
X165787349Y-105029074D01*
X165761932Y-105112863D01*
X165753350Y-105200000D01*
X165459990Y-105200000D01*
X165293323Y-105033333D01*
X165089492Y-104897138D01*
X164863007Y-104803325D01*
X164622573Y-104755500D01*
X164377427Y-104755500D01*
X164139318Y-104802863D01*
X164139318Y-103221557D01*
X164141786Y-103196499D01*
X164136152Y-103139292D01*
X168378019Y-103139292D01*
X168381128Y-103472277D01*
X168439931Y-103767902D01*
X168570587Y-103981190D01*
X169261777Y-103290000D01*
X168570587Y-102598810D01*
X168439931Y-102812098D01*
X168378019Y-103139292D01*
X164136152Y-103139292D01*
X164131936Y-103096490D01*
X164102765Y-103000325D01*
X164055393Y-102911699D01*
X164027135Y-102877267D01*
X163991641Y-102834017D01*
X163972173Y-102818040D01*
X162944720Y-101790587D01*
X169378810Y-101790587D01*
X170070000Y-102481777D01*
X170761190Y-101790587D01*
X170547902Y-101659931D01*
X170220708Y-101598019D01*
X169887723Y-101601128D01*
X169592098Y-101659931D01*
X169378810Y-101790587D01*
X162944720Y-101790587D01*
X162844633Y-101690500D01*
X163046502Y-101690500D01*
X163046502Y-101500000D01*
X162891422Y-101500000D01*
X162890500Y-101484125D01*
X162842875Y-101436500D01*
X162636500Y-101436500D01*
X162636500Y-101482367D01*
X162250000Y-101095867D01*
X162250000Y-101063500D01*
X162313500Y-101063500D01*
X162313500Y-100857125D01*
X162636500Y-100857125D01*
X162636500Y-101063500D01*
X162842875Y-101063500D01*
X162890500Y-101015875D01*
X162891422Y-101000000D01*
X162887744Y-100962655D01*
X162876851Y-100926746D01*
X162859162Y-100893652D01*
X162835356Y-100864644D01*
X162806348Y-100840838D01*
X162773254Y-100823149D01*
X162737345Y-100812256D01*
X162700000Y-100808578D01*
X162684125Y-100809500D01*
X162636500Y-100857125D01*
X162313500Y-100857125D01*
X162265875Y-100809500D01*
X162250000Y-100808578D01*
X162250000Y-100678498D01*
X162059500Y-100678498D01*
X162059500Y-100905367D01*
X161996650Y-100842517D01*
X161996650Y-100650000D01*
X161988068Y-100562863D01*
X161962651Y-100479074D01*
X161921376Y-100401855D01*
X161865829Y-100334171D01*
X161798145Y-100278624D01*
X161720926Y-100237349D01*
X161637137Y-100211932D01*
X161550000Y-100203350D01*
X161100000Y-100203350D01*
X161012863Y-100211932D01*
X160929074Y-100237349D01*
X160851855Y-100278624D01*
X160784171Y-100334171D01*
X160728624Y-100401855D01*
X160687349Y-100479074D01*
X160661932Y-100562863D01*
X160657222Y-100610682D01*
X158112173Y-100610682D01*
X158129646Y-100522841D01*
X158129646Y-100390251D01*
X158110439Y-100293693D01*
X158572178Y-99831955D01*
X158591641Y-99815982D01*
X158655393Y-99738300D01*
X158702765Y-99649674D01*
X158731936Y-99553509D01*
X158739318Y-99478558D01*
X158741786Y-99453500D01*
X158739318Y-99428442D01*
X158739318Y-99197208D01*
X158771376Y-99158145D01*
X158812651Y-99080926D01*
X158838068Y-98997137D01*
X158846650Y-98910000D01*
X158846650Y-97944500D01*
X162500000Y-97944500D01*
X162586718Y-97935959D01*
X162670103Y-97910664D01*
X162746951Y-97869588D01*
X162814309Y-97814309D01*
X162869588Y-97746951D01*
X162910664Y-97670103D01*
X162935959Y-97586718D01*
X162944500Y-97500000D01*
X162944500Y-94519500D01*
X171480500Y-94519500D01*
X171480500Y-102687723D01*
G37*
X171480500Y-102687723D02*
X170878223Y-103290000D01*
X171480500Y-103892277D01*
X171480501Y-116107722D01*
X170878223Y-116710000D01*
X171480501Y-117312278D01*
X171480501Y-125480500D01*
X158194500Y-125480500D01*
X158194500Y-125356108D01*
X158200000Y-125356650D01*
X158400000Y-125356650D01*
X158487137Y-125348068D01*
X158570926Y-125322651D01*
X158648145Y-125281376D01*
X158715829Y-125225829D01*
X158771376Y-125158145D01*
X158812651Y-125080926D01*
X158838068Y-124997137D01*
X158846650Y-124910000D01*
X158846650Y-123557483D01*
X159250000Y-123154133D01*
X159360682Y-123264816D01*
X159360683Y-123672473D01*
X159278824Y-123727169D01*
X159185069Y-123820924D01*
X159111406Y-123931168D01*
X159060667Y-124053664D01*
X159034800Y-124183705D01*
X159034800Y-124316295D01*
X159060667Y-124446336D01*
X159111406Y-124568832D01*
X159185069Y-124679076D01*
X159278824Y-124772831D01*
X159389068Y-124846494D01*
X159511564Y-124897233D01*
X159641605Y-124923100D01*
X159774195Y-124923100D01*
X159904236Y-124897233D01*
X160000000Y-124857567D01*
X160095764Y-124897233D01*
X160225805Y-124923100D01*
X160358395Y-124923100D01*
X160488436Y-124897233D01*
X160610932Y-124846494D01*
X160721176Y-124772831D01*
X160814931Y-124679076D01*
X160888594Y-124568832D01*
X160939333Y-124446336D01*
X160965200Y-124316295D01*
X160965200Y-124183705D01*
X160939333Y-124053664D01*
X160888594Y-123931168D01*
X160814931Y-123820924D01*
X160721176Y-123727169D01*
X160639318Y-123672473D01*
X160639318Y-122971546D01*
X160641785Y-122946498D01*
X160639318Y-122921450D01*
X160639318Y-122921441D01*
X160631936Y-122846490D01*
X160602765Y-122750325D01*
X160555393Y-122661699D01*
X160491641Y-122584017D01*
X160472178Y-122568044D01*
X159931960Y-122027827D01*
X159915983Y-122008359D01*
X159838301Y-121944607D01*
X159749675Y-121897235D01*
X159653510Y-121868064D01*
X159578559Y-121860682D01*
X159578549Y-121860682D01*
X159553501Y-121858215D01*
X159528453Y-121860682D01*
X158971557Y-121860682D01*
X158946499Y-121858214D01*
X158921441Y-121860682D01*
X158846650Y-121868048D01*
X158846650Y-121090000D01*
X158838068Y-121002863D01*
X158812651Y-120919074D01*
X158771376Y-120841855D01*
X158715829Y-120774171D01*
X158648145Y-120718624D01*
X158570926Y-120677349D01*
X158487137Y-120651932D01*
X158400000Y-120643350D01*
X158200000Y-120643350D01*
X158112863Y-120651932D01*
X158100000Y-120655834D01*
X158087137Y-120651932D01*
X158000000Y-120643350D01*
X157800000Y-120643350D01*
X157712863Y-120651932D01*
X157700000Y-120655834D01*
X157687137Y-120651932D01*
X157600000Y-120643350D01*
X157400000Y-120643350D01*
X157312863Y-120651932D01*
X157300000Y-120655834D01*
X157287137Y-120651932D01*
X157200000Y-120643350D01*
X157000000Y-120643350D01*
X156912863Y-120651932D01*
X156900000Y-120655834D01*
X156887137Y-120651932D01*
X156800000Y-120643350D01*
X156600000Y-120643350D01*
X156512863Y-120651932D01*
X156500000Y-120655834D01*
X156487137Y-120651932D01*
X156400000Y-120643350D01*
X156200000Y-120643350D01*
X156112863Y-120651932D01*
X156100000Y-120655834D01*
X156087137Y-120651932D01*
X156000000Y-120643350D01*
X155800000Y-120643350D01*
X155712863Y-120651932D01*
X155700000Y-120655834D01*
X155687137Y-120651932D01*
X155600000Y-120643350D01*
X155400000Y-120643350D01*
X155312863Y-120651932D01*
X155300000Y-120655834D01*
X155287137Y-120651932D01*
X155200000Y-120643350D01*
X155000000Y-120643350D01*
X154912863Y-120651932D01*
X154900000Y-120655834D01*
X154887137Y-120651932D01*
X154800000Y-120643350D01*
X154600000Y-120643350D01*
X154512863Y-120651932D01*
X154500000Y-120655834D01*
X154487137Y-120651932D01*
X154400000Y-120643350D01*
X154200000Y-120643350D01*
X154112863Y-120651932D01*
X154100000Y-120655834D01*
X154087137Y-120651932D01*
X154000000Y-120643350D01*
X153800000Y-120643350D01*
X153712863Y-120651932D01*
X153700000Y-120655834D01*
X153687137Y-120651932D01*
X153600000Y-120643350D01*
X153400000Y-120643350D01*
X153312863Y-120651932D01*
X153300000Y-120655834D01*
X153287137Y-120651932D01*
X153200000Y-120643350D01*
X153000000Y-120643350D01*
X152912863Y-120651932D01*
X152900000Y-120655834D01*
X152887137Y-120651932D01*
X152800000Y-120643350D01*
X152600000Y-120643350D01*
X152512863Y-120651932D01*
X152500000Y-120655834D01*
X152487137Y-120651932D01*
X152400000Y-120643350D01*
X152200000Y-120643350D01*
X152112863Y-120651932D01*
X152100000Y-120655834D01*
X152087137Y-120651932D01*
X152000000Y-120643350D01*
X151800000Y-120643350D01*
X151712863Y-120651932D01*
X151700000Y-120655834D01*
X151687137Y-120651932D01*
X151600000Y-120643350D01*
X151400000Y-120643350D01*
X151312863Y-120651932D01*
X151300000Y-120655834D01*
X151287137Y-120651932D01*
X151200000Y-120643350D01*
X151000000Y-120643350D01*
X150912863Y-120651932D01*
X150900000Y-120655834D01*
X150887137Y-120651932D01*
X150800000Y-120643350D01*
X150600000Y-120643350D01*
X150512863Y-120651932D01*
X150500000Y-120655834D01*
X150487137Y-120651932D01*
X150400000Y-120643350D01*
X150200000Y-120643350D01*
X150112863Y-120651932D01*
X150100000Y-120655834D01*
X150087137Y-120651932D01*
X150000000Y-120643350D01*
X149800000Y-120643350D01*
X149712863Y-120651932D01*
X149700000Y-120655834D01*
X149687137Y-120651932D01*
X149600000Y-120643350D01*
X149400000Y-120643350D01*
X149312863Y-120651932D01*
X149300000Y-120655834D01*
X149287137Y-120651932D01*
X149200000Y-120643350D01*
X149000000Y-120643350D01*
X148912863Y-120651932D01*
X148900000Y-120655834D01*
X148887137Y-120651932D01*
X148800000Y-120643350D01*
X148600000Y-120643350D01*
X148512863Y-120651932D01*
X148500000Y-120655834D01*
X148487137Y-120651932D01*
X148400000Y-120643350D01*
X148200000Y-120643350D01*
X148112863Y-120651932D01*
X148100000Y-120655834D01*
X148087137Y-120651932D01*
X148000000Y-120643350D01*
X147800000Y-120643350D01*
X147712863Y-120651932D01*
X147700000Y-120655834D01*
X147687137Y-120651932D01*
X147600000Y-120643350D01*
X147400000Y-120643350D01*
X147312863Y-120651932D01*
X147300000Y-120655834D01*
X147287137Y-120651932D01*
X147200000Y-120643350D01*
X147000000Y-120643350D01*
X146912863Y-120651932D01*
X146900000Y-120655834D01*
X146887137Y-120651932D01*
X146800000Y-120643350D01*
X146600000Y-120643350D01*
X146512863Y-120651932D01*
X146429074Y-120677349D01*
X146351855Y-120718624D01*
X146284171Y-120774171D01*
X146228624Y-120841855D01*
X146187349Y-120919074D01*
X146161932Y-121002863D01*
X146153350Y-121090000D01*
X146153350Y-122422093D01*
X146070924Y-122477169D01*
X145977169Y-122570924D01*
X145903506Y-122681168D01*
X145852767Y-122803664D01*
X145852402Y-122805500D01*
X145200157Y-122805500D01*
X145238962Y-122687272D01*
X145302827Y-122161152D01*
X145262823Y-121632682D01*
X145120488Y-121122170D01*
X145073684Y-121009176D01*
X144838117Y-120670106D01*
X143408223Y-122100000D01*
X143422366Y-122114143D01*
X142731008Y-122805500D01*
X142468992Y-122805500D01*
X141777635Y-122114143D01*
X141791777Y-122100000D01*
X140361883Y-120670106D01*
X140126316Y-121009176D01*
X139961038Y-121512728D01*
X139944500Y-121648968D01*
X139944500Y-119861883D01*
X141170106Y-119861883D01*
X142600000Y-121291777D01*
X144029894Y-119861883D01*
X143690824Y-119626316D01*
X143187272Y-119461038D01*
X142661152Y-119397173D01*
X142132682Y-119437177D01*
X141622170Y-119579512D01*
X141509176Y-119626316D01*
X141170106Y-119861883D01*
X139944500Y-119861883D01*
X139944500Y-119389318D01*
X160657222Y-119389318D01*
X160661932Y-119437137D01*
X160687349Y-119520926D01*
X160728624Y-119598145D01*
X160784171Y-119665829D01*
X160851855Y-119721376D01*
X160929074Y-119762651D01*
X161012863Y-119788068D01*
X161100000Y-119796650D01*
X161550000Y-119796650D01*
X161637137Y-119788068D01*
X161720926Y-119762651D01*
X161798145Y-119721376D01*
X161865829Y-119665829D01*
X161921376Y-119598145D01*
X161962651Y-119520926D01*
X161988068Y-119437137D01*
X161996650Y-119350000D01*
X161996650Y-119157483D01*
X162059500Y-119094633D01*
X162059500Y-119321502D01*
X162250000Y-119321502D01*
X162250000Y-119191422D01*
X162265875Y-119190500D01*
X162313500Y-119142875D01*
X162313500Y-118936500D01*
X162636500Y-118936500D01*
X162636500Y-119142875D01*
X162684125Y-119190500D01*
X162700000Y-119191422D01*
X162737345Y-119187744D01*
X162773254Y-119176851D01*
X162806348Y-119159162D01*
X162835356Y-119135356D01*
X162859162Y-119106348D01*
X162876851Y-119073254D01*
X162887744Y-119037345D01*
X162891422Y-119000000D01*
X162890500Y-118984125D01*
X162842875Y-118936500D01*
X162636500Y-118936500D01*
X162313500Y-118936500D01*
X162250000Y-118936500D01*
X162250000Y-118904133D01*
X162636500Y-118517633D01*
X162636500Y-118563500D01*
X162842875Y-118563500D01*
X162890500Y-118515875D01*
X162891422Y-118500000D01*
X163046502Y-118500000D01*
X163046502Y-118309500D01*
X162844633Y-118309500D01*
X162944720Y-118209413D01*
X169378810Y-118209413D01*
X169592098Y-118340069D01*
X169919292Y-118401981D01*
X170252277Y-118398872D01*
X170547902Y-118340069D01*
X170761190Y-118209413D01*
X170070000Y-117518223D01*
X169378810Y-118209413D01*
X162944720Y-118209413D01*
X163972173Y-117181960D01*
X163991641Y-117165983D01*
X164055393Y-117088301D01*
X164102765Y-116999675D01*
X164131936Y-116903510D01*
X164139318Y-116828559D01*
X164139318Y-116828558D01*
X164141786Y-116803501D01*
X164139318Y-116778443D01*
X164139318Y-116559292D01*
X168378019Y-116559292D01*
X168381128Y-116892277D01*
X168439931Y-117187902D01*
X168570587Y-117401190D01*
X169261777Y-116710000D01*
X168570587Y-116018810D01*
X168439931Y-116232098D01*
X168378019Y-116559292D01*
X164139318Y-116559292D01*
X164139318Y-115197137D01*
X164377427Y-115244500D01*
X164622573Y-115244500D01*
X164793066Y-115210587D01*
X169378810Y-115210587D01*
X170070000Y-115901777D01*
X170761190Y-115210587D01*
X170547902Y-115079931D01*
X170220708Y-115018019D01*
X169887723Y-115021128D01*
X169592098Y-115079931D01*
X169378810Y-115210587D01*
X164793066Y-115210587D01*
X164863007Y-115196675D01*
X165089492Y-115102862D01*
X165293323Y-114966667D01*
X165321340Y-114938650D01*
X166869573Y-114938650D01*
X166983391Y-114995154D01*
X167016609Y-114995154D01*
X167130427Y-114938650D01*
X167000000Y-114808223D01*
X166869573Y-114938650D01*
X165321340Y-114938650D01*
X165466667Y-114793323D01*
X165602862Y-114589492D01*
X165696675Y-114363007D01*
X165744500Y-114122573D01*
X165744500Y-113983391D01*
X166004846Y-113983391D01*
X166004846Y-114016609D01*
X166061350Y-114130427D01*
X166191777Y-114000000D01*
X167808223Y-114000000D01*
X167938650Y-114130427D01*
X167995154Y-114016609D01*
X167995154Y-113983391D01*
X167938650Y-113869573D01*
X167808223Y-114000000D01*
X166191777Y-114000000D01*
X166061350Y-113869573D01*
X166004846Y-113983391D01*
X165744500Y-113983391D01*
X165744500Y-113877427D01*
X165696675Y-113636993D01*
X165602862Y-113410508D01*
X165466667Y-113206677D01*
X165321340Y-113061350D01*
X166869573Y-113061350D01*
X167000000Y-113191777D01*
X167130427Y-113061350D01*
X167016609Y-113004846D01*
X166983391Y-113004846D01*
X166869573Y-113061350D01*
X165321340Y-113061350D01*
X165293323Y-113033333D01*
X165089492Y-112897138D01*
X164863007Y-112803325D01*
X164622573Y-112755500D01*
X164377427Y-112755500D01*
X164136993Y-112803325D01*
X163910508Y-112897138D01*
X163706677Y-113033333D01*
X163533333Y-113206677D01*
X163500000Y-113256564D01*
X163466667Y-113206677D01*
X163293323Y-113033333D01*
X163089492Y-112897138D01*
X162863007Y-112803325D01*
X162622573Y-112755500D01*
X162377427Y-112755500D01*
X162136993Y-112803325D01*
X161910508Y-112897138D01*
X161706677Y-113033333D01*
X161533333Y-113206677D01*
X161397138Y-113410508D01*
X161303325Y-113636993D01*
X161255500Y-113877427D01*
X161255500Y-114122573D01*
X161303325Y-114363007D01*
X161397138Y-114589492D01*
X161533333Y-114793323D01*
X161706677Y-114966667D01*
X161910508Y-115102862D01*
X162136993Y-115196675D01*
X162377427Y-115244500D01*
X162622573Y-115244500D01*
X162860683Y-115197137D01*
X162860682Y-116485185D01*
X161634222Y-117711645D01*
X161550000Y-117703350D01*
X161100000Y-117703350D01*
X161012863Y-117711932D01*
X160929074Y-117737349D01*
X160851855Y-117778624D01*
X160784171Y-117834171D01*
X160728624Y-117901855D01*
X160687349Y-117979074D01*
X160661932Y-118062863D01*
X160657222Y-118110682D01*
X157522459Y-118110682D01*
X156930000Y-117518223D01*
X156337541Y-118110682D01*
X139944500Y-118110682D01*
X139944500Y-116559292D01*
X155238019Y-116559292D01*
X155241128Y-116892277D01*
X155299931Y-117187902D01*
X155430587Y-117401190D01*
X156121777Y-116710000D01*
X157738223Y-116710000D01*
X158429413Y-117401190D01*
X158560069Y-117187902D01*
X158621981Y-116860708D01*
X158618872Y-116527723D01*
X158560069Y-116232098D01*
X158429413Y-116018810D01*
X157738223Y-116710000D01*
X156121777Y-116710000D01*
X155430587Y-116018810D01*
X155299931Y-116232098D01*
X155238019Y-116559292D01*
X139944500Y-116559292D01*
X139944500Y-115210587D01*
X156238810Y-115210587D01*
X156930000Y-115901777D01*
X157621190Y-115210587D01*
X157407902Y-115079931D01*
X157080708Y-115018019D01*
X156747723Y-115021128D01*
X156452098Y-115079931D01*
X156238810Y-115210587D01*
X139944500Y-115210587D01*
X139944500Y-111933705D01*
X155076900Y-111933705D01*
X155076900Y-112066295D01*
X155102767Y-112196336D01*
X155153506Y-112318832D01*
X155227169Y-112429076D01*
X155298093Y-112500000D01*
X155227169Y-112570924D01*
X155153506Y-112681168D01*
X155102767Y-112803664D01*
X155076900Y-112933705D01*
X155076900Y-113066295D01*
X155102767Y-113196336D01*
X155153506Y-113318832D01*
X155227169Y-113429076D01*
X155320924Y-113522831D01*
X155431168Y-113596494D01*
X155553664Y-113647233D01*
X155683705Y-113673100D01*
X155816295Y-113673100D01*
X155946336Y-113647233D01*
X156068832Y-113596494D01*
X156179076Y-113522831D01*
X156272831Y-113429076D01*
X156346494Y-113318832D01*
X156395715Y-113200000D01*
X158753350Y-113200000D01*
X158753350Y-114800000D01*
X158761932Y-114887137D01*
X158787349Y-114970926D01*
X158828624Y-115048145D01*
X158884171Y-115115829D01*
X158951855Y-115171376D01*
X159029074Y-115212651D01*
X159112863Y-115238068D01*
X159200000Y-115246650D01*
X160800000Y-115246650D01*
X160887137Y-115238068D01*
X160970926Y-115212651D01*
X161048145Y-115171376D01*
X161115829Y-115115829D01*
X161171376Y-115048145D01*
X161212651Y-114970926D01*
X161238068Y-114887137D01*
X161246650Y-114800000D01*
X161246650Y-113200000D01*
X161238068Y-113112863D01*
X161212651Y-113029074D01*
X161171376Y-112951855D01*
X161115829Y-112884171D01*
X161048145Y-112828624D01*
X160970926Y-112787349D01*
X160887137Y-112761932D01*
X160800000Y-112753350D01*
X159200000Y-112753350D01*
X159112863Y-112761932D01*
X159029074Y-112787349D01*
X158951855Y-112828624D01*
X158884171Y-112884171D01*
X158828624Y-112951855D01*
X158787349Y-113029074D01*
X158761932Y-113112863D01*
X158753350Y-113200000D01*
X156395715Y-113200000D01*
X156397233Y-113196336D01*
X156423100Y-113066295D01*
X156423100Y-112933705D01*
X156397233Y-112803664D01*
X156346494Y-112681168D01*
X156272831Y-112570924D01*
X156201907Y-112500000D01*
X156272831Y-112429076D01*
X156346494Y-112318832D01*
X156397233Y-112196336D01*
X156423100Y-112066295D01*
X156423100Y-111933705D01*
X157826900Y-111933705D01*
X157826900Y-112066295D01*
X157852767Y-112196336D01*
X157903506Y-112318832D01*
X157977169Y-112429076D01*
X158070924Y-112522831D01*
X158181168Y-112596494D01*
X158303664Y-112647233D01*
X158433705Y-112673100D01*
X158566295Y-112673100D01*
X158696336Y-112647233D01*
X158818832Y-112596494D01*
X158929076Y-112522831D01*
X159022831Y-112429076D01*
X159096494Y-112318832D01*
X159147233Y-112196336D01*
X159173100Y-112066295D01*
X159173100Y-111933705D01*
X159147233Y-111803664D01*
X159096494Y-111681168D01*
X159022831Y-111570924D01*
X158929076Y-111477169D01*
X158818832Y-111403506D01*
X158696336Y-111352767D01*
X158566295Y-111326900D01*
X158433705Y-111326900D01*
X158303664Y-111352767D01*
X158181168Y-111403506D01*
X158070924Y-111477169D01*
X157977169Y-111570924D01*
X157903506Y-111681168D01*
X157852767Y-111803664D01*
X157826900Y-111933705D01*
X156423100Y-111933705D01*
X156397233Y-111803664D01*
X156346494Y-111681168D01*
X156272831Y-111570924D01*
X156179076Y-111477169D01*
X156068832Y-111403506D01*
X155946336Y-111352767D01*
X155816295Y-111326900D01*
X155683705Y-111326900D01*
X155553664Y-111352767D01*
X155431168Y-111403506D01*
X155320924Y-111477169D01*
X155227169Y-111570924D01*
X155153506Y-111681168D01*
X155102767Y-111803664D01*
X155076900Y-111933705D01*
X139944500Y-111933705D01*
X139944500Y-108933705D01*
X160576900Y-108933705D01*
X160576900Y-109066295D01*
X160602767Y-109196336D01*
X160653506Y-109318832D01*
X160727169Y-109429076D01*
X160820924Y-109522831D01*
X160931168Y-109596494D01*
X161053664Y-109647233D01*
X161183705Y-109673100D01*
X161316295Y-109673100D01*
X161446336Y-109647233D01*
X161568832Y-109596494D01*
X161679076Y-109522831D01*
X161772831Y-109429076D01*
X161846494Y-109318832D01*
X161897233Y-109196336D01*
X161923100Y-109066295D01*
X161923100Y-108933705D01*
X161897233Y-108803664D01*
X161846494Y-108681168D01*
X161772831Y-108570924D01*
X161679076Y-108477169D01*
X161568832Y-108403506D01*
X161446336Y-108352767D01*
X161316295Y-108326900D01*
X161183705Y-108326900D01*
X161053664Y-108352767D01*
X160931168Y-108403506D01*
X160820924Y-108477169D01*
X160727169Y-108570924D01*
X160653506Y-108681168D01*
X160602767Y-108803664D01*
X160576900Y-108933705D01*
X139944500Y-108933705D01*
X139944500Y-108007407D01*
X140022831Y-107929076D01*
X140096494Y-107818832D01*
X140147233Y-107696336D01*
X140173100Y-107566295D01*
X140173100Y-107433705D01*
X140147233Y-107303664D01*
X140096494Y-107181168D01*
X140022831Y-107070924D01*
X139944500Y-106992593D01*
X139944500Y-106938650D01*
X159869573Y-106938650D01*
X159983391Y-106995154D01*
X160016609Y-106995154D01*
X160130427Y-106938650D01*
X160000000Y-106808223D01*
X159869573Y-106938650D01*
X139944500Y-106938650D01*
X139944500Y-105983391D01*
X159004846Y-105983391D01*
X159004846Y-106016609D01*
X159061350Y-106130427D01*
X159191777Y-106000000D01*
X160808223Y-106000000D01*
X160938650Y-106130427D01*
X160995154Y-106016609D01*
X160995154Y-105983391D01*
X160938650Y-105869573D01*
X160808223Y-106000000D01*
X159191777Y-106000000D01*
X159061350Y-105869573D01*
X159004846Y-105983391D01*
X139944500Y-105983391D01*
X139944500Y-105061350D01*
X159869573Y-105061350D01*
X160000000Y-105191777D01*
X160130427Y-105061350D01*
X160016609Y-105004846D01*
X159983391Y-105004846D01*
X159869573Y-105061350D01*
X139944500Y-105061350D01*
X139944500Y-104789413D01*
X156238810Y-104789413D01*
X156452098Y-104920069D01*
X156779292Y-104981981D01*
X157112277Y-104978872D01*
X157407902Y-104920069D01*
X157621190Y-104789413D01*
X156930000Y-104098223D01*
X156238810Y-104789413D01*
X139944500Y-104789413D01*
X139944500Y-103500000D01*
X139935959Y-103413282D01*
X139910664Y-103329897D01*
X139869588Y-103253049D01*
X139814309Y-103185691D01*
X139757772Y-103139292D01*
X155238019Y-103139292D01*
X155241128Y-103472277D01*
X155299931Y-103767902D01*
X155430587Y-103981190D01*
X156121777Y-103290000D01*
X157738223Y-103290000D01*
X158429413Y-103981190D01*
X158560069Y-103767902D01*
X158621981Y-103440708D01*
X158618872Y-103107723D01*
X158560069Y-102812098D01*
X158429413Y-102598810D01*
X157738223Y-103290000D01*
X156121777Y-103290000D01*
X155430587Y-102598810D01*
X155299931Y-102812098D01*
X155238019Y-103139292D01*
X139757772Y-103139292D01*
X139746951Y-103130412D01*
X139670103Y-103089336D01*
X139586718Y-103064041D01*
X139500000Y-103055500D01*
X138848634Y-103055500D01*
X140014816Y-101889318D01*
X156337541Y-101889318D01*
X156930000Y-102481777D01*
X157522459Y-101889318D01*
X160657222Y-101889318D01*
X160661932Y-101937137D01*
X160687349Y-102020926D01*
X160728624Y-102098145D01*
X160784171Y-102165829D01*
X160851855Y-102221376D01*
X160929074Y-102262651D01*
X161012863Y-102288068D01*
X161100000Y-102296650D01*
X161550000Y-102296650D01*
X161634222Y-102288355D01*
X162860682Y-103514815D01*
X162860683Y-104802863D01*
X162622573Y-104755500D01*
X162377427Y-104755500D01*
X162136993Y-104803325D01*
X161910508Y-104897138D01*
X161706677Y-105033333D01*
X161533333Y-105206677D01*
X161397138Y-105410508D01*
X161303325Y-105636993D01*
X161255500Y-105877427D01*
X161255500Y-106122573D01*
X161303325Y-106363007D01*
X161397138Y-106589492D01*
X161533333Y-106793323D01*
X161706677Y-106966667D01*
X161910508Y-107102862D01*
X162136993Y-107196675D01*
X162377427Y-107244500D01*
X162622573Y-107244500D01*
X162863007Y-107196675D01*
X163089492Y-107102862D01*
X163293323Y-106966667D01*
X163466667Y-106793323D01*
X163500000Y-106743436D01*
X163533333Y-106793323D01*
X163706677Y-106966667D01*
X163910508Y-107102862D01*
X164136993Y-107196675D01*
X164377427Y-107244500D01*
X164622573Y-107244500D01*
X164863007Y-107196675D01*
X165089492Y-107102862D01*
X165293323Y-106966667D01*
X165466667Y-106793323D01*
X165602862Y-106589492D01*
X165696675Y-106363007D01*
X165744500Y-106122573D01*
X165744500Y-105877427D01*
X165696675Y-105636993D01*
X165602862Y-105410508D01*
X165466667Y-105206677D01*
X165459990Y-105200000D01*
X165753350Y-105200000D01*
X165753350Y-106800000D01*
X165761932Y-106887137D01*
X165787349Y-106970926D01*
X165828624Y-107048145D01*
X165884171Y-107115829D01*
X165951855Y-107171376D01*
X166029074Y-107212651D01*
X166112863Y-107238068D01*
X166200000Y-107246650D01*
X167800000Y-107246650D01*
X167887137Y-107238068D01*
X167970926Y-107212651D01*
X168048145Y-107171376D01*
X168115829Y-107115829D01*
X168171376Y-107048145D01*
X168212651Y-106970926D01*
X168238068Y-106887137D01*
X168246650Y-106800000D01*
X168246650Y-105200000D01*
X168238068Y-105112863D01*
X168212651Y-105029074D01*
X168171376Y-104951855D01*
X168115829Y-104884171D01*
X168048145Y-104828624D01*
X167974788Y-104789413D01*
X169378810Y-104789413D01*
X169592098Y-104920069D01*
X169919292Y-104981981D01*
X170252277Y-104978872D01*
X170547902Y-104920069D01*
X170761190Y-104789413D01*
X170070000Y-104098223D01*
X169378810Y-104789413D01*
X167974788Y-104789413D01*
X167970926Y-104787349D01*
X167887137Y-104761932D01*
X167800000Y-104753350D01*
X166200000Y-104753350D01*
X166112863Y-104761932D01*
X166029074Y-104787349D01*
X165951855Y-104828624D01*
X165884171Y-104884171D01*
X165828624Y-104951855D01*
X165787349Y-105029074D01*
X165761932Y-105112863D01*
X165753350Y-105200000D01*
X165459990Y-105200000D01*
X165293323Y-105033333D01*
X165089492Y-104897138D01*
X164863007Y-104803325D01*
X164622573Y-104755500D01*
X164377427Y-104755500D01*
X164139318Y-104802863D01*
X164139318Y-103221557D01*
X164141786Y-103196499D01*
X164136152Y-103139292D01*
X168378019Y-103139292D01*
X168381128Y-103472277D01*
X168439931Y-103767902D01*
X168570587Y-103981190D01*
X169261777Y-103290000D01*
X168570587Y-102598810D01*
X168439931Y-102812098D01*
X168378019Y-103139292D01*
X164136152Y-103139292D01*
X164131936Y-103096490D01*
X164102765Y-103000325D01*
X164055393Y-102911699D01*
X164027135Y-102877267D01*
X163991641Y-102834017D01*
X163972173Y-102818040D01*
X162944720Y-101790587D01*
X169378810Y-101790587D01*
X170070000Y-102481777D01*
X170761190Y-101790587D01*
X170547902Y-101659931D01*
X170220708Y-101598019D01*
X169887723Y-101601128D01*
X169592098Y-101659931D01*
X169378810Y-101790587D01*
X162944720Y-101790587D01*
X162844633Y-101690500D01*
X163046502Y-101690500D01*
X163046502Y-101500000D01*
X162891422Y-101500000D01*
X162890500Y-101484125D01*
X162842875Y-101436500D01*
X162636500Y-101436500D01*
X162636500Y-101482367D01*
X162250000Y-101095867D01*
X162250000Y-101063500D01*
X162313500Y-101063500D01*
X162313500Y-100857125D01*
X162636500Y-100857125D01*
X162636500Y-101063500D01*
X162842875Y-101063500D01*
X162890500Y-101015875D01*
X162891422Y-101000000D01*
X162887744Y-100962655D01*
X162876851Y-100926746D01*
X162859162Y-100893652D01*
X162835356Y-100864644D01*
X162806348Y-100840838D01*
X162773254Y-100823149D01*
X162737345Y-100812256D01*
X162700000Y-100808578D01*
X162684125Y-100809500D01*
X162636500Y-100857125D01*
X162313500Y-100857125D01*
X162265875Y-100809500D01*
X162250000Y-100808578D01*
X162250000Y-100678498D01*
X162059500Y-100678498D01*
X162059500Y-100905367D01*
X161996650Y-100842517D01*
X161996650Y-100650000D01*
X161988068Y-100562863D01*
X161962651Y-100479074D01*
X161921376Y-100401855D01*
X161865829Y-100334171D01*
X161798145Y-100278624D01*
X161720926Y-100237349D01*
X161637137Y-100211932D01*
X161550000Y-100203350D01*
X161100000Y-100203350D01*
X161012863Y-100211932D01*
X160929074Y-100237349D01*
X160851855Y-100278624D01*
X160784171Y-100334171D01*
X160728624Y-100401855D01*
X160687349Y-100479074D01*
X160661932Y-100562863D01*
X160657222Y-100610682D01*
X158112173Y-100610682D01*
X158129646Y-100522841D01*
X158129646Y-100390251D01*
X158110439Y-100293693D01*
X158572178Y-99831955D01*
X158591641Y-99815982D01*
X158655393Y-99738300D01*
X158702765Y-99649674D01*
X158731936Y-99553509D01*
X158739318Y-99478558D01*
X158741786Y-99453500D01*
X158739318Y-99428442D01*
X158739318Y-99197208D01*
X158771376Y-99158145D01*
X158812651Y-99080926D01*
X158838068Y-98997137D01*
X158846650Y-98910000D01*
X158846650Y-97944500D01*
X162500000Y-97944500D01*
X162586718Y-97935959D01*
X162670103Y-97910664D01*
X162746951Y-97869588D01*
X162814309Y-97814309D01*
X162869588Y-97746951D01*
X162910664Y-97670103D01*
X162935959Y-97586718D01*
X162944500Y-97500000D01*
X162944500Y-94519500D01*
X171480500Y-94519500D01*
X171480500Y-102687723D01*
G36*
X144977169Y-94570924D02*
G01*
X144903506Y-94681168D01*
X144852767Y-94803664D01*
X144826900Y-94933705D01*
X144826900Y-95066295D01*
X144852767Y-95196336D01*
X144903506Y-95318832D01*
X144977169Y-95429076D01*
X144982095Y-95434002D01*
X144982094Y-95797863D01*
X144979590Y-95823289D01*
X144982094Y-95848714D01*
X144982094Y-95848721D01*
X144987490Y-95903506D01*
X144989589Y-95924816D01*
X144994658Y-95941527D01*
X145019203Y-96022441D01*
X145067294Y-96112414D01*
X145132014Y-96191275D01*
X145151778Y-96207495D01*
X146186420Y-97242138D01*
X146161932Y-97322863D01*
X146153350Y-97410000D01*
X146153350Y-98910000D01*
X146156531Y-98942299D01*
X146153506Y-98946826D01*
X146102767Y-99069322D01*
X146093990Y-99113445D01*
X145028936Y-100178500D01*
X143971768Y-100178500D01*
X144029894Y-100138117D01*
X142600000Y-98708223D01*
X141170106Y-100138117D01*
X141228232Y-100178500D01*
X139028073Y-100178500D01*
X138999999Y-100175735D01*
X138887966Y-100186769D01*
X138780238Y-100219448D01*
X138680955Y-100272516D01*
X138593933Y-100343933D01*
X138576034Y-100365743D01*
X135886278Y-103055500D01*
X131444500Y-103055500D01*
X131444500Y-97838848D01*
X139897173Y-97838848D01*
X139937177Y-98367318D01*
X140079512Y-98877830D01*
X140126316Y-98990824D01*
X140361883Y-99329894D01*
X141791777Y-97900000D01*
X143408223Y-97900000D01*
X144838117Y-99329894D01*
X145073684Y-98990824D01*
X145238962Y-98487272D01*
X145302827Y-97961152D01*
X145262823Y-97432682D01*
X145120488Y-96922170D01*
X145073684Y-96809176D01*
X144838117Y-96470106D01*
X143408223Y-97900000D01*
X141791777Y-97900000D01*
X140361883Y-96470106D01*
X140126316Y-96809176D01*
X139961038Y-97312728D01*
X139897173Y-97838848D01*
X131444500Y-97838848D01*
X131444500Y-95661883D01*
X141170106Y-95661883D01*
X142600000Y-97091777D01*
X144029894Y-95661883D01*
X143690824Y-95426316D01*
X143187272Y-95261038D01*
X142661152Y-95197173D01*
X142132682Y-95237177D01*
X141622170Y-95379512D01*
X141509176Y-95426316D01*
X141170106Y-95661883D01*
X131444500Y-95661883D01*
X131444500Y-95250000D01*
X131435959Y-95163282D01*
X131410664Y-95079897D01*
X131369588Y-95003049D01*
X131314309Y-94935691D01*
X131246951Y-94880412D01*
X131170103Y-94839336D01*
X131086718Y-94814041D01*
X131000000Y-94805500D01*
X125000000Y-94805500D01*
X124913282Y-94814041D01*
X124829897Y-94839336D01*
X124753049Y-94880412D01*
X124685691Y-94935691D01*
X124630412Y-95003049D01*
X124589336Y-95079897D01*
X124564041Y-95163282D01*
X124555500Y-95250000D01*
X124555500Y-107390174D01*
X124494715Y-107415352D01*
X124389155Y-107485885D01*
X124299385Y-107575655D01*
X124275981Y-107610682D01*
X123621557Y-107610682D01*
X123596499Y-107608214D01*
X123571441Y-107610682D01*
X123496490Y-107618064D01*
X123400325Y-107647235D01*
X123311699Y-107694607D01*
X123234017Y-107758359D01*
X123218045Y-107777821D01*
X122034222Y-108961645D01*
X121950000Y-108953350D01*
X121500000Y-108953350D01*
X121412863Y-108961932D01*
X121329074Y-108987349D01*
X121251855Y-109028624D01*
X121184171Y-109084171D01*
X121128624Y-109151855D01*
X121087349Y-109229074D01*
X121061932Y-109312863D01*
X121057222Y-109360682D01*
X120197137Y-109360682D01*
X120244500Y-109122573D01*
X120244500Y-108877427D01*
X120196675Y-108636993D01*
X120102862Y-108410508D01*
X119966667Y-108206677D01*
X119793323Y-108033333D01*
X119589492Y-107897138D01*
X119363007Y-107803325D01*
X119122573Y-107755500D01*
X118877427Y-107755500D01*
X118636993Y-107803325D01*
X118410508Y-107897138D01*
X118206677Y-108033333D01*
X118033333Y-108206677D01*
X117897138Y-108410508D01*
X117803325Y-108636993D01*
X117755500Y-108877427D01*
X117755500Y-109122573D01*
X117803325Y-109363007D01*
X117897138Y-109589492D01*
X118033333Y-109793323D01*
X118206677Y-109966667D01*
X118256564Y-110000000D01*
X118206677Y-110033333D01*
X118033333Y-110206677D01*
X117897138Y-110410508D01*
X117803325Y-110636993D01*
X117755500Y-110877427D01*
X117755500Y-111122573D01*
X117803325Y-111363007D01*
X117897138Y-111589492D01*
X118033333Y-111793323D01*
X118206677Y-111966667D01*
X118410508Y-112102862D01*
X118636993Y-112196675D01*
X118877427Y-112244500D01*
X119122573Y-112244500D01*
X119363007Y-112196675D01*
X119589492Y-112102862D01*
X119793323Y-111966667D01*
X119966667Y-111793323D01*
X120102862Y-111589492D01*
X120196675Y-111363007D01*
X120244500Y-111122573D01*
X120244500Y-110877427D01*
X120197137Y-110639318D01*
X121057222Y-110639318D01*
X121061932Y-110687137D01*
X121087349Y-110770926D01*
X121128624Y-110848145D01*
X121184171Y-110915829D01*
X121251855Y-110971376D01*
X121329074Y-111012651D01*
X121412863Y-111038068D01*
X121500000Y-111046650D01*
X121950000Y-111046650D01*
X122037137Y-111038068D01*
X122120926Y-111012651D01*
X122198145Y-110971376D01*
X122265829Y-110915829D01*
X122321376Y-110848145D01*
X122362651Y-110770926D01*
X122388068Y-110687137D01*
X122396650Y-110600000D01*
X122396650Y-110407483D01*
X122459500Y-110344634D01*
X122459500Y-110571502D01*
X122650000Y-110571502D01*
X122650000Y-110441422D01*
X122665875Y-110440500D01*
X122713500Y-110392875D01*
X122713500Y-110186500D01*
X123036500Y-110186500D01*
X123036500Y-110392875D01*
X123084125Y-110440500D01*
X123100000Y-110441422D01*
X123137345Y-110437744D01*
X123173254Y-110426851D01*
X123206348Y-110409162D01*
X123235356Y-110385356D01*
X123259162Y-110356348D01*
X123276851Y-110323254D01*
X123287744Y-110287345D01*
X123291422Y-110250000D01*
X123290500Y-110234125D01*
X123242875Y-110186500D01*
X123036500Y-110186500D01*
X122713500Y-110186500D01*
X122650000Y-110186500D01*
X122650000Y-110154133D01*
X123036500Y-109767633D01*
X123036500Y-109813500D01*
X123242875Y-109813500D01*
X123290500Y-109765875D01*
X123291422Y-109750000D01*
X123446502Y-109750000D01*
X123446502Y-109559500D01*
X123244634Y-109559500D01*
X123914816Y-108889318D01*
X124275981Y-108889318D01*
X124299385Y-108924345D01*
X124389155Y-109014115D01*
X124494715Y-109084648D01*
X124555500Y-109109826D01*
X124555500Y-125480500D01*
X107519500Y-125480500D01*
X107519500Y-124338117D01*
X117020106Y-124338117D01*
X117359176Y-124573684D01*
X117862728Y-124738962D01*
X118388848Y-124802827D01*
X118917318Y-124762823D01*
X119427830Y-124620488D01*
X119540824Y-124573684D01*
X119879894Y-124338117D01*
X118450000Y-122908223D01*
X117020106Y-124338117D01*
X107519500Y-124338117D01*
X107519500Y-122038848D01*
X115747173Y-122038848D01*
X115787177Y-122567318D01*
X115929512Y-123077830D01*
X115976316Y-123190824D01*
X116211883Y-123529894D01*
X117641777Y-122100000D01*
X119258223Y-122100000D01*
X120688117Y-123529894D01*
X120923684Y-123190824D01*
X121088962Y-122687272D01*
X121152827Y-122161152D01*
X121112823Y-121632682D01*
X120970488Y-121122170D01*
X120923684Y-121009176D01*
X120688117Y-120670106D01*
X119258223Y-122100000D01*
X117641777Y-122100000D01*
X116211883Y-120670106D01*
X115976316Y-121009176D01*
X115811038Y-121512728D01*
X115747173Y-122038848D01*
X107519500Y-122038848D01*
X107519500Y-119861883D01*
X117020106Y-119861883D01*
X118450000Y-121291777D01*
X119879894Y-119861883D01*
X119540824Y-119626316D01*
X119037272Y-119461038D01*
X118511152Y-119397173D01*
X117982682Y-119437177D01*
X117472170Y-119579512D01*
X117359176Y-119626316D01*
X117020106Y-119861883D01*
X107519500Y-119861883D01*
X107519500Y-118069413D01*
X115598810Y-118069413D01*
X115812098Y-118200069D01*
X116139292Y-118261981D01*
X116472277Y-118258872D01*
X116767902Y-118200069D01*
X116981190Y-118069413D01*
X116290000Y-117378223D01*
X115598810Y-118069413D01*
X107519500Y-118069413D01*
X107519500Y-116419292D01*
X114598019Y-116419292D01*
X114601128Y-116752277D01*
X114659931Y-117047902D01*
X114790587Y-117261190D01*
X115481777Y-116570000D01*
X117098223Y-116570000D01*
X117789413Y-117261190D01*
X117920069Y-117047902D01*
X117981981Y-116720708D01*
X117978872Y-116387723D01*
X117920069Y-116092098D01*
X117789413Y-115878810D01*
X117098223Y-116570000D01*
X115481777Y-116570000D01*
X114790587Y-115878810D01*
X114659931Y-116092098D01*
X114598019Y-116419292D01*
X107519500Y-116419292D01*
X107519500Y-115070587D01*
X115598810Y-115070587D01*
X116290000Y-115761777D01*
X116981190Y-115070587D01*
X116767902Y-114939931D01*
X116440708Y-114878019D01*
X116107723Y-114881128D01*
X115812098Y-114939931D01*
X115598810Y-115070587D01*
X107519500Y-115070587D01*
X107519500Y-114438650D01*
X118869573Y-114438650D01*
X118983391Y-114495154D01*
X119016609Y-114495154D01*
X119130427Y-114438650D01*
X119000000Y-114308223D01*
X118869573Y-114438650D01*
X107519500Y-114438650D01*
X107519500Y-113483391D01*
X118004846Y-113483391D01*
X118004846Y-113516609D01*
X118061350Y-113630427D01*
X118191777Y-113500000D01*
X119808223Y-113500000D01*
X119938650Y-113630427D01*
X119995154Y-113516609D01*
X119995154Y-113483391D01*
X119938650Y-113369573D01*
X119808223Y-113500000D01*
X118191777Y-113500000D01*
X118061350Y-113369573D01*
X118004846Y-113483391D01*
X107519500Y-113483391D01*
X107519500Y-112561350D01*
X118869573Y-112561350D01*
X119000000Y-112691777D01*
X119130427Y-112561350D01*
X119016609Y-112504846D01*
X118983391Y-112504846D01*
X118869573Y-112561350D01*
X107519500Y-112561350D01*
X107519500Y-105700000D01*
X117753350Y-105700000D01*
X117753350Y-107300000D01*
X117761932Y-107387137D01*
X117787349Y-107470926D01*
X117828624Y-107548145D01*
X117884171Y-107615829D01*
X117951855Y-107671376D01*
X118029074Y-107712651D01*
X118112863Y-107738068D01*
X118200000Y-107746650D01*
X119800000Y-107746650D01*
X119887137Y-107738068D01*
X119970926Y-107712651D01*
X120048145Y-107671376D01*
X120115829Y-107615829D01*
X120171376Y-107548145D01*
X120212651Y-107470926D01*
X120238068Y-107387137D01*
X120246650Y-107300000D01*
X120246650Y-105700000D01*
X120238068Y-105612863D01*
X120212651Y-105529074D01*
X120171376Y-105451855D01*
X120115829Y-105384171D01*
X120048145Y-105328624D01*
X119970926Y-105287349D01*
X119887137Y-105261932D01*
X119800000Y-105253350D01*
X118200000Y-105253350D01*
X118112863Y-105261932D01*
X118029074Y-105287349D01*
X117951855Y-105328624D01*
X117884171Y-105384171D01*
X117828624Y-105451855D01*
X117787349Y-105529074D01*
X117761932Y-105612863D01*
X117753350Y-105700000D01*
X107519500Y-105700000D01*
X107519500Y-104929413D01*
X115598810Y-104929413D01*
X115812098Y-105060069D01*
X116139292Y-105121981D01*
X116472277Y-105118872D01*
X116767902Y-105060069D01*
X116981190Y-104929413D01*
X116290000Y-104238223D01*
X115598810Y-104929413D01*
X107519500Y-104929413D01*
X107519500Y-103279292D01*
X114598019Y-103279292D01*
X114601128Y-103612277D01*
X114659931Y-103907902D01*
X114790587Y-104121190D01*
X115481777Y-103430000D01*
X117098223Y-103430000D01*
X117789413Y-104121190D01*
X117920069Y-103907902D01*
X117981981Y-103580708D01*
X117978872Y-103247723D01*
X117920069Y-102952098D01*
X117789413Y-102738810D01*
X117098223Y-103430000D01*
X115481777Y-103430000D01*
X114790587Y-102738810D01*
X114659931Y-102952098D01*
X114598019Y-103279292D01*
X107519500Y-103279292D01*
X107519500Y-101930587D01*
X115598810Y-101930587D01*
X116290000Y-102621777D01*
X116981190Y-101930587D01*
X116767902Y-101799931D01*
X116440708Y-101738019D01*
X116107723Y-101741128D01*
X115812098Y-101799931D01*
X115598810Y-101930587D01*
X107519500Y-101930587D01*
X107519500Y-100138117D01*
X117020106Y-100138117D01*
X117359176Y-100373684D01*
X117862728Y-100538962D01*
X118388848Y-100602827D01*
X118917318Y-100562823D01*
X119427830Y-100420488D01*
X119540824Y-100373684D01*
X119879894Y-100138117D01*
X118450000Y-98708223D01*
X117020106Y-100138117D01*
X107519500Y-100138117D01*
X107519500Y-97838848D01*
X115747173Y-97838848D01*
X115787177Y-98367318D01*
X115929512Y-98877830D01*
X115976316Y-98990824D01*
X116211883Y-99329894D01*
X117641777Y-97900000D01*
X119258223Y-97900000D01*
X120688117Y-99329894D01*
X120923684Y-98990824D01*
X121088962Y-98487272D01*
X121152827Y-97961152D01*
X121128040Y-97633705D01*
X122726900Y-97633705D01*
X122726900Y-97766295D01*
X122752767Y-97896336D01*
X122803506Y-98018832D01*
X122877169Y-98129076D01*
X122970924Y-98222831D01*
X123081168Y-98296494D01*
X123203664Y-98347233D01*
X123333705Y-98373100D01*
X123466295Y-98373100D01*
X123596336Y-98347233D01*
X123718832Y-98296494D01*
X123829076Y-98222831D01*
X123922831Y-98129076D01*
X123996494Y-98018832D01*
X124047233Y-97896336D01*
X124073100Y-97766295D01*
X124073100Y-97633705D01*
X124047233Y-97503664D01*
X123996494Y-97381168D01*
X123922831Y-97270924D01*
X123829076Y-97177169D01*
X123718832Y-97103506D01*
X123596336Y-97052767D01*
X123466295Y-97026900D01*
X123333705Y-97026900D01*
X123203664Y-97052767D01*
X123081168Y-97103506D01*
X122970924Y-97177169D01*
X122877169Y-97270924D01*
X122803506Y-97381168D01*
X122752767Y-97503664D01*
X122726900Y-97633705D01*
X121128040Y-97633705D01*
X121112823Y-97432682D01*
X120970488Y-96922170D01*
X120923684Y-96809176D01*
X120688117Y-96470106D01*
X119258223Y-97900000D01*
X117641777Y-97900000D01*
X116211883Y-96470106D01*
X115976316Y-96809176D01*
X115811038Y-97312728D01*
X115747173Y-97838848D01*
X107519500Y-97838848D01*
X107519500Y-95661883D01*
X117020106Y-95661883D01*
X118450000Y-97091777D01*
X119879894Y-95661883D01*
X119540824Y-95426316D01*
X119037272Y-95261038D01*
X118511152Y-95197173D01*
X117982682Y-95237177D01*
X117472170Y-95379512D01*
X117359176Y-95426316D01*
X117020106Y-95661883D01*
X107519500Y-95661883D01*
X107519500Y-94519500D01*
X145028593Y-94519500D01*
X144977169Y-94570924D01*
G37*
X144977169Y-94570924D02*
X144903506Y-94681168D01*
X144852767Y-94803664D01*
X144826900Y-94933705D01*
X144826900Y-95066295D01*
X144852767Y-95196336D01*
X144903506Y-95318832D01*
X144977169Y-95429076D01*
X144982095Y-95434002D01*
X144982094Y-95797863D01*
X144979590Y-95823289D01*
X144982094Y-95848714D01*
X144982094Y-95848721D01*
X144987490Y-95903506D01*
X144989589Y-95924816D01*
X144994658Y-95941527D01*
X145019203Y-96022441D01*
X145067294Y-96112414D01*
X145132014Y-96191275D01*
X145151778Y-96207495D01*
X146186420Y-97242138D01*
X146161932Y-97322863D01*
X146153350Y-97410000D01*
X146153350Y-98910000D01*
X146156531Y-98942299D01*
X146153506Y-98946826D01*
X146102767Y-99069322D01*
X146093990Y-99113445D01*
X145028936Y-100178500D01*
X143971768Y-100178500D01*
X144029894Y-100138117D01*
X142600000Y-98708223D01*
X141170106Y-100138117D01*
X141228232Y-100178500D01*
X139028073Y-100178500D01*
X138999999Y-100175735D01*
X138887966Y-100186769D01*
X138780238Y-100219448D01*
X138680955Y-100272516D01*
X138593933Y-100343933D01*
X138576034Y-100365743D01*
X135886278Y-103055500D01*
X131444500Y-103055500D01*
X131444500Y-97838848D01*
X139897173Y-97838848D01*
X139937177Y-98367318D01*
X140079512Y-98877830D01*
X140126316Y-98990824D01*
X140361883Y-99329894D01*
X141791777Y-97900000D01*
X143408223Y-97900000D01*
X144838117Y-99329894D01*
X145073684Y-98990824D01*
X145238962Y-98487272D01*
X145302827Y-97961152D01*
X145262823Y-97432682D01*
X145120488Y-96922170D01*
X145073684Y-96809176D01*
X144838117Y-96470106D01*
X143408223Y-97900000D01*
X141791777Y-97900000D01*
X140361883Y-96470106D01*
X140126316Y-96809176D01*
X139961038Y-97312728D01*
X139897173Y-97838848D01*
X131444500Y-97838848D01*
X131444500Y-95661883D01*
X141170106Y-95661883D01*
X142600000Y-97091777D01*
X144029894Y-95661883D01*
X143690824Y-95426316D01*
X143187272Y-95261038D01*
X142661152Y-95197173D01*
X142132682Y-95237177D01*
X141622170Y-95379512D01*
X141509176Y-95426316D01*
X141170106Y-95661883D01*
X131444500Y-95661883D01*
X131444500Y-95250000D01*
X131435959Y-95163282D01*
X131410664Y-95079897D01*
X131369588Y-95003049D01*
X131314309Y-94935691D01*
X131246951Y-94880412D01*
X131170103Y-94839336D01*
X131086718Y-94814041D01*
X131000000Y-94805500D01*
X125000000Y-94805500D01*
X124913282Y-94814041D01*
X124829897Y-94839336D01*
X124753049Y-94880412D01*
X124685691Y-94935691D01*
X124630412Y-95003049D01*
X124589336Y-95079897D01*
X124564041Y-95163282D01*
X124555500Y-95250000D01*
X124555500Y-107390174D01*
X124494715Y-107415352D01*
X124389155Y-107485885D01*
X124299385Y-107575655D01*
X124275981Y-107610682D01*
X123621557Y-107610682D01*
X123596499Y-107608214D01*
X123571441Y-107610682D01*
X123496490Y-107618064D01*
X123400325Y-107647235D01*
X123311699Y-107694607D01*
X123234017Y-107758359D01*
X123218045Y-107777821D01*
X122034222Y-108961645D01*
X121950000Y-108953350D01*
X121500000Y-108953350D01*
X121412863Y-108961932D01*
X121329074Y-108987349D01*
X121251855Y-109028624D01*
X121184171Y-109084171D01*
X121128624Y-109151855D01*
X121087349Y-109229074D01*
X121061932Y-109312863D01*
X121057222Y-109360682D01*
X120197137Y-109360682D01*
X120244500Y-109122573D01*
X120244500Y-108877427D01*
X120196675Y-108636993D01*
X120102862Y-108410508D01*
X119966667Y-108206677D01*
X119793323Y-108033333D01*
X119589492Y-107897138D01*
X119363007Y-107803325D01*
X119122573Y-107755500D01*
X118877427Y-107755500D01*
X118636993Y-107803325D01*
X118410508Y-107897138D01*
X118206677Y-108033333D01*
X118033333Y-108206677D01*
X117897138Y-108410508D01*
X117803325Y-108636993D01*
X117755500Y-108877427D01*
X117755500Y-109122573D01*
X117803325Y-109363007D01*
X117897138Y-109589492D01*
X118033333Y-109793323D01*
X118206677Y-109966667D01*
X118256564Y-110000000D01*
X118206677Y-110033333D01*
X118033333Y-110206677D01*
X117897138Y-110410508D01*
X117803325Y-110636993D01*
X117755500Y-110877427D01*
X117755500Y-111122573D01*
X117803325Y-111363007D01*
X117897138Y-111589492D01*
X118033333Y-111793323D01*
X118206677Y-111966667D01*
X118410508Y-112102862D01*
X118636993Y-112196675D01*
X118877427Y-112244500D01*
X119122573Y-112244500D01*
X119363007Y-112196675D01*
X119589492Y-112102862D01*
X119793323Y-111966667D01*
X119966667Y-111793323D01*
X120102862Y-111589492D01*
X120196675Y-111363007D01*
X120244500Y-111122573D01*
X120244500Y-110877427D01*
X120197137Y-110639318D01*
X121057222Y-110639318D01*
X121061932Y-110687137D01*
X121087349Y-110770926D01*
X121128624Y-110848145D01*
X121184171Y-110915829D01*
X121251855Y-110971376D01*
X121329074Y-111012651D01*
X121412863Y-111038068D01*
X121500000Y-111046650D01*
X121950000Y-111046650D01*
X122037137Y-111038068D01*
X122120926Y-111012651D01*
X122198145Y-110971376D01*
X122265829Y-110915829D01*
X122321376Y-110848145D01*
X122362651Y-110770926D01*
X122388068Y-110687137D01*
X122396650Y-110600000D01*
X122396650Y-110407483D01*
X122459500Y-110344634D01*
X122459500Y-110571502D01*
X122650000Y-110571502D01*
X122650000Y-110441422D01*
X122665875Y-110440500D01*
X122713500Y-110392875D01*
X122713500Y-110186500D01*
X123036500Y-110186500D01*
X123036500Y-110392875D01*
X123084125Y-110440500D01*
X123100000Y-110441422D01*
X123137345Y-110437744D01*
X123173254Y-110426851D01*
X123206348Y-110409162D01*
X123235356Y-110385356D01*
X123259162Y-110356348D01*
X123276851Y-110323254D01*
X123287744Y-110287345D01*
X123291422Y-110250000D01*
X123290500Y-110234125D01*
X123242875Y-110186500D01*
X123036500Y-110186500D01*
X122713500Y-110186500D01*
X122650000Y-110186500D01*
X122650000Y-110154133D01*
X123036500Y-109767633D01*
X123036500Y-109813500D01*
X123242875Y-109813500D01*
X123290500Y-109765875D01*
X123291422Y-109750000D01*
X123446502Y-109750000D01*
X123446502Y-109559500D01*
X123244634Y-109559500D01*
X123914816Y-108889318D01*
X124275981Y-108889318D01*
X124299385Y-108924345D01*
X124389155Y-109014115D01*
X124494715Y-109084648D01*
X124555500Y-109109826D01*
X124555500Y-125480500D01*
X107519500Y-125480500D01*
X107519500Y-124338117D01*
X117020106Y-124338117D01*
X117359176Y-124573684D01*
X117862728Y-124738962D01*
X118388848Y-124802827D01*
X118917318Y-124762823D01*
X119427830Y-124620488D01*
X119540824Y-124573684D01*
X119879894Y-124338117D01*
X118450000Y-122908223D01*
X117020106Y-124338117D01*
X107519500Y-124338117D01*
X107519500Y-122038848D01*
X115747173Y-122038848D01*
X115787177Y-122567318D01*
X115929512Y-123077830D01*
X115976316Y-123190824D01*
X116211883Y-123529894D01*
X117641777Y-122100000D01*
X119258223Y-122100000D01*
X120688117Y-123529894D01*
X120923684Y-123190824D01*
X121088962Y-122687272D01*
X121152827Y-122161152D01*
X121112823Y-121632682D01*
X120970488Y-121122170D01*
X120923684Y-121009176D01*
X120688117Y-120670106D01*
X119258223Y-122100000D01*
X117641777Y-122100000D01*
X116211883Y-120670106D01*
X115976316Y-121009176D01*
X115811038Y-121512728D01*
X115747173Y-122038848D01*
X107519500Y-122038848D01*
X107519500Y-119861883D01*
X117020106Y-119861883D01*
X118450000Y-121291777D01*
X119879894Y-119861883D01*
X119540824Y-119626316D01*
X119037272Y-119461038D01*
X118511152Y-119397173D01*
X117982682Y-119437177D01*
X117472170Y-119579512D01*
X117359176Y-119626316D01*
X117020106Y-119861883D01*
X107519500Y-119861883D01*
X107519500Y-118069413D01*
X115598810Y-118069413D01*
X115812098Y-118200069D01*
X116139292Y-118261981D01*
X116472277Y-118258872D01*
X116767902Y-118200069D01*
X116981190Y-118069413D01*
X116290000Y-117378223D01*
X115598810Y-118069413D01*
X107519500Y-118069413D01*
X107519500Y-116419292D01*
X114598019Y-116419292D01*
X114601128Y-116752277D01*
X114659931Y-117047902D01*
X114790587Y-117261190D01*
X115481777Y-116570000D01*
X117098223Y-116570000D01*
X117789413Y-117261190D01*
X117920069Y-117047902D01*
X117981981Y-116720708D01*
X117978872Y-116387723D01*
X117920069Y-116092098D01*
X117789413Y-115878810D01*
X117098223Y-116570000D01*
X115481777Y-116570000D01*
X114790587Y-115878810D01*
X114659931Y-116092098D01*
X114598019Y-116419292D01*
X107519500Y-116419292D01*
X107519500Y-115070587D01*
X115598810Y-115070587D01*
X116290000Y-115761777D01*
X116981190Y-115070587D01*
X116767902Y-114939931D01*
X116440708Y-114878019D01*
X116107723Y-114881128D01*
X115812098Y-114939931D01*
X115598810Y-115070587D01*
X107519500Y-115070587D01*
X107519500Y-114438650D01*
X118869573Y-114438650D01*
X118983391Y-114495154D01*
X119016609Y-114495154D01*
X119130427Y-114438650D01*
X119000000Y-114308223D01*
X118869573Y-114438650D01*
X107519500Y-114438650D01*
X107519500Y-113483391D01*
X118004846Y-113483391D01*
X118004846Y-113516609D01*
X118061350Y-113630427D01*
X118191777Y-113500000D01*
X119808223Y-113500000D01*
X119938650Y-113630427D01*
X119995154Y-113516609D01*
X119995154Y-113483391D01*
X119938650Y-113369573D01*
X119808223Y-113500000D01*
X118191777Y-113500000D01*
X118061350Y-113369573D01*
X118004846Y-113483391D01*
X107519500Y-113483391D01*
X107519500Y-112561350D01*
X118869573Y-112561350D01*
X119000000Y-112691777D01*
X119130427Y-112561350D01*
X119016609Y-112504846D01*
X118983391Y-112504846D01*
X118869573Y-112561350D01*
X107519500Y-112561350D01*
X107519500Y-105700000D01*
X117753350Y-105700000D01*
X117753350Y-107300000D01*
X117761932Y-107387137D01*
X117787349Y-107470926D01*
X117828624Y-107548145D01*
X117884171Y-107615829D01*
X117951855Y-107671376D01*
X118029074Y-107712651D01*
X118112863Y-107738068D01*
X118200000Y-107746650D01*
X119800000Y-107746650D01*
X119887137Y-107738068D01*
X119970926Y-107712651D01*
X120048145Y-107671376D01*
X120115829Y-107615829D01*
X120171376Y-107548145D01*
X120212651Y-107470926D01*
X120238068Y-107387137D01*
X120246650Y-107300000D01*
X120246650Y-105700000D01*
X120238068Y-105612863D01*
X120212651Y-105529074D01*
X120171376Y-105451855D01*
X120115829Y-105384171D01*
X120048145Y-105328624D01*
X119970926Y-105287349D01*
X119887137Y-105261932D01*
X119800000Y-105253350D01*
X118200000Y-105253350D01*
X118112863Y-105261932D01*
X118029074Y-105287349D01*
X117951855Y-105328624D01*
X117884171Y-105384171D01*
X117828624Y-105451855D01*
X117787349Y-105529074D01*
X117761932Y-105612863D01*
X117753350Y-105700000D01*
X107519500Y-105700000D01*
X107519500Y-104929413D01*
X115598810Y-104929413D01*
X115812098Y-105060069D01*
X116139292Y-105121981D01*
X116472277Y-105118872D01*
X116767902Y-105060069D01*
X116981190Y-104929413D01*
X116290000Y-104238223D01*
X115598810Y-104929413D01*
X107519500Y-104929413D01*
X107519500Y-103279292D01*
X114598019Y-103279292D01*
X114601128Y-103612277D01*
X114659931Y-103907902D01*
X114790587Y-104121190D01*
X115481777Y-103430000D01*
X117098223Y-103430000D01*
X117789413Y-104121190D01*
X117920069Y-103907902D01*
X117981981Y-103580708D01*
X117978872Y-103247723D01*
X117920069Y-102952098D01*
X117789413Y-102738810D01*
X117098223Y-103430000D01*
X115481777Y-103430000D01*
X114790587Y-102738810D01*
X114659931Y-102952098D01*
X114598019Y-103279292D01*
X107519500Y-103279292D01*
X107519500Y-101930587D01*
X115598810Y-101930587D01*
X116290000Y-102621777D01*
X116981190Y-101930587D01*
X116767902Y-101799931D01*
X116440708Y-101738019D01*
X116107723Y-101741128D01*
X115812098Y-101799931D01*
X115598810Y-101930587D01*
X107519500Y-101930587D01*
X107519500Y-100138117D01*
X117020106Y-100138117D01*
X117359176Y-100373684D01*
X117862728Y-100538962D01*
X118388848Y-100602827D01*
X118917318Y-100562823D01*
X119427830Y-100420488D01*
X119540824Y-100373684D01*
X119879894Y-100138117D01*
X118450000Y-98708223D01*
X117020106Y-100138117D01*
X107519500Y-100138117D01*
X107519500Y-97838848D01*
X115747173Y-97838848D01*
X115787177Y-98367318D01*
X115929512Y-98877830D01*
X115976316Y-98990824D01*
X116211883Y-99329894D01*
X117641777Y-97900000D01*
X119258223Y-97900000D01*
X120688117Y-99329894D01*
X120923684Y-98990824D01*
X121088962Y-98487272D01*
X121152827Y-97961152D01*
X121128040Y-97633705D01*
X122726900Y-97633705D01*
X122726900Y-97766295D01*
X122752767Y-97896336D01*
X122803506Y-98018832D01*
X122877169Y-98129076D01*
X122970924Y-98222831D01*
X123081168Y-98296494D01*
X123203664Y-98347233D01*
X123333705Y-98373100D01*
X123466295Y-98373100D01*
X123596336Y-98347233D01*
X123718832Y-98296494D01*
X123829076Y-98222831D01*
X123922831Y-98129076D01*
X123996494Y-98018832D01*
X124047233Y-97896336D01*
X124073100Y-97766295D01*
X124073100Y-97633705D01*
X124047233Y-97503664D01*
X123996494Y-97381168D01*
X123922831Y-97270924D01*
X123829076Y-97177169D01*
X123718832Y-97103506D01*
X123596336Y-97052767D01*
X123466295Y-97026900D01*
X123333705Y-97026900D01*
X123203664Y-97052767D01*
X123081168Y-97103506D01*
X122970924Y-97177169D01*
X122877169Y-97270924D01*
X122803506Y-97381168D01*
X122752767Y-97503664D01*
X122726900Y-97633705D01*
X121128040Y-97633705D01*
X121112823Y-97432682D01*
X120970488Y-96922170D01*
X120923684Y-96809176D01*
X120688117Y-96470106D01*
X119258223Y-97900000D01*
X117641777Y-97900000D01*
X116211883Y-96470106D01*
X115976316Y-96809176D01*
X115811038Y-97312728D01*
X115747173Y-97838848D01*
X107519500Y-97838848D01*
X107519500Y-95661883D01*
X117020106Y-95661883D01*
X118450000Y-97091777D01*
X119879894Y-95661883D01*
X119540824Y-95426316D01*
X119037272Y-95261038D01*
X118511152Y-95197173D01*
X117982682Y-95237177D01*
X117472170Y-95379512D01*
X117359176Y-95426316D01*
X117020106Y-95661883D01*
X107519500Y-95661883D01*
X107519500Y-94519500D01*
X145028593Y-94519500D01*
X144977169Y-94570924D01*
G36*
X154751855Y-99281376D02*
G01*
X154829074Y-99322651D01*
X154912863Y-99348068D01*
X155000000Y-99356650D01*
X155200000Y-99356650D01*
X155287137Y-99348068D01*
X155300000Y-99344166D01*
X155312863Y-99348068D01*
X155400000Y-99356650D01*
X155600000Y-99356650D01*
X155687137Y-99348068D01*
X155700000Y-99344166D01*
X155712863Y-99348068D01*
X155800000Y-99356650D01*
X156000000Y-99356650D01*
X156087137Y-99348068D01*
X156100000Y-99344166D01*
X156112863Y-99348068D01*
X156200000Y-99356650D01*
X156345672Y-99356650D01*
X155720229Y-99982094D01*
X153934001Y-99982094D01*
X153929076Y-99977169D01*
X153818832Y-99903506D01*
X153696336Y-99852767D01*
X153566295Y-99826900D01*
X153433705Y-99826900D01*
X153303664Y-99852767D01*
X153181168Y-99903506D01*
X153070924Y-99977169D01*
X152977169Y-100070924D01*
X152903506Y-100181168D01*
X152852767Y-100303664D01*
X152826900Y-100433705D01*
X152826900Y-100566295D01*
X152835729Y-100610682D01*
X146213198Y-100610682D01*
X146902213Y-99921668D01*
X146946336Y-99912891D01*
X147068832Y-99862152D01*
X147179076Y-99788489D01*
X147272831Y-99694734D01*
X147346494Y-99584490D01*
X147397233Y-99461994D01*
X147418187Y-99356650D01*
X147600000Y-99356650D01*
X147687137Y-99348068D01*
X147700000Y-99344166D01*
X147712863Y-99348068D01*
X147800000Y-99356650D01*
X148000000Y-99356650D01*
X148087137Y-99348068D01*
X148100000Y-99344166D01*
X148112863Y-99348068D01*
X148200000Y-99356650D01*
X148400000Y-99356650D01*
X148487137Y-99348068D01*
X148500000Y-99344166D01*
X148512863Y-99348068D01*
X148600000Y-99356650D01*
X148800000Y-99356650D01*
X148887137Y-99348068D01*
X148900000Y-99344166D01*
X148912863Y-99348068D01*
X149000000Y-99356650D01*
X149200000Y-99356650D01*
X149287137Y-99348068D01*
X149300000Y-99344166D01*
X149312863Y-99348068D01*
X149400000Y-99356650D01*
X149600000Y-99356650D01*
X149687137Y-99348068D01*
X149700000Y-99344166D01*
X149712863Y-99348068D01*
X149800000Y-99356650D01*
X150000000Y-99356650D01*
X150087137Y-99348068D01*
X150100000Y-99344166D01*
X150112863Y-99348068D01*
X150200000Y-99356650D01*
X150400000Y-99356650D01*
X150487137Y-99348068D01*
X150500000Y-99344166D01*
X150512863Y-99348068D01*
X150600000Y-99356650D01*
X150800000Y-99356650D01*
X150887137Y-99348068D01*
X150900000Y-99344166D01*
X150912863Y-99348068D01*
X151000000Y-99356650D01*
X151200000Y-99356650D01*
X151287137Y-99348068D01*
X151300000Y-99344166D01*
X151312863Y-99348068D01*
X151400000Y-99356650D01*
X151600000Y-99356650D01*
X151687137Y-99348068D01*
X151700000Y-99344166D01*
X151712863Y-99348068D01*
X151800000Y-99356650D01*
X152000000Y-99356650D01*
X152087137Y-99348068D01*
X152100000Y-99344166D01*
X152112863Y-99348068D01*
X152200000Y-99356650D01*
X152400000Y-99356650D01*
X152487137Y-99348068D01*
X152500000Y-99344166D01*
X152512863Y-99348068D01*
X152600000Y-99356650D01*
X152800000Y-99356650D01*
X152887137Y-99348068D01*
X152900000Y-99344166D01*
X152912863Y-99348068D01*
X153000000Y-99356650D01*
X153200000Y-99356650D01*
X153287137Y-99348068D01*
X153300000Y-99344166D01*
X153312863Y-99348068D01*
X153400000Y-99356650D01*
X153600000Y-99356650D01*
X153687137Y-99348068D01*
X153700000Y-99344166D01*
X153712863Y-99348068D01*
X153800000Y-99356650D01*
X154000000Y-99356650D01*
X154087137Y-99348068D01*
X154100000Y-99344166D01*
X154112863Y-99348068D01*
X154200000Y-99356650D01*
X154400000Y-99356650D01*
X154487137Y-99348068D01*
X154570926Y-99322651D01*
X154648145Y-99281376D01*
X154700000Y-99238820D01*
X154751855Y-99281376D01*
G37*
X154751855Y-99281376D02*
X154829074Y-99322651D01*
X154912863Y-99348068D01*
X155000000Y-99356650D01*
X155200000Y-99356650D01*
X155287137Y-99348068D01*
X155300000Y-99344166D01*
X155312863Y-99348068D01*
X155400000Y-99356650D01*
X155600000Y-99356650D01*
X155687137Y-99348068D01*
X155700000Y-99344166D01*
X155712863Y-99348068D01*
X155800000Y-99356650D01*
X156000000Y-99356650D01*
X156087137Y-99348068D01*
X156100000Y-99344166D01*
X156112863Y-99348068D01*
X156200000Y-99356650D01*
X156345672Y-99356650D01*
X155720229Y-99982094D01*
X153934001Y-99982094D01*
X153929076Y-99977169D01*
X153818832Y-99903506D01*
X153696336Y-99852767D01*
X153566295Y-99826900D01*
X153433705Y-99826900D01*
X153303664Y-99852767D01*
X153181168Y-99903506D01*
X153070924Y-99977169D01*
X152977169Y-100070924D01*
X152903506Y-100181168D01*
X152852767Y-100303664D01*
X152826900Y-100433705D01*
X152826900Y-100566295D01*
X152835729Y-100610682D01*
X146213198Y-100610682D01*
X146902213Y-99921668D01*
X146946336Y-99912891D01*
X147068832Y-99862152D01*
X147179076Y-99788489D01*
X147272831Y-99694734D01*
X147346494Y-99584490D01*
X147397233Y-99461994D01*
X147418187Y-99356650D01*
X147600000Y-99356650D01*
X147687137Y-99348068D01*
X147700000Y-99344166D01*
X147712863Y-99348068D01*
X147800000Y-99356650D01*
X148000000Y-99356650D01*
X148087137Y-99348068D01*
X148100000Y-99344166D01*
X148112863Y-99348068D01*
X148200000Y-99356650D01*
X148400000Y-99356650D01*
X148487137Y-99348068D01*
X148500000Y-99344166D01*
X148512863Y-99348068D01*
X148600000Y-99356650D01*
X148800000Y-99356650D01*
X148887137Y-99348068D01*
X148900000Y-99344166D01*
X148912863Y-99348068D01*
X149000000Y-99356650D01*
X149200000Y-99356650D01*
X149287137Y-99348068D01*
X149300000Y-99344166D01*
X149312863Y-99348068D01*
X149400000Y-99356650D01*
X149600000Y-99356650D01*
X149687137Y-99348068D01*
X149700000Y-99344166D01*
X149712863Y-99348068D01*
X149800000Y-99356650D01*
X150000000Y-99356650D01*
X150087137Y-99348068D01*
X150100000Y-99344166D01*
X150112863Y-99348068D01*
X150200000Y-99356650D01*
X150400000Y-99356650D01*
X150487137Y-99348068D01*
X150500000Y-99344166D01*
X150512863Y-99348068D01*
X150600000Y-99356650D01*
X150800000Y-99356650D01*
X150887137Y-99348068D01*
X150900000Y-99344166D01*
X150912863Y-99348068D01*
X151000000Y-99356650D01*
X151200000Y-99356650D01*
X151287137Y-99348068D01*
X151300000Y-99344166D01*
X151312863Y-99348068D01*
X151400000Y-99356650D01*
X151600000Y-99356650D01*
X151687137Y-99348068D01*
X151700000Y-99344166D01*
X151712863Y-99348068D01*
X151800000Y-99356650D01*
X152000000Y-99356650D01*
X152087137Y-99348068D01*
X152100000Y-99344166D01*
X152112863Y-99348068D01*
X152200000Y-99356650D01*
X152400000Y-99356650D01*
X152487137Y-99348068D01*
X152500000Y-99344166D01*
X152512863Y-99348068D01*
X152600000Y-99356650D01*
X152800000Y-99356650D01*
X152887137Y-99348068D01*
X152900000Y-99344166D01*
X152912863Y-99348068D01*
X153000000Y-99356650D01*
X153200000Y-99356650D01*
X153287137Y-99348068D01*
X153300000Y-99344166D01*
X153312863Y-99348068D01*
X153400000Y-99356650D01*
X153600000Y-99356650D01*
X153687137Y-99348068D01*
X153700000Y-99344166D01*
X153712863Y-99348068D01*
X153800000Y-99356650D01*
X154000000Y-99356650D01*
X154087137Y-99348068D01*
X154100000Y-99344166D01*
X154112863Y-99348068D01*
X154200000Y-99356650D01*
X154400000Y-99356650D01*
X154487137Y-99348068D01*
X154570926Y-99322651D01*
X154648145Y-99281376D01*
X154700000Y-99238820D01*
X154751855Y-99281376D01*
G36*
X153536500Y-95268500D02*
G01*
X153863500Y-95268500D01*
X153863500Y-95248500D01*
X153936500Y-95248500D01*
X153936500Y-95268500D01*
X154000000Y-95268500D01*
X154000000Y-96411500D01*
X153936500Y-96411500D01*
X153936500Y-96431500D01*
X153863500Y-96431500D01*
X153863500Y-96411500D01*
X153536500Y-96411500D01*
X153536500Y-96431500D01*
X153463500Y-96431500D01*
X153463500Y-96411500D01*
X153400000Y-96411500D01*
X153400000Y-95268500D01*
X153463500Y-95268500D01*
X153463500Y-95248500D01*
X153536500Y-95248500D01*
X153536500Y-95268500D01*
G37*
X153536500Y-95268500D02*
X153863500Y-95268500D01*
X153863500Y-95248500D01*
X153936500Y-95248500D01*
X153936500Y-95268500D01*
X154000000Y-95268500D01*
X154000000Y-96411500D01*
X153936500Y-96411500D01*
X153936500Y-96431500D01*
X153863500Y-96431500D01*
X153863500Y-96411500D01*
X153536500Y-96411500D01*
X153536500Y-96431500D01*
X153463500Y-96431500D01*
X153463500Y-96411500D01*
X153400000Y-96411500D01*
X153400000Y-95268500D01*
X153463500Y-95268500D01*
X153463500Y-95248500D01*
X153536500Y-95248500D01*
X153536500Y-95268500D01*
G36*
X146153350Y-95744211D02*
G01*
X146017906Y-95608767D01*
X146017906Y-95434001D01*
X146022831Y-95429076D01*
X146096494Y-95318832D01*
X146147233Y-95196336D01*
X146153350Y-95165584D01*
X146153350Y-95744211D01*
G37*
X146153350Y-95744211D02*
X146017906Y-95608767D01*
X146017906Y-95434001D01*
X146022831Y-95429076D01*
X146096494Y-95318832D01*
X146147233Y-95196336D01*
X146153350Y-95165584D01*
X146153350Y-95744211D01*
G36*
X154055500Y-94899500D02*
G01*
X154009362Y-94899500D01*
X154000000Y-94898578D01*
X153984125Y-94899500D01*
X153815875Y-94899500D01*
X153800000Y-94898578D01*
X153790638Y-94899500D01*
X153728498Y-94899500D01*
X153728498Y-94912618D01*
X153726746Y-94913149D01*
X153700000Y-94927445D01*
X153673254Y-94913149D01*
X153671502Y-94912618D01*
X153671502Y-94899500D01*
X153609362Y-94899500D01*
X153600000Y-94898578D01*
X153584125Y-94899500D01*
X153415875Y-94899500D01*
X153400000Y-94898578D01*
X153390638Y-94899500D01*
X153209364Y-94899500D01*
X153201790Y-94898754D01*
X153197421Y-94890581D01*
X153180797Y-94835778D01*
X153132706Y-94745806D01*
X153067986Y-94666945D01*
X153048232Y-94650734D01*
X152916998Y-94519500D01*
X154055500Y-94519500D01*
X154055500Y-94899500D01*
G37*
X154055500Y-94899500D02*
X154009362Y-94899500D01*
X154000000Y-94898578D01*
X153984125Y-94899500D01*
X153815875Y-94899500D01*
X153800000Y-94898578D01*
X153790638Y-94899500D01*
X153728498Y-94899500D01*
X153728498Y-94912618D01*
X153726746Y-94913149D01*
X153700000Y-94927445D01*
X153673254Y-94913149D01*
X153671502Y-94912618D01*
X153671502Y-94899500D01*
X153609362Y-94899500D01*
X153600000Y-94898578D01*
X153584125Y-94899500D01*
X153415875Y-94899500D01*
X153400000Y-94898578D01*
X153390638Y-94899500D01*
X153209364Y-94899500D01*
X153201790Y-94898754D01*
X153197421Y-94890581D01*
X153180797Y-94835778D01*
X153132706Y-94745806D01*
X153067986Y-94666945D01*
X153048232Y-94650734D01*
X152916998Y-94519500D01*
X154055500Y-94519500D01*
X154055500Y-94899500D01*
G36*
X162436500Y-97436500D02*
G01*
X158719036Y-97436500D01*
X158719036Y-97410000D01*
X158712906Y-97347759D01*
X158694751Y-97287910D01*
X158665269Y-97232753D01*
X158625593Y-97184407D01*
X158577247Y-97144731D01*
X158522090Y-97115249D01*
X158462241Y-97097094D01*
X158400000Y-97090964D01*
X158200000Y-97090964D01*
X158137759Y-97097094D01*
X158100000Y-97108548D01*
X158062241Y-97097094D01*
X158000000Y-97090964D01*
X157800000Y-97090964D01*
X157737759Y-97097094D01*
X157700000Y-97108548D01*
X157662241Y-97097094D01*
X157600000Y-97090964D01*
X157400000Y-97090964D01*
X157337759Y-97097094D01*
X157277910Y-97115249D01*
X157222753Y-97144731D01*
X157174407Y-97184407D01*
X157134731Y-97232753D01*
X157105249Y-97287910D01*
X157100000Y-97305214D01*
X157094751Y-97287910D01*
X157065269Y-97232753D01*
X157025593Y-97184407D01*
X156977247Y-97144731D01*
X156922090Y-97115249D01*
X156862241Y-97097094D01*
X156800000Y-97090964D01*
X156600000Y-97090964D01*
X156537759Y-97097094D01*
X156500000Y-97108548D01*
X156462241Y-97097094D01*
X156400000Y-97090964D01*
X156200000Y-97090964D01*
X156137759Y-97097094D01*
X156100000Y-97108548D01*
X156062241Y-97097094D01*
X156000000Y-97090964D01*
X155800000Y-97090964D01*
X155737759Y-97097094D01*
X155700000Y-97108548D01*
X155662241Y-97097094D01*
X155600000Y-97090964D01*
X155400000Y-97090964D01*
X155337759Y-97097094D01*
X155300000Y-97108548D01*
X155262241Y-97097094D01*
X155200000Y-97090964D01*
X155000000Y-97090964D01*
X154937759Y-97097094D01*
X154900000Y-97108548D01*
X154862241Y-97097094D01*
X154800000Y-97090964D01*
X154600000Y-97090964D01*
X154563500Y-97094559D01*
X154563500Y-96862617D01*
X154577247Y-96855269D01*
X154625593Y-96815593D01*
X154665269Y-96767247D01*
X154694751Y-96712090D01*
X154712906Y-96652241D01*
X154719036Y-96590000D01*
X154719036Y-95989877D01*
X154738068Y-95927137D01*
X154744500Y-95861830D01*
X154744500Y-95090000D01*
X155880964Y-95090000D01*
X155880964Y-96590000D01*
X155887094Y-96652241D01*
X155905249Y-96712090D01*
X155934731Y-96767247D01*
X155974407Y-96815593D01*
X156022753Y-96855269D01*
X156077910Y-96884751D01*
X156137759Y-96902906D01*
X156200000Y-96909036D01*
X156400000Y-96909036D01*
X156462241Y-96902906D01*
X156500000Y-96891452D01*
X156537759Y-96902906D01*
X156600000Y-96909036D01*
X156800000Y-96909036D01*
X156862241Y-96902906D01*
X156900000Y-96891452D01*
X156937759Y-96902906D01*
X157000000Y-96909036D01*
X157200000Y-96909036D01*
X157262241Y-96902906D01*
X157300000Y-96891452D01*
X157337759Y-96902906D01*
X157400000Y-96909036D01*
X157600000Y-96909036D01*
X157662241Y-96902906D01*
X157700000Y-96891452D01*
X157737759Y-96902906D01*
X157800000Y-96909036D01*
X158000000Y-96909036D01*
X158062241Y-96902906D01*
X158100000Y-96891452D01*
X158137759Y-96902906D01*
X158200000Y-96909036D01*
X158400000Y-96909036D01*
X158462241Y-96902906D01*
X158522090Y-96884751D01*
X158577247Y-96855269D01*
X158625593Y-96815593D01*
X158665269Y-96767247D01*
X158694751Y-96712090D01*
X158712906Y-96652241D01*
X158719036Y-96590000D01*
X158719036Y-95090000D01*
X158712906Y-95027759D01*
X158694751Y-94967910D01*
X158665269Y-94912753D01*
X158625593Y-94864407D01*
X158577247Y-94824731D01*
X158522090Y-94795249D01*
X158462241Y-94777094D01*
X158400000Y-94770964D01*
X158200000Y-94770964D01*
X158137759Y-94777094D01*
X158100000Y-94788548D01*
X158062241Y-94777094D01*
X158000000Y-94770964D01*
X157800000Y-94770964D01*
X157737759Y-94777094D01*
X157700000Y-94788548D01*
X157662241Y-94777094D01*
X157600000Y-94770964D01*
X157400000Y-94770964D01*
X157337759Y-94777094D01*
X157300000Y-94788548D01*
X157262241Y-94777094D01*
X157200000Y-94770964D01*
X157000000Y-94770964D01*
X156937759Y-94777094D01*
X156900000Y-94788548D01*
X156862241Y-94777094D01*
X156800000Y-94770964D01*
X156600000Y-94770964D01*
X156537759Y-94777094D01*
X156500000Y-94788548D01*
X156462241Y-94777094D01*
X156400000Y-94770964D01*
X156200000Y-94770964D01*
X156137759Y-94777094D01*
X156077910Y-94795249D01*
X156022753Y-94824731D01*
X155974407Y-94864407D01*
X155934731Y-94912753D01*
X155905249Y-94967910D01*
X155887094Y-95027759D01*
X155880964Y-95090000D01*
X154744500Y-95090000D01*
X154744500Y-95026600D01*
X154748118Y-95024183D01*
X154824183Y-94948118D01*
X154883947Y-94858675D01*
X154925113Y-94759291D01*
X154946100Y-94653786D01*
X154946100Y-94546214D01*
X154925113Y-94440709D01*
X154905144Y-94392500D01*
X162436500Y-94392500D01*
X162436500Y-97436500D01*
G37*
X162436500Y-97436500D02*
X158719036Y-97436500D01*
X158719036Y-97410000D01*
X158712906Y-97347759D01*
X158694751Y-97287910D01*
X158665269Y-97232753D01*
X158625593Y-97184407D01*
X158577247Y-97144731D01*
X158522090Y-97115249D01*
X158462241Y-97097094D01*
X158400000Y-97090964D01*
X158200000Y-97090964D01*
X158137759Y-97097094D01*
X158100000Y-97108548D01*
X158062241Y-97097094D01*
X158000000Y-97090964D01*
X157800000Y-97090964D01*
X157737759Y-97097094D01*
X157700000Y-97108548D01*
X157662241Y-97097094D01*
X157600000Y-97090964D01*
X157400000Y-97090964D01*
X157337759Y-97097094D01*
X157277910Y-97115249D01*
X157222753Y-97144731D01*
X157174407Y-97184407D01*
X157134731Y-97232753D01*
X157105249Y-97287910D01*
X157100000Y-97305214D01*
X157094751Y-97287910D01*
X157065269Y-97232753D01*
X157025593Y-97184407D01*
X156977247Y-97144731D01*
X156922090Y-97115249D01*
X156862241Y-97097094D01*
X156800000Y-97090964D01*
X156600000Y-97090964D01*
X156537759Y-97097094D01*
X156500000Y-97108548D01*
X156462241Y-97097094D01*
X156400000Y-97090964D01*
X156200000Y-97090964D01*
X156137759Y-97097094D01*
X156100000Y-97108548D01*
X156062241Y-97097094D01*
X156000000Y-97090964D01*
X155800000Y-97090964D01*
X155737759Y-97097094D01*
X155700000Y-97108548D01*
X155662241Y-97097094D01*
X155600000Y-97090964D01*
X155400000Y-97090964D01*
X155337759Y-97097094D01*
X155300000Y-97108548D01*
X155262241Y-97097094D01*
X155200000Y-97090964D01*
X155000000Y-97090964D01*
X154937759Y-97097094D01*
X154900000Y-97108548D01*
X154862241Y-97097094D01*
X154800000Y-97090964D01*
X154600000Y-97090964D01*
X154563500Y-97094559D01*
X154563500Y-96862617D01*
X154577247Y-96855269D01*
X154625593Y-96815593D01*
X154665269Y-96767247D01*
X154694751Y-96712090D01*
X154712906Y-96652241D01*
X154719036Y-96590000D01*
X154719036Y-95989877D01*
X154738068Y-95927137D01*
X154744500Y-95861830D01*
X154744500Y-95090000D01*
X155880964Y-95090000D01*
X155880964Y-96590000D01*
X155887094Y-96652241D01*
X155905249Y-96712090D01*
X155934731Y-96767247D01*
X155974407Y-96815593D01*
X156022753Y-96855269D01*
X156077910Y-96884751D01*
X156137759Y-96902906D01*
X156200000Y-96909036D01*
X156400000Y-96909036D01*
X156462241Y-96902906D01*
X156500000Y-96891452D01*
X156537759Y-96902906D01*
X156600000Y-96909036D01*
X156800000Y-96909036D01*
X156862241Y-96902906D01*
X156900000Y-96891452D01*
X156937759Y-96902906D01*
X157000000Y-96909036D01*
X157200000Y-96909036D01*
X157262241Y-96902906D01*
X157300000Y-96891452D01*
X157337759Y-96902906D01*
X157400000Y-96909036D01*
X157600000Y-96909036D01*
X157662241Y-96902906D01*
X157700000Y-96891452D01*
X157737759Y-96902906D01*
X157800000Y-96909036D01*
X158000000Y-96909036D01*
X158062241Y-96902906D01*
X158100000Y-96891452D01*
X158137759Y-96902906D01*
X158200000Y-96909036D01*
X158400000Y-96909036D01*
X158462241Y-96902906D01*
X158522090Y-96884751D01*
X158577247Y-96855269D01*
X158625593Y-96815593D01*
X158665269Y-96767247D01*
X158694751Y-96712090D01*
X158712906Y-96652241D01*
X158719036Y-96590000D01*
X158719036Y-95090000D01*
X158712906Y-95027759D01*
X158694751Y-94967910D01*
X158665269Y-94912753D01*
X158625593Y-94864407D01*
X158577247Y-94824731D01*
X158522090Y-94795249D01*
X158462241Y-94777094D01*
X158400000Y-94770964D01*
X158200000Y-94770964D01*
X158137759Y-94777094D01*
X158100000Y-94788548D01*
X158062241Y-94777094D01*
X158000000Y-94770964D01*
X157800000Y-94770964D01*
X157737759Y-94777094D01*
X157700000Y-94788548D01*
X157662241Y-94777094D01*
X157600000Y-94770964D01*
X157400000Y-94770964D01*
X157337759Y-94777094D01*
X157300000Y-94788548D01*
X157262241Y-94777094D01*
X157200000Y-94770964D01*
X157000000Y-94770964D01*
X156937759Y-94777094D01*
X156900000Y-94788548D01*
X156862241Y-94777094D01*
X156800000Y-94770964D01*
X156600000Y-94770964D01*
X156537759Y-94777094D01*
X156500000Y-94788548D01*
X156462241Y-94777094D01*
X156400000Y-94770964D01*
X156200000Y-94770964D01*
X156137759Y-94777094D01*
X156077910Y-94795249D01*
X156022753Y-94824731D01*
X155974407Y-94864407D01*
X155934731Y-94912753D01*
X155905249Y-94967910D01*
X155887094Y-95027759D01*
X155880964Y-95090000D01*
X154744500Y-95090000D01*
X154744500Y-95026600D01*
X154748118Y-95024183D01*
X154824183Y-94948118D01*
X154883947Y-94858675D01*
X154925113Y-94759291D01*
X154946100Y-94653786D01*
X154946100Y-94546214D01*
X154925113Y-94440709D01*
X154905144Y-94392500D01*
X162436500Y-94392500D01*
X162436500Y-97436500D01*
D21*
G36*
X154873000Y-102718135D02*
G01*
X154817956Y-102913551D01*
X154785098Y-103332824D01*
X154834666Y-103750451D01*
X154873000Y-103868299D01*
X154873000Y-116138135D01*
X154817956Y-116333551D01*
X154785098Y-116752824D01*
X154834666Y-117170451D01*
X154873000Y-117288299D01*
X154873000Y-117373000D01*
X140127000Y-117373000D01*
X140127000Y-102627000D01*
X154873000Y-102627000D01*
X154873000Y-102718135D01*
G37*
X154873000Y-102718135D02*
X154817956Y-102913551D01*
X154785098Y-103332824D01*
X154834666Y-103750451D01*
X154873000Y-103868299D01*
X154873000Y-116138135D01*
X154817956Y-116333551D01*
X154785098Y-116752824D01*
X154834666Y-117170451D01*
X154873000Y-117288299D01*
X154873000Y-117373000D01*
X140127000Y-117373000D01*
X140127000Y-102627000D01*
X154873000Y-102627000D01*
X154873000Y-102718135D01*
D24*
G36*
X125226900Y-95433705D02*
G01*
X125226900Y-95566295D01*
X125252767Y-95696336D01*
X125303506Y-95818832D01*
X125377169Y-95929076D01*
X125470924Y-96022831D01*
X125581168Y-96096494D01*
X125703664Y-96147233D01*
X125833705Y-96173100D01*
X125966295Y-96173100D01*
X126096336Y-96147233D01*
X126218832Y-96096494D01*
X126329076Y-96022831D01*
X126422831Y-95929076D01*
X126496494Y-95818832D01*
X126547233Y-95696336D01*
X126573100Y-95566295D01*
X126573100Y-95433705D01*
X126549190Y-95313500D01*
X127250810Y-95313500D01*
X127226900Y-95433705D01*
X127226900Y-95566295D01*
X127252767Y-95696336D01*
X127303506Y-95818832D01*
X127377169Y-95929076D01*
X127470924Y-96022831D01*
X127581168Y-96096494D01*
X127703664Y-96147233D01*
X127833705Y-96173100D01*
X127966295Y-96173100D01*
X128096336Y-96147233D01*
X128218832Y-96096494D01*
X128329076Y-96022831D01*
X128422831Y-95929076D01*
X128496494Y-95818832D01*
X128547233Y-95696336D01*
X128573100Y-95566295D01*
X128573100Y-95433705D01*
X128549190Y-95313500D01*
X129250810Y-95313500D01*
X129226900Y-95433705D01*
X129226900Y-95566295D01*
X129252767Y-95696336D01*
X129303506Y-95818832D01*
X129377169Y-95929076D01*
X129470924Y-96022831D01*
X129581168Y-96096494D01*
X129703664Y-96147233D01*
X129833705Y-96173100D01*
X129966295Y-96173100D01*
X130096336Y-96147233D01*
X130218832Y-96096494D01*
X130329076Y-96022831D01*
X130422831Y-95929076D01*
X130496494Y-95818832D01*
X130547233Y-95696336D01*
X130573100Y-95566295D01*
X130573100Y-95433705D01*
X130549190Y-95313500D01*
X130936500Y-95313500D01*
X130936500Y-103500000D01*
X130937720Y-103512388D01*
X130941334Y-103524300D01*
X130947202Y-103535279D01*
X130955099Y-103544901D01*
X130964721Y-103552798D01*
X130975700Y-103558666D01*
X130987612Y-103562280D01*
X131000000Y-103563500D01*
X136532366Y-103563500D01*
X131485185Y-108610682D01*
X130577527Y-108610682D01*
X130522831Y-108528824D01*
X130429076Y-108435069D01*
X130318832Y-108361406D01*
X130196336Y-108310667D01*
X130066295Y-108284800D01*
X129933705Y-108284800D01*
X129803664Y-108310667D01*
X129681168Y-108361406D01*
X129570924Y-108435069D01*
X129477169Y-108528824D01*
X129403506Y-108639068D01*
X129352767Y-108761564D01*
X129326900Y-108891605D01*
X129326900Y-109024195D01*
X129352767Y-109154236D01*
X129392433Y-109250000D01*
X129352767Y-109345764D01*
X129326900Y-109475805D01*
X129326900Y-109608395D01*
X129352767Y-109738436D01*
X129403506Y-109860932D01*
X129477169Y-109971176D01*
X129570924Y-110064931D01*
X129681168Y-110138594D01*
X129803664Y-110189333D01*
X129933705Y-110215200D01*
X130066295Y-110215200D01*
X130196336Y-110189333D01*
X130318832Y-110138594D01*
X130429076Y-110064931D01*
X130522831Y-109971176D01*
X130577527Y-109889318D01*
X131778453Y-109889318D01*
X131803501Y-109891785D01*
X131828549Y-109889318D01*
X131828559Y-109889318D01*
X131903510Y-109881936D01*
X131999675Y-109852765D01*
X132088301Y-109805393D01*
X132165983Y-109741641D01*
X132181960Y-109722173D01*
X133304631Y-108599502D01*
X137576900Y-108599502D01*
X137576900Y-108732092D01*
X137602767Y-108862133D01*
X137642434Y-108957899D01*
X137602767Y-109053664D01*
X137576900Y-109183705D01*
X137576900Y-109316295D01*
X137602767Y-109446336D01*
X137653506Y-109568832D01*
X137727169Y-109679076D01*
X137820924Y-109772831D01*
X137931168Y-109846494D01*
X138053664Y-109897233D01*
X138183705Y-109923100D01*
X138316295Y-109923100D01*
X138446336Y-109897233D01*
X138568832Y-109846494D01*
X138679076Y-109772831D01*
X138772831Y-109679076D01*
X138846494Y-109568832D01*
X138897233Y-109446336D01*
X138923100Y-109316295D01*
X138923100Y-109183705D01*
X138897233Y-109053664D01*
X138857566Y-108957899D01*
X138897233Y-108862133D01*
X138923100Y-108732092D01*
X138923100Y-108599502D01*
X138897233Y-108469461D01*
X138846494Y-108346965D01*
X138772831Y-108236721D01*
X138679076Y-108142966D01*
X138568832Y-108069303D01*
X138446336Y-108018564D01*
X138316295Y-107992697D01*
X138183705Y-107992697D01*
X138053664Y-108018564D01*
X137931168Y-108069303D01*
X137820924Y-108142966D01*
X137727169Y-108236721D01*
X137653506Y-108346965D01*
X137602767Y-108469461D01*
X137576900Y-108599502D01*
X133304631Y-108599502D01*
X135720428Y-106183705D01*
X136076900Y-106183705D01*
X136076900Y-106316295D01*
X136102767Y-106446336D01*
X136153506Y-106568832D01*
X136227169Y-106679076D01*
X136320924Y-106772831D01*
X136431168Y-106846494D01*
X136553664Y-106897233D01*
X136683705Y-106923100D01*
X136816295Y-106923100D01*
X136946336Y-106897233D01*
X137068832Y-106846494D01*
X137179076Y-106772831D01*
X137272831Y-106679076D01*
X137346494Y-106568832D01*
X137397233Y-106446336D01*
X137423100Y-106316295D01*
X137423100Y-106183705D01*
X137397233Y-106053664D01*
X137346494Y-105931168D01*
X137272831Y-105820924D01*
X137179076Y-105727169D01*
X137068832Y-105653506D01*
X136946336Y-105602767D01*
X136816295Y-105576900D01*
X136683705Y-105576900D01*
X136553664Y-105602767D01*
X136431168Y-105653506D01*
X136320924Y-105727169D01*
X136227169Y-105820924D01*
X136153506Y-105931168D01*
X136102767Y-106053664D01*
X136076900Y-106183705D01*
X135720428Y-106183705D01*
X138340634Y-103563500D01*
X139436500Y-103563500D01*
X139436500Y-106826900D01*
X139433705Y-106826900D01*
X139303664Y-106852767D01*
X139181168Y-106903506D01*
X139070924Y-106977169D01*
X138977169Y-107070924D01*
X138903506Y-107181168D01*
X138852767Y-107303664D01*
X138826900Y-107433705D01*
X138826900Y-107566295D01*
X138852767Y-107696336D01*
X138903506Y-107818832D01*
X138977169Y-107929076D01*
X139070924Y-108022831D01*
X139181168Y-108096494D01*
X139303664Y-108147233D01*
X139433705Y-108173100D01*
X139436500Y-108173100D01*
X139436500Y-112484593D01*
X139429076Y-112477169D01*
X139318832Y-112403506D01*
X139196336Y-112352767D01*
X139066295Y-112326900D01*
X138933705Y-112326900D01*
X138803664Y-112352767D01*
X138681168Y-112403506D01*
X138625000Y-112441036D01*
X138568832Y-112403506D01*
X138446336Y-112352767D01*
X138316295Y-112326900D01*
X138183705Y-112326900D01*
X138053664Y-112352767D01*
X137931168Y-112403506D01*
X137875000Y-112441036D01*
X137818832Y-112403506D01*
X137696336Y-112352767D01*
X137566295Y-112326900D01*
X137433705Y-112326900D01*
X137303664Y-112352767D01*
X137181168Y-112403506D01*
X137070924Y-112477169D01*
X136977169Y-112570924D01*
X136903506Y-112681168D01*
X136852767Y-112803664D01*
X136826900Y-112933705D01*
X136826900Y-113066295D01*
X136852767Y-113196336D01*
X136855867Y-113203821D01*
X136820924Y-113227169D01*
X136727169Y-113320924D01*
X136653506Y-113431168D01*
X136602767Y-113553664D01*
X136576900Y-113683705D01*
X136576900Y-113816295D01*
X136602767Y-113946336D01*
X136653506Y-114068832D01*
X136727169Y-114179076D01*
X136820924Y-114272831D01*
X136931168Y-114346494D01*
X137053664Y-114397233D01*
X137183705Y-114423100D01*
X137316295Y-114423100D01*
X137446336Y-114397233D01*
X137568832Y-114346494D01*
X137679076Y-114272831D01*
X137772831Y-114179076D01*
X137846494Y-114068832D01*
X137897233Y-113946336D01*
X137923100Y-113816295D01*
X137923100Y-113683705D01*
X137901857Y-113576909D01*
X137931168Y-113596494D01*
X138053664Y-113647233D01*
X138183705Y-113673100D01*
X138316295Y-113673100D01*
X138446336Y-113647233D01*
X138568832Y-113596494D01*
X138625000Y-113558964D01*
X138681168Y-113596494D01*
X138803664Y-113647233D01*
X138933705Y-113673100D01*
X139066295Y-113673100D01*
X139196336Y-113647233D01*
X139318832Y-113596494D01*
X139429076Y-113522831D01*
X139436500Y-113515407D01*
X139436500Y-118110682D01*
X136514816Y-118110682D01*
X129087839Y-110683705D01*
X137576900Y-110683705D01*
X137576900Y-110816295D01*
X137602767Y-110946336D01*
X137653506Y-111068832D01*
X137727169Y-111179076D01*
X137820924Y-111272831D01*
X137931168Y-111346494D01*
X138053664Y-111397233D01*
X138183705Y-111423100D01*
X138316295Y-111423100D01*
X138446336Y-111397233D01*
X138568832Y-111346494D01*
X138679076Y-111272831D01*
X138772831Y-111179076D01*
X138846494Y-111068832D01*
X138897233Y-110946336D01*
X138923100Y-110816295D01*
X138923100Y-110683705D01*
X138897233Y-110553664D01*
X138846494Y-110431168D01*
X138772831Y-110320924D01*
X138679076Y-110227169D01*
X138568832Y-110153506D01*
X138446336Y-110102767D01*
X138316295Y-110076900D01*
X138183705Y-110076900D01*
X138053664Y-110102767D01*
X137931168Y-110153506D01*
X137820924Y-110227169D01*
X137727169Y-110320924D01*
X137653506Y-110431168D01*
X137602767Y-110553664D01*
X137576900Y-110683705D01*
X129087839Y-110683705D01*
X128681960Y-110277827D01*
X128665983Y-110258359D01*
X128588301Y-110194607D01*
X128499675Y-110147235D01*
X128403510Y-110118064D01*
X128328559Y-110110682D01*
X128328549Y-110110682D01*
X128303501Y-110108215D01*
X128278453Y-110110682D01*
X128077527Y-110110682D01*
X128022831Y-110028824D01*
X127929076Y-109935069D01*
X127818832Y-109861406D01*
X127696336Y-109810667D01*
X127566295Y-109784800D01*
X127433705Y-109784800D01*
X127303664Y-109810667D01*
X127181168Y-109861406D01*
X127070924Y-109935069D01*
X126977169Y-110028824D01*
X126903506Y-110139068D01*
X126852767Y-110261564D01*
X126826900Y-110391605D01*
X126826900Y-110524195D01*
X126852767Y-110654236D01*
X126892433Y-110750000D01*
X126852767Y-110845764D01*
X126826900Y-110975805D01*
X126826900Y-111108395D01*
X126852767Y-111238436D01*
X126903506Y-111360932D01*
X126977169Y-111471176D01*
X127070924Y-111564931D01*
X127181168Y-111638594D01*
X127303664Y-111689333D01*
X127433705Y-111715200D01*
X127566295Y-111715200D01*
X127696336Y-111689333D01*
X127818832Y-111638594D01*
X127929076Y-111564931D01*
X128022831Y-111471176D01*
X128040540Y-111444673D01*
X132736789Y-116140922D01*
X132666295Y-116126900D01*
X132533705Y-116126900D01*
X132403664Y-116152767D01*
X132281168Y-116203506D01*
X132170924Y-116277169D01*
X132077169Y-116370924D01*
X132003506Y-116481168D01*
X131952767Y-116603664D01*
X131926900Y-116733705D01*
X131926900Y-116866295D01*
X131952767Y-116996336D01*
X132003506Y-117118832D01*
X132077169Y-117229076D01*
X132170924Y-117322831D01*
X132281168Y-117396494D01*
X132403664Y-117447233D01*
X132533705Y-117473100D01*
X132666295Y-117473100D01*
X132796336Y-117447233D01*
X132918832Y-117396494D01*
X133029076Y-117322831D01*
X133050000Y-117301907D01*
X133070924Y-117322831D01*
X133181168Y-117396494D01*
X133303664Y-117447233D01*
X133433705Y-117473100D01*
X133566295Y-117473100D01*
X133696336Y-117447233D01*
X133818832Y-117396494D01*
X133922854Y-117326988D01*
X135818045Y-119222179D01*
X135834017Y-119241641D01*
X135911699Y-119305393D01*
X136000325Y-119352765D01*
X136096490Y-119381936D01*
X136171441Y-119389318D01*
X136171450Y-119389318D01*
X136196498Y-119391785D01*
X136221546Y-119389318D01*
X139436500Y-119389318D01*
X139436500Y-123750000D01*
X139437720Y-123762388D01*
X139441334Y-123774300D01*
X139447202Y-123785279D01*
X139455099Y-123794901D01*
X139464721Y-123802798D01*
X139475700Y-123808666D01*
X139487612Y-123812280D01*
X139500000Y-123813500D01*
X140203604Y-123813500D01*
X140312858Y-123977009D01*
X140722991Y-124387142D01*
X141205256Y-124709382D01*
X141741121Y-124931344D01*
X142309992Y-125044500D01*
X142890008Y-125044500D01*
X143458879Y-124931344D01*
X143994744Y-124709382D01*
X144477009Y-124387142D01*
X144887142Y-123977009D01*
X144996396Y-123813500D01*
X146153350Y-123813500D01*
X146153350Y-124910000D01*
X146161932Y-124997137D01*
X146187349Y-125080926D01*
X146228624Y-125158145D01*
X146284171Y-125225829D01*
X146351855Y-125281376D01*
X146429074Y-125322651D01*
X146512863Y-125348068D01*
X146600000Y-125356650D01*
X146800000Y-125356650D01*
X146887137Y-125348068D01*
X146900000Y-125344166D01*
X146912863Y-125348068D01*
X147000000Y-125356650D01*
X147200000Y-125356650D01*
X147287137Y-125348068D01*
X147300000Y-125344166D01*
X147312863Y-125348068D01*
X147400000Y-125356650D01*
X147600000Y-125356650D01*
X147687137Y-125348068D01*
X147700000Y-125344166D01*
X147712863Y-125348068D01*
X147800000Y-125356650D01*
X148000000Y-125356650D01*
X148087137Y-125348068D01*
X148100000Y-125344166D01*
X148112863Y-125348068D01*
X148200000Y-125356650D01*
X148400000Y-125356650D01*
X148487137Y-125348068D01*
X148500000Y-125344166D01*
X148512863Y-125348068D01*
X148600000Y-125356650D01*
X148800000Y-125356650D01*
X148887137Y-125348068D01*
X148900000Y-125344166D01*
X148912863Y-125348068D01*
X149000000Y-125356650D01*
X149200000Y-125356650D01*
X149287137Y-125348068D01*
X149300000Y-125344166D01*
X149312863Y-125348068D01*
X149400000Y-125356650D01*
X149600000Y-125356650D01*
X149687137Y-125348068D01*
X149700000Y-125344166D01*
X149712863Y-125348068D01*
X149800000Y-125356650D01*
X150000000Y-125356650D01*
X150087137Y-125348068D01*
X150100000Y-125344166D01*
X150112863Y-125348068D01*
X150200000Y-125356650D01*
X150400000Y-125356650D01*
X150487137Y-125348068D01*
X150500000Y-125344166D01*
X150512863Y-125348068D01*
X150600000Y-125356650D01*
X150800000Y-125356650D01*
X150887137Y-125348068D01*
X150900000Y-125344166D01*
X150912863Y-125348068D01*
X151000000Y-125356650D01*
X151200000Y-125356650D01*
X151287137Y-125348068D01*
X151300000Y-125344166D01*
X151312863Y-125348068D01*
X151400000Y-125356650D01*
X151600000Y-125356650D01*
X151687137Y-125348068D01*
X151700000Y-125344166D01*
X151712863Y-125348068D01*
X151800000Y-125356650D01*
X152000000Y-125356650D01*
X152087137Y-125348068D01*
X152100000Y-125344166D01*
X152112863Y-125348068D01*
X152200000Y-125356650D01*
X152400000Y-125356650D01*
X152487137Y-125348068D01*
X152500000Y-125344166D01*
X152512863Y-125348068D01*
X152600000Y-125356650D01*
X152800000Y-125356650D01*
X152887137Y-125348068D01*
X152900000Y-125344166D01*
X152912863Y-125348068D01*
X153000000Y-125356650D01*
X153200000Y-125356650D01*
X153287137Y-125348068D01*
X153300000Y-125344166D01*
X153312863Y-125348068D01*
X153400000Y-125356650D01*
X153600000Y-125356650D01*
X153687137Y-125348068D01*
X153700000Y-125344166D01*
X153712863Y-125348068D01*
X153800000Y-125356650D01*
X154000000Y-125356650D01*
X154087137Y-125348068D01*
X154100000Y-125344166D01*
X154112863Y-125348068D01*
X154200000Y-125356650D01*
X154400000Y-125356650D01*
X154487137Y-125348068D01*
X154500000Y-125344166D01*
X154512863Y-125348068D01*
X154600000Y-125356650D01*
X154800000Y-125356650D01*
X154887137Y-125348068D01*
X154900000Y-125344166D01*
X154912863Y-125348068D01*
X155000000Y-125356650D01*
X155200000Y-125356650D01*
X155287137Y-125348068D01*
X155300000Y-125344166D01*
X155312863Y-125348068D01*
X155400000Y-125356650D01*
X155600000Y-125356650D01*
X155687137Y-125348068D01*
X155770926Y-125322651D01*
X155848145Y-125281376D01*
X155915829Y-125225829D01*
X155971376Y-125158145D01*
X156012651Y-125080926D01*
X156038068Y-124997137D01*
X156046650Y-124910000D01*
X156046650Y-124326694D01*
X156063231Y-124272034D01*
X156071500Y-124188074D01*
X156071500Y-123813500D01*
X156953350Y-123813500D01*
X156953350Y-124910000D01*
X156961932Y-124997137D01*
X156987349Y-125080926D01*
X157028624Y-125158145D01*
X157084171Y-125225829D01*
X157151855Y-125281376D01*
X157229074Y-125322651D01*
X157312863Y-125348068D01*
X157400000Y-125356650D01*
X157600000Y-125356650D01*
X157686500Y-125348131D01*
X157686500Y-125480500D01*
X125063500Y-125480500D01*
X125063500Y-109101956D01*
X125105285Y-109084648D01*
X125210845Y-109014115D01*
X125300615Y-108924345D01*
X125371148Y-108818785D01*
X125419732Y-108701494D01*
X125444500Y-108576978D01*
X125444500Y-108450022D01*
X125419732Y-108325506D01*
X125388456Y-108250000D01*
X125419732Y-108174494D01*
X125444500Y-108049978D01*
X125444500Y-107923022D01*
X125419732Y-107798506D01*
X125371148Y-107681215D01*
X125300615Y-107575655D01*
X125210845Y-107485885D01*
X125105285Y-107415352D01*
X125063500Y-107398044D01*
X125063500Y-105833705D01*
X126826900Y-105833705D01*
X126826900Y-105966295D01*
X126852767Y-106096336D01*
X126903506Y-106218832D01*
X126977169Y-106329076D01*
X127070924Y-106422831D01*
X127181168Y-106496494D01*
X127303664Y-106547233D01*
X127433705Y-106573100D01*
X127566295Y-106573100D01*
X127696336Y-106547233D01*
X127818832Y-106496494D01*
X127929076Y-106422831D01*
X128022831Y-106329076D01*
X128096494Y-106218832D01*
X128147233Y-106096336D01*
X128173100Y-105966295D01*
X128173100Y-105833705D01*
X128147233Y-105703664D01*
X128096494Y-105581168D01*
X128022831Y-105470924D01*
X127929076Y-105377169D01*
X127818832Y-105303506D01*
X127696336Y-105252767D01*
X127566295Y-105226900D01*
X127433705Y-105226900D01*
X127303664Y-105252767D01*
X127181168Y-105303506D01*
X127070924Y-105377169D01*
X126977169Y-105470924D01*
X126903506Y-105581168D01*
X126852767Y-105703664D01*
X126826900Y-105833705D01*
X125063500Y-105833705D01*
X125063500Y-101033705D01*
X125526900Y-101033705D01*
X125526900Y-101166295D01*
X125552767Y-101296336D01*
X125603506Y-101418832D01*
X125677169Y-101529076D01*
X125770924Y-101622831D01*
X125881168Y-101696494D01*
X126003664Y-101747233D01*
X126133705Y-101773100D01*
X126266295Y-101773100D01*
X126396336Y-101747233D01*
X126518832Y-101696494D01*
X126629076Y-101622831D01*
X126722831Y-101529076D01*
X126793642Y-101423100D01*
X126816295Y-101423100D01*
X126946336Y-101397233D01*
X127000000Y-101375005D01*
X127053664Y-101397233D01*
X127183705Y-101423100D01*
X127316295Y-101423100D01*
X127446336Y-101397233D01*
X127500000Y-101375005D01*
X127553664Y-101397233D01*
X127683705Y-101423100D01*
X127816295Y-101423100D01*
X127946336Y-101397233D01*
X128068832Y-101346494D01*
X128179076Y-101272831D01*
X128272831Y-101179076D01*
X128346494Y-101068832D01*
X128397233Y-100946336D01*
X128423100Y-100816295D01*
X128423100Y-100683705D01*
X128397233Y-100553664D01*
X128375005Y-100500000D01*
X128397233Y-100446336D01*
X128423100Y-100316295D01*
X128423100Y-100183705D01*
X128397233Y-100053664D01*
X128375005Y-100000000D01*
X128397233Y-99946336D01*
X128423100Y-99816295D01*
X128423100Y-99683705D01*
X128397233Y-99553664D01*
X128346494Y-99431168D01*
X128272831Y-99320924D01*
X128179076Y-99227169D01*
X128068832Y-99153506D01*
X127946336Y-99102767D01*
X127816295Y-99076900D01*
X127683705Y-99076900D01*
X127553664Y-99102767D01*
X127500000Y-99124995D01*
X127446336Y-99102767D01*
X127316295Y-99076900D01*
X127183705Y-99076900D01*
X127053664Y-99102767D01*
X127000000Y-99124995D01*
X126946336Y-99102767D01*
X126816295Y-99076900D01*
X126683705Y-99076900D01*
X126553664Y-99102767D01*
X126431168Y-99153506D01*
X126320924Y-99227169D01*
X126227169Y-99320924D01*
X126153506Y-99431168D01*
X126102767Y-99553664D01*
X126076900Y-99683705D01*
X126076900Y-99816295D01*
X126102767Y-99946336D01*
X126124995Y-100000000D01*
X126102767Y-100053664D01*
X126076900Y-100183705D01*
X126076900Y-100316295D01*
X126100226Y-100433560D01*
X126003664Y-100452767D01*
X125881168Y-100503506D01*
X125770924Y-100577169D01*
X125677169Y-100670924D01*
X125603506Y-100781168D01*
X125552767Y-100903664D01*
X125526900Y-101033705D01*
X125063500Y-101033705D01*
X125063500Y-98284689D01*
X125081168Y-98296494D01*
X125203664Y-98347233D01*
X125333705Y-98373100D01*
X125466295Y-98373100D01*
X125596336Y-98347233D01*
X125718832Y-98296494D01*
X125829076Y-98222831D01*
X125922831Y-98129076D01*
X125996494Y-98018832D01*
X126047233Y-97896336D01*
X126073100Y-97766295D01*
X126073100Y-97633705D01*
X126726900Y-97633705D01*
X126726900Y-97766295D01*
X126752767Y-97896336D01*
X126803506Y-98018832D01*
X126877169Y-98129076D01*
X126970924Y-98222831D01*
X127081168Y-98296494D01*
X127203664Y-98347233D01*
X127333705Y-98373100D01*
X127466295Y-98373100D01*
X127596336Y-98347233D01*
X127718832Y-98296494D01*
X127829076Y-98222831D01*
X127922831Y-98129076D01*
X127996494Y-98018832D01*
X128047233Y-97896336D01*
X128073100Y-97766295D01*
X128073100Y-97633705D01*
X128726900Y-97633705D01*
X128726900Y-97766295D01*
X128752767Y-97896336D01*
X128803506Y-98018832D01*
X128877169Y-98129076D01*
X128970924Y-98222831D01*
X129081168Y-98296494D01*
X129203664Y-98347233D01*
X129333705Y-98373100D01*
X129466295Y-98373100D01*
X129596336Y-98347233D01*
X129718832Y-98296494D01*
X129829076Y-98222831D01*
X129922831Y-98129076D01*
X129996494Y-98018832D01*
X130047233Y-97896336D01*
X130073100Y-97766295D01*
X130073100Y-97633705D01*
X130047233Y-97503664D01*
X129996494Y-97381168D01*
X129922831Y-97270924D01*
X129829076Y-97177169D01*
X129718832Y-97103506D01*
X129596336Y-97052767D01*
X129466295Y-97026900D01*
X129333705Y-97026900D01*
X129203664Y-97052767D01*
X129081168Y-97103506D01*
X128970924Y-97177169D01*
X128877169Y-97270924D01*
X128803506Y-97381168D01*
X128752767Y-97503664D01*
X128726900Y-97633705D01*
X128073100Y-97633705D01*
X128047233Y-97503664D01*
X127996494Y-97381168D01*
X127922831Y-97270924D01*
X127829076Y-97177169D01*
X127718832Y-97103506D01*
X127596336Y-97052767D01*
X127466295Y-97026900D01*
X127333705Y-97026900D01*
X127203664Y-97052767D01*
X127081168Y-97103506D01*
X126970924Y-97177169D01*
X126877169Y-97270924D01*
X126803506Y-97381168D01*
X126752767Y-97503664D01*
X126726900Y-97633705D01*
X126073100Y-97633705D01*
X126047233Y-97503664D01*
X125996494Y-97381168D01*
X125922831Y-97270924D01*
X125829076Y-97177169D01*
X125718832Y-97103506D01*
X125596336Y-97052767D01*
X125466295Y-97026900D01*
X125333705Y-97026900D01*
X125203664Y-97052767D01*
X125081168Y-97103506D01*
X125063500Y-97115311D01*
X125063500Y-95313500D01*
X125250810Y-95313500D01*
X125226900Y-95433705D01*
G37*
X125226900Y-95433705D02*
X125226900Y-95566295D01*
X125252767Y-95696336D01*
X125303506Y-95818832D01*
X125377169Y-95929076D01*
X125470924Y-96022831D01*
X125581168Y-96096494D01*
X125703664Y-96147233D01*
X125833705Y-96173100D01*
X125966295Y-96173100D01*
X126096336Y-96147233D01*
X126218832Y-96096494D01*
X126329076Y-96022831D01*
X126422831Y-95929076D01*
X126496494Y-95818832D01*
X126547233Y-95696336D01*
X126573100Y-95566295D01*
X126573100Y-95433705D01*
X126549190Y-95313500D01*
X127250810Y-95313500D01*
X127226900Y-95433705D01*
X127226900Y-95566295D01*
X127252767Y-95696336D01*
X127303506Y-95818832D01*
X127377169Y-95929076D01*
X127470924Y-96022831D01*
X127581168Y-96096494D01*
X127703664Y-96147233D01*
X127833705Y-96173100D01*
X127966295Y-96173100D01*
X128096336Y-96147233D01*
X128218832Y-96096494D01*
X128329076Y-96022831D01*
X128422831Y-95929076D01*
X128496494Y-95818832D01*
X128547233Y-95696336D01*
X128573100Y-95566295D01*
X128573100Y-95433705D01*
X128549190Y-95313500D01*
X129250810Y-95313500D01*
X129226900Y-95433705D01*
X129226900Y-95566295D01*
X129252767Y-95696336D01*
X129303506Y-95818832D01*
X129377169Y-95929076D01*
X129470924Y-96022831D01*
X129581168Y-96096494D01*
X129703664Y-96147233D01*
X129833705Y-96173100D01*
X129966295Y-96173100D01*
X130096336Y-96147233D01*
X130218832Y-96096494D01*
X130329076Y-96022831D01*
X130422831Y-95929076D01*
X130496494Y-95818832D01*
X130547233Y-95696336D01*
X130573100Y-95566295D01*
X130573100Y-95433705D01*
X130549190Y-95313500D01*
X130936500Y-95313500D01*
X130936500Y-103500000D01*
X130937720Y-103512388D01*
X130941334Y-103524300D01*
X130947202Y-103535279D01*
X130955099Y-103544901D01*
X130964721Y-103552798D01*
X130975700Y-103558666D01*
X130987612Y-103562280D01*
X131000000Y-103563500D01*
X136532366Y-103563500D01*
X131485185Y-108610682D01*
X130577527Y-108610682D01*
X130522831Y-108528824D01*
X130429076Y-108435069D01*
X130318832Y-108361406D01*
X130196336Y-108310667D01*
X130066295Y-108284800D01*
X129933705Y-108284800D01*
X129803664Y-108310667D01*
X129681168Y-108361406D01*
X129570924Y-108435069D01*
X129477169Y-108528824D01*
X129403506Y-108639068D01*
X129352767Y-108761564D01*
X129326900Y-108891605D01*
X129326900Y-109024195D01*
X129352767Y-109154236D01*
X129392433Y-109250000D01*
X129352767Y-109345764D01*
X129326900Y-109475805D01*
X129326900Y-109608395D01*
X129352767Y-109738436D01*
X129403506Y-109860932D01*
X129477169Y-109971176D01*
X129570924Y-110064931D01*
X129681168Y-110138594D01*
X129803664Y-110189333D01*
X129933705Y-110215200D01*
X130066295Y-110215200D01*
X130196336Y-110189333D01*
X130318832Y-110138594D01*
X130429076Y-110064931D01*
X130522831Y-109971176D01*
X130577527Y-109889318D01*
X131778453Y-109889318D01*
X131803501Y-109891785D01*
X131828549Y-109889318D01*
X131828559Y-109889318D01*
X131903510Y-109881936D01*
X131999675Y-109852765D01*
X132088301Y-109805393D01*
X132165983Y-109741641D01*
X132181960Y-109722173D01*
X133304631Y-108599502D01*
X137576900Y-108599502D01*
X137576900Y-108732092D01*
X137602767Y-108862133D01*
X137642434Y-108957899D01*
X137602767Y-109053664D01*
X137576900Y-109183705D01*
X137576900Y-109316295D01*
X137602767Y-109446336D01*
X137653506Y-109568832D01*
X137727169Y-109679076D01*
X137820924Y-109772831D01*
X137931168Y-109846494D01*
X138053664Y-109897233D01*
X138183705Y-109923100D01*
X138316295Y-109923100D01*
X138446336Y-109897233D01*
X138568832Y-109846494D01*
X138679076Y-109772831D01*
X138772831Y-109679076D01*
X138846494Y-109568832D01*
X138897233Y-109446336D01*
X138923100Y-109316295D01*
X138923100Y-109183705D01*
X138897233Y-109053664D01*
X138857566Y-108957899D01*
X138897233Y-108862133D01*
X138923100Y-108732092D01*
X138923100Y-108599502D01*
X138897233Y-108469461D01*
X138846494Y-108346965D01*
X138772831Y-108236721D01*
X138679076Y-108142966D01*
X138568832Y-108069303D01*
X138446336Y-108018564D01*
X138316295Y-107992697D01*
X138183705Y-107992697D01*
X138053664Y-108018564D01*
X137931168Y-108069303D01*
X137820924Y-108142966D01*
X137727169Y-108236721D01*
X137653506Y-108346965D01*
X137602767Y-108469461D01*
X137576900Y-108599502D01*
X133304631Y-108599502D01*
X135720428Y-106183705D01*
X136076900Y-106183705D01*
X136076900Y-106316295D01*
X136102767Y-106446336D01*
X136153506Y-106568832D01*
X136227169Y-106679076D01*
X136320924Y-106772831D01*
X136431168Y-106846494D01*
X136553664Y-106897233D01*
X136683705Y-106923100D01*
X136816295Y-106923100D01*
X136946336Y-106897233D01*
X137068832Y-106846494D01*
X137179076Y-106772831D01*
X137272831Y-106679076D01*
X137346494Y-106568832D01*
X137397233Y-106446336D01*
X137423100Y-106316295D01*
X137423100Y-106183705D01*
X137397233Y-106053664D01*
X137346494Y-105931168D01*
X137272831Y-105820924D01*
X137179076Y-105727169D01*
X137068832Y-105653506D01*
X136946336Y-105602767D01*
X136816295Y-105576900D01*
X136683705Y-105576900D01*
X136553664Y-105602767D01*
X136431168Y-105653506D01*
X136320924Y-105727169D01*
X136227169Y-105820924D01*
X136153506Y-105931168D01*
X136102767Y-106053664D01*
X136076900Y-106183705D01*
X135720428Y-106183705D01*
X138340634Y-103563500D01*
X139436500Y-103563500D01*
X139436500Y-106826900D01*
X139433705Y-106826900D01*
X139303664Y-106852767D01*
X139181168Y-106903506D01*
X139070924Y-106977169D01*
X138977169Y-107070924D01*
X138903506Y-107181168D01*
X138852767Y-107303664D01*
X138826900Y-107433705D01*
X138826900Y-107566295D01*
X138852767Y-107696336D01*
X138903506Y-107818832D01*
X138977169Y-107929076D01*
X139070924Y-108022831D01*
X139181168Y-108096494D01*
X139303664Y-108147233D01*
X139433705Y-108173100D01*
X139436500Y-108173100D01*
X139436500Y-112484593D01*
X139429076Y-112477169D01*
X139318832Y-112403506D01*
X139196336Y-112352767D01*
X139066295Y-112326900D01*
X138933705Y-112326900D01*
X138803664Y-112352767D01*
X138681168Y-112403506D01*
X138625000Y-112441036D01*
X138568832Y-112403506D01*
X138446336Y-112352767D01*
X138316295Y-112326900D01*
X138183705Y-112326900D01*
X138053664Y-112352767D01*
X137931168Y-112403506D01*
X137875000Y-112441036D01*
X137818832Y-112403506D01*
X137696336Y-112352767D01*
X137566295Y-112326900D01*
X137433705Y-112326900D01*
X137303664Y-112352767D01*
X137181168Y-112403506D01*
X137070924Y-112477169D01*
X136977169Y-112570924D01*
X136903506Y-112681168D01*
X136852767Y-112803664D01*
X136826900Y-112933705D01*
X136826900Y-113066295D01*
X136852767Y-113196336D01*
X136855867Y-113203821D01*
X136820924Y-113227169D01*
X136727169Y-113320924D01*
X136653506Y-113431168D01*
X136602767Y-113553664D01*
X136576900Y-113683705D01*
X136576900Y-113816295D01*
X136602767Y-113946336D01*
X136653506Y-114068832D01*
X136727169Y-114179076D01*
X136820924Y-114272831D01*
X136931168Y-114346494D01*
X137053664Y-114397233D01*
X137183705Y-114423100D01*
X137316295Y-114423100D01*
X137446336Y-114397233D01*
X137568832Y-114346494D01*
X137679076Y-114272831D01*
X137772831Y-114179076D01*
X137846494Y-114068832D01*
X137897233Y-113946336D01*
X137923100Y-113816295D01*
X137923100Y-113683705D01*
X137901857Y-113576909D01*
X137931168Y-113596494D01*
X138053664Y-113647233D01*
X138183705Y-113673100D01*
X138316295Y-113673100D01*
X138446336Y-113647233D01*
X138568832Y-113596494D01*
X138625000Y-113558964D01*
X138681168Y-113596494D01*
X138803664Y-113647233D01*
X138933705Y-113673100D01*
X139066295Y-113673100D01*
X139196336Y-113647233D01*
X139318832Y-113596494D01*
X139429076Y-113522831D01*
X139436500Y-113515407D01*
X139436500Y-118110682D01*
X136514816Y-118110682D01*
X129087839Y-110683705D01*
X137576900Y-110683705D01*
X137576900Y-110816295D01*
X137602767Y-110946336D01*
X137653506Y-111068832D01*
X137727169Y-111179076D01*
X137820924Y-111272831D01*
X137931168Y-111346494D01*
X138053664Y-111397233D01*
X138183705Y-111423100D01*
X138316295Y-111423100D01*
X138446336Y-111397233D01*
X138568832Y-111346494D01*
X138679076Y-111272831D01*
X138772831Y-111179076D01*
X138846494Y-111068832D01*
X138897233Y-110946336D01*
X138923100Y-110816295D01*
X138923100Y-110683705D01*
X138897233Y-110553664D01*
X138846494Y-110431168D01*
X138772831Y-110320924D01*
X138679076Y-110227169D01*
X138568832Y-110153506D01*
X138446336Y-110102767D01*
X138316295Y-110076900D01*
X138183705Y-110076900D01*
X138053664Y-110102767D01*
X137931168Y-110153506D01*
X137820924Y-110227169D01*
X137727169Y-110320924D01*
X137653506Y-110431168D01*
X137602767Y-110553664D01*
X137576900Y-110683705D01*
X129087839Y-110683705D01*
X128681960Y-110277827D01*
X128665983Y-110258359D01*
X128588301Y-110194607D01*
X128499675Y-110147235D01*
X128403510Y-110118064D01*
X128328559Y-110110682D01*
X128328549Y-110110682D01*
X128303501Y-110108215D01*
X128278453Y-110110682D01*
X128077527Y-110110682D01*
X128022831Y-110028824D01*
X127929076Y-109935069D01*
X127818832Y-109861406D01*
X127696336Y-109810667D01*
X127566295Y-109784800D01*
X127433705Y-109784800D01*
X127303664Y-109810667D01*
X127181168Y-109861406D01*
X127070924Y-109935069D01*
X126977169Y-110028824D01*
X126903506Y-110139068D01*
X126852767Y-110261564D01*
X126826900Y-110391605D01*
X126826900Y-110524195D01*
X126852767Y-110654236D01*
X126892433Y-110750000D01*
X126852767Y-110845764D01*
X126826900Y-110975805D01*
X126826900Y-111108395D01*
X126852767Y-111238436D01*
X126903506Y-111360932D01*
X126977169Y-111471176D01*
X127070924Y-111564931D01*
X127181168Y-111638594D01*
X127303664Y-111689333D01*
X127433705Y-111715200D01*
X127566295Y-111715200D01*
X127696336Y-111689333D01*
X127818832Y-111638594D01*
X127929076Y-111564931D01*
X128022831Y-111471176D01*
X128040540Y-111444673D01*
X132736789Y-116140922D01*
X132666295Y-116126900D01*
X132533705Y-116126900D01*
X132403664Y-116152767D01*
X132281168Y-116203506D01*
X132170924Y-116277169D01*
X132077169Y-116370924D01*
X132003506Y-116481168D01*
X131952767Y-116603664D01*
X131926900Y-116733705D01*
X131926900Y-116866295D01*
X131952767Y-116996336D01*
X132003506Y-117118832D01*
X132077169Y-117229076D01*
X132170924Y-117322831D01*
X132281168Y-117396494D01*
X132403664Y-117447233D01*
X132533705Y-117473100D01*
X132666295Y-117473100D01*
X132796336Y-117447233D01*
X132918832Y-117396494D01*
X133029076Y-117322831D01*
X133050000Y-117301907D01*
X133070924Y-117322831D01*
X133181168Y-117396494D01*
X133303664Y-117447233D01*
X133433705Y-117473100D01*
X133566295Y-117473100D01*
X133696336Y-117447233D01*
X133818832Y-117396494D01*
X133922854Y-117326988D01*
X135818045Y-119222179D01*
X135834017Y-119241641D01*
X135911699Y-119305393D01*
X136000325Y-119352765D01*
X136096490Y-119381936D01*
X136171441Y-119389318D01*
X136171450Y-119389318D01*
X136196498Y-119391785D01*
X136221546Y-119389318D01*
X139436500Y-119389318D01*
X139436500Y-123750000D01*
X139437720Y-123762388D01*
X139441334Y-123774300D01*
X139447202Y-123785279D01*
X139455099Y-123794901D01*
X139464721Y-123802798D01*
X139475700Y-123808666D01*
X139487612Y-123812280D01*
X139500000Y-123813500D01*
X140203604Y-123813500D01*
X140312858Y-123977009D01*
X140722991Y-124387142D01*
X141205256Y-124709382D01*
X141741121Y-124931344D01*
X142309992Y-125044500D01*
X142890008Y-125044500D01*
X143458879Y-124931344D01*
X143994744Y-124709382D01*
X144477009Y-124387142D01*
X144887142Y-123977009D01*
X144996396Y-123813500D01*
X146153350Y-123813500D01*
X146153350Y-124910000D01*
X146161932Y-124997137D01*
X146187349Y-125080926D01*
X146228624Y-125158145D01*
X146284171Y-125225829D01*
X146351855Y-125281376D01*
X146429074Y-125322651D01*
X146512863Y-125348068D01*
X146600000Y-125356650D01*
X146800000Y-125356650D01*
X146887137Y-125348068D01*
X146900000Y-125344166D01*
X146912863Y-125348068D01*
X147000000Y-125356650D01*
X147200000Y-125356650D01*
X147287137Y-125348068D01*
X147300000Y-125344166D01*
X147312863Y-125348068D01*
X147400000Y-125356650D01*
X147600000Y-125356650D01*
X147687137Y-125348068D01*
X147700000Y-125344166D01*
X147712863Y-125348068D01*
X147800000Y-125356650D01*
X148000000Y-125356650D01*
X148087137Y-125348068D01*
X148100000Y-125344166D01*
X148112863Y-125348068D01*
X148200000Y-125356650D01*
X148400000Y-125356650D01*
X148487137Y-125348068D01*
X148500000Y-125344166D01*
X148512863Y-125348068D01*
X148600000Y-125356650D01*
X148800000Y-125356650D01*
X148887137Y-125348068D01*
X148900000Y-125344166D01*
X148912863Y-125348068D01*
X149000000Y-125356650D01*
X149200000Y-125356650D01*
X149287137Y-125348068D01*
X149300000Y-125344166D01*
X149312863Y-125348068D01*
X149400000Y-125356650D01*
X149600000Y-125356650D01*
X149687137Y-125348068D01*
X149700000Y-125344166D01*
X149712863Y-125348068D01*
X149800000Y-125356650D01*
X150000000Y-125356650D01*
X150087137Y-125348068D01*
X150100000Y-125344166D01*
X150112863Y-125348068D01*
X150200000Y-125356650D01*
X150400000Y-125356650D01*
X150487137Y-125348068D01*
X150500000Y-125344166D01*
X150512863Y-125348068D01*
X150600000Y-125356650D01*
X150800000Y-125356650D01*
X150887137Y-125348068D01*
X150900000Y-125344166D01*
X150912863Y-125348068D01*
X151000000Y-125356650D01*
X151200000Y-125356650D01*
X151287137Y-125348068D01*
X151300000Y-125344166D01*
X151312863Y-125348068D01*
X151400000Y-125356650D01*
X151600000Y-125356650D01*
X151687137Y-125348068D01*
X151700000Y-125344166D01*
X151712863Y-125348068D01*
X151800000Y-125356650D01*
X152000000Y-125356650D01*
X152087137Y-125348068D01*
X152100000Y-125344166D01*
X152112863Y-125348068D01*
X152200000Y-125356650D01*
X152400000Y-125356650D01*
X152487137Y-125348068D01*
X152500000Y-125344166D01*
X152512863Y-125348068D01*
X152600000Y-125356650D01*
X152800000Y-125356650D01*
X152887137Y-125348068D01*
X152900000Y-125344166D01*
X152912863Y-125348068D01*
X153000000Y-125356650D01*
X153200000Y-125356650D01*
X153287137Y-125348068D01*
X153300000Y-125344166D01*
X153312863Y-125348068D01*
X153400000Y-125356650D01*
X153600000Y-125356650D01*
X153687137Y-125348068D01*
X153700000Y-125344166D01*
X153712863Y-125348068D01*
X153800000Y-125356650D01*
X154000000Y-125356650D01*
X154087137Y-125348068D01*
X154100000Y-125344166D01*
X154112863Y-125348068D01*
X154200000Y-125356650D01*
X154400000Y-125356650D01*
X154487137Y-125348068D01*
X154500000Y-125344166D01*
X154512863Y-125348068D01*
X154600000Y-125356650D01*
X154800000Y-125356650D01*
X154887137Y-125348068D01*
X154900000Y-125344166D01*
X154912863Y-125348068D01*
X155000000Y-125356650D01*
X155200000Y-125356650D01*
X155287137Y-125348068D01*
X155300000Y-125344166D01*
X155312863Y-125348068D01*
X155400000Y-125356650D01*
X155600000Y-125356650D01*
X155687137Y-125348068D01*
X155770926Y-125322651D01*
X155848145Y-125281376D01*
X155915829Y-125225829D01*
X155971376Y-125158145D01*
X156012651Y-125080926D01*
X156038068Y-124997137D01*
X156046650Y-124910000D01*
X156046650Y-124326694D01*
X156063231Y-124272034D01*
X156071500Y-124188074D01*
X156071500Y-123813500D01*
X156953350Y-123813500D01*
X156953350Y-124910000D01*
X156961932Y-124997137D01*
X156987349Y-125080926D01*
X157028624Y-125158145D01*
X157084171Y-125225829D01*
X157151855Y-125281376D01*
X157229074Y-125322651D01*
X157312863Y-125348068D01*
X157400000Y-125356650D01*
X157600000Y-125356650D01*
X157686500Y-125348131D01*
X157686500Y-125480500D01*
X125063500Y-125480500D01*
X125063500Y-109101956D01*
X125105285Y-109084648D01*
X125210845Y-109014115D01*
X125300615Y-108924345D01*
X125371148Y-108818785D01*
X125419732Y-108701494D01*
X125444500Y-108576978D01*
X125444500Y-108450022D01*
X125419732Y-108325506D01*
X125388456Y-108250000D01*
X125419732Y-108174494D01*
X125444500Y-108049978D01*
X125444500Y-107923022D01*
X125419732Y-107798506D01*
X125371148Y-107681215D01*
X125300615Y-107575655D01*
X125210845Y-107485885D01*
X125105285Y-107415352D01*
X125063500Y-107398044D01*
X125063500Y-105833705D01*
X126826900Y-105833705D01*
X126826900Y-105966295D01*
X126852767Y-106096336D01*
X126903506Y-106218832D01*
X126977169Y-106329076D01*
X127070924Y-106422831D01*
X127181168Y-106496494D01*
X127303664Y-106547233D01*
X127433705Y-106573100D01*
X127566295Y-106573100D01*
X127696336Y-106547233D01*
X127818832Y-106496494D01*
X127929076Y-106422831D01*
X128022831Y-106329076D01*
X128096494Y-106218832D01*
X128147233Y-106096336D01*
X128173100Y-105966295D01*
X128173100Y-105833705D01*
X128147233Y-105703664D01*
X128096494Y-105581168D01*
X128022831Y-105470924D01*
X127929076Y-105377169D01*
X127818832Y-105303506D01*
X127696336Y-105252767D01*
X127566295Y-105226900D01*
X127433705Y-105226900D01*
X127303664Y-105252767D01*
X127181168Y-105303506D01*
X127070924Y-105377169D01*
X126977169Y-105470924D01*
X126903506Y-105581168D01*
X126852767Y-105703664D01*
X126826900Y-105833705D01*
X125063500Y-105833705D01*
X125063500Y-101033705D01*
X125526900Y-101033705D01*
X125526900Y-101166295D01*
X125552767Y-101296336D01*
X125603506Y-101418832D01*
X125677169Y-101529076D01*
X125770924Y-101622831D01*
X125881168Y-101696494D01*
X126003664Y-101747233D01*
X126133705Y-101773100D01*
X126266295Y-101773100D01*
X126396336Y-101747233D01*
X126518832Y-101696494D01*
X126629076Y-101622831D01*
X126722831Y-101529076D01*
X126793642Y-101423100D01*
X126816295Y-101423100D01*
X126946336Y-101397233D01*
X127000000Y-101375005D01*
X127053664Y-101397233D01*
X127183705Y-101423100D01*
X127316295Y-101423100D01*
X127446336Y-101397233D01*
X127500000Y-101375005D01*
X127553664Y-101397233D01*
X127683705Y-101423100D01*
X127816295Y-101423100D01*
X127946336Y-101397233D01*
X128068832Y-101346494D01*
X128179076Y-101272831D01*
X128272831Y-101179076D01*
X128346494Y-101068832D01*
X128397233Y-100946336D01*
X128423100Y-100816295D01*
X128423100Y-100683705D01*
X128397233Y-100553664D01*
X128375005Y-100500000D01*
X128397233Y-100446336D01*
X128423100Y-100316295D01*
X128423100Y-100183705D01*
X128397233Y-100053664D01*
X128375005Y-100000000D01*
X128397233Y-99946336D01*
X128423100Y-99816295D01*
X128423100Y-99683705D01*
X128397233Y-99553664D01*
X128346494Y-99431168D01*
X128272831Y-99320924D01*
X128179076Y-99227169D01*
X128068832Y-99153506D01*
X127946336Y-99102767D01*
X127816295Y-99076900D01*
X127683705Y-99076900D01*
X127553664Y-99102767D01*
X127500000Y-99124995D01*
X127446336Y-99102767D01*
X127316295Y-99076900D01*
X127183705Y-99076900D01*
X127053664Y-99102767D01*
X127000000Y-99124995D01*
X126946336Y-99102767D01*
X126816295Y-99076900D01*
X126683705Y-99076900D01*
X126553664Y-99102767D01*
X126431168Y-99153506D01*
X126320924Y-99227169D01*
X126227169Y-99320924D01*
X126153506Y-99431168D01*
X126102767Y-99553664D01*
X126076900Y-99683705D01*
X126076900Y-99816295D01*
X126102767Y-99946336D01*
X126124995Y-100000000D01*
X126102767Y-100053664D01*
X126076900Y-100183705D01*
X126076900Y-100316295D01*
X126100226Y-100433560D01*
X126003664Y-100452767D01*
X125881168Y-100503506D01*
X125770924Y-100577169D01*
X125677169Y-100670924D01*
X125603506Y-100781168D01*
X125552767Y-100903664D01*
X125526900Y-101033705D01*
X125063500Y-101033705D01*
X125063500Y-98284689D01*
X125081168Y-98296494D01*
X125203664Y-98347233D01*
X125333705Y-98373100D01*
X125466295Y-98373100D01*
X125596336Y-98347233D01*
X125718832Y-98296494D01*
X125829076Y-98222831D01*
X125922831Y-98129076D01*
X125996494Y-98018832D01*
X126047233Y-97896336D01*
X126073100Y-97766295D01*
X126073100Y-97633705D01*
X126726900Y-97633705D01*
X126726900Y-97766295D01*
X126752767Y-97896336D01*
X126803506Y-98018832D01*
X126877169Y-98129076D01*
X126970924Y-98222831D01*
X127081168Y-98296494D01*
X127203664Y-98347233D01*
X127333705Y-98373100D01*
X127466295Y-98373100D01*
X127596336Y-98347233D01*
X127718832Y-98296494D01*
X127829076Y-98222831D01*
X127922831Y-98129076D01*
X127996494Y-98018832D01*
X128047233Y-97896336D01*
X128073100Y-97766295D01*
X128073100Y-97633705D01*
X128726900Y-97633705D01*
X128726900Y-97766295D01*
X128752767Y-97896336D01*
X128803506Y-98018832D01*
X128877169Y-98129076D01*
X128970924Y-98222831D01*
X129081168Y-98296494D01*
X129203664Y-98347233D01*
X129333705Y-98373100D01*
X129466295Y-98373100D01*
X129596336Y-98347233D01*
X129718832Y-98296494D01*
X129829076Y-98222831D01*
X129922831Y-98129076D01*
X129996494Y-98018832D01*
X130047233Y-97896336D01*
X130073100Y-97766295D01*
X130073100Y-97633705D01*
X130047233Y-97503664D01*
X129996494Y-97381168D01*
X129922831Y-97270924D01*
X129829076Y-97177169D01*
X129718832Y-97103506D01*
X129596336Y-97052767D01*
X129466295Y-97026900D01*
X129333705Y-97026900D01*
X129203664Y-97052767D01*
X129081168Y-97103506D01*
X128970924Y-97177169D01*
X128877169Y-97270924D01*
X128803506Y-97381168D01*
X128752767Y-97503664D01*
X128726900Y-97633705D01*
X128073100Y-97633705D01*
X128047233Y-97503664D01*
X127996494Y-97381168D01*
X127922831Y-97270924D01*
X127829076Y-97177169D01*
X127718832Y-97103506D01*
X127596336Y-97052767D01*
X127466295Y-97026900D01*
X127333705Y-97026900D01*
X127203664Y-97052767D01*
X127081168Y-97103506D01*
X126970924Y-97177169D01*
X126877169Y-97270924D01*
X126803506Y-97381168D01*
X126752767Y-97503664D01*
X126726900Y-97633705D01*
X126073100Y-97633705D01*
X126047233Y-97503664D01*
X125996494Y-97381168D01*
X125922831Y-97270924D01*
X125829076Y-97177169D01*
X125718832Y-97103506D01*
X125596336Y-97052767D01*
X125466295Y-97026900D01*
X125333705Y-97026900D01*
X125203664Y-97052767D01*
X125081168Y-97103506D01*
X125063500Y-97115311D01*
X125063500Y-95313500D01*
X125250810Y-95313500D01*
X125226900Y-95433705D01*
G36*
X140215710Y-123374430D02*
G01*
X140510152Y-123815094D01*
X140884906Y-124189848D01*
X141325570Y-124484290D01*
X141815210Y-124687105D01*
X142335009Y-124790500D01*
X142864991Y-124790500D01*
X143384790Y-124687105D01*
X143874430Y-124484290D01*
X144315094Y-124189848D01*
X144689848Y-123815094D01*
X144984290Y-123374430D01*
X145009528Y-123313500D01*
X146220803Y-123313500D01*
X146232839Y-123325536D01*
X146301482Y-123371402D01*
X146377753Y-123402994D01*
X146408663Y-123409143D01*
X146408579Y-123410000D01*
X146408579Y-124910000D01*
X146412257Y-124947344D01*
X146423150Y-124983254D01*
X146440839Y-125016348D01*
X146464645Y-125045355D01*
X146493652Y-125069161D01*
X146526746Y-125086850D01*
X146562656Y-125097743D01*
X146600000Y-125101421D01*
X146800000Y-125101421D01*
X146837344Y-125097743D01*
X146873254Y-125086850D01*
X146900000Y-125072554D01*
X146926746Y-125086850D01*
X146962656Y-125097743D01*
X147000000Y-125101421D01*
X147200000Y-125101421D01*
X147237344Y-125097743D01*
X147273254Y-125086850D01*
X147300000Y-125072554D01*
X147326746Y-125086850D01*
X147362656Y-125097743D01*
X147400000Y-125101421D01*
X147600000Y-125101421D01*
X147637344Y-125097743D01*
X147673254Y-125086850D01*
X147700000Y-125072554D01*
X147726746Y-125086850D01*
X147762656Y-125097743D01*
X147800000Y-125101421D01*
X148000000Y-125101421D01*
X148037344Y-125097743D01*
X148073254Y-125086850D01*
X148100000Y-125072554D01*
X148126746Y-125086850D01*
X148162656Y-125097743D01*
X148200000Y-125101421D01*
X148400000Y-125101421D01*
X148437344Y-125097743D01*
X148473254Y-125086850D01*
X148500000Y-125072554D01*
X148526746Y-125086850D01*
X148562656Y-125097743D01*
X148600000Y-125101421D01*
X148800000Y-125101421D01*
X148837344Y-125097743D01*
X148873254Y-125086850D01*
X148900000Y-125072554D01*
X148926746Y-125086850D01*
X148962656Y-125097743D01*
X149000000Y-125101421D01*
X149200000Y-125101421D01*
X149237344Y-125097743D01*
X149273254Y-125086850D01*
X149300000Y-125072554D01*
X149326746Y-125086850D01*
X149362656Y-125097743D01*
X149400000Y-125101421D01*
X149600000Y-125101421D01*
X149637344Y-125097743D01*
X149673254Y-125086850D01*
X149700000Y-125072554D01*
X149726746Y-125086850D01*
X149762656Y-125097743D01*
X149800000Y-125101421D01*
X150000000Y-125101421D01*
X150037344Y-125097743D01*
X150073254Y-125086850D01*
X150100000Y-125072554D01*
X150126746Y-125086850D01*
X150162656Y-125097743D01*
X150200000Y-125101421D01*
X150400000Y-125101421D01*
X150437344Y-125097743D01*
X150473254Y-125086850D01*
X150500000Y-125072554D01*
X150526746Y-125086850D01*
X150562656Y-125097743D01*
X150600000Y-125101421D01*
X150800000Y-125101421D01*
X150837344Y-125097743D01*
X150873254Y-125086850D01*
X150900000Y-125072554D01*
X150926746Y-125086850D01*
X150962656Y-125097743D01*
X151000000Y-125101421D01*
X151200000Y-125101421D01*
X151237344Y-125097743D01*
X151273254Y-125086850D01*
X151300000Y-125072554D01*
X151326746Y-125086850D01*
X151362656Y-125097743D01*
X151400000Y-125101421D01*
X151600000Y-125101421D01*
X151637344Y-125097743D01*
X151673254Y-125086850D01*
X151700000Y-125072554D01*
X151726746Y-125086850D01*
X151762656Y-125097743D01*
X151800000Y-125101421D01*
X152000000Y-125101421D01*
X152037344Y-125097743D01*
X152073254Y-125086850D01*
X152100000Y-125072554D01*
X152126746Y-125086850D01*
X152162656Y-125097743D01*
X152200000Y-125101421D01*
X152400000Y-125101421D01*
X152437344Y-125097743D01*
X152473254Y-125086850D01*
X152500000Y-125072554D01*
X152526746Y-125086850D01*
X152562656Y-125097743D01*
X152600000Y-125101421D01*
X152800000Y-125101421D01*
X152837344Y-125097743D01*
X152873254Y-125086850D01*
X152900000Y-125072554D01*
X152926746Y-125086850D01*
X152962656Y-125097743D01*
X153000000Y-125101421D01*
X153200000Y-125101421D01*
X153237344Y-125097743D01*
X153273254Y-125086850D01*
X153300000Y-125072554D01*
X153326746Y-125086850D01*
X153362656Y-125097743D01*
X153400000Y-125101421D01*
X153600000Y-125101421D01*
X153637344Y-125097743D01*
X153673254Y-125086850D01*
X153700000Y-125072554D01*
X153726746Y-125086850D01*
X153762656Y-125097743D01*
X153800000Y-125101421D01*
X154000000Y-125101421D01*
X154037344Y-125097743D01*
X154073254Y-125086850D01*
X154100000Y-125072554D01*
X154126746Y-125086850D01*
X154162656Y-125097743D01*
X154200000Y-125101421D01*
X154400000Y-125101421D01*
X154437344Y-125097743D01*
X154473254Y-125086850D01*
X154500000Y-125072554D01*
X154526746Y-125086850D01*
X154562656Y-125097743D01*
X154600000Y-125101421D01*
X154800000Y-125101421D01*
X154837344Y-125097743D01*
X154873254Y-125086850D01*
X154900000Y-125072554D01*
X154926746Y-125086850D01*
X154962656Y-125097743D01*
X155000000Y-125101421D01*
X155200000Y-125101421D01*
X155237344Y-125097743D01*
X155273254Y-125086850D01*
X155300000Y-125072554D01*
X155326746Y-125086850D01*
X155362656Y-125097743D01*
X155400000Y-125101421D01*
X155600000Y-125101421D01*
X155637344Y-125097743D01*
X155673254Y-125086850D01*
X155706348Y-125069161D01*
X155735355Y-125045355D01*
X155759161Y-125016348D01*
X155776850Y-124983254D01*
X155787743Y-124947344D01*
X155791421Y-124910000D01*
X155791421Y-124288320D01*
X155794751Y-124282090D01*
X155812906Y-124222241D01*
X155817500Y-124175596D01*
X155817500Y-123358719D01*
X155867161Y-123325536D01*
X155879197Y-123313500D01*
X157235575Y-123313500D01*
X157223150Y-123336746D01*
X157212257Y-123372656D01*
X157208579Y-123410000D01*
X157208579Y-124910000D01*
X157212257Y-124947344D01*
X157223150Y-124983254D01*
X157240839Y-125016348D01*
X157264645Y-125045355D01*
X157293652Y-125069161D01*
X157326746Y-125086850D01*
X157362656Y-125097743D01*
X157400000Y-125101421D01*
X157600000Y-125101421D01*
X157637344Y-125097743D01*
X157673254Y-125086850D01*
X157686500Y-125079770D01*
X157686500Y-125734500D01*
X136563500Y-125734500D01*
X136563500Y-123313500D01*
X140190472Y-123313500D01*
X140215710Y-123374430D01*
G37*
X140215710Y-123374430D02*
X140510152Y-123815094D01*
X140884906Y-124189848D01*
X141325570Y-124484290D01*
X141815210Y-124687105D01*
X142335009Y-124790500D01*
X142864991Y-124790500D01*
X143384790Y-124687105D01*
X143874430Y-124484290D01*
X144315094Y-124189848D01*
X144689848Y-123815094D01*
X144984290Y-123374430D01*
X145009528Y-123313500D01*
X146220803Y-123313500D01*
X146232839Y-123325536D01*
X146301482Y-123371402D01*
X146377753Y-123402994D01*
X146408663Y-123409143D01*
X146408579Y-123410000D01*
X146408579Y-124910000D01*
X146412257Y-124947344D01*
X146423150Y-124983254D01*
X146440839Y-125016348D01*
X146464645Y-125045355D01*
X146493652Y-125069161D01*
X146526746Y-125086850D01*
X146562656Y-125097743D01*
X146600000Y-125101421D01*
X146800000Y-125101421D01*
X146837344Y-125097743D01*
X146873254Y-125086850D01*
X146900000Y-125072554D01*
X146926746Y-125086850D01*
X146962656Y-125097743D01*
X147000000Y-125101421D01*
X147200000Y-125101421D01*
X147237344Y-125097743D01*
X147273254Y-125086850D01*
X147300000Y-125072554D01*
X147326746Y-125086850D01*
X147362656Y-125097743D01*
X147400000Y-125101421D01*
X147600000Y-125101421D01*
X147637344Y-125097743D01*
X147673254Y-125086850D01*
X147700000Y-125072554D01*
X147726746Y-125086850D01*
X147762656Y-125097743D01*
X147800000Y-125101421D01*
X148000000Y-125101421D01*
X148037344Y-125097743D01*
X148073254Y-125086850D01*
X148100000Y-125072554D01*
X148126746Y-125086850D01*
X148162656Y-125097743D01*
X148200000Y-125101421D01*
X148400000Y-125101421D01*
X148437344Y-125097743D01*
X148473254Y-125086850D01*
X148500000Y-125072554D01*
X148526746Y-125086850D01*
X148562656Y-125097743D01*
X148600000Y-125101421D01*
X148800000Y-125101421D01*
X148837344Y-125097743D01*
X148873254Y-125086850D01*
X148900000Y-125072554D01*
X148926746Y-125086850D01*
X148962656Y-125097743D01*
X149000000Y-125101421D01*
X149200000Y-125101421D01*
X149237344Y-125097743D01*
X149273254Y-125086850D01*
X149300000Y-125072554D01*
X149326746Y-125086850D01*
X149362656Y-125097743D01*
X149400000Y-125101421D01*
X149600000Y-125101421D01*
X149637344Y-125097743D01*
X149673254Y-125086850D01*
X149700000Y-125072554D01*
X149726746Y-125086850D01*
X149762656Y-125097743D01*
X149800000Y-125101421D01*
X150000000Y-125101421D01*
X150037344Y-125097743D01*
X150073254Y-125086850D01*
X150100000Y-125072554D01*
X150126746Y-125086850D01*
X150162656Y-125097743D01*
X150200000Y-125101421D01*
X150400000Y-125101421D01*
X150437344Y-125097743D01*
X150473254Y-125086850D01*
X150500000Y-125072554D01*
X150526746Y-125086850D01*
X150562656Y-125097743D01*
X150600000Y-125101421D01*
X150800000Y-125101421D01*
X150837344Y-125097743D01*
X150873254Y-125086850D01*
X150900000Y-125072554D01*
X150926746Y-125086850D01*
X150962656Y-125097743D01*
X151000000Y-125101421D01*
X151200000Y-125101421D01*
X151237344Y-125097743D01*
X151273254Y-125086850D01*
X151300000Y-125072554D01*
X151326746Y-125086850D01*
X151362656Y-125097743D01*
X151400000Y-125101421D01*
X151600000Y-125101421D01*
X151637344Y-125097743D01*
X151673254Y-125086850D01*
X151700000Y-125072554D01*
X151726746Y-125086850D01*
X151762656Y-125097743D01*
X151800000Y-125101421D01*
X152000000Y-125101421D01*
X152037344Y-125097743D01*
X152073254Y-125086850D01*
X152100000Y-125072554D01*
X152126746Y-125086850D01*
X152162656Y-125097743D01*
X152200000Y-125101421D01*
X152400000Y-125101421D01*
X152437344Y-125097743D01*
X152473254Y-125086850D01*
X152500000Y-125072554D01*
X152526746Y-125086850D01*
X152562656Y-125097743D01*
X152600000Y-125101421D01*
X152800000Y-125101421D01*
X152837344Y-125097743D01*
X152873254Y-125086850D01*
X152900000Y-125072554D01*
X152926746Y-125086850D01*
X152962656Y-125097743D01*
X153000000Y-125101421D01*
X153200000Y-125101421D01*
X153237344Y-125097743D01*
X153273254Y-125086850D01*
X153300000Y-125072554D01*
X153326746Y-125086850D01*
X153362656Y-125097743D01*
X153400000Y-125101421D01*
X153600000Y-125101421D01*
X153637344Y-125097743D01*
X153673254Y-125086850D01*
X153700000Y-125072554D01*
X153726746Y-125086850D01*
X153762656Y-125097743D01*
X153800000Y-125101421D01*
X154000000Y-125101421D01*
X154037344Y-125097743D01*
X154073254Y-125086850D01*
X154100000Y-125072554D01*
X154126746Y-125086850D01*
X154162656Y-125097743D01*
X154200000Y-125101421D01*
X154400000Y-125101421D01*
X154437344Y-125097743D01*
X154473254Y-125086850D01*
X154500000Y-125072554D01*
X154526746Y-125086850D01*
X154562656Y-125097743D01*
X154600000Y-125101421D01*
X154800000Y-125101421D01*
X154837344Y-125097743D01*
X154873254Y-125086850D01*
X154900000Y-125072554D01*
X154926746Y-125086850D01*
X154962656Y-125097743D01*
X155000000Y-125101421D01*
X155200000Y-125101421D01*
X155237344Y-125097743D01*
X155273254Y-125086850D01*
X155300000Y-125072554D01*
X155326746Y-125086850D01*
X155362656Y-125097743D01*
X155400000Y-125101421D01*
X155600000Y-125101421D01*
X155637344Y-125097743D01*
X155673254Y-125086850D01*
X155706348Y-125069161D01*
X155735355Y-125045355D01*
X155759161Y-125016348D01*
X155776850Y-124983254D01*
X155787743Y-124947344D01*
X155791421Y-124910000D01*
X155791421Y-124288320D01*
X155794751Y-124282090D01*
X155812906Y-124222241D01*
X155817500Y-124175596D01*
X155817500Y-123358719D01*
X155867161Y-123325536D01*
X155879197Y-123313500D01*
X157235575Y-123313500D01*
X157223150Y-123336746D01*
X157212257Y-123372656D01*
X157208579Y-123410000D01*
X157208579Y-124910000D01*
X157212257Y-124947344D01*
X157223150Y-124983254D01*
X157240839Y-125016348D01*
X157264645Y-125045355D01*
X157293652Y-125069161D01*
X157326746Y-125086850D01*
X157362656Y-125097743D01*
X157400000Y-125101421D01*
X157600000Y-125101421D01*
X157637344Y-125097743D01*
X157673254Y-125086850D01*
X157686500Y-125079770D01*
X157686500Y-125734500D01*
X136563500Y-125734500D01*
X136563500Y-123313500D01*
X140190472Y-123313500D01*
X140215710Y-123374430D01*
M02*
