G04 #@! TF.GenerationSoftware,KiCad,Pcbnew,(5.1.5-0-10_14)*
G04 #@! TF.CreationDate,2020-04-12T13:28:57-07:00*
G04 #@! TF.ProjectId,kimchi_usb_ulid,6b696d63-6869-45f7-9573-625f756c6964,v0.1*
G04 #@! TF.SameCoordinates,Original*
G04 #@! TF.FileFunction,Soldermask,Top*
G04 #@! TF.FilePolarity,Negative*
%FSLAX46Y46*%
G04 Gerber Fmt 4.6, Leading zero omitted, Abs format (unit mm)*
G04 Created by KiCad (PCBNEW (5.1.5-0-10_14)) date 2020-04-12 13:28:57*
%MOMM*%
%LPD*%
G04 APERTURE LIST*
%ADD10C,0.100000*%
%ADD11C,0.150000*%
G04 APERTURE END LIST*
D10*
G36*
X155000000Y-117500000D02*
G01*
X140000000Y-117500000D01*
X140000000Y-102500000D01*
X155000000Y-102500000D01*
X155000000Y-117500000D01*
G37*
X155000000Y-117500000D02*
X140000000Y-117500000D01*
X140000000Y-102500000D01*
X155000000Y-102500000D01*
X155000000Y-117500000D01*
D11*
X107000000Y-126000000D02*
X107000000Y-94000000D01*
X172000000Y-126000000D02*
X107000000Y-126000000D01*
X172000000Y-94000000D02*
X172000000Y-126000000D01*
X107000000Y-94000000D02*
X172000000Y-94000000D01*
D10*
G36*
X143344041Y-119647226D02*
G01*
X143808257Y-119839510D01*
X144226042Y-120118665D01*
X144581335Y-120473958D01*
X144860490Y-120891743D01*
X145052774Y-121355959D01*
X145150800Y-121848768D01*
X145150800Y-122351232D01*
X145052774Y-122844041D01*
X144860490Y-123308257D01*
X144581335Y-123726042D01*
X144226042Y-124081335D01*
X143808257Y-124360490D01*
X143344041Y-124552774D01*
X142851232Y-124650800D01*
X142348768Y-124650800D01*
X141855959Y-124552774D01*
X141391743Y-124360490D01*
X140973958Y-124081335D01*
X140618665Y-123726042D01*
X140339510Y-123308257D01*
X140147226Y-122844041D01*
X140049200Y-122351232D01*
X140049200Y-121848768D01*
X140147226Y-121355959D01*
X140339510Y-120891743D01*
X140618665Y-120473958D01*
X140973958Y-120118665D01*
X141391743Y-119839510D01*
X141855959Y-119647226D01*
X142348768Y-119549200D01*
X142851232Y-119549200D01*
X143344041Y-119647226D01*
G37*
G36*
X119194041Y-119647226D02*
G01*
X119658257Y-119839510D01*
X120076042Y-120118665D01*
X120431335Y-120473958D01*
X120710490Y-120891743D01*
X120902774Y-121355959D01*
X121000800Y-121848768D01*
X121000800Y-122351232D01*
X120902774Y-122844041D01*
X120710490Y-123308257D01*
X120431335Y-123726042D01*
X120076042Y-124081335D01*
X119658257Y-124360490D01*
X119194041Y-124552774D01*
X118701232Y-124650800D01*
X118198768Y-124650800D01*
X117705959Y-124552774D01*
X117241743Y-124360490D01*
X116823958Y-124081335D01*
X116468665Y-123726042D01*
X116189510Y-123308257D01*
X115997226Y-122844041D01*
X115899200Y-122351232D01*
X115899200Y-121848768D01*
X115997226Y-121355959D01*
X116189510Y-120891743D01*
X116468665Y-120473958D01*
X116823958Y-120118665D01*
X117241743Y-119839510D01*
X117705959Y-119647226D01*
X118198768Y-119549200D01*
X118701232Y-119549200D01*
X119194041Y-119647226D01*
G37*
G36*
X157382352Y-115218796D02*
G01*
X157664579Y-115335699D01*
X157918578Y-115505415D01*
X158134585Y-115721422D01*
X158304301Y-115975421D01*
X158421204Y-116257648D01*
X158480800Y-116557259D01*
X158480800Y-116862741D01*
X158421204Y-117162352D01*
X158304301Y-117444579D01*
X158134585Y-117698578D01*
X157918578Y-117914585D01*
X157664579Y-118084301D01*
X157382352Y-118201204D01*
X157082741Y-118260800D01*
X156777259Y-118260800D01*
X156477648Y-118201204D01*
X156195421Y-118084301D01*
X155941422Y-117914585D01*
X155725415Y-117698578D01*
X155555699Y-117444579D01*
X155438796Y-117162352D01*
X155379200Y-116862741D01*
X155379200Y-116557259D01*
X155438796Y-116257648D01*
X155555699Y-115975421D01*
X155725415Y-115721422D01*
X155941422Y-115505415D01*
X156195421Y-115335699D01*
X156477648Y-115218796D01*
X156777259Y-115159200D01*
X157082741Y-115159200D01*
X157382352Y-115218796D01*
G37*
G36*
X170522352Y-115218796D02*
G01*
X170804579Y-115335699D01*
X171058578Y-115505415D01*
X171274585Y-115721422D01*
X171444301Y-115975421D01*
X171561204Y-116257648D01*
X171620800Y-116557259D01*
X171620800Y-116862741D01*
X171561204Y-117162352D01*
X171444301Y-117444579D01*
X171274585Y-117698578D01*
X171058578Y-117914585D01*
X170804579Y-118084301D01*
X170522352Y-118201204D01*
X170222741Y-118260800D01*
X169917259Y-118260800D01*
X169617648Y-118201204D01*
X169335421Y-118084301D01*
X169081422Y-117914585D01*
X168865415Y-117698578D01*
X168695699Y-117444579D01*
X168578796Y-117162352D01*
X168519200Y-116862741D01*
X168519200Y-116557259D01*
X168578796Y-116257648D01*
X168695699Y-115975421D01*
X168865415Y-115721422D01*
X169081422Y-115505415D01*
X169335421Y-115335699D01*
X169617648Y-115218796D01*
X169917259Y-115159200D01*
X170222741Y-115159200D01*
X170522352Y-115218796D01*
G37*
G36*
X116742352Y-115078796D02*
G01*
X117024579Y-115195699D01*
X117278578Y-115365415D01*
X117494585Y-115581422D01*
X117664301Y-115835421D01*
X117781204Y-116117648D01*
X117840800Y-116417259D01*
X117840800Y-116722741D01*
X117781204Y-117022352D01*
X117664301Y-117304579D01*
X117494585Y-117558578D01*
X117278578Y-117774585D01*
X117024579Y-117944301D01*
X116742352Y-118061204D01*
X116442741Y-118120800D01*
X116137259Y-118120800D01*
X115837648Y-118061204D01*
X115555421Y-117944301D01*
X115301422Y-117774585D01*
X115085415Y-117558578D01*
X114915699Y-117304579D01*
X114798796Y-117022352D01*
X114739200Y-116722741D01*
X114739200Y-116417259D01*
X114798796Y-116117648D01*
X114915699Y-115835421D01*
X115085415Y-115581422D01*
X115301422Y-115365415D01*
X115555421Y-115195699D01*
X115837648Y-115078796D01*
X116137259Y-115019200D01*
X116442741Y-115019200D01*
X116742352Y-115078796D01*
G37*
G36*
X135752027Y-115142275D02*
G01*
X135779650Y-115150654D01*
X135805113Y-115164264D01*
X135827425Y-115182575D01*
X135845736Y-115204887D01*
X135859346Y-115230350D01*
X135867725Y-115257973D01*
X135870800Y-115289191D01*
X135870800Y-115680809D01*
X135867725Y-115712027D01*
X135859346Y-115739650D01*
X135845736Y-115765113D01*
X135827425Y-115787425D01*
X135805113Y-115805736D01*
X135779650Y-115819346D01*
X135752027Y-115827725D01*
X135720809Y-115830800D01*
X135279191Y-115830800D01*
X135247973Y-115827725D01*
X135220350Y-115819346D01*
X135194887Y-115805736D01*
X135172575Y-115787425D01*
X135154264Y-115765113D01*
X135140654Y-115739650D01*
X135132275Y-115712027D01*
X135129200Y-115680809D01*
X135129200Y-115289191D01*
X135132275Y-115257973D01*
X135140654Y-115230350D01*
X135154264Y-115204887D01*
X135172575Y-115182575D01*
X135194887Y-115164264D01*
X135220350Y-115150654D01*
X135247973Y-115142275D01*
X135279191Y-115139200D01*
X135720809Y-115139200D01*
X135752027Y-115142275D01*
G37*
G36*
X134752027Y-115142275D02*
G01*
X134779650Y-115150654D01*
X134805113Y-115164264D01*
X134827425Y-115182575D01*
X134845736Y-115204887D01*
X134859346Y-115230350D01*
X134867725Y-115257973D01*
X134870800Y-115289191D01*
X134870800Y-115680809D01*
X134867725Y-115712027D01*
X134859346Y-115739650D01*
X134845736Y-115765113D01*
X134827425Y-115787425D01*
X134805113Y-115805736D01*
X134779650Y-115819346D01*
X134752027Y-115827725D01*
X134720809Y-115830800D01*
X134279191Y-115830800D01*
X134247973Y-115827725D01*
X134220350Y-115819346D01*
X134194887Y-115805736D01*
X134172575Y-115787425D01*
X134154264Y-115765113D01*
X134140654Y-115739650D01*
X134132275Y-115712027D01*
X134129200Y-115680809D01*
X134129200Y-115289191D01*
X134132275Y-115257973D01*
X134140654Y-115230350D01*
X134154264Y-115204887D01*
X134172575Y-115182575D01*
X134194887Y-115164264D01*
X134220350Y-115150654D01*
X134247973Y-115142275D01*
X134279191Y-115139200D01*
X134720809Y-115139200D01*
X134752027Y-115142275D01*
G37*
G36*
X132752027Y-115142275D02*
G01*
X132779650Y-115150654D01*
X132805113Y-115164264D01*
X132827425Y-115182575D01*
X132845736Y-115204887D01*
X132859346Y-115230350D01*
X132867725Y-115257973D01*
X132870800Y-115289191D01*
X132870800Y-115680809D01*
X132867725Y-115712027D01*
X132859346Y-115739650D01*
X132845736Y-115765113D01*
X132827425Y-115787425D01*
X132805113Y-115805736D01*
X132779650Y-115819346D01*
X132752027Y-115827725D01*
X132720809Y-115830800D01*
X132279191Y-115830800D01*
X132247973Y-115827725D01*
X132220350Y-115819346D01*
X132194887Y-115805736D01*
X132172575Y-115787425D01*
X132154264Y-115765113D01*
X132140654Y-115739650D01*
X132132275Y-115712027D01*
X132129200Y-115680809D01*
X132129200Y-115289191D01*
X132132275Y-115257973D01*
X132140654Y-115230350D01*
X132154264Y-115204887D01*
X132172575Y-115182575D01*
X132194887Y-115164264D01*
X132220350Y-115150654D01*
X132247973Y-115142275D01*
X132279191Y-115139200D01*
X132720809Y-115139200D01*
X132752027Y-115142275D01*
G37*
G36*
X134752027Y-114172275D02*
G01*
X134779650Y-114180654D01*
X134805113Y-114194264D01*
X134827425Y-114212575D01*
X134845736Y-114234887D01*
X134859346Y-114260350D01*
X134867725Y-114287973D01*
X134870800Y-114319191D01*
X134870800Y-114710809D01*
X134867725Y-114742027D01*
X134859346Y-114769650D01*
X134845736Y-114795113D01*
X134827425Y-114817425D01*
X134805113Y-114835736D01*
X134779650Y-114849346D01*
X134752027Y-114857725D01*
X134720809Y-114860800D01*
X134279191Y-114860800D01*
X134247973Y-114857725D01*
X134220350Y-114849346D01*
X134194887Y-114835736D01*
X134172575Y-114817425D01*
X134154264Y-114795113D01*
X134140654Y-114769650D01*
X134132275Y-114742027D01*
X134129200Y-114710809D01*
X134129200Y-114319191D01*
X134132275Y-114287973D01*
X134140654Y-114260350D01*
X134154264Y-114234887D01*
X134172575Y-114212575D01*
X134194887Y-114194264D01*
X134220350Y-114180654D01*
X134247973Y-114172275D01*
X134279191Y-114169200D01*
X134720809Y-114169200D01*
X134752027Y-114172275D01*
G37*
G36*
X135752027Y-114172275D02*
G01*
X135779650Y-114180654D01*
X135805113Y-114194264D01*
X135827425Y-114212575D01*
X135845736Y-114234887D01*
X135859346Y-114260350D01*
X135867725Y-114287973D01*
X135870800Y-114319191D01*
X135870800Y-114710809D01*
X135867725Y-114742027D01*
X135859346Y-114769650D01*
X135845736Y-114795113D01*
X135827425Y-114817425D01*
X135805113Y-114835736D01*
X135779650Y-114849346D01*
X135752027Y-114857725D01*
X135720809Y-114860800D01*
X135279191Y-114860800D01*
X135247973Y-114857725D01*
X135220350Y-114849346D01*
X135194887Y-114835736D01*
X135172575Y-114817425D01*
X135154264Y-114795113D01*
X135140654Y-114769650D01*
X135132275Y-114742027D01*
X135129200Y-114710809D01*
X135129200Y-114319191D01*
X135132275Y-114287973D01*
X135140654Y-114260350D01*
X135154264Y-114234887D01*
X135172575Y-114212575D01*
X135194887Y-114194264D01*
X135220350Y-114180654D01*
X135247973Y-114172275D01*
X135279191Y-114169200D01*
X135720809Y-114169200D01*
X135752027Y-114172275D01*
G37*
G36*
X132752027Y-114172275D02*
G01*
X132779650Y-114180654D01*
X132805113Y-114194264D01*
X132827425Y-114212575D01*
X132845736Y-114234887D01*
X132859346Y-114260350D01*
X132867725Y-114287973D01*
X132870800Y-114319191D01*
X132870800Y-114710809D01*
X132867725Y-114742027D01*
X132859346Y-114769650D01*
X132845736Y-114795113D01*
X132827425Y-114817425D01*
X132805113Y-114835736D01*
X132779650Y-114849346D01*
X132752027Y-114857725D01*
X132720809Y-114860800D01*
X132279191Y-114860800D01*
X132247973Y-114857725D01*
X132220350Y-114849346D01*
X132194887Y-114835736D01*
X132172575Y-114817425D01*
X132154264Y-114795113D01*
X132140654Y-114769650D01*
X132132275Y-114742027D01*
X132129200Y-114710809D01*
X132129200Y-114319191D01*
X132132275Y-114287973D01*
X132140654Y-114260350D01*
X132154264Y-114234887D01*
X132172575Y-114212575D01*
X132194887Y-114194264D01*
X132220350Y-114180654D01*
X132247973Y-114172275D01*
X132279191Y-114169200D01*
X132720809Y-114169200D01*
X132752027Y-114172275D01*
G37*
G36*
X167248169Y-113181895D02*
G01*
X167403005Y-113246031D01*
X167542354Y-113339140D01*
X167660860Y-113457646D01*
X167753969Y-113596995D01*
X167818105Y-113751831D01*
X167850800Y-113916203D01*
X167850800Y-114083797D01*
X167818105Y-114248169D01*
X167753969Y-114403005D01*
X167660860Y-114542354D01*
X167542354Y-114660860D01*
X167403005Y-114753969D01*
X167248169Y-114818105D01*
X167083797Y-114850800D01*
X166916203Y-114850800D01*
X166751831Y-114818105D01*
X166596995Y-114753969D01*
X166457646Y-114660860D01*
X166339140Y-114542354D01*
X166246031Y-114403005D01*
X166181895Y-114248169D01*
X166149200Y-114083797D01*
X166149200Y-113916203D01*
X166181895Y-113751831D01*
X166246031Y-113596995D01*
X166339140Y-113457646D01*
X166457646Y-113339140D01*
X166596995Y-113246031D01*
X166751831Y-113181895D01*
X166916203Y-113149200D01*
X167083797Y-113149200D01*
X167248169Y-113181895D01*
G37*
G36*
X162748169Y-113181895D02*
G01*
X162903005Y-113246031D01*
X163042354Y-113339140D01*
X163160860Y-113457646D01*
X163253969Y-113596995D01*
X163318105Y-113751831D01*
X163350800Y-113916203D01*
X163350800Y-114083797D01*
X163318105Y-114248169D01*
X163253969Y-114403005D01*
X163160860Y-114542354D01*
X163042354Y-114660860D01*
X162903005Y-114753969D01*
X162748169Y-114818105D01*
X162583797Y-114850800D01*
X162416203Y-114850800D01*
X162251831Y-114818105D01*
X162096995Y-114753969D01*
X161957646Y-114660860D01*
X161839140Y-114542354D01*
X161746031Y-114403005D01*
X161681895Y-114248169D01*
X161649200Y-114083797D01*
X161649200Y-113916203D01*
X161681895Y-113751831D01*
X161746031Y-113596995D01*
X161839140Y-113457646D01*
X161957646Y-113339140D01*
X162096995Y-113246031D01*
X162251831Y-113181895D01*
X162416203Y-113149200D01*
X162583797Y-113149200D01*
X162748169Y-113181895D01*
G37*
G36*
X160850800Y-114850800D02*
G01*
X159149200Y-114850800D01*
X159149200Y-113149200D01*
X160850800Y-113149200D01*
X160850800Y-114850800D01*
G37*
G36*
X164748169Y-113181895D02*
G01*
X164903005Y-113246031D01*
X165042354Y-113339140D01*
X165160860Y-113457646D01*
X165253969Y-113596995D01*
X165318105Y-113751831D01*
X165350800Y-113916203D01*
X165350800Y-114083797D01*
X165318105Y-114248169D01*
X165253969Y-114403005D01*
X165160860Y-114542354D01*
X165042354Y-114660860D01*
X164903005Y-114753969D01*
X164748169Y-114818105D01*
X164583797Y-114850800D01*
X164416203Y-114850800D01*
X164251831Y-114818105D01*
X164096995Y-114753969D01*
X163957646Y-114660860D01*
X163839140Y-114542354D01*
X163746031Y-114403005D01*
X163681895Y-114248169D01*
X163649200Y-114083797D01*
X163649200Y-113916203D01*
X163681895Y-113751831D01*
X163746031Y-113596995D01*
X163839140Y-113457646D01*
X163957646Y-113339140D01*
X164096995Y-113246031D01*
X164251831Y-113181895D01*
X164416203Y-113149200D01*
X164583797Y-113149200D01*
X164748169Y-113181895D01*
G37*
G36*
X119248169Y-112681895D02*
G01*
X119403005Y-112746031D01*
X119542354Y-112839140D01*
X119660860Y-112957646D01*
X119753969Y-113096995D01*
X119818105Y-113251831D01*
X119850800Y-113416203D01*
X119850800Y-113583797D01*
X119818105Y-113748169D01*
X119753969Y-113903005D01*
X119660860Y-114042354D01*
X119542354Y-114160860D01*
X119403005Y-114253969D01*
X119248169Y-114318105D01*
X119083797Y-114350800D01*
X118916203Y-114350800D01*
X118751831Y-114318105D01*
X118596995Y-114253969D01*
X118457646Y-114160860D01*
X118339140Y-114042354D01*
X118246031Y-113903005D01*
X118181895Y-113748169D01*
X118149200Y-113583797D01*
X118149200Y-113416203D01*
X118181895Y-113251831D01*
X118246031Y-113096995D01*
X118339140Y-112957646D01*
X118457646Y-112839140D01*
X118596995Y-112746031D01*
X118751831Y-112681895D01*
X118916203Y-112649200D01*
X119083797Y-112649200D01*
X119248169Y-112681895D01*
G37*
G36*
X133125444Y-112475641D02*
G01*
X133137124Y-112479184D01*
X133147886Y-112484937D01*
X133157320Y-112492680D01*
X133165063Y-112502114D01*
X133170816Y-112512876D01*
X133174359Y-112524556D01*
X133175800Y-112539191D01*
X133175800Y-113335809D01*
X133174359Y-113350444D01*
X133170816Y-113362124D01*
X133165063Y-113372886D01*
X133157320Y-113382320D01*
X133147886Y-113390063D01*
X133137124Y-113395816D01*
X133125444Y-113399359D01*
X133110809Y-113400800D01*
X132889191Y-113400800D01*
X132874556Y-113399359D01*
X132862876Y-113395816D01*
X132852114Y-113390063D01*
X132842680Y-113382320D01*
X132834937Y-113372886D01*
X132829184Y-113362124D01*
X132825641Y-113350444D01*
X132824200Y-113335809D01*
X132824200Y-112539191D01*
X132825641Y-112524556D01*
X132829184Y-112512876D01*
X132834937Y-112502114D01*
X132842680Y-112492680D01*
X132852114Y-112484937D01*
X132862876Y-112479184D01*
X132874556Y-112475641D01*
X132889191Y-112474200D01*
X133110809Y-112474200D01*
X133125444Y-112475641D01*
G37*
G36*
X134125444Y-112475641D02*
G01*
X134137124Y-112479184D01*
X134147886Y-112484937D01*
X134157320Y-112492680D01*
X134165063Y-112502114D01*
X134170816Y-112512876D01*
X134174359Y-112524556D01*
X134175800Y-112539191D01*
X134175800Y-113335809D01*
X134174359Y-113350444D01*
X134170816Y-113362124D01*
X134165063Y-113372886D01*
X134157320Y-113382320D01*
X134147886Y-113390063D01*
X134137124Y-113395816D01*
X134125444Y-113399359D01*
X134110809Y-113400800D01*
X133889191Y-113400800D01*
X133874556Y-113399359D01*
X133862876Y-113395816D01*
X133852114Y-113390063D01*
X133842680Y-113382320D01*
X133834937Y-113372886D01*
X133829184Y-113362124D01*
X133825641Y-113350444D01*
X133824200Y-113335809D01*
X133824200Y-112539191D01*
X133825641Y-112524556D01*
X133829184Y-112512876D01*
X133834937Y-112502114D01*
X133842680Y-112492680D01*
X133852114Y-112484937D01*
X133862876Y-112479184D01*
X133874556Y-112475641D01*
X133889191Y-112474200D01*
X134110809Y-112474200D01*
X134125444Y-112475641D01*
G37*
G36*
X134625444Y-112475641D02*
G01*
X134637124Y-112479184D01*
X134647886Y-112484937D01*
X134657320Y-112492680D01*
X134665063Y-112502114D01*
X134670816Y-112512876D01*
X134674359Y-112524556D01*
X134675800Y-112539191D01*
X134675800Y-113335809D01*
X134674359Y-113350444D01*
X134670816Y-113362124D01*
X134665063Y-113372886D01*
X134657320Y-113382320D01*
X134647886Y-113390063D01*
X134637124Y-113395816D01*
X134625444Y-113399359D01*
X134610809Y-113400800D01*
X134389191Y-113400800D01*
X134374556Y-113399359D01*
X134362876Y-113395816D01*
X134352114Y-113390063D01*
X134342680Y-113382320D01*
X134334937Y-113372886D01*
X134329184Y-113362124D01*
X134325641Y-113350444D01*
X134324200Y-113335809D01*
X134324200Y-112539191D01*
X134325641Y-112524556D01*
X134329184Y-112512876D01*
X134334937Y-112502114D01*
X134342680Y-112492680D01*
X134352114Y-112484937D01*
X134362876Y-112479184D01*
X134374556Y-112475641D01*
X134389191Y-112474200D01*
X134610809Y-112474200D01*
X134625444Y-112475641D01*
G37*
G36*
X135125444Y-112475641D02*
G01*
X135137124Y-112479184D01*
X135147886Y-112484937D01*
X135157320Y-112492680D01*
X135165063Y-112502114D01*
X135170816Y-112512876D01*
X135174359Y-112524556D01*
X135175800Y-112539191D01*
X135175800Y-113335809D01*
X135174359Y-113350444D01*
X135170816Y-113362124D01*
X135165063Y-113372886D01*
X135157320Y-113382320D01*
X135147886Y-113390063D01*
X135137124Y-113395816D01*
X135125444Y-113399359D01*
X135110809Y-113400800D01*
X134889191Y-113400800D01*
X134874556Y-113399359D01*
X134862876Y-113395816D01*
X134852114Y-113390063D01*
X134842680Y-113382320D01*
X134834937Y-113372886D01*
X134829184Y-113362124D01*
X134825641Y-113350444D01*
X134824200Y-113335809D01*
X134824200Y-112539191D01*
X134825641Y-112524556D01*
X134829184Y-112512876D01*
X134834937Y-112502114D01*
X134842680Y-112492680D01*
X134852114Y-112484937D01*
X134862876Y-112479184D01*
X134874556Y-112475641D01*
X134889191Y-112474200D01*
X135110809Y-112474200D01*
X135125444Y-112475641D01*
G37*
G36*
X135625444Y-112475641D02*
G01*
X135637124Y-112479184D01*
X135647886Y-112484937D01*
X135657320Y-112492680D01*
X135665063Y-112502114D01*
X135670816Y-112512876D01*
X135674359Y-112524556D01*
X135675800Y-112539191D01*
X135675800Y-113335809D01*
X135674359Y-113350444D01*
X135670816Y-113362124D01*
X135665063Y-113372886D01*
X135657320Y-113382320D01*
X135647886Y-113390063D01*
X135637124Y-113395816D01*
X135625444Y-113399359D01*
X135610809Y-113400800D01*
X135389191Y-113400800D01*
X135374556Y-113399359D01*
X135362876Y-113395816D01*
X135352114Y-113390063D01*
X135342680Y-113382320D01*
X135334937Y-113372886D01*
X135329184Y-113362124D01*
X135325641Y-113350444D01*
X135324200Y-113335809D01*
X135324200Y-112539191D01*
X135325641Y-112524556D01*
X135329184Y-112512876D01*
X135334937Y-112502114D01*
X135342680Y-112492680D01*
X135352114Y-112484937D01*
X135362876Y-112479184D01*
X135374556Y-112475641D01*
X135389191Y-112474200D01*
X135610809Y-112474200D01*
X135625444Y-112475641D01*
G37*
G36*
X133625444Y-112475641D02*
G01*
X133637124Y-112479184D01*
X133647886Y-112484937D01*
X133657320Y-112492680D01*
X133665063Y-112502114D01*
X133670816Y-112512876D01*
X133674359Y-112524556D01*
X133675800Y-112539191D01*
X133675800Y-113335809D01*
X133674359Y-113350444D01*
X133670816Y-113362124D01*
X133665063Y-113372886D01*
X133657320Y-113382320D01*
X133647886Y-113390063D01*
X133637124Y-113395816D01*
X133625444Y-113399359D01*
X133610809Y-113400800D01*
X133389191Y-113400800D01*
X133374556Y-113399359D01*
X133362876Y-113395816D01*
X133352114Y-113390063D01*
X133342680Y-113382320D01*
X133334937Y-113372886D01*
X133329184Y-113362124D01*
X133325641Y-113350444D01*
X133324200Y-113335809D01*
X133324200Y-112539191D01*
X133325641Y-112524556D01*
X133329184Y-112512876D01*
X133334937Y-112502114D01*
X133342680Y-112492680D01*
X133352114Y-112484937D01*
X133362876Y-112479184D01*
X133374556Y-112475641D01*
X133389191Y-112474200D01*
X133610809Y-112474200D01*
X133625444Y-112475641D01*
G37*
G36*
X132625444Y-112475641D02*
G01*
X132637124Y-112479184D01*
X132647886Y-112484937D01*
X132657320Y-112492680D01*
X132665063Y-112502114D01*
X132670816Y-112512876D01*
X132674359Y-112524556D01*
X132675800Y-112539191D01*
X132675800Y-113335809D01*
X132674359Y-113350444D01*
X132670816Y-113362124D01*
X132665063Y-113372886D01*
X132657320Y-113382320D01*
X132647886Y-113390063D01*
X132637124Y-113395816D01*
X132625444Y-113399359D01*
X132610809Y-113400800D01*
X132389191Y-113400800D01*
X132374556Y-113399359D01*
X132362876Y-113395816D01*
X132352114Y-113390063D01*
X132342680Y-113382320D01*
X132334937Y-113372886D01*
X132329184Y-113362124D01*
X132325641Y-113350444D01*
X132324200Y-113335809D01*
X132324200Y-112539191D01*
X132325641Y-112524556D01*
X132329184Y-112512876D01*
X132334937Y-112502114D01*
X132342680Y-112492680D01*
X132352114Y-112484937D01*
X132362876Y-112479184D01*
X132374556Y-112475641D01*
X132389191Y-112474200D01*
X132610809Y-112474200D01*
X132625444Y-112475641D01*
G37*
G36*
X136125444Y-112475641D02*
G01*
X136137124Y-112479184D01*
X136147886Y-112484937D01*
X136157320Y-112492680D01*
X136165063Y-112502114D01*
X136170816Y-112512876D01*
X136174359Y-112524556D01*
X136175800Y-112539191D01*
X136175800Y-113335809D01*
X136174359Y-113350444D01*
X136170816Y-113362124D01*
X136165063Y-113372886D01*
X136157320Y-113382320D01*
X136147886Y-113390063D01*
X136137124Y-113395816D01*
X136125444Y-113399359D01*
X136110809Y-113400800D01*
X135889191Y-113400800D01*
X135874556Y-113399359D01*
X135862876Y-113395816D01*
X135852114Y-113390063D01*
X135842680Y-113382320D01*
X135834937Y-113372886D01*
X135829184Y-113362124D01*
X135825641Y-113350444D01*
X135824200Y-113335809D01*
X135824200Y-112539191D01*
X135825641Y-112524556D01*
X135829184Y-112512876D01*
X135834937Y-112502114D01*
X135842680Y-112492680D01*
X135852114Y-112484937D01*
X135862876Y-112479184D01*
X135874556Y-112475641D01*
X135889191Y-112474200D01*
X136110809Y-112474200D01*
X136125444Y-112475641D01*
G37*
G36*
X136625444Y-112475641D02*
G01*
X136637124Y-112479184D01*
X136647886Y-112484937D01*
X136657320Y-112492680D01*
X136665063Y-112502114D01*
X136670816Y-112512876D01*
X136674359Y-112524556D01*
X136675800Y-112539191D01*
X136675800Y-113335809D01*
X136674359Y-113350444D01*
X136670816Y-113362124D01*
X136665063Y-113372886D01*
X136657320Y-113382320D01*
X136647886Y-113390063D01*
X136637124Y-113395816D01*
X136625444Y-113399359D01*
X136610809Y-113400800D01*
X136389191Y-113400800D01*
X136374556Y-113399359D01*
X136362876Y-113395816D01*
X136352114Y-113390063D01*
X136342680Y-113382320D01*
X136334937Y-113372886D01*
X136329184Y-113362124D01*
X136325641Y-113350444D01*
X136324200Y-113335809D01*
X136324200Y-112539191D01*
X136325641Y-112524556D01*
X136329184Y-112512876D01*
X136334937Y-112502114D01*
X136342680Y-112492680D01*
X136352114Y-112484937D01*
X136362876Y-112479184D01*
X136374556Y-112475641D01*
X136389191Y-112474200D01*
X136610809Y-112474200D01*
X136625444Y-112475641D01*
G37*
G36*
X137850444Y-111825641D02*
G01*
X137862124Y-111829184D01*
X137872886Y-111834937D01*
X137882320Y-111842680D01*
X137890063Y-111852114D01*
X137895816Y-111862876D01*
X137899359Y-111874556D01*
X137900800Y-111889191D01*
X137900800Y-112110809D01*
X137899359Y-112125444D01*
X137895816Y-112137124D01*
X137890063Y-112147886D01*
X137882320Y-112157320D01*
X137872886Y-112165063D01*
X137862124Y-112170816D01*
X137850444Y-112174359D01*
X137835809Y-112175800D01*
X137039191Y-112175800D01*
X137024556Y-112174359D01*
X137012876Y-112170816D01*
X137002114Y-112165063D01*
X136992680Y-112157320D01*
X136984937Y-112147886D01*
X136979184Y-112137124D01*
X136975641Y-112125444D01*
X136974200Y-112110809D01*
X136974200Y-111889191D01*
X136975641Y-111874556D01*
X136979184Y-111862876D01*
X136984937Y-111852114D01*
X136992680Y-111842680D01*
X137002114Y-111834937D01*
X137012876Y-111829184D01*
X137024556Y-111825641D01*
X137039191Y-111824200D01*
X137835809Y-111824200D01*
X137850444Y-111825641D01*
G37*
G36*
X131975444Y-111825641D02*
G01*
X131987124Y-111829184D01*
X131997886Y-111834937D01*
X132007320Y-111842680D01*
X132015063Y-111852114D01*
X132020816Y-111862876D01*
X132024359Y-111874556D01*
X132025800Y-111889191D01*
X132025800Y-112110809D01*
X132024359Y-112125444D01*
X132020816Y-112137124D01*
X132015063Y-112147886D01*
X132007320Y-112157320D01*
X131997886Y-112165063D01*
X131987124Y-112170816D01*
X131975444Y-112174359D01*
X131960809Y-112175800D01*
X131164191Y-112175800D01*
X131149556Y-112174359D01*
X131137876Y-112170816D01*
X131127114Y-112165063D01*
X131117680Y-112157320D01*
X131109937Y-112147886D01*
X131104184Y-112137124D01*
X131100641Y-112125444D01*
X131099200Y-112110809D01*
X131099200Y-111889191D01*
X131100641Y-111874556D01*
X131104184Y-111862876D01*
X131109937Y-111852114D01*
X131117680Y-111842680D01*
X131127114Y-111834937D01*
X131137876Y-111829184D01*
X131149556Y-111825641D01*
X131164191Y-111824200D01*
X131960809Y-111824200D01*
X131975444Y-111825641D01*
G37*
G36*
X136228000Y-108103564D02*
G01*
X136268220Y-108115765D01*
X136305280Y-108135574D01*
X136337766Y-108162234D01*
X136364426Y-108194720D01*
X136384235Y-108231780D01*
X136396436Y-108272000D01*
X136400800Y-108316310D01*
X136400800Y-111683690D01*
X136396436Y-111728000D01*
X136384235Y-111768220D01*
X136364426Y-111805280D01*
X136337766Y-111837766D01*
X136305280Y-111864426D01*
X136268220Y-111884235D01*
X136228000Y-111896436D01*
X136183690Y-111900800D01*
X132816310Y-111900800D01*
X132772000Y-111896436D01*
X132731780Y-111884235D01*
X132694720Y-111864426D01*
X132662234Y-111837766D01*
X132635574Y-111805280D01*
X132615765Y-111768220D01*
X132603564Y-111728000D01*
X132599200Y-111683690D01*
X132599200Y-108316310D01*
X132603564Y-108272000D01*
X132615765Y-108231780D01*
X132635574Y-108194720D01*
X132662234Y-108162234D01*
X132694720Y-108135574D01*
X132731780Y-108115765D01*
X132772000Y-108103564D01*
X132816310Y-108099200D01*
X136183690Y-108099200D01*
X136228000Y-108103564D01*
G37*
G36*
X119248169Y-110181895D02*
G01*
X119403005Y-110246031D01*
X119542354Y-110339140D01*
X119660860Y-110457646D01*
X119753969Y-110596995D01*
X119818105Y-110751831D01*
X119850800Y-110916203D01*
X119850800Y-111083797D01*
X119818105Y-111248169D01*
X119753969Y-111403005D01*
X119660860Y-111542354D01*
X119542354Y-111660860D01*
X119403005Y-111753969D01*
X119248169Y-111818105D01*
X119083797Y-111850800D01*
X118916203Y-111850800D01*
X118751831Y-111818105D01*
X118596995Y-111753969D01*
X118457646Y-111660860D01*
X118339140Y-111542354D01*
X118246031Y-111403005D01*
X118181895Y-111248169D01*
X118149200Y-111083797D01*
X118149200Y-110916203D01*
X118181895Y-110751831D01*
X118246031Y-110596995D01*
X118339140Y-110457646D01*
X118457646Y-110339140D01*
X118596995Y-110246031D01*
X118751831Y-110181895D01*
X118916203Y-110149200D01*
X119083797Y-110149200D01*
X119248169Y-110181895D01*
G37*
G36*
X139252027Y-111142275D02*
G01*
X139279650Y-111150654D01*
X139305113Y-111164264D01*
X139327425Y-111182575D01*
X139345736Y-111204887D01*
X139359346Y-111230350D01*
X139367725Y-111257973D01*
X139370800Y-111289191D01*
X139370800Y-111680809D01*
X139367725Y-111712027D01*
X139359346Y-111739650D01*
X139345736Y-111765113D01*
X139327425Y-111787425D01*
X139305113Y-111805736D01*
X139279650Y-111819346D01*
X139252027Y-111827725D01*
X139220809Y-111830800D01*
X138779191Y-111830800D01*
X138747973Y-111827725D01*
X138720350Y-111819346D01*
X138694887Y-111805736D01*
X138672575Y-111787425D01*
X138654264Y-111765113D01*
X138640654Y-111739650D01*
X138632275Y-111712027D01*
X138629200Y-111680809D01*
X138629200Y-111289191D01*
X138632275Y-111257973D01*
X138640654Y-111230350D01*
X138654264Y-111204887D01*
X138672575Y-111182575D01*
X138694887Y-111164264D01*
X138720350Y-111150654D01*
X138747973Y-111142275D01*
X138779191Y-111139200D01*
X139220809Y-111139200D01*
X139252027Y-111142275D01*
G37*
G36*
X137850444Y-111325641D02*
G01*
X137862124Y-111329184D01*
X137872886Y-111334937D01*
X137882320Y-111342680D01*
X137890063Y-111352114D01*
X137895816Y-111362876D01*
X137899359Y-111374556D01*
X137900800Y-111389191D01*
X137900800Y-111610809D01*
X137899359Y-111625444D01*
X137895816Y-111637124D01*
X137890063Y-111647886D01*
X137882320Y-111657320D01*
X137872886Y-111665063D01*
X137862124Y-111670816D01*
X137850444Y-111674359D01*
X137835809Y-111675800D01*
X137039191Y-111675800D01*
X137024556Y-111674359D01*
X137012876Y-111670816D01*
X137002114Y-111665063D01*
X136992680Y-111657320D01*
X136984937Y-111647886D01*
X136979184Y-111637124D01*
X136975641Y-111625444D01*
X136974200Y-111610809D01*
X136974200Y-111389191D01*
X136975641Y-111374556D01*
X136979184Y-111362876D01*
X136984937Y-111352114D01*
X136992680Y-111342680D01*
X137002114Y-111334937D01*
X137012876Y-111329184D01*
X137024556Y-111325641D01*
X137039191Y-111324200D01*
X137835809Y-111324200D01*
X137850444Y-111325641D01*
G37*
G36*
X131975444Y-111325641D02*
G01*
X131987124Y-111329184D01*
X131997886Y-111334937D01*
X132007320Y-111342680D01*
X132015063Y-111352114D01*
X132020816Y-111362876D01*
X132024359Y-111374556D01*
X132025800Y-111389191D01*
X132025800Y-111610809D01*
X132024359Y-111625444D01*
X132020816Y-111637124D01*
X132015063Y-111647886D01*
X132007320Y-111657320D01*
X131997886Y-111665063D01*
X131987124Y-111670816D01*
X131975444Y-111674359D01*
X131960809Y-111675800D01*
X131164191Y-111675800D01*
X131149556Y-111674359D01*
X131137876Y-111670816D01*
X131127114Y-111665063D01*
X131117680Y-111657320D01*
X131109937Y-111647886D01*
X131104184Y-111637124D01*
X131100641Y-111625444D01*
X131099200Y-111610809D01*
X131099200Y-111389191D01*
X131100641Y-111374556D01*
X131104184Y-111362876D01*
X131109937Y-111352114D01*
X131117680Y-111342680D01*
X131127114Y-111334937D01*
X131137876Y-111329184D01*
X131149556Y-111325641D01*
X131164191Y-111324200D01*
X131960809Y-111324200D01*
X131975444Y-111325641D01*
G37*
G36*
X159075800Y-111250800D02*
G01*
X157424200Y-111250800D01*
X157424200Y-108749200D01*
X159075800Y-108749200D01*
X159075800Y-111250800D01*
G37*
G36*
X160175800Y-111200800D02*
G01*
X159424200Y-111200800D01*
X159424200Y-110749200D01*
X160175800Y-110749200D01*
X160175800Y-111200800D01*
G37*
G36*
X157075800Y-111200800D02*
G01*
X156324200Y-111200800D01*
X156324200Y-110749200D01*
X157075800Y-110749200D01*
X157075800Y-111200800D01*
G37*
G36*
X137850444Y-110825641D02*
G01*
X137862124Y-110829184D01*
X137872886Y-110834937D01*
X137882320Y-110842680D01*
X137890063Y-110852114D01*
X137895816Y-110862876D01*
X137899359Y-110874556D01*
X137900800Y-110889191D01*
X137900800Y-111110809D01*
X137899359Y-111125444D01*
X137895816Y-111137124D01*
X137890063Y-111147886D01*
X137882320Y-111157320D01*
X137872886Y-111165063D01*
X137862124Y-111170816D01*
X137850444Y-111174359D01*
X137835809Y-111175800D01*
X137039191Y-111175800D01*
X137024556Y-111174359D01*
X137012876Y-111170816D01*
X137002114Y-111165063D01*
X136992680Y-111157320D01*
X136984937Y-111147886D01*
X136979184Y-111137124D01*
X136975641Y-111125444D01*
X136974200Y-111110809D01*
X136974200Y-110889191D01*
X136975641Y-110874556D01*
X136979184Y-110862876D01*
X136984937Y-110852114D01*
X136992680Y-110842680D01*
X137002114Y-110834937D01*
X137012876Y-110829184D01*
X137024556Y-110825641D01*
X137039191Y-110824200D01*
X137835809Y-110824200D01*
X137850444Y-110825641D01*
G37*
G36*
X131975444Y-110825641D02*
G01*
X131987124Y-110829184D01*
X131997886Y-110834937D01*
X132007320Y-110842680D01*
X132015063Y-110852114D01*
X132020816Y-110862876D01*
X132024359Y-110874556D01*
X132025800Y-110889191D01*
X132025800Y-111110809D01*
X132024359Y-111125444D01*
X132020816Y-111137124D01*
X132015063Y-111147886D01*
X132007320Y-111157320D01*
X131997886Y-111165063D01*
X131987124Y-111170816D01*
X131975444Y-111174359D01*
X131960809Y-111175800D01*
X131164191Y-111175800D01*
X131149556Y-111174359D01*
X131137876Y-111170816D01*
X131127114Y-111165063D01*
X131117680Y-111157320D01*
X131109937Y-111147886D01*
X131104184Y-111137124D01*
X131100641Y-111125444D01*
X131099200Y-111110809D01*
X131099200Y-110889191D01*
X131100641Y-110874556D01*
X131104184Y-110862876D01*
X131109937Y-110852114D01*
X131117680Y-110842680D01*
X131127114Y-110834937D01*
X131137876Y-110829184D01*
X131149556Y-110825641D01*
X131164191Y-110824200D01*
X131960809Y-110824200D01*
X131975444Y-110825641D01*
G37*
G36*
X139252027Y-110172275D02*
G01*
X139279650Y-110180654D01*
X139305113Y-110194264D01*
X139327425Y-110212575D01*
X139345736Y-110234887D01*
X139359346Y-110260350D01*
X139367725Y-110287973D01*
X139370800Y-110319191D01*
X139370800Y-110710809D01*
X139367725Y-110742027D01*
X139359346Y-110769650D01*
X139345736Y-110795113D01*
X139327425Y-110817425D01*
X139305113Y-110835736D01*
X139279650Y-110849346D01*
X139252027Y-110857725D01*
X139220809Y-110860800D01*
X138779191Y-110860800D01*
X138747973Y-110857725D01*
X138720350Y-110849346D01*
X138694887Y-110835736D01*
X138672575Y-110817425D01*
X138654264Y-110795113D01*
X138640654Y-110769650D01*
X138632275Y-110742027D01*
X138629200Y-110710809D01*
X138629200Y-110319191D01*
X138632275Y-110287973D01*
X138640654Y-110260350D01*
X138654264Y-110234887D01*
X138672575Y-110212575D01*
X138694887Y-110194264D01*
X138720350Y-110180654D01*
X138747973Y-110172275D01*
X138779191Y-110169200D01*
X139220809Y-110169200D01*
X139252027Y-110172275D01*
G37*
G36*
X137850444Y-110325641D02*
G01*
X137862124Y-110329184D01*
X137872886Y-110334937D01*
X137882320Y-110342680D01*
X137890063Y-110352114D01*
X137895816Y-110362876D01*
X137899359Y-110374556D01*
X137900800Y-110389191D01*
X137900800Y-110610809D01*
X137899359Y-110625444D01*
X137895816Y-110637124D01*
X137890063Y-110647886D01*
X137882320Y-110657320D01*
X137872886Y-110665063D01*
X137862124Y-110670816D01*
X137850444Y-110674359D01*
X137835809Y-110675800D01*
X137039191Y-110675800D01*
X137024556Y-110674359D01*
X137012876Y-110670816D01*
X137002114Y-110665063D01*
X136992680Y-110657320D01*
X136984937Y-110647886D01*
X136979184Y-110637124D01*
X136975641Y-110625444D01*
X136974200Y-110610809D01*
X136974200Y-110389191D01*
X136975641Y-110374556D01*
X136979184Y-110362876D01*
X136984937Y-110352114D01*
X136992680Y-110342680D01*
X137002114Y-110334937D01*
X137012876Y-110329184D01*
X137024556Y-110325641D01*
X137039191Y-110324200D01*
X137835809Y-110324200D01*
X137850444Y-110325641D01*
G37*
G36*
X131975444Y-110325641D02*
G01*
X131987124Y-110329184D01*
X131997886Y-110334937D01*
X132007320Y-110342680D01*
X132015063Y-110352114D01*
X132020816Y-110362876D01*
X132024359Y-110374556D01*
X132025800Y-110389191D01*
X132025800Y-110610809D01*
X132024359Y-110625444D01*
X132020816Y-110637124D01*
X132015063Y-110647886D01*
X132007320Y-110657320D01*
X131997886Y-110665063D01*
X131987124Y-110670816D01*
X131975444Y-110674359D01*
X131960809Y-110675800D01*
X131164191Y-110675800D01*
X131149556Y-110674359D01*
X131137876Y-110670816D01*
X131127114Y-110665063D01*
X131117680Y-110657320D01*
X131109937Y-110647886D01*
X131104184Y-110637124D01*
X131100641Y-110625444D01*
X131099200Y-110610809D01*
X131099200Y-110389191D01*
X131100641Y-110374556D01*
X131104184Y-110362876D01*
X131109937Y-110352114D01*
X131117680Y-110342680D01*
X131127114Y-110334937D01*
X131137876Y-110329184D01*
X131149556Y-110325641D01*
X131164191Y-110324200D01*
X131960809Y-110324200D01*
X131975444Y-110325641D01*
G37*
G36*
X157075800Y-110550800D02*
G01*
X156324200Y-110550800D01*
X156324200Y-110099200D01*
X157075800Y-110099200D01*
X157075800Y-110550800D01*
G37*
G36*
X160175800Y-110550800D02*
G01*
X159424200Y-110550800D01*
X159424200Y-110099200D01*
X160175800Y-110099200D01*
X160175800Y-110550800D01*
G37*
G36*
X129252027Y-109642275D02*
G01*
X129279650Y-109650654D01*
X129305113Y-109664264D01*
X129327425Y-109682575D01*
X129345736Y-109704887D01*
X129359346Y-109730350D01*
X129367725Y-109757973D01*
X129370800Y-109789191D01*
X129370800Y-110180809D01*
X129367725Y-110212027D01*
X129359346Y-110239650D01*
X129345736Y-110265113D01*
X129327425Y-110287425D01*
X129305113Y-110305736D01*
X129279650Y-110319346D01*
X129252027Y-110327725D01*
X129220809Y-110330800D01*
X128779191Y-110330800D01*
X128747973Y-110327725D01*
X128720350Y-110319346D01*
X128694887Y-110305736D01*
X128672575Y-110287425D01*
X128654264Y-110265113D01*
X128640654Y-110239650D01*
X128632275Y-110212027D01*
X128629200Y-110180809D01*
X128629200Y-109789191D01*
X128632275Y-109757973D01*
X128640654Y-109730350D01*
X128654264Y-109704887D01*
X128672575Y-109682575D01*
X128694887Y-109664264D01*
X128720350Y-109650654D01*
X128747973Y-109642275D01*
X128779191Y-109639200D01*
X129220809Y-109639200D01*
X129252027Y-109642275D01*
G37*
G36*
X137850444Y-109825641D02*
G01*
X137862124Y-109829184D01*
X137872886Y-109834937D01*
X137882320Y-109842680D01*
X137890063Y-109852114D01*
X137895816Y-109862876D01*
X137899359Y-109874556D01*
X137900800Y-109889191D01*
X137900800Y-110110809D01*
X137899359Y-110125444D01*
X137895816Y-110137124D01*
X137890063Y-110147886D01*
X137882320Y-110157320D01*
X137872886Y-110165063D01*
X137862124Y-110170816D01*
X137850444Y-110174359D01*
X137835809Y-110175800D01*
X137039191Y-110175800D01*
X137024556Y-110174359D01*
X137012876Y-110170816D01*
X137002114Y-110165063D01*
X136992680Y-110157320D01*
X136984937Y-110147886D01*
X136979184Y-110137124D01*
X136975641Y-110125444D01*
X136974200Y-110110809D01*
X136974200Y-109889191D01*
X136975641Y-109874556D01*
X136979184Y-109862876D01*
X136984937Y-109852114D01*
X136992680Y-109842680D01*
X137002114Y-109834937D01*
X137012876Y-109829184D01*
X137024556Y-109825641D01*
X137039191Y-109824200D01*
X137835809Y-109824200D01*
X137850444Y-109825641D01*
G37*
G36*
X131975444Y-109825641D02*
G01*
X131987124Y-109829184D01*
X131997886Y-109834937D01*
X132007320Y-109842680D01*
X132015063Y-109852114D01*
X132020816Y-109862876D01*
X132024359Y-109874556D01*
X132025800Y-109889191D01*
X132025800Y-110110809D01*
X132024359Y-110125444D01*
X132020816Y-110137124D01*
X132015063Y-110147886D01*
X132007320Y-110157320D01*
X131997886Y-110165063D01*
X131987124Y-110170816D01*
X131975444Y-110174359D01*
X131960809Y-110175800D01*
X131164191Y-110175800D01*
X131149556Y-110174359D01*
X131137876Y-110170816D01*
X131127114Y-110165063D01*
X131117680Y-110157320D01*
X131109937Y-110147886D01*
X131104184Y-110137124D01*
X131100641Y-110125444D01*
X131099200Y-110110809D01*
X131099200Y-109889191D01*
X131100641Y-109874556D01*
X131104184Y-109862876D01*
X131109937Y-109852114D01*
X131117680Y-109842680D01*
X131127114Y-109834937D01*
X131137876Y-109829184D01*
X131149556Y-109825641D01*
X131164191Y-109824200D01*
X131960809Y-109824200D01*
X131975444Y-109825641D01*
G37*
G36*
X157075800Y-109900800D02*
G01*
X156324200Y-109900800D01*
X156324200Y-109449200D01*
X157075800Y-109449200D01*
X157075800Y-109900800D01*
G37*
G36*
X160175800Y-109900800D02*
G01*
X159424200Y-109900800D01*
X159424200Y-109449200D01*
X160175800Y-109449200D01*
X160175800Y-109900800D01*
G37*
G36*
X119248169Y-108181895D02*
G01*
X119403005Y-108246031D01*
X119542354Y-108339140D01*
X119660860Y-108457646D01*
X119753969Y-108596995D01*
X119818105Y-108751831D01*
X119850800Y-108916203D01*
X119850800Y-109083797D01*
X119818105Y-109248169D01*
X119753969Y-109403005D01*
X119660860Y-109542354D01*
X119542354Y-109660860D01*
X119403005Y-109753969D01*
X119248169Y-109818105D01*
X119083797Y-109850800D01*
X118916203Y-109850800D01*
X118751831Y-109818105D01*
X118596995Y-109753969D01*
X118457646Y-109660860D01*
X118339140Y-109542354D01*
X118246031Y-109403005D01*
X118181895Y-109248169D01*
X118149200Y-109083797D01*
X118149200Y-108916203D01*
X118181895Y-108751831D01*
X118246031Y-108596995D01*
X118339140Y-108457646D01*
X118457646Y-108339140D01*
X118596995Y-108246031D01*
X118751831Y-108181895D01*
X118916203Y-108149200D01*
X119083797Y-108149200D01*
X119248169Y-108181895D01*
G37*
G36*
X139252027Y-109142275D02*
G01*
X139279650Y-109150654D01*
X139305113Y-109164264D01*
X139327425Y-109182575D01*
X139345736Y-109204887D01*
X139359346Y-109230350D01*
X139367725Y-109257973D01*
X139370800Y-109289191D01*
X139370800Y-109680809D01*
X139367725Y-109712027D01*
X139359346Y-109739650D01*
X139345736Y-109765113D01*
X139327425Y-109787425D01*
X139305113Y-109805736D01*
X139279650Y-109819346D01*
X139252027Y-109827725D01*
X139220809Y-109830800D01*
X138779191Y-109830800D01*
X138747973Y-109827725D01*
X138720350Y-109819346D01*
X138694887Y-109805736D01*
X138672575Y-109787425D01*
X138654264Y-109765113D01*
X138640654Y-109739650D01*
X138632275Y-109712027D01*
X138629200Y-109680809D01*
X138629200Y-109289191D01*
X138632275Y-109257973D01*
X138640654Y-109230350D01*
X138654264Y-109204887D01*
X138672575Y-109182575D01*
X138694887Y-109164264D01*
X138720350Y-109150654D01*
X138747973Y-109142275D01*
X138779191Y-109139200D01*
X139220809Y-109139200D01*
X139252027Y-109142275D01*
G37*
G36*
X131975444Y-109325641D02*
G01*
X131987124Y-109329184D01*
X131997886Y-109334937D01*
X132007320Y-109342680D01*
X132015063Y-109352114D01*
X132020816Y-109362876D01*
X132024359Y-109374556D01*
X132025800Y-109389191D01*
X132025800Y-109610809D01*
X132024359Y-109625444D01*
X132020816Y-109637124D01*
X132015063Y-109647886D01*
X132007320Y-109657320D01*
X131997886Y-109665063D01*
X131987124Y-109670816D01*
X131975444Y-109674359D01*
X131960809Y-109675800D01*
X131164191Y-109675800D01*
X131149556Y-109674359D01*
X131137876Y-109670816D01*
X131127114Y-109665063D01*
X131117680Y-109657320D01*
X131109937Y-109647886D01*
X131104184Y-109637124D01*
X131100641Y-109625444D01*
X131099200Y-109610809D01*
X131099200Y-109389191D01*
X131100641Y-109374556D01*
X131104184Y-109362876D01*
X131109937Y-109352114D01*
X131117680Y-109342680D01*
X131127114Y-109334937D01*
X131137876Y-109329184D01*
X131149556Y-109325641D01*
X131164191Y-109324200D01*
X131960809Y-109324200D01*
X131975444Y-109325641D01*
G37*
G36*
X137850444Y-109325641D02*
G01*
X137862124Y-109329184D01*
X137872886Y-109334937D01*
X137882320Y-109342680D01*
X137890063Y-109352114D01*
X137895816Y-109362876D01*
X137899359Y-109374556D01*
X137900800Y-109389191D01*
X137900800Y-109610809D01*
X137899359Y-109625444D01*
X137895816Y-109637124D01*
X137890063Y-109647886D01*
X137882320Y-109657320D01*
X137872886Y-109665063D01*
X137862124Y-109670816D01*
X137850444Y-109674359D01*
X137835809Y-109675800D01*
X137039191Y-109675800D01*
X137024556Y-109674359D01*
X137012876Y-109670816D01*
X137002114Y-109665063D01*
X136992680Y-109657320D01*
X136984937Y-109647886D01*
X136979184Y-109637124D01*
X136975641Y-109625444D01*
X136974200Y-109610809D01*
X136974200Y-109389191D01*
X136975641Y-109374556D01*
X136979184Y-109362876D01*
X136984937Y-109352114D01*
X136992680Y-109342680D01*
X137002114Y-109334937D01*
X137012876Y-109329184D01*
X137024556Y-109325641D01*
X137039191Y-109324200D01*
X137835809Y-109324200D01*
X137850444Y-109325641D01*
G37*
G36*
X129252027Y-108672275D02*
G01*
X129279650Y-108680654D01*
X129305113Y-108694264D01*
X129327425Y-108712575D01*
X129345736Y-108734887D01*
X129359346Y-108760350D01*
X129367725Y-108787973D01*
X129370800Y-108819191D01*
X129370800Y-109210809D01*
X129367725Y-109242027D01*
X129359346Y-109269650D01*
X129345736Y-109295113D01*
X129327425Y-109317425D01*
X129305113Y-109335736D01*
X129279650Y-109349346D01*
X129252027Y-109357725D01*
X129220809Y-109360800D01*
X128779191Y-109360800D01*
X128747973Y-109357725D01*
X128720350Y-109349346D01*
X128694887Y-109335736D01*
X128672575Y-109317425D01*
X128654264Y-109295113D01*
X128640654Y-109269650D01*
X128632275Y-109242027D01*
X128629200Y-109210809D01*
X128629200Y-108819191D01*
X128632275Y-108787973D01*
X128640654Y-108760350D01*
X128654264Y-108734887D01*
X128672575Y-108712575D01*
X128694887Y-108694264D01*
X128720350Y-108680654D01*
X128747973Y-108672275D01*
X128779191Y-108669200D01*
X129220809Y-108669200D01*
X129252027Y-108672275D01*
G37*
G36*
X160175800Y-109250800D02*
G01*
X159424200Y-109250800D01*
X159424200Y-108799200D01*
X160175800Y-108799200D01*
X160175800Y-109250800D01*
G37*
G36*
X157075800Y-109250800D02*
G01*
X156324200Y-109250800D01*
X156324200Y-108799200D01*
X157075800Y-108799200D01*
X157075800Y-109250800D01*
G37*
G36*
X137850444Y-108825641D02*
G01*
X137862124Y-108829184D01*
X137872886Y-108834937D01*
X137882320Y-108842680D01*
X137890063Y-108852114D01*
X137895816Y-108862876D01*
X137899359Y-108874556D01*
X137900800Y-108889191D01*
X137900800Y-109110809D01*
X137899359Y-109125444D01*
X137895816Y-109137124D01*
X137890063Y-109147886D01*
X137882320Y-109157320D01*
X137872886Y-109165063D01*
X137862124Y-109170816D01*
X137850444Y-109174359D01*
X137835809Y-109175800D01*
X137039191Y-109175800D01*
X137024556Y-109174359D01*
X137012876Y-109170816D01*
X137002114Y-109165063D01*
X136992680Y-109157320D01*
X136984937Y-109147886D01*
X136979184Y-109137124D01*
X136975641Y-109125444D01*
X136974200Y-109110809D01*
X136974200Y-108889191D01*
X136975641Y-108874556D01*
X136979184Y-108862876D01*
X136984937Y-108852114D01*
X136992680Y-108842680D01*
X137002114Y-108834937D01*
X137012876Y-108829184D01*
X137024556Y-108825641D01*
X137039191Y-108824200D01*
X137835809Y-108824200D01*
X137850444Y-108825641D01*
G37*
G36*
X131975444Y-108825641D02*
G01*
X131987124Y-108829184D01*
X131997886Y-108834937D01*
X132007320Y-108842680D01*
X132015063Y-108852114D01*
X132020816Y-108862876D01*
X132024359Y-108874556D01*
X132025800Y-108889191D01*
X132025800Y-109110809D01*
X132024359Y-109125444D01*
X132020816Y-109137124D01*
X132015063Y-109147886D01*
X132007320Y-109157320D01*
X131997886Y-109165063D01*
X131987124Y-109170816D01*
X131975444Y-109174359D01*
X131960809Y-109175800D01*
X131164191Y-109175800D01*
X131149556Y-109174359D01*
X131137876Y-109170816D01*
X131127114Y-109165063D01*
X131117680Y-109157320D01*
X131109937Y-109147886D01*
X131104184Y-109137124D01*
X131100641Y-109125444D01*
X131099200Y-109110809D01*
X131099200Y-108889191D01*
X131100641Y-108874556D01*
X131104184Y-108862876D01*
X131109937Y-108852114D01*
X131117680Y-108842680D01*
X131127114Y-108834937D01*
X131137876Y-108829184D01*
X131149556Y-108825641D01*
X131164191Y-108824200D01*
X131960809Y-108824200D01*
X131975444Y-108825641D01*
G37*
G36*
X139252027Y-108172275D02*
G01*
X139279650Y-108180654D01*
X139305113Y-108194264D01*
X139327425Y-108212575D01*
X139345736Y-108234887D01*
X139359346Y-108260350D01*
X139367725Y-108287973D01*
X139370800Y-108319191D01*
X139370800Y-108710809D01*
X139367725Y-108742027D01*
X139359346Y-108769650D01*
X139345736Y-108795113D01*
X139327425Y-108817425D01*
X139305113Y-108835736D01*
X139279650Y-108849346D01*
X139252027Y-108857725D01*
X139220809Y-108860800D01*
X138779191Y-108860800D01*
X138747973Y-108857725D01*
X138720350Y-108849346D01*
X138694887Y-108835736D01*
X138672575Y-108817425D01*
X138654264Y-108795113D01*
X138640654Y-108769650D01*
X138632275Y-108742027D01*
X138629200Y-108710809D01*
X138629200Y-108319191D01*
X138632275Y-108287973D01*
X138640654Y-108260350D01*
X138654264Y-108234887D01*
X138672575Y-108212575D01*
X138694887Y-108194264D01*
X138720350Y-108180654D01*
X138747973Y-108172275D01*
X138779191Y-108169200D01*
X139220809Y-108169200D01*
X139252027Y-108172275D01*
G37*
G36*
X137850444Y-108325641D02*
G01*
X137862124Y-108329184D01*
X137872886Y-108334937D01*
X137882320Y-108342680D01*
X137890063Y-108352114D01*
X137895816Y-108362876D01*
X137899359Y-108374556D01*
X137900800Y-108389191D01*
X137900800Y-108610809D01*
X137899359Y-108625444D01*
X137895816Y-108637124D01*
X137890063Y-108647886D01*
X137882320Y-108657320D01*
X137872886Y-108665063D01*
X137862124Y-108670816D01*
X137850444Y-108674359D01*
X137835809Y-108675800D01*
X137039191Y-108675800D01*
X137024556Y-108674359D01*
X137012876Y-108670816D01*
X137002114Y-108665063D01*
X136992680Y-108657320D01*
X136984937Y-108647886D01*
X136979184Y-108637124D01*
X136975641Y-108625444D01*
X136974200Y-108610809D01*
X136974200Y-108389191D01*
X136975641Y-108374556D01*
X136979184Y-108362876D01*
X136984937Y-108352114D01*
X136992680Y-108342680D01*
X137002114Y-108334937D01*
X137012876Y-108329184D01*
X137024556Y-108325641D01*
X137039191Y-108324200D01*
X137835809Y-108324200D01*
X137850444Y-108325641D01*
G37*
G36*
X131975444Y-108325641D02*
G01*
X131987124Y-108329184D01*
X131997886Y-108334937D01*
X132007320Y-108342680D01*
X132015063Y-108352114D01*
X132020816Y-108362876D01*
X132024359Y-108374556D01*
X132025800Y-108389191D01*
X132025800Y-108610809D01*
X132024359Y-108625444D01*
X132020816Y-108637124D01*
X132015063Y-108647886D01*
X132007320Y-108657320D01*
X131997886Y-108665063D01*
X131987124Y-108670816D01*
X131975444Y-108674359D01*
X131960809Y-108675800D01*
X131164191Y-108675800D01*
X131149556Y-108674359D01*
X131137876Y-108670816D01*
X131127114Y-108665063D01*
X131117680Y-108657320D01*
X131109937Y-108647886D01*
X131104184Y-108637124D01*
X131100641Y-108625444D01*
X131099200Y-108610809D01*
X131099200Y-108389191D01*
X131100641Y-108374556D01*
X131104184Y-108362876D01*
X131109937Y-108352114D01*
X131117680Y-108342680D01*
X131127114Y-108334937D01*
X131137876Y-108329184D01*
X131149556Y-108325641D01*
X131164191Y-108324200D01*
X131960809Y-108324200D01*
X131975444Y-108325641D01*
G37*
G36*
X137850444Y-107825641D02*
G01*
X137862124Y-107829184D01*
X137872886Y-107834937D01*
X137882320Y-107842680D01*
X137890063Y-107852114D01*
X137895816Y-107862876D01*
X137899359Y-107874556D01*
X137900800Y-107889191D01*
X137900800Y-108110809D01*
X137899359Y-108125444D01*
X137895816Y-108137124D01*
X137890063Y-108147886D01*
X137882320Y-108157320D01*
X137872886Y-108165063D01*
X137862124Y-108170816D01*
X137850444Y-108174359D01*
X137835809Y-108175800D01*
X137039191Y-108175800D01*
X137024556Y-108174359D01*
X137012876Y-108170816D01*
X137002114Y-108165063D01*
X136992680Y-108157320D01*
X136984937Y-108147886D01*
X136979184Y-108137124D01*
X136975641Y-108125444D01*
X136974200Y-108110809D01*
X136974200Y-107889191D01*
X136975641Y-107874556D01*
X136979184Y-107862876D01*
X136984937Y-107852114D01*
X136992680Y-107842680D01*
X137002114Y-107834937D01*
X137012876Y-107829184D01*
X137024556Y-107825641D01*
X137039191Y-107824200D01*
X137835809Y-107824200D01*
X137850444Y-107825641D01*
G37*
G36*
X131975444Y-107825641D02*
G01*
X131987124Y-107829184D01*
X131997886Y-107834937D01*
X132007320Y-107842680D01*
X132015063Y-107852114D01*
X132020816Y-107862876D01*
X132024359Y-107874556D01*
X132025800Y-107889191D01*
X132025800Y-108110809D01*
X132024359Y-108125444D01*
X132020816Y-108137124D01*
X132015063Y-108147886D01*
X132007320Y-108157320D01*
X131997886Y-108165063D01*
X131987124Y-108170816D01*
X131975444Y-108174359D01*
X131960809Y-108175800D01*
X131164191Y-108175800D01*
X131149556Y-108174359D01*
X131137876Y-108170816D01*
X131127114Y-108165063D01*
X131117680Y-108157320D01*
X131109937Y-108147886D01*
X131104184Y-108137124D01*
X131100641Y-108125444D01*
X131099200Y-108110809D01*
X131099200Y-107889191D01*
X131100641Y-107874556D01*
X131104184Y-107862876D01*
X131109937Y-107852114D01*
X131117680Y-107842680D01*
X131127114Y-107834937D01*
X131137876Y-107829184D01*
X131149556Y-107825641D01*
X131164191Y-107824200D01*
X131960809Y-107824200D01*
X131975444Y-107825641D01*
G37*
G36*
X139252027Y-107142275D02*
G01*
X139279650Y-107150654D01*
X139305113Y-107164264D01*
X139327425Y-107182575D01*
X139345736Y-107204887D01*
X139359346Y-107230350D01*
X139367725Y-107257973D01*
X139370800Y-107289191D01*
X139370800Y-107680809D01*
X139367725Y-107712027D01*
X139359346Y-107739650D01*
X139345736Y-107765113D01*
X139327425Y-107787425D01*
X139305113Y-107805736D01*
X139279650Y-107819346D01*
X139252027Y-107827725D01*
X139220809Y-107830800D01*
X138779191Y-107830800D01*
X138747973Y-107827725D01*
X138720350Y-107819346D01*
X138694887Y-107805736D01*
X138672575Y-107787425D01*
X138654264Y-107765113D01*
X138640654Y-107739650D01*
X138632275Y-107712027D01*
X138629200Y-107680809D01*
X138629200Y-107289191D01*
X138632275Y-107257973D01*
X138640654Y-107230350D01*
X138654264Y-107204887D01*
X138672575Y-107182575D01*
X138694887Y-107164264D01*
X138720350Y-107150654D01*
X138747973Y-107142275D01*
X138779191Y-107139200D01*
X139220809Y-107139200D01*
X139252027Y-107142275D01*
G37*
G36*
X134125444Y-106600641D02*
G01*
X134137124Y-106604184D01*
X134147886Y-106609937D01*
X134157320Y-106617680D01*
X134165063Y-106627114D01*
X134170816Y-106637876D01*
X134174359Y-106649556D01*
X134175800Y-106664191D01*
X134175800Y-107460809D01*
X134174359Y-107475444D01*
X134170816Y-107487124D01*
X134165063Y-107497886D01*
X134157320Y-107507320D01*
X134147886Y-107515063D01*
X134137124Y-107520816D01*
X134125444Y-107524359D01*
X134110809Y-107525800D01*
X133889191Y-107525800D01*
X133874556Y-107524359D01*
X133862876Y-107520816D01*
X133852114Y-107515063D01*
X133842680Y-107507320D01*
X133834937Y-107497886D01*
X133829184Y-107487124D01*
X133825641Y-107475444D01*
X133824200Y-107460809D01*
X133824200Y-106664191D01*
X133825641Y-106649556D01*
X133829184Y-106637876D01*
X133834937Y-106627114D01*
X133842680Y-106617680D01*
X133852114Y-106609937D01*
X133862876Y-106604184D01*
X133874556Y-106600641D01*
X133889191Y-106599200D01*
X134110809Y-106599200D01*
X134125444Y-106600641D01*
G37*
G36*
X132625444Y-106600641D02*
G01*
X132637124Y-106604184D01*
X132647886Y-106609937D01*
X132657320Y-106617680D01*
X132665063Y-106627114D01*
X132670816Y-106637876D01*
X132674359Y-106649556D01*
X132675800Y-106664191D01*
X132675800Y-107460809D01*
X132674359Y-107475444D01*
X132670816Y-107487124D01*
X132665063Y-107497886D01*
X132657320Y-107507320D01*
X132647886Y-107515063D01*
X132637124Y-107520816D01*
X132625444Y-107524359D01*
X132610809Y-107525800D01*
X132389191Y-107525800D01*
X132374556Y-107524359D01*
X132362876Y-107520816D01*
X132352114Y-107515063D01*
X132342680Y-107507320D01*
X132334937Y-107497886D01*
X132329184Y-107487124D01*
X132325641Y-107475444D01*
X132324200Y-107460809D01*
X132324200Y-106664191D01*
X132325641Y-106649556D01*
X132329184Y-106637876D01*
X132334937Y-106627114D01*
X132342680Y-106617680D01*
X132352114Y-106609937D01*
X132362876Y-106604184D01*
X132374556Y-106600641D01*
X132389191Y-106599200D01*
X132610809Y-106599200D01*
X132625444Y-106600641D01*
G37*
G36*
X136125444Y-106600641D02*
G01*
X136137124Y-106604184D01*
X136147886Y-106609937D01*
X136157320Y-106617680D01*
X136165063Y-106627114D01*
X136170816Y-106637876D01*
X136174359Y-106649556D01*
X136175800Y-106664191D01*
X136175800Y-107460809D01*
X136174359Y-107475444D01*
X136170816Y-107487124D01*
X136165063Y-107497886D01*
X136157320Y-107507320D01*
X136147886Y-107515063D01*
X136137124Y-107520816D01*
X136125444Y-107524359D01*
X136110809Y-107525800D01*
X135889191Y-107525800D01*
X135874556Y-107524359D01*
X135862876Y-107520816D01*
X135852114Y-107515063D01*
X135842680Y-107507320D01*
X135834937Y-107497886D01*
X135829184Y-107487124D01*
X135825641Y-107475444D01*
X135824200Y-107460809D01*
X135824200Y-106664191D01*
X135825641Y-106649556D01*
X135829184Y-106637876D01*
X135834937Y-106627114D01*
X135842680Y-106617680D01*
X135852114Y-106609937D01*
X135862876Y-106604184D01*
X135874556Y-106600641D01*
X135889191Y-106599200D01*
X136110809Y-106599200D01*
X136125444Y-106600641D01*
G37*
G36*
X135625444Y-106600641D02*
G01*
X135637124Y-106604184D01*
X135647886Y-106609937D01*
X135657320Y-106617680D01*
X135665063Y-106627114D01*
X135670816Y-106637876D01*
X135674359Y-106649556D01*
X135675800Y-106664191D01*
X135675800Y-107460809D01*
X135674359Y-107475444D01*
X135670816Y-107487124D01*
X135665063Y-107497886D01*
X135657320Y-107507320D01*
X135647886Y-107515063D01*
X135637124Y-107520816D01*
X135625444Y-107524359D01*
X135610809Y-107525800D01*
X135389191Y-107525800D01*
X135374556Y-107524359D01*
X135362876Y-107520816D01*
X135352114Y-107515063D01*
X135342680Y-107507320D01*
X135334937Y-107497886D01*
X135329184Y-107487124D01*
X135325641Y-107475444D01*
X135324200Y-107460809D01*
X135324200Y-106664191D01*
X135325641Y-106649556D01*
X135329184Y-106637876D01*
X135334937Y-106627114D01*
X135342680Y-106617680D01*
X135352114Y-106609937D01*
X135362876Y-106604184D01*
X135374556Y-106600641D01*
X135389191Y-106599200D01*
X135610809Y-106599200D01*
X135625444Y-106600641D01*
G37*
G36*
X135125444Y-106600641D02*
G01*
X135137124Y-106604184D01*
X135147886Y-106609937D01*
X135157320Y-106617680D01*
X135165063Y-106627114D01*
X135170816Y-106637876D01*
X135174359Y-106649556D01*
X135175800Y-106664191D01*
X135175800Y-107460809D01*
X135174359Y-107475444D01*
X135170816Y-107487124D01*
X135165063Y-107497886D01*
X135157320Y-107507320D01*
X135147886Y-107515063D01*
X135137124Y-107520816D01*
X135125444Y-107524359D01*
X135110809Y-107525800D01*
X134889191Y-107525800D01*
X134874556Y-107524359D01*
X134862876Y-107520816D01*
X134852114Y-107515063D01*
X134842680Y-107507320D01*
X134834937Y-107497886D01*
X134829184Y-107487124D01*
X134825641Y-107475444D01*
X134824200Y-107460809D01*
X134824200Y-106664191D01*
X134825641Y-106649556D01*
X134829184Y-106637876D01*
X134834937Y-106627114D01*
X134842680Y-106617680D01*
X134852114Y-106609937D01*
X134862876Y-106604184D01*
X134874556Y-106600641D01*
X134889191Y-106599200D01*
X135110809Y-106599200D01*
X135125444Y-106600641D01*
G37*
G36*
X134625444Y-106600641D02*
G01*
X134637124Y-106604184D01*
X134647886Y-106609937D01*
X134657320Y-106617680D01*
X134665063Y-106627114D01*
X134670816Y-106637876D01*
X134674359Y-106649556D01*
X134675800Y-106664191D01*
X134675800Y-107460809D01*
X134674359Y-107475444D01*
X134670816Y-107487124D01*
X134665063Y-107497886D01*
X134657320Y-107507320D01*
X134647886Y-107515063D01*
X134637124Y-107520816D01*
X134625444Y-107524359D01*
X134610809Y-107525800D01*
X134389191Y-107525800D01*
X134374556Y-107524359D01*
X134362876Y-107520816D01*
X134352114Y-107515063D01*
X134342680Y-107507320D01*
X134334937Y-107497886D01*
X134329184Y-107487124D01*
X134325641Y-107475444D01*
X134324200Y-107460809D01*
X134324200Y-106664191D01*
X134325641Y-106649556D01*
X134329184Y-106637876D01*
X134334937Y-106627114D01*
X134342680Y-106617680D01*
X134352114Y-106609937D01*
X134362876Y-106604184D01*
X134374556Y-106600641D01*
X134389191Y-106599200D01*
X134610809Y-106599200D01*
X134625444Y-106600641D01*
G37*
G36*
X133625444Y-106600641D02*
G01*
X133637124Y-106604184D01*
X133647886Y-106609937D01*
X133657320Y-106617680D01*
X133665063Y-106627114D01*
X133670816Y-106637876D01*
X133674359Y-106649556D01*
X133675800Y-106664191D01*
X133675800Y-107460809D01*
X133674359Y-107475444D01*
X133670816Y-107487124D01*
X133665063Y-107497886D01*
X133657320Y-107507320D01*
X133647886Y-107515063D01*
X133637124Y-107520816D01*
X133625444Y-107524359D01*
X133610809Y-107525800D01*
X133389191Y-107525800D01*
X133374556Y-107524359D01*
X133362876Y-107520816D01*
X133352114Y-107515063D01*
X133342680Y-107507320D01*
X133334937Y-107497886D01*
X133329184Y-107487124D01*
X133325641Y-107475444D01*
X133324200Y-107460809D01*
X133324200Y-106664191D01*
X133325641Y-106649556D01*
X133329184Y-106637876D01*
X133334937Y-106627114D01*
X133342680Y-106617680D01*
X133352114Y-106609937D01*
X133362876Y-106604184D01*
X133374556Y-106600641D01*
X133389191Y-106599200D01*
X133610809Y-106599200D01*
X133625444Y-106600641D01*
G37*
G36*
X133125444Y-106600641D02*
G01*
X133137124Y-106604184D01*
X133147886Y-106609937D01*
X133157320Y-106617680D01*
X133165063Y-106627114D01*
X133170816Y-106637876D01*
X133174359Y-106649556D01*
X133175800Y-106664191D01*
X133175800Y-107460809D01*
X133174359Y-107475444D01*
X133170816Y-107487124D01*
X133165063Y-107497886D01*
X133157320Y-107507320D01*
X133147886Y-107515063D01*
X133137124Y-107520816D01*
X133125444Y-107524359D01*
X133110809Y-107525800D01*
X132889191Y-107525800D01*
X132874556Y-107524359D01*
X132862876Y-107520816D01*
X132852114Y-107515063D01*
X132842680Y-107507320D01*
X132834937Y-107497886D01*
X132829184Y-107487124D01*
X132825641Y-107475444D01*
X132824200Y-107460809D01*
X132824200Y-106664191D01*
X132825641Y-106649556D01*
X132829184Y-106637876D01*
X132834937Y-106627114D01*
X132842680Y-106617680D01*
X132852114Y-106609937D01*
X132862876Y-106604184D01*
X132874556Y-106600641D01*
X132889191Y-106599200D01*
X133110809Y-106599200D01*
X133125444Y-106600641D01*
G37*
G36*
X136625444Y-106600641D02*
G01*
X136637124Y-106604184D01*
X136647886Y-106609937D01*
X136657320Y-106617680D01*
X136665063Y-106627114D01*
X136670816Y-106637876D01*
X136674359Y-106649556D01*
X136675800Y-106664191D01*
X136675800Y-107460809D01*
X136674359Y-107475444D01*
X136670816Y-107487124D01*
X136665063Y-107497886D01*
X136657320Y-107507320D01*
X136647886Y-107515063D01*
X136637124Y-107520816D01*
X136625444Y-107524359D01*
X136610809Y-107525800D01*
X136389191Y-107525800D01*
X136374556Y-107524359D01*
X136362876Y-107520816D01*
X136352114Y-107515063D01*
X136342680Y-107507320D01*
X136334937Y-107497886D01*
X136329184Y-107487124D01*
X136325641Y-107475444D01*
X136324200Y-107460809D01*
X136324200Y-106664191D01*
X136325641Y-106649556D01*
X136329184Y-106637876D01*
X136334937Y-106627114D01*
X136342680Y-106617680D01*
X136352114Y-106609937D01*
X136362876Y-106604184D01*
X136374556Y-106600641D01*
X136389191Y-106599200D01*
X136610809Y-106599200D01*
X136625444Y-106600641D01*
G37*
G36*
X119850800Y-107350800D02*
G01*
X118149200Y-107350800D01*
X118149200Y-105649200D01*
X119850800Y-105649200D01*
X119850800Y-107350800D01*
G37*
G36*
X139252027Y-106172275D02*
G01*
X139279650Y-106180654D01*
X139305113Y-106194264D01*
X139327425Y-106212575D01*
X139345736Y-106234887D01*
X139359346Y-106260350D01*
X139367725Y-106287973D01*
X139370800Y-106319191D01*
X139370800Y-106710809D01*
X139367725Y-106742027D01*
X139359346Y-106769650D01*
X139345736Y-106795113D01*
X139327425Y-106817425D01*
X139305113Y-106835736D01*
X139279650Y-106849346D01*
X139252027Y-106857725D01*
X139220809Y-106860800D01*
X138779191Y-106860800D01*
X138747973Y-106857725D01*
X138720350Y-106849346D01*
X138694887Y-106835736D01*
X138672575Y-106817425D01*
X138654264Y-106795113D01*
X138640654Y-106769650D01*
X138632275Y-106742027D01*
X138629200Y-106710809D01*
X138629200Y-106319191D01*
X138632275Y-106287973D01*
X138640654Y-106260350D01*
X138654264Y-106234887D01*
X138672575Y-106212575D01*
X138694887Y-106194264D01*
X138720350Y-106180654D01*
X138747973Y-106172275D01*
X138779191Y-106169200D01*
X139220809Y-106169200D01*
X139252027Y-106172275D01*
G37*
G36*
X167850800Y-106850800D02*
G01*
X166149200Y-106850800D01*
X166149200Y-105149200D01*
X167850800Y-105149200D01*
X167850800Y-106850800D01*
G37*
G36*
X164748169Y-105181895D02*
G01*
X164903005Y-105246031D01*
X165042354Y-105339140D01*
X165160860Y-105457646D01*
X165253969Y-105596995D01*
X165318105Y-105751831D01*
X165350800Y-105916203D01*
X165350800Y-106083797D01*
X165318105Y-106248169D01*
X165253969Y-106403005D01*
X165160860Y-106542354D01*
X165042354Y-106660860D01*
X164903005Y-106753969D01*
X164748169Y-106818105D01*
X164583797Y-106850800D01*
X164416203Y-106850800D01*
X164251831Y-106818105D01*
X164096995Y-106753969D01*
X163957646Y-106660860D01*
X163839140Y-106542354D01*
X163746031Y-106403005D01*
X163681895Y-106248169D01*
X163649200Y-106083797D01*
X163649200Y-105916203D01*
X163681895Y-105751831D01*
X163746031Y-105596995D01*
X163839140Y-105457646D01*
X163957646Y-105339140D01*
X164096995Y-105246031D01*
X164251831Y-105181895D01*
X164416203Y-105149200D01*
X164583797Y-105149200D01*
X164748169Y-105181895D01*
G37*
G36*
X162748169Y-105181895D02*
G01*
X162903005Y-105246031D01*
X163042354Y-105339140D01*
X163160860Y-105457646D01*
X163253969Y-105596995D01*
X163318105Y-105751831D01*
X163350800Y-105916203D01*
X163350800Y-106083797D01*
X163318105Y-106248169D01*
X163253969Y-106403005D01*
X163160860Y-106542354D01*
X163042354Y-106660860D01*
X162903005Y-106753969D01*
X162748169Y-106818105D01*
X162583797Y-106850800D01*
X162416203Y-106850800D01*
X162251831Y-106818105D01*
X162096995Y-106753969D01*
X161957646Y-106660860D01*
X161839140Y-106542354D01*
X161746031Y-106403005D01*
X161681895Y-106248169D01*
X161649200Y-106083797D01*
X161649200Y-105916203D01*
X161681895Y-105751831D01*
X161746031Y-105596995D01*
X161839140Y-105457646D01*
X161957646Y-105339140D01*
X162096995Y-105246031D01*
X162251831Y-105181895D01*
X162416203Y-105149200D01*
X162583797Y-105149200D01*
X162748169Y-105181895D01*
G37*
G36*
X160248169Y-105181895D02*
G01*
X160403005Y-105246031D01*
X160542354Y-105339140D01*
X160660860Y-105457646D01*
X160753969Y-105596995D01*
X160818105Y-105751831D01*
X160850800Y-105916203D01*
X160850800Y-106083797D01*
X160818105Y-106248169D01*
X160753969Y-106403005D01*
X160660860Y-106542354D01*
X160542354Y-106660860D01*
X160403005Y-106753969D01*
X160248169Y-106818105D01*
X160083797Y-106850800D01*
X159916203Y-106850800D01*
X159751831Y-106818105D01*
X159596995Y-106753969D01*
X159457646Y-106660860D01*
X159339140Y-106542354D01*
X159246031Y-106403005D01*
X159181895Y-106248169D01*
X159149200Y-106083797D01*
X159149200Y-105916203D01*
X159181895Y-105751831D01*
X159246031Y-105596995D01*
X159339140Y-105457646D01*
X159457646Y-105339140D01*
X159596995Y-105246031D01*
X159751831Y-105181895D01*
X159916203Y-105149200D01*
X160083797Y-105149200D01*
X160248169Y-105181895D01*
G37*
G36*
X132752027Y-105142275D02*
G01*
X132779650Y-105150654D01*
X132805113Y-105164264D01*
X132827425Y-105182575D01*
X132845736Y-105204887D01*
X132859346Y-105230350D01*
X132867725Y-105257973D01*
X132870800Y-105289191D01*
X132870800Y-105680809D01*
X132867725Y-105712027D01*
X132859346Y-105739650D01*
X132845736Y-105765113D01*
X132827425Y-105787425D01*
X132805113Y-105805736D01*
X132779650Y-105819346D01*
X132752027Y-105827725D01*
X132720809Y-105830800D01*
X132279191Y-105830800D01*
X132247973Y-105827725D01*
X132220350Y-105819346D01*
X132194887Y-105805736D01*
X132172575Y-105787425D01*
X132154264Y-105765113D01*
X132140654Y-105739650D01*
X132132275Y-105712027D01*
X132129200Y-105680809D01*
X132129200Y-105289191D01*
X132132275Y-105257973D01*
X132140654Y-105230350D01*
X132154264Y-105204887D01*
X132172575Y-105182575D01*
X132194887Y-105164264D01*
X132220350Y-105150654D01*
X132247973Y-105142275D01*
X132279191Y-105139200D01*
X132720809Y-105139200D01*
X132752027Y-105142275D01*
G37*
G36*
X133752027Y-105142275D02*
G01*
X133779650Y-105150654D01*
X133805113Y-105164264D01*
X133827425Y-105182575D01*
X133845736Y-105204887D01*
X133859346Y-105230350D01*
X133867725Y-105257973D01*
X133870800Y-105289191D01*
X133870800Y-105680809D01*
X133867725Y-105712027D01*
X133859346Y-105739650D01*
X133845736Y-105765113D01*
X133827425Y-105787425D01*
X133805113Y-105805736D01*
X133779650Y-105819346D01*
X133752027Y-105827725D01*
X133720809Y-105830800D01*
X133279191Y-105830800D01*
X133247973Y-105827725D01*
X133220350Y-105819346D01*
X133194887Y-105805736D01*
X133172575Y-105787425D01*
X133154264Y-105765113D01*
X133140654Y-105739650D01*
X133132275Y-105712027D01*
X133129200Y-105680809D01*
X133129200Y-105289191D01*
X133132275Y-105257973D01*
X133140654Y-105230350D01*
X133154264Y-105204887D01*
X133172575Y-105182575D01*
X133194887Y-105164264D01*
X133220350Y-105150654D01*
X133247973Y-105142275D01*
X133279191Y-105139200D01*
X133720809Y-105139200D01*
X133752027Y-105142275D01*
G37*
G36*
X138252027Y-105142275D02*
G01*
X138279650Y-105150654D01*
X138305113Y-105164264D01*
X138327425Y-105182575D01*
X138345736Y-105204887D01*
X138359346Y-105230350D01*
X138367725Y-105257973D01*
X138370800Y-105289191D01*
X138370800Y-105680809D01*
X138367725Y-105712027D01*
X138359346Y-105739650D01*
X138345736Y-105765113D01*
X138327425Y-105787425D01*
X138305113Y-105805736D01*
X138279650Y-105819346D01*
X138252027Y-105827725D01*
X138220809Y-105830800D01*
X137779191Y-105830800D01*
X137747973Y-105827725D01*
X137720350Y-105819346D01*
X137694887Y-105805736D01*
X137672575Y-105787425D01*
X137654264Y-105765113D01*
X137640654Y-105739650D01*
X137632275Y-105712027D01*
X137629200Y-105680809D01*
X137629200Y-105289191D01*
X137632275Y-105257973D01*
X137640654Y-105230350D01*
X137654264Y-105204887D01*
X137672575Y-105182575D01*
X137694887Y-105164264D01*
X137720350Y-105150654D01*
X137747973Y-105142275D01*
X137779191Y-105139200D01*
X138220809Y-105139200D01*
X138252027Y-105142275D01*
G37*
G36*
X131752027Y-105142275D02*
G01*
X131779650Y-105150654D01*
X131805113Y-105164264D01*
X131827425Y-105182575D01*
X131845736Y-105204887D01*
X131859346Y-105230350D01*
X131867725Y-105257973D01*
X131870800Y-105289191D01*
X131870800Y-105680809D01*
X131867725Y-105712027D01*
X131859346Y-105739650D01*
X131845736Y-105765113D01*
X131827425Y-105787425D01*
X131805113Y-105805736D01*
X131779650Y-105819346D01*
X131752027Y-105827725D01*
X131720809Y-105830800D01*
X131279191Y-105830800D01*
X131247973Y-105827725D01*
X131220350Y-105819346D01*
X131194887Y-105805736D01*
X131172575Y-105787425D01*
X131154264Y-105765113D01*
X131140654Y-105739650D01*
X131132275Y-105712027D01*
X131129200Y-105680809D01*
X131129200Y-105289191D01*
X131132275Y-105257973D01*
X131140654Y-105230350D01*
X131154264Y-105204887D01*
X131172575Y-105182575D01*
X131194887Y-105164264D01*
X131220350Y-105150654D01*
X131247973Y-105142275D01*
X131279191Y-105139200D01*
X131720809Y-105139200D01*
X131752027Y-105142275D01*
G37*
G36*
X139252027Y-105142275D02*
G01*
X139279650Y-105150654D01*
X139305113Y-105164264D01*
X139327425Y-105182575D01*
X139345736Y-105204887D01*
X139359346Y-105230350D01*
X139367725Y-105257973D01*
X139370800Y-105289191D01*
X139370800Y-105680809D01*
X139367725Y-105712027D01*
X139359346Y-105739650D01*
X139345736Y-105765113D01*
X139327425Y-105787425D01*
X139305113Y-105805736D01*
X139279650Y-105819346D01*
X139252027Y-105827725D01*
X139220809Y-105830800D01*
X138779191Y-105830800D01*
X138747973Y-105827725D01*
X138720350Y-105819346D01*
X138694887Y-105805736D01*
X138672575Y-105787425D01*
X138654264Y-105765113D01*
X138640654Y-105739650D01*
X138632275Y-105712027D01*
X138629200Y-105680809D01*
X138629200Y-105289191D01*
X138632275Y-105257973D01*
X138640654Y-105230350D01*
X138654264Y-105204887D01*
X138672575Y-105182575D01*
X138694887Y-105164264D01*
X138720350Y-105150654D01*
X138747973Y-105142275D01*
X138779191Y-105139200D01*
X139220809Y-105139200D01*
X139252027Y-105142275D01*
G37*
G36*
X136252027Y-105142275D02*
G01*
X136279650Y-105150654D01*
X136305113Y-105164264D01*
X136327425Y-105182575D01*
X136345736Y-105204887D01*
X136359346Y-105230350D01*
X136367725Y-105257973D01*
X136370800Y-105289191D01*
X136370800Y-105680809D01*
X136367725Y-105712027D01*
X136359346Y-105739650D01*
X136345736Y-105765113D01*
X136327425Y-105787425D01*
X136305113Y-105805736D01*
X136279650Y-105819346D01*
X136252027Y-105827725D01*
X136220809Y-105830800D01*
X135779191Y-105830800D01*
X135747973Y-105827725D01*
X135720350Y-105819346D01*
X135694887Y-105805736D01*
X135672575Y-105787425D01*
X135654264Y-105765113D01*
X135640654Y-105739650D01*
X135632275Y-105712027D01*
X135629200Y-105680809D01*
X135629200Y-105289191D01*
X135632275Y-105257973D01*
X135640654Y-105230350D01*
X135654264Y-105204887D01*
X135672575Y-105182575D01*
X135694887Y-105164264D01*
X135720350Y-105150654D01*
X135747973Y-105142275D01*
X135779191Y-105139200D01*
X136220809Y-105139200D01*
X136252027Y-105142275D01*
G37*
G36*
X127700800Y-105425800D02*
G01*
X127249200Y-105425800D01*
X127249200Y-104674200D01*
X127700800Y-104674200D01*
X127700800Y-105425800D01*
G37*
G36*
X125750800Y-105425800D02*
G01*
X125299200Y-105425800D01*
X125299200Y-104674200D01*
X125750800Y-104674200D01*
X125750800Y-105425800D01*
G37*
G36*
X126400800Y-105425800D02*
G01*
X125949200Y-105425800D01*
X125949200Y-104674200D01*
X126400800Y-104674200D01*
X126400800Y-105425800D01*
G37*
G36*
X127050800Y-105425800D02*
G01*
X126599200Y-105425800D01*
X126599200Y-104674200D01*
X127050800Y-104674200D01*
X127050800Y-105425800D01*
G37*
G36*
X116742352Y-101938796D02*
G01*
X117024579Y-102055699D01*
X117278578Y-102225415D01*
X117494585Y-102441422D01*
X117664301Y-102695421D01*
X117781204Y-102977648D01*
X117840800Y-103277259D01*
X117840800Y-103582741D01*
X117781204Y-103882352D01*
X117664301Y-104164579D01*
X117494585Y-104418578D01*
X117278578Y-104634585D01*
X117024579Y-104804301D01*
X116742352Y-104921204D01*
X116442741Y-104980800D01*
X116137259Y-104980800D01*
X115837648Y-104921204D01*
X115555421Y-104804301D01*
X115301422Y-104634585D01*
X115085415Y-104418578D01*
X114915699Y-104164579D01*
X114798796Y-103882352D01*
X114739200Y-103582741D01*
X114739200Y-103277259D01*
X114798796Y-102977648D01*
X114915699Y-102695421D01*
X115085415Y-102441422D01*
X115301422Y-102225415D01*
X115555421Y-102055699D01*
X115837648Y-101938796D01*
X116137259Y-101879200D01*
X116442741Y-101879200D01*
X116742352Y-101938796D01*
G37*
G36*
X131752027Y-104172275D02*
G01*
X131779650Y-104180654D01*
X131805113Y-104194264D01*
X131827425Y-104212575D01*
X131845736Y-104234887D01*
X131859346Y-104260350D01*
X131867725Y-104287973D01*
X131870800Y-104319191D01*
X131870800Y-104710809D01*
X131867725Y-104742027D01*
X131859346Y-104769650D01*
X131845736Y-104795113D01*
X131827425Y-104817425D01*
X131805113Y-104835736D01*
X131779650Y-104849346D01*
X131752027Y-104857725D01*
X131720809Y-104860800D01*
X131279191Y-104860800D01*
X131247973Y-104857725D01*
X131220350Y-104849346D01*
X131194887Y-104835736D01*
X131172575Y-104817425D01*
X131154264Y-104795113D01*
X131140654Y-104769650D01*
X131132275Y-104742027D01*
X131129200Y-104710809D01*
X131129200Y-104319191D01*
X131132275Y-104287973D01*
X131140654Y-104260350D01*
X131154264Y-104234887D01*
X131172575Y-104212575D01*
X131194887Y-104194264D01*
X131220350Y-104180654D01*
X131247973Y-104172275D01*
X131279191Y-104169200D01*
X131720809Y-104169200D01*
X131752027Y-104172275D01*
G37*
G36*
X136252027Y-104172275D02*
G01*
X136279650Y-104180654D01*
X136305113Y-104194264D01*
X136327425Y-104212575D01*
X136345736Y-104234887D01*
X136359346Y-104260350D01*
X136367725Y-104287973D01*
X136370800Y-104319191D01*
X136370800Y-104710809D01*
X136367725Y-104742027D01*
X136359346Y-104769650D01*
X136345736Y-104795113D01*
X136327425Y-104817425D01*
X136305113Y-104835736D01*
X136279650Y-104849346D01*
X136252027Y-104857725D01*
X136220809Y-104860800D01*
X135779191Y-104860800D01*
X135747973Y-104857725D01*
X135720350Y-104849346D01*
X135694887Y-104835736D01*
X135672575Y-104817425D01*
X135654264Y-104795113D01*
X135640654Y-104769650D01*
X135632275Y-104742027D01*
X135629200Y-104710809D01*
X135629200Y-104319191D01*
X135632275Y-104287973D01*
X135640654Y-104260350D01*
X135654264Y-104234887D01*
X135672575Y-104212575D01*
X135694887Y-104194264D01*
X135720350Y-104180654D01*
X135747973Y-104172275D01*
X135779191Y-104169200D01*
X136220809Y-104169200D01*
X136252027Y-104172275D01*
G37*
G36*
X132752027Y-104172275D02*
G01*
X132779650Y-104180654D01*
X132805113Y-104194264D01*
X132827425Y-104212575D01*
X132845736Y-104234887D01*
X132859346Y-104260350D01*
X132867725Y-104287973D01*
X132870800Y-104319191D01*
X132870800Y-104710809D01*
X132867725Y-104742027D01*
X132859346Y-104769650D01*
X132845736Y-104795113D01*
X132827425Y-104817425D01*
X132805113Y-104835736D01*
X132779650Y-104849346D01*
X132752027Y-104857725D01*
X132720809Y-104860800D01*
X132279191Y-104860800D01*
X132247973Y-104857725D01*
X132220350Y-104849346D01*
X132194887Y-104835736D01*
X132172575Y-104817425D01*
X132154264Y-104795113D01*
X132140654Y-104769650D01*
X132132275Y-104742027D01*
X132129200Y-104710809D01*
X132129200Y-104319191D01*
X132132275Y-104287973D01*
X132140654Y-104260350D01*
X132154264Y-104234887D01*
X132172575Y-104212575D01*
X132194887Y-104194264D01*
X132220350Y-104180654D01*
X132247973Y-104172275D01*
X132279191Y-104169200D01*
X132720809Y-104169200D01*
X132752027Y-104172275D01*
G37*
G36*
X139252027Y-104172275D02*
G01*
X139279650Y-104180654D01*
X139305113Y-104194264D01*
X139327425Y-104212575D01*
X139345736Y-104234887D01*
X139359346Y-104260350D01*
X139367725Y-104287973D01*
X139370800Y-104319191D01*
X139370800Y-104710809D01*
X139367725Y-104742027D01*
X139359346Y-104769650D01*
X139345736Y-104795113D01*
X139327425Y-104817425D01*
X139305113Y-104835736D01*
X139279650Y-104849346D01*
X139252027Y-104857725D01*
X139220809Y-104860800D01*
X138779191Y-104860800D01*
X138747973Y-104857725D01*
X138720350Y-104849346D01*
X138694887Y-104835736D01*
X138672575Y-104817425D01*
X138654264Y-104795113D01*
X138640654Y-104769650D01*
X138632275Y-104742027D01*
X138629200Y-104710809D01*
X138629200Y-104319191D01*
X138632275Y-104287973D01*
X138640654Y-104260350D01*
X138654264Y-104234887D01*
X138672575Y-104212575D01*
X138694887Y-104194264D01*
X138720350Y-104180654D01*
X138747973Y-104172275D01*
X138779191Y-104169200D01*
X139220809Y-104169200D01*
X139252027Y-104172275D01*
G37*
G36*
X138252027Y-104172275D02*
G01*
X138279650Y-104180654D01*
X138305113Y-104194264D01*
X138327425Y-104212575D01*
X138345736Y-104234887D01*
X138359346Y-104260350D01*
X138367725Y-104287973D01*
X138370800Y-104319191D01*
X138370800Y-104710809D01*
X138367725Y-104742027D01*
X138359346Y-104769650D01*
X138345736Y-104795113D01*
X138327425Y-104817425D01*
X138305113Y-104835736D01*
X138279650Y-104849346D01*
X138252027Y-104857725D01*
X138220809Y-104860800D01*
X137779191Y-104860800D01*
X137747973Y-104857725D01*
X137720350Y-104849346D01*
X137694887Y-104835736D01*
X137672575Y-104817425D01*
X137654264Y-104795113D01*
X137640654Y-104769650D01*
X137632275Y-104742027D01*
X137629200Y-104710809D01*
X137629200Y-104319191D01*
X137632275Y-104287973D01*
X137640654Y-104260350D01*
X137654264Y-104234887D01*
X137672575Y-104212575D01*
X137694887Y-104194264D01*
X137720350Y-104180654D01*
X137747973Y-104172275D01*
X137779191Y-104169200D01*
X138220809Y-104169200D01*
X138252027Y-104172275D01*
G37*
G36*
X133752027Y-104172275D02*
G01*
X133779650Y-104180654D01*
X133805113Y-104194264D01*
X133827425Y-104212575D01*
X133845736Y-104234887D01*
X133859346Y-104260350D01*
X133867725Y-104287973D01*
X133870800Y-104319191D01*
X133870800Y-104710809D01*
X133867725Y-104742027D01*
X133859346Y-104769650D01*
X133845736Y-104795113D01*
X133827425Y-104817425D01*
X133805113Y-104835736D01*
X133779650Y-104849346D01*
X133752027Y-104857725D01*
X133720809Y-104860800D01*
X133279191Y-104860800D01*
X133247973Y-104857725D01*
X133220350Y-104849346D01*
X133194887Y-104835736D01*
X133172575Y-104817425D01*
X133154264Y-104795113D01*
X133140654Y-104769650D01*
X133132275Y-104742027D01*
X133129200Y-104710809D01*
X133129200Y-104319191D01*
X133132275Y-104287973D01*
X133140654Y-104260350D01*
X133154264Y-104234887D01*
X133172575Y-104212575D01*
X133194887Y-104194264D01*
X133220350Y-104180654D01*
X133247973Y-104172275D01*
X133279191Y-104169200D01*
X133720809Y-104169200D01*
X133752027Y-104172275D01*
G37*
G36*
X170522352Y-101798796D02*
G01*
X170804579Y-101915699D01*
X171058578Y-102085415D01*
X171274585Y-102301422D01*
X171444301Y-102555421D01*
X171561204Y-102837648D01*
X171620800Y-103137259D01*
X171620800Y-103442741D01*
X171561204Y-103742352D01*
X171444301Y-104024579D01*
X171274585Y-104278578D01*
X171058578Y-104494585D01*
X170804579Y-104664301D01*
X170522352Y-104781204D01*
X170222741Y-104840800D01*
X169917259Y-104840800D01*
X169617648Y-104781204D01*
X169335421Y-104664301D01*
X169081422Y-104494585D01*
X168865415Y-104278578D01*
X168695699Y-104024579D01*
X168578796Y-103742352D01*
X168519200Y-103442741D01*
X168519200Y-103137259D01*
X168578796Y-102837648D01*
X168695699Y-102555421D01*
X168865415Y-102301422D01*
X169081422Y-102085415D01*
X169335421Y-101915699D01*
X169617648Y-101798796D01*
X169917259Y-101739200D01*
X170222741Y-101739200D01*
X170522352Y-101798796D01*
G37*
G36*
X157382352Y-101798796D02*
G01*
X157664579Y-101915699D01*
X157918578Y-102085415D01*
X158134585Y-102301422D01*
X158304301Y-102555421D01*
X158421204Y-102837648D01*
X158480800Y-103137259D01*
X158480800Y-103442741D01*
X158421204Y-103742352D01*
X158304301Y-104024579D01*
X158134585Y-104278578D01*
X157918578Y-104494585D01*
X157664579Y-104664301D01*
X157382352Y-104781204D01*
X157082741Y-104840800D01*
X156777259Y-104840800D01*
X156477648Y-104781204D01*
X156195421Y-104664301D01*
X155941422Y-104494585D01*
X155725415Y-104278578D01*
X155555699Y-104024579D01*
X155438796Y-103742352D01*
X155379200Y-103442741D01*
X155379200Y-103137259D01*
X155438796Y-102837648D01*
X155555699Y-102555421D01*
X155725415Y-102301422D01*
X155941422Y-102085415D01*
X156195421Y-101915699D01*
X156477648Y-101798796D01*
X156777259Y-101739200D01*
X157082741Y-101739200D01*
X157382352Y-101798796D01*
G37*
G36*
X127750800Y-104325800D02*
G01*
X125249200Y-104325800D01*
X125249200Y-102674200D01*
X127750800Y-102674200D01*
X127750800Y-104325800D01*
G37*
G36*
X127050800Y-102325800D02*
G01*
X126599200Y-102325800D01*
X126599200Y-101574200D01*
X127050800Y-101574200D01*
X127050800Y-102325800D01*
G37*
G36*
X127700800Y-102325800D02*
G01*
X127249200Y-102325800D01*
X127249200Y-101574200D01*
X127700800Y-101574200D01*
X127700800Y-102325800D01*
G37*
G36*
X126400800Y-102325800D02*
G01*
X125949200Y-102325800D01*
X125949200Y-101574200D01*
X126400800Y-101574200D01*
X126400800Y-102325800D01*
G37*
G36*
X125750800Y-102325800D02*
G01*
X125299200Y-102325800D01*
X125299200Y-101574200D01*
X125750800Y-101574200D01*
X125750800Y-102325800D01*
G37*
G36*
X135600800Y-101800800D02*
G01*
X134749200Y-101800800D01*
X134749200Y-100999200D01*
X135600800Y-100999200D01*
X135600800Y-101800800D01*
G37*
G36*
X134250800Y-101800800D02*
G01*
X133399200Y-101800800D01*
X133399200Y-100999200D01*
X134250800Y-100999200D01*
X134250800Y-101800800D01*
G37*
G36*
X123152027Y-101042275D02*
G01*
X123179650Y-101050654D01*
X123205113Y-101064264D01*
X123227425Y-101082575D01*
X123245736Y-101104887D01*
X123259346Y-101130350D01*
X123267725Y-101157973D01*
X123270800Y-101189191D01*
X123270800Y-101580809D01*
X123267725Y-101612027D01*
X123259346Y-101639650D01*
X123245736Y-101665113D01*
X123227425Y-101687425D01*
X123205113Y-101705736D01*
X123179650Y-101719346D01*
X123152027Y-101727725D01*
X123120809Y-101730800D01*
X122679191Y-101730800D01*
X122647973Y-101727725D01*
X122620350Y-101719346D01*
X122594887Y-101705736D01*
X122572575Y-101687425D01*
X122554264Y-101665113D01*
X122540654Y-101639650D01*
X122532275Y-101612027D01*
X122529200Y-101580809D01*
X122529200Y-101189191D01*
X122532275Y-101157973D01*
X122540654Y-101130350D01*
X122554264Y-101104887D01*
X122572575Y-101082575D01*
X122594887Y-101064264D01*
X122620350Y-101050654D01*
X122647973Y-101042275D01*
X122679191Y-101039200D01*
X123120809Y-101039200D01*
X123152027Y-101042275D01*
G37*
G36*
X135600800Y-100800800D02*
G01*
X134749200Y-100800800D01*
X134749200Y-99999200D01*
X135600800Y-99999200D01*
X135600800Y-100800800D01*
G37*
G36*
X134250800Y-100800800D02*
G01*
X133399200Y-100800800D01*
X133399200Y-99999200D01*
X134250800Y-99999200D01*
X134250800Y-100800800D01*
G37*
G36*
X123152027Y-100072275D02*
G01*
X123179650Y-100080654D01*
X123205113Y-100094264D01*
X123227425Y-100112575D01*
X123245736Y-100134887D01*
X123259346Y-100160350D01*
X123267725Y-100187973D01*
X123270800Y-100219191D01*
X123270800Y-100610809D01*
X123267725Y-100642027D01*
X123259346Y-100669650D01*
X123245736Y-100695113D01*
X123227425Y-100717425D01*
X123205113Y-100735736D01*
X123179650Y-100749346D01*
X123152027Y-100757725D01*
X123120809Y-100760800D01*
X122679191Y-100760800D01*
X122647973Y-100757725D01*
X122620350Y-100749346D01*
X122594887Y-100735736D01*
X122572575Y-100717425D01*
X122554264Y-100695113D01*
X122540654Y-100669650D01*
X122532275Y-100642027D01*
X122529200Y-100610809D01*
X122529200Y-100219191D01*
X122532275Y-100187973D01*
X122540654Y-100160350D01*
X122554264Y-100134887D01*
X122572575Y-100112575D01*
X122594887Y-100094264D01*
X122620350Y-100080654D01*
X122647973Y-100072275D01*
X122679191Y-100069200D01*
X123120809Y-100069200D01*
X123152027Y-100072275D01*
G37*
G36*
X119194041Y-95447226D02*
G01*
X119658257Y-95639510D01*
X120076042Y-95918665D01*
X120431335Y-96273958D01*
X120710490Y-96691743D01*
X120902774Y-97155959D01*
X121000800Y-97648768D01*
X121000800Y-98151232D01*
X120902774Y-98644041D01*
X120710490Y-99108257D01*
X120431335Y-99526042D01*
X120076042Y-99881335D01*
X119658257Y-100160490D01*
X119194041Y-100352774D01*
X118701232Y-100450800D01*
X118198768Y-100450800D01*
X117705959Y-100352774D01*
X117241743Y-100160490D01*
X116823958Y-99881335D01*
X116468665Y-99526042D01*
X116189510Y-99108257D01*
X115997226Y-98644041D01*
X115899200Y-98151232D01*
X115899200Y-97648768D01*
X115997226Y-97155959D01*
X116189510Y-96691743D01*
X116468665Y-96273958D01*
X116823958Y-95918665D01*
X117241743Y-95639510D01*
X117705959Y-95447226D01*
X118198768Y-95349200D01*
X118701232Y-95349200D01*
X119194041Y-95447226D01*
G37*
G36*
X143344041Y-95447226D02*
G01*
X143808257Y-95639510D01*
X144226042Y-95918665D01*
X144581335Y-96273958D01*
X144860490Y-96691743D01*
X145052774Y-97155959D01*
X145150800Y-97648768D01*
X145150800Y-98151232D01*
X145052774Y-98644041D01*
X144860490Y-99108257D01*
X144581335Y-99526042D01*
X144226042Y-99881335D01*
X143808257Y-100160490D01*
X143344041Y-100352774D01*
X142851232Y-100450800D01*
X142348768Y-100450800D01*
X141855959Y-100352774D01*
X141391743Y-100160490D01*
X140973958Y-99881335D01*
X140618665Y-99526042D01*
X140339510Y-99108257D01*
X140147226Y-98644041D01*
X140049200Y-98151232D01*
X140049200Y-97648768D01*
X140147226Y-97155959D01*
X140339510Y-96691743D01*
X140618665Y-96273958D01*
X140973958Y-95918665D01*
X141391743Y-95639510D01*
X141855959Y-95447226D01*
X142348768Y-95349200D01*
X142851232Y-95349200D01*
X143344041Y-95447226D01*
G37*
G36*
X154752027Y-99142275D02*
G01*
X154779650Y-99150654D01*
X154805113Y-99164264D01*
X154827425Y-99182575D01*
X154845736Y-99204887D01*
X154859346Y-99230350D01*
X154867725Y-99257973D01*
X154870800Y-99289191D01*
X154870800Y-99680809D01*
X154867725Y-99712027D01*
X154859346Y-99739650D01*
X154845736Y-99765113D01*
X154827425Y-99787425D01*
X154805113Y-99805736D01*
X154779650Y-99819346D01*
X154752027Y-99827725D01*
X154720809Y-99830800D01*
X154279191Y-99830800D01*
X154247973Y-99827725D01*
X154220350Y-99819346D01*
X154194887Y-99805736D01*
X154172575Y-99787425D01*
X154154264Y-99765113D01*
X154140654Y-99739650D01*
X154132275Y-99712027D01*
X154129200Y-99680809D01*
X154129200Y-99289191D01*
X154132275Y-99257973D01*
X154140654Y-99230350D01*
X154154264Y-99204887D01*
X154172575Y-99182575D01*
X154194887Y-99164264D01*
X154220350Y-99150654D01*
X154247973Y-99142275D01*
X154279191Y-99139200D01*
X154720809Y-99139200D01*
X154752027Y-99142275D01*
G37*
G36*
X153752027Y-99142275D02*
G01*
X153779650Y-99150654D01*
X153805113Y-99164264D01*
X153827425Y-99182575D01*
X153845736Y-99204887D01*
X153859346Y-99230350D01*
X153867725Y-99257973D01*
X153870800Y-99289191D01*
X153870800Y-99680809D01*
X153867725Y-99712027D01*
X153859346Y-99739650D01*
X153845736Y-99765113D01*
X153827425Y-99787425D01*
X153805113Y-99805736D01*
X153779650Y-99819346D01*
X153752027Y-99827725D01*
X153720809Y-99830800D01*
X153279191Y-99830800D01*
X153247973Y-99827725D01*
X153220350Y-99819346D01*
X153194887Y-99805736D01*
X153172575Y-99787425D01*
X153154264Y-99765113D01*
X153140654Y-99739650D01*
X153132275Y-99712027D01*
X153129200Y-99680809D01*
X153129200Y-99289191D01*
X153132275Y-99257973D01*
X153140654Y-99230350D01*
X153154264Y-99204887D01*
X153172575Y-99182575D01*
X153194887Y-99164264D01*
X153220350Y-99150654D01*
X153247973Y-99142275D01*
X153279191Y-99139200D01*
X153720809Y-99139200D01*
X153752027Y-99142275D01*
G37*
G36*
X149200800Y-99675800D02*
G01*
X147299200Y-99675800D01*
X147299200Y-98824200D01*
X149200800Y-98824200D01*
X149200800Y-99675800D01*
G37*
G36*
X132992027Y-98782275D02*
G01*
X133019650Y-98790654D01*
X133045113Y-98804264D01*
X133067425Y-98822575D01*
X133085736Y-98844887D01*
X133099346Y-98870350D01*
X133107725Y-98897973D01*
X133110800Y-98929191D01*
X133110800Y-99370809D01*
X133107725Y-99402027D01*
X133099346Y-99429650D01*
X133085736Y-99455113D01*
X133067425Y-99477425D01*
X133045113Y-99495736D01*
X133019650Y-99509346D01*
X132992027Y-99517725D01*
X132960809Y-99520800D01*
X132569191Y-99520800D01*
X132537973Y-99517725D01*
X132510350Y-99509346D01*
X132484887Y-99495736D01*
X132462575Y-99477425D01*
X132444264Y-99455113D01*
X132430654Y-99429650D01*
X132422275Y-99402027D01*
X132419200Y-99370809D01*
X132419200Y-98929191D01*
X132422275Y-98897973D01*
X132430654Y-98870350D01*
X132444264Y-98844887D01*
X132462575Y-98822575D01*
X132484887Y-98804264D01*
X132510350Y-98790654D01*
X132537973Y-98782275D01*
X132569191Y-98779200D01*
X132960809Y-98779200D01*
X132992027Y-98782275D01*
G37*
G36*
X136462027Y-98782275D02*
G01*
X136489650Y-98790654D01*
X136515113Y-98804264D01*
X136537425Y-98822575D01*
X136555736Y-98844887D01*
X136569346Y-98870350D01*
X136577725Y-98897973D01*
X136580800Y-98929191D01*
X136580800Y-99370809D01*
X136577725Y-99402027D01*
X136569346Y-99429650D01*
X136555736Y-99455113D01*
X136537425Y-99477425D01*
X136515113Y-99495736D01*
X136489650Y-99509346D01*
X136462027Y-99517725D01*
X136430809Y-99520800D01*
X136039191Y-99520800D01*
X136007973Y-99517725D01*
X135980350Y-99509346D01*
X135954887Y-99495736D01*
X135932575Y-99477425D01*
X135914264Y-99455113D01*
X135900654Y-99429650D01*
X135892275Y-99402027D01*
X135889200Y-99370809D01*
X135889200Y-98929191D01*
X135892275Y-98897973D01*
X135900654Y-98870350D01*
X135914264Y-98844887D01*
X135932575Y-98822575D01*
X135954887Y-98804264D01*
X135980350Y-98790654D01*
X136007973Y-98782275D01*
X136039191Y-98779200D01*
X136430809Y-98779200D01*
X136462027Y-98782275D01*
G37*
G36*
X135492027Y-98782275D02*
G01*
X135519650Y-98790654D01*
X135545113Y-98804264D01*
X135567425Y-98822575D01*
X135585736Y-98844887D01*
X135599346Y-98870350D01*
X135607725Y-98897973D01*
X135610800Y-98929191D01*
X135610800Y-99370809D01*
X135607725Y-99402027D01*
X135599346Y-99429650D01*
X135585736Y-99455113D01*
X135567425Y-99477425D01*
X135545113Y-99495736D01*
X135519650Y-99509346D01*
X135492027Y-99517725D01*
X135460809Y-99520800D01*
X135069191Y-99520800D01*
X135037973Y-99517725D01*
X135010350Y-99509346D01*
X134984887Y-99495736D01*
X134962575Y-99477425D01*
X134944264Y-99455113D01*
X134930654Y-99429650D01*
X134922275Y-99402027D01*
X134919200Y-99370809D01*
X134919200Y-98929191D01*
X134922275Y-98897973D01*
X134930654Y-98870350D01*
X134944264Y-98844887D01*
X134962575Y-98822575D01*
X134984887Y-98804264D01*
X135010350Y-98790654D01*
X135037973Y-98782275D01*
X135069191Y-98779200D01*
X135460809Y-98779200D01*
X135492027Y-98782275D01*
G37*
G36*
X133962027Y-98782275D02*
G01*
X133989650Y-98790654D01*
X134015113Y-98804264D01*
X134037425Y-98822575D01*
X134055736Y-98844887D01*
X134069346Y-98870350D01*
X134077725Y-98897973D01*
X134080800Y-98929191D01*
X134080800Y-99370809D01*
X134077725Y-99402027D01*
X134069346Y-99429650D01*
X134055736Y-99455113D01*
X134037425Y-99477425D01*
X134015113Y-99495736D01*
X133989650Y-99509346D01*
X133962027Y-99517725D01*
X133930809Y-99520800D01*
X133539191Y-99520800D01*
X133507973Y-99517725D01*
X133480350Y-99509346D01*
X133454887Y-99495736D01*
X133432575Y-99477425D01*
X133414264Y-99455113D01*
X133400654Y-99429650D01*
X133392275Y-99402027D01*
X133389200Y-99370809D01*
X133389200Y-98929191D01*
X133392275Y-98897973D01*
X133400654Y-98870350D01*
X133414264Y-98844887D01*
X133432575Y-98822575D01*
X133454887Y-98804264D01*
X133480350Y-98790654D01*
X133507973Y-98782275D01*
X133539191Y-98779200D01*
X133930809Y-98779200D01*
X133962027Y-98782275D01*
G37*
G36*
X154752027Y-98172275D02*
G01*
X154779650Y-98180654D01*
X154805113Y-98194264D01*
X154827425Y-98212575D01*
X154845736Y-98234887D01*
X154859346Y-98260350D01*
X154867725Y-98287973D01*
X154870800Y-98319191D01*
X154870800Y-98710809D01*
X154867725Y-98742027D01*
X154859346Y-98769650D01*
X154845736Y-98795113D01*
X154827425Y-98817425D01*
X154805113Y-98835736D01*
X154779650Y-98849346D01*
X154752027Y-98857725D01*
X154720809Y-98860800D01*
X154279191Y-98860800D01*
X154247973Y-98857725D01*
X154220350Y-98849346D01*
X154194887Y-98835736D01*
X154172575Y-98817425D01*
X154154264Y-98795113D01*
X154140654Y-98769650D01*
X154132275Y-98742027D01*
X154129200Y-98710809D01*
X154129200Y-98319191D01*
X154132275Y-98287973D01*
X154140654Y-98260350D01*
X154154264Y-98234887D01*
X154172575Y-98212575D01*
X154194887Y-98194264D01*
X154220350Y-98180654D01*
X154247973Y-98172275D01*
X154279191Y-98169200D01*
X154720809Y-98169200D01*
X154752027Y-98172275D01*
G37*
G36*
X153752027Y-98172275D02*
G01*
X153779650Y-98180654D01*
X153805113Y-98194264D01*
X153827425Y-98212575D01*
X153845736Y-98234887D01*
X153859346Y-98260350D01*
X153867725Y-98287973D01*
X153870800Y-98319191D01*
X153870800Y-98710809D01*
X153867725Y-98742027D01*
X153859346Y-98769650D01*
X153845736Y-98795113D01*
X153827425Y-98817425D01*
X153805113Y-98835736D01*
X153779650Y-98849346D01*
X153752027Y-98857725D01*
X153720809Y-98860800D01*
X153279191Y-98860800D01*
X153247973Y-98857725D01*
X153220350Y-98849346D01*
X153194887Y-98835736D01*
X153172575Y-98817425D01*
X153154264Y-98795113D01*
X153140654Y-98769650D01*
X153132275Y-98742027D01*
X153129200Y-98710809D01*
X153129200Y-98319191D01*
X153132275Y-98287973D01*
X153140654Y-98260350D01*
X153154264Y-98234887D01*
X153172575Y-98212575D01*
X153194887Y-98194264D01*
X153220350Y-98180654D01*
X153247973Y-98172275D01*
X153279191Y-98169200D01*
X153720809Y-98169200D01*
X153752027Y-98172275D01*
G37*
G36*
X149030800Y-98480800D02*
G01*
X147469200Y-98480800D01*
X147469200Y-97019200D01*
X149030800Y-97019200D01*
X149030800Y-98480800D01*
G37*
G36*
X128152027Y-96642275D02*
G01*
X128179650Y-96650654D01*
X128205113Y-96664264D01*
X128227425Y-96682575D01*
X128245736Y-96704887D01*
X128259346Y-96730350D01*
X128267725Y-96757973D01*
X128270800Y-96789191D01*
X128270800Y-97180809D01*
X128267725Y-97212027D01*
X128259346Y-97239650D01*
X128245736Y-97265113D01*
X128227425Y-97287425D01*
X128205113Y-97305736D01*
X128179650Y-97319346D01*
X128152027Y-97327725D01*
X128120809Y-97330800D01*
X127679191Y-97330800D01*
X127647973Y-97327725D01*
X127620350Y-97319346D01*
X127594887Y-97305736D01*
X127572575Y-97287425D01*
X127554264Y-97265113D01*
X127540654Y-97239650D01*
X127532275Y-97212027D01*
X127529200Y-97180809D01*
X127529200Y-96789191D01*
X127532275Y-96757973D01*
X127540654Y-96730350D01*
X127554264Y-96704887D01*
X127572575Y-96682575D01*
X127594887Y-96664264D01*
X127620350Y-96650654D01*
X127647973Y-96642275D01*
X127679191Y-96639200D01*
X128120809Y-96639200D01*
X128152027Y-96642275D01*
G37*
G36*
X130152027Y-96642275D02*
G01*
X130179650Y-96650654D01*
X130205113Y-96664264D01*
X130227425Y-96682575D01*
X130245736Y-96704887D01*
X130259346Y-96730350D01*
X130267725Y-96757973D01*
X130270800Y-96789191D01*
X130270800Y-97180809D01*
X130267725Y-97212027D01*
X130259346Y-97239650D01*
X130245736Y-97265113D01*
X130227425Y-97287425D01*
X130205113Y-97305736D01*
X130179650Y-97319346D01*
X130152027Y-97327725D01*
X130120809Y-97330800D01*
X129679191Y-97330800D01*
X129647973Y-97327725D01*
X129620350Y-97319346D01*
X129594887Y-97305736D01*
X129572575Y-97287425D01*
X129554264Y-97265113D01*
X129540654Y-97239650D01*
X129532275Y-97212027D01*
X129529200Y-97180809D01*
X129529200Y-96789191D01*
X129532275Y-96757973D01*
X129540654Y-96730350D01*
X129554264Y-96704887D01*
X129572575Y-96682575D01*
X129594887Y-96664264D01*
X129620350Y-96650654D01*
X129647973Y-96642275D01*
X129679191Y-96639200D01*
X130120809Y-96639200D01*
X130152027Y-96642275D01*
G37*
G36*
X125152027Y-96642275D02*
G01*
X125179650Y-96650654D01*
X125205113Y-96664264D01*
X125227425Y-96682575D01*
X125245736Y-96704887D01*
X125259346Y-96730350D01*
X125267725Y-96757973D01*
X125270800Y-96789191D01*
X125270800Y-97180809D01*
X125267725Y-97212027D01*
X125259346Y-97239650D01*
X125245736Y-97265113D01*
X125227425Y-97287425D01*
X125205113Y-97305736D01*
X125179650Y-97319346D01*
X125152027Y-97327725D01*
X125120809Y-97330800D01*
X124679191Y-97330800D01*
X124647973Y-97327725D01*
X124620350Y-97319346D01*
X124594887Y-97305736D01*
X124572575Y-97287425D01*
X124554264Y-97265113D01*
X124540654Y-97239650D01*
X124532275Y-97212027D01*
X124529200Y-97180809D01*
X124529200Y-96789191D01*
X124532275Y-96757973D01*
X124540654Y-96730350D01*
X124554264Y-96704887D01*
X124572575Y-96682575D01*
X124594887Y-96664264D01*
X124620350Y-96650654D01*
X124647973Y-96642275D01*
X124679191Y-96639200D01*
X125120809Y-96639200D01*
X125152027Y-96642275D01*
G37*
G36*
X127152027Y-96642275D02*
G01*
X127179650Y-96650654D01*
X127205113Y-96664264D01*
X127227425Y-96682575D01*
X127245736Y-96704887D01*
X127259346Y-96730350D01*
X127267725Y-96757973D01*
X127270800Y-96789191D01*
X127270800Y-97180809D01*
X127267725Y-97212027D01*
X127259346Y-97239650D01*
X127245736Y-97265113D01*
X127227425Y-97287425D01*
X127205113Y-97305736D01*
X127179650Y-97319346D01*
X127152027Y-97327725D01*
X127120809Y-97330800D01*
X126679191Y-97330800D01*
X126647973Y-97327725D01*
X126620350Y-97319346D01*
X126594887Y-97305736D01*
X126572575Y-97287425D01*
X126554264Y-97265113D01*
X126540654Y-97239650D01*
X126532275Y-97212027D01*
X126529200Y-97180809D01*
X126529200Y-96789191D01*
X126532275Y-96757973D01*
X126540654Y-96730350D01*
X126554264Y-96704887D01*
X126572575Y-96682575D01*
X126594887Y-96664264D01*
X126620350Y-96650654D01*
X126647973Y-96642275D01*
X126679191Y-96639200D01*
X127120809Y-96639200D01*
X127152027Y-96642275D01*
G37*
G36*
X124152027Y-96642275D02*
G01*
X124179650Y-96650654D01*
X124205113Y-96664264D01*
X124227425Y-96682575D01*
X124245736Y-96704887D01*
X124259346Y-96730350D01*
X124267725Y-96757973D01*
X124270800Y-96789191D01*
X124270800Y-97180809D01*
X124267725Y-97212027D01*
X124259346Y-97239650D01*
X124245736Y-97265113D01*
X124227425Y-97287425D01*
X124205113Y-97305736D01*
X124179650Y-97319346D01*
X124152027Y-97327725D01*
X124120809Y-97330800D01*
X123679191Y-97330800D01*
X123647973Y-97327725D01*
X123620350Y-97319346D01*
X123594887Y-97305736D01*
X123572575Y-97287425D01*
X123554264Y-97265113D01*
X123540654Y-97239650D01*
X123532275Y-97212027D01*
X123529200Y-97180809D01*
X123529200Y-96789191D01*
X123532275Y-96757973D01*
X123540654Y-96730350D01*
X123554264Y-96704887D01*
X123572575Y-96682575D01*
X123594887Y-96664264D01*
X123620350Y-96650654D01*
X123647973Y-96642275D01*
X123679191Y-96639200D01*
X124120809Y-96639200D01*
X124152027Y-96642275D01*
G37*
G36*
X129152027Y-96642275D02*
G01*
X129179650Y-96650654D01*
X129205113Y-96664264D01*
X129227425Y-96682575D01*
X129245736Y-96704887D01*
X129259346Y-96730350D01*
X129267725Y-96757973D01*
X129270800Y-96789191D01*
X129270800Y-97180809D01*
X129267725Y-97212027D01*
X129259346Y-97239650D01*
X129245736Y-97265113D01*
X129227425Y-97287425D01*
X129205113Y-97305736D01*
X129179650Y-97319346D01*
X129152027Y-97327725D01*
X129120809Y-97330800D01*
X128679191Y-97330800D01*
X128647973Y-97327725D01*
X128620350Y-97319346D01*
X128594887Y-97305736D01*
X128572575Y-97287425D01*
X128554264Y-97265113D01*
X128540654Y-97239650D01*
X128532275Y-97212027D01*
X128529200Y-97180809D01*
X128529200Y-96789191D01*
X128532275Y-96757973D01*
X128540654Y-96730350D01*
X128554264Y-96704887D01*
X128572575Y-96682575D01*
X128594887Y-96664264D01*
X128620350Y-96650654D01*
X128647973Y-96642275D01*
X128679191Y-96639200D01*
X129120809Y-96639200D01*
X129152027Y-96642275D01*
G37*
G36*
X123152027Y-96642275D02*
G01*
X123179650Y-96650654D01*
X123205113Y-96664264D01*
X123227425Y-96682575D01*
X123245736Y-96704887D01*
X123259346Y-96730350D01*
X123267725Y-96757973D01*
X123270800Y-96789191D01*
X123270800Y-97180809D01*
X123267725Y-97212027D01*
X123259346Y-97239650D01*
X123245736Y-97265113D01*
X123227425Y-97287425D01*
X123205113Y-97305736D01*
X123179650Y-97319346D01*
X123152027Y-97327725D01*
X123120809Y-97330800D01*
X122679191Y-97330800D01*
X122647973Y-97327725D01*
X122620350Y-97319346D01*
X122594887Y-97305736D01*
X122572575Y-97287425D01*
X122554264Y-97265113D01*
X122540654Y-97239650D01*
X122532275Y-97212027D01*
X122529200Y-97180809D01*
X122529200Y-96789191D01*
X122532275Y-96757973D01*
X122540654Y-96730350D01*
X122554264Y-96704887D01*
X122572575Y-96682575D01*
X122594887Y-96664264D01*
X122620350Y-96650654D01*
X122647973Y-96642275D01*
X122679191Y-96639200D01*
X123120809Y-96639200D01*
X123152027Y-96642275D01*
G37*
G36*
X126152027Y-96642275D02*
G01*
X126179650Y-96650654D01*
X126205113Y-96664264D01*
X126227425Y-96682575D01*
X126245736Y-96704887D01*
X126259346Y-96730350D01*
X126267725Y-96757973D01*
X126270800Y-96789191D01*
X126270800Y-97180809D01*
X126267725Y-97212027D01*
X126259346Y-97239650D01*
X126245736Y-97265113D01*
X126227425Y-97287425D01*
X126205113Y-97305736D01*
X126179650Y-97319346D01*
X126152027Y-97327725D01*
X126120809Y-97330800D01*
X125679191Y-97330800D01*
X125647973Y-97327725D01*
X125620350Y-97319346D01*
X125594887Y-97305736D01*
X125572575Y-97287425D01*
X125554264Y-97265113D01*
X125540654Y-97239650D01*
X125532275Y-97212027D01*
X125529200Y-97180809D01*
X125529200Y-96789191D01*
X125532275Y-96757973D01*
X125540654Y-96730350D01*
X125554264Y-96704887D01*
X125572575Y-96682575D01*
X125594887Y-96664264D01*
X125620350Y-96650654D01*
X125647973Y-96642275D01*
X125679191Y-96639200D01*
X126120809Y-96639200D01*
X126152027Y-96642275D01*
G37*
G36*
X149200800Y-96675800D02*
G01*
X147299200Y-96675800D01*
X147299200Y-95824200D01*
X149200800Y-95824200D01*
X149200800Y-96675800D01*
G37*
G36*
X123152027Y-95672275D02*
G01*
X123179650Y-95680654D01*
X123205113Y-95694264D01*
X123227425Y-95712575D01*
X123245736Y-95734887D01*
X123259346Y-95760350D01*
X123267725Y-95787973D01*
X123270800Y-95819191D01*
X123270800Y-96210809D01*
X123267725Y-96242027D01*
X123259346Y-96269650D01*
X123245736Y-96295113D01*
X123227425Y-96317425D01*
X123205113Y-96335736D01*
X123179650Y-96349346D01*
X123152027Y-96357725D01*
X123120809Y-96360800D01*
X122679191Y-96360800D01*
X122647973Y-96357725D01*
X122620350Y-96349346D01*
X122594887Y-96335736D01*
X122572575Y-96317425D01*
X122554264Y-96295113D01*
X122540654Y-96269650D01*
X122532275Y-96242027D01*
X122529200Y-96210809D01*
X122529200Y-95819191D01*
X122532275Y-95787973D01*
X122540654Y-95760350D01*
X122554264Y-95734887D01*
X122572575Y-95712575D01*
X122594887Y-95694264D01*
X122620350Y-95680654D01*
X122647973Y-95672275D01*
X122679191Y-95669200D01*
X123120809Y-95669200D01*
X123152027Y-95672275D01*
G37*
G36*
X126152027Y-95672275D02*
G01*
X126179650Y-95680654D01*
X126205113Y-95694264D01*
X126227425Y-95712575D01*
X126245736Y-95734887D01*
X126259346Y-95760350D01*
X126267725Y-95787973D01*
X126270800Y-95819191D01*
X126270800Y-96210809D01*
X126267725Y-96242027D01*
X126259346Y-96269650D01*
X126245736Y-96295113D01*
X126227425Y-96317425D01*
X126205113Y-96335736D01*
X126179650Y-96349346D01*
X126152027Y-96357725D01*
X126120809Y-96360800D01*
X125679191Y-96360800D01*
X125647973Y-96357725D01*
X125620350Y-96349346D01*
X125594887Y-96335736D01*
X125572575Y-96317425D01*
X125554264Y-96295113D01*
X125540654Y-96269650D01*
X125532275Y-96242027D01*
X125529200Y-96210809D01*
X125529200Y-95819191D01*
X125532275Y-95787973D01*
X125540654Y-95760350D01*
X125554264Y-95734887D01*
X125572575Y-95712575D01*
X125594887Y-95694264D01*
X125620350Y-95680654D01*
X125647973Y-95672275D01*
X125679191Y-95669200D01*
X126120809Y-95669200D01*
X126152027Y-95672275D01*
G37*
G36*
X128152027Y-95672275D02*
G01*
X128179650Y-95680654D01*
X128205113Y-95694264D01*
X128227425Y-95712575D01*
X128245736Y-95734887D01*
X128259346Y-95760350D01*
X128267725Y-95787973D01*
X128270800Y-95819191D01*
X128270800Y-96210809D01*
X128267725Y-96242027D01*
X128259346Y-96269650D01*
X128245736Y-96295113D01*
X128227425Y-96317425D01*
X128205113Y-96335736D01*
X128179650Y-96349346D01*
X128152027Y-96357725D01*
X128120809Y-96360800D01*
X127679191Y-96360800D01*
X127647973Y-96357725D01*
X127620350Y-96349346D01*
X127594887Y-96335736D01*
X127572575Y-96317425D01*
X127554264Y-96295113D01*
X127540654Y-96269650D01*
X127532275Y-96242027D01*
X127529200Y-96210809D01*
X127529200Y-95819191D01*
X127532275Y-95787973D01*
X127540654Y-95760350D01*
X127554264Y-95734887D01*
X127572575Y-95712575D01*
X127594887Y-95694264D01*
X127620350Y-95680654D01*
X127647973Y-95672275D01*
X127679191Y-95669200D01*
X128120809Y-95669200D01*
X128152027Y-95672275D01*
G37*
G36*
X129152027Y-95672275D02*
G01*
X129179650Y-95680654D01*
X129205113Y-95694264D01*
X129227425Y-95712575D01*
X129245736Y-95734887D01*
X129259346Y-95760350D01*
X129267725Y-95787973D01*
X129270800Y-95819191D01*
X129270800Y-96210809D01*
X129267725Y-96242027D01*
X129259346Y-96269650D01*
X129245736Y-96295113D01*
X129227425Y-96317425D01*
X129205113Y-96335736D01*
X129179650Y-96349346D01*
X129152027Y-96357725D01*
X129120809Y-96360800D01*
X128679191Y-96360800D01*
X128647973Y-96357725D01*
X128620350Y-96349346D01*
X128594887Y-96335736D01*
X128572575Y-96317425D01*
X128554264Y-96295113D01*
X128540654Y-96269650D01*
X128532275Y-96242027D01*
X128529200Y-96210809D01*
X128529200Y-95819191D01*
X128532275Y-95787973D01*
X128540654Y-95760350D01*
X128554264Y-95734887D01*
X128572575Y-95712575D01*
X128594887Y-95694264D01*
X128620350Y-95680654D01*
X128647973Y-95672275D01*
X128679191Y-95669200D01*
X129120809Y-95669200D01*
X129152027Y-95672275D01*
G37*
G36*
X130152027Y-95672275D02*
G01*
X130179650Y-95680654D01*
X130205113Y-95694264D01*
X130227425Y-95712575D01*
X130245736Y-95734887D01*
X130259346Y-95760350D01*
X130267725Y-95787973D01*
X130270800Y-95819191D01*
X130270800Y-96210809D01*
X130267725Y-96242027D01*
X130259346Y-96269650D01*
X130245736Y-96295113D01*
X130227425Y-96317425D01*
X130205113Y-96335736D01*
X130179650Y-96349346D01*
X130152027Y-96357725D01*
X130120809Y-96360800D01*
X129679191Y-96360800D01*
X129647973Y-96357725D01*
X129620350Y-96349346D01*
X129594887Y-96335736D01*
X129572575Y-96317425D01*
X129554264Y-96295113D01*
X129540654Y-96269650D01*
X129532275Y-96242027D01*
X129529200Y-96210809D01*
X129529200Y-95819191D01*
X129532275Y-95787973D01*
X129540654Y-95760350D01*
X129554264Y-95734887D01*
X129572575Y-95712575D01*
X129594887Y-95694264D01*
X129620350Y-95680654D01*
X129647973Y-95672275D01*
X129679191Y-95669200D01*
X130120809Y-95669200D01*
X130152027Y-95672275D01*
G37*
G36*
X124152027Y-95672275D02*
G01*
X124179650Y-95680654D01*
X124205113Y-95694264D01*
X124227425Y-95712575D01*
X124245736Y-95734887D01*
X124259346Y-95760350D01*
X124267725Y-95787973D01*
X124270800Y-95819191D01*
X124270800Y-96210809D01*
X124267725Y-96242027D01*
X124259346Y-96269650D01*
X124245736Y-96295113D01*
X124227425Y-96317425D01*
X124205113Y-96335736D01*
X124179650Y-96349346D01*
X124152027Y-96357725D01*
X124120809Y-96360800D01*
X123679191Y-96360800D01*
X123647973Y-96357725D01*
X123620350Y-96349346D01*
X123594887Y-96335736D01*
X123572575Y-96317425D01*
X123554264Y-96295113D01*
X123540654Y-96269650D01*
X123532275Y-96242027D01*
X123529200Y-96210809D01*
X123529200Y-95819191D01*
X123532275Y-95787973D01*
X123540654Y-95760350D01*
X123554264Y-95734887D01*
X123572575Y-95712575D01*
X123594887Y-95694264D01*
X123620350Y-95680654D01*
X123647973Y-95672275D01*
X123679191Y-95669200D01*
X124120809Y-95669200D01*
X124152027Y-95672275D01*
G37*
G36*
X127152027Y-95672275D02*
G01*
X127179650Y-95680654D01*
X127205113Y-95694264D01*
X127227425Y-95712575D01*
X127245736Y-95734887D01*
X127259346Y-95760350D01*
X127267725Y-95787973D01*
X127270800Y-95819191D01*
X127270800Y-96210809D01*
X127267725Y-96242027D01*
X127259346Y-96269650D01*
X127245736Y-96295113D01*
X127227425Y-96317425D01*
X127205113Y-96335736D01*
X127179650Y-96349346D01*
X127152027Y-96357725D01*
X127120809Y-96360800D01*
X126679191Y-96360800D01*
X126647973Y-96357725D01*
X126620350Y-96349346D01*
X126594887Y-96335736D01*
X126572575Y-96317425D01*
X126554264Y-96295113D01*
X126540654Y-96269650D01*
X126532275Y-96242027D01*
X126529200Y-96210809D01*
X126529200Y-95819191D01*
X126532275Y-95787973D01*
X126540654Y-95760350D01*
X126554264Y-95734887D01*
X126572575Y-95712575D01*
X126594887Y-95694264D01*
X126620350Y-95680654D01*
X126647973Y-95672275D01*
X126679191Y-95669200D01*
X127120809Y-95669200D01*
X127152027Y-95672275D01*
G37*
G36*
X125152027Y-95672275D02*
G01*
X125179650Y-95680654D01*
X125205113Y-95694264D01*
X125227425Y-95712575D01*
X125245736Y-95734887D01*
X125259346Y-95760350D01*
X125267725Y-95787973D01*
X125270800Y-95819191D01*
X125270800Y-96210809D01*
X125267725Y-96242027D01*
X125259346Y-96269650D01*
X125245736Y-96295113D01*
X125227425Y-96317425D01*
X125205113Y-96335736D01*
X125179650Y-96349346D01*
X125152027Y-96357725D01*
X125120809Y-96360800D01*
X124679191Y-96360800D01*
X124647973Y-96357725D01*
X124620350Y-96349346D01*
X124594887Y-96335736D01*
X124572575Y-96317425D01*
X124554264Y-96295113D01*
X124540654Y-96269650D01*
X124532275Y-96242027D01*
X124529200Y-96210809D01*
X124529200Y-95819191D01*
X124532275Y-95787973D01*
X124540654Y-95760350D01*
X124554264Y-95734887D01*
X124572575Y-95712575D01*
X124594887Y-95694264D01*
X124620350Y-95680654D01*
X124647973Y-95672275D01*
X124679191Y-95669200D01*
X125120809Y-95669200D01*
X125152027Y-95672275D01*
G37*
M02*
